/* XPM */
static const char *MQ__[] = {
/* columns rows colors chars-per-pixel */
"75 75 256 2 ",
"   c #BE735F",
".  c #BD7A6B",
"X  c #B76F78",
"o  c #AC7B7C",
"O  c #B07571",
"+  c #BD7574",
"@  c #BB7A73",
"#  c #B4757C",
"$  c #B37B7B",
"%  c #B87978",
"&  c #D57C45",
"*  c #CF7953",
"=  c #CB7A5B",
"-  c #C67C65",
";  c #CB7863",
":  c #C97C62",
">  c #C8776A",
",  c #C37B6B",
"<  c #C37A73",
"1  c #D8803F",
"2  c #BBA95D",
"3  c #B5B454",
"4  c #BAB75C",
"5  c #BCBB5C",
"6  c #BA8769",
"7  c #BC8C6C",
"8  c #AD906A",
"9  c #BA9769",
"0  c #B59B6D",
"q  c #AB877A",
"w  c #AB8C7C",
"e  c #B58675",
"r  c #A49074",
"t  c #A49777",
"y  c #AD9576",
"u  c #AC9C75",
"i  c #A6947E",
"p  c #AB947B",
"a  c #A59B7D",
"s  c #A99B7A",
"d  c #B49273",
"f  c #B29B72",
"g  c #9EAE6C",
"h  c #9CA97B",
"j  c #9CB67A",
"k  c #ABA66B",
"l  c #AEAC6D",
"z  c #BBA364",
"x  c #B7AA67",
"c  c #BBAB63",
"v  c #B4A36B",
"b  c #B3AC6A",
"n  c #ACB46D",
"m  c #A7BB6D",
"M  c #ABBC6B",
"N  c #B4B464",
"B  c #BBB363",
"V  c #B5B966",
"C  c #A7A477",
"Z  c #ACA374",
"A  c #A5AC74",
"S  c #AAAC72",
"D  c #A4A37B",
"F  c #A3AC7B",
"G  c #B2A573",
"H  c #A5B374",
"J  c #A4B776",
"K  c #ABB472",
"L  c #B8B477",
"P  c #CD8E4A",
"I  c #DB844C",
"U  c #D7894C",
"Y  c #D2974E",
"T  c #CD855C",
"R  c #D48454",
"E  c #D98655",
"W  c #D48B53",
"Q  c #D2835B",
"!  c #C49C5D",
"~  c #CA9858",
"^  c #D19652",
"/  c #C6A758",
"(  c #C3AC5B",
")  c #C4B355",
"_  c #C4B55B",
"`  c #C78665",
"'  c #C49664",
"]  c #D3906D",
"[  c #E29D71",
"{  c #C2A763",
"}  c #C6B46E",
"|  c #B8C45B",
" . c #B4CB5C",
".. c #B4CF5C",
"X. c #9DC075",
"o. c #ACC666",
"O. c #ACC36B",
"+. c #B4C466",
"@. c #B4CA63",
"#. c #ADC472",
"$. c #C4C668",
"%. c #755DBB",
"&. c #7B69AB",
"*. c #7A76A9",
"=. c #7E7BAC",
"-. c #6E6BBD",
";. c #7D6DB5",
":. c #7466B9",
">. c #7B65BD",
",. c #756CBD",
"<. c #7B6CBB",
"1. c #7D75B4",
"2. c #7678B7",
"3. c #7D7AB3",
"4. c #7672BC",
"5. c #7A73BB",
"6. c #695FC3",
"7. c #6D5ECE",
"8. c #735EC6",
"9. c #675BD4",
"0. c #6A5DD2",
"q. c #6D67C4",
"w. c #6E63CC",
"e. c #7465C5",
"r. c #7769C3",
"t. c #746BC3",
"y. c #7164C9",
"u. c #7B74C6",
"i. c #6B60D0",
"p. c #786CD5",
"a. c #9C788B",
"s. c #966B92",
"d. c #9A6D99",
"f. c #88789A",
"g. c #8D7D9E",
"h. c #9D7394",
"j. c #9B7C93",
"k. c #95749D",
"l. c #9A739A",
"z. c #937C9C",
"x. c #987B98",
"c. c #A76D8C",
"v. c #AD7583",
"b. c #AB7B84",
"n. c #A5748D",
"m. c #A87789",
"M. c #A47C8B",
"N. c #B27682",
"B. c #A37592",
"V. c #876AAA",
"C. c #8C6CAB",
"Z. c #926DA3",
"A. c #8C74A5",
"S. c #857DA5",
"D. c #8B7CA4",
"F. c #8574AC",
"G. c #8A74AA",
"H. c #847CAB",
"J. c #8878A8",
"K. c #9273A2",
"L. c #957AA2",
"P. c #8466B4",
"I. c #836BB3",
"U. c #8274B3",
"Y. c #817AB1",
"T. c #8979BA",
"R. c #8377C5",
"E. c #957FC9",
"W. c #7E8999",
"Q. c #7C84A9",
"!. c #7484B2",
"~. c #9D848D",
"^. c #988B8B",
"/. c #9B8C8C",
"(. c #8D928A",
"). c #939683",
"_. c #9D9485",
"`. c #9D9C85",
"'. c #95948D",
"]. c #9B948B",
"[. c #949C8C",
"{. c #9B9A8A",
"}. c #8D849D",
"|. c #878899",
" X c #8C8B9C",
".X c #958595",
"XX c #9A8492",
"oX c #948C94",
"OX c #998B92",
"+X c #92849A",
"@X c #9A859A",
"#X c #928A9A",
"$X c #8C9695",
"%X c #8D929B",
"&X c #939393",
"*X c #959894",
"=X c #A58485",
"-X c #AA8782",
";X c #A48D84",
":X c #A2848B",
">X c #A28B8A",
",X c #A39484",
"<X c #A59586",
"1X c #A29B82",
"2X c #B09093",
"3X c #9CA483",
"4X c #98A686",
"5X c #90A890",
"6X c #A3A684",
"7X c #AEB18F",
"8X c #8484A4",
"9X c #8B83A3",
"0X c #848BA3",
"qX c #8A8CA1",
"wX c #8483AB",
"eX c #8888AA",
"rX c #9789A5",
"tX c #9695A5",
"yX c #8886B6",
"uX c #9092B0",
"iX c #AA96AE",
"pX c #ACADAF",
"aX c #C9978A",
"sX c #D0AD92",
"dX c #E3B191",
"fX c #CFB1B2",
"gX c #E3B8A8",
"hX c #B2C392",
"jX c #BAC6B4",
"kX c #CCD294",
"lX c #D0D0B3",
"zX c #E7CFB2",
"xX c #E9C6B8",
"cX c #DCE2BC",
"vX c #9791C9",
"bX c #A79CCE",
"nX c #B5AECD",
"mX c #C6BBCE",
"MX c #C2BFE1",
"NX c #D2CFD2",
"BX c #EDD6CD",
"VX c #E8D9CB",
"CX c #DAE2CE",
"ZX c #E8E8D9",
"AX c #F3E5D8",
"SX c #CFCBE6",
"DX c #DCD8E7",
"FX c #E2DCE7",
"GX c #DEE0E5",
"HX c #E9E7E6",
"JX c #F5ECE7",
"KX c #F2F2ED",
"LX c #EBEAF4",
"PX c #F4F3F5",
"IX c #FAF7F5",
"UX c #FFFFFE",
/* pixels */
"2X{.*XtXtXuXyXyXyXT.T.yXyXyXuXuXrXtXrXtXtXrXrXrXrXrXrXL.rXuXuXyXT.yXT.T.R.R.R.R.u.p.p.p.p.p.p.p.p.p.u.u.R.R.yXuXuXuXtXtXtX5X7X7X7XL } $.} $.} L L L 7X",
"M.oX|.g.S.*.*.2.;.:.4.2.3.Q.Q.|.|.}.x. X#Xz.l.}. Xg.k.A.J.J.H.1.P.<.4.>.>.e.e.8.7.7.7.9.9.9.9.7.7.q.t.,.<.;.F.wX9Xk.k.$X'.{.,Xh H n M @.|  .5 n H C h ",
"*X.X}.S.H.I.P.4.:.4.2.3.=.S.S. X}. X#X#X.X.X+X X}.k.D.J.H.C.F.3.1.<.4.t.t.t.y.w.w.0.9.9.0.0.w.w.e.t.4.5.I.P.C.9XL.l..XXXM.-Xw H H V +...| o.n 7 C i b.",
"oX XZ.F.3.P.>.,.-.!.!.=.Q.0Xg.}..X$X&XoX.X.X#X X+Xz.S.J.J.F.1.1.5.4.t.t.t.w.w.w.0.9.9.0.w.w.y.t.t.4.4.1.I.C.D.qX X#XoXM.=Xi F S n O. ...4 N m u a `.].",
"+XD.V.1.2.>.>.q.-.!.Q.S.0X|.x.$X.X&X&X&XXX.Xx.x. Xg.A.J.F.3.1.;.<.t.t.e.y.w.7.0.9.9.i.w.w.w.t.t.5.3.3.3.F.J.qXqX%X*XM.b.3X6XC ` N V (  .' v X.j 3X/.*X",
"9XJ.V.2.4.8.e.-.2.=.S.8X}. X.XoXXX[.[.*XoX.X#X#X Xz.D.J.F.U.U.<.,.t.e.e.y.7.0.9.0.w.y.y.e.e.t.4.1.U.Y.F.G.A.9X|.|.(.M.=X3XF 7 9 o.( ( @.v Z y 3X4XoX#X",
"S.V.P.<.>.e.q.,.1.Q.8X|. XoXoX~.'.].[./.oXoXXXoX+Xz.D.A.F.Y.U.<.,.t.t.e.y.0.0.i.w.y.e.e.e.e.<.U.I.C.F.V.V.k.tXpXNXpXv.q F G 7 n o.| N m X.u i 4X[.$X}.",
"S.V.P.,.-.q.,.1.H.8X X$X$X'././.]._.{.].].&XXXXX.X+XA.J.H.Y.U.<.,.t.t.y.w.w.w.w.y.t.t.t.t.,.5.;.V.V.T.iXmXFXIXUXUXUXNXo F K n N 2 4 ` n J h 4X5X5X$X X",
"=.1.4.4.q.-.2.Q.8X X+X&X'./._._.,X,X<X4X{.~.OXOX#Xz.D.J.G.U.I.<.t.t.t.y.w.w.7.y.e.t.t.,.:.:.3.vXnXDXPXUXUXUXUXUXUXUXUX7XA J n T ! x v G y 1X].5X$X}.S.",
"F.3.4.,.,.2.Q.8X X|..X].]._.,X,X,X,X,X,X_./.OXXX.Xz.D.J.F.Y.1.<.t.t.q.y.w.y.y.q.q.:.>.vXnXSXLXUXUXUXUXUXUXPXHXfXNXUXUXlXA #.M c N n J s a 1X].5X$X|.S.",
"=.1.2.4.2.=.S.|.%X&X]._.;X,Xi a i i 1X1X`._.].OX.X+XL.A.F.3.1.4.t.e.w.q.q.6.q.R.bXSXLXUXUXUXUXUXUXIXHXNXpXtX&X(.CXUXUX7XZ K z V m J H D 3X{.'.$X X9X8X",
"=.!.!.4.I.S.}.#X$X'._.;X-Xi i D C a i i ,X,X].OXoX+Xz.A.H.3.1.>.>.e.t.q.q.bXDXIXUXUXUXUXUXUXLXSXnXrXg.|.f..XM.2XIXUXHXe Z 9 T b X.j F ,X,X5X&X$X|.A.J.",
"Q.!.2.1.S.k.z.oX/._.,Xi s s s F C s a i 1X=X_.'.oX+Xz.D.H.F.1.<.,.t.q.u.SXUXUXUXUXUXPXSXnXuXH.A.f.}.}.+Xh.M.a.fXUXUXlXk G ` 7 l m j j ,X>X/..X$X XS.8X",
"=.3.1.S.S.+XoX/.=X,X1Xs C s s C C s s a 1X,X{.].oX.Xz.D.G.C.U.2.4.>.u.LXUXUXUXFXnXvXyX&.V.V.8XD.D.qX}.h.j./.].HXUXUXhXA 0 9 l H j j 4X4X[.[.oX.X|.0XQ.",
"Q.Q.J.}.+Xj.]._.,X1Xa C C C u y u s p i 1X3X[.].&X.Xk.D.J.J.I.1.<.:.SXUXUXLXvXI.&.*.F.H.G.J.0X9X}. X X#XXX[.pXUXUXZXg S l n m j j j 4X4X[.[.&X%X|.8X8X",
"Q.8X X#XXX:X].,X,Xi s s y u u y y C C D 6X,X_.'.&XoXz.Z.A.wXH.3.>.vXUXUXLXyX&.H.H.H.H.8XJ.S.9X}.%X.X.X&Xn.^.NXUXUXlXg 7 9 m H A h h `.4X5X'.oX$X X%X8X",
"|.|.$X&X/.].`.,Xw s s y y u C C u y s a 3X,X:X/.&X&X X}.K.D.wX!.&.MXUXUXbX&.G.H.H.H.D.9XK.k.g.}..XoXXX5X'.{.KXUXPX6XH 7 0 Z u s D a ,X=X[.~.oX$X#X|.|.",
"#XoX&X[./._.,X,Xa p y y y u C C C y w w `._.:XM.OX&X X X9X9XwXwX*.SXUXIXuXG.C.A.S.9X9X}.k.k.k.%XoX&XXX~.).jXUXUXCXg H H 0 d e e a i 3X`.4X[.[.$XoX.X X",
".X^.'.]._.;X;X1XD p w p C y y u C s w -X,X{./.~.XX.X+X X0X0X0XeX*.SXUXUXuXQ.9XD.0X|.|. X#X+Xx.#XXX&X/.:X).CXUXUXsX8 Z m H S u p s q 3X`.4X4X'./.'.oX&X",
"/./.~._._.;X,Xi i s p s s s s s C D ,X;X<X{.[.&XoXx.l.+X X0X0X0X*.nXUXUXNXf.W.|.rXpXNXHXtXh.x.&XOX*X/.'.5XIXUXKXF A J m S u F j D h 4X`.3X`.{.[.{.'.oX",
"/./.:X,X,X,X1X1Xa a p w p s C D D 1X`.{.].].*X*X&X.Xh.d.}.qX0X0X0XqXPXUXUXDXmXDXPXUXUXHXoXj.h.&X[.[.>Xr jXUXUXlXg J H S d d u j j j j h 4X1X1X`.,X].'.",
"=X/._.,X,X,X,X1X1Xi i i i i a 6X1X`.{.{.]././.&X*X&Xx.h.l.k.k.|.%X|.pXUXUXUXUXUXUXUXUXpXa.XX/.'.5X_._.4XZXUXUX7XC d f A A H J J s e C F F h i a 4X/.:X",
"=X;X_.;X;X,X;X-X,X,X,X;X-X;X1X`.{.[.[.{.].:XM.M.OX&X&Xx.x.x.d.l. X+X|.pXKXUXUXIXUXUXPX*Xa.n.M.M.>X=Xb.7XUXUXAXe e , f H A Z S H u d C H y s D w ,X_.=X",
"_._.,X,X<X;X_.;X;X,X;X;X;X,X_.{.{.{.[.[.'.:XB.B.M.OX$X&X&X#XB.c.j.h.B.oX$XpXpXjXUXUXNX[.:Xc.m.b.b.1Xt lXUXUXfX8 f 0 S S S 7 7 H H H H K f f D i ,X;X=X",
"`._.,X<X_.]./.>X/._._._._.].].].].].&X&X&XOXM.B.B.M.oX*X&X&XOXB.B.j.c.n.[.~.c.NXUXUXpX_.{.>X`.=XN.6Xh KXUXIX7XH K n 0 0 S ` 7 H n k K b K f s a `._._.",
"_._././._./.~./././.].].].*X&XoXOXXXXXoX&X&XXXB.n.n.~.'./.M.OX/.M./.:Xc.>X_.2XIXUXKX`.v.b.3X4X1Xq t hXUXUXCXg m m n 0 l K 7 ` v 0 9 x ' 9 f s a `.`.`.",
",X_././././.OXoXOXOXOX&X&XoXoX#Xx.j.j.j..X&XoXj.n.n.M././.n.c./.[.[.4X>X=X).lXUXUXlXh <X# i 3Xh h h CXUXUXhXg m M n n m m b ` ` 9 N V x 9 C s i ,X,X,X",
">X/././.oXoX.X.X#XoXoX&X#X X X Xx.l.l.h.h.XX&X&X~.M.M.M.M.m.v.v.`.4X4X4X3X3XHXUXUX7Xi 1Xa D p p t d PXUXKXd k n 9 ' n O.O.O.N ' N N z M v u s i ,X;X-X",
"_.'.OXXX.X#Xx.x.+X+X X X XqXqXqXg.k.d.d.h.h.XX&X[.].:Xm.v.v.v.v.q 4X4X4Xh 7XUXUXZXt % % s j D D 8 sXUXUXxX; 7 z ` ` x o.o.N 4 +.@.B c 0 S A p i ,X,X;X",
"].&XoXx.+X+Xz.z.D.D.D.9X9X8X8X8X9XK.d.d.h.h.h.oX[.[._.b.v.# # # $ D h F g lXUXUXfXO w + @ u A J k VXUXUXsX6 9 N ' ' N o.+.~ W 5 / V m 9 d u a i ;X,X{.",
"M..X.Xz.}.9X9XD.A.A.A.H.wXH.H.wX8XD.K.d.d.h.h.XX'.5X{.=X# X X X % e C y d KXUXIX< + d d 6 6 < f hXUXUXHXm n M O.V c ~ ( | / ) _ ~ N O.l 6 y i ,X1X{.].",
"XX#X+XD.S.D.D.H.F.F.U.Y.F.I.I.F.H.wXD.k.d.h.h.j./.{.`.,Xo # X + + + e 6 aXUXUXCX8 , 7 S S 7 > . lXUXUXlXo.O.o.o.+.! * ^ |  . .V z n 9 d d p 6X;X_.]./.",
"+X}.D.D.J.J.F.Y.3.1.1.1.;.P.P.P.I.H.eX9Xz.l.h.j.~.>X,X1Xw # + < < > , . BXUXUXsXk l v m m 0 ` 6 JXUXIX} o.O.V +. .( ^ )  . .5 ! ` 9 ` f y s 1X{././.XX",
"+X9XD.H.F.Y.U.1.5.5.4.4.<.P.P.P.P.F.0XqX X+Xx.M.n.b.b.q w $ + < > > > ` IXUXJX- v m m O.m ' ' sXUXUXBX! +.c 2  . . .| ) 5 5 T T ' v Z H s 1X<X;X/.XXx.",
"9XD.H.F.U.1.1.<.>.,.t.t.<.>.P.P.C.A.9X%X%XoXj.n.v.N.N.$ e $ @ > > > = dXUXUXxX= ' n O.O.O.B 2 cXUXUXdX2 +./ 5  ...../ I ~ 5 { { ` 7 A F a 1X=X].&X.X+X",
"9XJ.Y.U.<.<.,.t.e.e.t.t.4.1.P.V.C.K.z.#X*XOXM.m.N.N.# % @ @ , > > ; = BXUXUXaX= ` c o.o.o.o.+.KXUXKX{ 5 | | | _ | | / R ( +.M 9 7 f e i 1X1X].OX.X}.g.",
"wXH.U.<.>.t.t.e.y.y.e.t.3.3.H.G.Z.Z.l.j.OX/.:Xm.N.# % + + , , > ; ; ] IXUXAX{ ' ' c +.@.@. .kXUXUXzXU ^ ) | Y U Y 5 | ( c V M 9 Z F s 3X1X{.*X&X X9X8X",
"H.U.1.,.t.t.w.w.w.8.e.,.3.Y.H.J.Z.d.d.B.M.:X=Xb.# % < + , > - - : * gXUXUXlX3 B B V +.@.@...CXUXUX[ & I Y ) U & W 4 @.V z v l J H y a ;X=X].&X%XqX0XH.",
"U.U.<.t.e.w.w.w.y.8.>.I.Y.A.Z.Z.k.d.h.B.m.b.b.o # % < , > , - : : = AXUXIX} 5 @.+.| | |  .@.IXUXJXU I I Y ) Y W ^ ! B O.v - d J D q ;X=X'.OX.X X9XwXF.",
"U.<.t.y.w.i.w.y.t.>.<.U.F.Z.Z.d.l.h.h.n.c.v.b.# # % + , , - : : * [ UXUXBX~ 5 @. .| 4 ( 3 kXUXUXzXY U U / | 5 / T Q { O.v 7 y y 6X3X<XM.&X.X X9XH.H.Y.",
"<.t.y.w.0.0.w.t.4.<.P.I.H.D.k.l.h.B.n.c.m.N.$ % % + , , - : = = * xXUXUXdXP / _ | _ / ^ P AXUXUX$.5 ( ( 5 @.5 ! T ` ' v H A e e 6X4X].n.oX XD.J.F.U.U.",
"t.t.w.0.0.7.t.4.2.I.P.A.S.9X X+Xj.n.n.m.v.$ # @ @ . , - : : = = Q JXUXIXE U W Y ) ) Y U [ UXUXAX3  . . .@.+.! ' x ` - 7 H F s -X<X].OXoX#X9XD.J.U.;.,.",
"e.w.0.0.7.y.t.5.1.U.F.J.9X X#XoX~.M.m.v.$ $ $ @ . , , : : = T * dXUXUXxX& I U U Y / Y 1 zXUXUXdX/ @.@.@.@.V c n n 7 6 u F 3X6X-X:XM..X+Xk.D.wXC.1.4.t.",
"w.0.9.0.w.t.1.1.Y.F.J.D. X#XXXj.:X=Xb.o q e e . , , ` ` = Q Q & BXUXUX[ & I I I U Y Y U JXUXIX] / +.@.+.o.#.M n v f C s w 1X3X<X*XoX X XD.J.H.U.<.t.e.",
"0.0.0.w.e.<.1.Y.F.A.D. X%XoX~.M.M.-X-Xw w d d 6 ` ` ` ` Q Q * Q IXUXAXI I I I I I W P [ UXUXBXP c +.+.+.#.O.l 7 . d s $ # `.4X[.*X+Xz.D.J.wXY.5.>.e.y.",
"9.w.y.t.,.5.1.H.A.A.}. X&X].:X=X-Xq w s Z Z f 7 ` ` ` Q Q Q & dXUXUXgX1 I I I E I E P zXUXUXdX! V O.O.O.#.m 0 . + e s q ;X[./.XX%Xz.9XwXH.U.I.,.e.y.0.",
"0.y.t.,.<.I.H.H.S.}. X&X*X].;X-X-Xe d C S K v 9 ` ` T Q E E I AXUXIX[ I I I E E E E ] IXUXKX{ B V M n n K H u e e i 6X1X4X].n.XX%X9XJ.H.U.U.<.e.y.7.9.",
"y.t.,.<.I.F.wX9X X XoXOX].1X1X<Xw y f S K l v 9 ` T Q E E I [ UXUXAXI E R E E E Q * dXUXUXcXN M n 0 9 7 d C F s 1X6X,X{.[.&X.X X9XZ.C.F.I.I.t.y.7.9.9.",
"e.>.<.1.F.G.9Xz.+XoX~.:X;X6X6XD u C S l b b N ' T T R W W & zXUXUXdX& E R R Q Q Q * BXUXUXkXM n v 7 , . @ y h 3X`.-Xv./.*X$X%XqXD.G.F.I.<.>.e.w.0.9.w.",
"t.<.1.Y.J.D.+X@X.X/.:X;X-XD F F H S l v z 9 z ! T W W W R E JXUXIXQ * Q Q Q Q Q = ] IXUXZXl K S d 6 . @ @ p 3X4X;XN.m.oX$X%XqX9XA.F.I.<.,.e.w.0.9.w.e.",
"1.1.U.H.D.}.#XOX]./.,X,XD F C S H n b 9 ~ ~ ~ ! ~ ^ W W U dXUXUXBX* Q Q T = T ` = gXUXUXlX0 f f d e @ @ e 1X4X4X<X:XOX$X%XqXD.D.C.P.<.>.e.w.0.9.0.y.t.",
"3.U.J.D.z.+X].].=X-Xa C F K S l n n c ' ~ ~ ^ ^ Y ^ ^ W U zXUXUXdX* T T = = : : - JXUXIX] 6 e e e e e e ,X3X4X].:XXX&X%XqXA.Z.J.C.<.,.t.w.i.9.0.w.t.4.",
"Y.J.D.}.+XOX].>X-Xq s y Z S n n N N 2 ~ ~ ^ ^ Y / Y ^ W ] IXUXJXT T T : : : - = aXUXUXBX. @ @ @ @ $ w 1X3X4X].M.n.j. XqX9XZ.G.G.I.,.t.w.w.9.0.w.e.t.1.",
"H.D.9X+XXX>X<X1Xi y y f v b N N V 5 ( ~ ^ Y Y Y / ) ~ P dXUXUXxX= ` : : - - ,   xXUXUXsX. @ @ % # # -X,X1X[.XXB.h.+XqX0XH.C.F.U.>.e.y.7.0.0.w.t.t.2.1.",
"J.9X XXX>X,X,Xi y f 0 v b N c 4 | 4 _ / / Y Y ^ ( _ ( ~ AXUXUX[ = : - - , , , < KXUXPXe @ % # # # N.b.b.:X&XoXj.x.qX0XwXH.F.3.<.e.t.w.0.0.y.t.t.<.1.H.",
"9X+XoX/.;X<Xi y d 9 v x c ( ! ~ ( _ 5 _ ( / ( ( _ +.5 } UXUXAX` ` - - , , < . sXUXUXVXO % % # # v.b.v.c.M.oX#Xx.k.9XwXwXY.3.5.t.e.w.0.0.y.t.t.4.1.F.A.",
"x.XX]._.,Xy u f v z z c ( / ~ ~ / B V V 5 5 V V +.+.N lXUXUXgX= ` , , < < < . BXUXUXsX$ -XN.v.v.v.M.M.j.oX#Xl.d.K.wXwX3.2.2.t.e.w.0.9.y.e.t.4.1.Y.A.L.",
"XX].{.,Xp u S b z z ( _ ( / ! ! { B V +.| 3 3 2 2 2 x JXUXIX] , . . . @ @ @ -XIXUXHXo q o o v.c.n.j.oX#X%X+Xd.K.J.wX3.3.5.t.t.w.0.9.w.e.t.<.<.U.H.9X@X",
"].{.,Xp y k b 9 ! / 5 B { ' 9 z x V V 3 #.kXcXcXzXzXVXUXUXBX. . . @ @ $ % O fXUXUXHXNXNXNXfX2Xa.j.XX X%XqX9XD.K.G.U.2.<.>.e.w.0.9.0.y.t.4.2.U.H.9X#XOX",
"_.,Xs f 0 v N 4 ( 4 V V c z x n n b N cXIXUXUXUXUXUXUXUXUXsX. @ @ $ e e $ o HXUXUXUXUXUXUXUXUXmXs.l.z.qX0XeXJ.C.P.1.4.t.e.w.0.9.0.y.t.4.2.3.J.D.+X&X].",
",Xy u v 9 z 2 4 4 B x x 9 9 v n v v AXUXUXUXUXIXUXUXUXUXJXe @ @ % $ q -Xq 2XUXUXUXUXUXUXUXUXUXUXfXs.K.9XeXwXC.P.;.4.t.t.w.i.9.0.y.e.<.<.I.F.D.}.oX/.>X",
"s y 0 z { ( ) 4 B c x v 0 d d G 8 VXUXUXIXlX7X7XaXaXaX7X2X% % $ $ o -X{._.<X2X2X2X2XiXiXtXmXUXUXPXK.A.wXwXH.U.<.4.t.t.w.w.9.0.w.e.t.5.1.G.D.9X@X].;X-X",
"u l n { ( ) ( 2 z b v d d d d 6 sXUXUXJX2X8 u t y q q t w $ $ $ # v.=X{.[.'.~.a.c.c.h.x.|.f.NXUXUXiXF.H.Y.Y.2.<.e.e.w.w.0.0.w.y.e.<.1.H.J.9X#XXX>X-Xw ",
"l b B +._ _ B x v Z u y y s y e VXUXUXsXO e p 3X3X6X6X6X<X$ b.b.v.b.:X].*X&XXXh.B.B.l.k.9X|.nXUXUXnX*.U.I.<.<.t.8.w.i.0.i.w.y.t.4.;.H.H.D..XOX<X,Xw C ",
"9 ~ _ _ _ B N l Z C C D h D i s KXUXKXi -X-X1X3X4X4X3X3X,XN.b.=XM.M.:X:XoX&X.Xh.B.l.d.k.D.8XnXUXUXnX&.P.P.>.t.e.w.i.0.7.y.y.e.<.1.F.G.qX XXX:X;Xi u S ",
"! / _ _ { x 0 Z C h w i 3X`.,X7XPXUXCX_.,X3X[.;X;X{._._._.M.M././.M.n.B.x.#X#Xx.l.l.d.K.J.*.SXUXUXvX:.>.>.t.y.w.i.0.7.y.y.t.,.I.3.H.A.+XoX/.=Xi C d 9 ",
"/ ) _ B N n u y i ;Xv.v._.,X;X2XPXUXCX~.m./.].M.m.:XM.M./.&X&X&X&XM.B.h.l.+XqX9XK.Z.Z.A.*.yXPXUXPX3.,.t.e.y.w.0.9.i.y.y.t.4.;.U.wXD.k.oX/._.i D S 9 ~ ",
"5 _ ( V l u s i `.=XM.~.[.].M.:XKXUXKX~.a.^.[.~.a.~.n.n.j.oX#X$X$Xx.d.d.d.D.8X9XD.J.V.&.yXDXUXUXMX-.t.t.y.7.0.9.0.y.t.t.,.<.3.H.9Xx.j.oX>X3XD Z 0 ! ~ ",
"_ B N m A s q =X{.~.'.'.&X&XOXa.NXUXUXNX&X*X*X*X*X*X@Xj.@Xj.B.#XtXrXL.L.L.eXeXeXyXyXuXnXLXUXUXLXu.e.e.e.y.0.9.0.7.e.t.>.;.P.F.K.z.j.XX].-Xp C b N / ) ",
"( V m A s 4X>X/.].XXj.#X.X.X%X|.iXUXUXUXPXPXPXPXPXPXPXPXPXPXPXPXPXPXPXPXPXPXPXPXPXPXUXUXUXUXLXvXq.y.y.y.7.0.0.w.y.t.,.P.I.F.Z.k.@XOX].3Xi y v z V 5 ) ",
"c b S F 1X`.].oXoXx.x.+X+X|. X Xf.nXUXUXUXUXUXUXUXUXUXUXUXUXUXUXUXUXUXUXUXUXUXUXUXUXUXUXUXSXR.q.y.y.y.7.0.0.w.y.t.4.5.I.I.D.L.#XXX/.;X3XD 0 z c ( _ 4 ",
"M H s 3X_./.oX+X|.g.}.}.|.0X8XA.S.Q.iXNXDXGXGXDXGXFXFXDXGXDXDXFXFXDXDXDXDXDXDXDXDXDXSXnXE.8.8.y.w.y.0.0.0.w.y.e.t.5.I.C.A.qX%XOX~._.w e G x { ( ) 4 c ",
"v H a `.[.&X+X}. X8X8XS.8XS.H.A.J.eX8Xf.f.|.|.|.|.|.k.k.f.8X8XS.Z.V.*.&.P.P.;.4.:.:.:.%.%.e.y.7.0.0.0.0.w.y.e.,.2.I.V.Z.D.%X*X*X{.q w f n B 4 _ ( ( 9 ",
"y i 4X5X$X%X X0XW.Q.S.Q.=.F.=.H.J.A.K.9X X}.x.#X+XrXL.K.K.9XeXeXJ.F.Y.U.P.P.I.4.,.t.t.t.e.7.0.9.9.0.7.w.y.e.>.<.3.F.H.D.k.#XOX{.1Xp A b V ( ) | ~ z v ",
"h `.[.$X|.g.J.Q.Q.*.=.!.3.1.Q.H.A.9Xz.+X X}.}.}.l.k.k.D.D.wXeXwXwX3.1.U.U.<.<.t.e.e.t.y.w.0.9.9.0.w.w.y.t.>.>.1.wXwX0Xz.j.oX:X`.w C v z +.| ) 5 z n C "
};
