/* XPM */
static const char *Mw__[] = {
/* columns rows colors chars-per-pixel */
"75 75 256 2 ",
"   c #D87C3E",
".  c #BD7A5F",
"X  c #B9796B",
"o  c #AB777B",
"O  c #B27072",
"+  c #BB7B73",
"@  c #B67679",
"#  c #D67C48",
"$  c #CD765A",
"%  c #C8795B",
"&  c #C87667",
"*  c #C67D65",
"=  c #CB7D63",
"-  c #C27D6B",
";  c #D17D63",
":  c #C17C74",
">  c #D4843F",
",  c #BC9059",
"<  c #BBA85C",
"1  c #B7B352",
"2  c #BBB95A",
"3  c #9A837D",
"4  c #9A9979",
"5  c #AD876C",
"6  c #BB8A6C",
"7  c #AB9969",
"8  c #B9976A",
"9  c #AC867A",
"0  c #AB8D7C",
"q  c #B48777",
"w  c #A39271",
"e  c #AD9676",
"r  c #AC9B75",
"t  c #A5957E",
"y  c #AB947B",
"u  c #A59B7D",
"i  c #A99B7A",
"p  c #B49373",
"a  c #B29A72",
"s  c #9EB06B",
"d  c #9CA87B",
"f  c #9CB67B",
"g  c #ABA96B",
"h  c #BBA364",
"j  c #BCAB63",
"k  c #B4A36B",
"l  c #B3AB6A",
"z  c #B8A968",
"x  c #A6B76A",
"c  c #ACB46D",
"v  c #ACBB6B",
"b  c #B4B465",
"n  c #B6B767",
"m  c #BBB363",
"M  c #B3BC63",
"N  c #ABA374",
"B  c #A8A976",
"V  c #A5A37B",
"C  c #A3AC7B",
"Z  c #B2A673",
"A  c #A5B474",
"S  c #A7B675",
"D  c #B5B77A",
"F  c #D8854A",
"G  c #CB924B",
"H  c #CD825C",
"J  c #C98A59",
"K  c #D48554",
"L  c #D88855",
"P  c #D3835A",
"I  c #C7995A",
"U  c #D29553",
"Y  c #C5A857",
"T  c #C4AB5B",
"R  c #C4B559",
"E  c #C68766",
"W  c #CB8363",
"Q  c #C59664",
"!  c #D4906D",
"~  c #E29F77",
"^  c #C4A864",
"/  c #C4B664",
"(  c #CCAD78",
")  c #B3CC59",
"_  c #B6C85C",
"`  c #9DC075",
"'  c #ADC568",
"]  c #B4C466",
"[  c #B3CC64",
"{  c #A8C173",
"}  c #B3CB70",
"|  c #C5C269",
" . c #7E799E",
".. c #705BBD",
"X. c #7C78A8",
"o. c #7D7BAC",
"O. c #7369B6",
"+. c #7D6DB6",
"@. c #7566B8",
"#. c #7A65BD",
"$. c #756CBD",
"%. c #7B6CBB",
"&. c #7D75B4",
"*. c #7678B7",
"=. c #7D7AB3",
"-. c #7572BC",
";. c #7A73BB",
":. c #675CC6",
">. c #6C5ECE",
",. c #735EC7",
"<. c #675BD4",
"1. c #6A5DD2",
"2. c #6E67C3",
"3. c #6E63CC",
"4. c #7465C5",
"5. c #746BC3",
"6. c #7868C3",
"7. c #7164C9",
"8. c #7970CF",
"9. c #6B61D1",
"0. c #9A7989",
"q. c #8F6B93",
"w. c #9A6D97",
"e. c #9A6D9A",
"r. c #88789A",
"t. c #8D7D9D",
"y. c #9C7495",
"u. c #967A97",
"i. c #9B7C94",
"p. c #94749D",
"a. c #9A729A",
"s. c #937C9C",
"d. c #A76F89",
"f. c #AC7584",
"g. c #AC7B84",
"h. c #A5748D",
"j. c #A87688",
"k. c #A37C8C",
"l. c #B27782",
"z. c #A37692",
"x. c #896BA6",
"c. c #866DAD",
"v. c #8B6CAB",
"b. c #926DA4",
"n. c #8C75A5",
"m. c #847CA5",
"M. c #8C7CA4",
"N. c #8574AC",
"B. c #8A74AA",
"V. c #847CAB",
"C. c #8879A8",
"Z. c #9476A2",
"A. c #8364B4",
"S. c #826CB3",
"D. c #8274B3",
"F. c #817AB1",
"G. c #8878BA",
"H. c #927CBD",
"J. c #8478C5",
"K. c #847BD3",
"L. c #7D869A",
"P. c #7C84AA",
"I. c #7384B2",
"U. c #9D838D",
"Y. c #978D8B",
"T. c #9B8C8C",
"R. c #8C908C",
"E. c #969786",
"W. c #9D9486",
"Q. c #9D9C85",
"!. c #95948D",
"~. c #9B938B",
"^. c #949B8D",
"/. c #9B9A8A",
"(. c #8D849D",
"). c #888998",
"_. c #8C8B9C",
"`. c #958595",
"'. c #9A8492",
"]. c #948C94",
"[. c #9A8B92",
"{. c #92839A",
"}. c #998299",
"|. c #928A99",
" X c #8D9396",
".X c #8B9994",
"XX c #8C929C",
"oX c #939393",
"OX c #989595",
"+X c #929A92",
"@X c #A58485",
"#X c #A78885",
"$X c #A48D84",
"%X c #A2848B",
"&X c #A39383",
"*X c #A59487",
"=X c #A29B82",
"-X c #B28C90",
";X c #97A787",
":X c #9CA383",
">X c #92A98D",
",X c #A4A683",
"<X c #ABB190",
"1X c #8484A4",
"2X c #8B83A2",
"3X c #848AA4",
"4X c #8A8BA2",
"5X c #8482AA",
"6X c #8989AB",
"7X c #9689A5",
"8X c #8D90AE",
"9X c #9695A8",
"0X c #8786B6",
"qX c #9894B9",
"wX c #AC99AF",
"eX c #B2ACAF",
"rX c #C9938F",
"tX c #CFB290",
"yX c #E6B491",
"uX c #C29AA3",
"iX c #D1B5AF",
"pX c #E2BBB4",
"aX c #B7C693",
"sX c #D1CB93",
"dX c #D3CEAF",
"fX c #EAC6A9",
"gX c #EACDBB",
"hX c #DAE3B0",
"jX c #E4E0B9",
"kX c #938AC6",
"lX c #A997CA",
"zX c #B1AECC",
"xX c #B9B4E4",
"cX c #C8B6CC",
"vX c #C3BEE4",
"bX c #BEC2CD",
"nX c #D2CFC7",
"mX c #C9C8D5",
"MX c #D6C9D7",
"NX c #D7D8DB",
"BX c #E4CAC7",
"VX c #EFD8CE",
"CX c #E9D8D8",
"ZX c #DCE5CB",
"AX c #E6E7CD",
"SX c #E7E9D8",
"DX c #F3E6DB",
"FX c #CDC7E7",
"GX c #D9D6E9",
"HX c #E4DDEA",
"JX c #EAE7E8",
"KX c #F4EBE7",
"LX c #F6F4EC",
"PX c #EDEAF3",
"IX c #F8F6F5",
"UX c #FFFEFE",
/* pixels */
"*XOXOX9X9X8X0X0X0XG.G.0X0X8X8X8X7X9X7X9X9X7X7X7X7X7X7XZ.7X8X8X0XH.0XG.G.J.J.J.J.8.8.8.8.8.8.8.8.8.8.8.8.J.J.0X8X8X9X9X9X9X>X<X<X<XD ( | / | / b Z D <X",
"k.].).t.m.X.X.*.+.O.-.*.=.P.P.1X).(.u._.|.u.w.(._.t.p.n.C.C.V.&.A.%.-.@.#.4.4.,.>.>.>.<.<.<.<.>.>.2.5.$.%.+.N.5X2Xp.p. X!./.&Xd A c M [ _ _ 2 b x V d ",
"OX`.(.C.V.S.A.-.@.-.*.=.o.C.M._.(._.|.|.`.|.{._.(.s.M.M.V.v.N.=.&.%.5.5.5.5.7.3.3.1.<.<.1.1.3.3.4.5.-.;.S.A.v.2XM.a.`.'.k.@X0 A A b ] [ _ [ v 6 V &Xg.",
"]._.b.B.=.#.@.$.$.I.I.o.P.3Xt.(.`. XoX].`.`.|._.{.s.M.C.C.N.&.&.;.-.5.5.5.3.3.3.1.<.<.1.3.3.7.5.5.;.-.&.S.v.C.4X_.|.].h.#Xt C B c ' ) ) 2 l x r u Q.~.",
"{.M.x.&.*.#.#.2.-.I.P.m.3X).u. X`.oXoXoX'.`.u.u._.t.n.C.N.=.&.+.%.5.5.4.7.3.>.1.<.<.9.3.3.3.5.5.;.=.*.=.N.C.4XXXXXoXk.g.:X,XB E b M R ) Q k ` f :XT.+X",
"(.C.c.*.-.,.4.$.*.o.m.1X(.(.`.].'.^.+X+X].`.|.|._.s.C.C.B.D.D.%.$.5.4.4.7.>.1.<.1.9.7.7.7.4.5.;.D.D.F.N.v.n.4XXXXXoXh.#X:XC 6 8 ' T < [ k N 0 :X;X[.|.",
"m.c.A.%.#.4.2.$.&.P.1X)._.].].U.!.~.^.T.].].'.].{.s.M.B.N.F.D.%.%.5.5.4.7.9.9.9.>.:.:.:.....@.O.@.A.N.v.b.Z._.XX XT.j.9 C Z E v [ _ b v ` r t ;X^. X(.",
"C.c.A.$.$.4.$.&.V.1X(. X.X!.T.T.~.W./.~.!.oX'.'.`.{.n.C.V.F.D.%.$.5.5.7.7.>.:.3.K.lXxXvXFXFXFXvXzXlXqXC.q.r._. X+XT.f.9 C A c b < 2 E c A d ;X>X.X.X(.",
"o.&.-.-.2.-.*.P.1X(.{.oX!.T.W.W.&X&X*X;X/.U.[.[.|.s.M.C.C.D.S.%.5.5.5.3.:.K.xXHXUXUXUXUXUXUXUXUXUXUXIXPXmXeX`.0.!./.9 i A A v J I z k Z e =X~.>X.X).m.",
"N.&.$.$.$.*.P.1X(.).`.!.~.W.&X&X&X&X&X&XW.T.T.'.`.s.M.C.N.F.&.%.6.5.:.kXFXUXUXUXUXUXUXUXUXIXUXUXUXUXUXUXUXUXJXeXY.E.,XC A { v j l c A r u =X~.>X.X).m.",
"o.&.*.-.*.o.m.). XoX!.W.$X&Xt u t t =X=XQ.W.!.[.`.{.M.n.N.=.&.;.@.5.vXUXUXUXUXPXGXxXlXkXJ.H.qXqXlXcXMXPXUXUXUXUXSX<X4 p N c h M v A A V :X/.!..X_.2X1X",
"o.I.I.-.S.m.(.|..X!.W.$X$Xt t V V u t t &X&X~.[.].{.s.n.V.=.D.@.J.HXUXUXUXPXzX8.@.@.@.+.+.c.X.o.n.q.r.4XeXNXUXUXUXIXuXX Z 8 W l { f C &X&X>XoX.X).n.C.",
"P.I.*.&.C.p.s.].T.W.&Xt i i i C V i u t =X#XW.!.].{.s.C.V.N.+.kXPXUXUXIXzX$.O.@.%.&.=.D.V.N.V.M.M.2X(.{.q.0.wXJXUXUXUXdX7 E 6 g A f f &X$XT.`..X_.M.1X",
"o.=.&.m.t.{.].T.@X&X=Xi V i r V V i i u =X&X/.~.].`.s.M.C.c.G.PXUXUXHXJ.@.*.*.+.&.=.=.N.v.B.5XM.t._.(.y.i.[.Y.Q.ZXUXUXUXtX, l A f f ;X;X^.^.].`.XX3XP.",
"P.P.C.(.{.i.!.W.&X=Xu V V B r e r i y t Q.:X/.~.oX`.p.M.C.N.GXUXUXGX$.-.*.*.&.S.S.V.N.V.B.M.3X4X2X_._.].[.^.>X;X4 nXUXUXIXD x A f f ;X;X^.^. X X).1X1X",
"P.1X(.|.'.%X~.&X&Xt i i e r r e e V V V ,X&XW.!.OX].s.Z.x.zXUXUXPX;.*.D.D.=.D.=.V.V.C. .r.r.r.r._.`.`.oXh.T.>XQ.0 w ZXUXUXZXx C f d Q.:X>X!.]..X_.XX1X",
").XX X.XT.~.Q.&Xt i i e e r N N r e i u :X&X%XT.oXoX_.t.b.HXUXUXlXO.=.N.c.c.c.V.V.X.7XzXMXNXmXeX|.`.[.+X!.~.;X&Xt f A LXUXUX<Xe V u &X@X^.U.].+X|.).).",
"|.].oX^.T.W.&X&Xu i e e e r N N N e 0 $XQ.W.%Xk.[.oX_.).wXUXUXGXo.P.P.v.C.C.b.n.X.zXPXUXUXUXUXUXPXeX0.%X^.>X;X=Xt C s dXUXUXBXX V t :XQ.;X^.^..X].`._.",
"`.Y.!.~.W.$X$X=XV y 0 y N e e r N i 0 #X&X/.T.%X'.`.|.).bXUXUXzXX.B.5X5XM.3X2Xr.bXUXUXUXUXIXUXUXUXUXeX0./.;X;X,Xy p 7 { IXUXKXe u 9 :XQ.;X;X!.T.OX]. X",
"T.T.U.W.W.$X&Xt t i y i i i i i V V &X$X*X/.^.!.].u.a.r.NXUXUXqXP.b.b.3X2X2XL.zXUXUXUXmX9Xz.wXNXUXUXLX/.;X#X=Xf C B A s SXUXIX<XV d ;XQ.:XQ./././.!.].",
"T.T.%X&X&X&X=X=Xt u y 0 y i V V ,X=XQ./.~.~.+X+XoX`.y.q.MXUXIX9XP.4Xb.2X_.e.7XIXUXUXeX).].y.d.R.NXUXUXeX4 #Xt f f A A g gXUXUXaXf f f d ;X=X=XQ.&X~.!.",
"@XT.W.&X*X&X&X=X=Xt t t t t u ,X=XQ././.~.T.T.oX+XoXu.q.cXUXUXeXL.XXXXXXXXr.MXUXUXnXR.+Xz.'.[.!.eXUXUXnX4 $Xt V N p a g dXUXUXaXw q V C C d t u ;XT.@X",
"@X$XW.$X$X&X$X#X&X&X&X$X$X$X=XQ././././.!.%Xk.k.[.oXoXu.wXUXUXPX9Xr.)..X.XmXUXUXIXOX+X+Xk.k.k.k.-XUXUXZX4 9 @ q q - a s dXUXUXaX7 p N A e r V 0 &XW.@X",
"W.W.&X&X*X$XW.$X$X&X$X$X$X&XW./././.^.^.!.%Xz.h.z.[.+X+X].NXUXUXIXMXcXmXJXUXUXUXeX0.^.>X%Xh.g.f.uXUXUXnX4 V r p a a B g jXUXUXaXx A A A a a V t &X$X@X",
"Q.W.&X*XW.~.T.$XT.W.W.W.W.~.~.~.~.!.oXoXoXT.k.h.h.k.].+X].OXJXUXUXUXUXUXUXUXUXeXE.~./.W./.$XQ.o iXUXUXiXO e A A A c a 7 SXUXIXD x g c l c a r u Q.W.W.",
"W.W.T.T.W.T.U.T.T.T.~.~.~.OXoX].[.'.'.].oXoX'.h.h.h.U.!.T.h.'.nXKXUXUXUXIXNX-Xo /.;XQ.f.g.:X;X4 JXUXIX<Xq e A A x c 8 l LXUXKXk 8 8 l Q 8 a i u Q.Q.Q.",
"&XW.T.T.T.T.[.].[.[.[.oXoX].].|.u.i.i.i.`.oXoXi.h.h.h.T.T.h.d.Y./.<XeXeX-X:XW.g.$X;X;X&X@ $X4 eXUXUXSXs C A A x v c x aXUXUXBX% 8 b v z 8 N i t &X&X*X",
"$XT.T.T.].].`.`.|.].].oX|._._._.u.a.y.y.y.'.oXoXU.k.h.h.h.j.d.f.Q.;Xd d :X;X:Xt Q.d t =X,X4 i KXUXUX<Xs a p g c 8 Q b ZXUXUXsX, b b h v k r i t &X$X#X",
"W.!.[.'.`.|.u.u.{.{._._._.4X4X4Xt.p.e.e.w.y.'.oX^.!.%Xj.f.f.f.f.#X;X;X;X;X;Xu q 0 u @ O w <XSXUXUXVXX N 6 & 6 k W W ( IXUXLXm _ [ m h 8 g B y t &X*X$X",
"!.oX].u.{.{.s.s.M.M.M.2X2X1X1X1X2XZ.e.e.w.w.y.].^.^.W.g.f.@ @ @ 9 V d d d s d O O X q rXiXIXUXUXLXp 6 B k E 8 l Q I jXUXUXfXG 2 Y b v 8 p r u t $X&X/.",
"k.`.`.s.(.2X2XM.n.B.B.V.5XV.V.5X1XM.Z.e.e.w.y.'.!.>X/.@X@ @ @ O O q <XtXtXsXdXdXpXVXKXUXUXUXUXKX<Xx c v v v v ' 2 ( UXUXIX^ Y R I b { g 6 e t &X=X/.~.",
"'.|.{.M.M.M.M.V.N.N.D.F.N.c.c.N.V.5XM.p.e.w.y.i.T./.Q.&Xo @ O rXBXKXUXUXUXUXUXUXUXUXUXUXUXIXgXE 8 8 l { ' ' ' ' _ DXUXUXhX) [ M h v 8 p p y :X$XW.~.T.",
"{.(.M.M.C.C.N.F.=.&.&.&.S.A.A.A.c.V.5X2Xs.a.y.i.U.$X&X=X0 O iXIXUXUXUXUXUXUXUXUXUXIXLXSXdX( . 6 E & W z ' ] M ) jXUXUXSX) ) 2 Y E 8 E a e i =X/.T.T.'.",
"{.2XM.V.N.F.D.&.;.;.-.;.+.A.A.A.A.N.3X4X_.{.u.k.j.g.g.#X9 iXUXUXUXLXBXpXiXyXtXrXtX} v x x 8 Q b 8 = ; Q ] < < hXUXUXIX/ 2 _ J J Q k N A i =X*X@XT.'.u.",
"2XC.V.N.D.&.;.%.#.5.5.5.$.A.A.A.v.n.2XXX X].i.h.f.l.l.@ -XUXUXUXpX& $ $ % % $ $ J b ' ' ' b z ' b Q Q m 2 T jXUXUXUXyXF I M ^ h E 6 B C u =X#X!.oX`.{.",
"2XC.F.D.+.$.$.6.4.4.5.5.-.&.A.v.v.Z.s.|. X[.k.j.l.l.@ O gXUXUXpX$ = = = W Q W ; W j ' ' ' ' [ [ M < , / sXLXUXUXUXsXG K T ' v Q 6 e q t =X=X~.[.`.(.t.",
"5XV.D.%.#.5.5.4.7.7.4.5.*.=.V.C.b.b.a.i.[.T.%Xj.l.@ @ + JXUXIXE = ; ; H H Q ^ Q Q j ' [ [ [ [ ] Y ! gXLXUXUXUXLX~ 1 ] / j b v 8 N C i :X=X/.+XoX_.2X1X",
"V.D.;.$.5.5.3.3.3.,.4.%.=.F.V.C.b.e.w.z.k.%X@Xg.@ @ + : LXUXDX& ; ; % H J h b m m M [ [ [ [ [ _ I K fXUXUXUXKXL F 2 [ n h k g A A e u $X@X~.OX X4X3XV.",
"D.D.$.5.4.3.3.3.7.,.#.S.F.B.b.b.p.e.w.z.j.g.g.g.@ @ + : LXUXVX$ ; ; $ H I < ] [ [ _ _ _ _ ) [ _ Y F   yXUXUXUXyXG I m ' z * p A V 9 $X@XOX[.`._.2X5XN.",
"D.%.5.7.3.9.3.5.5.#.+.D.N.b.b.e.a.y.y.h.h.f.g.@ @ @ : & DXUXIXW $ ; $ P J Y 2 _ _ _ 2 T R R _ ) _ U F > yXUXUXUX~ $ ^ { k 6 e e ,X:X*Xh.oX`._.2XV.V.F.",
"%.6.7.3.1.1.3.5.;.+.S.c.V.C.p.a.y.z.h.h.j.l.@ @ @ + : % pXUXUXgX$ # # # # G ^ | | R G G U U Y R _ 2 R T 1 hXUXUXDXJ Q k A C q q ,X;X!.h.]._.M.M.N.D.D.",
"5.5.3.1.1.>.5.;.;.S.A.B.m.2X_.{.i.h.j.j.f.@ @ + + + - * E IXUXUXVXyX~ ~ yXVXIXUXLXDXfX!   F F Y 2 ) _ _ [ 2 DXUXUXtX% 6 A C i #X*X~.[.].|.2XM.C.D.&.%.",
"4.3.1.1.>.7.6.&.&.D.B.C.2X).|.].U.h.j.f.@ @ @ + + - - * % yXUXUXUXUXUXUXUXUXUXUXUXUXUXIXyX# F U R _ [ [ [ M sXUXUXVXX N C :X:X@X%Xk.`.{.p.M.5Xc.&.;.5.",
"7.1.<.1.3.5.;.&.F.N.M.M._.|.`.i.%X@Xg.o 9 q q X - - W = H $ rXDXUXUXUXUXUXUXDXgXVXLXUXUXUXfX# L Y ] [ [ ] ' v SXUXIX<Xr 0 =X:X*XOX]._._.M.C.V.D.%.5.4.",
"1.1.1.3.4.$.;.F.N.B.M._. X].U.k.k.@X#X0 0 p p 6 E E W W H P # K ~ yXfXfXyX~ F # F U fXUXUXUXyXJ j ] ' ] ' { g dXUXUXiXO @ =X;X^.+X{.s.M.C.5XF.&.#.4.7.",
"<.3.7.5.$.;.&.V.B.Z.(._.oX!.%X@X@X9 0 i N N a 6 E W W P P K K L F # # # # # F L L K G yXUXUXDXI b ' ' { { A 7 rXUXUXnXo $X/.T.'. Xs.2X5XV.D.S.%.4.7.1.",
"1.7.5.$.%.S.V.V.M.(._.oXOX~.#X#X#X9 y B B c Z 8 E W P P K K L L L L L L L L L L L P P G SXUXUXsXM v b l c A r q IXUXSXQ.;X~.h.'.XX2XM.V.D.D.+.6.7.>.<.",
"7.5.$.%.S.N.5X2X_._.].[.~.=X=X*X0 y 7 g c g < , E H P K K K F L L L L L K L L L L P P J sXUXUXsXg 8 8 6 a B B i KXUXJX/.+XoX`.XX2Xb.v.N.S.S.6.7.>.<.<.",
"4.#.%.&.N.C.2Xs.{.].T.%X#X,X,XV r N tXZXSXSXjXtXJ J L L L L K L L L K K K K P P P H H J tXUXUXdX7 6 - X q e C :XJXUXKX%X+XXXXX4XM.C.N.S.%.#.4.3.1.<.3.",
"6.%.&.F.C.M.{.}.`.T.%X#X$XV C C A ZXUXUXUXUXUXUXfXK L L L K K K K K K K P P P P H H W J tXUXUXdX7 6 + + + y :X:XJXUXKXOX XXX4X2XB.N.S.+.%.4.3.1.<.3.4.",
";.&.D.V.M.(.|.[.!.T.&X&XV C B g SXUXUXUXLXLXUXUXUXfXF L L K K P P P H H H % H = % = E 6 tXUXUXdX5 q + + q t ;X;XJXUXJX XXX4XM.C.v.A.+.#.4.3.1.<.1.7.6.",
"=.D.C.M.s.{.!.~.@X#X=XV C A g dXUXUXLXtXQ I yXIXUXUX~ F K K P P H H H H % % = = * * - . iXUXUXiXX q q q &X:X;X~.LXUXJXXX4Xn.b.C.c.%.$.5.3.9.<.1.3.5.;.",
"F.C.M.2X{.[.~.$X@X0 i e N c c LXUXUX( G I U G yXUXUXgXF L K H H H H % = = * * * * - - X BXUXUXrXO @ 0 =X:X;X~.-XIXUXNX).2Xb.B.N.S.%.5.3.3.<.1.3.4.5.;.",
"V.M.2X{.'.%X*X=Xt y r a l g sXUXUXAX1 I U U U U LXUXKXU J J H H H = = * * * - - - + + + KXUXKX@ @ @ #X&X/.^.0.wXUXUXmXL.C.v.N.D.#.6.7.>.1.1.3.5.5.;.&.",
"M.2X_.'.%X*X&Xt r a a k b < sXUXUXsX1 T I U U G AXUXIX^ J J H W W * * * * - - + + + X uXUXUXBXO @ l.g.g.%XOX`.MXUXUXeXo.V.N.=.%.6.5.3.1.1.7.5.5.%.&.V.",
"2X{.].T.$X*Xt e p 8 8 h j < fXUXUXsX2 R T Y Y Y jXUXUXtXI Q W W W * - - - - : + + + + JXUXUXuXO l.g.f.h.k.].|.PXUXIX6X5X0X=.;.5.4.3.1.1.7.5.5.-.&.N.n.",
"u.'.!.W.&Xe r a k h h j / I fXUXUXsX2 M 2 2 M 2 sXUXUXAX, E E E E - - - : : + + @ O BXUXUXCXo f.j.h.k.i.|.r.wXUXUXmXX.F.*.;.5.4.3.1.<.3.4.5.;.&.V.n.s.",
"'.!./.&Xy r g l h h T R T I tXUXUXdX2 ] ] M M m b LXUXUXdX6 E E - X + + : + @ O l.BXUXUXIX-Xd.j.j.i.].|.XXr.HXUXUXlXX.*.;.$.5.3.1.<.3.4.6.$.+.D.V.2X}.",
"~./.&Xy e g l 8 I Y 2 m ^ I tXUXUXjXM M v M b h , tXUXUXUXVXrXX X X O O O @ -XiXLXUXUXUXeX0.k.h.i.`._.XX).wXUXUXHX&.*.%.#.4.3.9.<.1.7.5.-.;.D.V.2X|.[.",
"W.t i a a k b 2 R 2 M b j h l LXUXKXb M v v l 8 E . iXUXUXUXUXCXgXiXiXpXBXJXIXUXUXUXLXeXR.[.'.y.y.y.s.4X3XPXUXUXlXO.;.6.4.3.9.<.1.7.5.;.;.=.C.M.{.OX~.",
"&Xe r k 8 h < 2 2 m j l 8 8 g ZXUXUXtXx c c g 6 6 6 X tXKXUXUXUXUXUXUXUXUXUXUXUXIXnXOXR.+X].y.w.w.e.Z. .mXUXUXGX+.;.5.5.3.9.<.1.7.4.%.%.S.B.M.(.].T.$X",
"i e a h ^ T R 2 m z l l 8 p 7 tXUXUXSXg N N B e 6 q q 5 q iXCXIXUXUXUXUXUXLXCXiX-X0.U.oX X{.a.e.e.Z.x.zXUXUXUXkX@.5.5.3.3.<.1.3.4.6.;.&.N.M.2X}.~.@X#X",
"r g b ^ T R T < h l l p p p p 5 KXUXUXiXX p r V y 9 y =X0 O o -XuXuXeXeX<XOXU.0.h.z.y.{._._.p.e.Z.x.qXIXUXUXzXO.6.4.3.3.1.1.3.7.6.%.&.V.M.2X|.[.$X@X0 ",
"g l m ] R R m z k N r e e r e 5 tXUXUXIX-X@ y ,X:X,X,X,X*X#Xg.o o o @X!.R.oX'.z.z.z.y.p.(.4X2XM.x.qXIXUXUXFX@.6.4.3.9.1.9.3.7.5.-.+.V.V.M.`.[.*X&X0 N ",
"8 I R R R m b c N V V V d V t i 9 BXUXUXKX-X4 :X;X;X:X:X*Xl.g.@X%X%X%X%XOXoX`.y.z.z.e.Z.M.6X6XX.lXIXUXUXGX#.5.7.3.9.1.>.7.7.6.$.&.N.C.4X_.'.%X#Xt r g ",
"I Y R R ^ l 8 N V d 0 t :XQ.=X,X$X#XJXUXUXLX<X3 $X/.W.*XW.k.k.T.T.k.h.h.u.|.|.u.a.a.b.Z.C.m.5XxXUXUXUXGX#.4.5.3.9.1.1.7.7.5.%.S.=.V.n.{.].T.#Xt V p 8 ",
"Y R R / b c r e t $Xf.f.W.&X$X&X/.E./.JXUXUXIXiXj.0.k.k.[.oXoXoXoXz.z.w.a.{.4X2XZ.b.b.x.X.lXJXUXUXUXFX#.6.7.3.1.<.9.7.5.5.-.+.D.5XM.p.].T.W.t V B 8 I ",
"2 R / b c r i t Q.@Xk.%X^.W.k.k.!.+XR.[.CXUXUXUXHXeXi.d.0.].].XX X}.a.e.a.2X4X2XC.c.B.qXGXUXUXUXIXzX..5.7.>.1.<.1.7.5.5.$.%.=.V.2Xs.i.].$X:XV N 8 Q I ",
"R m b x C i 9 @X/.U.!.!.oXoX`.'.].'.oX X].mXUXUXUXUXJXcXwXi.q.r.).).q.q.q.m.o.5XqXzXGXUXUXUXUXGXkX..4.4.7.1.<.1.>.4.5.#.S.A.N.Z.s.i.'.~.#Xy N l l Y R ",
"T b x B i ;X$XT.!.'.i.|.`.|. X_.u.u.{.{.XX).wXGXUXUXUXUXUXPXNXcXzXzXzXzXzXmXGXPXUXUXUXUXUXHXlX5.2.7.7.7.>.1.1.3.7.5.%.A.A.N.b.s.}.[.~.:Xt e l h M 2 R ",
"j l B C =XQ.!.].].u.u.{.{.).)._.(.(.t.p.4X2Xq.r.eXNXIXUXUXUXUXUXUXUXUXUXUXUXUXUXUXUXUXGXlX#...4.5.7.7.>.1.1.3.7.5.-.;.S.c.M.M.|.'.T.$X:XV a h j R R 2 ",
"v A i d W.T.].{._.t.(.(.).3X1Xn.m.3X1XM.2X3X(.).).).9XzXNXPXIXUXUXUXUXUXUXUXIXPXFXzXkX#...4.7.7.3.7.1.1.1.3.7.4.5.;.S.c.n.4XXX[.U.W.0 q Z z ^ T Y 2 j ",
"N A u Q.^.oX{.(.(.1X1Xm.1XC.V.B.C.5X3XM.s.4X_.XXXX4Xp.q.r.3X8XwXlXlXzXlXlXkX0X=.O.O.$.6.6.4.,.>.1.1.1.1.3.7.6.$.;.S.v.b.M.XX+X+X/.0 9 a c m 2 R R T 8 ",
"e t ;X>X.XXX(.3XP.P.m.P.o.N.o.V.C.n.Z.(._.(.u._.{.{.Z.Z.Z.2X3X1XB.c.X.+.@.A.+.;.6.6.5.5.4.>.1.<.<.1.>.3.7.4.#.%.=.N.V.M.p.].[./.=Xy C l b T R _ I h l ",
"d Q.^..X_.t.M.P.P.X.o.I.=.&.P.V.n.2Xs.{._.(.(.(.a.s.p.M.C.5X5X6X5X0XF.D.D.S.$.5.6.4.5.7.3.1.<.<.1.>.3.3.5.#.#.&.0X5X3Xs.i.].%XQ.0 N k h ] _ R 2 h c B "
};
