/* XPM */
static char *_c337b1379a94805db7366b54ed317958KP199KrxZiLVjRL[] = {
/* columns rows colors chars-per-pixel */
"75 75 255 2 ",
"   c #BB796B",
".  c #B36D76",
"X  c #A97879",
"o  c #BA7B73",
"O  c #B67779",
"+  c #B37B7B",
"@  c #D67E45",
"#  c #CE7952",
"$  c #CA7A5A",
"%  c #C77A64",
"&  c #C27D6B",
"*  c #D17D63",
"=  c #C17972",
"-  c #B8995B",
";  c #BBA85C",
":  c #B4B854",
">  c #BBB55B",
",  c #BCBB5C",
"<  c #9C897E",
"1  c #9A997C",
"2  c #AA886D",
"3  c #B7876A",
"4  c #BC8B6C",
"5  c #AA976D",
"6  c #B9986A",
"7  c #AD867B",
"8  c #AC8D7C",
"9  c #B58676",
"0  c #A39673",
"q  c #AD9476",
"w  c #AC9C75",
"e  c #A5957E",
"r  c #AA947B",
"t  c #A59B7D",
"y  c #A99B7A",
"u  c #B39372",
"i  c #B29B72",
"p  c #B19779",
"a  c #97B46A",
"s  c #9CA87B",
"d  c #9CB47B",
"f  c #AAAA6B",
"g  c #BBA364",
"h  c #B7A967",
"j  c #BBAB63",
"k  c #B4A46B",
"l  c #B3AC6A",
"z  c #ADB46C",
"x  c #A8B96A",
"c  c #B4B465",
"v  c #BBB363",
"b  c #B6B965",
"n  c #ABA374",
"m  c #A5AC74",
"M  c #ABAB72",
"N  c #A5A37B",
"B  c #A8A478",
"V  c #A3AB7B",
"C  c #B4A774",
"Z  c #A4B474",
"A  c #A7B774",
"S  c #B5B774",
"D  c #DB844C",
"F  c #D7894A",
"G  c #CC994B",
"H  c #D3974E",
"J  c #CD815C",
"K  c #CB8958",
"L  c #D48455",
"P  c #D78856",
"I  c #D3845B",
"U  c #C89859",
"Y  c #D19652",
"T  c #C4A94E",
"R  c #C6A757",
"E  c #C3AB5B",
"W  c #C4B458",
"Q  c #C58766",
"!  c #CC8363",
"~  c #C49663",
"^  c #CF8C70",
"/  c #C4A664",
"(  c #CDAE71",
")  c #E5A377",
"_  c #B8C45B",
"`  c #B0C85B",
"'  c #B4CA5C",
"]  c #9DC075",
"[  c #ACC568",
"{  c #B4C763",
"}  c #B2C674",
"|  c #C4C25A",
" . c #C5C972",
".. c #735EB7",
"X. c #7975AA",
"o. c #7E7BAC",
"O. c #7468B7",
"+. c #746AB6",
"@. c #7D6DB6",
"#. c #7B65BD",
"$. c #756DBE",
"%. c #7B6CBB",
"&. c #7D75B5",
"*. c #7578B6",
"=. c #7D7BB3",
"-. c #7672BC",
";. c #7A73BB",
":. c #6659C5",
">. c #6D5ECE",
",. c #735EC7",
"<. c #675BD4",
"1. c #6A5DD2",
"2. c #6E68C2",
"3. c #6E63CC",
"4. c #7465C5",
"5. c #746BC3",
"6. c #7868C3",
"7. c #7164C9",
"8. c #7A73C6",
"9. c #6B60D0",
"0. c #786CD5",
"q. c #976A8D",
"w. c #9B7A8A",
"e. c #996D98",
"r. c #9A6D9A",
"t. c #88799C",
"y. c #8D7D9D",
"u. c #9D7394",
"i. c #9B7C93",
"p. c #94749D",
"a. c #9A739A",
"s. c #977998",
"d. c #937B9C",
"f. c #A86D8A",
"g. c #AD7584",
"h. c #A77C87",
"j. c #AC7B84",
"k. c #A4748D",
"l. c #AA748A",
"z. c #A37B8B",
"x. c #B17682",
"c. c #A37693",
"v. c #896CAA",
"b. c #8B6CAB",
"n. c #926DA3",
"m. c #8577A6",
"M. c #8C74A5",
"N. c #857DA5",
"B. c #8C7CA3",
"V. c #8574AD",
"C. c #8974AA",
"Z. c #847CAB",
"A. c #8A7BA9",
"S. c #9373A2",
"D. c #947BA4",
"F. c #8465B4",
"G. c #836BB3",
"H. c #8274B3",
"J. c #817AB1",
"K. c #8878BB",
"L. c #C27C81",
"P. c #8477C4",
"I. c #7E829D",
"U. c #7C86A5",
"Y. c #7C82AB",
"T. c #7384B2",
"R. c #9D838D",
"E. c #968B89",
"W. c #9C8C8C",
"Q. c #8D928A",
"!. c #9D9486",
"~. c #939B87",
"^. c #9D9C85",
"/. c #95948D",
"(. c #9B948B",
"). c #949B8D",
"_. c #9B9A8A",
"`. c #8D849D",
"'. c #888899",
"]. c #8C8B9C",
"[. c #958595",
"{. c #9A8492",
"}. c #948C94",
"|. c #998B92",
" X c #92839A",
".X c #988499",
"XX c #928A99",
"oX c #8C9695",
"OX c #8C929B",
"+X c #939393",
"@X c #969794",
"#X c #A58585",
"$X c #AB8382",
"%X c #A58D84",
"&X c #AA8C81",
"*X c #A2838B",
"=X c #A38B8A",
"-X c #A39484",
";X c #A59586",
":X c #A29B82",
">X c #B08F90",
",X c #9CA483",
"<X c #98A786",
"1X c #91A691",
"2X c #A1A382",
"3X c #A9AC88",
"4X c #B0AC8E",
"5X c #8484A4",
"6X c #8B83A3",
"7X c #848AA3",
"8X c #8A8BA2",
"9X c #8483AA",
"0X c #8887AA",
"qX c #9789A4",
"wX c #8B92AD",
"eX c #9694A6",
"rX c #8987B7",
"tX c #AC9AAD",
"yX c #AAA9B9",
"uX c #B5AEB3",
"iX c #C7948D",
"pX c #CFAC95",
"aX c #E2AE88",
"sX c #D9AFAE",
"dX c #CFB0AF",
"fX c #BBC89C",
"gX c #B8CAA5",
"hX c #C8CC93",
"jX c #D4D8AA",
"kX c #CFCFB3",
"lX c #E9C8BB",
"zX c #ECD1B9",
"xX c #DEE9BB",
"cX c #E2E4B9",
"vX c #A699CB",
"bX c #A19DD5",
"nX c #B3AED2",
"mX c #C8B0C7",
"MX c #BDC1C6",
"NX c #D2CDCD",
"BX c #E8CEC8",
"VX c #EAD5C6",
"CX c #EAD9DA",
"ZX c #DBE4C9",
"AX c #E7E8D4",
"SX c #D6D2E4",
"DX c #E7DCE5",
"FX c #E9E7E6",
"GX c #F6EDE9",
"HX c #F7F3EB",
"JX c #EEEFF1",
"KX c #F2EDF1",
"LX c #F7F6F4",
"PX c #FAF4F4",
"IX c #FFFFFE",
/* pixels */
">X_.@XeXeXwXrXrXrXK.K.rXrXwXwXwXqXeXeXeXeXqXqXqXqXeXqXD.qXwXwXrXK.rXK.K.P.P.P.P.8.0.0.0.0.0.0.0.0.0.8.8.P.P.rXrXwXeXeXeXeX1X3X3X3XS (  .( | ( S C Z 3X",
"h.}.'.y.N.X.X.*.@.+.+.*.=.Y.U.5X'.`.s.].'.s.r.`.].y.y.M.m.V.Z.&.F.%.-.#.#.4.4.,.>.>.>.<.<.<.<.>.>.2.5.$.%.@.V.9X6Xp.s.oX/._.-Xs Z z { { ' ' , z Z N s ",
"@X[.`.N.Z.G.#.-.+.-.*.=.o.N.B.].`.].XXXX[.[. X].`.p.B.B.A.v.V.=.&.%.-.5.5.5.7.3.3.1.<.<.1.1.3.3.4.5.-.;.G.F.v.6XD.a.[.{.h.$X8 Z Z b { ' ' { z 4 m e h.",
"}.].n.C.o.#.#.$.$.T.T.o.U.7Xy.`.[.oX+X}.[.[.XX]. Xd.B.m.V.V.&.&.;.-.5.5.5.3.3.3.1.<.<.1.3.3.7.5.5.;.-.&.G.v.B.8X].XX}.z.#Xr V M z [ ' ' > h x q t ^.(.",
" XB.v.&.*.#.#.2.-.T.Y.N.7X].s.oX[.+X+X+X{.{.s.s.].y.M.m.V.=.&.@.%.5.5.4.7.3.1.1.<.<.9.3.3.7.5.5.;.&.=.=.V.m.8XOXOX+Xz.j.,X3XB Q l b W ' ~ k ] d ,XW.).",
"6Xm.G.*.-.,.4.$.*.o.N.5X`.`.[.}.{.).).).}.[.XXXX].d.B.m.C.H.H.%.$.5.4.4.7.>.1.<.1.3.7.3.4.4.5.;.&.H.J.V.v.M.8XOXoX+Xz.#X,XV 4 6 [ E E { h n q ,X<X}.XX",
"N.v.F.%.#.4.2.$.&.Y.5X].].}.}.R./.(.).W.|.}.{.XX Xp.B.C.V.J.H.%.%.5.5.4.7.1.1.9.3.7.4.4.4.6.%.&.G.G.V.M.n.S.].OXoXW.l.7 V C 4 z { _ c x ] w e <X).oX`.",
"N.G.F.$.$.4.$.&.Z.5X`.oXoX/.W.W.(.!._.(.(.+X{.[.[. XM.m.Z.J.H.%.$.5.5.7.3.3.3.3.7.5.5.5.5.%.&.H.G.v.V.A.M.d.].+X).W.g.7 V Z z c ; v Q z Z s <X1X1XoX`.",
"o.&.-.-.5.-.*.Y.5X`. X+X/.W.!.!.-X-X;X<X_.R.|.|.XXd.B.A.C.H.G.%.5.5.5.7.7.3.7.7.4.5.5.8.%.;.=.=.J.Z.9X0X8XOXXX{.(._.$X:XZ Z A Q U h k n q :X(.1XoX`.B.",
"V.&.$.$.$.*.Y.5X`.'.[.(.(.!.!.-X-X-X-X-X!.W.|.{.[.d.B.A.V.J.&.%.#.2.:.:.:.:.:.:.:.....+...+.+.X.X.X.X.I.'.'.}.w.E.1 1 s m x x ; ; f a q :X^.(.1XoX'.N.",
"o.&.*.-.*.o.N.'.OX+X(.!.%X-Xe t e e :X:X^.!.(.|.[. XB.M.V.J.&.+.8.bXbXnXnXnXnXnXnXnXnXnXnXnXnXnXnXnXnXnXMXMXNXkXkXkXkXkXkXjXjXjXjXkXhX3X^._./.oX].`.5X",
"o.T.T.-.G.N.`.'.oX/.!.%X&Xe e N B t e e -X-X(.|.}. Xd.M.A.X.K.nXJXIXIXIXIXIXIXIXIXIXIXIXIXIXIXIXIXIXIXIXIXIXIXIXIXIXIXIXIXIXIXIXIXIXIXGX4X~.+XoX].M.V.",
"Y.T.*.&.N.y.d.}.W.!.-Xe y y y V B y t e :X#XW./.}. Xd.B.m.rXJXIXIXIXIXIXIXIXIXIXIXIXIXIXIXIXIXIXIXIXIXIXIXIXIXIXIXIXIXIXIXIXIXIXIXIXIXIXNXE.[.oXOXB.5X",
"o.=.&.N.y. X}.W.#X-X:Xy B y w B B y y t :X-X_.(.}.[. XB.A.JXIXIXLXSXbXbXvXbXbXvXvXvXvXvXvXvXyXyXyXyXyXtXtXuXuXuXgXgXgXfXpXpXhXfXfXgXIXIXFX~.}. XOX7XU.",
"Y.Y.m.`. Xi.(.!.-X:Xt B B B w q w y r r :X,X_.(.+X[.d.t.NXIXIXSXP...+.+.+.*.+.@.@.X.X.X.v.m.I.'.t.'.'.[.E.~.~.<X1 1 a f f f a a a ZXIXIXNX~.oX].'.5X5X",
"U.5X`.XX{.*X(.-X-Xe y y q w w q q B B N 2X-X!./.+X}.d.D.LXIXJXJ...&.*.H.H.=.H.J.Z.Z.A.9XB.6X6X`.OX.X[.+Xk.W.<X:X8 y V 4 6 A A m fXIXIXLX1X/.}.oX].OX5X",
"'.OXoX+XW.(.^.-X8 y y q q w B B w q y t ,X-X*XW.+X+X'.yXIXIXNXX.=.&.=.V.v.G.G.N.A.N.B.6XS.d.y.`.[.}.[.1X/.(.<X-Xe d Z 4 i C i y HXIXIXdX~.W.}.oX'.'.].",
"'.}.+X).W.!.-X-Xt r q q q w B B B q 8 8 ^.!.*Xz.|.+X'.yXIXIXnXo.Y.Y.Y.v.A.A.v.C.N.6X6X6Xp.p.a.OX}.@X{.R.).<X<X:Xe V Z Z i u 2 BXIXIXAX1 <X).).oX}.[.].",
"[.|./.(.!.%X%X:XN r 8 r B q q w B y 8 &X-X_.W.R.{.[.'.yXIXIXnXU.9Xv.9X5XB.7X6XB.7X8X].OX]. Xs.XX{.+XW.R.(.<X<X2Xr q i Z Z f 4XIXIXPX3X1 <X)./.W./.}.+X",
"W.W.R.!.!.%X-Xe e e r y y y y y B N -X%X;X_.).+X}.s.r.eXIXIXFXU.U.n.n.7X6Xy.7X'.y.`.a.].oXu.i.+X}.).W.(.<X#X:Xd V m Z Z M n HXIXIXkXs ,X,X^._.)._./.|.",
"W.W.*X-X-X-X:X:Xt t r 8 r y B N 2X:X^._.(.(.).).+X{.u.q.SXIXIXSXwX8XS.8X8Xa.qXOXd.d..XXX+Xc.c.@X1X).=X%X,X$Xe d d Z Z M 3 lXIXIXAXs d s ,X:X:X^.-X(./.",
"#XW.!.-X-X-X-X:X:Xe r r r r t 2X:X^._._.(.W.W.+X).+Xs.r.qXLXIXIXPXJXKXKXJXKXKXJXJXKXJXJXKXJXKXJXJXGX4X<X,X&Xr B B u i f 4XIXIXPX4X2 N V V s e t ,XW.R.",
"#X%X!.%X%X-X%X#X-X-X-X%X&X&X:X^._._._._.(.*Xz.z.|.+X+X.Xu.tXKXIXIXIXIXIXIXIXIXIXIXIXIXIXIXIXIXIXIXdXX ,X,X7 + 9 9 & i Z GXIXIXkX5 u B Z q y N 8 -X!.#X",
"!.!.-X-X;X%X!.%X%X-X%X%X%X-X!._._._.).).+X*Xc.k.c.|.oX+X@X'.c.mXCXDXDXFXFXFXFXFXFXDXFXFXDXPXIXIXFX^.:X1 e N y u i i f kXIXIXAXm A Z Z Z i i N e -X%X#X",
"^.!.-X;X!.(.W.=XW.!.!.!.!.(.(.(.(.(.+X+X+XW.z.k.k.z.}.).+X@X}.q.q.w.f.k./.R.f.E.~.W.(.E._.LXIXIX>X1 <Xr O q Z Z Z f pXIXIXPX^ f Z M Z l z i y t ^.!.!.",
"!.!.W.W.!.W.R.W.W.W.(.(.(.@X+X}.|.{.{.}.+X+X{.k.k.k.R./.W.z.|.(.*XW.*Xf.=X_.l.g._.<X_.g.CXIXIXNXX :Xd N 9 q Z Z x z FXIXIXsX$ k 6 6 l ~ 6 i y t ^.^.^.",
"-X!.W.W.W.W.|.}.|.|.|.+X@X}.}.XXs.i.i.i.[.+X}.i.k.k.z.W.W.l.k.W.)._.<X=X#X<X-Xg.%X<Xs dXIXIXGXs s s d d m Z Z Z x jXIXIXAXh Q ! 6 c b h 6 B w e -X-X-X",
"=XW.W.W.}.}.[.[.XX}.}.+XXX].].].s.a.u.u.u.{.+X+XR.z.z.z.z.h.f.g.^.<X<X<X,X<X,X-X,Xs ;XLXIXIXpX0 y 9 B Z i u M f pXIXIXIX} x c U c c j x k w y e -X%X$X",
"!./.|.{.[.XXs.s. X X].].].8X8X8Xy.p.a.r.u.u.{.+X).(.*Xl.g.g.g.g.8 ,Xd <Xd d t + 8 0 BXIXIXZXs N q = 9 n 4 % 4 6 CXIXIXjX` b v { { v h 6 M m r e -X-X%X",
"(.+X}.s. X Xd.d.B.B.B.6X6X5X5X5X6XS.r.r.u.u.u.}.).).!.j.g.. O O 9 N s V V d V o . pXIXIXGXn B Z m 9 4 M k Q - jXIXIXAX` { U K , R b x 6 u w t e %X-X_.",
"z.[.[.d.`.6X6XB.M.M.M.A.9XA.A.9X5XB.S.r.r.u.u.{./.1X_.#XO O . .   9 0 q 2 w Z 5 = GXIXIXpX  = i Z Z z x x z } IXIXPX( ; { R E > U c [ M 3 q e -X:X_.(.",
"[.XX XB.B.B.A.A.V.V.H.J.V.G.G.V.N.9XB.p.r.u.u.i.W._.^.-X+ . . L.iXiXiXiXiXiX4X3XVXIXIXZXf 4 % Q 6 6 l [ [ [ AXIXIXzXL G _ ' ' { g z 6 u u r ,X%X!.(.W.",
" X`.B.B.m.m.C.J.=.&.&.&.@.F.F.F.G.Z.0X6Xd.a.u.i.*X=X-X1 &XdXCXPXIXIXIXIXIXIXIXIXIXIXLXZ x 6 Q Q Q % ! h ` jXIXIXIXPXPXcX' ' , U ~ 6 Q i q y :X_.W.W.{.",
" X6XB.A.V.J.H.&.;.;.-.-.@.F.F.F.F.C.7X8X]. Xs.z.k.h.X >XFXIXIXIXIXIXIXIXIXIXIXIXIXIXhXx x 6 ~ l ~ * * U hXIXIXIXIXIXIXIXHX{ K K ~ k n Z y :X;X=XW.{.s.",
"6XB.A.V.H.&.&.%.#.$.5.5.%.#.F.F.v.M.6XOXOX}.i.k.g.g.>XPXIXIXPXCXBXlXlXlXlXlXlXlXlXjX[ [ [ c h [ c ~ ~ > hXcXcXxXxXxXHXIXIXcX- / Q 4 m V t :X#X(.+X[. X",
"6Xm.J.H.@.%.$.6.4.4.5.5.-.&.G.v.v.S.d.XX+X|.z.l.x.. BXIXIXCX^ % % $ $ $ $ K $ $ J ; [ [ [ [ [ { b ; E v _ : : : : _ ( GXIXIX} 4 4 u 9 e :X:X(.|.[.`.y.",
"9XZ.H.%.#.5.5.4.7.7.4.5.=.=.Z.A.n.n.a.i.|.W.*Xl.. iXIXIXGX& % % * * * ! ! / / ~ ~ j [ { { { { { E K L Y W _ Y F Y , : jXIXIXhX3 n V y ,X:X_.).+X].6X5X",
"Z.H.&.$.5.5.3.3.3.,.6.%.=.J.A.m.n.r.r.c.z.*X#Xj.. pXIXIXsX% % % * * $ J K ; b v v b { { { ' ' _ U L D D H W F D F > ' jXIXIXhXZ V q t %X#X(.@XOX8X7XA.",
"H.H.%.5.4.3.3.3.7.,.#.G.J.M.n.n.p.r.u.c.l.j.j.j.. dXIXIXpX% % * * * * J U ; { { { { ' ' ' ' ' ' R F D D H W Y P U / ; ZXIXIXpXd N 7 %X#X/.|.[.].6X9XV.",
"H.%.5.7.3.9.3.7.5.#.@.H.V.n.n.r.a.u.u.k.l.g.j.+ . pXIXIXlX$ $ $ $ # # # K R , ' ' _ > E W , _ ' : G F F G _ : R K # pXIXIXHXp q 2X,X;Xz.@X{.].6XA.Z.J.",
"%.5.7.3.1.1.3.5.;.G.G.G.A.B.p.a.u.k.k.l.l.x.+ O O Q PXIXLXpX^ ^ ^ ^ ^ ^ ^ U R W _ W R H H H T W  . .( (  . . .( aXVXIXIXIXkX2 9 2X<X(.k.}.].B.B.V.H.H.",
"5.5.3.1.1.>.5.;.;.G.G.M.N.6X]. Xi.k.k.l.g.+ O o o   sXIXIXIXPXPXPXPXPXPXPX) F R W W H F D D F aXIXIXIXIXIXIXIXIXIXIXIXIXZXs y &X;X(.|.}.XX6XB.V.H.@.%.",
"4.3.1.1.>.7.5.;.&.H.C.m.6X].XX}.R.z.l.g.+ O o o o & % lXIXIXIXIXIXIXIXIXlX@ F F H T H F D D P PXIXIXIXIXIXIXIXIXIXIXGXkXs s ,X$X*Xz.[. Xp.B.9Xv.&.;.5.",
"3.1.<.1.3.5.&.&.J.V.B.B.].XX[.i.*X#Xj.+ 7 9 9   & & ! $ ) lXVXzXGXIXIXGXD D D D F H H F D @ VXIXIXAXxXZXxXZXxXcXkXpXB 0 8 :X,X;X@X}.].].B.m.Z.H.%.5.4.",
"1.1.1.3.4.%.&.J.V.C.B.].OX}.R.z.h.$X&X8 8 u u 4 Q Q ! ! # # @ P GXIXIX) @ D D D D F Y Y @ aXIXIXHX{ ` [ [ x f 3   2 y + + ^.<X).oX Xd.B.m.9XJ.;.#.4.7.",
"<.3.7.5.$.;.&.Z.C.M.`.].+X(.*X#X$X7 8 y n n i 4 Q Q ! I I I D VXIXIXzX@ D D D D D L Y U ~ PXIXIXhXx [ [ } Z i & = 9 y 7 %X_.W.{.OXd.6X9XZ.H.G.%.4.7.1.",
"1.7.5.$.%.G.Z.A.B.`.OX+X@X(.#X$X$X7 p B M M k 4 Q ! I I P @ aXIXIXGXP D D D P P P P K U VXIXIXZXc z z z z Z w 9 9 e 2X:X<X(.k.{.OX6XB.Z.H.H.@.4.7.>.<.",
"7.5.$.%.G.V.9X6X].].}.|.(.:X:X-X8 q i M M z k 6 Q K I I L P HXIXIXaX@ P L P P P I I # aXIXIXHXS z k 6 4 u B V y t 2X-X_.).}.{.].6Xn.v.V.G.G.6.7.>.<.<.",
"4.#.%.&.V.A.6Xd. X}.W.*X&X2X2XN w B M l l l h ~ K K P P F zXIXIXzX@ P L L L I I I $ ! HXIXIXhXx k 4 & & 9 q s ,X^.$Xg.W.oXoXOX8XB.A.V.G.%.#.4.3.1.<.3.",
"5.%.&.J.V.B. X.X[.W.*X%X&XN V V Z M f k g 6 g U K K P F aXIXIXHXP L L L I I I I J $ VXIXIXZXf M 6 3 o o o r ,X,X%Xx.l.}.oXOX8X6XM.V.G.@.%.4.3.1.<.3.4.",
"&.&.H.A.B.`.XX|.(.W.-X-XN V B M Z z l 6 ~ U U U U Y F P HXIXIXaX# I J J $ $ $ ! $ pXIXIXHXC i i u 9 o o 9 :X,X<X;X*X|.oXOX8XB.B.v.G.@.#.4.3.1.<.1.7.6.",
"=.H.V.B. X X(.(.#X#Xt N V Z M f z z h ~ U U K Y Y Y F zXIXIXVX# I J J J $ $ % % Q HXIXIXpX3 9 9 9 9 9 7 -X,X<X(.*X{.+XOX8XM.n.m.G.%.$.5.3.9.<.1.3.5.;.",
"H.V.B.`. X|.(.=X$X8 y q n M z l c c ; U U Y Y H R G ) IXIXHX^ J J J % % % % Q $ BXIXIXBX  o o o o + 8 :X,X<X(.z.k.i.].8X6Xn.C.V.G.%.5.3.3.<.1.3.4.5.&.",
"Z.B.6X X{.=X;X:Xr q w i k l c c b , E Y Y H H H R R GXIXIXaXL ! J ! % % % & % pXIXIXGXQ o o o O O O $X-X_.).{.k.u. X8X7XA.v.C.H.#.4.7.>.1.1.3.5.5.;.&.",
"B.6X].{.=X-X-Xe q i i k l h j > _ , W R U Y Y Y T cXIXIXVXK ! ! ! % % % & & Q GXIXIXpX  o O O O O x.j.j.*X+X}.i.s.8X7X9XZ.V.=.%.4.5.3.1.1.7.5.5.%.&.Z.",
"6X X}.W.%X-Xe q u 6 k h j E U U E W , W E R R T hXIXIXLX( K ! ! ! % & & & % BXIXIXBX  o o O O O g.j.g.l.z.}. Xa.d.6X9X9XJ.=.;.5.4.3.1.1.7.5.5.-.&.V.M.",
"s.{.(.!.-Xq w i k g g j E R U U U v b { , , , b HXIXIXjX- Q Q Q Q & & =   pXIXIXPX$X+ 7 + x.g.g.l.z.z.i.}.XXa.r.S.9X9X=.=.;.5.4.3.1.<.3.4.5.-.&.J.M.D.",
"{.(.^.-Xr w M l g g E W E R U U / v b { { { : jXIXIXAXg 6 Q Q Q     o o Q GXIXIXdXX &X&X$Xl.l.l.k.i.}.XXOX Xr.S.A.9X=.=.%.6.5.3.1.<.3.4.6.%.@.H.A.6X.X",
"(._.-Xr q M l 6 U E , v / ~ 6 h j c b b b c hXIXIXPXC 6 4 Q &   o o 9   BXIXIXBXX $X%X;XW.z.k.k.i.{.].OX8X6XB.S.A.H.=.%.#.4.3.1.<.1.7.5.-.;.H.A.6XXX|.",
"!.e y i i k c > W , b v h g h l l l c z z z FXIXIXsX3 4 3   o o o 9 X pXIXIXPX$Xj.*XW.)./.|.i.u.u.u.d.8X7X0XA.v.G.&.-.6.4.3.1.<.1.7.5.;.;.=.V.B. X@X@X",
"-Xq w k 6 g ; , > v j l 6 6 k z k k k z f jXIXIXCX  3 9 9 o o o O + &XKXIXIXdXX *XW.(.+X+X}.i.u.u.r.p.6X0X9Xv.F.@.-.5.5.3.9.<.1.7.4.#.%.G.C.B.`.}.=X=X",
"y q i g / E W > v j l k 6 6 6 i 6 i M f 4XLXIXLXiX  9 9 9 o O O + X NXIXIXCXR.z.z.i.{.}.OX Xa.r.r.r.M.9X9XZ.H.%.;.5.5.3.3.<.1.3.4.6.;.&.V.B.6X[.W.*X$X",
"w M c / E W E ; g l k u u u u u u n m 5 lXIXIXkX0 8 r t 8 + + + . iXIXIXLX@XR.k.k.k.u. X].].d.r.S.M.A.Z.J.J.;.%.4.4.3.3.1.1.3.7.4.%.&.Z.B.6XXX|.=X$X8 ",
"M l v { W W v h k n w q q y q 9 q q r q GXIXLX3Xs 2X2X2X&X+ j.j.j.GXIXIXuXQ.{.u.k.c.u.p.6X8X6XB.m.Z.J.H.G.@.%.6.,.3.9.1.9.3.7.5.-.@.Z.A.B.[.|.;X-X8 B ",
"6 U W W W v l f n B B N s N e r r 9 7 4XLXIXZXs ,X,X,X,X-Xj.j.X NXIXIXCXE.+X[.u.c.a.r.p.B.5X0X9XZ.=.H.F.F.#.5.4.3.9.1.>.7.7.4.%.&.V.A.8X].{.*X%Xe B M ",
"U R W W j l 6 n B s 8 e ,X^.:X,X-X$X< 4XIXIXNX< =X_.!.!.!.*Xw.uXIXIXPX*Xi.].XXs.a.a.r.S.A.0X9X=.=.&.%.#.#.5.7.3.9.1.1.7.7.5.%.G.=.A.M. X}.W.#Xe B 6 6 ",
"R W W v c z w r e %Xg.j.!.-X%X!.(._.~.>XPXIXFXw.l.*Xh.z.(.E.@XJXIXIXdXq.a.`.8X6XS.n.n.M.Z.Z.=.=.&.;.$.5.4.7.3.1.<.9.7.7.5.-.@.H.9XB.a.}.W.!.r N M 6 U ",
"| W E b f w y e ^.#Xh.R.).(.z.z./.).).R.FXIXIXdXq.w.w.q.w.tXFXIXIXSXq.r.p.B.5X6XB.A.V.Z.=.=.=.;.-.$.5.5.7.>.1.<.1.7.5.5.$.%.=.Z.6Xd.i.}.=X,XN n 6 ~ U ",
"W v c x m y 7 #X_.R././.+X+X[.{.}.{.+XQ.uXIXIXIXNXuXtXuXNXLXIXIXJXqXp.p.S.6X0X0X9XZ.=.=.=.;.;.-.5.4.4.4.7.1.<.1.>.4.5.#.@.G.V.S.d.i.{.(.$Xr B l h R W ",
"E b x m y ,X=XW.(.{.i.XX[.[.OX].d.s. X X'.NXIXIXIXIXIXIXIXIXIXDXeX7X6XB.N.9X9X9X=.=.=.&.%.%.$.5.5.4.7.7.>.1.1.3.7.5.%.F.G.V.n.d..X|.(.,Xe q k g b , W ",
"j l M V :X^.(.}.}.s.s. X X'.].].`.`.y.p.8Xt.yXJXIXIXIXIXIXJXmXB.B.6X0X9XZ.Z.=.=.=.=.;.@.#.#.4.4.3.7.7.>.1.1.3.7.5.-.;.G.G.A.D.XX{.W.%X,XN i g j W W > ",
"x Z y ,X!.W.}. X'.y.`.`.'.7X5XM.N.U.5XB.6X8Xt.].yXNXNXnXyX8Xo.B.n.m.9XV.v.H.=.=.;.;.;.#.#.6.4.7.3.7.1.1.1.3.7.4.5.;.G.v.C.8XOX|.R.!.8 9 C h / E T > j ",
"k Z t _.).+X X`.`.5X5XN.5XN.Z.M.V.9X7XB.d.].].].'.'.p.p.t.7X8X6Xn.v.Z.H.F.G.H.;.;.;.;.6.6.4.,.>.1.1.1.1.3.7.4.$.;.G.v.n.B.OX@X)._.8 8 i z j > W E ; 6 ",
"q e <X1X1XOX`.7XU.U.N.Y.o.V.o.Z.m.M.S.`.].`.s.]. XqXD.S.S.6X0X0Xm.C.J.H.F.F.G.;.%.5.5.5.4.>.1.<.<.1.>.3.7.6.#.%.=.V.A.B.p.}.|._.:Xr m l b E W _ U g k ",
"s ^.).oX].y.B.U.U.X.o.T.=.&.Y.N.M.6Xd. X].`.`.`.a.d.p.B.B.9X0X9X9X=.&.H.H.%.%.5.4.4.5.7.3.1.<.<.1.3.3.7.5.#.#.&.9X9X7Xd.i.}.*X^.8 B k g { _ W , g z B "
};
