/* XPM */
static char *fb4efc6eb63c4d34ea489646d16a492732nAHtVWCJqjy2oM[] = {
/* columns rows colors chars-per-pixel */
"75 75 256 2 ",
"   c #BD6F55",
".  c #BB7768",
"X  c #B16C73",
"o  c #B76E77",
"O  c #A9787A",
"+  c #BB7A74",
"@  c #B77779",
"#  c #CF7B4B",
"$  c #D57D4A",
"%  c #CA7859",
"&  c #D37D58",
"*  c #C87A67",
"=  c #C6766A",
"-  c #C37B6C",
";  c #D8803F",
":  c #BC965B",
">  c #BBA85C",
",  c #B2B856",
"<  c #BAB85A",
"1  c #9C9678",
"2  c #BB8869",
"3  c #AB946B",
"4  c #B8976A",
"5  c #AA8879",
"6  c #AB8D7C",
"7  c #B58675",
"8  c #AD9576",
"9  c #A69874",
"0  c #AC9C75",
"q  c #A5947E",
"w  c #AB947B",
"e  c #A59B7D",
"r  c #A99B7A",
"t  c #B39273",
"y  c #B29A72",
"u  c #9DAD6C",
"i  c #9CA87B",
"p  c #9CB67B",
"a  c #ABAA6B",
"s  c #B9A665",
"d  c #BCAB63",
"f  c #B3A36C",
"g  c #B3AC6A",
"h  c #ACB46C",
"j  c #A8B86A",
"k  c #ABBB6B",
"l  c #B4B767",
"z  c #BBB263",
"x  c #ABA374",
"c  c #A7A876",
"v  c #ABAC72",
"b  c #A5A37B",
"n  c #A3AB7B",
"m  c #B3A573",
"M  c #A5B474",
"N  c #A7B675",
"B  c #B9B877",
"V  c #D78649",
"C  c #DB844D",
"Z  c #CE904A",
"A  c #CB865A",
"S  c #D48756",
"D  c #DA8552",
"F  c #C7985A",
"G  c #D29855",
"H  c #C5A748",
"J  c #C6A758",
"K  c #C3AB5B",
"L  c #C4B458",
"P  c #CB8363",
"I  c #C58866",
"U  c #C49764",
"Y  c #D4916E",
"T  c #E1996D",
"R  c #C3A965",
"E  c #C7B26D",
"W  c #B1CB5B",
"Q  c #B7C85B",
"!  c #9DC075",
"~  c #ABC666",
"^  c #ACC36B",
"/  c #B4C665",
"(  c #ACC571",
")  c #C4C25A",
"_  c #C4CA73",
"`  c #735FBB",
"'  c #7B77A8",
"]  c #7E7BAC",
"[  c #7566B7",
"{  c #736AB6",
"}  c #7D6CB5",
"|  c #7B65BD",
" . c #756CBD",
".. c #7B6DBB",
"X. c #7D74B4",
"o. c #7679B7",
"O. c #7D7AB3",
"+. c #7672BC",
"@. c #7A73BB",
"#. c #675BC7",
"$. c #6D5ECE",
"%. c #735EC7",
"&. c #675BD4",
"*. c #6A5DD2",
"=. c #6E68C3",
"-. c #6E63CC",
";. c #7465C5",
":. c #746BC3",
">. c #7868C3",
",. c #7164C9",
"<. c #7A73C7",
"1. c #6C61D0",
"2. c #786CD5",
"3. c #966E8C",
"4. c #9A7989",
"5. c #8C6A9A",
"6. c #996C96",
"7. c #9A6D9A",
"8. c #8C7A9B",
"9. c #9D7494",
"0. c #977A97",
"q. c #9B7B94",
"w. c #94749D",
"e. c #9A729A",
"r. c #937C9C",
"t. c #A56D8C",
"y. c #AD7584",
"u. c #AB7B85",
"i. c #A67689",
"p. c #A37C8B",
"a. c #B37881",
"s. c #A37693",
"d. c #856DAD",
"f. c #8A69A8",
"g. c #8B6CAB",
"h. c #926DA4",
"j. c #8C75A5",
"k. c #847CA5",
"l. c #8878A7",
"z. c #8B7CA4",
"x. c #8574AD",
"c. c #8974AA",
"v. c #847CAB",
"b. c #9376A2",
"n. c #8365B5",
"m. c #836BB3",
"M. c #8274B2",
"N. c #827AB1",
"B. c #8776BC",
"V. c #9379BA",
"C. c #A17FA1",
"Z. c #8579C5",
"A. c #7C83A9",
"S. c #7384B2",
"D. c #8D888D",
"F. c #9A868A",
"G. c #9C8C8C",
"H. c #8C988C",
"J. c #949682",
"K. c #9D9486",
"L. c #9D9C84",
"P. c #95948D",
"I. c #9B938B",
"U. c #949B8C",
"Y. c #9B9A8A",
"T. c #8C849D",
"R. c #898898",
"E. c #8C8B9C",
"W. c #958595",
"Q. c #9A8492",
"!. c #948C94",
"~. c #998B92",
"^. c #92839A",
"/. c #9A829A",
"(. c #928A9A",
"). c #8D9396",
"_. c #8A9896",
"`. c #8C929B",
"'. c #939392",
"]. c #979595",
"[. c #939A92",
"{. c #A58485",
"}. c #AB8382",
"|. c #A58D84",
" X c #AA8A83",
".X c #A3848B",
"XX c #A38B8A",
"oX c #A39383",
"OX c #A59587",
"+X c #A29B82",
"@X c #A48795",
"#X c #B08F91",
"$X c #9CA383",
"%X c #97A887",
"&X c #92A890",
"*X c #A4A684",
"=X c #ACAF8E",
"-X c #8484A4",
";X c #8B83A2",
":X c #848AA4",
">X c #898BA2",
",X c #8483AA",
"<X c #8889AB",
"1X c #988AA6",
"2X c #8993A6",
"3X c #9694A6",
"4X c #8786B6",
"5X c #9692B4",
"6X c #AD96AF",
"7X c #B0ACB4",
"8X c #C9958E",
"9X c #D1AF8E",
"0X c #E5B392",
"qX c #D3AAAA",
"wX c #D1B4AD",
"eX c #D7B7B5",
"rX c #B9C597",
"tX c #B9C9A7",
"yX c #CDCE90",
"uX c #DCD09E",
"iX c #D2CCB1",
"pX c #E8C6A9",
"aX c #E7D2AF",
"sX c #E5C9BB",
"dX c #E7D6BA",
"fX c #DCE5B9",
"gX c #E3E4BC",
"hX c #938ACD",
"jX c #A594C8",
"kX c #B4AECD",
"lX c #ADA7E0",
"zX c #CAB9C8",
"xX c #C5BDE5",
"cX c #BDC2C9",
"vX c #D8C6C9",
"bX c #D1CDCF",
"nX c #D8D9D8",
"mX c #E5CBC8",
"MX c #EBD6CB",
"NX c #E7DAD8",
"BX c #F0DAD1",
"VX c #D9E0CD",
"CX c #EAE7CB",
"ZX c #E9E5D7",
"AX c #CDC9E7",
"SX c #DBD8E6",
"DX c #E5DCE9",
"FX c #EAE5EA",
"GX c #F5EBE7",
"HX c #F0F1EB",
"JX c #F5F4EB",
"KX c #EAE8F3",
"LX c #F4F3F3",
"PX c #F9F6F5",
"IX c #FBF9F5",
"UX c #FFFEFE",
/* pixels */
"OXY.].3X3X<X4X4X4XB.B.4X4X4X2X2X1X3X1X3X3X1X1X1X1X1X1Xb.1X5X5X4XV.4XB.B.Z.Z.Z.Z.<.2.2.2.2.2.2.2.2.<.<.<.Z.Z.4X5X5X5X3X3X].&X=X=X=XB E _ E ) E B m M =X",
"p.!.R.8.k.' ' X.} { { o.O.A.A.-XR.T.0.E.R.0.e.T.E.8.8.j.l.l.v.X.n...+.| | ;.;.%.$.$.$.&.&.&.&.$.$.=.:. ...} x.,X;Xw.0.).P.Y.oXi M h / / Q Q , h M b i ",
"].W.T.l.v.m.n.+.[ +.o.O.A.l.z.E.T.E.(.(.W.(.^.E.T.w.z.z.v.g.x.O.@...+.:.:.:.,.-.-.*.&.&.*.*.-.-.;.:.+.@.m.f.g.;Xz.e.W.Q.p.}.6 M M l / Q Q ~ l 2 c q u.",
"!.E.h.c.O.| |  . .S.S.] A.:X8.T.W.).'.!.W.W.(.E.^.r.z.l.l.x.X.@.@.+.:.:.:.-.-.-.*.&.&.*.-.-.,.:.:.+.+.X.m.g.z.>XE.(.!.i.{.q n v k ^ W W < g k 0 e L.I.",
"^.z.f.X.o.| | =.+.S.A.k.:XE.0.).W.'.'.'.Q.Q.0.0.E.8.j.l.x.O.X.} ..:.:.;.,.-.$.*.&.&.1.-.-.-.:.:.@.@.o.O.x.l.>X>X`.'.p.u.$X*Xc I g l L W U f ! p $XG.[.",
";Xl.d.o.+.%.;. .o.] k.-XE.E.W.!.Q.U.[.[.!.Q.(.(.E.r.z.l.c.N.M... .:.;.;.,.$.*.&.*.1.,.,.;.;.:...M.M.N.x.g.j.>X`._.'.i.{.$Xn 2 4 ~ K > ~ f x 8 $X%X~.(.",
"k.d.n...| ;.=. .X.A.-XE.E.!.!.F.P.I.U.G.P.!.Q.!.^.w.z.c.x.N.M...>.:.:.;.,.1.1.*.#.#.#.;.%.` ..@.m.n.' f.f.w.E.`.).G.y.5 n m 2 h ~ Q z k ! 0 q %XU.).T.",
"l.d.n. . .;. .X.v.-XE.)._.P.G.G.I.K.Y.I.P.'.Q.Q.W.^.j.l.v.N.M... .:.:.,.-.#.#.,.hXlXxXAXDXKXKXKXFXSXAXkX1X8.R.).[.G.y.5 n M h l > < U h M i %X&X&X_.E.",
"] X.+.+.:.+.o.A.-XE.^.'.P.G.K.K.oXoXOX$XY.F.~.~.(.r.z.l.c.M.m...:.:.=.#.,.hXAXKXUXUXUXUXUXUXUXUXUXUXUXUXUXFXzX@XD.K.}.r M M k A F s f m 8 +XI.&X_.E.k.",
"x.X. . . .o.A.-XE.R.W.P.I.K.oXoXoXoXoXoXK.G.~.Q.W.r.z.l.x.N.@...:.#.:.lXKXUXUXUXUXUXUXPXLXKXKXKXLXPXUXUXUXUXUXPXbX%X1 *XM ( k > g h M 0 e +XI.&X_.R.k.",
"] X.o.+.o.] k.T.).'.P.K.|.oXq e q q +X+XL.K.P.~.W.^.b.j.x.O.X. .` jXKXUXUXUXUXKXAXlXhXZ.m.m.O.v.c.b.6XkXSXPXUXUXUXLX7X3 x h s l k M M b $XY.P._.E.;X-X",
"] S.S.+.m.k.T.R.).P.K.|. Xq q b b e q q oXoXP.~.!.^.r.j.v.N.} m.AXUXUXUXPXAXhX+.[ [ [ } m.d.v.,Xl.5.8.R.8.@XzXPXUXUXUXsX3 4 P g ! p n +XoX&X'._.E.j.l.",
"A.S.o.X.l.8.r.!.G.K.oXq r r r n b r e e +X{.K.P.!.^.r.z.v.' 4XKXUXUXUXxXZ.` { ..@.X.O.N.x.x.v.z.z.;XT.^.9.4.4.#XbXUXUXUXVX2 U a p p p oXXXG.W._.E.z.-X",
"] O.X.k.8.^.!.G.{.oX+Xr b r 0 b b r r e +XoXY.I.!.W.r.z.c.4XLXUXUXKXhX`  .o.o.@.@.O.O.x.f.j.,Xz.z.>XT.9.q.~.Y.L.i tXUXUXUXsXa M p p %X$XU.U.!.W.`.:XA.",
"A.A.l.T.^.q.P.K.oX+Xe b b c 0 8 0 r w w +X$XY.I.'.W.r.j.z.KXUXUXSXZ.{ o.o.o.X.m.m.v.x.v.j.l.>X>X;X(.E.(.~.U.%X%X$X1 rXUXUXUXyXu p p $X%XU.U.).).R.-X-X",
"A.-XE.(.Q..XI.oXoXq r r 8 0 0 8 8 x b b *XoXK.P.'.!.r.5.SXUXUXSXn.} o.@.M.O.M.v.v.v.k.' l.z.;X8.R.0./.'.i.G.%XL.5 r u qXUXUXPX=Xi i L.$X%XP.!._.R.`.-X",
"T.`.).).G.I.L.oX6 r r 8 8 0 x x 0 8 r e $XoX.XG.'.].R.7XUXUXLX4XX.O.O.M.d.d.d.,Xk.k.6XbXSXFXFXFXbX6XW.[.I.I.%XoXq p M 2 dXUXUXvX1 q oX{.U.F.P._.(.R.R.",
"R.!.'.U.G.K.oXoXe w 8 8 8 0 x c x 8 6 6 L.K..Xp.~.).E.HXUXUX7X' A.A.A.g.c.c.g.f.5XSXUXUXUXUXUXUXUXUXnX.XP.%X%X+Xq i M M m JXUXIX*Xe $XL.%XU.U._.!.^.E.",
"W.~.P.I.K.|.|.+Xb w 6 w x 8 8 0 x r 6  XoXY.G.Q.Q.8.kXUXUXnXA.<Xk.g.-Xk.z.2X8.kXUXUXUXUXPXFXFXLXUXUXUXDXY.%X%X*Xw 8 x M a iXUXUXiXO $XL.%X%XI.G.].!.).",
"G.G.F.K.K.|.oXq q r w r r r r r b b oX|.OXY.U.'.~.q.FXUXUX5X:X:X:Xh.h.:X>X8.7XUXUXUXDX7X3X9.0.].7XLXUXUXVX5 +Xp n c M M x =XIXUXZXi %XL.$XL.Y.Y.Y.P.P.",
"G.G..XoXoXoX+X+Xe e w 6 w r b b b +XL.Y.I.I.[.[.H.6XUXUXSXT.>X:X:X>Xh.;XR.1XIXUXUXbX0.D.!.9.t.P.H.&XLXUXUX8Xq p p M M v t t FXUXJX%Xp i $X+X+XL.oXI.P.",
"{.G.K.oXoXoXoX+X+Xq w w w q e *X+XL.Y.Y.I.G.G.].H.bXUXUX7Xw.b.E.`.`.`.`.`.SXUXUXbXD._.[.s.Q.G.P.%XJ.wXUXUXvX5 b c t y v v a VXUXIX#X9 n n i q e $XG..X",
"{.K.K.|.|.oX|. XoXoXoX|. X|.+XL.Y.Y.Y.Y.P..Xp.p.~.LXUXLX/.e.7.e.E.^.E._.7XUXUXFX9.!.[.[.p.i.p.p.XX{.#XIXUXNX@ 7 7 - y M M 3 iXUXUX9X9 M 8 r b 6 oXK.{.",
"K.K.oXoXOX|.K.|.|.oX|.|.|.oXK.Y.Y.Y.U.U.P..Xs.t.6XUXUXnXD.(.s.t.q.9.s.D.bXUXUX7X4.p.U.&X.Xi.u.u.u.L.+XLXUXZX9 t y y v v v 2 eXUXUXrXM M y y b q oX|.{.",
"L.K.oXOXK.I.G.XXG.K.K.K.K.I.P.I.I.P.'.'.'.~.s.t.vXUXUX7XD.'.~.s.t.q.t.s.LXUXJXI.U.I.Y.K.Y.|.L.{.a.L.=XIXUXZXu M M h y y v 2 eXUXUX9Xk m h y r e L.K.K.",
"K.K.G.G.K.G.F.G.G.G.I.I.I.].'.!.~.Q.Q.!.'.'.Q.s.PXUXHX[.G.p.~.P.p.G.4.6XUXUXvXX Y.%XL.y.u.$X%X+X}.1 tXUXUXiXu M k h 4 a h 2 sXUXUX9Xg U 4 y r e L.L.L.",
"oXG.G.G.G.G.~.!.~.~.~.'.'.!.!.(.0.q.q.q.W.'.D.7XUXUXvXF.G.i.t.G.U.Y.J.bXUXUX7XO |.%X%XoX@ q $Xi i i VXUXUXrXu M k h h k k s BXUXIXB l g 4 c r e oXoXoX",
"XXG.G.G.!.!.W.W.(.!.!.).(.E.E.E.0.e.9.9.9./.D.nXUXUX6Xi.i.i.y.y.L.%X%XLXUXJX*Xq L.i q e e b w w 9 t LXUXJXt a h 4 U g ^ ~ ^ JXUXHX< s k f 0 e q oX|.{.",
"K.P.~.Q.W.(.0.0.^.^.E.E.E.>X>X>X8.w.e.7.9.9.@XIXUXFXF.y.y.y.y.y. Xi tXUXUXVX1 7 6 e @ @ r p b b 3 qXUXUXsX= 2 s P P s ^ ~ yXUXUXfX, s 4 v c w q oXoX|.",
"P.'.!.0.^.^.r.r.z.z.z.;X;X-X-X-X;Xb.7.7.7.3.wXUXUXbXF.u.y.o @ @ @ 1 VXUXUXrXc + o 7 7 o + 0 c M a MXUXUX9X2 4 g U U l ~ , dXUXUX9X, k 4 t 0 e q |.oXOX",
"p.W.W.r.T.;X;Xz.j.j.j.v.,Xv.v.,X-Xz.b.7.7.6.bXUXUX=XJ.{.@ o o @ @ 7 LXUXHXx M 8 = = t t 7 2 - y M IXUXHXk h k ^ l d F K / JXUXJXU l ^ a 2 8 q oX+XY.I.",
"Q.(.^.z.z.z.z.v.x.x.x.N.N.m.d.x.k.,Xz.w.7.9.FXUXHXY.L.oXO o o @ X 8XUXUXsX. y v t - 2 v v 4 = . wXUXUXfX~ ^ ~ ~ / F & Z yXUXUXgX> l 4 t t w $X|.K.I.G.",
"^.T.z.z.l.l.c.N.O.X.X.X.m.n.n.n.d.v.<X;Xw.C.LXUXNXF.oX+X6 @ @ = . mXUXUX8X= - 4 h f f k k 4 I 2 ZXUXUX9X~ / l / W K G H gXUXUX9XA s I y 8 r +XY.G.G.Q.",
"^.;Xz.v.x.N.N.X.@.@.+.@...n.n.n.f.c.:X>XR.3XUXUXvXy.}. X6 + + = = ZXUXJXI * * * f k k ^ k U 2 B UXUXBXF / > > W W Q < L IXUXGXU U f x M r +XOXXXG.Q.0.",
";Xz.v.x.M.X.@...|  .:.:...| n.n.g.j.;X2XR.6XUXUXzXX a.@ 7 7 + = = GXUXGXI P * * I h ~ ~ ~ l > iXUXUXpX> / J < W W W H 0XUXUXdX: I 2 c n e +X{.P.'.W.^.",
";Xl.N.M..... .>.;.;.:.:.+.@.m.g.g.b.r.(.).6XUXUXvXX a.@ + + - = * GXUXGXP U P & P d ^ ~ ~ / ~ HXUXIXE < Q Q Q L ) Q G MXUXUXyX: 2 y 7 q +XOXI.!.W.^.8.",
",Xv.N...| :.:.;.,.,.;.:.o.O.v.c.h.h.e.q.W.].IXUXmXX @ + + - * * % MXUXUX9XF R U U d / ~ / W fXUXUXBXV G L Q G V G < _ IXUXHXh 4 x n r $X+XOX[.'.E.;X-X",
"v.M.@. .:.:.-.-.-.%.;...O.N.v.l.h.7.7.s.s..XHXUXFXo @ = = - * * % 0XUXUXGXR , < z < W W / CXUXUXIXT $ C G L V $ S < uXUXUXiXa M M 8 +X|.{.I.].).>X:Xv.",
"M.M...:.;.-.-.-.,.%.| m.N.j.h.h.w.7.9.s.i.y.NXUXIX8X+ - = * * * & & BXUXUXJXuX_ / / yXfXIXUXUXUXyXV C C Z L G S G F ZXUXUX8X3 M b 5 |.{.].~.W.E.;X,Xx.",
"M...:.,.-.1.-.:.:.| ..M.x.h.h.7.e.9.t.t.i.X eXUXUXqX. - * * * % & & Y GXUXUXUXUXIXIXUXUXUXUXJX_ , G V V J Q < K A Y IXUXZX2 8 8 *X$XOXi.'.Q.E.;Xv.v.N.",
"..>.,.-.*.*.-.:.+.n.m.d.v.z.w.e.9.s.t.i.y.O #XIXUXGX- * * * % & & & # S dXUXUXUXUXUXUXUXJXpXJ < Q ) L L < / l U A pXUXUXiXu 7 7 *X%XP.i.!.E.z.z.x.M.M.",
":.:.-.*.*.$.:.+.o.m.m.j.k.;XE.^.q.i.i.y.y.@ X mXUXUXeX% * * & & & & D $ $ T pXdXCXCXpX0XD V V J Q W Q Q / / F U s ZXUXIX=Xi r  XOXI.~.!.E.;Xz.l.N.} ..",
";.-.*.*.$.,.>.X.X.M.c.l.;XE.(.!.Q.i.y.u.@ @ @ 8XIXUXIX8X% P & & D D $ D C V V V Z H Z ; C C C Z L Q / / / l z l rXUXUXZXi $X$X}.{.p.W.^.w.z.,Xd.X.@.:.",
"-.*.&.*.-.:.@.X.N.x.z.z.E.(.Q.q..X{.u.O 7 7 7 . wXUXUXLXY % S S D D C C C C C C V G G D C D D S K / / / / ^ ^ a iXUXUXwX5 *X$XOX].!.E.E.z.l.v.M...:.;.",
"*.*.*.-.;...@.N.x.c.z.E.).!.F.p.u.}. X6 6 t t 2 . MXUXUXPX9X# S D D C C C C C C C V G G S S S A > / / / ^ ^ a 2 GXUXIX}.@ L.%XU.[.^.r.z.l.,XN.X.| ;.,.",
"&.-.,.:. .@.X.v.c.j.T.E.'.I..X{.{.5 6 r x x y 2 I P BXUXUXUXpXD C C D C C C D D D S G F Z S F U z ^ ^ ^ ( k 3 8XUXUXNXO |.Y.G.Q.).r.;X,Xv.M.m...;.,.*.",
"*.,.:. ...m.v.v.z.;XE.'.].I.XX}.}.5 t c v h f 4 I A A dXUXUXUXGX0XT C $ $ $ D D D V V F E uXE z l k h a h M 3 sXUXUXiXL.%XP.s./.`.;Xz.v.M.M...>.,.$.&.",
",.:. ...m.x.,X;XE.E.!.~.I.+X+XoX6 8 y v h h f 4 A A S V 0XPXUXUXUXPXMX0XT T Y Y T 9X0XBXIXJXl k h 4 2 2 t c n HXUXLXOXY.[.!.Q.E.;Xh.g.x.m.n.>.,.$.&.&.",
";.| ..X.x.c.;Xr.^.!.G.{. X*X*Xb 0 x v v h g g U A A S S V T sXIXUXUXUXUXUXIXPXPXIXUXUXUXUXiXk h f 2 - . 2 9 rXUXUXmXO G._._.`.>Xz.c.x.m...| ;.-.*.&.-.",
">...@.N.l.z.^./.W.G..X X Xb n n M v a f 4 : : F Z Z S S S V $ Y pXGXUXUXUXUXUXUXUXUXUXUXIX=Xh v t 2 + + + 5 VXUXUXqXt.!._.`.>X;Xj.x.m.....;.-.*.&.-.;.",
"@.@.N.v.z.T.(.!.P.G.oXoXb n c v M h g : Y pXBXZXBXpXG V S S S S # S Y 0XpXmXMXBXmXMXUXUXZX4 y y t 7 + + 7 +XLXUXLX.X~._.`.>Xz.z.g.m...| ;.-.*.&.*.,.>.",
"O.M.l.z.^.^.I.I.{. Xe b n M v a h l > 0XIXUXUXUXUXUXPX0XV S S A A A % % % % % %   pXUXUXqX2 7 7 7 7 7 7 q 7XUXUXvX4.).`.>Xj.h.l.d... .:.-.1.&.*.-.:.+.",
"N.l.z.;X^.~.I.XX}.5 e 8 x v h h l , uXUXUXUXIXGXIXUXUXUX0XV A A A A P P P * * * I JXUXLXI + + + + @ 6 *XL.nXUXUX6X3.E.>X;Xh.c.x.m...:.-.-.&.*.-.;.:.@.",
"v.z.;X^.Q.XXOX+Xw 8 0 y f g g l , _ IXUXUXpXG G R dXUXUXIXY A A A P * * * - - . 9XUXUXmX. + + @ @ @  XoX=XLXUXFX9.^.>X:Xv.g.c.M.| >.,.$.*.*.-.:.:.o.X.",
"z.;XE.Q.XXoXoXq 8 y y f g g d z , gXUXUXaXZ G G J < dXUXUXsXA P P * * * - - - . NXUXUX8X+ @ @ @ @ a.}.y.wXUXUXzX8.>X:X,Xv.x.O...>.:.-.*.*.,.:.:...@.v.",
";X^.!.G.|.oXq 8 t 4 s s d K F F K JXUXIXL J J K L / / JXUXGXP P P * - - - I . qXUXUXNX+ @ @ @ @ y.u.u.t.NXUXUX6Xw.;X,X,XN.O.@.:.;.-.*.*.,.:.:.+.@.x.j.",
"0.Q.P.K.oX8 0 y f s s d K J F Z E IXUXCX< z < z l l , CXUXUXY P I - - I - . 8XIXUXUX8X@ a.a.y.y.i.p.i.@XIXUXFX7.b.,X,XO.o.X.:.;.-.*.&.,.;.:.+.X.N.j.b.",
"Q.P.Y.oXw 0 f g s d K L K J U F E UXUXfX, / l z z g > iXUXUXwX  . . . . + eXUXUXUXeXO  X{.u.y.i.i..XD.zXUXUXzX5.z.,XO.o.@.>.:.-.*.&.-.;.>.....N.v.;X/.",
"I.Y.oXw 8 f g 4 F K < z R U U > E UXUXfX, l g s 4 4 4 9XUXUXIXeX8X8X8XwXGXUXUXUXvXO |.OXG..Xp.p.q./.E.FXUXIX5Xj.c.N.o...| ;.-.*.&.*.,.:.+.o.N.v.;X(.!.",
"K.q r y y f l < L < l z d s g g B IXUXCXk h g 4 2 I 2 2 sXUXUXUXUXIXUXUXUXUXUXeXO {.K.U.].~.Q.q.9.3.7XUXUXSXc.g.m.@.+.| ;.-.*.&.*.,.:.+.o.O.l.z.^.].].",
"oX8 0 f 4 s > < < z d g 4 4 f h f GXUXHXh h v 2 2 2 2 7 + sXUXUXUXUXUXUXIXNX#XO .XG.P.'.'.!.9.9.7.7.FXUXUX6Xf.d.} +.:.:.-.1.&.*.,.;.....m.c.z.T.!.XXXX",
"r 8 y s R K L < z s g f y t 4 m 3 MXUXUX=Xa v y 7 7 7 7 7 X 8XeXmXmXvXiX=XF.F.p.p.q.Q.!.).^.e.e.5.zXUXUXSX' M...+.:.:.-.-.&.*.-.;.>.@.X.x.z.;X/.I.{.}.",
"0 a l R K L K > s g f t t t t t 3 wXUXUXmX7 r b w 7 8 e 6 7 O X X O O J.P.].F.i.s.s.9.^.E.T.b.5.6XUXUXUX5XX.o...>.;.-.-.*.*.-.,.>...X.v.z.;X(.@XXX}.6 ",
"a g z / L L z s f x 0 8 8 r 8 7 8 8 GXUXUX8X5 *Xi b *X*X|.u.u.u.u.u.XXI.[.'.Q.9.s.s.9.w.T.>Xk.1XLXUXUXkX[ m. .>.%.-.1.*.1.-.,.:.+.} v.v.z.W.~.OXoX6 x ",
"4 F L L K z g a x c b b i b q q w O wXUXUXJX*X$X$X$X$X$XoXa.u.{..X.X.X.X!.'.W.9.s.s.7.w.;XA.5XLXUXUXAX[ n.| :.;.-.1.*.*.,.,.>...X.x.c.>XE.Q.{.|.q x v ",
"F J L L d g y x c i 6 q $XL.+X$XoX}.1 nXUXUXFXOX5 Y.K.I.K.p.p.G.G.p.i.s.0.(.(.0.e.e.b.b.' 7XLXUXUXFX..| | ;.,.-.1.*.*.,.,.:...m.O.v.j.^.!.G.{.q b t 4 ",
"J L L K l h 0 w q |.y.u.K.oX|.OXI.Y.U.XXFXUXUXHX6X4.p.p.~.'.'.'.'.s.s.9.e.T.>X;Xb.h.5.j.kXUXUXUXSX@. .>.>.,.-.*.&.1.,.:.:.+.} N.,Xz.w.!.G.K.w b v 4 F ",
") L K l a x r q L.{.u..XU.I.p.p.P.U.[.F.@XFXUXUXUXbX@Xt.4.!.!.].]./.e.7.e.;X:X-Xk.c.kXFXUXUXUXAX@. .:.:.,.$.*.&.*.,.:.:. ...O.v.;X0.q.!.XX$Xb x 4 F F ",
"L z l k v e 5 {.Y.F.P.P.'.'.W.Q.!.Q.).).D.[.nXUXUXUXPXbX7Xs.6.8.R.8.5.5.5.k.<X5XkXKXUXUXUXPXlX .:.;.;.;.,.*.&.*.$.;.:.| m.m.x.b.r.q.Q.I.}.q c f g J L ",
"K l k v r $X|.G.I.Q.q.(.W.(.).R.0.0.^.^.`.R.R.7XHXUXUXUXUXLXDXbXbXkXkXkXbXSXKXUXUXUXUXUXAXZ.` :.:.;.,.,.$.*.*.-.,.:...n.m.x.h.r./.~.I.$Xq 8 f s l < L ",
"d g v n +XL.P.!.!.0.0.^.^.R.E.E.T.E.8.w.>XT.7.8.2XcXKXUXUXUXUXUXUXUXUXUXUXUXUXUXUXPXAXhX` ` >.;.-.,.,.$.*.*.-.,.:.+.@.m.d.z.z.(.~.G.|.$Xb y s d K L < ",
"k M r $XK.G.!.^.E.8.T.T.T.:X-Xj.k.:X-Xz.;X>XT.E.E.R.(.7XbXFXLXUXUXUXUXUXUXIXKXAXlXhX{ | | ;.;.,.-.,.*.*.*.-.,.;.:.@.m.d.j.>X`.!.F.K.6 7 m s R K J < d ",
"x M e L.U.'.^.T.E.-X-Xk.-Xl.v.j.l.,X:Xz.r.E.E.`.2X3Xw.5.8.-X2X5X6XjXjXjXjXV.M.{ {  .<.>.;.;.%.$.*.*.*.*.-.,.>. .o.m.g.h.z.`.[.[.Y.6 7 y h z < L L K 4 ",
"8 q %X&X_.`.E.:XA.A.k.A.] d.] v.l.j.b.T.E.T.0.E.^.^.r.b.b.;X:X-Xc.d.' } n.n...@.>.>.:.:.;.$.*.&.&.*.$.-.,.;.| ..O.x.v.z.w.!.~.Y.+Xw v f l K L Q F s f ",
"i L.U._.E.8.z.A.A.' ] S.O.X.A.k.j.;Xr.^.E.T.T.T.e.r.w.z.z.,X<X,X,X4XN.M.M.m...:.>.;.:.,.-.*.&.&.*.-.-.,.:.| | X.4X,X:Xr.9.!..XL.6 x f s / Q L < s h c "
};
