/* XPM */
static char *character[] = {
/* columns rows colors chars-per-pixel */
"34 34 191 2 ",
"   c #0C1518",
".  c #1C1B17",
"X  c #151005",
"o  c #271A0C",
"O  c #341A08",
"+  c #351B14",
"@  c #2A260A",
"#  c #34210F",
"$  c #312E0A",
"%  c #2D3B04",
"&  c #333208",
"*  c #362411",
"=  c #392915",
"-  c #342817",
";  c #201D20",
":  c #1A2428",
">  c #373329",
",  c #2B373C",
"<  c #323937",
"1  c #490900",
"2  c #451815",
"3  c #7A1001",
"4  c #452B14",
"5  c #4D3016",
"6  c #45351B",
"7  c #5B3A1C",
"8  c #543818",
"9  c #42320E",
"0  c #623E1E",
"q  c #7B3F10",
"w  c #473925",
"e  c #513924",
"r  c #643F20",
"t  c #3D4C02",
"y  c #354204",
"u  c #455902",
"i  c #534719",
"p  c #4F4916",
"a  c #634414",
"s  c #674817",
"d  c #715F1D",
"f  c #4C6100",
"g  c #536A05",
"h  c #5A7301",
"j  c #5F7902",
"k  c #5B750B",
"l  c #576217",
"z  c #627D00",
"x  c #627F0C",
"c  c #7E621C",
"v  c #474423",
"b  c #5A5428",
"n  c #4C4737",
"m  c #525036",
"M  c #4C542D",
"N  c #6C4422",
"B  c #754A25",
"V  c #7A4E26",
"C  c #764B27",
"Z  c #63552D",
"A  c #7E5027",
"S  c #6A5D35",
"D  c #665A33",
"F  c #6B4F36",
"G  c #76693D",
"H  c #676A2E",
"J  c #293F46",
"K  c #2A424A",
"L  c #2A4A55",
"P  c #2F515D",
"I  c #345965",
"U  c #3D6471",
"Y  c #484F51",
"T  c #47565A",
"R  c #595A54",
"E  c #4E4A46",
"W  c #5D6151",
"Q  c #756D44",
"!  c #666758",
"~  c #7F774A",
"^  c #586E75",
"/  c #4B6872",
"(  c #656464",
")  c #6A6865",
"_  c #747879",
"`  c #AC1301",
"'  c #86400F",
"]  c #914611",
"[  c #B74911",
"{  c #BA791F",
"}  c #83532A",
"|  c #8D592D",
" . c #86552A",
".. c #935D2F",
"X. c #955F30",
"o. c #855B31",
"O. c #8E6437",
"+. c #9B6232",
"@. c #A56936",
"#. c #AD6E39",
"$. c #A56936",
"%. c #B5733C",
"&. c #C0420E",
"*. c #867C4B",
"=. c #937052",
"-. c #AB7E50",
";. c #658206",
":. c #6D8D0D",
">. c #68860A",
",. c #6F900E",
"<. c #759500",
"1. c #72940C",
"2. c #77990B",
"3. c #799B02",
"4. c #83A806",
"5. c #8BB40A",
"6. c #8FB90C",
"7. c #93BE0D",
"8. c #BD8021",
"9. c #C98924",
"0. c #C49228",
"q. c #D8B636",
"w. c #E9B835",
"e. c #E4A32C",
"r. c #97C30F",
"t. c #9AC710",
"y. c #9BC911",
"u. c #A4D515",
"i. c #E2C73C",
"p. c #988347",
"a. c #998F58",
"s. c #978C56",
"d. c #A7904E",
"f. c #A8914F",
"g. c #B49B54",
"h. c #A8924F",
"j. c #BDA55C",
"k. c #94897F",
"l. c #A5917F",
"z. c #B4A868",
"x. c #C5AB5D",
"c. c #C2B671",
"v. c #C7BB74",
"b. c #D1B462",
"n. c #FBDA42",
"m. c #FDE044",
"M. c #D5C579",
"N. c #ECCC6F",
"B. c #E1C26A",
"V. c #ECCD70",
"C. c #F2D87C",
"Z. c #E5D27E",
"A. c #497888",
"S. c #677B81",
"D. c #4C8091",
"F. c #5C8C9C",
"G. c #6999A9",
"H. c #6B92A0",
"J. c #739BA8",
"K. c #75A0AE",
"L. c #7AA7B5",
"P. c #8B8A8A",
"I. c #858585",
"U. c #9C9C9C",
"Y. c #959595",
"T. c #918A83",
"R. c #A39D97",
"E. c #B9A798",
"W. c #809FA9",
"Q. c #85AAB6",
"!. c #A4A4A4",
"~. c #ADADAD",
"^. c #B3B3B3",
"/. c #BABABA",
"(. c #BFB1A6",
"). c #C0B5AB",
"_. c #ECDA85",
"`. c #F5DD83",
"'. c #FAE58B",
"]. c #F7E48A",
"[. c #FEEE95",
"{. c #C4C0BD",
"}. c #9BBFCB",
"|. c #9CC1CC",
" X c #A3C6D1",
".X c #C5C5C5",
"XX c #CACACA",
"oX c #DEDEDE",
"OX c #E3E3E3",
"+X c #EDEDED",
"@X c #F7F7F7",
/* pixels */
"@X@X@X@X@X@X@X@X@X@X@X@X@X@X@X@X@X@X@X@X@X@X@X@X@X@X@X@X@X@X@X@X@X@X",
"@X@X@X@X@X@X@X@X@X@X@X@X.X~.!.R.U.U.!./.@X@X@X@X@X@X@X@X@X@X@X@X@X@X",
"@X@X@X@X@X@X@X@X@X@X@X( T.l.E.E.).).).R.( U.@X@X@X@X@X@X@X@X@X@X@X@X",
"@X@X@X@X@X@X@X@X@X^.W {.-.%.%.%.%.$.%.$.-.=.! @X@X@X@X@X@X@X@X@X@X@X",
"@X@X@X@X@X@X@X@XY.E T.F 5 N B C } N | X.B X.} P.@X@X@X@X@X@X@X@X@X@X",
"@X@X@X@X@X@X@X@XW j j :.2.z z 2.z f u g u u t @ XX@X@X@X@X@X@X@X@X@X",
"@X@X@X@X@X@X@X@X! 6.3.t.r.5.4.r.t.4.7.t.4.7.r.h ^.@X@X@X@X@X@X@X@X@X",
"@X@X@X@X@X@X@X@XR 2.2.z h 1.:.h h 1.x h :.x z g ^.@X@X@X@X@X@X@X@X@X",
"@X@X@X@X@X@X@X+Xw + p.f.f.f.f.f.f.d.o N s 0 C + ~.@X@X@X@X@X@X@X@X@X",
"@X@X@X@X@X@X@X.XC w M._.'.'.'.Z._.'.e +. .| $.0 P.@X@X@X@X@X@X@X@X@X",
"@X@X@X@X@X@X@X.XC # c a c.[.a.d s s.*.| V X...C E @X@X@X@X@X@X@X@X@X",
"@X@X@X@X@X@X@X/.V s m.e.6 Q i n.w.8 D - 8 @.} +.5 ) @X@X@X@X@X@X@X@X",
"@X@X@X@X@X@X@X~.} = w.q.Q [.S 0.i.Z ].N.= } } } @.5 U.@X@X@X@X@X@X@X",
"@X@X@X@X@X@X@X!.| = G ~ c.c.c.Q *.`.C.N.x.b C | | N I.@X@X@X@X@X@X@X",
"@X@X@X@X@X@X@Xw %.* `.s.* 4 4 o M.[.C.b.F 6 X.@.} C I.@X@X@X@X@X@X@X",
"@X@X@X@X@X@X.XB +.8 S * 7 = 4 0 w '.V.Z q -. .@.} } ( @X@X@X@X@X@X@X",
"@X@X@X@X@X@X+Xe } $.o X = g.G # o g.p.8 s @.} %.B #.+ XX@X@X@X@X@X@X",
"@X@X@X@X@X@X@XP.5 r ;   # $ Y K , s 1 : / >  .#.V #.> @X@X@X@X@X@X@X",
"@X@X@X@X@X@X@X@X^.XXE / s s  XG.S.{ 2 Q.H.W.: E R ) /.@X@X@X@X@X@X@X",
"@X@X@X@X@X@X@X@X@XU.P U ] s  XG.S.8., |.A. XI P.@X@X@X@X@X@X@X@X@X@X",
"@X@X@X@X@X@X@X@X@XR A.I ] a  XG.S.9.+ L.L.Q.H.Y @X@X@X@X@X@X@X@X@X@X",
"@X@X@X@X@X@X@X@X@XJ A.L ] 7 |.H.^ 9.3 / |.F.J.: +X@X@X@X@X@X@X@X@X@X",
"@X@X@X@X@X@X@X@XoX  J ; [ a e > . 9.` : T K / K /.@X@X@X@X@X@X@X@X@X",
"@X@X@X@X@X@X@X@X~.L A.+ &.a $.} O s 1 ; K.J.^ < R.@X@X@X@X@X@X@X@X@X",
"@X@X@X@X@X@X@X@X~.v m . O & & $ X ;.<.y n *.x.B._ @X@X@X@X@X@X@X@X@X",
"@X@X@X@X@X@X@X@X!.g.V.l :.h 7.5.t u.;.u z.[.C.d.!.@X@X@X@X@X@X@X@X@X",
"@X@X@X@X@X@X@X@XoXn p.k u.>.y % >.u.u.<.t b D _ @X@X@X@X@X@X@X@X@X@X",
"@X@X@X@X@X@X@X@X@X@X^.k u.u.3.z >.u.u.5.<.<.R @X@X@X@X@X@X@X@X@X@X@X",
"@X@X@X@X@X@X@X@X@X@X+Xk u.u.6.j :.u.u.y.3.<.M @X@X@X@X@X@X@X@X@X@X@X",
"@X@X@X@X@X@X@X@X@X@XOXk u.u.t.h ,.u.u.u.3.3.y @X@X@X@X@X@X@X@X@X@X@X",
"@X@X@X@X@X@X@X@X@X@X.Xv i i H $ M p v H p & > OX@X@X@X@X@X@X@X@X@X@X",
"@X@X@X@X@X@X@X@X@X@X_ a.O.O.z.* z.O.O.z.-.C Y.@X@X@X@X@X@X@X@X@X@X@X",
"@X@X@X@X@X@X@X@X@X@XOX^.~.!.!.!.!.!.U.Y.U.U.OX@X@X@X@X@X@X@X@X@X@X@X",
"@X@X@X@X@X@X@X@X@X@X@X@X@X@X@X@X@X@X@X@X@X@X@X@X@X@X@X@X@X@X@X@X@X@X"
};
