/* XPM */
static char *result[] = {
/* columns rows colors chars-per-pixel */
"75 75 255 2 ",
"   c #BF7159",
".  c #BA746A",
"X  c #BE7C6D",
"o  c #B86F7A",
"O  c #AE797C",
"+  c #BD7573",
"@  c #BB7A73",
"#  c #B77778",
"$  c #B3757C",
"%  c #B37B7B",
"&  c #CD784B",
"*  c #D57D49",
"=  c #CB7C5C",
"-  c #D27E58",
";  c #CB7B63",
":  c #C27B6B",
">  c #C67868",
",  c #D17C63",
"<  c #C27371",
"1  c #BEA85E",
"2  c #BBB85B",
"3  c #BCBB5C",
"4  c #978D7D",
"5  c #BB876C",
"6  c #BC8B6C",
"7  c #AC996E",
"8  c #BB946A",
"9  c #B49C6D",
"0  c #BA9869",
"q  c #AD867C",
"w  c #AB8C7C",
"e  c #B58374",
"r  c #BB8271",
"t  c #B38C74",
"y  c #B4857A",
"u  c #AD9576",
"i  c #A29971",
"p  c #AC9C75",
"a  c #A5957E",
"s  c #AB947B",
"d  c #A59B7D",
"f  c #A99B7A",
"g  c #B39472",
"h  c #B19A72",
"j  c #B1917A",
"k  c #9DA97C",
"l  c #9BB47C",
"z  c #9DBA78",
"x  c #AFA76C",
"c  c #AEAB6D",
"v  c #BBA364",
"b  c #B7AA67",
"n  c #BBAB63",
"m  c #B3A36B",
"M  c #B3AC6A",
"N  c #ACB46D",
"B  c #A7BA6D",
"V  c #ACBC6B",
"C  c #B4B465",
"Z  c #BBB364",
"A  c #B3BC63",
"S  c #B7BB66",
"D  c #B1B36A",
"F  c #A7A477",
"G  c #ABA374",
"H  c #A6AC75",
"J  c #ABAC72",
"K  c #A4A37B",
"L  c #A3AC7B",
"P  c #B3A673",
"I  c #A5B374",
"U  c #A8B773",
"Y  c #A2B379",
"T  c #B8B477",
"R  c #DB844D",
"E  c #D8884B",
"W  c #CA934A",
"Q  c #D2974E",
"!  c #CD835C",
"~  c #CC8A58",
"^  c #D58454",
"/  c #D58756",
"(  c #CA9659",
")  c #C59C5D",
"_  c #D29553",
"`  c #CAA147",
"'  c #C8A955",
"]  c #C2A45C",
"[  c #C3AB5B",
"{  c #C4B355",
"}  c #C4B55A",
"|  c #C48766",
" . c #CB8363",
".. c #C49663",
"X. c #D29170",
"o. c #E39F75",
"O. c #C2A763",
"+. c #C9AF6A",
"@. c #B9C45B",
"#. c #B4CB5C",
"$. c #B6D15C",
"%. c #9DC075",
"&. c #ADC666",
"*. c #ACC26B",
"=. c #ABC36F",
"-. c #B3C463",
";. c #B3CB64",
":. c #B5C468",
">. c #C4C25A",
",. c #C6C370",
"<. c #7974AE",
"1. c #7E7BAC",
"2. c #746DB6",
"3. c #7D6DB6",
"4. c #7867BA",
"5. c #7B65BD",
"6. c #756DBE",
"7. c #7B6CBB",
"8. c #7D75B5",
"9. c #7578B6",
"0. c #7D7BB3",
"q. c #7672BC",
"w. c #7A73BB",
"e. c #6D5ECE",
"r. c #735EC8",
"t. c #675BD4",
"y. c #6A5DD2",
"u. c #6E6AC5",
"i. c #6E63CC",
"p. c #7465C5",
"a. c #7867C3",
"s. c #746BC3",
"d. c #7164C9",
"f. c #7A74C8",
"g. c #6B60D0",
"h. c #786CD5",
"j. c #9A748E",
"k. c #9A6E99",
"l. c #9A6D9A",
"z. c #8B779D",
"x. c #8E7D9E",
"c. c #9C7494",
"v. c #9B7C93",
"b. c #94749D",
"n. c #99739A",
"m. c #977A98",
"M. c #937B9C",
"N. c #A76C8C",
"B. c #AC7584",
"V. c #A77B87",
"C. c #AB7B84",
"Z. c #A4748D",
"A. c #AA748A",
"S. c #A37C8B",
"D. c #B27682",
"F. c #A37392",
"G. c #A37B91",
"H. c #896BAA",
"J. c #8B6CAB",
"K. c #926DA3",
"L. c #8C74A5",
"P. c #857DA5",
"I. c #8C7CA4",
"U. c #8574AD",
"Y. c #8974AA",
"T. c #847CAC",
"R. c #8A79A8",
"E. c #9272A2",
"W. c #937BA2",
"Q. c #8363B4",
"!. c #836BB3",
"~. c #8568B4",
"^. c #8274B3",
"/. c #817AB1",
"(. c #8B7ABA",
"). c #8477C5",
"_. c #7E829F",
"`. c #7C83AB",
"'. c #7C88A8",
"]. c #7484B2",
"[. c #9D848D",
"{. c #968A8C",
"}. c #9C8C8C",
"|. c #8D978B",
" X c #9E9486",
".X c #9D9C85",
"XX c #95948D",
"oX c #9B948B",
"OX c #959B8D",
"+X c #9B9A8A",
"@X c #8D849D",
"#X c #888899",
"$X c #8C8B9C",
"%X c #958595",
"&X c #9A8492",
"*X c #948C94",
"=X c #998B92",
"-X c #92839A",
";X c #99819A",
":X c #928A99",
">X c #8D9395",
",X c #8B9896",
"<X c #8C929C",
"1X c #939393",
"2X c #989594",
"3X c #929A92",
"4X c #A58485",
"5X c #AB8482",
"6X c #A48D84",
"7X c #AB8B81",
"8X c #A2848B",
"9X c #A28B89",
"0X c #AC898D",
"qX c #A39383",
"wX c #A49486",
"eX c #A29B82",
"rX c #AB918C",
"tX c #9CA483",
"yX c #98A787",
"uX c #90A88D",
"iX c #A1A382",
"pX c #A9AC87",
"aX c #A9AD90",
"sX c #8484A4",
"dX c #8B83A3",
"fX c #858BA3",
"gX c #898BA1",
"hX c #8483AA",
"jX c #8787AA",
"kX c #988AA6",
"lX c #8893A6",
"zX c #9694A6",
"xX c #8987B7",
"cX c #948CB5",
"vX c #A992AB",
"bX c #ADAAB4",
"nX c #C79490",
"mX c #E4B291",
"MX c #D7B0AC",
"NX c #E5BCAA",
"BX c #BDC3BE",
"VX c #D4C7A6",
"CX c #E8C8B4",
"ZX c #9F9CC3",
"AX c #B2ACC6",
"SX c #C6B8C6",
"DX c #CFCFCE",
"FX c #DFDDDE",
"GX c #ECD8D0",
"HX c #F2E5DA",
"JX c #EAE8E7",
"KX c #F6ECE9",
"LX c #F6F1EE",
"PX c #F8F4F4",
"IX c #FFFEFE",
/* pixels */
"rXaX2XkX:XlXxXxXxX(.0.xXxXxXlXlXkXzXzXzXzX2XkXzXkXkXkXW.W.cXxXxX(.xX(.(.).).).f.).h.h.h.h.h.h.h.h.h.f.f.).xXxXcXcXzXzXzX2XaXaXaXpXT P ,.+.>.} T T Y pX",
"8X1X#XI.1.1.<.8.3.2.2.9.9.].'.fX$X#Xn.$X$Xm.j.-X#Xx.E.E.P.T.hX8.~.3.q.7.5.p.r.r.r.y.y.y.t.t.t.i.i.u.u.q.7.!.3.T.sXL.m.>X3X+X XyXI N S ;.$.$.A N N i tX",
"1X-X@XR.T.~.4.2.4.q.9.].1.P.dX#X#X#X>X-X%X-X-X$X@XM.L.L.R.J.^.0.w.3.s.s.s.s.r.e.g.y.t.t.t.y.e.i.s.s.q.w.~.~.J.kXW.n.-X[.S.q w z I V -.$.@.;.N 6 K qXC.",
"*X#XK.H.<.5.4.2.2.9.].9.sXfXM.#X-X>X*X*X%X-X*X$X@XM.I.R.U.U.8.^.w.w.s.s.u.i.i.e.g.t.t.g.y.r.d.s.s.w.w.9.^.J.I.gX$X:X*XV.4Xs K J N &.#.$.} b *.p f yX9X",
"-XI.H.<.9.5.4.u.q.].].T.fX@Xm.>X%X1X1X1X&X%XM.;X@XW.E.L.U.0.8.3.3.s.s.p.d.i.y.y.t.t.g.g.u.d.s.s.w.0.0.0.U.R.jXgX<X>XS.V.tXpXJ | C A 2 #...x %.l tX X,X",
"x.P.H.9.4.5.u.u.9.1.P.sX#X#X-X%X[.3X3X3X%X&X*X:X$Xx.L.R.U.T.^.3.s.a.p.p.d.e.y.t.y.g.d.d.d.p.s.s.w.^.0.U.J.L.gX<X>X1XV.6XtXY 6 0 &.1 1 ;.m x w k yX*X-X",
"P.H.3.2.4.r.6.2.2.`.sX#X#X*XXX[.oX3XOX{.XX*X&X*X;Xn.I.L.U./.^.w.7.s.s.p.i.y.y.y.g.p.s.p.p.a.7.!.~.J.(.J.K.E.$X<X,X}.B.5XpXP 8 D &.;.1 V B i k k OX,X@X",
"P.H.Q.4.6.i.2.2.1.'.#X,X|.XX}.}. XoX+XoXXXoX&X&X:XdXL.R.T./.8.7.a.s.s.d.i.i.i.i.d.s.s.s.7.5.w.8.!.J.U.R.L.M.$X>X1X}.B.% L U N D 1 2 | N l l uXuX,X,X#X",
"1.<.2.q.u.6.9.1.P.#X#X1XXX}. X XqXqXwXyXoX[.=X=X:X-XL.L.Y.^.3.7.7.s.u.i.i.e.r.r.d.s.6.7.7.7.9.0.U.U.`.jXgXgX:Xv.oXoXq d Y U V ..) b m G j eX.XuX,X#Xx.",
"<.9.2.2.6.].].sX#X-X%X}.oX X Xa qXwXwX+X X}.=X&X%X-XI.L.U.^.8.7.s.s.u.d.i.e.d.p.s.6.Q.7.3.3.8.1.hXT.sXfXgX<X*X[.oXtXtXL L =.V v b U I p eXeXtX'.,X#XP.",
"T.8.9.9.9.9.P.@X#XXX{. X6XqXd d eXf qX.X+X X=X=X;X-XI.L.R.0.8.q.s.d.i.u.u.s.s.s.s.7.a.!.Q.3.0.T.U.K.I.$X<X<X2X2XOXyXd t G N v A V B Y iXtX+XXXuX#XsXP.",
"1.].9.2.3.'.#X#XXXXX.X6Xw a f k F d s a qX6XoXoX:X-XW.L.R.1.8.5.a.s.u.u.u.p.a.q.7.3.w.!.!.U.U.`.R.E.@X$X-X%XS.V.6XtXw e G 8 ! M %.U Y s wXyX1X,X#XL.P.",
"`.].9.<.1.z.m.{.}.qXwXwXf f f K K f d d eX4X XXX*X-XM.W.T.U.8.7.7.s.s.s.q.6.s.w.w.w.<.U.U.U.T.I.I.dX@X-Xc.S.S.V.qXk F F 9 | 8 x z z l eX X{.{.,X#XsXsX",
"1.1.8.sXx.M.XX{.4Xs K eXK f p F F f f d eX X.XoX*X*XM.W.Y.J.^.8.q.a.s.6.a.9.9.3.8.<.<.3.H.Y.hXI.I.$X$Xn.v.=X+XtXtXyXl I 0 8 x N z l k yX+X|.*X-X$X'.'.",
"`.`.R.@Xm.[.XX.XqXa K F F F p u p f s s d tX+XXX1X:Xb.I.R.Y.!.w.w.5.q.w.9.0.8.4.(.ZXAXZXcXH.1.#X-X@X>X*X%XOXuXyXtXK l J c U B z l l yXyX+XuX>X#X$X#XfX",
"'.sX@X-X%XS.oXqX7Xd eXp j p G u p F d F tX X XXX1X*XM.K.E.jX/.^.Q.8.9.^./.<.(.DXPXIXIXIXPXJXbXz.<X&X%X>XS.}.yX.Xq f L 6 0 B I H k k k +XuX|.*X,X<X#XsX",
"#X#X>X>X}. X.X6Xs s f s g p G f p p s d tX X8X&X1X>X$XdXK.I.'.].0.0.8.U.3.cXPXIXIXIXIXIXIXIXIXSX-X*X%XuXXX+XyXa d l I 5 9 P h f k a qX4XOX{.XX,X*X#X$X",
"#X>X1XOX}. X Xa eXs s u p p G F p u s w eXwX8XS.=X1X$X$XdXdXjX'.`.`.1.H.cXPXIXIXLXDXAXAXFXIXIXIXSX*X&XS.OXuXyXd d k I B 7 g t e d d tX.XyX+X|.|.1X-X$X",
"%X{.XXoXoX6X6Xd K s w u F p p F F f w 5XwX X}.&X&X%X:X$XgXfXfX'.T.H.hXP.FXIXIXFXfX_.#X#X#XAXIXIXIXaX{.[.+XyXyXL s t 7 %.U H p f d q k  XOX|.+X{.XX*X*X",
"}.}.[. XoX6XqXa d f u f f f f f d K qX6X9X+X3XoX*Xv.n.-X<XfXfX'.'.K.K.cXIXIXJX#Xz.$Xm.<X$XN.SXIXIXDX{.oXyX7XeXyXL H B z G p L z K k k k k .X+X+X+XXX{.",
"}.}.[.wX.XqXeXd d d a w u K K iXiXeXiXeX+X2XOX3X1X%Xn.k.-XgXgXfXlXfXz.AXIXIXbX_.m.m.-X*X1Xc.F.LXIXJX8X6XyX5Xd l z I I c t t p l l l l k k .X.X.X XXX}.",
"4X}. XqXqXqX X.XeXd a s 7Xs eXiXeX+X+X+XoXoX}.1X3X1Xm.k.m.M.W.jX<XlX#XDXIXIXvX-X:X*X,X1Xc.[.{.FXIXPX+XyXtX7Xs K F g 9 H J U Y Y u u d k k k f d tX}.{.",
"4X X X6X6XqX6Xw 6XqXqX7X7X7XeX.X.X+XOX+X=X8XG.G.=X1X1X;Xm.m.K.F.$X;X#XDXIXIXbX%XF.=X3X3XS.Z.Z.FXIXLX0Xk tXq # e r | 9 I Y P J Y p t G L u p k w eX}.4X",
" X X X9XqX6X X}.qXqX6X6X6XeX X+X+X+XOXOX=X8XG.G.G.=X,X>X2X*XF.N.m.F.F.bXIXPXBX|.G.S.3XuX4XN.0XPXIXJX.X.Xa K p t h h J J J | t U I I I U h h F a qXw 4X",
" X XqX XwXoX}.9X9X X XoX XoX2XoX2X=XXX3XXX%XS.F.F.G.*X3X1X1X*XF.N.v.N.0XIXIXKX2X|.oXOX+X+X4 DXIXIXDXk a o u l I U U 9 9 J | 6 U B x N P N h p d .XeXqX",
" X X9X}.oX{.[.}.}.}.2XoXoX1X1X=X=X&X=X=X1X1X&XZ.A.Z.[.XX{.S.&X=XS.}.V.N.DXIXIXJXaXyX4 O 5XDXIXIXPXpXk F t u I B B N 9 c B 6 | m 0 ..M ..0 h f d .XtX.X",
"qX X}.}.=XoX=X=X=X=X=X2X1X1X>X:Xm.v.m.v.%XXX1Xv.F.A.Z.{.}.A.N.}.yX+XyX XrXJXIXIXPXFXDXGXKXIXIXIXVXk l z H H I B N T U B V M |  .0 C :.b 0 F f d eX6X9X",
"9X}.}.[.=X*X*X%X:X*X*X1X:X:X#X$XM.n.n.c.c.%X1XXX8XS.V.V.A.A.D.B..XyXyXyXk aXJXIXIXIXIXIXIXIXPXVXi w F I g g x N 0 ..D *.&.V C ..A Z v V P h f a w 6X7X",
"oXXX{.&X%X:Xm.;XdX:X:X$XgXgXgXgXM.n.l.l.n.c.%XXX1XoX8XB.B.B.B.D.w yXk l yXl d MXHXIXIXIXLXFXaXi u . X G 6 > 5 m  .; b &.&.C 1 -.;.2 b 9 c H f w eX6X6X",
"oX1X%X&X-X-XM.W.I.W.I.dXdXsXsXsXdXW.l.l.k.k.c.*X3XOX XC.D.D.$ o % k k k k z k . < 7XrXnX6 7 H I H t 5 c m | 0 b ....C &.-.( W 3 ] S V 9 g f d a 6XqX+X",
"S.%X-XM.dXdXdXdXL.L.Y.T.hXR.T.T.sXI.b.l.k.N.k.[.OXOX+X4Xo o o o # t f u t G l g . . t t 5 5 : p U I N B V N V &.S O.( ] #.' [ 2 ~ D B x 5 u d qXwX+X9X",
"%X:X-XdXI.I.dXR.U.U.^././.U.U.U.T.hXP.b.l.k.F.G.oXOXtX XO o o o + + 5 t @ : g I 8 X 5 I I 6 > r 0 8 m =.*.&.&.;.:.) - ~ @.$.#.S 1 V 0 g t f tX6X+XoX=X",
"-X-XdXR.R.R.Y./.0.8.8.8.~.Q.Q.H.Y.T.jXdXz.n.c.v.8X0XwXeX7X# + < < < > : : > > g N x m B B 0 : | | ; ; b &.:.A &.#.[ Q { $.#.2 ) ~ 9 | p p f eXeX}.}.&X",
"-XdXI.R.R./.^.8.w.9.q.9.Q.Q.Q.Q.~.R.jXgX$X-Xv.G.Z.C.5X7Xw y + < > > > > : ; ; ; x B B *.V 0 ..D ..; ! ..:.1 1 #.#.#.} } @.3 ~ ~ 8 M G H f qXwX9X=X&XM.",
"dXL.T.U.^.w.w.7.a.4.q.s.f.Q.Q.Q.J.K.jX<X<X*X&XZ.A.D.D.D.y e : < > < > > |  ., , | V &.&.*.D b =.A ....+.S ' 3 $.$.$.` R ( A O.v | 6 H L K iX0XoX1X%X:X",
"dXR./.w.!.7.6.a.r.p.u.s.f.w.~.H.J.W.W.:X1X=XS.A.D.D.# + @ @ : > , , , , | |  ., | M &.&.&.;.:.;.A 1 [ 3 @.@.@.{ @.@.' E [ *.V ..5 g t d eXwX9X=X*X-Xx.",
"hX(./.!.6.a.s.u.d.p.p.s.w././.Y.J.K.l.G.%X2X4XC.D.o < # + < : > , , , = ! ..O.....O.-.&.;.;.;.@.[ ~ ^ _ { >.` / Q @.>.} n D V 8 P L f iXiXwX3X*X$XdXsX",
"T.^.w.6.a.s.u.i.e.r.r.6.0./.T.L.K.l.l.F.[.8XV.D.D.o < < . > > ; , , - ! ( v S S Z C ;.;.;.;.$.@.( R * R Q { E R ^ Z :.S O.m m I Y u eX6X8XoX1X<XgXdXT.",
"^.^.7.s.d.i.g.i.p.r.Q.!./.Y.J.K.n.l.k.N.A.C.5XC.D.# < < > > ; ; , , = ! ( n @.;.-.#.#.#.#.;.$.$.' E R R Q { Q ^ _ ) Z =.b : h Y F 5X6X4X2X=X%XgXdXT.U.",
"^.7.s.d.i.g.g.s.s.a.7.^.U.K.K.l.n.n.N.F.A.B.D.# % # @ : > ; ; ; - , - ^ / ] 3 @.#.@.1 { { 3 @.$.@.Q E Q Q @.@.1 ~ ! O.*.9 6 p u iXyXwXS.2X%X$XdXhXT./.",
"a.a.d.g.y.t.d.s.w.3.!.!.R.L.E.n.n.F.Z.A.B.B.% # # + : > : = ; - - - - ^ / _ ' } @.{ ' Q Q Q ' >.$.} { ' 3 @.A )  .| ..P J L t y iXyXoXG.:X$XW.R.U.^.^.",
"s.s.d.y.y.r.s.f.w.~.~.Y.P.gX@X-Xm.Z.Z.B.B.% # # @ @ : > ; = = = - - - - R R _ _ } { Q E R E R Q @.#.#.;.;.:.) ..v ..> 6 Y L s 7XrXOX=X*X:XgXI.U./.!.6.",
"s.g.y.y.i.d.6.w.0.^.U.L.dX$X-X*X[.Z.C.C.O % % X : : : , ; = ! - ^ ^ R R R R R Q Q ' Q R R R R / { @.;.;.;.:.b D D 6 | p k pXiX5X0XS.&X-Xb.I.R.J.^.q.a.",
"d.y.y.y.d.a.w.^./.U.L.I.$X:X*XS.8X4XC.% y y e X : : | , ! ! - * * * * R R R R R Q Q Q E R R / _ 1 @.;.:.:.:.*.N m h K p w eXyXwXXX*X:X$XR.R.hX^.w.a.d.",
"g.t.g.i.p.7.8./.U.L.I.@X<X*X[.S.C.5X7X7Xj t t 5 | |  . .= & / o.mXo.R R R R R R R E _ _ ^ / / _ 1 -.&.:.=.V T 6 : g p % % .XyX3X3X%XM.I.L.xX/.w.5.p.e.",
"t.g.i.s.s.w.0.U.L.E.-X$X1X=X8X4X6X5Xj K K P 9 6 |  . .- X.CXKXIXIXIXLXGXo.R / R R / _ _ ( ~ X...2 V V *.=.U 9 : @ y f 5X6X+X}.&X<X-XdXT.U.U.!.6.p.d.e.",
"g.p.a.7.7.!.U.hXdXdX<X>X1X+X0X7X5Xy j F J J m 8 |  .^ o.KXIXIXIXIXIXIXIXPXmXR R / / / ( O.O.O.Z A V N M N U p r e f iXiXyXoXF.v.<XdXR.hX^.^.!.p.d.i.t.",
"d.a.s.w.!.U.T.dXgX$X*X=XwXeXiX7Xw u p J T D m ....~ X.LXIXIXPXCXNXNXHXIXIXIXmX* / /  ...O.S S V N 9 8 6 9 F H f eXeXwXoX3X2X&XgXdXK.J.^.!.~.a.d.e.t.t.",
"s.5.7.8.^.Y.dXM.-X%X{.8X7XiXiXF p G c J M M b ) ~ ~ GXIXIXGX_ * * * * NXIXIXPXX.! ! ! | 0 D V U 9 5 : : r u k L tX5XC.}.3X>XlXgXR.R.^.!.7.a.p.i.t.t.i.",
"s.).8.^.Y.W.-X-X&X}.8X7X7XpXL H I J c M v 0 v O.~ o.IXIXHXE R / / / ^ & CXIXIXNX& ! | ~ v T N N 9 X X X @ w tXyX6XD.A.=X<X<X<XjXL.^.!.!.6.p.i.y.t.g.d.",
"w.w.8.R.dXdX:X=XoX}.6XqXL pXJ J B N b 0 ( ..( ( W VXIXIXmX& / ! / ! ! -  .PXIXHX= :  .5 8 m h h g e @ # y eXyXyXwXS.=X>X<XjXW.I.K.~.3.a.p.i.y.y.g.p.a.",
"8.^.T.I.W.;X2XoX8X7Xd K F U J J N D b ) ~ ( ~ ( W CXIXIXo.^ / / ! ! !  .- HXIXKX! : : : 5 6 6 r e e y y qXtX+XoX8X&X>X<XgXW.K.R.~.!.6.s.d.g.t.y.d.s.w.",
"^.U.I.@X-X=XoX9XO w f p G J D N D C ] ( ( / _ _ ` CXIXIXX.W ~ ! - !  .; = HXIXKX: : : X | # @ @ @ % 7XiXiX+XoXS.A.m.$XlXdXK.Y.U.~.6.s.d.i.t.t.i.d.s.w.",
"T.I.dX-X&X8XwXeXa p p 9 M M C C A 2 [ ( _ Q Q Q ` VXIXIXmXE ~ !  .=  .= X.PXIXGX. : X X r < % # # O 7XwXaXOX[.Z.c.-XgXfXT.K.^.^.5.s.d.e.y.y.i.s.s.0.^.",
"I.dX:X&X9XwXqXeXf h 9 x M C 1 1 -.2 } [ ' _ Q ' { ,.IXIXHX~ ! |  . .:   GXPXIXNX. X X @ @ # $ $ $ D.5XC.G.1X*Xm.m.gXjXjXT.(.^.a.a.d.g.y.y.p.s.s.w.8./.",
"dXM.1XoX0XeXp g t 0 9 b 1 ] ( ] [ } 3 } [ { ' { >.>.HXIXIXHXX.= =   X NXIXIXPX| . % @ % # # $ O O B.A.A.G.*X-Xm.b.dXhX`.hX/.0.s.p.g.g.y.i.s.s.q.w.Y.L.",
"M.&XoX X7Xs p 7 m v v n [ ] ( ( ] } S -.} 3 2 S S A V LXIXIXLXGXNXCXJXIXIXIXMX. % % y y 5XD.B.B.B.A.S.v.&X-Xn.l.K.hX`.`.0.w.a.s.g.y.y.g.a.s.q.0./.L.M.",
"&X=X.XqXf p c b v v [ } [ O.) ) ..Z S -.-.-.A Z Z D b T KXIXIXIXIXIXIXIXIXMX. o % % y 7X5XD.B.A.Z.&X=X*X$XkXK.E.R.1.0.w.f.6.d.i.g.y.g.a.a.f.3.8.R.dX;X",
"}.+XeXs p m N v ) ] 3 S O.) 0 v b C V 3 A A D 0 ..6 m 8 | CXKXIXIXIXPXGXrXo $ $ % C.6XwX9X8XS.Z.v.&X$X<XgXdXW.R.L./.8.w.a.d.u.g.t.y.s.s.7.w.^.R.dX:X*X",
"}.s f h 9 m C 1 1 3 @.Z b v b D N C C N N N M 8 | | 6 6 r . @ nXnXrXrX@ @ O O O C.8XoXXX3X=Xv.v.c.n.M.$XjXjXR.J.~.w.w.a.p.i.g.t.y.d.s.7.w.0.R.I.dX2XoX",
"qXu p m v v [ 2 } Z b b 0 0 x c x 9 x N N U J 6 X 5 5 5 r r @ . . O q wX5XC.C.4XV.}.XX1X1X*Xv.k.k.l.L.dXjXhXJ.~.8.q.f.s.d.g.t.t.r.p.7.w.!.U.I.kX*X8X9X",
"f p h v ..[ { 2 Z b b M 0 g g m 0 9 c c p J J h e @ e w e # % % O % 7XwX X9X[.S.S.G.[.>X,X-Xn.l.l.l.L.hXhXhX^.!.7.s.u.d.i.t.g.d.r.a.w.^.Y.dX@X;X2X0X7X",
"G M D +.[ [ [ 1 v M m g g t t t g G J p e t p K u w s d j y $ O B.O 4X+XOXoX}.Z.F.F.c.-X:X@XW.K.E.L.R.1.0.^.w.7.p.d.i.g.g.g.g.d.a.w.0.T.Y.dX%X&X9Xq w ",
"G M Z @.} 2 2 x m m p 7 u p u t u u s u % e s tXk d iXk qXC.O C.B.V.9XoX3X1X&Xj.F.F.c.n.dXfXdXW.L.R.0.^.~.3.q.5.r.d.g.g.g.d.d.s.q.3./.I.I.-X=XoXqXs F ",
"0 ) } } } Z D c x F K k K d f s s y q qXw 5XeXtXtXtXyXiXrXC.B.8X4XV.0X8X2X2X;XF.F.F.K.E.I.jXjXhX`.0.^.Q.Q.5.a.d.d.g.y.y.d.d.p.7.0.^.Y.gX$X&X8X0Xa f c ",
"..' } } O.b 0 G F k a a yXd eXtX6X5XqX XqX.X.X9XwX.X X XoXS.4X}.=XG.F.F.m.$X:Xv.E.l.K.E.R.jXhX0.0.0.3.7.a.p.u.i.g.y.e.d.d.a.5.7./.T.L.-X*X}.6Xd K 8 8 ",
"' } } } C N p p f 6XB.O  X X6X X+X+X+X[.C.}.XXV.Z.[.S.S.oX=X*X1X*XG.N.c.n.-XgXdXW.E.K.K.hXhX/.9.w.w.s.a.p.p.i.y.t.g.d.u.s.q.3./.hXW.m.*X=X Xs K H 8 ( ",
">.} +.S c p f a .X4XV.[.|.oXS.S.XX|.3X}.j.XX3X[.Z.&XS.Z.&X*X*X>X<X&Xl.l.n.I.jXgXR.L.U././.0.9.9.q.q.s.s.p.e.y.y.g.d.d.s.f.3.0.T.jXm.v.=X9XiXK p 0 ) ) ",
"} 3 C B H d q 4X+X8XOXXXXXXX{.%X*X%X>X>X>X>X,X,X*X>X-Xv.m.m.c.-X<X$Xb.K.E.dXhXhXhX/./.0.8.w.w.f.a.p.p.p.r.y.y.y.e.p.s.5.~.!.U.K.M.m.&XOX5Xs F M C 1 { ",
"[ C B J d k [.}.=X[.m.:X*X-X<X$Xm.m.-XM.$X>X-X$X<X<X>X$X$Xn.k.M.gXgXdXdXT.hX`.xXhX0.0.8.w.7.7.s.s.d.d.d.y.t.t.i.d.6.6.Q.!.U.K.W.;X=XoXtXf p x v 3 3 { ",
"b M F k .X.X X%X*Xm.m.M.-X#X#X$X#X#Xz.b.#X@Xl.@X<XlX<XgX$X@Xb.z.x.sXjXhXT.hX`.0.9.9.8.7.!.Q.p.d.d.d.d.e.y.y.i.d.s.f.w.~.J.T.dX*X=X8X6XiXF h v n 2 { 2 ",
"V I f k  X}.*X%X#Xz.#X#X#X'.sXL.P.'.P.x.sXgX@X$X<X<X$XgXfXgXdXI.K.Y.hXU.J.^./.0.0.f.7.7.a.r.r.d.i.i.g.t.g.i.d.p.s.w.!.H.L.gXzX2X8X+X7Xt P b O.[ ' 2 1 ",
"m k d +XOX1X-Xx.@X#XfXP.sXP.P.Y.U.hXdXW.M.gXgX<XlX$Xn.b.dXfXjXdXK.K./.^.~.~.^.w.w.w.f.a.a.p.r.e.g.g.y.y.i.d.a.s.w.~.H.J.I.<X2X2XOXw y p T Z Z } { 1 0 ",
"p d yXuX,X<X#XfX'.'.1.`.1.U.<.1.L.L.E.dX@X@Xm.$X-X-XM.b.E.dXjXjXT.U././.~.~.^.w.a.7.a.s.p.e.y.y.t.y.e.d.d.p.a.!./.^.T.I.n.*X=X+XeXs I m S [ { @.( v M ",
"k tX|.|.#Xx.R.'.`.1.1.`.9.<.1.P.I.dXM.-X$X#X-X@Xn.W.E.I.L.hXjXhXhX0.8.^.^.!.a.s.a.d.p.d.r.t.t.t.y.g.d.d.s.a.Q.^.hXjXfXM.n.*X8X+Xy K 9 v :.@.{ 3 1 c G "
};
