/* XPM */
static char *result[] = {
/* columns rows colors chars-per-pixel */
"75 75 255 2 ",
"   c #DA7B3E",
".  c #B97868",
"X  c #BE7C6E",
"o  c #AF6F76",
"O  c #A97679",
"+  c #BB7B73",
"@  c #B87678",
"#  c #B47A7B",
"$  c #CF764C",
"%  c #D67C48",
"&  c #CA7B5B",
"*  c #D37E59",
"=  c #C57C66",
"-  c #CA7C63",
";  c #CF7A65",
":  c #C7766A",
">  c #C37B6B",
",  c #C17872",
"<  c #BE9158",
"1  c #BCA85C",
"2  c #AFB75C",
"3  c #BAB55C",
"4  c #BBBB5C",
"5  c #99947A",
"6  c #AB8F6B",
"7  c #BB896B",
"8  c #B99869",
"9  c #AB867A",
"0  c #AB8D7C",
"q  c #B68477",
"w  c #B38B74",
"e  c #A39575",
"r  c #AD9576",
"t  c #AC9C75",
"y  c #A5947E",
"u  c #AB947B",
"i  c #A49B7D",
"p  c #A99B7A",
"a  c #B39575",
"s  c #B19B72",
"d  c #9AAC72",
"f  c #9CA97C",
"g  c #9CB67B",
"h  c #A9A76C",
"j  c #AEAB6E",
"k  c #BBA364",
"l  c #BBAB63",
"z  c #B8AA67",
"x  c #B4A36C",
"c  c #B3AB6B",
"v  c #ACB46D",
"b  c #A8B86B",
"n  c #ADBB6B",
"m  c #B4B465",
"M  c #BBB363",
"N  c #B5B867",
"B  c #B3BC64",
"V  c #A7A776",
"C  c #ABA374",
"Z  c #ABAB73",
"A  c #A4A37B",
"S  c #A3AC7B",
"D  c #B5A774",
"F  c #A4B474",
"G  c #A7B575",
"H  c #BAB778",
"J  c #D8854A",
"K  c #CE914B",
"L  c #D2964D",
"P  c #CD825C",
"I  c #CB8B5A",
"U  c #D48455",
"Y  c #D58757",
"T  c #C8985A",
"R  c #D49553",
"E  c #C5A648",
"W  c #C5A859",
"Q  c #C4B355",
"!  c #C4B55A",
"~  c #C68666",
"^  c #D28E6D",
"/  c #C49663",
"(  c #E2986B",
")  c #C1A764",
"_  c #CDAF6E",
"`  c #E5A77E",
"'  c #B9C45A",
"]  c #B2CC5A",
"[  c #B4CB5C",
"{  c #9DC075",
"}  c #ACC568",
"|  c #B4C765",
" . c #ACC572",
".. c #C4C266",
"X. c #755DB8",
"o. c #7C69AC",
"O. c #7A77A9",
"+. c #7E7CAC",
"@. c #6E6ABC",
"#. c #7467B7",
"$. c #7D6DB6",
"%. c #7B65BD",
"&. c #756DBD",
"*. c #7B6DBB",
"=. c #7D75B4",
"-. c #7578B6",
";. c #7D7AB3",
":. c #7572BC",
">. c #7B72BB",
",. c #5E52D1",
"<. c #6558CA",
"1. c #6D5ECE",
"2. c #745EC7",
"3. c #6054D1",
"4. c #665AD4",
"5. c #6A5DD2",
"6. c #6D66C3",
"7. c #6D63CD",
"8. c #7464C5",
"9. c #746BC3",
"0. c #7868C4",
"q. c #7164C9",
"w. c #7B74CA",
"e. c #6D61D1",
"r. c #776BD4",
"t. c #9A7889",
"y. c #926C92",
"u. c #986B98",
"i. c #8B7A9B",
"p. c #9C7494",
"a. c #977798",
"s. c #937B9C",
"d. c #A96C87",
"f. c #A97786",
"g. c #A37D8B",
"h. c #B37A82",
"j. c #A37793",
"k. c #805FB0",
"l. c #8A69A7",
"z. c #856DAD",
"x. c #8B6DAB",
"c. c #936DA4",
"v. c #8C75A5",
"b. c #847CA5",
"n. c #8979A7",
"m. c #8C7CA4",
"M. c #8575AC",
"N. c #8A74AA",
"B. c #847CAB",
"V. c #9373A2",
"C. c #947AA3",
"Z. c #8466B5",
"A. c #826CB3",
"S. c #8274B2",
"D. c #817AB1",
"F. c #8776BA",
"G. c #8476C4",
"H. c #917BC7",
"J. c #7F889C",
"K. c #7C84AA",
"L. c #7384B2",
"P. c #8C8B8D",
"I. c #98878A",
"U. c #9C8C8C",
"Y. c #8B978B",
"T. c #9D9486",
"R. c #949883",
"E. c #9D9C85",
"W. c #95948D",
"Q. c #9B938B",
"!. c #949B8C",
"~. c #9B9A8A",
"^. c #8D849D",
"/. c #888898",
"(. c #8C8B9C",
"). c #948595",
"_. c #9A8493",
"`. c #948C94",
"'. c #9A8B92",
"]. c #92839A",
"[. c #9A8499",
"{. c #928B99",
"}. c #8D9395",
"|. c #8B9896",
" X c #8C939C",
".X c #939392",
"XX c #959795",
"oX c #A48585",
"OX c #A58787",
"+X c #A48D84",
"@X c #A39383",
"#X c #A49486",
"$X c #A29B83",
"%X c #A78897",
"&X c #B49090",
"*X c #9CA383",
"=X c #97A887",
"-X c #8EA691",
";X c #A4A784",
":X c #AEAE91",
">X c #8484A4",
",X c #8B83A3",
"<X c #848BA4",
"1X c #8A8BA2",
"2X c #8483AB",
"3X c #8786AB",
"4X c #9788A6",
"5X c #8A92A4",
"6X c #9594A6",
"7X c #8785B6",
"8X c #9693B7",
"9X c #AB95AC",
"0X c #93A3A1",
"qX c #B1AEAE",
"wX c #AAA6B6",
"eX c #CA948F",
"rX c #D0AE90",
"tX c #E9B692",
"yX c #C099A8",
"uX c #CDB4B2",
"iX c #BAC696",
"pX c #BFCDB0",
"aX c #D0D08D",
"sX c #D0C9B3",
"dX c #E9CAAE",
"fX c #E0E9BF",
"gX c #938BC9",
"hX c #9A92DA",
"jX c #A898CD",
"kX c #B2ACCF",
"lX c #B6B1E4",
"zX c #CCB9CA",
"xX c #C8C7C7",
"cX c #D9C9CB",
"vX c #D5D1CE",
"bX c #C9C6D6",
"nX c #DAD8D9",
"mX c #E8D2C6",
"MX c #F3DBCB",
"NX c #E7DAD9",
"BX c #DAE1C9",
"VX c #EAEAD3",
"CX c #E8E8D6",
"ZX c #F4E6DB",
"AX c #CAC5E7",
"SX c #D6D3ED",
"DX c #D8D6E8",
"FX c #E4DCE7",
"GX c #EAE7E7",
"HX c #F5ECE7",
"JX c #F7F2EC",
"KX c #E9E7F4",
"LX c #F1EDF0",
"PX c #F7F5F6",
"IX c #FEFEFE",
/* pixels */
"&X0X%XXX6X3X7X7X7XF.D.gXL.7X5X5X4X6X6X6X6X{.4X6X4X4X4XC.4X7X8X7XF.7X7XG.G.G.G.G.w.r.G.r.r.r.r.r.r.w.w.G.G.gX7X7X8X6X6X6XXX0X:X:X:XH D .._ ..! H H G ;X",
"oX.X/.,Xb.O.+.O.$.*.:.-.=.K.K.K.1X/.a.(.{.a.u.).(.s.v.C.b.M.+.=.Z.A.:.*.%.8.2.2.1.5.4.4.4.4.4.7.7.6.9.9.*.A.o.2XB.a.a..XXX~.y d F n N | [ [ 2 b Z A ;X",
"XX).^.n.+.Z.Z.:.#.9.L.-.+.b.^. X/.{.)./.).).{. X^.s.m.v.n.x.S.;.S.$.9.9.9.9.2.1.e.5.4.4.4.1.e.q.9.9.w.-.Z.Z.c.3Xm.u.)._.h.oX0 F G n | ] ' | n 7 S y h.",
")./.c.z.=.Z.#.&.@.L.L.;.>X<Xs./.).}.}.`.).).(.(.s.s.m.v.M.D.S.$.>.:.9.9.q.7.7.1.e.4.4.e.1.e.8.q.9.9.:.-.S.x.m.1X(.{..Xg.OX@XA F n } [ ] ! M } t i ~.Q.",
"].m.l.O.-.%.@.6.@.L.L.B.<X(.a.}.)..X.X`._._.a.].(.i.v.v.B.B.=.A.*.9.9.8.q.7.1.5.5.5.e.e.7.7.9.9.-.;.-.D.M.B.1X5X X}.g.h.;XG S ~ v 4 3 [ < 8 { g *XU.|.",
"^.n.z.-.$.2.6.@.-.+.b.<X/./.).)._.!.-X.XW.).`.).(.C.v.v.z.D.S.>.&.0.8.8.7.7.5.5.5.e.q.q.8.8.9.*.F.F.+.M.x.C.1X X}..Xg.oX*XS 7 8 } W 1 | c C e f =XW.].",
"b.z.Z.$.#.8.6.&.-.K.>X/.(.`.W.I.W.W.!.U.W.).).).].a.v.N.M.B.S.$.&.0.9.9.q.e.4.3.<.<.6.q.8.X.#.#.o.k.z.l.c.a.^. X}.'.f.9 ;XD / G | [ m } { t f =X.X/./.",
"b.z.X.$.9.6.&.=.+.b.^.|.Y..XI.U.Q.Q.~.Q.Q.W.%X).{.,XC.n.B.D.>.>.*.9.9.7.7.<.7.hXlXAXSXSXKXFXDXAXkXjXn.M.l.s.(.}.XXU.f.q ;XG n c 1 m ~ v F f =X=X-X|./.",
"+.O.-.:.9.@.-.K.>X^.).`.W.U.T.T.#X#X#X=XQ.I.'.'.{.].v.n.M.M.A.&.0.8.<.9.hXAXPXIXIXIXIXIXIXIXIXIXIXIXLXbX8XJ.P._.Q.Q.9 p S G n ~ T z j C r ;X~.-X|.(.b.",
"M.;.@.@.@.-.L.2X^./.).W.R.T.T.$X@X+X$X#X#XU.'._.].s.m.n.M.D.>.>.@.6.hXKXIXIXIXIXIXIXLXKXKXKXPXIXIXIXIXIXIXnX9Xt.Q.*X*Xf G  .n l z v G r $X#X=XJ.|./.b.",
"+.-.-.:.-.L.b././..XU.T.+X@Xy i i $Xi E.~.Q.Q.U.'.].s.v.N.D.>.#.gXSXIXIXIXIXKXlXhXgXG.Z.Z.A.7X8XjXbXKXIXIXIXIXxXR.*Xi w C j z B n b S A *X~.W.-X/.>Xb.",
"+.L.-.:.A.>X^./.!.W.T.+Xu i i A A i u @X@X+XQ.`.{.].C.v.n.;.#.kXIXIXIXIXAXgX0.@.#.#.$.$.z.z.M.+.l.y.,XwXGXIXIXIXnX*X0 w C 8 P c { g F i #X=X}.|./.v.n.",
"K.L.-.=.n.i.s.I.+X@X@X@Xu p p V A t i i $XOXT.W.`.].s.m.n.o.bXIXIXIXSXgX6.@.>.>.$.=.;.S.M.M.B.n.m.,X,Xi.t.uXPXIXIXBXi Z x ~ 7 c { g g $XT.I.).|./.^.K.",
"+.+.=.b.,X].`.U.OX+XA $XA p r A V p p i i @X~.Q.'.).].C.O.AXIXIXIXlX@.#.*.:.-.$.=.;.B.M.l.N.>Xm.i. X).a.a.I.qXPXIXIXBXF 8 8 h b g g =X=X!.!..X).(.K.K.",
"2XK.n.i.].t.Q.T.@X$X;XC A V t r p p u y *XE.~.W..X).s.l.bXIXIXPXjXX.$.-.-.-.;.A.A.B.M.B.N.n.K.>X,X{.}.`.I.XX-X:XPXIXIX:Xh n b g g g =X=X!.=X}.(./.>X<X",
"K.>X(./.t._.Q.@Xy y p p r t C r r C A A i E.T.W.XX{.a.wXIXIXPX8XX.$.-.=.S.;.S.D.B.B.B.O.v.i.^.,X X).).}.g.W.=X5 uXIXIXZX8 G G F f f i =X!.W.P.|. X X/.",
"^. X}.}.I.Q.E.+Xu u p u a t C t t r u ;X;X+XoXI.XX/.6XPXIXIXkXO.;.=.;.M.z.z.N.+.O.n.4X8X9XC.i./.[.{.'.!.W.W.=X@Xe CXIXIXrXh a t f y @XoXR.I.W.|././.(.",
"(.P..X!.Q.T.T.y $Xu a u t t A V C u w 0 T.T.OXg.'.P.CXIXIXbXK.<XK.K.K.x.N.N.l.N.kXFXPXIXIXPXnXwX).`.t.I.!.=X=X;Xi :XIXIXBX6 w q i i *XE.=X!.XXY..X).].",
").P.W.Q.T.+Xy @XA u w t A t u t p p 0 OX@X~.`.%Xt.wXIXIXGX<X<XK.B.x.>X2Xm.K.wXKXIXIXIXIXIXIXIXIXxXY.'.OXR.=X=X;Xu u JXIXHXS r p i 9 =Xi =X=XW.W.W.`.}.",
"U.U.oXQ.T.@X@Xy i i u p p C C p A A @X+X+X~.W..X).nXIXIXwXK.5XK.<Xx.l.<Xi.wXIXIXIXPXFXvXbXFXIXIXIXxXI.XX=XoX$Xg S h CXIXPXD f g i f g E.E.E.W.E.~.W.I.",
"U.U._.#X#X#XE.E.i i u 0 u i A A $X;X*X~.~.~.XXY.0XIXIXFX].5X1X1X<X<Xa.b.6XPXIXIXnX%Xi.P.P.p.yXPXIXIXQ.I.=X9 y g G d fXIXIX&Xh F g f g f =X$X@XE.E.Q.W.",
"oXU.@X#X@X@XT.i $Xy y y u u i ;X*X#X~.~.Q.'.U..XxXIXIXuXy.C.s.4X X5X X/.vXIXIXnXi.P.}.XXj.t.P.xXIXIXxX5 ;XoXu A S 7 sXIXPXiXF F t w A f S f i $X*XU.I.",
"oXT.T.+X+X@X+X+X@Xy +Xy +X+X$XE.E.~.~.~.Q.oXg.t.NXIXPX9Xa.a.u.V./.]./.0XPXIXPX).j.{.XXXXj.g.I.%XPXIXGXf *X9 @ q q > NXIXPXH Z F t w C F r t A e @XU.oX",
"T.T.T.+X@X@XU.+X+X@X+X+X+X#XQ.~.~.~.!.W..X%Xj.j.LXIXGX}..X.Xu.d.p.j.y.qXIXIXxXY.g.f.-X-XoXf.g.f.NXIXIXsXe i t a 6 rXIXIXGX7 w F F F F G s t V e @X+X9 ",
"T.T.@XT.#XQ.U.U.+XQ.T.#XQ.Q.Q.Q.Q.Q..XXXW.).t.&XIXIXnXP.XX.X{.j.j.g.d.zXPXIXyXI.-XQ.~.Q.#X+XE.O eXIXIXPXyX0 d b iXVXIXIXsX. ~ b v C b D n s p i E.@X@X",
"T.T.+XU.Q.U.I.OX'.U.W.Q.Q..XXX`.'.[.).).XXW.t.9XIXIXxXP.Q.g.'.'.t.OXt.cXIXIX&Xd.E.=XE.f.g.=X=X$XO cXIXIXIXCXBXCXPXIXIXGXv 8 ~ x 8 / c / 8 a p i E.*XE.",
"#XU.U.U.U.`.'.'.'.'.'.XXXX.X}.).).p.p.a.).XXI.9XIXIXzXI.%Xg.d.OX!.~.R.vXIXIX&Xf.+X=X=X#X@ 0 *Xf f d BXIXIXIXIXIXIXPXCX .b c ~ ~ 8 B N z 8 C p i i +X#X",
"+XU.U.I.'..X).'.{.{..X{.{.(.(.(.[.a.p.p.p._.P.qXIXIXzXO j.h.d.d.*X=X=XBXIXIX:X5 $Xf y @X$XA u u p 0 A iXZXJXPXPXZXdXv } } } m T B M z } D s p y y @XOX",
"Q..XU._.).{.s.s.{.].{.1X(.1X1X^.s.a.u.u.j.p.).0XPXIXnXO d.d.d., 0 =Xd pXIXIXsXO w p @ @ p g S A r @ X h 7 ~ eXD ~ & k } } 3 3 | | m z 8 j V u y @X+X+X",
"Q..X`.a.].].].C.m.m.m.,X,X>X<X>X,Xv.c.u.u.u.p.'.LXIXHXg.d.@ d., # f f :XIXIXJXeXo # w , + t V F V 7 7 Z 8 7 8 1 ~ / m } } T I 3 W m B s a t i y +X@X#X",
"g.).).].(.,X,X,Xv.v.N.B.2XB.B.2X>Xm.V.u.u.u.j.t.nXIXIX&Xo @ o d.@ w C w sXIXIXLXeX, 6 6 . . X s F F v b n n } } B l T W ' W Q ! T m } C 7 r i @X~.~.Q.",
").{.].m.n.m.m.n.M.S.M.D.D.z.z.M.B.2Xm.s.u.j.j.p.uXIXIXvXO @ , @ @ + w 7 , NXIXIXIXZXNXBXfXrX; . 8 8 x  . .} } | | T * R ' [ [ B k b 8 8 w u *X+X#XQ.'.",
"].].,XB.m.B.N.D.;.;.;.-.Z.Z.Z.l.A.B.3X,Xs.s.p.j.%XGXIXIX&Xo o , : : : X . : mXIXIXIXIXIXIXIXHXrX= : - z } N B [ | W R Q ] ] ! W I 8 ~ s t $X$X$X#X'._.",
"].,Xm.n.M.F.S.;.>.:.:.-.Z.Z.Z.Z.x.N.<X1X(.].t.t.d.cXIXIXHX@ : , : : : : = : & eXmXJXPXPXIXIXIXIXdX& P / | W 1 | ] [ ! ! ..' Y I 8 c C d t $X#XOX'.).a.",
",Xm.M.M.D.>.>.$.%.&.9.w.0.Z.Z.k.x.N.1X X(.).%XzXLXIXIXIXIXNX@ , : : : ; ~ - ; ; I v  . .iXBXIXIXIXrXT ) | W 4 ] ] ] E J T N ) ) ~ 7 Z S ;X;XOX'.{.).{.",
",Xn.M.D.*.*.&.0.2.8.9.9.9.*.Z.x.x.V.C.^.XXxXIXIXIXIXIXPXZXmX^ : : ; ; ; ~ / P ; / m } } ] ] aXIXIXHXW M ' ' ' ! ' ] W J W } n / 7 a w i @X#X#X'.).(.s.",
"B.B.S.A.*.9.9.6.2.q.8.9.;.D.D.n.c.c.u.9XGXIXIXIXPXcXeX, . . : ; - ; ; P P ) ) / / ) } | | | ] VXIXIX( K ! ' L J R 4 | ! l N b 7 C S p *X;X#XXX.X{.(.,X",
"B.F.S.9.9.q.q.7.7.2.2.*.>.D.B.N.c.u.9XPXIXIXPXuXh.o , , . : : : ; ; * P I ) N ! ! B | | ] ] ] aXIXIXtX  R Q R J U ! | M k k Z G S r i +XOXW.XX(.1X<XB.",
"S.S.9.9.6.7.7.7.q.2.%.A.D.N.x.c.u.9XIXIXIXFX&Xo @ @ , , : : : ; P * & P T 1 | | | [ [ ] [ | ] aXIXIXtX  L Q L Y R T M  .x = s G A 9 y g.XX).[.(.,XB.M.",
"F.>.9.q.7.e.e.9.0.%.$.S.M.c.c.u.C.PXIXIXcXO f.h.@ @ , : : : & ; ; * * * Y W 4 ' [ ' ! ! ....' ..IXIXtXJ W 4 ' W Y ~ ) } x 7 s u ;X;X#Xg..X]./.,XB.B.;.",
"&.0.8.7.5.1.7.9.>.*.Z.z.n.v.y.a.LXIXIXcXo h.# @ @ . , > = - & * P * * * U R W ! ' ! E R R R E fXIXIX_ 1 ..| B T I ~ / D G Z w q ;X=XQ.g.{.(.m.n.M.S.=.",
"0.9.7.5.4.1.9.>.>.A.Z.N.,X1Xi.bXIXIXFXd.f.h.@ @ + X = : - - * $ $ % % * % J K T Q Q L J J J J JXIXIX| [ [ | T / k / ; 7 S d e oX#X~.'.).(.,X,Xv.D.$.*.",
"8.q.5.5.1.q.0.>.=.S.N.v.,X^.6XIXIXPXj.@ # # # + , > : ; & & ; rXdXMXZXZXMX` J   L W L J J % dXIXIXfX] | | | z v v 7 7 t :XiXqX&XoXt.).].s.m.3Xx.S.>.0.",
"1.5.5.5.q.0.>.;.;.M.v.m.1XP.nXIXIXuXO oX9 q q X > = ~ & ~ dXJXIXIXIXIXIXIXIXMXtX( L L R ( MXIXIXPX| | |  .| } v x 6 :XVXPXIXIXPXNX9X/.1Xv.n.M.F.*.0.8.",
"5.5.5.q.8.&.S.D.N.N.m.(.|.9XPXIXHXOX+X0 w a w 7 ~ ~ & rXJXIXIXIXIXPXJXHXIXIXIXIXJXZXZXHXIXIXIXIXaX2 } | } n Z 7 . uXPXIXIXIXIXIXIXPXwXi.N.B.D.>.&.8.7.",
"5.e.q.9.&.>.;.M.v.v.^.{.P.xXIXIXuXO a $XC C s 7 ~ P rXIXIXIXJXdX` ( J Y tXMXIXIXIXIXIXIXIXIXJX_ 1 } } }  .b D : eXIXIXIXGXsXzXGXIXIXKX>XB.F.A.*.8.2.5.",
"5.8.0.9.*.A.D.B.,X,X(.{..XGXIXPX&Xq 0 Z G Z D / I eXIXIXIXdXR J   J Y J   % ( dXMXHXJXHXMXaX) l N v j j v G s X MXIXIXvXR.P.t.t.DXIXIXjXo.F.A.8.q.1.4.",
"q.0.&.&.A.N.2X,X(.(..XP.:XIXIXmX9 r s Z H j x / ~ ZXIXIXdX% J U Y J Y J * U U % U Y Y / 1 2 H n v D 7 / s S h :XPXIXZXT.-X`.]./.wXIXIXzXo.S.0.q.1.5.4.",
"8.0.*.=.D.n.m.s.].)._.g.uXIXIXsXe Z j c v c z < rXIXIXMXJ K U U Y U U * * Y Y Y Y & P I k H n b x 7 > X + r d vXPXIXuXt.XX}. X<XjXIXIXkX#.0.8.7.4.5.7.",
"9.F.=.=.n.C.].].[.U.I.9 vXIXIX:Xd Z j x k / k < MXIXIX` J Y U U U U U Y P Y ; P & P 7 ~ k j v j s > X X + y ;XPXIXPX%X`.XX X5Xi.zXIXIXjX#.0.7.5.4.e.q.",
">.=.D.B.m.,X{.'.Q.+X@Xy CXIXJXG b v c k / I T T JXIXZXR U U U Y Y P & Y & P P - ~ - = ~ 8 s s s w q + @ q 5 xXIXIXvXI.|.(.(.b.n.KXIXPXG.8.7.5.4.e.q.9.",
">.M.M.n.,X[.'.'.OXoX$XA LXIXCXc v m z / T I K _ IXIXdXJ Y Y Y Y U & P * ~ & - - - = > ~ 7 7 7 q w q q q e :XIXIXPX%X(. X1Xv.l.wXIXIXAX@.7.e.5.5.7.9.>.",
"D.n.m.,X].'.Q.#Xf.0 p D PXIXVXm m m W T R R K _ IXIXdXK K P Y P P & & ~ - - ~ = = = X X ~ + + + + # 0 $X;XGXIXIXzXt.(.5X,Xc.l.DXIXIXhX<.e.4.5.7.9.9.$.",
"M.n.].]._.OX#X$Xu u t D PXIXBX2 N 3 W T T L L ` IXIXdXK K P ~ Y P ~ - - = > = > X X . X , @ # # o # OX+XnXIXIXGXp.].1X<XB.l.8XPXIXKX8.7.e.e.7.9.9.>.=.",
"m.,X{.).OX#X#Xi t s s D PXIXVX1 | 3 ! ! E R K _ IXIXdXT I I ~ P ~ = = = > ~ > X X + + + , @ o h.# h.f.cXIXIXPX%Xy.(.<X3XB.M.AXIXIXhX4.e.5.q.9.9.>.=.B.",
",X]..XU.OX#XA a w 8 k z JXIXVXK ! ! M ! W W Q _ PXIXVX3 8 I I ~ = ~ = > > , > + + + # + @ @ h.h.o OXNXIXIXIXwXy.C.>X2X2X+.gXIXIXKX7.4.e.q.8.9.:.=.N.N.",
"].a.Q.T.y u p x x k 1 1 ZXIXHXT T M M 4 4 4 4 4 ZXIXIXH 8 ~ ~ ~ ~ = X > ~ , , q @ + q q h.h.d.o 9XLXIXIXIXqXu.u.c.>X2X;.-.KXIXIXhX3.5.e.0.9.9.;.D.C.C.",
"_.Q.~.y u t Z x k k W 3 VXIXIX_ 1 m | | | B B 1 sXIXIXVX< 7 ^ > > + X X + @ @ @ # oXOX&Xf.O &XcXIXIXIXLXwXi.V.c.n.B.L.-.AXIXIXSX4.5.e.8.0.9.S.M.B.,Xs.",
"+XQ.$Xu s x c k T W 4 3 dXIXIXsX1 m B B B B m 8 T HXIXIXmX7 : . + 7 + q # @ # h.h.O 9 T.:XcXPXIXIXIXnX6X/.b.C.N.N.F.:.jXIXIXKXr.4.5.q.9.>.-.S.B.m.{.'.",
"#X@Xt s s x m 3 3 4 N M _ PXIXVXc v m m v v c 8 < eXIXIXIXGXrXq . o O O # O o O OX&XxXGXIXIXIXIXJXwXi.^.<X>XC.x.x.#.gXPXIXIXhX,.e.8.9.>.>.;.n.v.].XXQ.",
"#X0 t x 8 W 1 4 ! M l z 8 CXPXIXrXh c b v F Z 7 7 . rXPXIXIXIXHXmXcXuXuXuXcXcXNXLXIXIXIXIXIXGXzXj.u.c.m.3X2Xx.x.X.gXPXIXIXlX,.4.2.0.%.>.A.M.v.(.{.'.@X",
"p t x k ) W W 3 N ) c x 6 rXIXIXHXx h j t Z Z s X q 7 &XNXIXIXIXIXIXIXIXIXIXIXIXIXIXIXPXCXkXa.u.u.c.c.3X2X2XS.#.gXPXIXIXAX,.e.e.8.0.>.S.x.,X,X).%X+XoX",
"t v N l W Q W k k c c s w 6 CXIXIXsXe r w w t A u w u e w yXcXHXPXIXIXIXIXIXIXPXFXcXuX4X/.i.V.V.V.C.D.2X;.=.@.jXIXIXIXAX4.e.e.q.0.&.;.B.n.,X{.%XOXoX0 ",
"c c ) | ! 3 3 z c C C w t t &XPXIXIXsX6 q q u S =X*XA *X@XO o f.eX9XuXqXqXqX9Xj.p.u.y.a.,X<X,XC.N.M.D.S.o.:.AXIXIXIXAX4.7.7.7.9.:.$.D.m.m.].'.#X#Xr C ",
"8 T W ! ! M N j C V A A f i e uXIXIXIXuX9 0 #X*X*X=X*X*X%Xh.f.OXg.f.g.t.P.`.).p.p.u.V.V.m.<X3X3XD.K.o.#.gXKXIXIXIXlX3.e.q.q.0.&.=.S.n.1X{.).OX+Xu t Z ",
") W ! ! ) z 8 C A f 0 e =XE.$X5 sXIXIXIXvX*XR.+X#X~.#XQ.~.g.oXU.'.oXg.j.).{.4Xj.u.a.u.c.>X2X3XD.;.@.H.AXIXIXIXLXhX3.5.q.q.8.%.*.B.B.v.].{.U.OX$XA 8 8 ",
"W Q ! ! v b t r y y h.f.T.T.+XQ.W.pXIXIXIXLXqXt.d.I.g.g.U.W.{.XX.Xj.j.u.p.,X1X,XV.V.c.N.B.+.O.-.gXbXPXIXIXIXSXr.3.e.q.q.9.9.S.D.3XC.s.).U.Q.u A Z 8 T ",
"..Q _ B j C p y E.oXf.I.~.Q.oXg.!.Y.qXLXIXIXIXNXqXg.t.d.t.{.).XX{.[.u.a.a.C.1X1X,Xv.x.S.-.7XjXSXIXIXIXIXKXhX3.3.e.q.q.9.:.$.;.B.,Xs.p..XoX;XA s 8 8 W ",
"! 3 m G V i 9 oX~.%XW.W.W.XXI.).).).P.XXnXIXIXIXIXLXcX9X6Xp.u.i.J./.y.y.y./.O.O.B.7XgXkXDXPXIXIXIXIXKXlXq.3.5.5.7.8.9.0.A.Z.M.V.s.[._.Q.oXu V c m T Q ",
"W m  .Z p f oXU.Q.U.t.(.`./. X(.s.a.).i.J.wXDXIXIXIXIXIXPXGXcXzXxXkXwXkXkXkXbXDXFXPXIXIXIXIXIXIXFXhX2.2.e.5.5.e.8.9.*.Z.A.M.c.C.[.).W.*Xp s D k ' 4 Q ",
"l j V d T.E.Q.`.{.a.a.i.]././.(.^./.i.s.(.i.y.9XbXPXIXIXIXIXIXIXIXIXIXIXIXIXIXIXIXIXIXIXIXFXlXgX7.<.q.e.5.5.e.q.9.9.>.Z.z.m.].{._.U.+X;XC s k l Q Q 3 ",
"n F u f T.Q.).).(.i./.>X/./.>Xv.i.K.3Xm.<X1X^././.5XwXxXFXLXPXIXIXIXIXIXIXIXIXIXKXDXAXjXH.8.2.<.7.e.5.5.5.7.q.0.&.*.S.z.N.1X6X'.I.#X+Xw D z l W W 3 1 ",
"C d $X~.!.}.).^.^.>X>X>X>Xn.b.z.M.2X<XC.s.1X(. X X Xa.y.b.1X6X8X9XjXkXkXjXjXgX7XF.&.@.%.2.8.q.e.e.5.e.5.7.q.8.&.>.Z.z.x.m. XXXXX~.0 w t H M ! ! Q 1 8 ",
"t p =X-X|. X^.<XJ.K.+.K.+.z.+.+.v.V.V.,X(.].s.,X].,Xs.V.c.>X1X2Xn.z.o.#.k.k.$.:.9.0.9.0.8.q.5.4.5.5.1.q.8.9.%.*.D.M.n.m.a.{.'.~.@Xu S c N W ! ' T k c ",
"f ~.=XY./.s.m.K.K.+.O.K.-.;.K.b.v.^.s.i.(.(.].(.a.C.s.C.v.2X3X3X3X;.=.S.M.A.0.9.8.8.0.8.1.5.4.4.5.1.q.q.0.%.%.=.2X2X<XC.p.{.OX~.0 C s k N ' Q 4 1 j V "
};
