/* XPM */
static char *ground_texture[] = {
/* columns rows colors chars-per-pixel */
"34 34 147 2 ",
"   c #967EBD",
".  c #9A7BBF",
"X  c #9E77C1",
"o  c #9D7AC1",
"O  c #A66EC6",
"+  c #A373C4",
"@  c #A07BC5",
"#  c #7FCFAC",
"$  c #7FD2AE",
"%  c #7FD4B3",
"&  c #7ED8B7",
"*  c #7ED7B9",
"=  c #7EDCBC",
"-  c #7FBEC6",
";  c #7FC0C7",
":  c #7FC5C9",
">  c #7FCCCC",
",  c #7ED5C2",
"<  c #7EDEC2",
"1  c #7FD2CF",
"2  c #7EDDCB",
"3  c #7FD4D0",
"4  c #7EDCD4",
"5  c #7EE3C5",
"6  c #7EE4CA",
"7  c #7DE9CD",
"8  c #7EE3D5",
"9  c #7EECD3",
"0  c #7FE6D9",
"q  c #7EEBD9",
"w  c #7EF0D5",
"e  c #7EF2DB",
"r  c #8B8EB7",
"t  c #8E87B9",
"y  c #8C8CB9",
"u  c #908CB6",
"i  c #9383BB",
"p  c #9A84BB",
"a  c #908DBB",
"s  c #9B8AB9",
"d  c #8C95B4",
"f  c #8B9CB6",
"g  c #8795B9",
"h  c #8992BA",
"j  c #859BBA",
"k  c #8998BB",
"l  c #909AB3",
"z  c #9898B3",
"x  c #8AABAE",
"c  c #92A3AE",
"v  c #9BA4AE",
"b  c #92AAAC",
"n  c #8EB3AA",
"m  c #8DB9A9",
"M  c #9CBEA4",
"N  c #96B1A8",
"B  c #9BB3A8",
"V  c #86A9B6",
"C  c #84A3BC",
"Z  c #82ABBE",
"A  c #85B5B6",
"S  c #89B1B1",
"D  c #89B8B2",
"F  c #81B2BF",
"G  c #86BBBB",
"H  c #87CC9E",
"J  c #8ACE9D",
"K  c #9BCD9F",
"L  c #8ED19C",
"P  c #93D49A",
"I  c #9CD49D",
"U  c #96D99A",
"Y  c #9CDD99",
"T  c #A1D49D",
"R  c #A1DC9A",
"E  c #9FE097",
"W  c #9EE09A",
"Q  c #A5E697",
"!  c #A7E897",
"~  c #AAEA96",
"^  c #A2E398",
"/  c #A6E89B",
"(  c #A8EB9B",
")  c #8EC6A7",
"_  c #84CDA3",
"`  c #89CEA1",
"'  c #8EC6A9",
"]  c #81CEA9",
"[  c #8ACFA8",
"{  c #91C1A4",
"}  c #99C3A2",
"|  c #95C9A1",
" . c #9DC9A0",
".. c #87D0A3",
"X. c #8AD3A3",
"o. c #82D2AC",
"O. c #8BD5AA",
"+. c #8BDDAD",
"@. c #93D2A4",
"#. c #96DCA3",
"$. c #98DFA1",
"%. c #94DEAA",
"&. c #88C6B4",
"*. c #8ACEB2",
"=. c #81D4B3",
"-. c #89D6B2",
";. c #82DAB5",
":. c #8CDBB3",
">. c #80D3BA",
",. c #82DABA",
"<. c #8ADDBA",
"1. c #97E1A2",
"2. c #9AE1A0",
"3. c #92E2AB",
"4. c #9BE6AA",
"5. c #8DE3B4",
"6. c #84E1BC",
"7. c #8BE2BC",
"8. c #93E2B3",
"9. c #90E5BA",
"0. c #A1E7A1",
"q. c #9885C3",
"w. c #958DC3",
"e. c #8D9CC2",
"r. c #9191C2",
"t. c #9098C4",
"y. c #87A5C1",
"u. c #8AA3C3",
"i. c #84ACC1",
"p. c #89AAC5",
"a. c #81B3C2",
"s. c #80BBC5",
"d. c #80BFC8",
"f. c #80C1C7",
"g. c #84CCC1",
"h. c #80C4C9",
"j. c #85D7C1",
"k. c #80DCC3",
"l. c #80D6CE",
"z. c #82DFCC",
"x. c #84E3C4",
"c. c #8AE5C2",
"v. c #86E8C1",
"b. c #82E4CC",
"n. c #81EBCC",
"m. c #80E8D4",
"M. c #80F1D4",
/* pixels */
"b.$.~ Q W L 7 4 C   O O i C q 2 5 P U U ~ ! { r g Z j : q _ Y ~ U % ",
"R ~ ^ W U < 8 4 j . O + i Z 4 7 _ ^ ^ ~ Q *.- C i.o r > 7 _ ^ ~ +.9 ",
"~ W L P ,.= 7 1 g . O + t : q % U ^ ~ ^ v.0 > u.+ o g > n._ ^ 9.6 5 ",
"2.o._ = :._ 7 > h + O @ s.q 7 O.^ ~ E o.9 8 p.+ O   j 4 5 _ 7.;._ ;.",
"7 5 7 4.Y _ 9 : r + o a.1 9 5.Q ~ E J = q a.i O O   C 0 < 5 o.U L ^ ",
"e 8 #.~ Y $ q - i q.Z Z F @.! ! ^ Y o.q 4 j   O +   C 4 8 =.Y Y ! ~ ",
"8 ] Y ~ U $ q Z C Z h d K ! ! U Y ..6 2 4 j . O + i a.8 = P ^ ~ ~ 3.",
"9 _ E ~ P & q - f.h s I ~ ^ O._ o.x._ 7 1 g . O + e.8 9 o.U ~ Q X.9 ",
"7 H ^ ~ L = 4 4 C z R ~ W 6.= = c.W _ 9 > r . O e.> q n.W ~ Q P % q ",
"6 J ! ! ` 2 e h.b ^ ~ R g.e 9 7.~ Y ] 9 ; t X e.- - j.^ ~ ^ E ..7 4 ",
"= J ! 2.7 9 q { Q ~  .V 8 q * U ~ Y ] 9 s.t p.j r m ^ ~ W Y P 5 2 8 ",
"= P 4.n.& 6 %.! ~  .a f.4 8 _ W ~ U % q - - C i N ^ ~ U J L k.=.5 4 ",
"% O.< _ _ U ~ ! B   Z h.h.w _ E ~ P & 8 l.a.q.M ~ ~ 3.& $ x.%._ 7 1 ",
"2 < U U Y ~ Q x y j i.j 1 7 H ^ ~ L , q l.f K ~ Q O.9 6 b.0.^ _ q > ",
"5 L ^ ^ ~ ^ &.i.Z u.. j 4 6 J ! Q ;.e e G I ~ Q n l.e 6 P ~ Y o.q d.",
"] U ^ ~ W n.m.h.t.+   j 8 = L ! c.6 6 x.^ ~ R l a.0 4 ] Y ~ U $ q s.",
"L ! ! Y & e 4 e.O O   C q * ..v.=.# O.^ ~ R s k > > w _ W ~ U % 0 > ",
"! ~ Y J 5 8 C . O O t Z q & b...P P ! ! K r h a.C > 7 _ ^ ~ L & 4 m.",
"! ^ Y & 0 > g . O + t - 8 8 ..^ Y ! ! @.C j i.h g 3 6 H Q ~ [ 8 M.h.",
"P Y =.2 9 > r o O . t d.9 & U ^ ~ ! 5.1 - i.@ . j 4 6 J ! 4.7 7 m.@.",
"H =.x._ 9 : t X O + p.q 7 _ R ~ ^ O.e 8 a.@ O   j 8 = J 8.< $ = 1.~ ",
"5 8.Y $ 9 - t + O y.1 e 6.W ~ ^ L = q d.q.O O   C q ;.,.;.J _ W ~ ^ ",
"8.~ U $ q a.i o C - : <.Q ~ Y ^ o.9 1 j . O + t - 0 6 ,.U Y ^ ~ ^ x ",
"^ ~ L % q Z y p.j g { ^ ~ Y ^ X.7 6 1 g o O + t - 4 6 L W ! ~ W h.a.",
"^ ~ L = 8 a.s.g i } ~ ~ P J X.k.=.7 > r X O + g 1 9 o.U Q ~ #.m.m.: ",
"Q ! J 5 4 1 Z p  .~ Q 5.% =.x.#._ 9 ; t + O w.> e 6 P ~ ~ U & e l.h ",
"! ! _ 2 M.h.l I ~ ^ -.9 6 b.Q U $ e s.t + r.- > b.1.~ Q Y ..6 4 C   ",
"~ W k.M.m.D R ~ ^ S 0 e k.Y ~ U % q Z t e.Z C A Y ~ Q ^ U = 8 2 g . ",
"( x.6 7 j.Q ~ T f d.m.4 _ ^ ~ P & q C a.Z t c ^ ~ E L P ;.k.7 l.g o ",
"x.o.] +.~ ~  .p y.h.l.7 _ ^ ! L = 8 : - i v ^ ~ W o._ = <._ 9 h.r X ",
"..P U Q Q K a g s.Z 4 6 J ! ! J 2 0 1 g B ! ~ #.7 = b.4.W _ 9 d.t X ",
"Q Y ~ Q ) j C p.y j 8 = J ~ ^ [ q M.a.| ! ! | l.e 9 3.~ U $ q a.t q.",
"^ ~ Q 7.1 - y.+ q.C 0 & L ~ 8.7 9 b.I ~ Q N i.0 0 ] I ~ U $ q Z k i.",
"~ ^ ;.e z.p.+ +   - 0 # P 7.= % x.W ! ^ v g 1 l.7 _ ^ ~ P = q - - h "
};
