/* XPM */
static char *result[] = {
/* columns rows colors chars-per-pixel */
"75 75 256 2 ",
"   c #D97C3F",
".  c #BD765F",
"X  c #B9786B",
"o  c #B16D74",
"O  c #AD797A",
"+  c #B97677",
"@  c #BB7B73",
"#  c #B47B7B",
"$  c #D27B48",
"%  c #C97958",
"&  c #CD7D5D",
"*  c #D37D59",
"=  c #C67C65",
"-  c #C97D62",
";  c #CF7B64",
":  c #C6776C",
">  c #C37B6B",
",  c #C27972",
"<  c #BC8E59",
"1  c #BBA85B",
"2  c #B1B257",
"3  c #BBBA5A",
"4  c #9B9479",
"5  c #AC8C6A",
"6  c #BA896B",
"7  c #AC9969",
"8  c #B8986A",
"9  c #AA867A",
"0  c #AB8D7C",
"q  c #B58775",
"w  c #A29772",
"e  c #AD9576",
"r  c #AC9C75",
"t  c #A5957E",
"y  c #AB947B",
"u  c #A59B7D",
"i  c #A99B7A",
"p  c #B39773",
"a  c #97AB71",
"s  c #9BA97C",
"d  c #9BB57B",
"f  c #ABA96A",
"g  c #BBA364",
"h  c #BCAB63",
"j  c #B4A36C",
"k  c #B6AA68",
"l  c #ACB56C",
"z  c #A8B869",
"x  c #ACBB6B",
"c  c #BAB363",
"v  c #B4B866",
"b  c #ABA374",
"n  c #A8A975",
"m  c #A5A37B",
"M  c #A3AC7B",
"N  c #B4A875",
"B  c #A4B374",
"V  c #A6B675",
"C  c #B7B678",
"Z  c #CB854C",
"A  c #DB854D",
"S  c #D78849",
"D  c #D1984E",
"F  c #CD825C",
"G  c #CA8A5A",
"H  c #D48355",
"J  c #DA8553",
"K  c #D98954",
"L  c #D2835A",
"P  c #C99859",
"I  c #D39553",
"U  c #CEA353",
"Y  c #C6A858",
"T  c #C4AB5B",
"R  c #C4B458",
"E  c #C58667",
"W  c #CB8363",
"Q  c #C49564",
"!  c #CC9172",
"~  c #C3A663",
"^  c #C4B764",
"/  c #CFB073",
"(  c #E0A36E",
")  c #BAC55A",
"_  c #B5CE5B",
"`  c #B4CB5C",
"'  c #9DC075",
"]  c #ADC666",
"[  c #ACC36A",
"{  c #B3C765",
"}  c #AEC371",
"|  c #C4C369",
" . c #6F59BD",
".. c #7A77A9",
"X. c #7D7BAC",
"o. c #746AB5",
"O. c #7A6AB7",
"+. c #7B65BD",
"@. c #756CBD",
"#. c #7B6CBB",
"$. c #7577B5",
"%. c #7D74B4",
"&. c #7D7AB3",
"*. c #7672BC",
"=. c #7A73BB",
"-. c #6A59C4",
";. c #6D5ECE",
":. c #745EC7",
">. c #675BD4",
",. c #6A5DD2",
"<. c #6D66C4",
"1. c #6E63CC",
"2. c #7465C5",
"3. c #746BC3",
"4. c #7868C3",
"5. c #7164CA",
"6. c #7A73C7",
"7. c #6B61D0",
"8. c #786CD5",
"9. c #9A6C8C",
"0. c #9A7888",
"q. c #8B699A",
"w. c #9A6D98",
"e. c #9A6D9A",
"r. c #8C7B9D",
"t. c #9C7494",
"y. c #957997",
"u. c #9B7C94",
"i. c #94749D",
"p. c #9A739A",
"a. c #937B9C",
"s. c #A56D8E",
"d. c #AC7584",
"f. c #AC7B84",
"g. c #A5748D",
"h. c #A97589",
"j. c #A47C8B",
"k. c #B27783",
"l. c #A37692",
"z. c #896BAA",
"x. c #926DA4",
"c. c #8C74A5",
"v. c #857DA5",
"b. c #8B7CA4",
"n. c #8574AC",
"m. c #8A74AA",
"M. c #847CAB",
"N. c #8979A8",
"B. c #9375A2",
"V. c #8465B5",
"C. c #836CB3",
"Z. c #8274B2",
"A. c #827AB1",
"S. c #8878B9",
"D. c #9C7FB4",
"F. c #8479C7",
"G. c #897BD1",
"H. c #7F889C",
"J. c #7C84A9",
"K. c #7384B2",
"L. c #8E848C",
"P. c #9D848D",
"I. c #968D8A",
"U. c #9C8C8C",
"Y. c #8D988C",
"T. c #9D9486",
"R. c #939884",
"E. c #9D9C85",
"W. c #95948D",
"Q. c #9B938B",
"!. c #949B8D",
"~. c #9B9A8A",
"^. c #8D849D",
"/. c #888999",
"(. c #8C8B9C",
"). c #958595",
"_. c #9A8492",
"`. c #948C94",
"'. c #998B92",
"]. c #92839A",
"[. c #9A829A",
"{. c #928A99",
"}. c #8D9395",
"|. c #8C9A96",
" X c #8C929C",
".X c #939393",
"XX c #979595",
"oX c #939A92",
"OX c #A58485",
"+X c #AA8683",
"@X c #A48D84",
"#X c #A2848B",
"$X c #A38B89",
"%X c #A39383",
"&X c #A59587",
"*X c #A29B82",
"=X c #B09091",
"-X c #9CA383",
";X c #97A886",
":X c #90A78D",
">X c #9BA38A",
",X c #A2A382",
"<X c #A7AC86",
"1X c #ACB28C",
"2X c #8484A4",
"3X c #8B83A3",
"4X c #848BA3",
"5X c #898BA2",
"6X c #8482AA",
"7X c #8A89AB",
"8X c #988AA5",
"9X c #8A93A4",
"0X c #9695A6",
"qX c #8887B7",
"wX c #948FBA",
"eX c #B396AD",
"rX c #9EA6AF",
"tX c #AFACAF",
"yX c #CB9892",
"uX c #CEAD90",
"iX c #E3B08C",
"pX c #D8AEA2",
"aX c #CDB2AF",
"sX c #B8C698",
"dX c #CFCF97",
"fX c #D1CEAE",
"gX c #E9CCB7",
"hX c #DFE0B6",
"jX c #948CCB",
"kX c #A696CD",
"lX c #B3ADD0",
"zX c #B8B1E2",
"xX c #CCBBD1",
"cX c #C1BAE3",
"vX c #BEC0D3",
"bX c #D4D0CD",
"nX c #C6C5D5",
"mX c #E7CEC6",
"MX c #E9D7C9",
"NX c #E7D9D9",
"BX c #DBE0C0",
"VX c #EDE6D6",
"CX c #E8E6D9",
"ZX c #CCC7E4",
"AX c #DAD8E8",
"SX c #DAD9F0",
"DX c #E7DEE6",
"FX c #E8E6E9",
"GX c #F5EBE8",
"HX c #F1EFEF",
"JX c #F5F3EA",
"KX c #EAE8F4",
"LX c #F4F3F4",
"PX c #F8F6F6",
"IX c #FAFAF6",
"UX c #FFFEFE",
/* pixels */
"=X>X0X0X9X7X7XqXqXS.&.jXK.qX9X9X8X9X0X0X0X8X{.0X8X8X8XD.8XqXwXqXS.qXS.F.S.F.F.4.F.8.8.8.8.8.8.8.8.8.6.6.F.F.qXqXwX0X0X0X0X>X1X1X<XC / } / | ^ C N V <X",
"OX.X{.a.v...Z.%.O.o.$.$.$.J.J.4X/.^.p.(.}.y.w.].(.a.i.c.N.n.X.X.V.C.*.+.+.2.:.:.;.>.;.>.>.>.>.;.<.<.3.*.#.C.n.6X3Xi.y.}.!.T.E.;XB l x { _ ) 3 z z m ,X",
"W.).r.v.n.V.o.*.O.*.$.$.X.v.3X/.^.`.}.{._.{.]./.^.i.r.N.N.z.Z.$.C.#.*.*.3.3.1.1.7.,.>.>.>.;.;.1.3.3.6.$.C.z.x.5Xb.p.).P.f.9 0 M V v { _ ) { x 6 m u f.",
"`.^.c.z...O.+.@.@.K.K.$.6X/.r.^.].}.}.)._.{.{./.a.r.b.c.v.n.Z.Z.=.6.3.3.3.1.1.;.7.>.,.,.;.;.5.3.3.=.=.$.C.z.N.7X5X{.`.h.+X%Xm B l [ ` _ R 1 [ r u ~.U.",
"^.b.z...$.+.@.<.*.K.J.M.4X/.y.}.)..X}.`.u.].y.[.(.r.B.c.n.&.Z.O.#.3.2.4.5.1.,.,.,.,.7.7.1.1.3.3.=.=.%.&.n.M.7X X X}.j.f.>X<XB E v v 3 ` < j ' d -XQ.oX",
"^.c.z.$.#. .<.@.*.J.X.2X/.(.).`.P.oX:XoX`.'.`.`.{.b.b.m.n.n.Z.=.@.3.4.4.1.;.,.>.,.1.5.5.5.4.3.#.=.A.&.z.x.b./. X|..Xh.@X,XM ! 8 [ 1 T ] k b e s :XU.^.",
"v.z.V.O.+.2.<.@.$.J.J././.`.`.P..XQ.!.I.W.`.).{.].B.b.c.n.M.A.#.@.4.3.5.5.7.,.7.1.5.5.5. . .o.#.C.z.C.z.q.z./. X|.P.d.f.<Xb 6 x ] ` c x V r s ;X!.}.^.",
"v.C.O.o.@.<.@.%...X./.}.Y.W.U.U.Q.&X~.Q.Q.W.#X[.].].b.c.M.A.=.#.@.3.3.5.1.1.7.1.-.<.6.jXlXZXSXKXKXKXFXAXxXeX0X/.Y.U.d.q M B l v 1 3 E l d d ;X:X:X X/.",
"X.$.*.*.<.*.$.X.^.^.].}.W.U.T.T.*X&X&X>X!.P.U.'.{.].c.c.m.Z.O.#.4.2.<.5.1.7.;.-.G.cXKXUXUXUXUXUXUXUXUXUXUXUXPXbXtXR.O *XV V x Q P k f N y *X~.:X}./.r.",
"....*.@.<.K.J.J.^./._.W.T.T.T.T.%X&X&XT.T.U.'._.).a.3XN.n.A.%.#.@.3.1.5.;.-.G.ZXUXUXUXUXUXIXLXKXFXKXKXIXUXUXUXUXIXNX1Xa C ' x h h z V r *X*X>XH.|./.2X",
"n.%.$.3.$.J.X././.W.I.T.@Xt u u u y %XE.E.T.W.'.).8Xa.c.n.A.%.*.3.<.3.1.<.zXUXUXUXUXKXZXkXD.qXM.n.x.b.0XtXnXFXUXUXUXIXaX7 l g v x d V m -X~.W.:X/.v.J.",
"X.K.K.o.%.X.^.{.!.W.T.@X0 i u m m u y t @X$XW.U.).].b.c.n.M.Z.+.3.3.<.6.SXUXUXUXKXkXC.o.o.V...6Xv.x.^./.r.L.t.aXFXUXUXUXfX6 W k [ d <Xy @X:XW.|./.c.c.",
"J.K.$.X.v.r.a.I.U.%X&Xy u i i m m i u u *XOXQ.W.`.).a.c.N.n.%.#.6.@.F.KXUXUXLXlX#.o.%.Z.M.n.n.N.N.5X^.].t.j.#Xh.T.bXUXUXUXgX< n d ' d *XU.U.L.}.(.2X2X",
"X.X.X.X.^.y.L.U.OX%Xu *Xi m e m n i i u *XE.T.T.'.).].b.N.z.C.$.@.6.KXUXUXKXjXo.%.&.A.Z.z.m.2Xb.r.(.^.t.u.'.!.*X;Xs sXUXUXUXfXf d d ;X;X-X!.`.]./.J.J.",
"X.J.m.^.].u.W.T.%Xu m m m m r e i i y t m -X~.W..X`.a.B.N.N.C.=.o.SXUXUXSXK.*.C.C.M.n.v.z.N.2X5X3X{. X`.I.oX:X;Xs u a dXIXUXIX1Xd d s ;X!.oX}.}./.J.4X",
"J.2X^.{._.j.Q.T.0 u i r e r N e e b m m *XT.T.W..X{.a.x.c.6XM.$.lXUXUXKXS.X.Z.M.M.M.M.2Xb.3X3X^. X_.).}.g.Q.;XE.9 t B X fXUXIXCXa s -X-X:XW.}.}.}. X/.",
"/. X}..XI.Q.T.%Xy y i e e r b m e e e m ,XU.#XP..X.X(.3XB.N.J.J.PXUXPXwXz.z.z.X.v.v.b.3XB.p.r.^.).{.u.Y.Y.!.:Xt u d B 6 8 JXIXIX1X*X&XOX~.P.W.|.{.{./.",
"/.}.}.!.U.T.T.t *Xy y e r r b b b e 0 0 *X&X#Xj.`..X(.(.3X3XJ.nXUXUXcXz.n.n.x.m.v.3X3X^.q.8XnXFXLXFXbX=X4 :X;X,Xi s d B 7 pXUXUXfXw ;XE.;X!.!.Y.}.]./.",
"_.I.W.Q.T.@X@Xu m y 0 e m r r m i i 0 +X%XQ.W.P._.).{.(.5X4X9XLXUXLXqXv.b.4X2Xb.4X5X/./.nXIXUXUXUXUXUXPXaX:X;XM y e 7 [ V M LXUXFX9 -XE.;X;XW.U.W.`.}.",
"P.I.P.T.T.@X%Xt u i e i r i i i m u %X&X&X~.!.'.`.u.p.].9XH.lXIXUXxXq.9X2X3X X4Xr.].y.AXUXUXUXHXFXLXUXUXUXaX4 ;XM n V V N r CXUXPX<Xs -XE.~.R.~.~.I.I.",
"U.U.#XQ.&XT.E.u u u y 0 y i m m ,X*X,X~.Q.Q.oXoXoX).w.w.^./.nXUXUXrXx.3X(.p.3X Xa.q.tXUXUXIXaX`.Y.:XbXPXIXUX1Xs d V B f q 5 MXUXIX1Xd s s *XE.E.T.Q.W.",
"OXU.T.&X&X%XT.*Xu t t t %Xy *X,XE.*X~.~.~.'.'.Q.|..Xu.w.p.a.FXUXLX9X(.(. X].p.`.`.`.FXUXUXeX0.Y.:XT.4 bXUXUXCXw n p p l B n CXUXPXp m s s s t u -XU.P.",
"OXT.T.@X@XT.@X@X%X%X@Xt 0 &X*X~.~.~.~.~.XX#XP.l.'..X.X[.y.[.LXUXFXr.(.|.|.|.}.`.w.XXHXUXFXg.j.j.#XOX+X-XFXUXUXuX6 , 7 V f 1XIXUXCXe b B r r m 0 %XU.OX",
"T.T.%X$X&X@XT.@X@X%X@X@X+X&XQ.~.~.~.!.oXQ.#Xl.l.l.'.|.oX`.0XPXUXNX9.l..X|..XW.oXg.j.HXUXDXh.f.d.f.E.&X4 tXUXUXJXuX7 f f 1XGXUXUXfXn B V p r n t %X@X9 ",
"T.T.%X&XT.Q.Q.$XU.T.&XU.T.T.Q.Q.Q.XXXXW.W.`.g.l.l.l.'.oXW.XXUXUXAX9.s.g.XX#Xs.Q.!.I.CXIXUXXXR.OXk.,Xs y o MXUXUXJXBXhXMXUXUXUXCXl f l N x r r u -X%X&X",
"T.T.U.U.Q.U.P.P.U.Q.Q.Q.W.XX.X.X'._._.`.oX`._.g.g.g.P.!.U.l.LXUXNXI.#Xs.#X*Xh.h.Y.s fXIXUXfXs *XO *Xd m 9 i CXUXUXUXUXUXUXUXVXN 8 8 k Q 8 p i u E.E.E.",
"@XT.U.U.'.U.'.'.'.'.XX.XXX.X{.`.a.u.u.u._.}.W.u.g.s.g.I.P.g.DXUXHX>X!.&X+X;X&Xk.@X;X1XIXUXLX,Xs -Xd d d B n z fXJXUXIXIXCXfXE W Q v } k 8 n r *Xt %X@X",
"@XU.U.P.'..X).).{.{.XX`.{.(./.(.a.p.t.t.t._..X.X#Xj.j.j.s.s.mXPXUX1X;X;X-X;X-X%XE.m 4 bXUXUXbXw i q n n p p f f 8 ! sX} ] z v Q v c g x j e i t %X@XOX",
"T..X'._.).`.y.a.].].{. X5X5X5X5Xa.i.e.e.w.t.P.oXoXU.#Xd.d.o aXPXIXBXs ;X;Xd m q 9 t + @ LXUXUXfX5 , @ n 6 : E j - - 1 ] ] v 3 { ] v h g f n t 0 t %X$X",
"W..X)._.^.].a.8Xb.b.c.5X5X2X2X2X3Xi.e.e.w.w.t.`.!.>XT.f.d.d.k.KXUXLX<Xm M d M + , q q o yXUXIXIX1X6 6 f 7 6 8 h Q Q v x { P K 3 P v x 8 p i m t @X%X&X",
"j.).).a.^.3X3X3Xc.m.m.M.M.v.n.6X2X3XB.e.w.w.g._.oX!.~.OXk.k.o mXUXUXfX5 q b B e , + q p X gXUXUXJX1Xl V [ l x [ v h P Y ` Y T 3 P v x f 6 y u %X&X~.Q.",
").{.].3Xb.b.b.N.n.n.n.A.Z.n.n.n.M.6Xb.i.w.w.s.u.U.!.-XT.o + o , IXUXIXp X @ p n p > 6 B n 5 MXUXUXGXC [ } ] { ] { P * I ) _ _ v h l 8 8 q y ,X@XT.W.'.",
"{.].3Xb.b.N.n.&.$.%.$.$.V.V.V.V.C.M.7X3Xr.p.t.u.P.$X&X*X9 + + . mXUXUXmX. : : 6 z j 7 V x 8 E CXUXUXVXk ] ] 2 ` ] T I Y _ _ 3 P P 8 6 8 i y %X*XQ.'._.",
"].3XN.M.A.A.Z.%.=.=.=.$.V.V.V.V.z.m.4X5X(.].u.j.g.k.f.0 0 + + , , GXUXUXpX% : : j [ [ x [ 8 Q k GXUXUXVX) 1 1 { ` _ ) R ) 3 G G Q j b M i *X&X$XU._.u.",
"b.c.n.n.Z.Z.%.#.+.+.*.3.#.V.V.V.z.x.5X9X X)._.g.h.k.k.k.q # , : : yXUXUXIX! % ; E z [ ] [ C c [ } IXUXUXhXU ) _ _ _ U A U v ~ ~ E 6 n M m ,X$X'..X).^.",
"5Xb.Z.A.#.#.6.4.2.2.3.3.6.#.C.z.z.B.b.{.XX'.j.h.k.k.+ + @ @ > : : % gXPXUXGXW ; E k ] ] [ ] { { 3 / IXUXUXdX) R ) _ U S 1 [ x Q 6 p q u *X&X&X'.).{.b.",
"M.S.A.C.#.3.3.<.5.5.2.4.=.&.A.m.x.x.l.l.'.'.#Xd.k.k., , : X : : - ; * VXUXUXMXG P ^ ] ] { { { ) ~ Z iXIXIXUX( S I 3 ) ^ ~ v l 8 b M y -X&X*XoX.X{.3X5X",
"A.n.=.4.3.<.5.5.1.:.2.#.&.A.M.c.x.x.e.l.j.#XOXf.k.+ o , X : : - ; ; * ! PXUXUXfX2 2 ) ] { _ _ ) P H   gXUXUXGXK K R { v g k N B B y *X&X$XXXoX{.5X4XM.",
"S.Z.=.4.<.1.1.5.2.:.+.C.Z.m.x.x.p.w.e.s.g.h.f.d.+ + , , : = : ; ; * * % iXIXUXUXdX` { { _ { _ ) Y S A S MXUXUXgXZ Y c } k = p B m q @X+X!.).).5X5X6Xn.",
"Z.#.3.<.1.7.7.5.3.+.#.C.Z.x.x.e.p.w.l.s.h.d.O k.+ o , : : : % & ; * * * Z dXUXUXUX| 3 R R ) ) _ ) D S S U IXUXUXiX& ~ [ p 6 r e ,X>X&Xj.XX).(.3Xv.Z.A.",
"#.3.2.1.,.;.1.3.=.#.C.C.N.b.i.p.p.l.g.h.h.d.# + + X : > - - & & * * * * K S hXUXUXJXU D S D U ) _ R R R ) dXUXUXGXE Q j M M q q ,X>XXXl.XX(.b.c.n.Z.%.",
"3.5.1.,.>.;.3.=.=.C.V.m.3X^.(.].u.g.h.d.k.# O + @ @ > > - - & & * * * A A K K VXUXUXMXS A A S U ) ` ` ` _ 3 MXUXUXfX% q B M u +X&XQ.Q.).(.3Xb.n.Z.C.#.",
"2.1.,.,.,.5.4.=.%.Z.n.N.3X/.{.)._.g.d.f.9 # + @ , > > - % & & * J * A $ A A A K GXUXUXgX  A J I R ) { { ` v C IXUXGX! w B -X,X+X$Xj.).].i.b.6Xz.%.=.4.",
"1.,.,.,.5.3.=.A.n.n.N.b.^.(.).#X#XOXOXO O O X X > E = W - * * H * J A A A A A A ( IXUXIXiX$ J I 1 ) ] { { ] z hXUXUXfX5 +X*X>X&X~.).{.(.b.m.b.S.=.4.2.",
",.,.,.5.4.#.=.A.n.c.b.^. X)._.j.OX+X9 &XuXaXuXyXE % W W F F H H J A A A A A J J   iXUXUXPXK J G 1 { ] [ [ } f uXIXUXCXo # E.>XoXoX].a.b.m.6XA.%.+.2.1.",
",.7.5.3.+.=.&.n.m.B.^.{.XXQ.#X+Xf.@XmXPXUXUXUXUXGXpX& L H H H J A A A A A A J J K S gXUXUXMXZ Y c v [ [ } x p X NXUXUX=X@X>XU._.}.a.3X6XM.C.C.#.2.1.;.",
"7.5.3.3.#.C.M.M.3X^. X{.XXQ.@X9 =XJXUXUXUXUXUXUXUXUXgXK H H K J K J J J A J J J K H G GXUXUXuX2 v x k l C V b X aXUXUXfXR.XXg._. X3Xb.M.A.C.#.2.5.;.>.",
"5.3.@.#.C.n.6X3X5X{..X'.Q.,X*X&XLXUXUXPXfXfXdXMXUXUXUXpXZ K K K K K J K J J J J J L H iXUXUXVX] l 8 8 6 p b M y 1XUXUXbXR.XX_.5X3Xx.m.S.C.C.4.5.;.>.,.",
"4.4.#.%.Z.N.3XB.).).P.$X@X<Xu bXUXUXCXN f 2 2 < uXIXUXIXI K K K H H H H H L L L F F & F GXUXIXC j E @ > @ y M s <XPXUXDXY.|.(.4X6Xm.C.Z.#.4.2.1.>.>.7.",
"4.=.%.A.N.B.].].).U.$XOX@Xm 1XIXUXLXC j g 8 g ~ Z gXUXUXiX$ K H H H H F * L L L & F W < fXUXUXfX5 E @ @ @ y -X;X@XHXUXFX}. X X7Xx.m.C.C.4.4.1.,.>.1.2.",
"=.C.Z.v.b.3X).XXQ.&X$Xt ,XM dXIXUXfX2 8 P G P P P ( IXUXgXA L K H H F F & & F - & E = E uXIXUXfX6 q @ @ q %X;X>X$XFXUXHX X(.b.N.z.C.O.+.2.1.;.>.7.5.4.",
"=.Z.M.N.3Xu.XXXXOX+X*Xm n a dXUXUXdX1 Q G P G P D I IXUXMXZ G L F F F F & F - W = = E X ! IXUXmXX q 9 q %X-X>XQ.#XHXUXFX5Xc.x.N.z.=.#.3.1.1.>.,.1.3.=.",
"A.M.b.].].'.Q.$X9 0 m r b f dXUXUXdX1 P I I I D U / IXUXMXZ L L F F F = = = = = X > > X yXIXUXmXo # +X,X<X>XT.0.l.HXIXFX2Xx.z.C.C.+.3.1.7.,.,.1.2.6.#.",
"M.c.3X]._.#X&X*Xt e r p N 2 dXUXUXdXY D P D I D U ^ IXUXgX$ W I W W F = = W > = = X > X yXUXUXaXo # +X&X&X!.P.9.[.IXUXAXv.x.n.A.+.2.1.;.,.7.1.3.3.$.%.",
"b.3X{.).$X&X&Xy e e p j f 1 uXUXUXdX1 R U D D U U | IXUXVXZ W W F = = X > > > > @ > @ X mXPXUXyXo f.+Xf.#XXX`.y.eXUXUXvX..A.A.4.4.3.7.,.,.5.3.3.#.%.M.",
"3X].`.Q.@X&Xi p 6 8 g k h 1 / UXUXhX3 ^ T Y Y R R { VXUXUX! W W W E > = > > , @ @ + , +XPXUXPXk.O h.k.g.u.`.{.w.nXUXUXkXX.qX=.3.5.7.7.,.5.3.3.*.%.n.c.",
"a._.W.&X%Xi r r j g g 3 ^ P ~ PXUXCX{ { R 3 3 c { 2 hXIXUXgX% E E > > > E , ! + @ # O NXUXUXbXo h.h.j.u.{.{.p.x.HXUXLXqX$.=.6.<.7.,.,.5.4.3.*.=.A.c.B.",
"u.U.E.%Xe e f k g g h R Y ~ P VXUXIX| v { { v c c k x IXUXUXpX. X @ @ q + @ + k.+ # mXUXUXHXh.g.h._.'.(.(.a.q.eXUXUXZX$.*.@.3.1.7.,.7.5.4.4.C.Z.N.3X[.",
"Q.~.u y e N f g Q Y 3 ^ ^ Q < fXUXUXdX2 v v v 8 Q 6 g pXUXUXUXmX! o X o + O o o =XDXUXUXIXeXO g.u._.{. X5X3Xq.DXUXUXkXo.4.3.1.7.>.,.3.3.6.=.X.v.3X{.'.",
"@X%Xu p 8 k h 3 3 3 v c k g 1 C IXUXJXz z l f 8 E E 6 6 aXUXUXUXPXNXaXyXyXyXaXNXUXUXUXIXtXI.u.u.t.t.a.5X5X2XlXUXUXSXo.4.2.1.7.>.7.5.4.=.%.&.n.b.3XXXW.",
"%X0 b j 8 8 R 3 3 ^ c k 8 8 j f MXUXUXfXf V f 6 6 6 q q X pXHXUXUXUXUXUXUXUXUXUXUXUXFXrX}.`.j.w.w.e.i.3X2X7XLXUXUXjX<.3.1.,.,.,.;.4.#.#.C.m.b.5X'.$X$X",
"i r 8 g Y T T 3 c h N f 8 p 8 7 uXIXUXLXN f M p @ @ q q q + # aXGXUXUXUXUXUXUXUXDXaXP.L.{.].p.e.e.x.c.6X..AXUXUXZX@.3.5.1.>.,.1.2.+.#.%.z.3X3X[.XX$X+X",
"b N l ^ ~ R T 1 8 k j 8 q p 5 q 5 BXUXUXNXq i m y q e u q q O o O =XtXaXfXbXtXeXg.9.t.[.}.5Xa.x.x.x.M...cXIXUXKX6.<.5.1.7.7.1.5.2.#.%.A.N.3X{.#X$X+X0 ",
"f v c c R R c k j f r p e r e q e i GXUXUXmXy M -Xs ,X-X&Xf.f.d.d.d.4 L.}.L.0.9.w.l.p.a.^.3X3Xb.b.n...cXUXUXUXjX-.5.7.,.7.1.5.3.=.%.A.3Xb.].'.&X&X0 b ",
"8 P R R R ^ k l b n m s s u t i y O =XUXUXUXBX-X-X>X,X>X@Xk.f.+X#X#X#X=X).XX).l.l.l.x.B.b.7X7X6X&.&.ZXUXUXUXkX-.5.7.,.;.5.5.4.@.=.n.m.5X(.).#X@Xu r f ",
"~ Y R R ~ k 8 r m s 0 t s u &X-X@X+X@X1XIXUXUXNX&XR.Q.Q.Q.#Xj.'.'.#Xg.l.u.9X{.y.x.e.x.x.b.6XJ...wXSXUXUXUXkX7.7.7.,.7.5.5.4.+.C.J.M.b.].`.U.+X*Xi 8 8 ",
"Y R R ^ l l i i t 0 O f.T.T.@X&XT.!.~.P.eXIXUXUXPXaX0.9.U.oX.XXX.Xl.l.s.p.8X^.].B.q.x.B.X...qXlXIXUXUXLXjX-.1.7.,.7.5.5.3.=.#.&.qXb.p.).I.T.y m n 8 P ",
"^ R ^ v l 7 i t E.OXj.P.W.Q.j.P.!.oX!.P.j.XXFXUXUXUXDXaX_.y.L.}.{._.w.t.p.3X7X7X3Xn.z.n.qXlXKXUXUXUXSXjX-.1.>.>.7.5.3.3.3.=.A.M.3Xa.u.'.#X,Xu N 8 g P ",
"R c v z n u 9 OX~.#XW.W.oX.X`.).`.L.}.}.oX}.|.nXIXIXUXUXHXbXeX8X4X/.q.q.q./.X.J.M.qXkXnXIXUXUXUXUXzX5.5.5.,.>.7.;.4.3.+.C.C.n.B.a.u.).Q.+Xi b f h Y R ",
"T v x n i s @XP.XX'.u.).).).}.(.y.y.].a. X/.^./.rXAXUXUXUXUXUXPXFXbXnXlXlXlXnXZXFXIXUXUXUXUXUXZXF.-.:.5.7.,.,.7.5.3.+.+.C.n.x.a.[.).Q.-Xy r N g 3 ) R ",
"c f n s u ~.W.'.`.y.y.^.]./././.^.^.r.i./.^.e.3X XH.rXnXLXUXUXUXUXUXUXUXUXUXUXUXUXUXUXUXKXzXF.-.1.5.5.;.,.,.7.5.3.*.=.C.z.N.a.{.'.U.@Xs m p g h T R 3 ",
"x V e -XR.U.`.[./.r.^.r./.H.2Xc.v.4X2XN.2X(.^./.9X X^.r.9XrXnXDXLXIXUXUXUXUXUXIXKXSXcXjXF. .:.:.5.1.,.,.7.1.5.3.3.=.C.z.c.7X0XXXP.&X0 q N g ^ T Y 3 1 ",
"j M u R.Y.W.].^.^./.2X2X2XM.v.z.n.6X4Xa.i.5X/.9X X(.p.B.3X2X/.v.B.wXkXwXkXkXkXqX=.@.o.+.4.4.5.;.,.,.,.;.1.2.4.@.=.V.z.z.b. XXXXX~.+Xq r C c R R R 1 Q ",
"i u ;X:X|. X/.4XJ.J...J.M.n.X.X.c.x.B.3X(.^.a.{.].3Xa.i.x.3X7X7XN.n...O.z.V.O.@.4.4.3.4.:.;.,.>.>.,.;.5.5.4.+.#.%.n.M.b.i.{.'.~.*Xt M k v T R ) P k j ",
"s E.!.|.{.r.b.J.J.X...J.&.$.J.M.b.3Xa.].(.^.{.^.p.a.B.3Xc.2X6X6X6XA.=.A.V.V.#.4.4.2.3.5.;.,.>.>.,.;.5.5.3.4.+.Z.6X6X5Xb.y.'.#X*X0 m j g c ) R 3 k f n "
};
