/* XPM */
static char *_8b215a94c0c433fee28a8a51293c4902QMuUrqoMKeE598j[] = {
/* columns rows colors chars-per-pixel */
"75 75 256 2 ",
"   c #DA7C3E",
".  c #BC786B",
"X  c #B16B74",
"o  c #AB7A7B",
"O  c #BB7A73",
"+  c #B7777A",
"@  c #B37B7B",
"#  c #D27C4A",
"$  c #C97859",
"%  c #D37E57",
"&  c #C87865",
"*  c #C27C6A",
"=  c #C97A6A",
"-  c #BB8958",
";  c #BEA85C",
":  c #A9B35D",
">  c #B9B85A",
",  c #BCBB5B",
"<  c #9A8C78",
"1  c #9B9A7A",
"2  c #BB876B",
"3  c #BC8B6C",
"4  c #AB9B6A",
"5  c #B99769",
"6  c #B59B6D",
"7  c #A98879",
"8  c #AB8D7C",
"9  c #B68476",
"0  c #B38C73",
"q  c #A29472",
"w  c #AD9576",
"e  c #AC9C75",
"r  c #A5947D",
"t  c #AB947B",
"y  c #A59B7D",
"u  c #A99B7A",
"i  c #B39473",
"p  c #B19B72",
"a  c #9CAC6D",
"s  c #9BA97C",
"d  c #9CB37B",
"f  c #ABA96D",
"g  c #BBA364",
"h  c #B7AA66",
"j  c #BCAB63",
"k  c #B4A36B",
"l  c #B3AC6A",
"z  c #A7B76C",
"x  c #ACB36C",
"c  c #ACBC6C",
"v  c #B4B465",
"b  c #BBB363",
"n  c #B6BB66",
"m  c #B2B36A",
"M  c #ABA374",
"N  c #A6A876",
"B  c #ABAC72",
"V  c #A5A47B",
"C  c #A3AC7A",
"Z  c #B4AA74",
"A  c #A5B474",
"S  c #A7B575",
"D  c #DA844D",
"F  c #D6884A",
"G  c #CC9549",
"H  c #D2964D",
"J  c #CD835C",
"K  c #CB8B58",
"L  c #D48454",
"P  c #D88655",
"I  c #D38B53",
"U  c #C8975A",
"Y  c #D19455",
"T  c #E0915D",
"R  c #C6A758",
"E  c #C3AB5B",
"W  c #C4B458",
"Q  c #C68666",
"!  c #C49764",
"~  c #D08D71",
"^  c #C3A763",
"/  c #CBB16F",
"(  c #B9C45A",
")  c #B3CD5B",
"_  c #B4CB5C",
"`  c #9DC075",
"'  c #ADC666",
"]  c #ACC26B",
"[  c #B4C665",
"{  c #ADC570",
"}  c #C4C25A",
"|  c #C8C474",
" . c #6E5FBB",
".. c #7B6CAA",
"X. c #7975AA",
"o. c #7E7BAC",
"O. c #6E65BD",
"+. c #7467B6",
"@. c #7D6DB5",
"#. c #7B65BD",
"$. c #756DBE",
"%. c #7B6CBB",
"&. c #6F71BE",
"*. c #7D75B5",
"=. c #7678B6",
"-. c #7D7BB3",
";. c #7672BC",
":. c #7A73BB",
">. c #6559C8",
",. c #6D5ECE",
"<. c #735EC7",
"1. c #675BD4",
"2. c #6A5DD2",
"3. c #6C67C2",
"4. c #6E63CC",
"5. c #7465C5",
"6. c #746BC3",
"7. c #7868C2",
"8. c #7164C9",
"9. c #7974C7",
"0. c #6B61D1",
"q. c #786CD5",
"w. c #9A778B",
"e. c #8E6F96",
"r. c #9A6D99",
"t. c #8A7999",
"y. c #8D7D9C",
"u. c #9D7495",
"i. c #977997",
"p. c #9B7B93",
"a. c #94749D",
"s. c #9A729A",
"d. c #937B9C",
"f. c #AC7584",
"g. c #A67A86",
"h. c #AB7B84",
"j. c #A4748D",
"k. c #AA738A",
"l. c #A37B8B",
"z. c #B37682",
"x. c #A26C95",
"c. c #A37592",
"v. c #886BAA",
"b. c #8B6CAB",
"n. c #926DA4",
"m. c #8C74A5",
"M. c #857DA5",
"N. c #8879A7",
"B. c #8C7CA4",
"V. c #8574AD",
"C. c #8A74AA",
"Z. c #847CAC",
"A. c #9373A2",
"S. c #957CA3",
"D. c #8466B4",
"F. c #836BB3",
"G. c #8274B3",
"H. c #817AB1",
"J. c #8878BB",
"K. c #8477C5",
"L. c #7B8998",
"P. c #7C84AA",
"I. c #7384B2",
"U. c #8B898A",
"Y. c #9D858D",
"T. c #968B88",
"R. c #9C8C8C",
"E. c #8B978C",
"W. c #929482",
"Q. c #9D9486",
"!. c #9D9C85",
"~. c #95948D",
"^. c #9C938B",
"/. c #949C8D",
"(. c #9B9A8A",
"). c #8C849D",
"_. c #898898",
"`. c #8C8B9C",
"'. c #958595",
"]. c #9A8492",
"[. c #948C94",
"{. c #9A8B92",
"}. c #92839A",
"|. c #998399",
" X c #928A99",
".X c #8C9695",
"XX c #8C929B",
"oX c #939393",
"OX c #989595",
"+X c #929A93",
"@X c #A58485",
"#X c #AB8482",
"$X c #A68B86",
"%X c #A58D84",
"&X c #A2848B",
"*X c #A39484",
"=X c #A59486",
"-X c #A29B83",
";X c #AE9392",
":X c #9CA483",
">X c #98A687",
",X c #91A88E",
"<X c #A4A683",
"1X c #AFAC92",
"2X c #8484A4",
"3X c #8B83A3",
"4X c #858AA4",
"5X c #898BA1",
"6X c #8483AA",
"7X c #8887AA",
"8X c #988AA6",
"9X c #8D94AE",
"0X c #9595A6",
"qX c #8987B7",
"wX c #B398B3",
"eX c #9DA5B1",
"rX c #B4B0AD",
"tX c #A8AAB9",
"yX c #CE9589",
"uX c #CFAD94",
"iX c #E4B494",
"pX c #C297A7",
"aX c #CEB0AE",
"sX c #E4BAA9",
"dX c #B8C69B",
"fX c #BDC0B5",
"gX c #CBD696",
"hX c #D0CCB4",
"jX c #CAD6B6",
"kX c #E7CDB5",
"lX c #DAE4BB",
"zX c #9A92D1",
"xX c #A08ECC",
"cX c #A398C5",
"vX c #BAB2C7",
"bX c #B6AEDA",
"nX c #B9B6D4",
"mX c #B0AAE2",
"MX c #C6BBC6",
"NX c #D1BCC2",
"BX c #BEC1C7",
"VX c #C5C4C6",
"CX c #D4CFCA",
"ZX c #D7D6D7",
"AX c #ECD4CB",
"SX c #E7D8D8",
"DX c #DCE3D8",
"FX c #EFE6D2",
"GX c #E9E6DA",
"HX c #EBDEE1",
"JX c #EBE8E6",
"KX c #F5EBE7",
"LX c #EFF0ED",
"PX c #F5F4EB",
"IX c #F8F6F5",
"UX c #FFFFFF",
/* pixels */
";X(.OX0X0X9XqXqXqXJ.J.qXqX9X9X9X8X0X8X0X0X8X8X8X8X8X8XS.8X9X9XqXJ.qXJ.J.K.K.K.K.9.q.q.q.q.q.q.q.q.9.9.9.K.K.qX9X9X0X0X0X0X,X1X1X<XZ / | / } / n Z A <X",
"g.[._.y.M.o.X.=.@.+.;.=.-.P.P._._.).i.`._.i.s.).`.y.a.m.N.N.Z.*.D.@.;.#.#.5.5.<.,.,.,.1.1.1.1.,.,.3.6.$.%.@.V.6X3Xa.a..XoX(.*Xs A x [ [ ( _ > x A N s ",
"OX'.).N.Z.F.D.;.+.;.=.-.o.N.3X`.).`. X X'.'.}.`.).a.B.N.N.b.V.*.@.%.6.6.6.6.8.4.4.2.1.1.2.2.4.4.5.6.;.:.F.v.b.3XS.s.'.].g.#X8 A A m [ _ ( ' m 3 N r h.",
"[.`.n.C.-.#.#.$.&.=.=.o.P.4Xy.).'..XoX[.'.'. X`.}.d.B.N.N.V.*.*.:.;.6.6.6.4.4.4.2.1.1.2.4.4.8.6.6.;.;.*.F.b.B.5X`. X[.l.@Xt C B x ' _ _ > v ] e y !.^.",
"}.B.v.*.=.#.#.3.&.I.P.M.4X`.i..X'.oXoXoX].'.i.|.`.y.m.N.V.-.*.@.%.6.6.5.8.4.,.2.1.1.2.4.4.8.6.6.:.*.=.-.V.N.5X5XXXoXl.h.:X<XN Q v n W _ ! k ` d :XR.+X",
"3XN.v.=.;.<.5.&.=.o.M.2X).).'.[.]./.+X+X[.'. X X`.d.B.N.C.G.G.%.$.6.5.5.8.,.2.1.2.4.8.4.5.5.6.;.:.G.H.V.n.m.5XXX.XoXl.@X:XC 3 5 ' E E ' k M 0 :X>X[. X",
"M.v.D.@.#.5.3.$.*.P.2X`.XX[.[.Y.~.^./.R.[.[.].[.}.d.B.C.V.H.G.:.7.7.6.5.8.0.0.0.4.8.6.6.5.7.%.G.F.b.H.C.n.A.`.XX+XR.f.#X<XM Q c ' ( v c ` e r >X/..X).",
"N.F.D.$.&.5.$.*.Z.2X)..X.X~.R.R.^.Q.(.^.^.oX].].'.t.e.v.X.X...+. .O.3.>.>.>.>.>.>.3.O.O.O.O.+.+.D.v...X.e.t._.U.E.T.X o N A z v j b Q x A s >X,X,X.X3X",
"o.*.;.;.3.&.=.P.2X).}.oX~.R.Q.Q.*X*X=X(.(.Y.Y.{.tXvXMXnXnXnXbXbXbXbXmXmXmXmXmXmXmXbXbXbXbXbXnXnXnXnXnXnXnXvXMXMXVXhXaXhXjXjXgX! - h l M w -X^.,X.X).M.",
"V.*.$.$.$.=.P.2X)._.'.^.^.Q.*X*X*X*X=X=XQ.R.MXLXUXUXUXUXUXUXUXUXUXUXUXUXUXUXUXUXUXUXUXUXUXUXUXUXUXUXUXUXUXUXUXUXUXUXUXUXUXUXUXIXhXx A u y -X^.,X.X_.M.",
"o.*.=.;.=.o.M.).XXoX^.Q.%X*Xy y y y -X-X!.SXUXUXUXUXUXUXUXUXUXUXUXUXUXUXUXUXUXUXUXUXUXUXUXUXUXUXUXUXUXUXUXUXUXUXUXUXUXUXUXUXUXUXUXlXa V :X!.~..X_.2X2X",
"o.I.I.;.F.M.)._..X~.Q.%X%Xr y V V y t q CXUXUXUXZXvXwXwXcXcXcXxXzXzXzXzXzXzXzXzXzXxXcXcXcXcXcXcXtXwXtXtXwXrXwXpXrXrXuXuXuXuXsXIXUXUXdXr =X,X~..X`.m.N.",
"P.I.=.*.N.a.d.[.R.Q.*Xr u u u N V u y 1XUXUXIX1XU.t.e.t.M.....+.O.O.3.O.O.O.O.+.+.+.X.....v.X.M.t.t.t.t.w.w.w.g.7 s 1 f 4 J - hXUXUXDX< =XR.'..X`.B.2X",
"o.-.*.M.B.'.[.R.@X*X-Xu V u u V V u q hXUXUXrXU.{.'.}.B.C.C.G.=.;.7.6.%.%.=.=.*.G.-.H.V.b.C.6XB.S.5X}.u.p.{.(.:X>X>Xd A 6 5 f A PXUXJX:X/./.[.'.XX4XP.",
"P.P.N.).'.p.^.Q.*X-Xy V V N e w e u q CXUXUX1X~.oX'.a.m.N.N.F.*.%.%.:.=.=.=.*.F.F.Z.V.N.C.N.4X2X3X`.`.[.{./.>X>X:Xy A B l x ` A LXUXJX>X/./.oXXX_.2X2X",
"P.2X). X].&X^.*X*Xy u u e e e w e V 1 CXUXUXrXW.OX Xd.A.A.6XZ.*.D.:.-.G.G.-.G.-.Z.M.Z.2XN.B.3X3XXX|.|.oXj.R.,X-X8 u C 3 6 A z 1XUXUXZX1 ,X~.[..X`.XX2X",
").XX.X.XR.^.!.*X8 u u w w e M M e u q rXUXUXHXY.U.U._.t.e.m.o.X.X...X...D...F.Z.Z.M.B.3XA.a.y.t.'.U.w.E.T.W.s < q a a 2 4 4 1XLXUXUXaXo /.Y.~..X X_.`.",
"_.[.oX/.R.Q.*X*Xy t w w e e M M e w 8 %XJXUXUXJXVXVXVXvXMXnXnXnXnXnXnXnXnXvXb.m.M.3X3X3XA.a.d.BXMXVXMXVXVXjXjXhXhXjXjXjXhXAXIXUXUXGXs !.>X/./..X[.'.`.",
"'.{.~.^.Q.%X%X-XV t 0 t M e e e M u 8 7 1XIXUXUXUXUXUXUXUXUXUXUXUXUXUXUXUXDXM.B.4X`.`.XX Xt.tXUXUXUXUXUXUXUXUXUXUXUXUXUXUXUXUXUXGX#Xs !.>X>X~.R.OX[.oX",
"R.R.Y.Q.Q.%X*Xr y u t u u u u u V y *X=XQ.1XZXIXUXUXUXUXUXUXUXUXUXUXUXUXUXtXL.5Xd.).i.XXoXr.ZXUXUXUXUXUXUXUXUXUXUXUXUXUXUXIXJXjXV s >X!.:X!.(./.(.~.[.",
"R.R.&X*X*X*X-X-Xy y t 8 t u V V V -X!.(.(.~.~.+XrXrXwXwXtXtXtXtXtXtXIXUXIXS.y.XXi.i.|.[.[.|.IXUXLXrXrXrXrXrXrXdXdXdXdXuXuX1Xe a d d d s :X-X-X!.*X^.~.",
"@XR.Q.*X=X*X*X-X-Xy t t t t y <X-X!.(.(.^.^.{.oXE.U.i.r.e.t.e._.L.eXUXUXZXt.s.`.[. X+X+Xw.aXUXUXVX< Q.s 1 7 q N N i 4 z f B A A u 0 V C C s y y :XR.@X",
"@X%XQ.%X%X*X%X@X*X*X*X%X%X%X-X!.(.(.(.(.^.&Xl.l.{.+XoX].i.i.x.s._.CXUXUXrXE..X'.c.[.+X+Xw.SXUXUX1X@X#X:X:X9 @ 9 9 * p A A M B A e 0 M C w u N 8 *XQ.@X",
"Q.Q.*X*X=X%XQ.%X%X*X%X%X%X*XQ.(.(.(././.~.Y.c.c.l.{.+XoXoX Xu.x.p.LXUXLX+X[.oX+Xl.j.+X,X;XIXUXJXh.!.-X1 y V u i p 6 B B B 2 3 A A A A A p p N r *X%X@X",
"!.Q.*X=XQ.^.R.%XR.Q.Q.Q.Q.^.^.^.^.^.oXoXoX{.l.c.c.l.[.+XoXoX{.x.wXUXUXCXT.Y.j.^./.^.(.T.hXUXUXaXX <X:Xt + w A A A x 6 6 B Q 3 x x f x Z x p u y !.Q.Q.",
"Q.Q.R.R.Q.R.Y.R.R.R.^.^.^.~.oX[.{.].].[.oXoX].c.j.j.Y.~.R.l.{.T.ZXUXUXpXY.(.k.f.(.>X(.f.SXUXIX1Xo -Xd N 0 w A A z x 6 f x 3 Q k 6 5 h ! 5 p u y !.!.!.",
"*XQ.R.R.R.R.{.[.{.{.{.oXoX[.[. Xi.p.p.p.'.oX[.p.j.j.l.R.R.k.k.^.IXUXLX$X@X>XQ.f.%X>Xs 1XIXUXGXs s s d d A A A z c x x c c l Q Q 5 v n h 5 M u y *X*X=X",
"%XR.R.R.[.[.'.'. X[.[.oX X`.`.`.i.s.s.u.u.].oXoXY.l.l.l.l.g.X pXUXUXCXs :X>X:X*X!.:X7 hXUXUXaXq u 0 N A i 3 f x 5 ! m ] ] ] v ! v v g c k e u r *X%X#X",
"Q.~.{.].'. Xi.i.}.}.`.`.`.5X5X5Xy.a.s.r.u.u.].oX/.^.&Xf.f.f.X SXUXUXdXs >Xd y @ 8 y + HXUXIX1XN i * 9 M 2 & 3 k Q Q h ' ' v > [ ' b h 6 B N t r *X=X%X",
"^.oX[.i.}.}.d.d.B.B.B.3X3X2X2X2X3XA.r.r.u.u.u.[././.Q.h.z.X z.IXUXLXs V C d N O O 9 yXUXUXGXN A A 0 2 B k Q 5 h ! ! v ' [ U K , R v c 6 i e y r %X=X(.",
"l.'.'.d.).3X3XB.m.C.C.Z.6XZ.Z.6X2XB.A.r.r.u.u.].~.,X(.@Xz.X aXUXUXhXq w 0 M A e * . hXUXUXaX. p A A x c c x c ] n j U E ( R E W U v ] f 2 w y *X-X(.^.",
"]. X}.B.B.B.B.Z.V.V.G.H.V.F.F.V.M.6XB.a.r.u.x.p.R.(.!.*Xo X SXUXUXyX2 0 . . i A i . KXUXIXi & Q 5 3 l ] ] ' ' ' [ U % Y ( _ _ n g x 5 i 0 t :X%XQ.^.R.",
"}.).B.B.N.N.V.H.-.*.*.*.@.D.D.D.F.Z.6X3Xd.s.u.p.Y.$X*X-X7 #XIXUXJX& * 2 * & = 6 z uXUXUXDX5 Q 3 Q & Q h ' [ n [ _ E Y W _ _ , U Q 5 Q p e u -X(.R.R.].",
"}.3XB.N.V.H.G.*.:.:.;.:.@.D.D.D.v.V.4X5X`.}.i.l.k.h.h.$X7 aXUXUXsX& = * Q & & = 4 lXUXUXgX5 ! l 5 $ & ! [ ; ; _ _ _ ( W , , K K ! k M A u -X=X$XR.].i.",
"3XB.N.V.G.*.:.%.#.$.6.6.%.#.D.D.b.C.3XXXXX[.p.j.f.z.z.@ @ SXUXUXyX& & & Q & & & Q PXUXPX{ v h ] v ! ! b [ R , _ ) ) R D U , ^ g Q 3 N C y -X@X^.oX'.}.",
"3XN.H.G.@.%.$.7.5.5.6.6.;.*.F.v.b.A.d. XoX{.l.k.f.z.+ O yXIXUXHX& = & & Q ! Q $ uXUXUXlX' [ [ [ n ; E , ( ( ( W ( ( R L E ' c 5 3 i 0 y -X-X^.{.'.).y.",
"6XZ.G.@.#.6.6.5.8.8.5.6.=.*.Z.C.n.n.s.p.{.R.&Xf.z.+ + X sXUXUXsX$ = & J J ! ^ K AXUXUXgX) [ [ [ R I I Y W ( H F H , ( E j m c 3 M C u :X-X(.+XoX`.3X2X",
"Z.G.:.$.6.6.4.4.4.<.5.%.*.H.N.N.n.r.r.c.l.&X@Xf.@ + O . HXUXIX~ & & % J K ^ n / PXUXPX[ _ [ _ ( U L D D H W F # I > [ n g k l A A w y %X@X^.OXXX5X4XZ.",
"H.G.%.6.5.4.4.4.8.<.#.F.H.C.n.n.a.r.u.c.j.g.h.f.+ + . yXIXUXAX$ & % % J U ; > gXUXUXlX( _ _ _ _ R D D D H W Y I Y U b ] k * i A V 7 %X@X~.{.'.`.3X6XV.",
"G.%.6.8.4.0.4.6.6.#.@.G.V.n.n.r.s.u.x.j.k.f.f.@ + O . sXUXUXiX$ & % % L K R > FXUXUX| ; W W ( _ } H F F R ( , R K J ^ ] k 2 e w <X:X=Xl.oX'.`.3XZ.Z.H.",
"%.6.8.4.2.2.4.6.;.@.F.F.N.B.a.s.s.c.j.k.f.z.@ + O O * KXUXIX~ $ % % % L L I ^ IXUXKXR H H H R W ( } E E , [ n U J Q ! k A A 0 9 <X>X^.j.[.`.B.N.V.G.G.",
"6.6.4.2.2.,.6.;.=.F.F.C.M.3X`.'.p.j.k.f.f.@ + O O . yXUXUXAX$ % % % L D P F iXUXUXkXG F D D F R ( _ _ _ [ [ U ! h Q = 3 A C u #X=X^.{.[.`.3XB.N.G.@.%.",
"5.4.2.2.,.8.7.:.*.G.C.N.3X`. X[.Y.l.f.f.@ @ @ O * . kXUXUXiX$ J L L D D P D AXUXUX/ G D D D P I W _ [ ' [ n j m x 3 2 e C :X:X#X@Xl.'.}.a.B.6Xb.*.;.6.",
"4.2.1.2.4.6.:.*.H.V.N.B.`. X].p.&X@Xh.o 9 9 9 O * * KXUXIXJ % L L D D D D T IXUXFXH H F D D P I E [ ' [ [ { c x k p M u 8 -X:X=XOX[.`.`.B.N.Z.G.%.6.5.",
"2.2.0.4.5.%.:.H.V.m.B.`.XX[.Y.l.g.#X$X8 0 i 0 2 . yXUXUXAX# J L P D D D   iXUXUXsXF Y I L L P U ; [ ' [ { ] f 3 . 0 u @ @ !.>X/.+X}.d.B.N.6XH.:.#.5.8.",
"1.4.8.6.$.:.*.V.m.m.).`.oX{.&X@X#X#X8 u M M p 3 $ kXUXUXiX# I P D D D D D FXUXIXT F Y U U K Y ! b ] ] ] { c 6 . . 9 u 9 %X/.R.].XXd.3X6XV.G.F.%.5.8.2.",
"2.8.6.$.%.F.V.Z.B.).XXoXOX^.@X#X#X8 w N B B k 5 Q KXUXPXP L P D D D P D T IXUXFXD P I U ^ ^ ^ b m c x f x A e 9 9 y <X-X>X^.j.].XX3XN.Z.H.G.@.7.8.,.1.",
"8.6.$.%.F.V.6X3X`.`.[.{.^.-X-X*X0 w p B B x k - uXUXUXkX# I I P P P P # sXUXUXiX# J J U j n n c x 6 3 3 i N C u y <X=X(./.[.'.`.3Xn.b.V.F.D.7.8.,.1.1.",
"5.#.%.*.V.C.3Xd.|.[.R.@X$X<X<XV e M B l l l h - kXUXUX/ F I L L P P L % FXUXIX~ % J J Q g m c x k 3 * . 9 w s :X!.#Xf.R.+X.XXX5XB.C.V.F.@.#.5.4.2.1.4.",
"7.@.*.H.N.B.}.|.'.R.&X$X%XV C C A B f k g 5 ; ^ PXUXKXI F I L L L L % ~ UXUXAX$ J J Q Q 5 m x B i 2 . O O t :X:X%Xz.g.[..XXX5X3XC.V.F.@.6.5.4.2.1.4.5.",
":.*.G.N.B.).'.{.^.R.*X*XV C N B A x l 5 U U K iXUXUXkXF I I L L L J # sXUXUXiX$ Q & Q Q 5 k 6 p i 9 O O 9 -X:X>X=X&X{..XXX5XB.B.b.F.@.#.5.4.2.1.2.8.7.",
"*.G.N.B.d.|.{.^.@X@X-XV C A B f x x h ! U U G AXUXUX/ F I L L J J J J KXUXIX~ $ * * * Q 2 2 2 9 9 9 9 9 *X:X>X^.&X].oXXX5Xm.n.N.b.@.$.6.4.0.1.2.4.6.;.",
"H.N.B.).}.{.^.%X#X8 u e M B x m v v ; U U I Y IXUXKXY I I I J J J $ yXUXUXAX$ * * * * . . O O O O @ 8 -X:X>X^.l.j.p.`.5X3Xn.C.C.F.%.6.4.4.1.2.4.5.6.:.",
"V.B.3X}.].&X=X-Xt w e p k l v v n , E Y Y G iXUXUXkXG U K K J J Q $ kXUXUXuX& * * * . O O O O + + @ #X=X(./.].j.u.}.5X4XZ.b.V.G.#.7.8.,.2.2.4.6.6.=.*.",
"N.3X`.].&X=X*Xy w i 6 l l v j > ( , W R Y G FXUXUX| ; U U J J Q Q Q KXUXIX~ * . . . O O O + + + @ z.h.h.&XoX[.p.|.5X4X6XV.V.*.%.7.6.4.2.2.8.6.6.%.*.Z.",
"3X}.[.R.%X*Xy w 3 6 k h j E U U E W , W R / IXUXKX[ n j ! Q Q Q $ yXUXUXAX& * O O O O O + + @ @ f.f.f.k.l.[.}.a.d.3X6X6XH.-.:.6.5.4.2.2.8.6.6.;.*.V.m.",
"i.].^.Q.*Xw e p 6 g g j E R U U U b n [ > gXUXUXlX> n m 5 Q Q Q $ AXUXUXuX. * O + @ 9 9 @ z.f.f.k.l.l.p.[. Xs.r.A.6X6X-.=.=.6.5.4.2.1.8.5.6.;.*.Z.m.d.",
"].^.(.*Xt e B l g g E W E R U U ! b n [ ( FXUXUX/ h m k 5 Q Q * Q PXUXPX* O + + @ @ #X%X#Xh.f.k.k.p.[. XXX}.r.A.B.6X-.=.:.7.6.4.2.1.4.5.7.%.@.G.Z.3X|.",
"^.(.*Xt e f l 5 U R , b ^ ! 5 h h v n : { UXUXFX5 3 6 5 2 Q Q . uXUXUXCXX + + @ o h.%X=XR.l.l.j.p.'.`.XX5X3XB.m.C.G.*.%.#.5.4.2.1.2.8.6.;.=.G.Z.3X'.{.",
"Q.*Xu p 6 k v > W , n b h g h m m m m : jXUXUXsX- Q 3 2 2 . O . AXUXUXpXo @ @ f.h.@XR./.OX{.].u.u.s.d.5X4X7XB.b.F.*.;.7.5.4.2.1.2.8.6.;.=.-.N.B.}.OXOX",
"*Xw e k 5 g ; > > b j h 5 5 l x l k l x GXUXUX~ . 2 2 0 9 O O 9 IXUXLX%X#Xh.h.g.&XR.^.oXoX[.p.u.u.r.a.3X7X6Xb.D.@.;.6.6.4.0.1.2.8.5.%.:.F.C.B.).[.R.$X",
"u e 6 g ^ R E > b j h k 6 i i p 6 6 f 1XUXUXGX4 9 9 0 0 9 O X aXUXUXCX< Q.R.&Xl.l.p.].[.XX}.s.r.r.r.m.6X6XZ.G.@.;.6.6.4.4.1.2.4.5.7.:.*.C.B.3X|.^.@X#X",
"e f m ^ E W E ; g l k i i i 0 0 i M f hXUXUXhXq t 0 t y 8 @ X SXUXUX1XQ./.~.Y.l.j.c.u.|.`.`.d.r.A.A.N.Z.H.H.=.%.7.5.4.4.2.2.4.8.7.%.*.H.N.3X'.Y.%X#X8 ",
"f l b [ W W b h l M e w w u w 0 w w q JXUXIX;Xs :XV <X<X*Xo #XIXUXJX@X^.+XOX].u.c.c.s.a.3X5X3XB.N.V.H.G.F.@.%.7.<.4.0.2.0.4.8.6.;.@.Z.Z.B.|.{.=X*X8 M ",
"5 U W W W b m f M N V V s V y t t o ;XUXUXSXr :X:X:X:X:X=Xo aXUXUXNXg.Y.[.oX'.u.c.x.r.a.B.2X7X6XZ.-.G.D.D.#.6.5.4.0.2.2.8.8.7.%.*.V.C.5X`.].@X$Xy e B ",
"U R W W j h 6 M N s 8 r :X!.-X<X=Xo aXUXUXhXW.%X%X(.Q.(.^.g.SXUXUX;Xj.c.i. X Xi.u.s.r.A.N.6X6X-.-.=.@.#.#.7.8.4.0.2.2.8.8.6.%.F.-.Z.m.}.[.R.@Xt V i 5 ",
"R W W b v x e t y %Xf.h.Q.*X%X=X(.W.fXUXUXrXW.g.g.Y.l.l.{.OXUXUXJXw.c.u.s.).5X3XA.n.n.C.Z.Z.-.=.=.=.$.7.7.8.4.2.1.0.8.6.6.;.@.G.6XB.a.[.R.Q.t N B 5 U ",
"} W E m f e u r !.@Xg.Y.(.^.g.l.~.E.rXUXUXZXU.Y.l.].l.j.w.ZXUXUXvXi.u.r.a.B.4X3XB.C.C.V.-.*.=.=.;.;.6.6.8.,.2.1.2.8.6.6.$.@.-.Z.3Xd.p.[.$X:XN M 6 ! U ",
"W b v z A u 7 @X(.Y.~.~.oXoX'.].[.].oXIXUXUXrXU.U.U.t.p.MXUXUXIX0X).a.r.A.3X6X6X6XH.-.-.*.=.=.;.6.7.5.5.8.2.1.2.,.5.6.#.D.F.V.A.d.p.].^.#Xt M l v R W ",
"E v c B u :X%XR.{.].p. X'. XXX`.i.i.t.vXUXUXUXDXBXBXVXJXUXUXUXtX_.5X3XB.M.6X6X6X-.-.*.*.@.@.$.6.6.5.8.8.,.2.2.4.8.6.%.D.F.V.n.d.|.{.^.:Xy e k g n , W ",
"h l B C -X!.^.[.[.i.i.}.}._.`.`.).).d.e.VXUXUXUXUXUXUXUXUXUXvXe.3X2X7X6XZ.Z.-.-.=.=.:.@.D.#.7.5.4.8.8.,.2.2.4.8.6.;.:.F.F.B.S. X].R.%X:XN 6 k j W W > ",
"c A u :XQ.R.[.|.`.y.).).).4X2Xm.M.P.2XB.t.tXDXIXUXUXUXIXZXeXt.B.n.N.6XV.b.G.-.=.=.=.;.%.#.5.8.8.4.8.2.2.2.4.8.5.6.:.F.b.m.5XXX{.Y.Q.8 0 M h ^ E R > j ",
"M A y !./.oX|.).).2X2XM.2XN.Z.C.N.6X4XB.d._._.0XtXtXwXS.t.2X5X3Xn.b.V.V.D.F.G.=.:.;.;.7.5.5.<.,.2.2.2.2.4.8.7.$.=.F.v.n.B.XX+X+X(.8 0 p x b , W E ; 5 ",
"e y >X,X.XXX).4XP.P.M.P.o.V.o.Z.N.m.A.).`.}.i.).y.y.t.a.A.3X7X6XN.V.H.G.F.D.F.;.%.6.6.6.5.,.2.1.1.2.,.4.8.5.#.@.*.V.Z.B.a.'.{.(.-Xt A l n E W ( U g k ",
"C !./..X`.y.N.P.P.o.o.I.-.*.P.M.m.3Xd.}.`.).).}.d.d.d.B.B.6X6X6X6X-.*.G.G.@.%.6.7.5.6.8.4.2.1.1.2.4.4.8.6.#.#.*.6X6X4Xd.p.[.&X!.8 M k g [ ( W , g x N "
};
