/* XPM */
static char *d2e443724c8247eee5d614414b3e5189DZXRiRLZobnO5Ugn[] = {
/* columns rows colors chars-per-pixel */
"75 75 256 2 ",
"   c #BB786A",
".  c #B16C72",
"X  c #AD777A",
"o  c #B67777",
"O  c #BB7B73",
"+  c #B57B7B",
"@  c #D67D48",
"#  c #CB7551",
"$  c #C87859",
"%  c #D37E58",
"&  c #CA7665",
"*  c #C87A65",
"=  c #C37C6B",
"-  c #C27C73",
";  c #B9905C",
":  c #BBA859",
">  c #B0B45A",
",  c #B7B75A",
"<  c #BCBC5C",
"1  c #988D7E",
"2  c #9B9A78",
"3  c #AD8A69",
"4  c #BB896B",
"5  c #A9976A",
"6  c #B99769",
"7  c #B49B6C",
"8  c #AA8579",
"9  c #AB8D7C",
"0  c #B78574",
"q  c #B38C74",
"w  c #A49773",
"e  c #AD9576",
"r  c #AC9C75",
"t  c #A5957E",
"y  c #AA947B",
"u  c #A59B7D",
"i  c #A99B7A",
"p  c #B49474",
"a  c #B29A73",
"s  c #9BAE6D",
"d  c #9AA97C",
"f  c #9CB67B",
"g  c #AAA86A",
"h  c #ADAB6D",
"j  c #BBA464",
"k  c #B7A967",
"l  c #BCAB64",
"z  c #B4A36B",
"x  c #B3AC6A",
"c  c #ACB56D",
"v  c #A9B96A",
"b  c #B4B464",
"n  c #B6B865",
"m  c #ABA374",
"M  c #A8A577",
"N  c #A6AB74",
"B  c #ABAB73",
"V  c #A4A37B",
"C  c #A3AB7B",
"Z  c #B3A974",
"A  c #A5B374",
"S  c #A5B677",
"D  c #ABB472",
"F  c #B8B477",
"G  c #D8854A",
"H  c #CF964F",
"J  c #D2954E",
"K  c #CB875A",
"L  c #D48454",
"P  c #DB8754",
"I  c #D38A53",
"U  c #D2845B",
"Y  c #C8975A",
"T  c #CAA550",
"R  c #C4A859",
"E  c #C4B458",
"W  c #C58666",
"Q  c #C39564",
"!  c #D1906F",
"~  c #E29D6F",
"^  c #C1A564",
"/  c #C5B465",
"(  c #CEA978",
")  c #B9C55A",
"_  c #B2CA59",
"`  c #B4CC5C",
"'  c #9DC075",
"]  c #ACC568",
"[  c #ABC56D",
"{  c #B4C567",
"}  c #B3CB63",
"|  c #C4C25A",
" . c #C8C475",
".. c #7E789D",
"X. c #715BBB",
"o. c #7976AA",
"O. c #7E7BAC",
"+. c #7D6DB5",
"@. c #7566BA",
"#. c #7B65BD",
"$. c #716BB8",
"%. c #756CBE",
"&. c #7B6CBB",
"*. c #7577B6",
"=. c #7D75B5",
"-. c #7D7AB3",
";. c #7572BC",
":. c #7A73BB",
">. c #6D5ECE",
",. c #735EC8",
"<. c #675BD4",
"1. c #6A5DD2",
"2. c #6E69C5",
"3. c #6E63CC",
"4. c #7465C5",
"5. c #7767C4",
"6. c #746BC3",
"7. c #7164C9",
"8. c #7A73C7",
"9. c #6B60D0",
"0. c #786CD5",
"q. c #9A7888",
"w. c #926C92",
"e. c #996C99",
"r. c #8B7A9B",
"t. c #997797",
"y. c #9A7C95",
"u. c #94749C",
"i. c #9A749B",
"p. c #937B9C",
"a. c #A76D8B",
"s. c #A77687",
"d. c #AC7B84",
"f. c #A37C8B",
"g. c #B47482",
"h. c #A37794",
"j. c #876BA9",
"k. c #8B6CAB",
"l. c #936DA3",
"z. c #8C74A5",
"x. c #857DA5",
"c. c #8C7CA3",
"v. c #8879A7",
"b. c #8575AD",
"n. c #8974AA",
"m. c #847CAB",
"M. c #9373A1",
"N. c #927BA4",
"B. c #8465B5",
"V. c #836CB3",
"C. c #8274B2",
"Z. c #817AB1",
"A. c #8A7ABB",
"S. c #A27CA8",
"D. c #8579C5",
"F. c #7C84AA",
"G. c #7384B2",
"H. c #8D878D",
"J. c #9D848D",
"K. c #958A8A",
"L. c #9C8C8C",
"P. c #8D978C",
"I. c #949185",
"U. c #9D9486",
"Y. c #9D9C85",
"T. c #95948D",
"R. c #9B938B",
"E. c #949B8C",
"W. c #9B9A8A",
"Q. c #8D849D",
"!. c #888999",
"~. c #8C8B9C",
"^. c #958595",
"/. c #9A8592",
"(. c #948C94",
"). c #9A8B92",
"_. c #92839A",
"`. c #9A859A",
"'. c #928A99",
"]. c #8D9395",
"[. c #8A9896",
"{. c #8C929C",
"}. c #939393",
"|. c #979596",
" X c #929A92",
".X c #A58585",
"XX c #AA8782",
"oX c #A58D84",
"OX c #A2848B",
"+X c #A28B8A",
"@X c #A39383",
"#X c #A49587",
"$X c #A29B82",
"%X c #A48694",
"&X c #B39094",
"*X c #97A787",
"=X c #9CA483",
"-X c #92A790",
";X c #A6A585",
":X c #B1AF93",
">X c #8484A4",
",X c #8B83A3",
"<X c #858BA3",
"1X c #898BA1",
"2X c #8482AA",
"3X c #8789AA",
"4X c #9889A6",
"5X c #8E90AE",
"6X c #9595A8",
"7X c #8886B6",
"8X c #B098AF",
"9X c #9DA1AD",
"0X c #B1AEB1",
"qX c #CB968C",
"wX c #D1AC94",
"eX c #E5B395",
"rX c #C897A3",
"tX c #CFB3B1",
"yX c #E1B7AA",
"uX c #BAC591",
"iX c #BDC1B1",
"pX c #CCCD92",
"aX c #CCCDB0",
"sX c #D8C8B8",
"dX c #D7D8B8",
"fX c #E7CCB3",
"gX c #DAE3AE",
"hX c #978DCA",
"jX c #A499CF",
"kX c #B6ADCE",
"lX c #C6B8C6",
"zX c #CDBACC",
"xX c #C2BFE1",
"cX c #CBCACC",
"vX c #D8D8C8",
"bX c #D9CAD6",
"nX c #D8D5D9",
"mX c #E3C8C7",
"MX c #ECD8CB",
"NX c #E7DADA",
"BX c #DDE2DA",
"VX c #E4E7C9",
"CX c #E6E7DA",
"ZX c #F4E7D8",
"AX c #F1F1DD",
"SX c #D5D4E8",
"DX c #E4DCE4",
"FX c #EBE7E8",
"GX c #F5EBE7",
"HX c #EEF0E4",
"JX c #F6F4EC",
"KX c #EBEAF3",
"LX c #F3EDF2",
"PX c #F4F2F4",
"IX c #FAF6F6",
"UX c #FEFEFE",
/* pixels */
"#XW.|.6X6X5X7X7X7XA.A.7X7X5X5X5X4X6X4X6X6X4X4X4X4X4X4XN.4X5X5X7XA.7XA.A.D.D.D.D.8.0.0.0.0.0.0.0.0.8.8.8.D.D.7X7X5X6X6X6X9X-X:X;X;XF (  ./ | / F F S ;X",
"f.(.!.r.x.o.o.*.+.$.$.*.-.F.F.>X!.Q.t.~.'.p.e.Q.!.r.r.z.v.v.m.=.B.&.;.@.#.4.4.,.>.>.>.<.<.<.<.>.>.2.6.%.&.+.b.2X,Xu.p.].T.W.@Xd A c { } ) ` , v A V d ",
"}.^.Q.v.m.V.B.;.@.;.*.-.O.v.c.~.~.~.'.'.^.'._.~.~.p.c.c.m.k.b.-.:.&.6.6.6.6.7.3.3.1.<.<.1.1.3.3.4.6.;.:.V.B.k.,XN.i.^./.f.8 9 S D n { ` ) } c 4 M t d.",
"(.~.l.n.-.#.@.%.%.G.G.O.F.<Xr.Q.^.].}.(.^.^.'.~._.p.c.z.v.b.=.=.:.;.6.6.6.3.3.3.1.<.<.1.3.3.7.6.6.:.;.=.V.k.c.1X~.'.(.f..Xt C B c ] ` ` , k v r u Y.R.",
"_.c.j.=.*.#.@.2.$.G.F.x.<X!.p.].^.}.}.}././.y.p.~.c.z.v.v.-.=.+.&.6.6.4.7.3.>.1.<.<.9.3.3.7.6.6.:.=.*.-.b.v.1X{.{.}.f.d.=X;XM W x n E ` Q z ' f =XL. X",
",Xv.j.*.;.,.4.%.*.O.x.>XQ.~.^.(./.E. X X(./.'.'.~.p.c.v.n.C.C.&.%.6.4.4.7.>.1.<.1.3.7.3.4.4.6.:.:.C.Z.b.k.z.1X{.[.}.f.XX=XC 4 6 ] R R ] k m e =X*X).'.",
"x.j.B.&.@.4.2.%.=.F.>X!.].(.(.J.T.R.E.L.(.(./.(._.u.c.n.b.Z.C.+.&.6.6.4.7.1.1.9.3.7.4.4.4.4.&.:.V.V.b.z.l.M.~.{.}.L.s.8 C m 4 c ] ) b v ' r t *XE.].~.",
"v.V.B.%.%.4.%.=.m.>XQ.].[.T.L.L.R.U.W.R.T.}././.^._.z.v.m.Z.C.&.%.6.6.7.3.3.3.3.7.6.6.6.%.&.:.=.V.k.b.m.M.p.~.}. XL.d.8 C D c b : , Q c S d *X-X-X[.Q.",
"O.=.;.;.6.$.*.F.>XQ._.}.T.L.U.U.@X@X#X*XW.J.).).'.p.c.v.n.C.V.&.6.6.6.7.3.3.>.7.4.6.&.&.&.:.*.-.b.m.2X>X1X~.'.y.T.R.8 i S S c K Y k z m e $XR.-X[.Q.c.",
"b.-.;.%.%.*.F.>XQ.!.^.T.R.U.@X@X@X@X@X@XU.L.)./.^.p.c.v.b.Z.:.&.6.6.2.7.3.>.7.4.6.&.#.&.+.+.-.-.m.m.>X<X1X{.(.J.T.Y.=XC A ' v l k c S r u $XR.-X[.!.x.",
"O.=.*.;.*.O.x.!.].}.T.U.oX@Xt u t t $X$XY.U.T.).^._.N.z.b.-.=.:.6.6.3.2.2.6.4.6.6.&.+.#.B.V.-.m.n.l.c.1X{.].}.R.W.*Xu q m D j n v S S V =XW.T.[.~.,X>X",
"O.G.G.;.V.x.Q.'.].T.U.oXoXt t V M u t t @X@XT.).(._.p.z.m.Z.+.@.@.4.2.6.6.4.6.;.&.+.+.V.V.V.m.2Xv.M.r.!.r.H.f.f.oX=X9 0 m 6 W x ' f C @X@X-X}.[.!.z.v.",
"F.G.*.=.v.r.p.(.L.U.@Xt i i i C M i u u $X.XU.T.(._.p.c.m.o.A.hXhXD.2.4.6.6.;.&.+.=.=.C.C.b.m.c.c.r.4X9X8X&Xf.d.@X=XM N z W 4 h f f f @X+XL.^.[.~.c.>X",
"O.-.=.x.r._.(.L..X@X$Xi V i r V M i i u $X@XW.R.(.^._.z.N.cXPXUXUXIXSXD.@.*.*.+.=.-.-.b.k.z.2Xv.,XcXPXUXUXUXFX0Xd *Xf A 6 6 h A f f *X*XE.E.(.^.{.<XF.",
"F.F.v.Q._.y.T.U.@X$Xu M M M r e r i y y $X=XW.R.}.'.u.4XKXUXUXPXLXUXUXLXhX*.=.V.V.m.b.m.n.c.>X5XFXUXUXIXPXUXUXUXiX2 S B x c S f f f =X*XE.E.].].~.>X>X",
"F.>XQ.'./.OXR.@X@Xt i i e r r e e M M V ;X@XU.T.}.'.p.FXUXPXkX7XV.jXKXUXSXo.C.O.m.x.m.>Xc.c.,XFXUXIXlX|.h.&XCXUXIX;XN 4 6 D A N f d Y.=X*XT.(.[.!.{.>X",
"!.{.].].L.R.Y.@X9 i i e e r M M r e y u =X@XOXJ.}.H.cXUXIX9Xo.G.*.$.jXUXIX7Xj.2Xm.x.c.,XM.r.lXUXIX0Xq. XT.I.*XPXUXaXs 4 7 m a i V u @X.XE.J.(.[.'.Q.!.",
"'.(.}.E.L.U.@X@Xu y e e e r M M M e 9 9 Y.U.OXf.K.|.PXUXlX..3XF.F.F.7XPXUX8Xj.z.x.c.,X,Xu.N.LXUXcXH.%XJ.E.-Xd vXUXvXs D 7 p q 0 u t =XW.*XE.E.[.(.^.~.",
"^.K.T.R.U.oXoX$XV y q y M e e r M i 9 XX@XW.L.%Xq.0XUXPX6X1X3XF.x.j.3XPXUX0Xr.c.<X1X~.{.!.0XUXIX%X(.L.J.W.*Xd vXUXvX5 S D B r i i 8 =XY.*X*XT.L.T.(.].",
"L.L.J.U.U.oX@Xt t i y i i i i i M V @XoX#XW.E.T.H.nXUXnX!.<X<X<X<Xj.S.UXUX9X!.1Xp.~.p.].H.nXUXnXH. XL.W.*XXX2 CXUXdXs S B r S f V d *XY.=XY.W.W.W.T.(.",
"L.L.OX@X@X@X$X$Xu u y 9 y i M V V $XY.Y.R.R. XP.9XIXUX8Xr.1X<X<X<X..kXUXLXi.r.{.p.p.^.^.|.PXUX0XP.-X+XoX*X8 ;XIXUXuXA B q q r f f f f d =X$X$XY.@XR.T.",
".XL.U.@X@X@X@X$X$Xt y y y t u ;X$XY.Y.W.R.L.).K.cXUXLXi.i.p.p.!.{.!.DXUXcXr.i.~.(.'.[.H.tXUXPX|.E.R.U.*X=X8 tXUXJXp 7 N N A S S i q M C C d t u *XL..X",
".XoXU.oXoX@XoXXX@X@X@XoXoXoX$XY.Y.W.W.W.T.OXf.y.FXUXcXq.y.t.e.i.!.6XUXUX0X[.].^.h.(. XT.NXUXbXq.+X.XXX=X=XX NXUXmX  a D A m B A r q M S e i V 9 @XU..X",
"U.U.@X@X#XoXU.oXoX@XoXoXoX@XU.W.W.W.E.E.T.OXa.8XUXUX0X].|.'.h.a.w.lXUXKX X(.}. Xf.f.E.:XIXUX8Xs.d.Y.$X$Xw :XUXUXwX7 B B B 4 4 A A A A D a a V t @XoX.X",
"Y.U.@X#XU.R.L.+XL.U.U.U.U.R.T.R.T.T.}.}.}.).q.zXUXFX(. X}.}.(.h.a.FXUXzXK.OXa.T.E.R.I.aXUXLXW..Xg.;X*Xt . sXUXHXD c 7 7 B W 4 D c z D Z D a i u Y.U.U.",
"U.U.L.L.U.L.J.L.L.L.R.R.R.T.}.(.)././.(.}.}./.FXUXlXq. XL.f.).K.8XUXUX&X.XW.a.s.W.*XW.FXUXvXd $X+ $Xf V q GXUXdXv D 6 h c 4 W z 7 6 x Q 6 a i u Y.Y.Y.",
"@XU.L.L.L.L.).(.).).).}.}.(.(.'.y.y.t.t./.H.0XUXUX&Xs.L.L.s.a.K.vXUXFX.X.X*XU.d.oXd :XUXUX:X2 =Xd d f s uXUXUXuXv c c v v x W W 6 b n k 6 M i t @X@X@X",
"+XL.L.L.(.(.^.^.'.(.(.}.'.~.~.~.p.i.i.i.t.q.bXUXDXs.f.f.f.s.a.d.LXUXaXd =X*X=X@X;X2 cXUXFXd y y i q M s vXUXCXg 6 Q x ] ] ] b Q b b j v z r i t @XoXXX",
"U.T.)./.^.'.p.p._._.~.~.~.1X1X1Xp.u.e.e.e.h.PXUX0XK.OXs.g.g.. rXUXIX:Xd *Xf u + 9 u GXUXaXs C V e - 0 M JXUXaX; W W k ] ] b , { } n l 7 B N y t @X@XoX",
"T.}.(.y._._.p.p.c.c.c.,X,X>X>X>X,XM.e.e.w.8XUXIX-XE.U.d.g.g.. mXUXCXd C C f C O . qXUXUXqXw N S N 4 4 pXUXIX( k Q Q b ] { Y I < R n v 6 p r u t oX@X#X",
"f.^.^.p.Q.,X,Xc.z.z.z.m.2Xm.m.2X>Xc.M.e.w.bXUXnXI.-XW..Xg.. g.PXUXtXw e q M A a . mXUXNX  0 O a D D g VXUXVXv ] n l Y R ) R E E Y b [ h 4 e t @X$XW.R.",
"/.'._.c.c.c.c.m.b.b.C.Z.b.V.V.b.x.2X,Xu.S.IXUX0XK.W.Y.@X+ . rXUXPX- 0 q O   a N a JXUXaXg p & W 6 4 F IXUXpX] ] { Y % H ) ` ` n l c 6 p q y =XoXU.T.L.",
"_.~.c.c.v.v.n.Z.-.=.=.=.+.B.B.B.V.x.3Xr.kXUXLX%XJ.+X@X$X9 . MXUXmX  = 4 = & = 6 pXUXIXS v 7 W W W $ eXUXJX{ , { ` R J E ` ` < Y Q 6 W a e i $XY.L.L./.",
"_.,Xc.m.b.Z.C.=.:.:.;.:.+.B.B.B.B.n.<X!.FXUXbXw.s.d.d.XX9 &XIXUXwX& & = W & & $ MXUXVXv v 6 Q x Q $ MXUXVX: R ` ` ` ) E < < K W Q z m S i $XoX+XL./.y.",
",Xc.m.b.C.=.:.&.#.%.6.6.&.#.B.B.k.z.!.9XUXUX8Xa.s.g.g.+ X tXUXLX= & & & W W & ! IXUXpX] [ b k ] > ( UXUXpXR < ` ` ` T P Y n ^ j W 4 N C u $X.XT.}.^._.",
",Xv.Z.C.+.&.%.4.4.4.6.6.;.=.B.k.k.M.r.lXUXFXf.s.g.g.o o O NXUXfX$ & & & W Q $ eXUXJX[ ] ] { { { > aXUXJX{ ) ) E ) ) T L R ] v 6 4 a q t $X#XR.).^._.r.",
"2Xm.C.+.#.6.6.4.7.7.4.6.:.-.m.n.l.l.i.FXUXcXq.g.g.o o   qXUXUXqX& & * % K Q R ZXUXdX> } } } } { R ZXUXfXT ) H G J < { / l n c 6 m C u =X$XW. X}.~.1X>X",
"m.C.:.%.6.6.3.3.3.,.4.&.-.Z.m.v.l.e.8XUXUX&Xf.d.+ o -   yXUXGX& & % % K K :  .UXUXpX_ } } } } , ( UXUX~ J E I G I , } n j z x A S e u oXOXR.}.].1X<Xm.",
"C.C.&.6.4.3.3.3.7.,.#.V.Z.b.l.l.M.w.zXUXDXs.d.d.+ o - - GXUXyX# % % % K Y : gXUXHX{ _ ) ` ` } ) gXUXZXG J E H I H Y n { z * 7 S V 8 oX.X}.).^.~.,X2Xb.",
"C.&.6.7.3.9.3.7.6.#.+.C.b.l.l.e.e.h.LXUXtXX d.+ o O   qXUXUX! $ % % % U K R AXUXgX, E E E E ) ` JXUXeXG T ) < R K U ^ [ z 4 a e ;X=X#Xf.}./.~.,Xm.m.Z.",
"&.6.7.3.1.1.3.6.:.+.V.V.m.c.u.i.w.8XUXIX&XX + o o O   fXUXZX$ % % % % L @ ( UXUX ., T J J J T pXUXUX/ R < } < Y K W Q 6 N N 3 + ;X*XT.f.(.~.c.c.b.C.C.",
"6.6.3.1.1.>.6.:.:.V.B.z.x.1X~.^.q.bXUXNXX + o o O O W JXUXeX# % % % % L @ fXUXZXE E J G G G G fXUXVX_ } } { Y Q k ; qXsXCXCXsX&XoXR.(.(.'.,Xc.v.C.=.&.",
"4.3.1.1.>.7.6.:.=.C.n.v.,X!.'.^.%XIXUXtXX + o O O   wXUXIX! % % L L L G P GXUXeXJ T J G G G P JXUXpX_ } } n l n g sXUXUXUXUXUXLX8Xq.^._.u.c.2Xk.=.:.6.",
"3.1.<.1.3.6.:.=.Z.b.c.c.~.'.).q.tXUXPXXX+ 0 0   =   MXUXMX# U % L L P @ ~ UXUX~ G H H G P @ eXUXIX{ } { { [ [ g aXUXUXCXtXsXJXUXKX).~.~.c.c.m.C.&.6.4.",
"1.1.1.3.4.&.:.Z.b.n.c.~.].(./.q.NXUXvX8 9 p q 4 = ! IXUXeX# U L P P P @ fXUXMXG P I H J L G MXUXVX> ] ] [ [ h p PXUXvXo . 1 :XIXUX8Xr.c.v.2XZ.:.#.4.7.",
"<.3.7.6.%.:.=.m.z.M.Q.~.}.T.J.&XUXUXwXw M m a 4 $ eXUXJXU L L P P P G P JXUXeX@ P L I Y I ~ IXUXpX> [ [ [ D 5 yXUXPX$XX oX*XL.FXUX0Xr.2Xm.C.V.&.4.7.1.",
"1.7.6.%.&.V.m.m.c.~.~.}.}.W.8 tXUXLXp M B D z 6 K MXUXfX@ L P P P P @ eXUXIXP L U L I Y R fXUXJXn v c c D D 5 NXUXvX2 ;X*XK.&XUXUX9Xv.2XC.C.+.4.7.>.<.",
"7.6.%.&.V.b.2X,X~.~.(.).R.$X$XFXUXmX5 Z D c z 6 ! UXUXwXG I I P P P @ MXUXfX@ U U U K Y l AXUXdXg z 6 4 a g :XUXUX:X@XW. XH.lXUXFXl.k.C.V.V.4.7.>.<.<.",
"4.#.&.=.b.n.,Xp._.(.J.OXoXu :XUXUX:Xg Z x x x ; fXUXGXI L L L I P L ! IXUXeX% U U K K K ( UXUXuX7 4 = = 0 w BXUXCX8 d.L. X].FXUXzXj.C.V.+.#.4.3.<.<.3.",
"6.+.=.Z.v.c._.`.^.L.OXoXoXu vXUXHXN h z j 6 j Y ZXUXfXG I L L L U @ eXUXGXU U U K K W ; sXUXHXh 7 4 O O   :XUXUXtXX s.).].0XUXUX4Xj.V.+.%.4.3.1.<.3.4.",
":.=.C.m.c.~.'.(.T.L.@X@XV C HXUXaXv x 6 Q Y Y ( UXUX~ G I I L L U U GXUXfX# W * * * * W GXUXsX5 p 0 O O X NXUXFXoXOX).].!.nXUXDXj.V.+.#.4.3.1.<.1.7.4.",
"-.C.v.c.p._.T.R..XXXu V N uXUXUX[ b l Y Y Y I fXUXZXI I I L L U # eXUXUX! $ * * * * $ qXUXUXqX  0 0 0 8 tXUXUX0Xq./.}.!.6XIXUXkXj.:.%.6.3.9.<.1.3.6.:.",
"C.v.c.,X_.).R.+XXX9 i e 5 aXUXHXb b R Y Y I J ZXUXfXG I I I K # ! IXUXfX$ * * * * =   mXUXNX  O o + 9 ;XLXUXnXq.a.y.~.!.cXUXKXb.V.&.6.3.3.<.1.3.4.6.:.",
"m.c.,X_./.+X#X$Xy e r a g dXUXVX> n R Y H H Y JXUX .H H I K K ! GXUXGXW * * = = = = - GXUXtX. + + + 8 CXUXPX%Xa.h._.!.6XIXUXkX+.#.4.7.>.1.1.3.6.6.:.=.",
"c.1X~./.+X@X@Xt r a 7 z > VXUXdX> < E R Y H Y JXUXpX: Y K K ! GXUXIXqX$ = = = O O   qXUXUXqXo + X X mXUXUX0XH.t.p.1XF.nXUXKX-.&.4.6.3.1.1.7.6.6.&.=.m.",
",X_.(.L.oX@Xt e q 7 j k : MXUXfX: / E E R R R ZXUXVX{ l ( fXIXUXIXqX$ = = = = O O o qXUXUXrX. X &XNXUXUXlXH.'.t.N.x.9XUXUXjX%.6.4.3.1.1.7.6.6.;.=.b.z.",
"p./.T.U.@Xe r a z j j l : fXUXMXY / n n < < , pXUXUXIXJXUXUXUXGXqX  = = - - - O o + + FXUXLXmXNXUXUXUXlXH.'.i.e.M.2XKXUXSX;.6.4.3.1.<.3.4.6.;.=.m.z.N.",
"/.T.W.@Xy e B x j l R E R pXUXGX^ n n { { n n , pXJXUXUXUXGXyXW   O     O O o + + + 8 :XPXUXUXUXUXFX0XH.{._.e.M.j.SXUXIXD.@.6.3.1.<.3.4.4.&.+.C.m.,X`.",
"R.W.@Xy a z x 6 Y R < n R ( UXUXpX> n n n n b k ; Q wXwXqXW     O O   tXtX. + + + d.oXU.#XtXcXlX8X/.!.{.1X,XN.j.kXUXUXjXX.6.3.9.<.1.7.6.;.:.C.m.,X'.(.",
"U.@Xi a 7 z b , E < n n l 6 CXUXCXx b n c c x 6 W W 4 4     O O O . tXUXIX&XX d.d..XU.W.T.H.q.w.w.i.p.1X<X3Xj.kXUXUXxXX.4.3.9.<.1.7.6.:.:.-.v.c._.}.T.",
"@Xe r z 6 j : < , l l x 6 6 wXUXUXsXg c c c h 4 4 4 0 0 0 O O . + mXUXUXUXNXd.d.OXL.}.}.}.(.t.i.e.e.M.,X>Xm.lXUXUXSX%.6.3.9.<.1.7.4.#.+.V.n.c.~.(.+X+X",
"i e 7 j ^ R E , n l x x 7 7 3 dXUXUXdXg 5 m B a 0 0 0 q 0 o . rXGXUXUXNXUXUXNX%Xq.q./.|.}.'.i.e.i.l.z.o.5XSXUXUXSX6.6.7.3.<.1.3.4.4.:.=.b.c.,X/.).+XXX",
"r h x / R E R : j x z 7 p p q 3 MXUXUXNXqXq w 2 w 8 w 2 9 rXNXUXUXIXtX1 iXUXUXPXlXh.w.r.!.Q.u.w.w.l.5XkXPXUXUXkX@.4.3.3.1.1.3.7.4.&.=.m.c.,X'.%X+XXX9 ",
"h x n { E E b k z m r e e i e q e sXUXUXUXNXsXaX:X0XaXvXFXUXUXUXNX&Xf.|.I.0XLXUXUXPXbXlX0X0X8XkXzXDXIXUXUXKXjXX.4.7.9.9.9.3.7.6.;.+.m.m.c.^.).#X@X9 M ",
"6 Y E E E b b h m M M V d V t i y X :XCXUXUXUXUXUXUXUXUXUXUXNX8Xs.f.OX%X|.H.`.zXLXUXUXUXUXUXUXUXUXUXUXKXkXV.X.4.7.9.1.>.7.7.4.&.=.b.n.1X~./.OXoXt M B ",
"Y R E E l x 7 m M d 9 t =XY.$X=X@XXX1 U.:XcXCXFXPXPXFXnXaX&Xq.K.).f.h.h./.'.'.w.S.8XbXDXKXPXPXKXSXkXhX#.X.4.7.3.9.1.1.7.7.6.&.V.-.m.z._.(.L..Xt V 7 6 ",
"R E E / b c r e t oXX d.U.@XoXU.U.W.E.OXs.K.I.f.f.+Xf.s.K.K.}.}.(.h.h.e.i.~.1X4Xu.l.j.j.m.7X7X-.;.$.$.6.6.7.3.1.<.9.7.7.6.;.+.C.2Xc.t.(.L.U.y V B 6 Y ",
"| E / n h r i t Y..Xf.OXW.R.f.f.T.E. XJ.f.).}.J.f.J.f.a./.(.(.].}.y.e.e.u.,X1X,X,Xv.n.m.-.-.=.:.:.6.6.6.7.>.1.<.1.7.6.6.%.+.-.m.,Xp.y.(.+X=XV m 7 Q Y ",
"E n b v N i 8 .XW.J.T.T.}.}.^./.(./.].].].].[.].(.}.^.y.y.i.i._.{.~.u.e.M.,X2X2X2Xm.-.-.-.:.:.;.6.4.4.4.7.1.<.1.>.4.6.#.V.B.b.M.p.y./.R.XXy M x k R E ",
"R n v N i =XoXL.T./.y.'.^.'.].!.p.t._._.{.~._.!.{.{.{.~.~.t.e.p.1X1X1Xc.>X2X2X2X-.-.-.=.:.&.%.6.6.4.7.7.1.<.1.3.7.6.&.B.B.b.l.p.`.).R.=Xt e z j n < E ",
"l x B C $XY.T.(.(.p.p._._.~.!.~.Q.Q.r.u.1XQ.e.Q.{.{.{.~.~.Q.u.N.c.>X3X2Xm.2X-.-.*.=.:.+.#.#.4.4.3.7.7.>.1.1.3.7.6.;.:.V.k.c.N.'./.L.oX=XV 7 z l E E , ",
"v D i =XU.L.(._.~.r.Q.Q.!.<X>Xz.x.<X>Xc.1X<X~.!.{.~.~.!.<X1X1Xc.l.v.2Xm.k.C.-.*.:.:.:.#.#.4.4.7.3.7.1.1.1.3.7.4.6.:.V.k.z.1X{.(.J.U.9 q m k / R T , l ",
"m S u W.E.}._.Q.Q.>X>Xx.>Xv.m.z.v.2X<Xc.p.!.~.{.{.~.u.u.,X<X<X,Xl.k.m.C.B.B.C.:.:.:.:.4.4.4.>.>.1.1.1.1.3.7.4.%.:.V.k.l.c.{. X XW.9 q a c l < E R : 6 ",
"e t *X-X[.{.Q.<XF.F.x.F.O.b.O.m.n.z.M._.~.~.p.~._._.p.M.M.,X3X2Xv.n.Z.C.B.B.V.:.&.4.6.6.4.>.1.<.<.1.>.3.7.4.#.+.-.b.m.c.u.(.).W.$Xy N x n R E ) Y j z ",
"d Y.E.[.~.r.c.F.F.o.o.G.-.-.F.x.z.,Xp._.~.Q.Q.~.i.p.u.c.c.2X2X2X2X-.=.C.C.+.&.6.4.4.6.7.3.1.<.<.1.3.3.7.6.#.#.=.2X2X<Xp.t.(.OXY.9 M z j { ) E < j c N "
};
