/* XPM */
static const char *Y2hhcmFjdGVyX3JpZ2h0[] = {
/* columns rows colors chars-per-pixel */
"75 75 253 2 ",
"   c #010101",
".  c #0B0302",
"X  c #0B0B02",
"o  c #05080A",
"O  c #160904",
"+  c #0C1202",
"@  c #161606",
"#  c #080A15",
"$  c #0A141A",
"%  c #181818",
"&  c #28130E",
"*  c #271808",
"=  c #331C0A",
"-  c #1A2601",
";  c #1B2117",
":  c #36290E",
">  c #273601",
",  c #272618",
"<  c #362915",
"1  c #121626",
"2  c #221F32",
"3  c #172C33",
"4  c #31302E",
"5  c #4C0400",
"6  c #6D1307",
"7  c #462B15",
"8  c #4F3410",
"9  c #563518",
"0  c #5C3A1B",
"q  c #712E08",
"w  c #613C17",
"e  c #623E1C",
"r  c #45392F",
"t  c #2C4200",
"y  c #374901",
"u  c #3D5101",
"i  c #3C432E",
"p  c #445A02",
"a  c #544918",
"s  c #6C4C12",
"d  c #68411D",
"f  c #536E04",
"g  c #647414",
"h  c #514A2C",
"j  c #6C4421",
"k  c #774A24",
"l  c #6B5933",
"z  c #74683A",
"x  c #201B42",
"c  c #1D3943",
"v  c #33304E",
"b  c #453B59",
"n  c #1F424B",
"m  c #2A4853",
"M  c #335B69",
"N  c #3A6877",
"B  c #4F4F56",
"V  c #685455",
"C  c #726E49",
"Z  c #50586A",
"A  c #496974",
"S  c #716F70",
"D  c #901B05",
"F  c #B11202",
"G  c #AF350B",
"H  c #916116",
"J  c #AA731D",
"K  c #88562A",
"L  c #945D2E",
"P  c #965F30",
"I  c #8A6B38",
"U  c #9B6232",
"Y  c #A86A36",
"T  c #B16C32",
"R  c #B57137",
"E  c #B4733B",
"W  c #BA763D",
"Q  c #BD793E",
"!  c #DA781E",
"~  c #C17B3F",
"^  c #897545",
"/  c #B87944",
"(  c #9D7771",
")  c #C47D41",
"_  c #698601",
"`  c #708F00",
"'  c #749400",
"]  c #789902",
"[  c #7B9D01",
"{  c #7EA104",
"}  c #84AA05",
"|  c #8BB309",
" . c #8FB90E",
".. c #B2A332",
"X. c #D88F25",
"o. c #E59627",
"O. c #C7A630",
"+. c #ECA72D",
"@. c #F5A82C",
"#. c #97C30E",
"$. c #9BC912",
"%. c #A0CF13",
"&. c #A3D415",
"*. c #A7D916",
"=. c #A9DB16",
"-. c #B0E417",
";. c #B1E517",
":. c #F5C439",
">. c #958C51",
",. c #A18B4C",
"<. c #B38F55",
"1. c #9BA35F",
"2. c #BEA85C",
"3. c #BCB75C",
"4. c #92906E",
"5. c #BA8A6B",
"6. c #A89B66",
"7. c #B8986A",
"8. c #AC897C",
"9. c #B48975",
"0. c #AC9C75",
"q. c #A99579",
"w. c #AA947B",
"e. c #A59B7D",
"r. c #A99B7A",
"t. c #B39874",
"y. c #9EAA7D",
"u. c #9CB77A",
"i. c #ACA96D",
"p. c #B7A867",
"a. c #ACB66C",
"s. c #B6B665",
"d. c #ABA374",
"f. c #A6AA77",
"g. c #A4A37B",
"h. c #B3A675",
"j. c #A5B575",
"k. c #B6B778",
"l. c #CA8349",
"z. c #C69A5C",
"x. c #C4A95B",
"c. c #D6A05F",
"v. c #C4B559",
"b. c #C58E68",
"n. c #CBB167",
"m. c #E6BF72",
"M. c #B8C95D",
"N. c #B0C568",
"B. c #C4C35A",
"V. c #FADA41",
"C. c #FDE847",
"Z. c #FFF74C",
"A. c #D2C575",
"S. c #E9C96D",
"D. c #ECCA71",
"F. c #EDD378",
"G. c #F7D775",
"H. c #FFE47B",
"J. c #564A8C",
"K. c #685594",
"L. c #457787",
"P. c #4D7C8C",
"I. c #6E7288",
"U. c #7D7AAD",
"Y. c #6E6DB1",
"T. c #7B6CBB",
"R. c #786BBC",
"E. c #7C75B5",
"W. c #7878B6",
"Q. c #7A72BA",
"!. c #6D5ECE",
"~. c #765EC3",
"^. c #675CD3",
"/. c #6A5DD2",
"(. c #6E69C3",
"). c #6E63CC",
"_. c #7465C5",
"`. c #746BC3",
"'. c #7969C3",
"]. c #7164C9",
"[. c #746ACE",
"{. c #7163E0",
"}. c #9E7E8D",
"|. c #8E7B9E",
" X c #957A9A",
".X c #A67A88",
"XX c #B37E8B",
"oX c #896CAB",
"OX c #8977A7",
"+X c #8C7CA3",
"@X c #8574AD",
"#X c #847CAB",
"$X c #9374A6",
"%X c #836AB4",
"&X c #8274B2",
"*X c #8479B2",
"=X c #896FC8",
"-X c #58818F",
";X c #4B8395",
":X c #54889A",
">X c #71878C",
",X c #5991A4",
"<X c #7C84AA",
"1X c #738AAF",
"2X c #6C9CAB",
"3X c #79A6B4",
"4X c #878A87",
"5X c #9C878D",
"6X c #9C8C8C",
"7X c #9B938B",
"8X c #9A9989",
"9X c #8C849D",
"0X c #8A899A",
"qX c #8C8B9B",
"wX c #958595",
"eX c #948C94",
"rX c #988895",
"tX c #92839A",
"yX c #8C9497",
"uX c #939392",
"iX c #979793",
"pX c #A68786",
"aX c #A48D84",
"sX c #A39383",
"dX c #A39884",
"fX c #B3908A",
"gX c #8DA98D",
"hX c #9AA584",
"jX c #A9A786",
"kX c #8586A4",
"lX c #8B83A3",
"zX c #918DAA",
"xX c #87ACB8",
"cX c #B0AFB0",
"vX c #D5AC93",
"bX c #DBCF80",
"nX c #F0DB85",
"mX c #F4E48B",
"MX c #FCEC93",
"NX c #FEF296",
"BX c #FEF599",
"VX c #FFFC9D",
"CX c #FFFFA3",
"ZX c #96BAC6",
"AX c #ABBFC6",
"SX c #9CC3CF",
"DX c #AECED8",
"FX c #BAD9E2",
"GX c #EFE0D5",
"HX c #C4E4ED",
"JX c #C7E8F2",
"KX c #F8EEE5",
"LX c #FEFEFD",
/* pixels */
"sX8XrX9XkXkXU.U.U.%XE.W.W.1X1X<X9XqXtXqXqXwXtXtXtX9X|.$X$XkXZ 2 # # o                 o # 1 1 x v J.`.`.R.Q.E.kXkXlXlXqXyXiXhXhXf.f.p.s.v.v.x.s.p.f.g.",
"pXeXqX|.kXU.U.W.R.R.W.W.U.<XkXkX0X9X XqXqX X XwX0X|.$X|.B #   4 S S S 4X4X4X4X4X4X4X4X>XS S B 4 ,   2 Q.T.T.@XkXlX X XuXiX7XdXf.j.a.N.M.M.M.N.a.j.g.hX",
"iXwX9XOX@X%XT.R.R.Q.W.W.U.OX9X0X9XqXeXwXwXwXqXqXzX XB   o S GXLXLXLXLXLXLXLXLXLXKXKXKXKXKXGXGXGXKXAXX v =XoXoXkX|. XwX5X.X8.q.j.j.s.N.M.M.N.s.5.f.e..X",
"wX9XoX@XU.T.R.R.R.W.W.U.kXkX|.9XqXyXuXrXwXwXtXzXI.% # S GXKXvX<./ <.<./ / / / E E R T T T T T T <.LXcX  b $XzXzX0XqXrX.XaXq.f.f.a.N.M.M.3.p.N.r.e.8X7X",
"9X+XoXU.W.R.R.(.Y.1X<X#XkX0X XyXwXuXuXuX5XwXrXS o < fXvXb.K w T E E R R R E E E E E E E E E E / T vXLX4X  # B qXzXuX.X.XhXjXh.b.a.s.v.M.z.p.u.u.hX6XyX",
"9XOXoXW.R.~.(.(.W.U.#XkX9XtXwXrX5XiXiXiXeXrXwX$ * / W T K 9 K W E E W U k E E E E E E E E E E W P U GXLXFXV o   B uX.XpXhXf.5.7.N.x.2.N.p.d.9.hXhXeXwX",
"+XoX%XR.R._.(.R.E.<XkX0XyXeXeX5X7X7X8X5XeXiX4 . Y W W U 0 k W Q Q Q E d K ) ) ) ) ) ~ ~ ~ Q Q ) U w / vXKXLXKX4Xo 4 XX8.f.h.5.a.N.M.s.a.N.r.e.gX8XyX9X",
"OXoX%XR.R.(.R.E.#XkX0XyXyXuX6X6X7X7X8X8XiXB   U l.Q Y e d Y Y U U U j 7 k K j d 9 9 7 7 = = & & & O & = = r S S 4   ( fXf.j.a.s.2.s.b.a.j.y.hXgXgXyX9X",
"U.W.W.W.`.Y.W.<XkX9XtXuXuX6X8X8X8XsX8XhXS   O 9 = & .   . .                     + + @ - - - > > > > > > - @ + X +   r jXj.j.a.b.z.s.p.d.q.dX7XgXyX0X+X",
"U.W.R.R.R.W.<XkX9XtXwX6X8X8XdXdXsXsXdX4.o X @ @ - > y u u p p f f f f f f _ _ } %. .] [ [ [ [ ] | &.} [ [ [ [ ] [ - 4 jXf.N.a.p.s.a.j.r.dX8X7XgXyX0X#X",
"U.W.W.Q.W.U.#X9XyXuX7X6XaXsXe.e.e.e.jXS   f ] ]  .#.{ [ { ] | -.*.} ] [ ] ' | *.*.*.{ ' ' ' ` } &.*.$.' ' ' ' ' { > 4 t.d.a.p.s.a.j.j.g.hX8XuXyX0X|.kX",
"U.1XW.Q.%X#X9XtXuX7X8XsX8.q.r.g.g.e.jXS   _ ' } *.*.#.' ` } &.&.*.$.[ ` ' } *.&.$.*.#.' ' ' } *.&.$.*.| ' ' ' ' &.y 4 b.d.7.b.i.N.u.j.sXaXhXuXyX0X$XOX",
"<X1XW.E.#X|. X5X6XsXdXe.q.q.r.g.g.r.jX(   _ } *.#. .=. .{ &.*.} | *.$.[ } *.&.} ' $.*.} _ } &.*.} { &.*.} ` '  .-.> 4 k.0.b.b.i.u.u.hXdX7X6XwXyX0X+XkX",
"U.W.@X#X|.tXeX6XpXsXdXe.r.r.q.d.g.0.dX( X _ &.$.] ] &.=.*.=. .' '  .-.*.*.=.| ' ' } =.*.| &.=.| ' ' } *.=.| | *.=.- i k.7.7.i.j.u.u.hXhX8X8XeXtX0XkX<X",
"<X<XOX9XtX}.7X8XsXdXg.g.g.f.0.0.r.r.r.(   _ %.` _ _ '  . .{ _ _ _ _ {  . .[ _ _ _ _ {  .|  .| _ _ ` _ } $.$.$.$.| - 4 k.i.a.j.j.u.u.hXhX8XgXuXyXqXkXkX",
"<XkX9XwX5X5X8XsXaXe.r.q.0.r.0.0.0.g.f.4.  + +                                                               + + X   4 b.7.a.j.f.y.y.8XhXhX7XeXyXyXqXkX",
"0XyXyXuX6X8X8XsXq.r.q.q.q.0.d.d.0.q.r.S   * 7 j j 7 9 k K 9 7 k j *   ^ ,.,.,.,.,.,.,.,.,.,.,.,.,.,.,.,.,.,.< . j O % 5.h.d.t.q.g.e.sXpX8X5XuXyXqX9X0X",
"qXeXuXuX6X8X8XsXe.q.w.q.0.r.d.d.r.q.fXV   0 K l.W d K ) ~ k j ) Y = @ D.G.G.G.G.G.G.G.G.G.G.G.G.G.G.G.G.G.H.z   Y Y   h h.t.9.9.e.e.hX8XhX8XiXiXeXwXqX",
"wX5X7X7X7XaXaXdXg.q.9.q.g.0.0.r.d.q.fXB . 0 K Q Y 0 K W Y e j W K . r nXF.F.F.F.F.F.F.F.F.F.F.F.F.F.F.F.F.mX<.  j l.9 o f.j.r.q.e.8.hX8XhX8X7X6X7XuXuX",
"5X6X5X7X8XsXsXq.e.e.q.q.r.g.g.r.g.e.fX4 O e K ~ U 9 L Q Y 0 K ~ k   z VXMXVXVXBXNXVXVXNXNXNXNXNXNXNXVXBXmXBXbX  d l.j o 0.t.f.u.g.y.u.hXhX8X8X8X8X7XeX",
"6X6XpXsXsXdXdXe.e.e.q.q.q.r.g.g.g.dX8X% * e K ~ K 9 U ~ L 9 L ) j   p.VXVXn.l 4 , h s.VXNXNXNXNXNXNX>., o % h   d l.e o 9.t.r.u.u.u.u.y.hXdXdX8X8X8X7X",
"pX7X7XsXsXsXdXdXdXe.q.q.q.q.dXdX8XjX4.  7 e P ~ K 9 Y ~ K 9 Y ) = @ F.VX>.  O 8 s *   6.VXMXNXNXNXl   8 H 8     j l.e o f.j.j.j.0.9.g.f.g.y.e.e.hX6XpX",
"pXaX8XaXaXsXaXpXsXsXsXaXaXaXdX8XdX8X4 . 0 e Y W k 0 Y Q k 0 E 0 o 2.VXA.  s o.+.V.C.a X nXVXNXVX^   J @.+.C...  7 l.d o f.h.f.j.0.9.d.f.q.0.f.q.sX6XpX",
"7X7XsXsXsXaX7XaXaXsXaXaXaXsX8X8X8X4   8 0 k E E d d E E j d 8   < ^ >.h * +.o.:.C.C.+.  >.mXbXmX# s @.X.:.C.Z.a O ) j o 6.b.5.j.j.j.j.j.0.0.f.e.dXaXpX",
"8X8XsXaXsX7X6XaX6X7X7X7X7X8X7X7X4   7 e k E Q U 0 k Q U 0 *   , @ X X   8 o.+.C.C.V.o.*       @   J o.+.C.C.V.H o ~ k o 6.b.5.a.a.p.a.h.a.t.0.e.8X8X8X",
"7X7X6X6X7X6X5X5X6X6X7X7X7XiX4X%   7 d L W Q Y d 9 K W k :   ,.F.S.S.mXh = +.V.C.C.+.X.. l i.6.C   H +.V.C.V.@.s X ~ K   1.b.b.p.7.5.s.b.7.t.q.e.8X8X8X",
"sX6X6X5X6X6XrXeXrXrXeXuXuXiXS   8 j Y Q E K 0 9 K ) Y d O < G.D.D.F.CX>.  O.Z.C.:.+.8 o nXCXVXCX4 = V.Z.C.:.X.@ = ) K   1.s.b.b.7.s.s.p.7.f.r.e.dXsXsX",
"aX6X5X5XeXeXwXwXwXrXeXuXqXzXB   0 K Q R k 9 e P Y k =     ^ G.S.S.F.NXMXh   g O.J :   >.BXmXmXBXp.  s ..O.J =   0 ) K   1.N.s.7.s.s.p.a.p.0.q.e.sXaXpX",
"7X7XrXwXwXqX X XtXtXqXqX9XzXB . 0 L Q K 9 j Y Q :   ; h I S.D.S.S.F.NXNXMXC @     4 n.CXVXVXVXVXCX>.o       @   0 ) K   >.s.2.M.M.s.p.7.i.f.q.q.dXsXaX",
"7XuXrX XwXtX|.|.|.+X+XkXkXzXm . e U W d 0 Y W Q j   n.H.G.S.S.D.S.F.NXNXNXVXmXA.A.nXA.6.6.6.6.1.i.BXMXA.A.A.2.  0 ) U   C c.l.3.z.s.a.7.7.r.e.e.aXsXdX",
"}.wXwX X9XlXlXlXOXOXOX#X#XzXv . e Y E d j E E Q L   h m.D.G.G.S.D.D.MXNXNXMXNXVXl o               < nXVXBXBX<.  j W Q < @ 2.v.3.z.s.a.i.5.q.e.dXdX8X7X",
"rXqXtX+X+X+X+X#X@X@X&X*XU.*Xv X e Y E e j E E W K 7     < < >.G.S.S.mXNXNXMXVX^   : 8 0 0 0 e e 9   4 MXMXmX^   k W W Y . i M.s.p.a.7.7.9.q.dXaX7X7X6X",
"wX9X+X+XOXOX@X*XU.E.E.E.E.%Xv X d Y Y e j E E W j k Y e = . X n.F.S.F.NXMXVXA.  = d d e e e e 0 d 8   z NXG.l   d Y E ~ k   >.c.b.p.b.t.r.r.dX8X6X5XwX",
"tXlX+X#X@X*X&XE.Q.Q.Q.Q.R.=Xv . j E Y 0 k E E Y e K Q ) L 0   l G.S.D.mXNXNX4 . d 0 0 d d e e d 0 d 7   ^ S.@ : d j E E E X l c.5.p.i.j.r.dXaXpX6XwX X",
"lXOX#X@X&XE.Q.R.R.'.`.R.'.K.o * k W Y 0 k W W Y 0 K W W K e O % D.D.S.S.NX>.  8 e 0 e = .   . 7 d e d *   <   Y K 9 U Q Y   ^ n.5.5.f.g.e.dXaX6XuXwXtX",
"lXOX*X&XT.T.R.'._._.`.`.Y.o O k Y Q L 9 K W W U 9 K W W L 0 e   ^ G.F.D.n.  @ d d d *   l l <   O 0 8 X     7 ) L 9 K ) k   1.b.5.t.9.e.dXdX7XrXrX9X+X",
"kX#X&XT.R.'.`.].].)._.[.Z   9 U W W K 9 K W W P 9 k Q ) K 9 E k   z n.F.D.r o @ 7 = X <.mXH.H.2., . .   . = K Q P 9 K ) * , k.7.d.f.e.hXdX8XiXuXqXlXkX",
"#X&XQ.R.'.].).).).~.~.'.Y.o = K E W K 9 K Q E Y e d U =   . = 0 O   o , r h X       < ^ z I z z <       : d U ) L 8 Y K   C k.j.f.q.dXpXpX7XuXqXkXkX#X",
"*X&XT.`.].).).).].'.R.T.zXv   k W W U 9 k W E Q U <   1 I.m 1     = 5 w 8   $ 4 % $ # o o     * O         . 0 Y K e K X < b.t.j.g.8.sXpXiXrXtX9XlXkX@X",
"&XT.'.].)./.).`.'.R.T.E.*XI.  = Y W E d k W Q E 9   4 DXDX,X,XP.o 6 F ! @.O Z HXxXP.2XDXcXo s @.q o M $ o i o   . O   ; 6.5.0.q.jXhXsX.XuXwX9XlX#X#X*X",
"T.'.].)././.).`.Q.T.%XoXOXzXb   . O @ O X * * *   c 3XFXxX;X;XSXZ   F ! o.O Z HXxX;X2XFXSXo H @.q o :XA   z s.^ h 4 r 6.k.f.9.9.jXhX7X.XeXqX+XOX@X&XT.",
"'.`.)././.!.`.Q.W.%XoXOX#XlX0XS B b r r r r %   m L.ZXFX-XL.,XDXAX# 5 X.o.O Z HX3X;X2XFXSXo H @.D   L.,Xc   ,.n.n.b.b.7.f.f.r.pXaX7XeXrX9XlXlXOX&XT.R.",
"].)./.^.!.].'.Q.E.&XOXOXlX0XqXrXrXfXfXfXfXfX< 1 N -XFXSX3 c xXFXZXc O X.o.O Z HX3X;X2XFXSX# H @.D   N ,XL.# , a.a.5.5.0.f.hXhXpXpX.XwXtX XOXkXoXE.Q.'.",
"!./.^.!.].'.Q.&X&X@XOX+X9XqXwX}.pX.X.X( 9.(   m N xXFX3XP.;XSXDX2Xm . X.o.O Z HX3X;X2XFXSXo H @.D   M ,X;Xm   C h.0.d.r.8.dXhXsXiXrXqX9XOXOX#X&XT.'.].",
"/././.)._.T.E.*X@XOX+X9XyXeX5X.X.XpXaX8.fXV   M L.DXDX:X;X2XFXZX,Xn O X.o.O Z HX3X;X2XFXZXo J @.G   m :X;XA 1 @ ( 9.r.( ( 8XhXiXyXtX X+XOX#X*XQ.R._.].",
"^.).].`.R.Q.E.#XOX$XtXqXuX7XpXpXpXpXq.r.jX, 1 N 2XFXxX;X;XZXFX3X;X$ 5 o.o.* Z HXxX;X2XFXxX  J +.G   n ;X:XL.m   ( 9.e.8.aX8X5X5XyX XlXkX#X&X%XR._.].!.",
"/.].'.R.T.%X#X#XlXlXyXuXiX7XaXpXpX8.q.h.4.. n N ZXFX2X;X,XDXDX,XN   D o.+.* B HXxX;X2XFXxX  J +.G . n P.:XL.M   V jXhXhXhX7X.XwXyXlXOX#X*X&XT._.].!.^.",
"].`.T.T.%X@XkXlX9XqXeXeX7XdXdXq.9.q.0.k.C   M -XFXZX:X;X3XFXxX:X3 O F X.+.* m HXxX;X2XFXyX  J +.G . n L.:XP.N o h jXsX8XiXuXwXqXlX$XoX&X%X%X'.].!.^./.",
"`.R.T.E.@XOXlX XtXrX5XpXaXjXjXg.r.d.i.k.h o m xXJX3X;X:XSXDX2XA o 6 F X.+.= m HXxX;X2XHXxX  J +.G . m N ;X;XN 1 , fX.X5XyXyXyXkX+XOX@X%XT.R._.)./.^.).",
"T.T.E.*XOX+XtXtXwX5XpXaXaXg.f.f.j.i.i.p.,     % Z L.;X3XHXDX,Xn . F F X.+.= 3 FX3XL.-XxXI.  J +.G   3 N ;X,XP.c O .X.XeXyXyXkXkXoX@X%XT.R._.)./.^.).].",
"Q.E.&X#X+X9XrXrX7X6XsXsXg.j.f.f.j.a.p.<.  3 A B #   o 3 I.,X;X$ 5 F F X.+.7 o ; o           J +.G 5 o m L.L.m $   ( rXyXqXlX+X+XoX%XT.R._.)./.^./.].'.",
"E.&XOX+X|.wXiXsXpXpXdXg.f.j.f.i.a.a.n.^   M 3XHX3XN m 4 o   o   6 F F X.+.7   = : j K L j   J +.G F O o o     $   V iXyXkX$X$XOXoXT.R.`.).!.^./.].`.Q.",
"&XOX+X9XtXrX7XaX8.8.r.0.d.i.a.a.s.s.n.^   c xXHX3X:X2XFXZXA 3   6 F F o.@.8 O j d E ) ) U   J +.G F 5 o 3 N L.N o r zXkXkXoXoX@X%XR.'.).).^./.).].R.Q.",
"#X+X9XtX5XpXsXdXq.q.0.t.p.i.s.s.s.3.n.z   . $ Z L.P.3XHXSX,XA     . O = 8 @ O e e U Y E P   J +.G F O 3 L.,X,XL.1 , zXkX#XoX*X&XR._.].!././.).`.`.W.E.",
"OXlXqXwXpXsXsXe.0.t.7.p.s.p.p.3.M.3.B.4 < n.l *   o 3 S -X,XM   u u t - +   @ d d d d j e   J X.F D . c N A M 3 o % kXkX#X*XE.T._.).)././.].`.`.T.&X#X",
"lXtXeX6XaXdXq.q.5.7.p.p.p.x.z.z.x.3.B., h H.G.D.x.^ h X   $ 1 + [ [ [ } ` +   O . . . .     O O O .   o     . : X 4 zXkX*XE.Q.`.].)././.].`.`.Q.E.@XOX",
" X5X7XsXe.q.0.d.p.p.p.s.x.x.z.z.z.v.s.o I G.S.D.G.CXVXmXp.h   y } ] ' '  .g   > u u u p p p p -   >   h ,.<.n.G.a 2 zXU.W.W.`.].!./.^.]._.`.Q.E.#XOX X",
"5X7X7XsXq.0.i.p.p.p.x.v.x.x.z.z.z.s.N., 7 G.S.S.F.MXMXNXCXn.  _ p p { $.*.&.X f -.-.-.-.-.-. .X u -.- z H.G.D.G.l 1 kXW.Q.'.(.)./.^.)._.'.T.%X&XOXlX X",
"7X8Xe.q.0.i.i.p.z.x.3.s.x.z.7.p.s.s.N.>.  I G.S.nXNXNXBXCXC   [ @ > &.*.&.-.p   { | } |  .{ X > *.-.f @ S.S.S.G.z # W.T.'._.)./.^./._.`.Q.W.&X#XlXtXrX",
"sXsXq.t.7.p.s.3.v.3.s.s.p.p.p.a.a.i.s.N.l   ^ H.NXBXnXn.C   y [ _  .*.&.&.=.}   f [ ' ` f X - $.*.*.| X x.G.G.S., 2 '.R._.)./.^./.].`.Q.Q.U.OX+XtXiX7X",
"dXq.0.h.7.p.2.3.3.s.p.p.7.7.p.i.p.p.p.a.k.h   h C 4 o     u ' ' } *.&.*.&.*.$.+ + - + X   -  .=.&.*.$.X <.S.^ *   Y.`.`.)./.^./.]._.T.T.%XOX+X9XrXpXaX",
"q.0.7.p.x.x.v.3.s.p.p.p.7.7.t.t.7.7.i.i.0.h.C %   - p f ' [ ' ' #.*.&.*.&.*.$.+ @ > > y f $.*.&.&.*.$.+ @ X o 2 K.[.(.).).^./.)._.R.Q.E.@XlXlXrX7XaXpX",
"d.i.a.v.x.v.x.2.p.p.h.t.9.t.9.9.t.d.f.t.9.9.jX4.  _ } ] ' ' ' } *.&.*.*.&.*.$.X p } [ [ #.*.&.*.&.*.#.X 2 Z Y.'.'._.).)././.).]._.T.E.#XOX+XrX5XaXpXq.",
"i.i.s.M.v.v.s.p.p.d.0.q.q.q.q.9.q.q.q.q.( ( jXC   _ ' ' ' ' ' #.*.&.*.*.&.*.$.X u [ ' ' $.*.*.*.&.*.#.X K.=XT._.~.)././.).).].`.Q.&X*XkXlXtXrXdXsXq.d.",
"7.z.v.v.v.s.a.i.d.f.g.g.g.g.e.r.q.8.8.sXaXpXjXB + ] ' ' ' ' [ &.*.*.*.&.&.*.$.X u { ' } *.*.*.*.&.*.$.+ J.=X`._.)./././.].]._.T.E.@XOXlXqXwXpXaXe.r.i.",
"z.x.v.v.p.s.7.0.g.y.8.q.hX8XdXhXsXpXsXsXsX8XjX4 - [ ' ' ' ' | *.&.*.*.*.&.*.$.+ u { `  .*.&.*.*.&.*.$.@ J.[.(.)././.!.].].'.R.%X*X#X$XtXeX6XaXr.f.7.5.",
"x.v.v.s.s.a.0.q.e.8..X.X8X7XaXaX8X8X8XpX.X6X8X% > { ' ' ' ' #.*.&.*.*.*.&.*.&.@ u { ' $.*.&.*.*.&.*.$.@ J.[.!./.^.!.].(.`.Q.T.U.kX+X XrX5X8Xq.g.f.7.z.",
"B.v.v.s.i.0.q.q.8XpX.X5X8X7X.X.X7XiXiX5X}.eX4Xo p [ ' ' ' ' $.&.&.&.&.&.&.&.&.@ y [ ' $.&.&.&.&.&.&.$.@ J.{.!././.].`.`.R.T.U.#XlX X XeXaXhXg.d.7.z.x.",
"v.s.s.a.f.e.8.pX8X5XuXuXuXuXrXwXwXwXyXyXyXyX>X  f } [ { [ | -.-.-.-.-.-.-.-.-.- y } } -.-.-.-.-.-.-.-.- J.{.^./.!._.'.R.%X%XOX$X X XrX8XpXq.d.i.s.x.v.",
"x.s.N.f.q.hXaX5XuXwX}.wXwXwXyXqX X XtX X0XzXV   > p u u u p f f f f f f f p p X @ y y p p p p p u y > X b {./.).].`.R.%X%X@X$X XrXrX7XhXe.0.p.p.s.3.v.",
"p.p.d.f.dX8X7XeXeX X XtXtX0X0X0X9X0X|. X0XzXV % o   O O O @ ; ; % . . . O % ,     & , 4 4 , O O O < r   v {.).].`.Q.Q.%XoXOXlXqXwX6XaXhXf.7.p.p.x.v.3.",
"a.j.q.hX8X6XeXtXqX|.9X9X0XkXkX$X+X<XkX+XlXkX9XzX4 : Q E T n.NXMXnXE Y E R S.VXC   P S.VXVXS.R Q R S.CXC # (.]._.R.Q.%XoXoXlXyXrXpX8X8.9.d.p.x.x.v.3.p.",
"d.y.e.8X8XuXtX9X0XkXkX+XkXOX#X@XOXkXkX|. XlX0XzX4 = l.) ) mXCXCXMX) ) ) ) mXCXBX, = mXCXCXm.W / W D.VXmX@ b [.R.Q.%XoXoX+XqXiXiX8X8.9.0.a.p.v.v.x.x.7.",
"r.e.hXgXyXyX9XkX<X<X#X<XU.@XU.#XOX$X X9X0X9X XzX4   7 7 7 l l l h 7 7 7 < h r < @   r h h < = = * < < *   v =XT.*X*X#X+X XrXrX8XdXq.f.p.s.x.v.M.z.p.i.",
"y.hX8XyXqX|.OX<X<XU.U.1XW.W.<X#X+XlX XtX9X9X9XzXS % o o o o o o o o o o # # 1 1 1 1 $ # # # 1 1 1 1 2 x v K.%XE.kXkXkX X XeXpX8X8.d.7.p.N.M.v.3.p.a.f."
};
