/* XPM */
static const char *Y2hhcmFjdGVyX2xlZnQ_[] = {
/* columns rows colors chars-per-pixel */
"75 75 253 2 ",
"   c #010101",
".  c #0B0302",
"X  c #070908",
"o  c #160904",
"O  c #0C1301",
"+  c #161706",
"@  c #080A15",
"#  c #0B1318",
"$  c #171618",
"%  c #281708",
"&  c #29130D",
"*  c #331C0A",
"=  c #1A2701",
"-  c #372B0F",
";  c #273601",
":  c #262517",
">  c #362815",
",  c #141925",
"<  c #261E2B",
"1  c #172C33",
"2  c #33302E",
"3  c #4C0400",
"4  c #6D1307",
"5  c #462B15",
"6  c #4F3410",
"7  c #563518",
"8  c #5C3A1B",
"9  c #712E08",
"0  c #613C17",
"q  c #623E1C",
"w  c #453C2B",
"e  c #2C4200",
"r  c #374901",
"t  c #3D5101",
"y  c #3E4132",
"u  c #445A02",
"i  c #574C15",
"p  c #6C4C12",
"a  c #68411D",
"s  c #536E04",
"d  c #62711B",
"f  c #504B2D",
"g  c #6D4421",
"h  c #774B24",
"j  c #6B5A33",
"k  c #756739",
"l  c #1D3943",
"z  c #313047",
"x  c #43395A",
"c  c #1F424B",
"v  c #2B4852",
"b  c #335B69",
"n  c #38606F",
"m  c #3B6878",
"M  c #4F4F56",
"N  c #6E5154",
"B  c #706D47",
"V  c #50586A",
"C  c #665A6F",
"Z  c #4A6974",
"A  c #717170",
"S  c #901B05",
"D  c #B11202",
"F  c #AF350B",
"G  c #916116",
"H  c #AA731D",
"J  c #88562A",
"K  c #945D2E",
"L  c #965F30",
"P  c #8A6B38",
"I  c #9A6232",
"U  c #A86A36",
"Y  c #B16C32",
"T  c #B57137",
"R  c #B4733B",
"E  c #BA763D",
"W  c #BD793E",
"Q  c #DA781E",
"!  c #C17B3F",
"~  c #8A7A47",
"^  c #B77945",
"/  c #896F69",
"(  c #B67B73",
")  c #C47D41",
"_  c #698601",
"`  c #708F00",
"'  c #749400",
"]  c #789902",
"[  c #7B9D01",
"{  c #7EA104",
"}  c #7B836B",
"|  c #84AA05",
" . c #8BB309",
".. c #8FB90E",
"X. c #B2A332",
"o. c #D88F25",
"O. c #E59627",
"+. c #C7A630",
"@. c #EBA22B",
"#. c #F5A82C",
"$. c #EEB131",
"%. c #97C30E",
"&. c #9BC912",
"*. c #A0CF13",
"=. c #A3D415",
"-. c #A7D915",
";. c #A9DB16",
":. c #B0E417",
">. c #B1E517",
",. c #F5C439",
"<. c #978A52",
"1. c #A18B4C",
"2. c #B69154",
"3. c #95A25F",
"4. c #BEA95B",
"5. c #BCB85C",
"6. c #979172",
"7. c #B3926A",
"8. c #B8986A",
"9. c #AC897B",
"0. c #B58974",
"q. c #AC9C75",
"w. c #A89579",
"e. c #AA947C",
"r. c #A59B7D",
"t. c #A99B7A",
"y. c #B39974",
"u. c #9EAA7D",
"i. c #9CB77A",
"p. c #ACAA6D",
"a. c #B7A767",
"s. c #ACB66C",
"d. c #B6B665",
"f. c #A7A777",
"g. c #B3A476",
"h. c #A5B575",
"j. c #B8B973",
"k. c #CA844B",
"l. c #C69A5C",
"z. c #C4A95B",
"x. c #D4AC5F",
"c. c #C4B559",
"v. c #C48E66",
"b. c #CBB168",
"n. c #E6BF72",
"m. c #B7CA5D",
"M. c #B0C469",
"N. c #C4C35A",
"B. c #FADA41",
"V. c #FDE847",
"C. c #FFF74C",
"Z. c #CECA73",
"A. c #E9C96D",
"S. c #EAC871",
"D. c #F1CF70",
"F. c #EDD378",
"G. c #F7D775",
"H. c #FFE47B",
"J. c #3F6F80",
"K. c #554C8E",
"L. c #457787",
"P. c #4D7C8C",
"I. c #6B7288",
"U. c #7D7BAD",
"Y. c #6E6CB8",
"T. c #7B6CBB",
"R. c #786ABC",
"E. c #7877B7",
"W. c #7C75B4",
"Q. c #7A72BA",
"!. c #6D5FCD",
"~. c #755EC7",
"^. c #675CD4",
"/. c #6A5DD2",
"(. c #6E69C3",
"). c #6D63CC",
"_. c #7465C5",
"`. c #746AC3",
"'. c #7868C3",
"]. c #7164C9",
"[. c #7066D2",
"{. c #7064E2",
"}. c #8F7998",
"|. c #967A99",
" X c #A77987",
".X c #AD7A96",
"XX c #896CAB",
"oX c #8977A7",
"OX c #8C7CA3",
"+X c #8574AC",
"@X c #847BAB",
"#X c #9475A8",
"$X c #826AB4",
"%X c #8274B2",
"&X c #837BB4",
"*X c #8474C5",
"=X c #58818F",
"-X c #4B8395",
";X c #54889A",
":X c #6E8890",
">X c #5991A4",
",X c #7C85AA",
"<X c #738AAF",
"1X c #6C9CAB",
"2X c #79A6B4",
"3X c #878986",
"4X c #9B878C",
"5X c #9C8C8C",
"6X c #9B938B",
"7X c #9A9889",
"8X c #8C849D",
"9X c #89899B",
"0X c #8C8B9B",
"qX c #958595",
"wX c #948C94",
"eX c #988895",
"rX c #93839A",
"tX c #8C9398",
"yX c #939392",
"uX c #969794",
"iX c #A68786",
"pX c #A48C84",
"aX c #AE8D8D",
"sX c #A39383",
"dX c #A49785",
"fX c #8EA88E",
"gX c #9CA383",
"hX c #98A786",
"jX c #A5A486",
"kX c #AAAE85",
"lX c #8586A5",
"zX c #8B83A3",
"xX c #918BA8",
"cX c #87ACB8",
"vX c #B0B0AF",
"bX c #D6AE93",
"nX c #DBCF80",
"mX c #F0DB85",
"MX c #F4E48B",
"NX c #FCEC93",
"BX c #FEF296",
"VX c #FEF599",
"CX c #FFFC9D",
"ZX c #FFFFA3",
"AX c #96BAC6",
"SX c #9CC3CF",
"DX c #AECED8",
"FX c #BAD9E2",
"GX c #EDE1D6",
"HX c #C4E4ED",
"JX c #C7E8F2",
"KX c #FDF0E5",
"LX c #FEFEFD",
/* pixels */
"sX7XeX8XlXlXU.U.U.T.W.E.E.,X,XlX8XlXrX0X0XrXrXrXrXC z < , $ @ X                 X @ @ , K./.{./.!.).(.`.R.Q.W.lXlXzXzX0XtXuXhXgXf.p.a.d.c.c.z.d.a.h.f.",
"iXwX0XOXlX@XW.E.T.T.E.E.U.,XlXlX9X0X|.0X0X|.|.rX2   < v M C A :X3X3X3X3X3X3X3X} A A A 2   @ x ].[.].`.`.Q.$X+XlXzX|.|.yXuX7XsXf.h.s.M.m.m.m.M.s.h.f.gX",
"uXqX8XoX+X$X$XR.R.Y.E.E.U.oX8X9XrX0XwXqXqXqXxX2   vXKXGXGXGXGXKXKXKXKXLXLXLXLXLXLXLXLXLXGXA O   x `.`.Q.$XXX#XzXOX|.qX4X X( e.h.h.d.M.m.m.M.s.7.f.r. X",
"qX8XXX+XU.$XR.Y.Y.<XE.U.,XlX}.8XqXyXyXeXeXeXM   vXLX2.Y Y Y Y Y Y T R R ^ ^ ^ ^ 2.2.^ 2.bXKXGXA @ , I.*X+X#XOXxX8XwXeX XpXe.f.f.s.M.m.m.5.a.M.t.r.7X6X",
"8XOXXXU.E.R.R.(.Y.<X,X@XlX9X|.tXqXyXuXwXM X   3XLXbXY ^ E E E E E E R T T T T T T T T Y 7 J v.bXkX> X I.&XoXzX0XtXyX X XgXkXf.v.d.d.c.m.v.a.i.i.gX5XtX",
"8XoXXXE.R.~._.(.E.U.@XlX8X0XqXeX4XuXM   X C FXLXGXI I ^ R R R R R R R R R R h I E R R E J 7 J Y E ^ % # XXoXzXtXtXyX XiXgXf.0.8.M.4.4.M.a.g.9.gXhXwXrX",
"OXXX$XT.R._.(.R.W.,XlX9XtXwXwX4XuX2 X 3XKXLXKXbXE 0 I ) W W ! ! ) ) ) ) ) ) J a R W W W E h 8 I E E U . < #X8XtXtX4X X9.f.g.7.s.M.m.d.s.M.t.r.hXuXtX8X",
"oXXX$XR.Y.(.Y.W.@XlX8XtXtXyX4XdXA   2 A C w * % & o & & & * * 5 5 5 7 a g J h 5 g I I I U U a q U E k.I . M xXtXuX5X X9.f.h.s.d.4.5.v.s.h.u.hXfXfXtX8X",
"U.E.E.Y.`.Y.E.,XlX8XrXyXyX5X7XjXf   O O O + = = ; ; ; ; ; = = = + O O                     . .   . & * 7 o   C eX5X7XiXr.h.h.s.v.l.a.a.g.e.dX7XfXtX8XOX",
"+XU.R.R.Y.E.,XlX8XrXqX5X7X7X7XjX2 = [ ] [ [ [ [ | =. .[ [ [ [ [ ] ..*.| _ _ s s s s s s u u t t e ; = = + O   }.6X7XgXf.h.M.s.a.a.s.h.q.r.7X6XfXtX9X@X",
"U.E.E.Y.E.U.@X8XtXyX6X5XpXsXr.kX2 ; | ' ' ' ' ' &.-.=.| ` ' ' ' { -.;.-. .' [ [ [ | -.>. .[ { [ { &...] [ s   A jXhXr.0.g.p.a.d.s.h.h.f.gX7XuXfX9XOXlX",
"U.<XE.Q.$X@X8XrXyX6X7XsX9.e.r.kX2 e =.' ' ' '  .-.&.=.-.| ' ' ' %.-.&.=.-.| ` ` [ =.-.-.=.| ` ' %.;.-.| ' _   / aXgX9.0.p.8.v.p.M.i.h.sXsXfXyXfX9XoXoX",
",X<XE.U.@X}.|.4X5XsXsXe.w.t.r.kX2 ; >...' ` | -.=.{ | -.=.| _  .-.&.' | =.-.| [ &.-. . .-.=.{ ..;...%.-.{ _ X / aXgXf.f.g.v.8.p.i.i.hXdX6X5XqXtX9XOXlX",
"U.E.%X@X}.rXwX5XiXsXjXt.t.t.w.kX2 = ;.;. . .;.;.| ' '  .;.=. .-.;.| ' '  .;.;.-.:...' ' ..;.-.;.=.[ ] &.=._ X } kXi.i.h.8.8.p.h.i.i.hXhX7X7XwXrX9XlX,X",
",X,XoX8XrX|.6X7XsXdXr.f.f.f.q.g.2 =  .&.&.&.&.| _ ` _ _  ... ...{ _ _ _ _ [ ....{ _ _ _ _ { .. .' _ _ ` *.`   } jXr.h.p.p.s.h.i.i.i.hXhX7XfXtXtX9X9XlX",
",XlX8XqX4X4X7XsXpXr.t.q.q.t.q.g.2   X O O                                                               O O   / pXr.f.0.8.s.h.f.u.u.7XgXhX6XwXtXtX9XlX",
"9XtXtXyX5X7X7XsXe.t.t.e.w.q.g.q.$ o g . > 1.<.1.1.1.1.1.1.1.1.1.1.1.1.1.1.1.1.~   % g h 5 7 J h 7 5 g g 5 %   A jXi.h.7.8.g.y.t.f.r.sXiX7X4XyXtX0X8X9X",
"0XwXyXyX5X7X7XsXr.w.e.w.q.q.g.f   U U   k H.D.G.G.G.G.G.G.G.G.G.G.G.G.G.G.G.G.D.+ % U ) g h ! ) J a E ) J 8   B jXf.h.h.y.y.0.0.r.r.gX7XhX7XuXtXwXqX0X",
"qX4X6X6X6XpXpXdXf.w.9.t.t.q.w.X 7 k.g   2.MXF.F.F.F.F.F.F.F.F.F.F.F.F.F.F.F.F.mXw . J E h q T E J 7 U W J 8 . M jX0.q.h.h.f.t.q.r.9.gX7XhX7X6X5X6XyXtX",
"4X5X4X7X7XsXsXe.r.r.w.t.t.f.r.X g ) a   nXVXMXVXCXBXBXBXBXBXBXBXCXCXBXVXCXCXNXCXk   h ! J 8 U W K 7 I ! J q o 2 kXf.h.h.p.q.h.i.f.u.i.gXgX7X7X7X7X6X5X",
"5X5XiXsXsXsXdXr.r.r.e.e.w.t.r.X q k.a   f $ X : <.BXBXBXBXBXNXCXj.f : 2 j b.CXCXa.  g ) K 7 L ! I 7 J ) J q % $ h.h.h.p.0.0.t.i.i.i.i.u.hXdXdX7XdX7XyX",
"iX6X6XsXsXsXsXsXdXr.e.e.e.e.r.X q k.g     0 G 6   j BXNXBXNXCX3.  % i 6 o   <.CXF.+ * ) U 7 J ! U 7 J ! I q 5   6.v.7.h.h.h.h.h.w.0.f.f.f.u.r.r.hX5XiX",
"iXpX7XpXpXsXpXiXsXsXsXpXpXpXr.X a k.5   X.V.@.#.H   ~ CXBXCXmXX i V.B.#.@.p   Z.CX2.X 8 T 8 h W U 8 h E U q 8 . : 0.y.h.h.g.f.h.q.0.f.h.w.q.f.e.sX5XiX",
"6X7XsXsXsXpX6XpXpXsXpXpXpXdX5XX g ) o i C.V.,.o.#.p # MXmXMX<.  $.V.V.,.O.@.% f <.~ >   6 a g T R a a T E h 8 6   2 g.s.p.0.0.h.h.h.h.h.y.y.f.r.sXpXiX",
"7X7XsXpXsX7X5XpX5X6X6X6X6X6X3X  h W . G B.V.V.$.O.H   +       % O.B.V.V.$.O.6   . X + :   % 8 I W h 8 I W R h 8 5   2 q.s.v.0.s.s.p.s.a.s.y.q.r.7X7X7X",
"7X6X5X5X6X4X4X4X5X5X6X6X6XuX3X  J ! . p #.B.V.B.#.G   B p.p.j . o.$.V.V.B.#.* f MXA.A.D.1.  - h E J 7 a U W E K a 5   : p.v.v.a.8.8.d.v.8.y.t.r.7X7X7X",
"sX5X5X4X5X5XeXwXeXeXwXyXyXuXA   J ) * + o.,.V.C.B.* 2 ZXCXZXmX  6 @.,.V.C.+.  <.ZXF.A.D.G.> o a U ) J 7 8 J T W U g 6   B j.v.v.8.d.d.a.8.f.t.r.sXsXsX",
"pX5X4X4XwXwXqXqXqXeXwXyX0XxXI.  J ) 8   * H +.X.p   a.VXMXMXVX<.  * H +.d . w NXBXF.A.A.G.~     * h U L q 7 h T ^ J 8   B M.d.l.d.d.a.s.g.q.t.r.sXpXiX",
"7XyXeXqXqX0X|.|.rXrX0X0X8XxXI.  J ) 7   +       X <.ZXCXCXCXCXZXb.2     # B NXBXBXF.A.A.D.A.P f :   > W U g 7 J W L 8   j N.4.m.m.d.a.8.p.f.t.e.sXsXpX",
"6XyXeX|.rXrX}.}.OXOXOXzXlXxXV   I ) 8   4.Z.Z.Z.NXVXp.3.3.3.p.p.Z.mXZ.Z.MXCXBXNXBXF.A.A.A.A.G.H.x.  g W E U 8 a E I q . f x.k.5.l.d.s.8.7.t.r.r.pXsXdX",
" XqXrX|.8XzXzXzXoXoXoX@XlX@X# - W E g   2.VXVXCXmX>                 j CXBXNXBXBXNXD.A.A.D.D.D.x.f   K W E T g a R U q . f b.4.c.l.d.s.p.0.w.r.sXdX7X6X",
"eX0XrXOXOXOXOX@X+X+X%XU.&X2 . U E E h   ~ MXNXNX2   7 q 8 8 8 8 7 >   ~ CXNXBXBXMXA.A.G.<.> > .   5 J E E R g q R U a . f N.m.d.a.s.8.7.0.w.gXpX6X6X5X",
"rX8XzXOXoXoX+X&XU.W.W.&XK.  h ) E U a   j G.BXk   7 a q q q q q q g *   Z.CXNXBXF.A.D.x.X . * q U h g E E T g q T U a . f N.5.l.v.8.v.y.q.t.dX7X5X4XqX",
"rXzXOX@X+X+X%XW.Q.Q.Q.*Xx o R E R g a > + A.~   5 a 8 a a a a a q q a . 2 BXBXMXA.A.G.j   8 L ) W J q T E E h 8 U R a . f Z.k.v.v.8.p.h.t.dXpXiX5XqX|.",
"zXOX@X+X%XW.Q.R.R.'.Y.`.K.  U ^ I 7 J U   >   % a 8 a 5 .     * q q q 6   <.BXA.A.A.D.+ o q J E E J 8 U E E h 8 U E h % X <.b.a.v.0.f.f.r.dXpX6XyXqXrX",
"zXoX&X%XT.T.R.'._._.(.`.Y.  h ) K 7 L ) 5     o 6 8 o   > j j   % a a a +   b.D.D.G.~   q q K E E J 7 I E E J 7 L W T h o # 3.v.7.y.0.r.dXdX6XeXqX8XOX",
"lX@X%XT.R.'.`.].].].].`.*X< % ) J 7 I W J * .   . . : 4.H.H.MX2.X * - o X w A.D.x.k   g R 7 J ^ W h 7 L E E J 7 J E E I 7   B b.f.h.r.gXdX6XuXyX0XzXzX",
"@X%XQ.R.'.].).).).~.'.R.&XC   J I 7 K ) I q >       > k k P P ~ >       O f w :     o 8 * .   * I a q T E E J 7 J E R J *   6.h.h.e.dXiXiX6XyXtXlXlX@X",
"%X%XT.`.].).).).].'.R.$X%X#X< o J q J U 8 .         o %     X @ @ # $ 2 #   6 0 3 *     , v I.,   > I W R E h 7 I E E h   w b.h.f.9.pXiX7XeXrXzXzXlX+X",
"%XT.`.].)./.).`.'.R.T.%X+X#X}.$   o .   X 2 . # n X 9 #.p X vXDX1XP.cXHXV o #.Q D 4 X P.>X>XDXDX2   7 R E E h a R E T *   / y.e.jXhXpX XyXqX8XzX@X@X&X",
"T.'.].)././.).`.Q.T.$XXX@XOX#X}.2 < x N  XN   Z ;X  9 #.G X SXFX1X-XcXHXV o O.Q S   Z SX-X-XcXFX2Xl   % & o o o o o .   f h.0.0.jXhX6X XwX0XOXoX+X%XT.",
"'.`.)././.!.`.Q.E.$XXXoX@XzX9XrXeX.X.XaX/   l >XL.  S #.G X SXFX1X-X2XHXV o O.o.3 @ SXDX>XL.=XFXAXJ.v   : f w f f f N / h.h.r.pXpX6XwXeX8XzXzX+X%XT.R.",
"].)././.!.].'.Q.W.%XoXoXzX8X0XqX4X X X X: # L.>Xm   S #.G @ SXFX1X-X2XHXV o O.o.o l AXFXAXl 1 SXFX=Xm , > Z.b.M.j.v.v.g.f.gXjXiXiX XqXrX|.OXlXXXW.Q.'.",
"!././.!.].'.Q.%X%X+XoXOX8X0XqX4XiX XaXN   b -X>Xb   S #.G X SXFX1X-X2XHXV o @.o.. v 1XDXSX-XP.2XFXcXm v   3.M.p.y.q.f.w.9.dXgXdXuXeX0X8XOXoX@X%XT.'.].",
"/././.)._.T.W.&X+XoXOX8XtXwX4X X XiX9.$ , J.-X;Xv   F #.H X AXFX1X-XcXHXV o O.o.o c >XAXFX1X-X;XDXDXL.b   j j.7.( 0.t.( ( 7XhXuXtXrX|.OXoX@X&XQ.R._.].",
"/.).].`.R.Q.W.@XoXOXrX0XyX6XiXiXiXaX/   v L.;X-Xc   F #.H   cXFX1X-XcXHXV % @.O.3 # ;X2XFXAX-X-XcXFX1Xm , : g.( ( 0.t.9.pX7X4X4XtX|.zXlX@X%X$XR._.].!.",
"/.].'.R.T.$X@X@XzXzXtXyXuX6XpXiX9.aXN   b L.;XP.c . F #.H   cXFX1X-XcXHXM % @.O.S   m >XDXDX>X-X1XFXAXm c . 6.0.0.r.jXjXhX6X XqXtXzXoX@X%X%XT.'.].!./.",
"].`.T.T.$X+XlXzX8X0XwXwX6XdXdXe.9.y.f @ m P.;XL.c . F #.H   tXFX1X-XcXHXv % @.o.D o 1 ;XcXFX2X-X;XAXFX=Xb   B kXr.dXsX7XuXyXqXtXzX#XXX%X$X$X'.].!././.",
"`.R.T.W.%XoXzX|.rXeX4XiXpXjXjXf.t.g.: # m -X;Xm v . F #.H   cXHX1X-XcXHXv * @.o.D 4   Z 1XDXAX;X-X2XJXcXv X y kX7XiX X4XtXtXtXlXOXoX+X$XT.R._.)././.).",
"T.T.W.&XoXOXrXrXqX4XiXpXpXf.f.f.h.f.X l L.>X-Xm 1   F #.H   I.cX=XL.2XFX1 * @.o.D D . c >XDXHX2X-XZ V $     : hXpX X XwXtXtXlXzXXX+X$XT.R._.)././.).].",
"Q.W.%X@XOX8XeXeX6X5XsXsXf.h.f.h.j.3.  # v L.L.b   3 F @.H           X $ X 5 @.o.D D 3 # -X:XI.1 X   X M Z 1   6.dXiXeXtXtXzXOXOXXX$XT.R._.)./././.].'.",
"W.%XoXOX}.qXuXsXiXiXr.f.f.h.p.p.M.B   #     X X o D F @.H   g L J g * *   5 @.o.D D 4   @     2 v m 2XHX2Xb   C aX4XyXtXlX#X#XoXXXT.R.`.).!././.].`.Q.",
"%XoXOX8XrXeX6XpX9.9.t.q.g.p.s.s.M.f @ m L.m 1 X 3 D F @.H   I ) ) R a g o 6 #.O.D D 4   1 Z AXFX1X;X2XHXcXl   N .X|.0X0XzXXXXX+X$XR.`.).)././.).].R.Q.",
"@XOX8XrX4XiXsXdXe.w.q.y.p.p.d.d.M.> # L.>X>XL.1 o D F @.H   L T T I q q o + 6 * o .     Z >XSXHX2XP.L.V # . . N .XrXlXlX@X#X%XW.R.'.].!././.).`.`.E.W.",
"oXzX0XqXpXsXsXr.q.y.y.a.d.a.a.4.m.:   1 n Z m l . S D o.H   q g a a a a o   O ; e t t   b >X:XA 1     % j b.- 2 xXzXlXlX@X+XW.T.'.).)./.!.].`.`.T.%X@X",
"zXrXwX5XpXdXt.w.7.8.a.a.a.z.l.l.b.2 X > .     X   . o o o     . . . . .   O ` | [ [ [ O , #   O f ~ z.D.G.H.f , #XzXlXlX&XW.Q.`.].)././.].`.`.Q.W.+XoX",
"|.4X6X6Xr.e.q.g.a.a.a.d.z.z.l.l.x.2 f G.x.2.1.f   ;   = u u u u t r t ;   s ..' ' ] | r   f d.MXCXCXG.A.A.G.P @ #XlXlXW.E.Q.`.].!././.]._.`.R.W.@XoX|.",
"4X6X7XsXe.q.p.a.a.4.z.c.z.z.l.l.b.$ j G.A.D.H.j = :.t O ..>.>.>.>.>.>.s O =.;.&.{ u u _   b.ZXBXNXBXF.A.A.G.w , xXlXU.E.T.'.`.)./.^.)._.'.R.$X%XoXzX|.",
"6X7Xr.w.q.p.p.a.l.z.5.d.z.l.8.a.a.$ k G.A.A.A.+ s >.-.; X { .. . . .{ . u >.=.-.=.; + [   B ZXVXBXBXmXA.G.~   C #X%XE.T.'._.)./././._.`.R.E.%X@XzXrXeX",
"sXsXt.y.8.a.d.5.c.5.d.d.a.a.a.s.j.2 : A.G.G.z.X  .;.-.&.= O s ` ' [ s   | ;.=.=.-..._ [ r   B b.mXVXBXG.~   M #X$XQ.Q.'._.)./.^./.].`.Q.Q.U.oXOXrXuX6X",
"sXe.q.g.8.a.4.5.5.d.a.a.8.8.a.p.a.<.  % ~ A.2.O &.-.=.;.%.=   O O + O O &.;.=.-.=.-.| ' ' t     X 2 B f   x #X$XT.R.`.`.)./././.]._.T.T.$XoXoX8XeXpXpX",
"t.q.8.a.l.z.c.5.d.a.a.p.8.7.7.y.8.g.~ :   X + O &.-.=.=.;.&.s r ; ; + O &.-.=.-.-.-.&.' ' [ ' s u =   # V xX%XT.Q.`.`.).)././.)._.'.Q.W.XXzXzXeX6XpXiX",
"q.p.d.b.z.c.z.4.a.a.g.7.0.7.0.0.7.f.h.y.( N < O %.-.=.-.=.;.%.[ [ | u X &.-.=.-.-.-.-.| ' ' ' [ | _ . I.xXW.E.T.'.].).)././.).].'.T.W.@XoX}.eX4XpXiXe.",
"p.p.d.m.c.c.d.a.a.g.q.w.w.t.e.0.e.w.w.e.0.aX/ X %.-.=.-.-.-.&.' ' [ t X &.-.=.-.-.-.-.%.' ' ' ' ' _ X V $XT.T.'.~.)././.).).].`.R.%X&XlXzXrXeXdXsXe.f.",
"8.l.c.c.c.d.d.p.f.f.f.f.u.f.r.t.9.9.9.sX9.aXA O &.-.=.-.-.-.-.| ' { t O &.-.=.-.-.=.=.=.[ ' ' ' ' ' O x *XR.'.].)././.!.].].'.T.W.+XoXzX0XqXiXpXr.t.p.",
"l.z.c.c.a.d.8.q.f.u.9.w.gX7XdXgXsXiX6X7XpXjXA + &.-.=.=.-.=.-...` { t O *.-.=.-.-.=.=.-. .' ' ' ' [ = z *X_.].)././.!.].].`.R.$X&X@XOXrXwX5XpXt.f.7.8.",
"z.c.c.d.s.s.q.w.r.9. X X7XsXpXpX7X7X7X4X XaXA + *.-.=.=.=.=.-.&.' { t + -.-.-.-.=.-.=.-.%.' ' ' ' [ ; , '.].!././.!.].].`.R.T.U.lXOX|.eX4X7Xe.f.p.8.l.",
"N.c.c.d.p.q.t.e.7XiX X4X7X6X X X6XuXuX4X XuXA + *.=.=.=.=.=.=.&.' [ r + =.=.=.=.=.=.=.=.&.' ' ' ' [ u @ _.!./.^.!.].`.`.R.T.U.@XzX|.|.wXpXgXf.g.8.l.z.",
"c.d.d.s.f.r.9.iX7X4XyXyXyXyXeXqXeXqXtXtXtXuXC + ;.:.:.:.>.:.>.>.| | r = >.:.:.>.>.:.>.>.>. .[ { [ | s   Y./.^./.!._.'.R.$X$XoX#X|.|.eX7XiXe.f.p.a.z.c.",
"z.d.M.f.r.hXpX4XyXqX|.qXqXqXtX0X|.|.rX|.9XxXM X ; r t u u u u u r e + O u u s s s s s s s u t t r t ;   K.{./.).].`.R.$X$X+X#X|.eXeX6XgXr.q.p.a.d.5.c.",
"a.a.f.f.r.7X6XwXwX|.|.rXrX9X9X9X8X8XOX}.9XxXz   w > o o o : 2 2 : &     : $ o o . . $ $ $ o o o o     , K.{.!.].`.R.Q.$XXXoXzX0XqX5XpXjXf.8.a.a.z.c.5.",
"s.h.q.gX7X5XwXrX0X}.8X8X9XlXlXoXOXlXlXOXzX9XX B ZXS.T E T S.CXCXS.L   B CXS.T R U R mXNXBXb.Y R ^ - z [./.).].'.R.Q.$XXXXXzXtXeX4X7X9.0.g.a.z.z.c.5.a.",
"g.u.r.7X7XyXrX8X9XlXlXOXlXoX@X+XoXlXzX|.xXM + MXCXS.R ) R n.ZXZXMX* : VXZXMX! ) ) k.NXZXZXMX! ) k.* z [.).]._.'.E.$XXXXXOX0XuXuX7X9.0.y.s.a.c.c.z.z.8.",
"q.r.hXfXtXtX8XlX,X,X@X,XU.+XU.@XoX#X#X8XxXz   $ : > % * % > f f f   + > w f - 5 5 5 f j j j 5 5 5 . z [.]._.R.T.U.+X@XOX|.eXeX7XsXw.f.p.d.z.c.m.l.a.p.",
"u.gX7XtX0XOXoX,X,XU.U.<XE.E.,X@XOXzX|.rXrXI.v 2 < < , $ # # @ # $ , , , # @ @ @ @ @         X @ @ , K.[.'.R.$XW.lXlXlX|.|.wXiX7X9.f.8.a.M.m.c.5.a.p.f."
};
