/* XPM */
static const char *Y29sbGVj[] = {
/* columns rows colors chars-per-pixel */
"75 75 256 2 ",
"   c #102614",
".  c #332C19",
"X  c #143623",
"o  c #31392C",
"O  c #503A1F",
"+  c #16431E",
"@  c #195037",
"#  c #2C4E38",
"$  c #69441A",
"%  c #534A32",
"&  c #654D35",
"*  c #6C5230",
"=  c #795836",
"-  c #7D613C",
";  c #223855",
":  c #1E5859",
">  c #305549",
",  c #186C4F",
"<  c #306B54",
"1  c #267457",
"2  c #30476F",
"3  c #397267",
"4  c #505150",
"5  c #6D5B47",
"6  c #746B4F",
"7  c #575966",
"8  c #4F766C",
"9  c #72716A",
"0  c #A75D1A",
"q  c #885A2E",
"w  c #87633A",
"e  c #966636",
"r  c #AA6C36",
"t  c #8B5A55",
"y  c #886946",
"u  c #956D45",
"i  c #997449",
"p  c #897356",
"a  c #977A57",
"s  c #A87747",
"d  c #AC704E",
"f  c #B77B47",
"g  c #A77C53",
"h  c #88766C",
"j  c #BD7B6D",
"k  c #A77773",
"l  c #B77877",
"z  c #CA7D4F",
"x  c #C57B67",
"c  c #CA7C6F",
"v  c #199474",
"b  c #2F9071",
"n  c #4C8E75",
"m  c #6D8964",
"M  c #938A54",
"N  c #B58B4D",
"B  c #A9855A",
"V  c #B78557",
"C  c #95AB54",
"Z  c #ADAB5D",
"A  c #BDAA5C",
"S  c #BBB95B",
"D  c #988666",
"F  c #948E72",
"G  c #A98A64",
"H  c #B98B69",
"J  c #AB9765",
"K  c #B8986A",
"L  c #AB8A7B",
"P  c #B48775",
"I  c #AC9C75",
"U  c #A99579",
"Y  c #AA957B",
"T  c #A59B7D",
"R  c #AA9A7A",
"E  c #B49875",
"W  c #9DAA7C",
"Q  c #9CB77A",
"!  c #AEAA6E",
"~  c #BBA265",
"^  c #B6AB67",
"/  c #B3A36B",
"(  c #ACB36C",
")  c #ACBA6C",
"_  c #B6B666",
"`  c #ABA374",
"'  c #ABAB73",
"]  c #A4A37B",
"[  c #A3AB7B",
"{  c #A8A978",
"}  c #B3A475",
"|  c #A6B675",
" . c #CF8F4D",
".. c #D9874D",
"X. c #CA8A5A",
"o. c #D58956",
"O. c #C99859",
"+. c #D29553",
"@. c #E18750",
"#. c #CFA04F",
"$. c #C5A959",
"%. c #C4B559",
"&. c #C68766",
"*. c #C49566",
"=. c #CC9671",
"-. c #C3A864",
";. c #C6A876",
":. c #B8C65B",
">. c #B6D157",
",. c #ACC369",
"<. c #AEC86B",
"1. c #B4C566",
"2. c #C2C960",
"3. c #2A5A99",
"4. c #326BB0",
"5. c #59548B",
"6. c #4D6F9E",
"7. c #6E6B8E",
"8. c #7D7BAD",
"9. c #6D6CB6",
"0. c #7B6CB6",
"q. c #7B65BD",
"w. c #756DBE",
"e. c #7B6CBB",
"r. c #7C75B5",
"t. c #7C7AB3",
"y. c #7675BA",
"u. c #7A72BA",
"i. c #165ACB",
"p. c #3073D4",
"a. c #347AE2",
"s. c #6E5FCE",
"d. c #745EC7",
"f. c #6A5DD2",
"g. c #685CD5",
"h. c #407CC7",
"j. c #6E6BC1",
"k. c #6E63CC",
"l. c #7465C5",
"z. c #7867C3",
"x. c #746BC3",
"c. c #7163C9",
"v. c #746ACE",
"b. c #996D9B",
"n. c #8D7C9D",
"m. c #927690",
"M. c #987798",
"N. c #937B9C",
"B. c #AB768A",
"V. c #A77888",
"C. c #8A6CAA",
"Z. c #916DA4",
"A. c #8C74A5",
"S. c #8C7BA3",
"D. c #8575AC",
"F. c #847BAB",
"G. c #8878A8",
"H. c #9375A3",
"J. c #8467B5",
"K. c #836CB3",
"L. c #8274B2",
"P. c #837AB3",
"I. c #A572A0",
"U. c #8574C2",
"Y. c #319B81",
"T. c #36AA8A",
"R. c #57978C",
"E. c #699792",
"W. c #49AE8F",
"Q. c #7C84AA",
"!. c #649FA7",
"~. c #7289B0",
"^. c #71ADB2",
"/. c #6BCBB0",
"(. c #3D82DB",
"). c #468AD9",
"_. c #4E91D1",
"`. c #559AD9",
"'. c #7A9FCD",
"]. c #5CA5D3",
"[. c #64ABD8",
"{. c #6EB2D0",
"}. c #73B8DA",
"|. c #4D93E4",
" X c #59A4E5",
".X c #6AB1E4",
"XX c #71C0C5",
"oX c #7DC5D7",
"OX c #898F89",
"+X c #9B878D",
"@X c #9C8C8C",
"#X c #9E9486",
"$X c #9D9B85",
"%X c #9B938B",
"&X c #97998C",
"*X c #8D849D",
"=X c #898A9B",
"-X c #8C8B9C",
";X c #958595",
":X c #9A8492",
">X c #968A96",
",X c #948C94",
"<X c #92839A",
"1X c #8B9595",
"2X c #8B929C",
"3X c #939293",
"4X c #959793",
"5X c #A68686",
"6X c #A48C85",
"7X c #A39483",
"8X c #A39B82",
"9X c #A49488",
"0X c #A68F91",
"qX c #9CA383",
"wX c #98A686",
"eX c #8EA890",
"rX c #A3A485",
"tX c #B3A88F",
"yX c #8484A4",
"uX c #8B83A3",
"iX c #878AA4",
"pX c #8483AB",
"aX c #9086A8",
"sX c #A08EA1",
"dX c #8FADAF",
"fX c #B4B6AE",
"gX c #C8A885",
"hX c #D8A093",
"jX c #D2AF92",
"kX c #E7B694",
"lX c #CBBBA7",
"zX c #ADC4BE",
"xX c #E6C09C",
"cX c #D3C7B7",
"vX c #EECCB2",
"bX c #99B9CC",
"nX c #90C7CE",
"mX c #85C7D8",
"MX c #8BD3DB",
"NX c #95D4DA",
"BX c #AAD2D1",
"VX c #92D2E2",
"CX c #A3DBE6",
"ZX c #A9E6E5",
"AX c #D4D4CC",
"SX c #EAD8C8",
"DX c #F5DBC8",
"FX c #E9DED1",
"GX c #D4E2DF",
"HX c #EFE3D5",
"JX c #F8E7D8",
"KX c #E9EAE6",
"LX c #F6EFE7",
"PX c #FDF4EA",
"IX c #F9FAF6",
"UX c #FEFEFD",
/* pixels */
"7X&X>X*X=XyX8.8.t.J.r.y.y.Q.Q.Q.*X-X<X-X-X;X<X<X<X*XS.Z.A.pXpXF.L.r.u.q.q.w.z.l.c.s.c.s.f.g.g.f.k.k.x.x.x.u.r.pXpXuXuX-X4X&XwXqX[ ' ~ _ %.%.$._ / ' ] ",
"5X,X-Xn.yX8.8.r.0.0.y.y.t.Q.yXyX=X*XN.-X-XN.M.;X-Xn.A.G.G.D.F.P.J.0.u.q.q.x.l.d.s.s.f.f.g.g.f.k.c.x.x.y.u.K.D.pXuXb.N.3X&X#X8X[ | ) ,.1.>.:.1.) | ] qX",
"4X;X*XG.D.J.q.y.w.y.y.t.8.G.*X=X*X-X,X;X;X;X;X-X*XN.S.G.G.C.D.t.r.0.y.x.x.c.k.k.f.f.g.g.f.f.k.k.l.x.y.u.K.J.C.uXS.M.;X+XV.l L | | _ 1.>.:.<.( H { T V.",
";X*XZ.D.t.q.q.w.w.~.t.8.yX=Xn.*X,X1X3X>X;X;X,X-X<XN.S.G.D.D.r.r.u.y.x.x.x.k.k.k.f.g.g.f.k.k.k.x.x.u.y.r.L.C.S.iX-X-X>XV.6XU [ ' ( 1.:.>.A ^ ,.I T $X%X",
"*XS.C.8.y.q.q.j.9.~.Q.F.iX=XN.1X;X3X3X3X:X:XN.M.-Xn.A.G.D.P.r.0.e.x.x.l.c.k.s.f.g.f.s.k.k.k.x.x.u.r.t.t.D.G.iX2X2X3XV.V.qXwX{ &.( _ %.:.*./ Q Q qX@X4X",
"*XG.K.t.w.d.l.w.y.8.F.yX*X-X;X>X:X4X4X4X,X:X;X-X-XN.S.G.D.L.L.0.w.w.z.v.v.f.f.g.f.s.v.v.c.l.x.w.L.L.P.D.C.A.uX2X2X3XV.6XwX[ H K ,.$.A 1.^ ` L wXwX,X;X",
"S.C.J.0.q.l.j.w.r.Q.yX=X2X,X,X+X&X%X&X@X%X,X:X>X<XN.S.A.D.P.L.u.U.v.9.5.5.2 2 2 2 2 5.9.z.z.e.r.K.C.L.C.Z.H.-X2X3X+XB.L [ } H ) <.:._ ) ,.I U wX&X1X*X",
"G.K.J.w.w.l.w.r.F.yX=X1X1X3X@X@X#X#X&X%X&X3X:X>X<X<XA.A.F.P.U.9.5.4 ; 2 3.4._.).).4.3.3.3.5.0.P.K.C.D.G.A.n.-X3X4X@XB.L [ | ) ^ A A *.( | W wXeXeX1X*X",
"8.r.y.9.x.9.t.Q.yX*X<X3X3X@X#X#X7X7X7XwX%X+X:X>X-XN.A.G.P.7.7 7 OX2 4.p.(.).|.|.|.).a.a.p.4.3.7.D.P.pXyXiX-X-XV.%X#X5XT | | ) X.O.^ / } U 8X#XeX1X=XS.",
"D.t.w.w.w.t.Q.yX*X;X:X@X%X#X#X8X7X7X7X7X#X@X@X:X;X<XaX7.7 9 cXKX'.p.3.3.).).|.|.|.|.).p.p.p.p.4.5.7.pXiX=X2X3X+X%XqXqX[ { ,.) ^ ^ ) | R T $X%XeX1X=XF.",
"8.r.y.y.y.8.F.*X1X3X%X6X6X8XT T T T 8X8X$X#X%X,XsXm.7 9 AXUXLX~.)._.4.6.`..X X X X`.).).).a.p.i.bXfX7 7.2X1X3X%X&XwXT P ` ( ~ _ ) | | ] qX&X4X1X=Xn.yX",
"8.~.y.u.K.F.*X,X3X%X#X7XL U T ] ] T U U 7X6X%X@X7 4 fXUXIXBX_.|.`.`._.!.^.}..X X|.|.|.`.[.[.p.i.bXUXKX9 9 sXV.V.6XqXL P ` K X.^ ,.Q [ 7X6XeX3X1X=XA.D.",
"Q.~.t.t.F.n.N.+X@X#X8XU R R R ] ] R T T 8X0Xh 9 9 KXIXGXbX{..X`.`.[.mX{.]. X.X X.X`._.].[..X`.p.4.AXUX'.2 h 0XV.7XqX] { / &.H ! | Q Q 8X#X@X:X1X=XS.yX",
"8.t.8.F.n.N.,X@X5X7XrXT ] ] R ` ] R U 8XrX9 OXdXAXUXBX'.{.mX}.[.[.}.VXoX.X.XmXVXCXVXmX{.[.}.].(.a.h._.p.p.2 9 rXwXwXQ | K K ! | Q Q wXwX&X&X,X;X=XiXQ.",
"Q.Q.G.*X<XM.%X#X7X8XT ] ] { I I I I 8XU 9 dXCXmXdXdX{.}.mX}.}.}.oXmXoXoX}.}.mXVXNXNXNXNX{.[.].`.).a.(.p.p.p.2 F rXT | ' ! ( | Q Q Q wXwX&XeX3X1X=XyXyX",
"Q.yX*X;X:X+X%X7X6XT R R I I I I I ] F 9 4XBXVXVXVXmXmXmXmXoXoXmXMXoXoXoX}.}.oXMXMXNXNXCXNX].].`.).).).).p.h.4.> L R [ H K ) | [ W W $XwXeX%X,X1X2X2XyX",
"=X2X1X3X@X%X$X7XU R R U I I ` ` } D 9 dXfXKXnXVXmXmXoXmXNXNXNXNXCXMXMXVXMXoXmXMXMXNXNXNXCX!.].}.`.`.`.`.`.6.4.3.5 | Q H E } E R ] T 7X5X&X@X3X1X,X*X=X",
",X,X3X3X@X#X7X7XT U L I I I I { D 9 BXmX!.nXmXmXmXmX{.nXNXCXnX^.!.R.R.R.!.^.MXMXMXmXNXNXnXdXE.!.].].[.[..X_.4.i.3.M | | E E P P T U qX$XwX&X4X1X,X;X-X",
":X+X&X%X#X6X6X8X] U L R ] I R D 9 dXoXVXmXoXoXoXmXmXNXNX^.8 > @ X @ , , , @ > R.{.MXMXnXfXIXzX6.[.].[.[..X}._.i.i.> J ,.| { R T R L qX$XwX&X%X@X&X3X3X",
"+X@X+X%X#X7X7XU T T U R R ] F 9 ^.^.MXNXmXMXMXNXCXXXE.3 > @ , @ 1 Y.Y.v v v , @ : 8 E.nXfXBX^.^.oX{.{.{.[.{.`.p.i.3.4 ) ' I [ Q ] W wXqXqX$X&X&X&X%X,X",
"@X@X5X7X7X7X8X8XT T U L U F 9 ^.^.MXNXNXCXZXZXMXE.> # 1 1 1 , 1 T.T.v v v v v , 1 @ 1 3 R.E.E.mXmXmXmXmX].]._.p.p.p.3.5 H E I Q Q Q Q W wX$X8X$X8X%X%X",
"5X#X#X7X7X7X8X8X8XT U U U 9 nXmXNXCXNXZXZXnXE.3 @ 1 b , 1 1 , Y.T.T./.BXGXBXBX^.n < 1 Y.b b 3 3 8 R.!.^.{.].`._.`.p.p.3.4 J | Q I P ] [ W W T T qX@X5X",
"5X@X#X6X6X7X6X5X7X7X7X6X5 1XR.R.R.!.E.R.n 1 b b < b n n b , , Y./.GXfXh 6 9 OXfXAXzXm n ^.1X< , 1 @ @ > 3 8 !.!.{. X). X4.> M | I P ` [ I I [ U 7X@X5X",
"#X#X7X7X9X6X#X6X6X7X9X9 9 8 b W.Y.b b b T.Y.b 1 1 W.4X4X1Xn b BXfX4 5 y p cX& 5 p tX&X% * $ $ # < R.n @ @ @ @ # > 3 6.h.a.i.2 m | | | | I I { U 8X6X5X",
"$X#X#X9X#X%X@X6X@X9X9 8 n W.W.T.T.T.T.T.T.v b b n 8 . 9 F % 9 5 9 GXG V w E a E G PXfX% a e q E ;.5 OXfXfXfXdXn > # > > 3 4.i.2 M } ( ! ( E I T $X#X#X",
"#X#X@X@X%X+X+X+X@X@X> < n /.W.T.T.Y.v b b n eX5 = * y D IXtXe u 9 IXy r w G e V g vXD y B y 8XJXD 5 5 & 5 9 4X1X8 @ @ @ @ + ; i.4 K ^ *.K E R T $X$X$X",
"7X@X@X+X@X@X,X>XsX9 > b W.3 @ # # 4 6 9 % fXUXfX0 f p w a cXB e $ rXB 0 q w r r X.tX* e $ rXIXF * r r q a lXvX;.5 % & o   X + ; 2 C 1.^ K ` R T 8X7X7X",
"6X@X+X+X,X,X;X;X;X4 3 W.< . i J D K *.;.K 6 AXUXcXr B D e e *.G q * 5 = $ O q q g % $ & F jX& O q q w G jX*.e * g B a K %   + @ ; M -.) / I T U 7X6X5X",
"%X%X,X>X;X-XM.<Xm.7 n b o a O.B D E tXE ;.B - G xXjXB p * w w w y % . % y i q f * . 5 a s * = s B H gXE y y B M M V u i o X X @ o Z ^ K ' [ R U 8X7X6X",
"%X3X>XN.;X<XN.<Xm.7 n @ # K V B B } tXgXgXK ;.D p g B a y 6 - * . w w i g =.w o...& & & % g i - w - y - w M B H B i V w   @ + X * _ ) K E I T U 6X7X#X",
"V.;X;XN.*XuXuXS.A.7 n > % V G B K } jXlXgX} =.K G D F & a % w w $ f u G p jXu s  .w = G 6 R kX6 % p a s s i u i g u % X n 1X  % O._ ) ! P I T 8X$X#X%X",
">X-X<XS.S.S.S.G.P.7.# < # 6 I B V K gXtXtXgXK G 6 lXa G 6 = s r * V a a u xXa B V i = V B D GXSXh % 6 6 O . o # @ , , b zXM m _ -.) K H P U qX6X#X%X+X",
"-X*XS.S.G.G.D.P.t.P.7 > b > G *.X.X.*.*.;.gXE p AXtXB M 6 G s r * V s u B xXD B V B w s g p $XKXvXAX9   # n W.W.W.W.^.eXM >.2.O.&.K &.E R R 8X$X@X+X:X",
"<XuXS.G.D.P.L.r.u.y.U.5.< b # * w w = u K G 5 4XOX% % o y *.f f = H V g G kXa u z e * g V B D tXGXfX4 > T.E.T W | ) Z N S S X.X.*./ ' | T 8X9X5X@X:XN.",
"uXS.G.D.L.r.u.e.q.z.x.v.5.< b eXeX^.dXn o . o # # > > < < & = = O H V B gXjXG y ..* X % = u 5 % o X n W.4 N S >.>.>.#...O.S ~ ~ &.H { [ T 8X6X%X3X;X<X",
"uXG.P.L.q.w.w.z.l.l.x.x.x.0.7.aXsXOX4XBX^.W.W.W.n 3 o b T.b , < # s B H vXE tXy z $ , < # # # < b W.zXM S 2.S %.:.>.#.o.A 1.) *.H E P T 8X9X%X@X;X*XS.",
"pXF.L.e.q.x.x.l.c.c.l.x.y.P.P.C.Z.Z.9 4 n R.n 8 9 k t % # 1 b b > w V ;.vXE vXp r * # # < 3 b b b 6 d  .%.S #...+.S 1._ ~ _ ( K ` [ T qX8X%X4X3X-XiXyX",
"F.L.u.w.x.l.k.k.k.d.z.e.t.F.G.A.Z.b.I.I.h h h k l l c c d t 5 & o y =.kXkXgXvXh q w C M - 6 m m N ..@...+.%...z o.S 1._ ~ / ! | [ U 8X5X5X%X3X2XiXiXG.",
"L.L.w.x.l.k.k.k.c.z.q.K.L.C.Z.Z.b.b.b.B.B.B.V.B.l l j x c c c c & y gXvXjXcXDXtXu = C 2.>.>.2.2.$.......+.%.O.o.X.O._ <./ x E | ] L 6X5X&X,X<X-XuXG.D.",
"L.e.x.c.k.s.k.x.x.e.q.L.D.Z.Z.b.b.M.b.B.B.B.B.l l l j x x x x x & a jXvXlXSXJXcXB e - %.A S :.>.S #.....#.:.:.$.X.o.-.,./ H I U rXwX9XV.3X;X*XuXG.F.P.",
"e.z.c.k.f.f.k.x.u.q.K.K.G.S.N.b.M.B.B.B.B.B.l l l j x x x x x f 6 E xXvXlXHXJXvXg V = +. .+.#.%.>.:.%.%.:.1._ O.X.&.*.K | [ P P rXwX%XV.,X-XS.G.D.L.0.",
"x.x.k.f.g.s.x.u.u.K.K.C.F.iX-X;XM.V.V.B.B.l l l j x x x x x o.d h gXvXvXcXJXLXJXD V y  .@.....+.S >.:.:.1.1.*.*.~ &.x H | [ R 5X6X%X,X>X*XuXuXD.L.0.e.",
"l.k.f.f.s.c.x.u.r.L.C.G.uX-X-X>X+XV.B.V.l l l j x x x x x x o.y h jXvXvXDXSXAXIXtXu a f @.....+.%.:.:.1.1._ ^ ) ( H H ` [ qXqX5X5XV.;X<XN.S.pXC.r.u.x.",
"s.f.g.s.c.x.u.L.L.D.G.S.-X-X:X+X5X5XV.l L P P j x x &.x x X.z 6 U vXvXSXJXSXfXUXcXw H s @...o.o.$.1.1.1.<.<.) ( / I ` R L 8XqX9X&X>X-X-XS.G.F.L.0.x.l.",
"f.f.f.k.l.w.r.P.D.C.S.-X2X,X+XV.V.5XL L L E P H x &.&.&.z o.d h jXvXvXJXLXJXfXUXAXy K s ..o.o.X.A 1.<.<.<.) ! H j P R l l $XwX4X4X<XN.S.G.F.P.u.q.l.c.",
"g.k.c.x.w.u.r.F.G.A.*X-X3X%X5X5X5XL L R ` ` E H &.&.&.o.o.o.y lXvXvXDXDXPXFXfXUXAXa K i +.X.O.-._ ,.,.) ,.) E j j P T L 6X&X+X:X2XN.uXpXF.L.K.e.l.c.f.",
"f.c.x.w.e.K.F.G.uXuX2X3X4X%X6X5XL P U { ' ' / H &.&.o.o.o.z D DXvXDXDXcXIXcXfXUXfXV G g -.-.-._ ) ) ^ ! ( | I P P T rXrXwX%XB.:X2XuXG.F.L.L.e.z.c.s.g.",
"c.x.w.0.K.D.pXuX-X-X,X@X9X8X8XU L U I ' ' ( / *.&.X.o.o.@.s fXJXvXDXSXSXIXcXAXUXU V p V -._ ) ) ( K H H E ` [ R rX8X7X#X&X3X;X2XuXZ.C.L.K.K.z.c.s.g.f.",
"x.e.0.r.L.G.uXN.<X>X+X5X6XrXrX] I ` ' ! ! ^ ^ *.X.X.o.o...i FXvXvXJXcXcXUXAXKXLXg H 6 X.~ _ ) ( K H x j j U [ wX$X5XB.+X4X2X2XiXS.G.D.L.0.q.l.k.f.g.k.",
"w.e.r.P.G.S.<X<X:X+X5X6X6X] [ [ | ' ! / ~ K ~ $.X.o.+.+.z F JXvXDXPXlXFXUXAXIXlXs U p &.K ( ( ' E j j j l U wXwX6XB.V.,X2X2XiXuXC.D.K.q.e.l.k.f.g.k.l.",
"u.r.L.G.S.*X>X@X%X@X7X7X] [ { ' | ) ^ K X.X.O.O.O.+. .o.f 9XvXvXDXLXgXLXUXAXPXH f F y &.K / I E E P j l L 8XwXwX9X5X>X2X2XiXS.S.C.J.q.q.l.k.f.g.f.c.z.",
"t.L.G.S.N.:X%X%X5X5XT ] [ | ' ! ) ) ^ *.X.X.X.+.O.+. .+.s tXvXvXLXFXtXUXIXAXDXV f h 6 &.H H P P P P L L 7XqXwX%X5X:X3X2XiXH.Z.G.K.e.w.x.k.s.g.f.c.x.u.",
"L.D.S.*X<X:X%X6XL L R I ` ! ( ( _ _ $.O.O.+.+.+.#.+.+.+.p tXvXDXPXcXlXUXKXSXvXH X.a 5 c j j j l l l L 8XqXwX%XV.B.M.-XiXuXZ.C.D.K.q.x.k.k.g.f.k.l.w.u.",
"F.S.*X<X:X5X9X8XU I I E ! ^ _ _ _ S $.O.+.+.+.+.#.$.O. .5 gXDXDXPXlXAXUXKXSXxXE =.=.& k c l l l l l 5X7X9X&X+XB.M.<XiXiXG.C.L.r.q.z.c.s.f.f.k.x.x.y.r.",
"G.iX-X:X0X7X8XT I E E / ^ ^ ^ S :.S %.$.#.O.#.O.$.%.%.N 5 kXDXDXPXjXAXUXKXSXvXU =.kXp t c l l l l B.V.V.5X3X,XM.<XiXiXpXF.L.t.w.z.k.k.f.f.c.x.x.0.L.F.",
"uX<X,X@X6X7XR I H K / ~ ~ $.O.O.$.%.S %.$.$.$.%.%.1.2.M y kXDXFXLXjXKXUXLXFXJXtX*.hXH 5 l l l l B.B.B.B.V.,X<XM.N.uXpXpXP.t.u.x.l.k.f.f.c.x.x.u.r.D.A.",
"M.:X%X#XU U I / / ~ ~ _ $.$.O.X.O._ _ _ S S S _ _ _ 1.6 u kXDXFXHXlXIXUXUXJXJXGXE *.gX6 k B.B.B.B.V.V.M.>X-XM.b.H.pXpXt.t.u.x.l.s.f.g.c.l.x.y.r.F.A.N.",
":X%X#X7XU I ! ^ ~ A A S $.$.O.O.-._ _ 1.1._ _ ^ ^ ^ ^ & g kXvXFXHXlXIXUXLXSXDXUXtX*.gXF h B.B.B.V.:X,X-X2X<Xb.H.S.pXt.y.0.z.x.k.f.g.k.l.z.w.K.D.G.uXN.",
"%X#X7XU I ! ^ ~ O.$.S _ -.*.K ~ ^ _ _ _ _ _ ^ ~ *.*.J % G kXDXHXFXlXIXUXHXSXDXPXAXK gXE 6 0XV.V.M.:X-X-XiXuXS.A.D.L.y.0.q.l.k.f.g.f.l.x.y.y.L.G.uX-X>X",
"#X7XR E K ~ _ S %.S _ _ ^ ~ ^ ( ( ^ _ ) ) ) ^ K H &.g % H kXDXHXFXSXPXUXHXcXDXPXKXE gXH 6 ,X:XM.M.M.N.iXiXpXS.C.J.u.y.z.l.k.f.g.f.c.x.u.u.t.G.S.<X4X%X",
"8XU I / K K A S S _ ^ ^ K K / ( / / / ( ( ( ' H H &.k % g =.vXFXFXDXLXUXGXfXSXPXAXV ;.K 5 OXM.b.b.b.H.uXpXpXC.J.0.y.x.x.k.s.g.f.c.l.e.e.K.C.S.*X>X0X6X",
"R I / ~ -.$.%.S _ ^ ^ / K E E E K E ' ` I ` { I P P k % g H xXSXcXDXJXUXGX7XSXPXtXV E H = 7.M.b.b.b.A.pXpXP.L.e.u.x.x.k.k.g.f.k.l.q.u.r.D.uX*X;X%X6X5X",
"I ! ( -.$.%.$.A ~ ^ / K P E P P E ` { I P P R ] U L L % g *.kXvXcXDXJXIXKX#XKXcXV *.I V = 7.H.b.H.A.G.F.P.P.y.w.z.l.k.k.f.f.k.l.z.0.t.F.G.S.>X+X6XL L ",
"! ^ _ :.%.%._ ^ / ` I I I R U P U U U U P P U rXqXqXrX% y *.kXkXlXHXJXPXIXtXFXH +.*.E V 5 7.aXS.G.G.P.K.K.q.w.z.d.k.s.f.k.k.c.x.y.L.P.pXuX<X:X9X7XU ` ",
"K O.%.%.%.^ ( ! ` { ] ] W ] T R L L L 7X6X5X8XqXwXwXrX6 = f =.vXjXFXJXLXIXfXU N =.=.E s 5 7.aXpXt.t.L.J.J.q.x.c.k.s.f.s.c.c.z.w.r.D.G.iX-X:X5X6XT I ! ",
"O.$.%.%.~ ^ K I ] W L U qX$X8XqX7X5X#X#X6X$X&X6X6X%X9Xh % s X.hXjXjXDXJXIXOXi V =.;.B s 5 Q.pXt.t.r.e.q.q.x.c.k.s.f.s.c.c.x.e.K.P.G.A.<X,X@X6XT { E K ",
"$.%.%.^ ( ( I U U 5XB.V.#X7X6X9X%X&X&X+XV.@X%XV.V.+XV.V.4 - V  .=.E lXJXPX9 w V H K s i 7 pXt.t.y.u.w.x.z.c.s.f.g.s.c.c.x.y.0.t.pXS.M.>X+X#XU ] ' K O.",
"2.%.-._ ( I R U $X5XV.+X&X%XV.V.&X4X4X+XV.,X4X+XV.+XV.B.9 % g X.z f i lXIXh w s V V f y 7.P.t.y.u.x.x.x.c.s.f.g.f.c.x.x.w.0.t.F.uXN.M.@X6XqX] ` K O.$.",
"%._ ^ ) { R L 5X&X+X3X3X3X3X>X:X>X:X1X1X1X1X1X1X,X1X;XM.:X4 % *.X.r e u xXG s s g  .f 7 y.r.y.y.x.z.l.c.c.f.g.f.s.l.x.q.K.K.D.H.N.M.,X&X5XU ` ! ^ $.%.",
"A _ ,.[ T W 6X+X%X:XM.;X;X;X2X-XM.M.<XN.2X=X<X-X2X2X2X-X-XM.4 % *.f r e E G s e V  .& 7.K.e.w.x.x.c.c.c.s.f.f.k.c.x.e.J.K.D.Z.N.;X,X%XqXT I / ~ _ S %.",
"^ ^ ` [ 8X$X%X,X,XM.N.<X<X=X=X=X*X*Xn.b.iX*Xb.*X2X2X2X-X-XuXH.4 % a g V L a X.f s % 5.U.q.q.l.c.k.k.c.s.f.f.k.c.x.y.u.K.D.G.<X-X:X@X6XqX{ K ~ ~ $.%.S ",
") | R qX#X@X,X<X=Xn.*X*X=XiXyXZ.S.yXyXS.iXiX*X=X2X-X<XiXiXiXyXaX7 o % & % y u & 4 7.x.q.q.z.c.c.k.k.f.f.f.k.c.z.w.u.K.C.A.uX2X>X+X#XL P } ^ -.$.$.S ^ ",
"/ [ T $X&X3X<X*X=XyXyXS.yXG.F.D.D.pXiXN.N.=X=X2X2X-XM.b.S.iXiXuXH.C.7.4 o o 4 5.u.x.w.z.z.l.s.s.f.f.f.f.k.c.z.w.y.J.C.Z.S.-X4X4X&XL P I _ _ %.%.$.A K ",
"I T wXeX1X2X*XiXQ.Q.F.Q.8.D.8.F.A.A.H.<X-X*XN.-X<X<XN.H.H.uXiXpXG.D.P.P.J.J.U.x.e.w.x.x.l.s.f.g.g.f.s.k.c.l.q.e.t.D.G.S.M.>X:X&X8XU [ / _ $.%.:.O.~ ! ",
"W qX&X1X-Xn.G.Q.Q.8.8.~.t.r.Q.F.S.uXN.<X*X-X*X*XM.N.N.S.G.pXpXpXpXt.r.0.L.e.w.x.z.c.x.c.k.f.g.g.f.k.k.c.x.q.J.r.pXpXiXN.M.,X5X$XL ` K ~ 1.:.%.S ~ ( { "
};
