/* XPM */
static const char *Y29sbGVjJTI4MiUyOQ__[] = {
/* columns rows colors chars-per-pixel */
"75 75 256 2 ",
"   c #020302",
".  c #090B08",
"X  c #0E110F",
"o  c #15130C",
"O  c #181914",
"+  c #281815",
"@  c #122A1C",
"#  c #2D291A",
"$  c #1B1C28",
"%  c #183128",
"&  c #2F2F2D",
"*  c #4D331B",
"=  c #4A3A2A",
"-  c #623B26",
";  c #15492F",
":  c #2E4C37",
">  c #544F1F",
",  c #594529",
"<  c #504B36",
"1  c #73522F",
"2  c #6A583B",
"3  c #6F6837",
"4  c #1F3359",
"5  c #31324B",
"6  c #453654",
"7  c #195A4A",
"8  c #2E5748",
"9  c #1A6F51",
"0  c #2A6D53",
"q  c #317A68",
"w  c #53534A",
"e  c #695448",
"r  c #506A5B",
"t  c #72684E",
"y  c #5C4D6C",
"u  c #517169",
"i  c #737469",
"p  c #8D4F1B",
"a  c #8B5930",
"s  c #9B602B",
"d  c #8B653C",
"f  c #96683B",
"g  c #AD6F38",
"h  c #88584B",
"j  c #886A46",
"k  c #966D45",
"l  c #987449",
"z  c #887553",
"x  c #987A56",
"c  c #A57648",
"v  c #AE784B",
"b  c #B47C4A",
"n  c #A87D53",
"m  c #8D6F6C",
"M  c #B67977",
"N  c #B87970",
"B  c #C67A50",
"V  c #C57B67",
"C  c #C77E77",
"Z  c #1F8F6B",
"A  c #338C6E",
"S  c #4B9278",
"D  c #728669",
"F  c #A0813E",
"G  c #978755",
"H  c #A78359",
"J  c #B88657",
"K  c #B68E50",
"L  c #BBA95D",
"P  c #BBB95C",
"I  c #928870",
"U  c #A78864",
"Y  c #B98B69",
"T  c #A79569",
"R  c #B8976A",
"E  c #AC897C",
"W  c #B48775",
"Q  c #AC9C75",
"!  c #A89578",
"~  c #AA947B",
"^  c #A59B7D",
"/  c #AA9A7A",
"(  c #B59874",
")  c #9DAA7D",
"_  c #9CB77A",
"`  c #AEAB6E",
"'  c #BBA264",
"]  c #B6AB67",
"[  c #B3A46B",
"{  c #ACB36D",
"}  c #ACBA6C",
"|  c #B6B665",
" . c #A8A876",
".. c #A4A37B",
"X. c #B3A475",
"o. c #A6B575",
"O. c #B1BD7D",
"+. c #D28D4E",
"@. c #C9895B",
"#. c #D48956",
"$. c #C99859",
"%. c #E49055",
"&. c #C5AA59",
"*. c #D3AB59",
"=. c #C4B559",
"-. c #C68865",
";. c #C49566",
":. c #CB9572",
">. c #E48E69",
",. c #C4A865",
"<. c #CAA773",
"1. c #B8C65C",
"2. c #B7D15D",
"3. c #ACC369",
"4. c #B5C566",
"5. c #A7C173",
"6. c #C7C85B",
"7. c #CDD162",
"8. c #473F83",
"9. c #2A5B94",
"0. c #326CB3",
"q. c #636094",
"w. c #6F6CAF",
"e. c #7D7BAD",
"r. c #7B65BD",
"t. c #756DBE",
"y. c #7A6BB8",
"u. c #7B6CBB",
"i. c #7C74B5",
"p. c #7C7AB3",
"a. c #7675BA",
"s. c #7A72BA",
"d. c #2367D6",
"f. c #3071D0",
"g. c #6D5ECE",
"h. c #745EC7",
"j. c #675CD4",
"k. c #6A5DD2",
"l. c #6E6BC2",
"z. c #6E63CC",
"x. c #7464C5",
"c. c #7867C4",
"v. c #746BC3",
"b. c #7164C9",
"n. c #756ACF",
"m. c #656ADB",
"M. c #997A8D",
"N. c #986D9A",
"B. c #8D7B9C",
"V. c #937B9C",
"C. c #987898",
"Z. c #A77888",
"A. c #AE788C",
"S. c #8A6CAA",
"D. c #8C74A5",
"F. c #8C7BA3",
"G. c #8575AC",
"H. c #847BAB",
"J. c #8878A8",
"K. c #9374A2",
"L. c #9270A7",
"P. c #8367B5",
"I. c #836CB3",
"U. c #8274B2",
"Y. c #847BB3",
"T. c #A377AE",
"R. c #8577C4",
"E. c #34AD8C",
"W. c #3AAA8A",
"Q. c #549187",
"!. c #749189",
"~. c #4EB194",
"^. c #74A796",
"/. c #4F8CAD",
"(. c #6F8EAF",
"). c #7C85AA",
"_. c #6FABB1",
"`. c #61C3A8",
"'. c #3C83E1",
"]. c #4589DA",
"[. c #5296D6",
"{. c #699FC5",
"}. c #5BA3D4",
"|. c #65AAD8",
" X c #71B5D2",
".X c #4E94E2",
"XX c #59A5E5",
"oX c #6FB6E5",
"OX c #7CC5D7",
"+X c #9C878C",
"@X c #9C8C8C",
"#X c #8A9184",
"$X c #9D9485",
"%X c #9B938B",
"&X c #999A8A",
"*X c #8D849D",
"=X c #898A9B",
"-X c #8C8B9C",
";X c #958595",
":X c #9A8492",
">X c #968A96",
",X c #948C94",
"<X c #92839A",
"1X c #8C9596",
"2X c #8B929C",
"3X c #939293",
"4X c #959893",
"5X c #A68686",
"6X c #A48C85",
"7X c #A39484",
"8X c #A29B82",
"9X c #A49488",
"0X c #AB9190",
"qX c #9CA383",
"wX c #98A686",
"eX c #90A88E",
"rX c #A4A585",
"tX c #B3A98E",
"yX c #8484A4",
"uX c #8B83A3",
"iX c #878AA3",
"pX c #8483AB",
"aX c #8E87AC",
"sX c #A18FA1",
"dX c #8FB0AE",
"fX c #B5B4AC",
"gX c #CDAD8F",
"hX c #D5A093",
"jX c #E5B593",
"kX c #D0BCA7",
"lX c #87C9B9",
"zX c #A6C5BA",
"xX c #D4C6B5",
"cX c #ECCAB1",
"vX c #F3D2BA",
"bX c #FFE7B7",
"nX c #88A7C6",
"mX c #85C9D7",
"MX c #90D0D5",
"NX c #96D6DB",
"BX c #B3CCCD",
"VX c #90D2E2",
"CX c #A8D9E7",
"ZX c #B3E4E1",
"AX c #D9D4C9",
"SX c #CFD3D0",
"DX c #E9D8C8",
"FX c #F4DBC7",
"GX c #E7DED3",
"HX c #EDE6D9",
"JX c #F7E7D8",
"KX c #CEE8EB",
"LX c #EEEDE9",
"PX c #FDF4EA",
"IX c #F9F8F4",
"UX c #FFFFFE",
/* pixels */
"7X&X,X*X=XyXe.e.p.P.i.a.a.).).).*X-X<X-X-X;X<X<X<X*XF.K.D.pXpXH.U.i.s.r.r.t.c.x.x.b.b.g.k.j.j.k.z.z.v.v.a.s.i.pXpXuXuX-X4X4XwXqX .{ ' | =.=.&.| [ o...",
"5X,X-XB.yXe.e.i.y.y.a.a.e.).yXyX=X*XV.-X-XV.C.;X-XB.D.D.J.J.H.Y.P.y.s.r.r.v.x.h.g.g.k.k.j.k.k.z.b.v.v.a.s.I.G.pXuXN.V.3X%X&X8X..o.} 4.4.2.1.4.} o...qX",
"4X;X*XJ.G.P.r.a.t.a.a.p.e.J.*X=X*X-X,X;X;X;X;X-X*XB.F.J.J.S.G.p.i.y.a.v.v.b.z.z.k.k.j.j.k.k.z.z.x.v.a.s.I.P.S.uXF.C.;X+XZ.E E o.o.| 4.2.1.3.{ Y  ./ Z.",
";X*XL.G.p.r.r.t.t.(.p.e.yX=XB.*X;X1X3X>X;X;X;X-X<XV.F.J.J.G.U.i.s.a.v.v.v.z.z.z.k.j.j.k.z.z.z.v.v.s.a.i.U.S.F.iX-X-X,XZ.6X~  . .{ 3.1.2.P ] 5.Q ^ &X%X",
"*XF.S.e.a.r.r.l.a.(.).H.iX=XV.1X;X3X3X3X:X:XV.V.-XB.D.J.G.Y.i.y.u.v.x.x.x.z.g.g.j.j.g.z.z.z.v.v.s.s.p.p.G.J.iX2X2X3XZ.Z.qXrX .-.] | =.1.;.[ _ _ qX@X4X",
"*XJ.I.p.t.h.x.t.a.e.H.yX*X-X;X,X:X4X4X4X3X;X;X>X-XV.F.J.G.U.U.y.t.t.x.n.n.m.m.m.m.n.n.z.x.x.v.s.U.U.Y.G.S.D.uX2X2X3XZ.6XqX .Y R 3.&.L 3.[ [ E qXwX,X;X",
"F.S.P.y.r.x.l.t.i.).yX=X-X,X,X+X%X%X&X+X%X3X:X>X<XV.F.J.G.e.i.y.c.n.t.q.8.6 5 5 5 6 8.w.n.c.u.i.I.S.U.G.L.K.-X2X1X+XZ.E ..X.Y } 3.1.| } 5.Q / wX&X1X*X",
"J.I.P.t.t.x.t.i.H.yX=X1X1X3X@X@X$X$X&X%X%X3X:X;X<X<XD.D.H.Y.R.c.q.5 X   . O $ % $ X . . $ q.R.R.I.S.G.H.D.B.-X3X4X@XZ.E  .o.} ] L P ;.{ o.) wXeXeX1X*X",
"e.i.a.a.v.a.p.).yX*X<X3X3X@X$X$X7X7X7XwX%X+X:X>X>XV.F.J.Y.w.6 X   . & 9.0.f..X.X.Xf.0.9.4 . $ q.Y.Y.yXyXiX-X;XM.@X$X5X^ o.o.} @.$.] [ X.~ 8X$XeX1X=XF.",
"G.p.t.t.t.p.).yX*X<X:X@X%X$X$X8X7X7X7X7X$X@X@X:X;X<XaXq.5     w 4Xu 0.f.'.'.]..X.X].f.f.f.0.4 X $ q.aXiX=X2X,X+X%XqXqX.. .5.} ] ] { o./ ^ &X%XeX1X=XH.",
"e.i.a.a.a.e.H.*X1X3X%X6X6X8X^ ^ ^ ^ 8X8X&X$X%X:XsXB.5   O i SXIX{.f.9.9.]..X.X.X.X.X].f.f.f.f.0.8   5 =X2X1X3X%X&XwX^ W X.{ ' | } o.o...qX&X4X1X=XB.yX",
"e.(.a.s.I.H.*X;X3X%X$X6XE / ^ ....^ ~ 7X7X@X9X4Xy . X D GXUXLX(.].[.0./.}.oXXXXXXX.X.X].].f.d.f.IXfXO X q.sXZ.Z.6XqXE W ` R @.] 5._ o.7X7XwX3X1X=XD.G.",
").).a.e.H.B.V.+X@X$X7X/ / / / ..../ ^ ^ 8X0XI #   w SXUXIXBX{..X[.}.{._._.oXXXXX.X.X].}.|.|.f.0.SXUXLX&   i 0XZ.7XqX.. .[ -.Y ` _ _ wX8X$X@X:X1X=XF.yX",
"e.p.e.H.B.V.,X@X5X7XrX^ ..../ ..../ ~ ^ tXt   & !.LXUXKXnX XoXXX[.|.mX X}.XXoXoXOX}.[.}.|.oX.Xd.0.SXCXf.4   i rXwXwX_ o.R R ` o._ _ wXwX&X&X,X<X=XiX).",
").).J.*X<XM.%X$X7X8X^ .... .Q Q / / ~ 8X<   i CXdXLXBX X XmXoX|.|.oXmXOXoXoXVXCXCXNXNX X|.|.}.].'.f.f.d.f.4   I rX^ o. .` { o._ _ _ wXwX&XeX3X1X=XyXyX",
").yX*X;X:X+X%X7X6X^ / / Q Q Q Q ~ ....# X dXCXVXnXdX{.oXmX X X XOXmXOXOXoX XmXVXNXNXNXNX X}.}.[.].].].f.f.f.$ O E ^  .Y R } o. .) ) $XwXeX%X,X1X2X2XyX",
"=X2X1X3X@X%X&X7X~ / / ~ Q Q ....X.~ O # 4XBXMXVXVXmXmXmXmXmXmXMXMXOXOXmXOXOXmXVXVXNXNXCXNX}.|.}.].].].].0.0.9.. & rXo.Y R X.Q / ..^ 7X5X&X@X3X1X;X*X=X",
";X,X3X3X@X$X$X7X^ ~ E Q Q Q Q  .T o & BX!.SXBXmXmXmXmXOXMXNXNXNXNXNXMXMXmXmXVXmXMXMXNXCXMX/.{.|.}.[.|.|.[.9.d.9.  t O.o.[ ( W W ^ / wX&XwX&X4X4X,X;X-X",
":X+X%X%X$X6X6X8X..~ E Q ..~ Q ~ o & MXVX X_.mXmXOXmX XMXNXMX_.Q.r 8 0 0 q Q._.mXVXmXNXMXdXSX!./.}.|.|. X|.[.0.d.4 . T 5.o. ./ / / E qX$XwX&X%X@X%X3X3X",
"+X@X+X%X$X7X7X~ ^ ^ ~ / / ..^ o & dX XVXVXmXOXOXmXmXMXlXQ.8 ; ; ; 9 Z Z Z 7 ; 8 Q. XMXMXBXKX2X(.|.}.|.|. X|.f.d.0.O # 5.X.Q  ._ ..) wXqXqX&X&X&X&X%X@X",
"@X@X5X7X7X8X8X8X^ ^ ~ E ~ ^ O # dX_.mXNXMXNXCXNXNX_.u 8 0 0 0 7 Z E.E.Z Z Z 9 7 7 7 q _.dXdX_.mXmX X X X}.|.].d.d.9.. # W ( Q _ _ _ _ ) wX8X8X&X&X%X%X",
"5X$X$X7X7X7X8X8X8X7X~ ~ 8X# $ dX XMXNXNXZXKXZX_.u : 0 A q 0 9 q ~.E.Z W.`.`.W.0 9 7 q A q q Q.^._. XmXOX}.[.].].f.d.9.X O I 5._ Q W ......) ^ ^ wX@X5X",
"5X6X$X6X6X7X6X5X7X7X7X0X& O fXOX_.MXMXMXlX^.q q 7 0 Z 9 9 9 7 Z E.MXZXBXfXfXSXKXzX!.q ~.~.Q.0 0 0 0 u Q./.{.|.|.XXf.].0.$ . D O.Q W .. .Q Q ..~ 7X@X5X",
"$X$X7X7X9X6X$X6X6X$X0Xw   i u A S A A A A Z A A 0 Z ^.dX^.S 9 ~.ZX4Xi 2 e 3X< m tXfXI t t e : 7 q 0 ; ; ; 7 q Q./.[.[.'.0.5   t 5.o.o.o.( Q  ./ $X6X5X",
"&X$X$X9X$X$X@X6X@X0Xt   i S A ~.W.W.W.W.~.W.Z Z A Q.u e I t u 4Xi I I U x gXz U H GX#X, a s 1 m i !.dX!.!.D u : : 8 8 9.f.d.8   t ] { ` { ( Q ^ $X$X$X",
"$X$X@X@X%X+X+X+X@X@XX & u S `.W.E.E.E.E.E.Z A S r w , z GXI 1 2 i UXx g d R k Y Y JXI j H d I bXU < t #X4X4X4XS q 7 7 0 : 9.d.% + ;.{ ;.R ( / ^ $X&X&X",
"7X@X@X+X@X@X,X,XsXw . 8 A `.A 9 0 0 0 u r u SXfXp g x k ~ HXU g 1 fXU p a l s g @.gX2 k 1 $XIX&X2 n f 1 t fXxXI & & # @ % % 4 9.. G 4.] R  ./ ^ 8X7X7X",
"6X@X+X+X,X,X;X;X>XO & A ~.8 # 3 z t H R R z SXUXxXs c G f k :.n 1 2 x p 1 , s s ;.2 1 , I xXi - p p 1 U jX<.k d l x H < X % ; 4 X j ,.} [ Q / ^ 7X6X5X",
"%X%X,X:X;X-XV.<XB.. r A A # G *.U T X.tX<.R 3 ~ vXkXH x t d f n x , # , 1 1 a f , # 2 x Y 1 , f c Y gX:.l j z l J l l t % @ ; 4 X G ,.R `  ./ ~ 8X7X6X",
"%X3X>XV.;X<XV.<Xe.. u A % e $.J H U tXX.gX( R H z R Y H t 2 d 1 * 1 1 k n ;.f %.g , 2 , 1 c c c c x z 3 j H Y G l J v # @ % ; X o | } R R Q ^ / 6X7X8X",
"M.;X;XV.*XuXuXuXD.X r S ; t ;.H J R tXgXgXX.( <.Q t I 2 x t 2 d * g f H x gXj b +.1 1 x t <.Y < 2 z k c v c H J J 1 , ; ^.: @   d 4.} ` Y ~ ^ 8X&X&X%X",
";X-X<XF.F.F.F.J.Y.& # r 0 : T T J J <.kXtXtX<.R x ^ X.j G < k g , n x x k kXx H @.d d J G rXPXtXw 2 z d - * , : 8 ; 7 lX3X    3 ,.{ R R W ~ rX6X$X%X@X",
"-X*XF.F.J.J.G.G.Y.w.. O A 0 t <.$.@.;.<.( gX<.x ^ xXH R t G b g 1 J n k H kXH H J x d b n z xXHXgX3X< O : A A W.W.~.dXr   3 G *.;.R -.( / / 8X&X@X+X:X",
"<XuXF.J.G.Y.U.i.y.v.q.X % S q < j f d f Y <.x i xXt 2 < t R J b a n J x U kXx k @.d d n J H I SXLXfX& 0 ~.!.r r u w O o G 7.$.@.;.[ ` o.^ 8X6X5X@X:XV.",
"uXF.J.G.U.i.s.u.c.r.n.w.X O A S 1X!.^.S < & # : : : : : 8 2 d d , H J n <.gXU j +., & 1 f c t w & % S S @ o * > > 3 F #.*.P ,.' -.Y  ...^ 8X6X%X3X;X<X",
"uXJ.Y.U.r.u.t.c.x.x.l.n.w.& . & r r !.SXlXQ.Q.~.~.S : A E.Z 7 8 : k H J cXgX( k B , 9 : : : : 8 A lXdX. = P 7.6.7.7.*.#.L 4.} ;.Y ( W ^ 8X8X%X,X;X<XF.",
"pXH.U.y.r.v.v.x.b.z.x.t.s.pXw.y 6 &   X r ~.~.A 7 X   O : A A S 0 1 J <.cX( cXz g * % 0 A A S ~.q & . 1 =.6.+.+.+.P 1.| ' | } R  .o.^ qX8X9X4X3X-XuXyX",
"H.U.s.t.v.x.z.z.z.h.c.u.i.H.Y.T.T.T.N.6 o . . o + e h * o . X @ # t R jXjXgXvXz f -   . X @ @ . o * B %.+.&.+.+.+.P 4.| ' [ [ o.o.~ 8X5X5X%X3X2XiXiXH.",
"U.U.u.v.x.z.z.z.b.c.r.y.U.L.L.N.N.N.N.A.Z.m m m A.C C C N h 1 + o j <.cXkXxXFX~ l 1 . 3 3 > 3 G L %.%.+.+.=.$.+.$.$.| 3.[ V ( o...E 6X5X&X,X<X-XuXH.G.",
"U.u.v.b.z.g.z.v.v.u.r.i.G.L.N.N.C.C.Z.Z.A.A.A.M M N N N V V >.- O x gXcXkXDXJXkXn f   K 7.6.7.7.6.$.+.+.&.1.P &.@.#.,.} [ Y Q ~ rXwX9XZ.3X;X*XuXH.H.Y.",
"u.v.b.z.k.k.z.v.s.r.I.I.J.F.B.C.C.M.Z.Z.Z.M M M M N V V V V V + < ( jXvXkXJXJXxXc @.X 1 %.+.$.=.1.1.=.=.1.4.| $.@.-.;.R o. .W W rXwX%XZ.,X-XF.J.G.U.y.",
"v.v.z.k.j.g.v.s.s.I.S.G.H.iX-X<XM.Z.Z.Z.Z.M M M N V V V V V B . i gXcXcXcXJXPXFXx ;.& * %.+.+.$.P 2.1.1.4.4.;.;.' -.V Y o.../ 5X6X%X,X>X*XuXuXG.U.y.u.",
"x.z.k.k.g.b.v.s.i.U.G.J.uX-X-X,X+XZ.Z.Z.M M M N V V V V V >.a . I gXvXcXFXDXAXIX&Xc t o #.#.#.+.=.1.4.4.4.| ] } { Y Y Q ..qXqX5X5XZ.;X<XB.F.pXS.i.s.v.",
"g.k.k.g.b.v.s.U.U.G.J.F.-X-X;X+X5X5XZ.Z.W W W N V V -.V V >.* & ( jXvXDXJXDXfXUXfXj U o B #.#.#.&.4.4.4.4.3.} { [ (  ./ E 8XqX9X4X>X-X-XF.J.H.U.y.v.x.",
"k.k.k.z.x.u.i.Y.G.D.F.-X2X,X+XZ.Z.5XE E E ( W Y V -.-.V #.B . i gXcXFXJXPXJXfXUXSXk U X B #.#.@.L 4.4.4.3.} ` Y N W / M M &XwX4X4X<XV.F.J.H.Y.s.r.x.b.",
"k.z.b.v.u.s.i.H.J.D.*X-X3X%X5X5X5XE E /  .X.( Y -.-.@.@.>.a . kXcXvXFXDXPXGXfXUXkXH U o J #.$.,.| 3.3.3.3.} ( N N W / E 6XwX+X:X2XV.uXpXH.U.I.u.x.b.k.",
"k.b.v.t.y.I.H.H.uXuX2X3X4X%X6X5X5XW ~  . .{ [ R -.-.#.#.%.# w JXvXFXFXxXIXxXxXUXtX;.t o ,.,.,.| } } ] ` { o.Q W W ^ rXrXwX%XZ.;X2XuXJ.H.U.U.y.c.b.g.k.",
"b.v.u.y.I.G.pXuX-X-X,X,X9X8X8X7XE ~ Q ` { { [ ;.@.@.#.#.#.. 4XJXcXFXDXDXIXxXGXUXU ;.= # ,.| | } { R Y Y (  . ./ ..8X7X&X4X3X;X2XuXK.S.U.I.I.c.b.g.k.k.",
"v.u.y.i.U.J.uXV.<X,X+X5X6XrXrX..Q  . .` ` ] ] ;.@.@.#.%.f . AXFXcXJXxXxXUXAXLXGXc R $ , <.{ } { R Y V N N ~ ..qX$X5XA.+X4X2X2XiXF.J.G.I.y.r.x.z.k.k.z.",
"u.y.i.Y.J.F.<X<X:X+X5X6X6X.. .o.o.{ ` [ ' R ' &.@.#.+.%.- & JXvXFXPXkXGXUXAXIXtXv / O d <.` { ` ( N N N M ~ qXwX6XA.Z.3X2X2XiXuXL.G.I.r.t.x.z.k.k.z.x.",
"s.i.U.J.F.*X>X>X%X@X7X7X..o. .{ o.{ ] R @.@.$.$.$.+.+.%.+ i vXvXFXPXgXLXUXAXJXb J I . k :.R ( ( ( W N M W 8XwXwX9X5X,X2X2XiXF.F.S.P.r.r.x.z.k.k.k.b.c.",
"i.U.G.F.V.;X3X9X5X5X^ .. .o.{ ` } { ] $.@.@.$.$.$.+.+.@.. I cXvXJXGXtXUXIXAXcXJ J x X h :.Y W N W W W E 7XqXwX%X5X:X3X2XiXD.L.J.S.y.t.v.z.g.k.k.b.v.s.",
"U.G.F.*X<X:X%X6X5XE / Q X.` { { | | &.$.$.+.+.+.&.$.%.f X ( vXFXPXxXkXUXLXDXkXR @.n O - :.N N N M M E 8XqXwX%XZ.Z.C.-XiXuXL.L.G.I.r.v.z.z.k.k.z.x.t.s.",
"H.F.*X<X:X5X9X8X~ / Q R [ ] ] | | P &.$.$.$.$.$.*.&.*., O <.FXFXPXkXAXUXLXDXcXQ :.<.= + C N M M M M 5X7X&X4X+XZ.C.<XiXiXJ.S.G.i.r.c.b.g.k.k.z.v.v.a.i.",
"J.iX-X:X6X7X8X^ Q ( R [ ] ] ] L 1.P =.&.&.$.$.$.&.=.=.+ = gXFXFXPXkXAXUXLXGXFX~ :.jXz   m C M M M A.A.Z.5X3X,XC.<XiXiXpXH.U.Y.u.c.z.z.k.k.b.v.v.u.U.H.",
"uX<X,X@X6X7X/ Q Y R [ ' ] &.$.$.&.=.=.=.&.&.&.=.| 4.] . 2 <.FXFXJXkXHXUXIXHXJXkXY <.:.o e 5XM M A.A.A.Z.Z.,X<XC.B.uXpXpXY.p.s.v.x.z.k.k.b.v.v.s.i.G.D.",
"V.:X%X$X/ ~ Q [ [ ' ' | =.&.$.@.&.| | | P P P | | 4.D . j hXvXFXJXkXLXUXIXFXJXLX~ ;.gX< + A.Z.Z.Z.Z.Z.M.>X-XC.N.K.pXpXp.p.s.v.x.g.k.k.b.x.v.s.i.H.D.V.",
":X%X$X7X~ Q ` [ ' ' L P &.&.$.$.,.| | 4.4.4.| ] ] ,.2 X x jXvXHXJXxXLXUXHXDXFXUXfX;.gXI   m A.Z.Z.:X,X-X2X<XN.K.J.pXp.a.y.c.v.z.k.j.z.x.c.t.I.G.J.uXV.",
"%X&X7X~ Q ` ] ' $.&.P | ,.;.R ' ] | | | | | ] ' Y :.= O H jXvXHXHXxXIXUXHXAXFXPXSX( gXY o e 0XZ.M.:X-X-XiXuXF.D.G.U.a.y.r.x.z.k.k.k.x.v.a.a.U.H.uX>X>X",
"7X7X/ ( R ' | P =.P | | ] ' ] { { ] ] } } } [ R Y -.& # n :.cXGXAXFXLXUXGXkXDXPXAXY <.:.# 6 sXM.C.C.V.iXiXpXJ.S.S.s.s.c.x.z.k.j.k.b.v.s.s.p.J.F.<X4X4X",
"8X~ Q [ R ' L P P | ] ] R R [ { [ R [ { { { ` Y Y :.& # l J jXDXAXFXJXUXGXtXDXIXtXJ gXY * & :XN.N.N.K.uXpXpXS.P.y.a.v.v.z.g.k.k.b.x.u.y.I.G.F.*X>X6X6X",
"/ Q [ ' &.&.=.P | ] ] [ R ( ( R ( R ` ` X.`  .( W :.= O l Y jXvXxXFXJXUXHX$XHXGXJ ;.( J = $ C.N.N.N.D.pXpXY.U.y.s.v.v.z.z.k.k.z.x.r.s.i.G.uXuX;X%X5X5X",
"Q ` { ,.&.=.&.' ' [ [ ( W ( W W (  . .Q W W / ..~ 0Xw X j Y jXjXkXFXJXIXIXtXHX( @.;.~ v , $ K.N.K.D.J.H.Y.Y.a.u.c.x.z.z.k.k.z.x.c.y.p.H.J.B.>X+X6X5XE ",
"` ] | 1.=.=.| ] [ [ Q Q ~ / ~ W ~ ~ ~ ~ W W ~ rX) rXi . e b :.cXgXDXJXLXIXfXtXJ :.( ( v = $ aXF.J.H.Y.I.I.r.u.c.h.z.g.k.z.z.b.v.a.U.Y.pXuX<X:X9X7X~  .",
"R $.=.=.=.] { ` `  .....) ..^ / E E E 7X6X5X8XqXqXwX&XO = l J jXjXkXFXJXIX%Xx J <.<.H v # 5 aXpXp.p.U.P.P.r.v.b.z.g.k.g.b.b.c.u.i.G.J.iX-X:X5X6X^ Q ` ",
"$.&.=.=.' ] R Q ..) E ~ qX$X8XqX7X5X$X$X6X&X&X6X6X&X0X= O j b #.<.tXxXJXPXi d b R R g n X y aXp.p.i.y.r.r.x.b.z.g.k.z.b.b.v.u.I.Y.H.D.<X,X@X6X/  .( R ",
"&.*.=.] { { Q ~ / 5XZ.Z.$X7X6X9X%X&X&X+XZ.@X%XZ.Z.+X5Xm   < c @.+.J n xXIXi d c Y J b 2 . e.Y.p.s.a.t.v.c.b.g.k.k.z.b.b.v.a.y.p.pXF.C.>X+X&X~ .. .R $.",
"6.=.| | ` Q / / &X5XZ.+X&X%XZ.Z.%X4X4X+XZ.@X4X+XZ.+XM.A.= . e ;.@.g s l vXx k c n B J O 5 aXi.a.a.a.v.v.b.g.k.k.k.b.v.v.t.y.p.H.uXV.C.,X6XqX..X.R $.&.",
"=.| | }  ./ E 5X&X+X3X3X3X3X,X:X,X:X1X1X1X1X1X1X,X2X;XC.V.$ X 2 ;.b g s ( T c f b +.,   w.s.s.a.v.c.x.b.b.k.k.k.g.x.v.r.I.I.G.K.V.C.,X&X5X~  .` ] &.=.",
"L | 5.o.^ ) 6X+X3X:XM.;X;X;X2X-XC.C.<XV.2X=X<X-X2X2X2X-X-XN.O   2 U n v ~ x @.b J ,   y R.u.t.v.v.b.b.b.g.k.k.z.b.v.u.P.I.G.L.V.;X,X%XqX^ Q [ ' | P =.",
"] [ ` ..^ &X%X,X,XC.V.<X<X=X=X=X*X=XB.N.iX*XN.*X2X2X2X-X=XuXB.&   # < t e l n e #   6 R.r.c.x.x.z.z.b.g.k.k.z.b.v.a.s.I.I.J.<X-X:X@X6XqX .R ' ' &.=.P ",
"} o./ qX$X@X,X<X=XB.*X*X=XiXyXD.F.yXyXF.iXiX*X=X2X-X*X*XiXiXiXaXy O . X o O .   $ q.R.r.r.c.x.b.z.z.k.k.k.z.b.c.t.s.I.S.D.uX2X>X+X$XE W X.] ,.&.&.P ] ",
"X.) ^ &X&X3X<X*X=XyXyXF.yXJ.H.G.G.pXiXV.V.iX=X2X2X-XC.N.F.iXiXuXT.S.q.6 & & 5 q.s.v.t.u.c.x.g.g.k.k.k.k.z.b.c.t.a.P.S.L.F.-X4X4X&XE W ( { | =.=.&.&.R ",
"Q ^ wXeX1X2X*XiX).).H.).e.G.e.H.D.D.K.<X-X*XV.-X<X<XV.B.K.uXiXpXJ.G.pXR.I.P.R.v.u.r.v.v.x.g.k.k.j.k.g.z.b.c.r.y.p.G.H.F.C.>X:X&X8X~ o.[ | &.=.1.$.' ` ",
") qX&X1X-XB.F.).).e.e.).p.i.).H.F.uXV.<X*X-X*X*XC.V.B.F.J.pXpXpXpXp.i.y.y.r.t.t.c.x.v.b.z.k.j.j.k.z.z.b.v.r.P.i.pXpXiXV.C.,X5X&XE ..R ' 4.1.=.P ' {  ."
};
