/* XPM */
static const char *ZXhpdA__[] = {
/* columns rows colors chars-per-pixel */
"75 75 253 2 ",
"   c #23021C",
".  c #34011E",
"X  c #270823",
"o  c #370A27",
"O  c #32142D",
"+  c #351434",
"@  c #4E0F2C",
"#  c #701335",
"$  c #5C2D38",
"%  c #421C42",
"&  c #4A3D52",
"*  c #533250",
"=  c #673457",
"-  c #55376F",
";  c #5C3968",
":  c #673768",
">  c #6F3C6E",
",  c #574C4A",
"<  c #714F53",
"1  c #525175",
"2  c #6A4569",
"3  c #694676",
"4  c #774778",
"5  c #745170",
"6  c #5E6B65",
"7  c #727073",
"8  c #9F2539",
"9  c #E8363E",
"0  c #9B583D",
"q  c #E4603C",
"w  c #953152",
"e  c #A62959",
"r  c #E01B5F",
"t  c #D2344B",
"y  c #EE384E",
"u  c #DA1B63",
"i  c #D5346F",
"p  c #EC3971",
"a  c #935155",
"s  c #B1524F",
"d  c #907157",
"f  c #AF7252",
"g  c #8F556E",
"h  c #834B77",
"j  c #885678",
"k  c #B15071",
"l  c #8D6C70",
"z  c #AB6E6F",
"x  c #CD4E51",
"c  c #F8454C",
"v  c #FA594A",
"b  c #EF5053",
"n  c #CF6E52",
"m  c #F96749",
"M  c #FA7848",
"N  c #F37253",
"B  c #CD4975",
"V  c #ED4971",
"C  c #D26F75",
"Z  c #EF6E6D",
"A  c #679070",
"S  c #6FAA7A",
"D  c #DD8F30",
"F  c #F29C27",
"G  c #F6B234",
"H  c #FCC73B",
"J  c #998654",
"K  c #B08B59",
"L  c #BBAE5A",
"P  c #97876A",
"I  c #8F8B73",
"U  c #998876",
"Y  c #B08B6E",
"T  c #B99667",
"R  c #AB8879",
"E  c #A8997A",
"W  c #AA9B7A",
"Q  c #B49976",
"!  c #9AB27A",
"~  c #ADA96C",
"^  c #B7A767",
"/  c #ACB76C",
"(  c #B6B666",
")  c #A7A778",
"_  c #B3A575",
"`  c #A5B675",
"'  c #C88A58",
"]  c #C8965C",
"[  c #D39256",
"{  c #FB854A",
"}  c #F48F54",
"|  c #FB9758",
" . c #C5AA5A",
".. c #DBA65D",
"X. c #C6B658",
"o. c #F7B14F",
"O. c #E4A65C",
"+. c #CA926D",
"@. c #EE956B",
"#. c #D1A96A",
"$. c #EBAD6A",
"%. c #F9BA65",
"&. c #B8C95D",
"*. c #ACC369",
"=. c #FBCA47",
"-. c #CDC369",
";. c #FEC668",
":. c #F5CC6F",
">. c #6E3E83",
",. c #38698B",
"<. c #336B92",
"1. c #29719B",
"2. c #29769B",
"3. c #397496",
"4. c #347C9B",
"5. c #515986",
"6. c #7B4D84",
"7. c #784C89",
"8. c #6D508A",
"9. c #7A5489",
"0. c #7B5795",
"q. c #44668B",
"w. c #537093",
"e. c #726B91",
"r. c #6F57A7",
"t. c #6A5BB8",
"y. c #5574A1",
"u. c #7A7AAB",
"i. c #6F6CB1",
"p. c #7869BA",
"a. c #7B6DBC",
"s. c #7976B6",
"d. c #7A72BB",
"f. c #6255CD",
"g. c #6C5FCD",
"h. c #745EC7",
"j. c #675CD5",
"k. c #6A5DD2",
"l. c #6E69C4",
"z. c #6E62CC",
"x. c #7464C5",
"c. c #746AC3",
"v. c #7769C6",
"b. c #7164CA",
"n. c #6C62D4",
"m. c #7569D0",
"M. c #8D4D88",
"N. c #85578B",
"B. c #96598B",
"V. c #845A93",
"C. c #865A97",
"Z. c #8A5C94",
"A. c #945994",
"S. c #AF568E",
"D. c #906E89",
"F. c #8B6498",
"G. c #976699",
"H. c #897899",
"J. c #967899",
"K. c #A9728E",
"L. c #A5769B",
"P. c #896BAA",
"I. c #986CA3",
"U. c #8B7BA3",
"Y. c #8878A6",
"T. c #8575AC",
"R. c #847CAC",
"E. c #9878A3",
"W. c #8469B4",
"Q. c #8274B3",
"!. c #827AB3",
"~. c #9679B6",
"^. c #A96EA5",
"/. c #A777A8",
"(. c #B777A9",
"). c #AC7CB3",
"_. c #B27DB2",
"`. c #CE548C",
"'. c #E75288",
"]. c #CF6E93",
"[. c #F17092",
"{. c #D071A4",
"}. c #32829E",
"|. c #189CBE",
" X c #3684A4",
".X c #308CAA",
"XX c #259AB6",
"oX c #1DA4BE",
"OX c #20A3BD",
"+X c #2AA1BC",
"@X c #33A1BA",
"#X c #608E9E",
"$X c #72B686",
"%X c #518FB0",
"&X c #5797B9",
"*X c #7C85A9",
"=X c #6E8CB3",
"-X c #6CA7B5",
";X c #74CD8E",
":X c #76D796",
">X c #7BEA9F",
",X c #19A8C3",
"<X c #5098C4",
"1X c #5BA1C2",
"2X c #73B2C5",
"3X c #7EC1D3",
"4X c #8A8C88",
"5X c #99868A",
"6X c #9B8C8B",
"7X c #9B948B",
"8X c #9A9888",
"9X c #8C849D",
"0X c #8A8A9B",
"qX c #8C8B9C",
"wX c #968697",
"eX c #948C94",
"rX c #8B9497",
"tX c #939492",
"yX c #A48A87",
"uX c #A39483",
"iX c #A49785",
"pX c #AF8D92",
"aX c #8CAC8C",
"sX c #9AA584",
"dX c #A9A88D",
"fX c #8785A5",
"gX c #8D8BAC",
"hX c #B588A9",
"jX c #B08AAE",
"kX c #B382B4",
"lX c #B787B8",
"zX c #A9ACA8",
"xX c #CB9190",
"cX c #ED8E9C",
"vX c #CEAA94",
"bX c #CD96AB",
"nX c #C399B9",
"mX c #D0ACB5",
"MX c #8AD693",
"NX c #A2E197",
"BX c #EBCEA1",
"VX c #ECD3B0",
"CX c #9E9AC7",
"ZX c #C59AC3",
"AX c #CFA9CA",
"SX c #D3A9C7",
"DX c #DAB7CA",
"FX c #E1BDCD",
"GX c #91CCD5",
"HX c #A9D9DA",
"JX c #ABE1E1",
"KX c #EACAD8",
"LX c #F2E4DB",
/* pixels */
"uX8XeX9XfXfXu.u.u.W.s.s.s.*X*X*X9XqX9XqXqX9X9X9X9X9XU.I.Y.fXfXR.Q.s.d.p.a.a.x.x.x.b.b.g.k.j.j.k.z.z.x.c.c.d.s.fXfXfXfXqXtX8XsXsX) ) ^ ( X.X. .( ^ ) ) ",
"yXeXqXH.fXu.u.s.p.p.s.s.u.*XfXfX0X9XJ.qXqXJ.J.9XqXH.E.U.Y.T.R.!.W.a.d.p.p.c.x.h.g.g.k.k.j.j.k.z.b.x.c.d.d.W.T.fXfXJ.J.tXtX8XuX) ` / *.&.&.&.*./ ` ) sX",
"tXwX9XY.T.W.p.p.p.d.s.s.u.Y.U.0X9XqXeXeXwXeX9XqX9XJ.U.Y.Y.P.T.s.d.a.d.c.c.b.z.z.g.k.j.j.k.k.z.z.x.c.d.d.W.P.P.fXU.J.wX5XK.R R ` ` / *.&.&.&./ Y ) E K.",
"wX9XP.T.u.p.p.p.p.=X*Xu.*XfXH.9XeXrXtXwXwXwXeXqX9XJ.U.Y.T.T.u.d.d.d.c.c.x.z.z.g.k.j.j.k.z.z.z.x.c.d.d.s.Q.P.U.gXqXqXeXK.yXE ) ) / *.&.&.L ^ *.E E 8X7X",
"9XU.P.u.s.p.p.l.d.=X*XR.fX0XJ.rXwXtXtXtX5XwXJ.J.qXH.E.Y.T.!.s.a.a.c.c.x.b.z.g.k.j.j.z.z.z.b.x.c.d.s.s.s.R.R.fXqXrXtXK.K.sXsX_ +.( ( X.&.] ^ ` ! sX6XtX",
"9XY.P.s.p.h.x.l.s.u.R.fX9XqXeXeX5XtXtXtXtXwXeXwXqXJ.U.Y.T.Q.Q.a.a.c.x.x.b.g.k.k.k.g.b.z.x.x.c.d.d.Q.!.T.P.Y.fXrXrXtXK.yXsX) T T *. .L *.~ ~ R sXsXeXwX",
"U.P.W.p.p.x.l.p.s.*XfX0XrXeXeX5XtX7X8X5X7XtXwXeXwXJ.U.Y.T.!.Q.a.c.v.c.m.b.n.n.n.n.b.v.c.v.p.a.Q.W.P.T.P.I.I.qXrXrX6XK.R ) _ T / *.&.( / *.E E sXtXrX9X",
"Y.P.W.p.p.l.p.s.R.fX9XrXrXtX6X6X7X7X8X7X7X7XwXwXwX9XU.Y.R.u.p.p.p.t.t.t.t.t.t.t.t.t.t.p.p.p.p.d.W.P.R.R.E.H.qXtXtX6XK.R ) ` / ( L ( ' / ` ! sXaXaXrX9X",
"u.s.s.d.c.d.s.*XfX9XwXtXtX6X8X8X8XuXiXsX7X6XeXeXwXH.F.F.J.J.J.E.E.J.L.L.L.L./././.hXjXjXE.E.U.Y.F.e.u.*XfXqXqXJ.6X8XyXE ` ` / ' ] ^ ~ _ E iX7XaXrX9XU.",
"u.s.p.p.p.s.*XfX9X9XwX6X7X8XuXuXuXuXiXiX8X5Xl D.D.J.L.(./.I.].'.`.G.u.u.F.Z.Z.A.I.G.G.].[.[.bXlXlXjXhXwXJ.4X4X5X7XsXsX) ) *./ ^ ^ / ` E iX8X7XaXrX0XR.",
"u.s.s.d.s.u.R.9XrXtX7X6XuXuXE E E E E U l 4 B.S.A.`.V p `.A.p } m k &Xw.4 V.`.].kXI.B.Z @.Z '.(.K.K._.lXnXlXhXyXI sXE Y _ / ^ ( / ` ` ) sX8XtXrX0XH.fX",
"u.=Xs.d.W.R.9XeXtX7X8XuXR E E ) ) ) U hXF.S.V i S.V u e S.C.V v b k e.0.6.C.`.].).kXA.Z ;.%.V Z f 0 #./.(.(.lXDXbXI E Y _ T ' ~ *.` ` uXuXaXtXrX0XY.T.",
"*X=Xs.u.Y.H.J.5X6X7XuXE E E E ) ) E R lXV.'.p i B.`.i e S.C.B.B S.0.N.V.V.V.Z.A.Z.G.C.K.+.pX'.Z ..[ @.].'.'.(.I.hXU ) ) _ ' T ~ ` ! sXiX7X6XwXrX0XU.fX",
"u.s.T.R.H.J.eX6XyXuXsXE ) ) E ) ) E z I.V.S.`.S.C.V.N.6.4 3 > ; ; : : : : : : : : : : > > 8.M.k K.xXS.`.`.S.A.V.5 ! ! ` T T ~ ` ` ! sXsXsXtXeX9X0XfX*X",
"*X*XY.9XwXJ.7X8XuXiXE ) ) ) E Q E _ l 4 N.9.8.3 : : : : : : > > 4 4 4 6.6.6.6.6.4 4 4 3 > > : ; : : : 3 4 7.V.7.2 E ` ) ~ / ` ` ! ! sXsX8XaXtXrX0XfXfX",
"*XfX9XeX5X5X7XuXuXE E E E E E Q Q E < = : > 4 4 4 N.N.Z.Z.Z.F.F.F.F.F.Z.C.C.C.C.C.Z.F.F.F.F.Z.Z.N.N.4 4 > : : ; = P ` +.T ` ` ) ! ) 8XsXsX7XeXrXqX0XfX",
"0X0XrXtX6X7X8XuXE E E E Q _ _ P a = > N.Z.C.C.C.C.0.0.0.0.0.7.7.7.7.7.7.7.7.7.7.7.7.7.7.7.0.0.0.0.0.C.C.C.C.V.N.4 2 l f T _ Q E ) E uXyX8X5XtXrXeX9X0X",
"eXeXtXtX6X8XuXuXE E R E E l < : >.7.0.N.N.j j l z z z f f f ' ' ' ' [ [ [ ] ] ] [ [ [ ' ' n f f z z z l j j N.N.0.0.7.7.5 l R R ) E sX8XsX8XtXtXeXwXqX",
"wX5XtX7X7XuXuXiX) E R E d a g z +.' ' ' ' K K K K K P P P P U I I I I Y ..;.;.%.T P I I I I P P P K K K K ' ] [ ' ' +.Y l g a d E R sX8XsX8XtX6XtXtXtX",
"5X6X5X7X8XuXuXE E E E f ' ] ;.;.T I tXrX-X-X-X2XGXGX2X2X2X1X&X%X%X X X2.,.T %.1 1.2.2.2.2.2.2.2.2.2.2.2.3.,.,.#XrX4XP ..;.;.[ [ K ! sXsXsX8X8X8X8X7XeX",
"6X6XyXuXuXuXiXiXE E E l y.1 O.7  XGXJXJXJXJXHXGX-X&X%X X4.3.4.4.4.3.3.4.2.P O.<. X3.4.4.4.4.4.4.4.4.4.4.4.4.4.4.2XHXGX-XP %.w.1 d ` ! ! sX8XiX8X8X7X7X",
"yX6X7XuXuXuXuXuXiXiXR 1 y.f T 4.HXHXHXHXGX&X X2.2.2.2.4.4.4.}.4.4.}.4.4.2.P O.<.4.4.4.4.4.3.4.4.4.4.4.4.3.3.4.3.2.-XJXJX%X[ I 1.1 Y ) ! ! ! E E sX6XyX",
"yXuX8XyXyXuXuXyXuXiXl y.gX[ 7 2XJXHXGX#X,.,.q.q.q.q.q.q.q.q.q.q.q.,.3.4.2.P O.<.4.4.4.4.3.3.3.3.4.4.4.4.3.3.3.3.4.2.2XJX2XP [ T K z _ ) Q E ) E uX6XyX",
"7X8XuXuXiXuX7XuXuXuX7 2XzX[ w.GXJX2Xq.5.q.3.3.3.3.3.5.q.3.3.3.3.q.Z.8.3.2.P O.<.4.4.4.4.XXXXXXXXXXXXXXXXXXXX.X4.3.4.4.GXGX7 O.H H d ` ` Q Q ) E uXyXyX",
"8X8XuXyXiX7X6XyX7XU w.GXpXK %XJXGX3.5.}.4.4.4.}.4.}.q.3.4.4.4.}.w.G.A.q.2.P O.<.4.3.3.XX,XOXoXoXoXoXoXoXoXoX,XXX4.4.2.&XJXw.[ T rXw.~ _ / Q E E 8X8X8X",
"7X7XuX6X6X6X5X6X7Xl #XHX+.d -XHX X,.q.4.3.4.3.5.3.}.5.3.3.3.3.3.0.nXjX5.2.P O.<. X4.}.OXOXOXOXOXOXOXOXOXOXOXOX,XXX3.4.4.GX%X] 4X<Xe.K +.T Q E E 8X8X8X",
"uXuX6X5X7X6X6XeXeX7 2XHX[ 7 2X-X2.q.3.4.3.4.4.3.5.w.5.3.}.4.4.3.jXjXM.8.2.P O.,.q.3.}.,XOXOXOXOXOXOXOXOXOXOXoXoXoX.X3.2.-X-XK +.'.V d ( T ) E E uXuXyX",
"uX5XyX5XD.eXwXwXwX5.3XzX[ 7 2X4.3.5.4.3.3.4.4.4.4.q.5 5.w.w.4.w.^.0.B j 2.P O.<.3.1 1 XX,XoXOXOXOXOXOXOXOXOXoXoXOXXX3.4.%X-XP [ S.fX7 / _ E E E R U yX",
"5XhXSXSXbXD.J.wXH.w.GXzX[ #X&X2.3.q.4.4.4.3.4.4.4.y.6.h > 3 3 9.C.V.V k 1.P O.<. X3.q.w.w.XX,XOXOXOXOXOXoXoXoXoXoXoX.X3.4.%XI ] XX,X XT ~ ) E yXjXnXyX",
"yXDX_./.SXhXH.gXN.y.HXpX[ w. X4.q.3.4.q.3.}.4.3.e.M.8.5.e.5 <.3 h A.c x 1.I O.1 3.3. X,X Xe.#XoX,XOXOXoXoX+X@X@X@X@XXX4.3.4.7 O.@X@X1 f Q E U /.G.G.D.",
"hXSX).G.I.mXH.gX9.%XGXpX' <.4.4.q.3.4.q.1 5.3.e.M.q.4.q.4.w.7 w.e i c t <.I O.,.5.5.y.,X,XXXw.7 .X,XoX@X&X&X%X%X%X%X&Xw.4.2.7 O.a e 8 d Q E 5XG.N.4 j ",
"pXSX/.Z.G.L.H.R.8.%XGX+.] <.4.3.5.3.3.4.4.q.3 h 5.}.4.q.3.}.w.g M.t c y ,.I O.<.}.5.4X%X|.OX,X.Xl e.@X%X%X%X.XXX|.|.XX5.1 }.6 O.8 e e a Q K.9.4 6.: D.",
"J.nXkX/.N.3 h F.w.<Xe.f O.,.}.3.q.}.4.4.}.<.k 9.w.w.4.3.q. X3.h g t c c - Y %.,.}.<.*XNX#XOXOXoXoXl z U #.o.%.#.E #X,X.X> <.l %.s b v s D.j 5 > : 5 wX",
"H.wXkXkXL.0.e.> 8.7 ' [ ;.T 6 1 1 q.,.q.,.2 i 1 ,.2 5 q.1 1 3 6.2 s x t f %.;.T 1 1 y.#X*.*XP.S.P.S.k ] o.G ` ! O.O.I y.2 a $.;...N b S.5 E yX> 5 J.wX",
"fXH.F.F.0.s.d.l f ..O.;.;.;.%.O.O.O.O.O.O.O.....O...[ 4 g O.O.O.O.f 4 ..;.;.%.;.%.O.O.....V Z V Z V Z Y 9.Y ........O.O.O.;.;.%.O.' G.l Y iXyX4XeXwX9X",
"fXR.!.d.a.d.t.] %.| | | | | | | | | %.%.%.;.;.;.;.;.;...[ ;.;.;.;.%.' %.%.%.;.%.;.;.;.%.b b H o.H o.m N +.$.;.;.;.;.;.;.;.%.;.;.:.$.l %.] 6XiX6XwX9XU.",
"fXR.Q.a.p.c.l.r.pXxXa k x x c c y y c c b b m N { } { { } m m M M m M M M { %.;.o.| | Z N o.G =.X.G { m | ;.o.%.o.%.%.%.:.BXVXBXvXz BXxXl dXtXeXqXfXfX",
"R.Q.d.a.c.l.m.t.AXKX4 I.I.F.g s b v c y p p r r b m N z 0.B.z k B B p c c m #.jX@.Z p m o.H H  .2 G H { v | ;.o.o.%.;.BXVXmXnXlXI.h DXN.l 7XtXqXfXfXR.",
"Q.Q.a.c.x.z.n.t.].i w 7.Z.C.V.0.j s m m u u u u r k =X:X_ iX&X=Xi.u.A.V y v 7X<X=X`.p b } H D a [ n G M v | o.o.o.:.BXDXZXlX_.lX^.j E.4 l eXwX9XfXR.T.",
"Q.a.c.x.z.g.n.r.e V s 7.Z.V.F.N.V.0.h n v y u u u e.1X#.F o.-X&X&X&X&XB.y M dX<X=X{.V m o.H o.f f D H o.M } O.o.%.mXSXnX/.kX/.kXG.h F.6.7 wX9XfXR.R.!.",
"a.c.b.z.k.k.m.0.9.k w 3 G.xXxXbXJ.N.C.7.s M r u r e.-Xo.F F -X<X&X&X1Xu.V M vX<XgX'.p b o.o.=.H G H o.o.N $.;.O.vXSXlXL.bXxXxXhXB.> G.N.7 qXU.Y.T.Q.a.",
"c.x.z.k.k.g.m.8.N.J.> 2 bX@.M n mXZ.V.Z.0.a v m b *X<XX.F X.1X%X=X*Xu.`.p b dX&X`.p V b b } H G =.G { m v ;.O.bXAXkXG.mXZ } N bXj 1 *XS.j fXU.T.Q.a.a.",
"x.z.k.k.g.x.c.9.+.%.a N.cXN } m xXL.7.Z.Z.0.a M { C gX-XaX-X&XS.B./.M.z sXaX:X;X4XK.`.(.V m { } o.{ b N %.O.bXAX/._.L.mXm } m [.g 3 (.p k U.fXP.s.d.c.",
"g.k.j.g.b.c.a.l :.:.f 2 mXc v 9 bXj 4 Z.V.Z.0.a M v `.&X=X=XS.V '.N.sXMX, A >X, , :X$XL._.`.V b p b m { O.bXZX/.kXkXB.SXb v 9 cX5 : `.p h R.R.Q.a.c.x.",
"k.j.k.b.x.a.p.d :.:.n = hXbXx ].L.= 9.C.Z.V.Z.0.s y c B `.`.'.p B MXNXNX$ 6 MX@ 6 NXNXMX/.lX(.`.p m { q xXAX).kXkXlX^.D.bXV ].lX> 4 C.Z.4 R.!.d.p.x.b.",
"j.n.b.x.a.d.i.z %.$.k 6.4 B./.B.> 9.6.9.6.9.V.C.6.t c c V '.'.V 8X;X:XNXI 6 ;X@ ;XNXMX;XaX(.kX{.p v M C AX_.).^.^.^._.G.B./.J.B.B.j F.Z.j P.W.a.x.b.g.",
"k.b.c.a.a.W.u.k '.'.k N.G.6.4 9.6.D.nXSXmXhXN.V.C.h y c c V p B MX@ * ;X:XS S , >X;X, $ ;XS.'.V y v n nXkX^.hXmXSXmXhX/./.G.^.lXB.#X*XV.4 W.a.x.b.g.j.",
"b.c.a.a.W.T.u.s c v s Z._.Z.F.6.L.KXmXmXmXDXmXN.Z.C.w c c c p z >XA , , $X>XA S :X< < ! :Xz p c c n hXlXG.hXKXmXmXmXDXmX/.lXkXlXB.e.1XF.4 p.c.b.g.k.k.",
"c.a.a.s.T.Y.H.x | | s N.^./.7.j KXvXVX:.;.vXDXmX4 F.7.x M N v Q :XS A A S ;X;X:X$X7 S $X:Xd b M M z ZXL.K.KXxX$.LXLXDXDXmX^.kXlXB.h gX0.4 p.v.z.k.k.z.",
"a.a.d.!.Y.U.H.n %.;.f N.L.pX> bXmX:.BX=.H =.vXKXD.7.C.4 M M m Q $X  & A S S $X$X$X$X$ @ ;XJ M { n lXlXB.nXmXG H ;.VXLXmXFXhX_.lXF.s Z k h t.b.k.j.z.x.",
"d.d.Q.Y.U.9XH.n | | s 7.J.K.4 SXvX=.H H =.H :.DXpX: Z.0.a c y C MXS ;X, S 6 < MX, $X>X;X;Xs v b hXkXkXM.ZX#.H =.H G BXLXDXhX/.lXG.0 m m e g.k.j.k.b.a.",
"s.Q.T.U.J.wX5Xk Z Z w 7.A.i.4 ZXvXH =.=.=.H :.DXhX; V.Z.6.t c t NX:XO 6 MX, < ! S @ 6 >XS t y k lX(.lXj ZX+.G =.=.H =.VXDXnX/.lXG.d NX} x f.j.k.b.v.d.",
"Q.T.U.9X9XeX5X9.Z.A.> 6.].=X3 hXmXo.G G G G #.FXj ; V.V.C.h y y C NXS MXA , 6 < NX6 6 :Xs y x jX_.kXkX4 /.vXF G G G G ' KXhX(.lXG.< aX#.f f.n.z.x.a.d.",
"R.U.9XwX5XyXU y.&Xu.2 E $.F.8.h AX+.F F F D xXkX= 4 Z.B.F.0.e c y C NX>X, 6 A $ MX>X:Xa y y K.lX).kX/.6.h ZX+.F F F D mXDX`.N ].S.< l $.f f.b.x.c.d.u.",
"Y.fXqXwXyXiXU D.=X=X2 -.;.#.K.> B.nXxX+.+.hX_.: 3 0.e.$.$.C.4 b m m +.zXMX:X;X;X;XI f c v k kX_.kXhX/.C.4 B.ZXbXvXvXSXSXG.].M { x f ;.@.k t.v.c.a.Q.R.",
"9XwXeX6XyXiXP D.E.i.5 } } ;.+.C.> 4 G././.B.4 N.Z.e.2.pXvXe.C.a { M b B ].pXpXR z V M { n ^.CXjX$.xX)./.F.4 h ^.kXkXL.G._.{.Z { q f +.z >.p.v.d.d.T.Y.",
"J.5XtX7XE E Y 4 V.V.2 O.| $.N.0.C.7.> 2 : 4 I.I.F.V.e.y.y.0.Z.9.s c V '.'.'.[.[.[.Z M m K._.-XNX;.$.kX_.)./.I.G.G.G.E.kXkXgXgX].k h u.=Xe.p.d.s.!.Y.J.",
"5X7X7XuXE Q ~ h S.Z.: D.pX0.S.S.Z.Z.+.Q 0.G.^.).).).G.0.3 6.V.V.4 t c V '.'.cXcX'.N M z /.G.gX-.%.vX{.Z ].).(.{.kXkX=XjXkX%X%XCXG.h =X1Xy.p.a.Q.R.fXwX",
"7X8XE E Q ~ ~ g [.K.= 9.A.S.V `.C.#.%.$.+.F.(.].Z ]._.G.6.7.Z.V.C.w y V i '.cX[.[.M n )./.F.(.bXkX^.`.N M C N M (.gXgXgX=X4.%XjXG.j ).u.8.s.Q.R.fXqXeX",
"7XuXE Q T ^ L k cX[.= B.V V p S.yX$.| | $.D.S.Z M N '.V k S.V.V.Z.0.e c i '.[.'.M n ^.kX].C N Z {.u.=XG.n { M v ^.<X*XxX=X%X/.lXZ.5 kXA.6.u.T.U.9XtX7X",
"uXR Q _ T  .L g S.S.: B V V V S.yX@.N } $.pXC M M Z '.e # i S.V.V.C.6.t c c V N q B.kX_.Z M M M N K.&X&XmXC M v S.&X=X$.rX&XfXjXB.I J.6.4 T.U.9XeXyXyX",
"E Q _ ^  . .X.l V.A.; S.V V S.Z.D.$.$.$.#.Z.Z M Z N `.i # i `.0.B.Z.C.4 t c M M z kXkX{.N { M { Z {.Y.=XR.`.V V u.%X&X&X&X=X&X=XM.l dX: 3 fX9XwX7XyXyX",
"_ ~ (  . .X.L < 7.V.: 4 B.M.0.0.N.N.+.R V.V.B.S.A.B.0.S.B `.V.V.B.Z.V.C.4 t m z kXkXkX(.Z M M M ].).G.0.S.p i G.gXE.H.<.3.e.E./.h : 5X: : 9XeX6XyXR R ",
"~ ~ ( &.X.L J d d d d l l l g g g g l g g g j 7 7 7 7 7 j j j 5 5 5 5 5 5 2 a 4 j h h 4 5 g g g N.0.0.9.M.M.0.r.r.r.t.t.r.r.r.r.0.0.0.e.9.D.5XiXuXE ) ",
"T ] X.-.L bXKXVXmXmXvXdXdXdXE E E R R E R R E sXsXsXsXdXiXpX= w e w w $ w w < f < l l 2 J.7 gXgXfXu.p.p.p.x.l.z.n.n.n.n.n.n.c.c.d.!.Y.gXqX5Xl yXE E ~ ",
"]  .X.-.J /.KXKXKXKXKXKXKXKXKXFXmXmXmXmXzXzXdXpXpXiX7X7X7XnX# # # t 8 t # 8 s $ 0 < l D.* * FXKXKXDXAXZXCXCXCXm.m.n.n.z.z.l.p.p.u.Y.H.9XeX7Xl U ) T T ",
" .X.X.X.K > F./._.lXnXnXZXSXSXSXDXDXDXDXDXDXSXSXnXnXhXhXJ.J.# @ @ t 8 8 8 8 s @ 0 iX6Xl D.l /.ZXnXZXZXSXSXSXSXAXZXZXlXlXCX~.~.~.gXE.E.J.J.G.2 E ~ T ] ",
"X.X. ./ / d 4 9.V.Z.F.G.G.I.I.I.I.^./././.)._._.kXkXkX/.Z.6.# # 8 t @ # 8 @ a $ d * 7XwX5 D.Z.kX)._.).)././.I.I.^.^.^.^.^.^.I.I.I.G.F.C.7.: d _ T ]  .",
"X.( ( / ) ) l h 5 3 3 6.9.9.9.9.N.V.V.Z.Z.F.F.G.G.G.Z.N.N.N.@ 8 8 # @ # # o $ d < l < % D.* 4 G.G.G.G.Z.N.N.C.V.V.V.N.9.9.6.6.6.6.4 3 2 < P _ ~ (  .X.",
" .( *.` E sXyXyX7X7   O ; + O O O + + + + + ; H.e.e.e.e.H.F.6.4 5 3 3 2 2 > : ; ; ; ; ; - 8.r.r.r.r.r.r.t.- + + + + O o o X X X @ . < sXE _ ~ ^ ( L X.",
"^ ~ ) ) iX8X6XeXeXJ.O   % +   X         X   5 gXrXrXrXqXqXfXE.E.gXgXfXfXR.R.fXgXgXs.d.Q.a.v.v.m.m.n.n.k.n.5.  X       X   X X X o o l dX) T ^ ^  .X.L ",
"/ ` E sX8X6XeXwX0X9X2   + % +   X X X X   % 9X0XrXqX9X9XfXfXfXU.G.Y.fXT.P.Q.!.s.d.d.a.p.p.x.x.b.z.z.k.k.g.z.%   X X X X X X X o . , iXY _ ^ (  . .L ^ ",
"_ ! E 8XtXtXwX9X0XfXfX%   + % + X X X X O e.qXqXqXgXJ.J.fXfXfXfXI.P.R.Q.W.W.Q.d.d.d.d.a.x.x.g.g.k.k.k.g.z.m.t.+   X X X X X o . % R R Q / ( X.X. . .T ",
"E E sXaXrXqX9XfX*X*XR.u.%   X O + + % ; H.qXJ.qXwX9XJ.J.I.fXfXfXR.T.u.Q.W.W.W.d.a.c.c.c.x.g.k.j.j.k.g.z.b.x.v.i.* o o . o o o * U E ) ~ (  .X.&.] ^ ~ ",
"! sX8XrXqXH.U.*X*Xu.u.=X*X8.* * 2 5 D.9XqX9X9X9XJ.J.J.U.Y.fXfXfXfXs.s.Q.Q.a.c.c.x.x.x.b.z.k.j.j.k.z.z.b.c.p.p.Q.gXe.5 ; = < l sXR ) Q ^ &.&.X.( ^ / ) "
};
