/* XPM */
static const char *ZXhpdCUyODIlMjk_[] = {
/* columns rows colors chars-per-pixel */
"75 75 255 2 ",
"   c #030102",
".  c #0A0508",
"X  c #14070A",
"o  c #11130D",
"O  c #0E0C16",
"+  c #160815",
"@  c #171718",
"#  c #23031A",
"$  c #2D101A",
"%  c #1D251E",
"&  c #23251D",
"*  c #181726",
"=  c #15122B",
"-  c #280924",
";  c #311129",
":  c #3B1939",
">  c #322B2E",
",  c #4C102E",
"<  c #681F30",
"1  c #4C3131",
"2  c #3D4233",
"3  c #544D32",
"4  c #73522E",
"5  c #31324F",
"6  c #302D5B",
"7  c #4D1D43",
"8  c #492448",
"9  c #50314D",
"0  c #552C57",
"q  c #563356",
"w  c #693356",
"e  c #5B3865",
"r  c #663767",
"t  c #703C6E",
"y  c #32415C",
"u  c #34506E",
"i  c #53494A",
"p  c #695355",
"a  c #6E6D55",
"s  c #504F72",
"d  c #71536D",
"f  c #6B4476",
"g  c #764778",
"h  c #596F64",
"j  c #6F6D71",
"k  c #961F3A",
"l  c #E23A3D",
"z  c #975536",
"x  c #8F3656",
"c  c #AC3153",
"v  c #AE1E61",
"b  c #8F3767",
"n  c #D0314E",
"m  c #EE3A4E",
"M  c #DD1864",
"N  c #D22F68",
"B  c #EC3871",
"V  c #8D4F4F",
"C  c #AC534C",
"Z  c #8C6C56",
"A  c #B2714F",
"S  c #894A6F",
"D  c #895779",
"F  c #B14F71",
"G  c #8C6F71",
"H  c #AD6F6D",
"J  c #D04F4F",
"K  c #F7464B",
"L  c #F24F50",
"P  c #CD6F53",
"I  c #FA694A",
"U  c #FA7849",
"Y  c #ED6B50",
"T  c #F57756",
"R  c #D34F70",
"E  c #EC4C70",
"W  c #CD716D",
"Q  c #F0706A",
"!  c #6C9470",
"~  c #71A97A",
"^  c #E49630",
"/  c #F9B131",
"(  c #FCC83A",
")  c #938A52",
"_  c #B48C57",
"`  c #BDB25C",
"'  c #96876B",
"]  c #8F9174",
"[  c #BA9768",
"{  c #B18972",
"}  c #A8997A",
"|  c #B49677",
" . c #9AB27A",
".. c #AEAA6E",
"X. c #B7A767",
"o. c #ACB76C",
"O. c #B6B565",
"+. c #A7A778",
"@. c #B6A579",
"#. c #A5B675",
"$. c #CA9558",
"%. c #D19155",
"&. c #FC844B",
"*. c #F49150",
"=. c #C6A958",
"-. c #DDA35C",
";. c #C4B457",
":. c #F5AF52",
">. c #CA9762",
",. c #CD936D",
"<. c #EE906D",
"1. c #CFA96A",
"2. c #ECAD68",
"3. c #F9BA64",
"4. c #B7CA5C",
"5. c #ADC369",
"6. c #F9CA47",
"7. c #CDC661",
"8. c #FDC667",
"9. c #F3CF71",
"0. c #3F3983",
"q. c #433E8A",
"w. c #36698C",
"e. c #276893",
"r. c #306B90",
"t. c #2B779A",
"y. c #377698",
"u. c #347B9B",
"i. c #2B7AA3",
"p. c #505389",
"a. c #7A4D86",
"s. c #68578F",
"d. c #7D5288",
"f. c #7C5795",
"g. c #44668C",
"h. c #4D6F92",
"j. c #716C90",
"k. c #5D66A7",
"l. c #6F6EAF",
"z. c #7B79AB",
"x. c #796BBB",
"c. c #7975B7",
"v. c #6C5ECE",
"b. c #745EC7",
"n. c #675BD5",
"m. c #6A5DD2",
"M. c #6E6AC2",
"N. c #6D62CC",
"B. c #7364C4",
"V. c #746AC3",
"C. c #7466C9",
"Z. c #7B72CB",
"A. c #7569D9",
"S. c #7064E1",
"D. c #86578A",
"F. c #905385",
"G. c #875B96",
"H. c #895C94",
"J. c #845B9A",
"K. c #975894",
"L. c #AC558E",
"P. c #97678A",
"I. c #8B639A",
"U. c #966899",
"Y. c #8E7793",
"T. c #96789A",
"R. c #AA718F",
"E. c #A57799",
"W. c #8A6AA9",
"Q. c #976AA3",
"!. c #8779A8",
"~. c #9776A5",
"^. c #866BB5",
"/. c #8376B4",
"(. c #A877A9",
"). c #AC74AE",
"_. c #B679AB",
"`. c #B37EB2",
"'. c #D05089",
"]. c #EA5187",
"[. c #CE6A94",
"{. c #ED7095",
"}. c #CA75A4",
"|. c #F36BA1",
" X c #8372C5",
".X c #2E819F",
"XX c #32809F",
"oX c #199BBC",
"OX c #2B88A6",
"+X c #3683A3",
"@X c #2A96B4",
"#X c #1EA4BE",
"$X c #20A3BD",
"%X c #2BA1BD",
"&X c #3FA5B7",
"*X c #55889E",
"=X c #6F8C96",
"-X c #70B386",
";X c #4F8DAF",
":X c #5897B8",
">X c #7C85A9",
",X c #6D8AB2",
"<X c #6FAAB4",
"1X c #76CD90",
"2X c #78E5A0",
"3X c #1BACC6",
"4X c #26ACC6",
"5X c #5199C3",
"6X c #5BA0C6",
"7X c #76B1C6",
"8X c #7FC0CF",
"9X c #898F87",
"0X c #9B8A8B",
"qX c #9B948A",
"wX c #9A9888",
"eX c #8C849D",
"rX c #8A8A9A",
"tX c #8C8B9B",
"yX c #958597",
"uX c #938C93",
"iX c #8B9497",
"pX c #939593",
"aX c #A48A86",
"sX c #B38F8F",
"dX c #A39484",
"fX c #A59884",
"gX c #A69796",
"hX c #8EAD8C",
"jX c #99A584",
"kX c #AAAA87",
"lX c #8785A5",
"zX c #918AAC",
"xX c #AD8BAD",
"cX c #B688A9",
"vX c #B686B7",
"bX c #A9A9AE",
"nX c #CB8F8C",
"mX c #F18B94",
"MX c #DCAF92",
"NX c #C596B8",
"BX c #CBA6BB",
"VX c #D1AFB5",
"CX c #8CD392",
"ZX c #A1DF95",
"AX c #EDD3A2",
"SX c #A79EC4",
"DX c #C596C3",
"FX c #D5AFC7",
"GX c #E3BCD2",
"HX c #93CCD6",
"JX c #A7DADE",
"KX c #AFE1DD",
"LX c #EAC4D8",
"PX c #F5E7D6",
"IX c #F5CFE4",
/* pixels */
"dXwXuXeXlXlXz.z.z.^.c.c.c.>X>X>XeXrXeXrXtXeXyXyXyXeX~.Q.!.lXlX!./.c.c.x.x.x.B.B.B.B.N.v.m.n.n.m.N.N.C.V.x.x.c.lXlXlXlXtXpXwXjXjX+...X.O.;.;.;.O.X.+.+.",
"aXuXtX!.lXz.z.c.x.x.c.c.z.>XlXlXrXeXT.tXtXT.T.eXrXT.~.!.!.!.!./.^.x.x.x.x.V.B.B.N.v.m.m.n.n.m.N.B.C.V.x.x.^.!.lXlXT.T.pXqXwXdX+.#.o.5.4.4.4.5.o.#.+.jX",
"pXyXeX!.!.^.x.x.x.c.c.c.z.!.!.rXeXtXuXuXyXuXeXtXeXT.!.!.!.W./.c.c.x.x.V.V.C.N.N.v.m.n.n.m.m.N.N.C.V.x.x.^.W.W.lX~.T.uX0XR.{ { #.#.o.5.4.4.5.o.{ +.} R.",
"yXeXW.W.z.x.x.x.x.c.,Xz.>XlXT.eXuXiXpXuXyXyXuXtXeXT.!.!.!./.c.c.x.x.V.V.C.N.N.N.m.n.n.m.N.N.N.C.V.x.c.c./.W.!.lXtXtXuXR.aXfX+...o.5.4.4.` X.5.} } wXqX",
"eX!.W.z.c.x.x.M.x.,X>X!.lXrXT.iXyXpXpXpXyXyXT.T.tXT.!.!.!./.c.x.x.V.V.B.B.N.v.m.n.n.N.N.N.C.C.V.c.c.c.c.!.!.lXtXiXiXR.R.jXkX+.,.O.O.;.4.>.X.#. .jXqXpX",
"eX!.W.z.x.b.B.M.c.z.!.lXeXtXuXuX0XwXpXpXuXyXuXuXtXT.!.!.W././.x.x.x.B.B.B.v.m.n.m.v.B.N.B.B.V.x.c././.!.W.~.lXiXiXpXR.aXjX+.{ [ 5.=.` 5.....{ jXjXuXyX",
"!.W.^.x.x.B.M.x.c.>XlXrXiXuXuX0XqXqXwX0XuXuXyXuXyXT.!.!.!./././.Z.Z.Z.A.A.A.S.A.A.A.Z.C.C.B.x.x.^.W./.W.Q.~.tXiXiX0XR.{ +.@.[ o.5.4.O.o.5.} } hXwXiXeX",
"!.W.^.x.x.B.x.c.!.lXeXiXiXpX0XqXqXqXwXqXqXuXyXyXyXzX~.~.zX/.c.l.k.p.p.p.p.0.q.p.p.p.k.l.l.x. XzX/.^./.!.!.T.tXiXpXqXR.{ +.#.o.O.` O.>.o.#. .jXhXhXiXeX",
"z.c.c.c.M.x.c.>XlXeXyXpXpX0XwXwXdXdXdXwXqXgXgXgXeXj i > * O .     . X X X X X X X . .     . = > 5 s j.lXzXzXuXT.0XwXaX} #.#.o.$.$.O.....} fXqXhXiXrX!.",
"z.c.x.x.x.c.>XlXeXrXyXqXqXqXdXdXdXdXdXkXfXj i @ . . @ > 9 d D P.E.T.E.(.(.(.xXxXcXcXxXE.P.G p 1 & X   . * i j 0XgXjXjX+.#.5.o.X.O.o.#.} fXwXqXhXiXrX!.",
"z.c.c.x.c.z.!.eXiXpXqXqXaXdX} } } } fXp @   + 9 d U.}.}._.(.[.E E K.,Xl.f.G.K.K.Q.I.L.].{.|.NXDXDXvXcXG i $   . i ] +.{ ....[ O.o.#.#.+.jXwXpXiXrX!.!.",
"z.,X,Xc.^.!.eXtXpXqXwXdX} } } +.+.kX> . 9 f K.[.U.'.B N R K.N U U N ,Xh.t G.'.[.vX~.L.Q 3.Q '.R.H H cXDXDXDXcXd X & | { ..[ $...5.#.#.dXaXjXpXiXrX!.!.",
">X,Xc.z.!.T.T.0X0XqXdX} } } } +.+.}   G DXL.E M '.'.B v F f.R K L L.J.f.D.G.L.L.(.(.K.<.8.<.B <.z %.,.).[._.vXIXd o kX+...>.[ ..#. .jXfXqXqXyXiXrX!.lX",
"z.c./.!.T.T.uX0XaXdX+.} +.+.} } +.} . P.Q.L.B N L.K.'.L.L.G.D.F.F.a.a.a.a.a.a.d.d.D.f.P.R.P.].Q 2.<.{.].].[.U.U.: > kX+.[ [ ..#.#. .jXjXwXwXuXrXrXlX>X",
">X>X!.eXyXT.qXwXdXfX} +.+.+.} } +.} . g I.H.L.L.d.a.f f r r r e e r r r r r r r r r r r r r t b D P.K.L.L.K.I.D.+ 3 kX+...o.#.#. . .jXjXwXpXpXiXrXeXlX",
">XlXeXuXyX0XqXdXdX} } } } } @.@.} a   0 g f t r r r r t g g g a.D.D.D.D.D.D.D.D.D.D.D.d.g g f f r r r r r f g f + > +.,.[ #.#.+. .+.wXjXjXpXuXiXiXrXlX",
"eXrXiXpXqXqXwXdX} } } } | @.' 3 o   # w f g D.D.H.H.I.I.I.G.J.J.J.J.J.J.J.J.J.J.J.J.J.J.J.J.G.G.I.H.H.D.g g r r ;   o 1 ' @.| } +.} dXaXwX0XpXiXtXeXrX",
"tXuXpXpX0XwXdXdX} } { | } 3 . X , r a.J.J.f.f.f.a.a.d.D.D.D D D D D D D D D D D D D D D D D D.d.d.a.f.f.f.f.f.f.D.f 8 +   > Z | +.} jXwXjXwXpXpXuXyXtX",
"yX0XqXqXqXaXaXfX+.} | Z o   7 g D.F.G H H H A A A A %.%.%.%.%.%.$.$.-.:.3.8.3.8.:.-.-.$.$.$.$.%.%.$.$.$.H H H H G P.H.D.q +   & Z sXjXwXjXwXqXqXqXpXpX",
"0X0X0XqXwXdXdX} } +.' . 1 A ,.-.:.%.$._ { ' ] ] =X=X=X=X=X=X=X*X*X*X*Xh.G 2.8.{ j h.w.w.w.g.h.h.h.j j j ] ' ' _ _ $.-.2.1.>.A 1   ] kX+.jXjXwXwXwXqXuX",
"0XqXaXdXdXdXfXfX} kXG   Z 9X_ 8.G *XHXHXHXHXJXJXHXHX7X<X:X;X;X;X+X+X+X+Xe.' -.e.i.u.u.u.u.u.u.u.t.i.i.i.i.t.e.;X7X<XiX[ 8.[ G C   ! kX .jXwXfXwXfXqXpX",
"aXqXqXdXdXdXdXdX} fXZ   g.g._ ' +XJXKXKXKXJX7X:X*Xu.t.t.t.t.t.u.u.u.u.u.t.' -.r.u.u.u.u.u.u.u.u.u.u.u.u.u.u.u.u.<XKXJX;X_ [ i.6   G +.+. . .} } jXqXaX",
"aXaXwXaXaXdXaXaXaXsX> + *XY.%.h.HXKXJXHX:Xy.r.r.y.y.u.u.y.y.y.y.y.u.u.u.t.' -.r.u.u.u.u.u.u.u.y.y.y.y.u.u.u.u.u.t.<XKXHXj -.j =X. 3 @.+.} } +.} dXqXaX",
"qXwXdXdXdXaXqXaXdX0XX y 7XnX_ ;XKXKX7Xg.g.g.g.g.g.g.p.p.g.g.g.g.g.s.p.u.t.' -.r.u.u.u.u.+XOXOXOXOXOXOXOXOX+Xu.u.u.t.HXKX*X$.:.6.4 o #.#.| | +.} dXaXaX",
"wXwXdXqXqXqXqX0XgXa   h.HX,.G 7XKX<Xw.g.XXu.u.XXu.XXw.w.u.u.u..Xh.U.D.g.i.' -.r.u.u.u.@X#X3X#X#X#X#X#X#X#X$X@X+Xu.t.*XKX:X_ -.2.j   ) @.o.| } } wXwXwX",
"qXqXaXgXgX0X0X0XgX1 + 7XSX%.j HXHXt.g.y.u.u.u.g.u.+Xg.g.u.u.u.u.s.(.xXp.t.' -.r.+Xu.+X#X$X$X$X$X$X$X$X#X$X$X#X$Xu.u.t.7X7X' >.;X:XO 3 1.[ | } } wXwXwX",
"aXgX0Xj j 0XpXuXuXo 5 HXbX%.h.HX;Xr.g.u.u.u.u.g.s w.g.g.u.u.u.y.~.BXU.s.t.' -.r.y.u.OX#X$X$X$X$X$X$X$X#X$X$X#X#X@Xu.u.;X8Xj >.U.{., % 1.[ +.@.kXdXsXdX",
"gXa . .   o j gXj.  g.JXsX_ *X7Xt.g.g.u.u.u.u.u.y.u 6 p.u.y.+Xy.(.I.L.D t.' -.r.g.s g.3X3X$X$X$X$X$X$X$X$X$X#X#X$X+Xu.u.7X=X-.R [.d . ..@.@.Z & . i sX",
"G   d BXNXi   Y.d   *XJX| _ :X;Xt.g.y.u.u.u.u.u.u.+Xf 8 r a.p.s.H.f.R F t.' -.t.+Xg.s u OX3X3X$X$X$X$X$X$X#X#X#X#X@Xy.t.;X*X-.=X4X@X  Z 1.a   i P.  p ",
"> > LXvXvXIX1 & 9 + 7XJX,.' +Xu.u.g.u.y.u.u.u.t.h.f.d.s 5 9 g.f F.J.L J e.' -.u XXy.+XOXu u @X3X#X$X$X#X#X$X%X%X%X$XXXy.+Xw.-.<X3X&X+ 3 |   d vXDX9 & ",
"X d FX(.U.vXsX. @ 5 7XHX>.' t.u.y.g.XXw.s g.y.h.D.s.y.g.u.y y h.v F K n e.] -.s p.p.OX3X4Xr.5 r.4X3X#X%X:X:X;X;X;X:X*Xy.u.r.-.G s.x # > 1 * xXa.D.: & ",
". d FX(.H.(.T.    s 6XHX%.] t.u.g.g.u.u.u.g.s r a.u..Xg.w.+Xu 5 D.N K m w.] -.t.y.f =X@X#X3X@Xy 5 OX&X;X;X@XoXoXoX@Xh.s XXr.1.C k v <   @ g d.a.g * > ",
"& 1 FX).U.d.D w + h.6Xj.-.' e.+Xg.y.XXu.XXOXg b y u +Xu.g.XX+Xe ; c K K p.' -.w.OXg.wXCX;X3X#X3Xt.; s 0X@.1.1.fX*X#X3Xf p.w.2.P n L C > g g t t r   d ",
"d   E.DXDXU.X : r k.j A -.2.j r.s w.r.w.r.w.v D.e.5 : w.p.p.s d.0 # n m V 2.8.G r.p.k.hX#.*Xz.z.,XL.; z / 6. .1.2.| ;Xg.w _ 8.-.*.K R f + > D.r + & yX",
"zX5   q p +     4 H $.-.8.8.8.-.$.>.>.>.>.$.>.>.>.1._ d g %.>.>.2.4 8 -.3.8.8.8.-.>.,.>.1.R E E E E ,.8 S -.[ $.-.-.-.>.-.8.8.2.$.H U.1     + . & Y.tX",
"lX!.s @ O 6 6 X 3.:.:.:.:.:.:.3.3.3.3.3.8.8.8.8.8.8.9.2.A 8.8.8.8.3.H 2.8.3.8.8.8.8.8.2.E Y :.*.( &.I W { 8.8.8.8.8.8.8.8.3.8.8.8.G >.3.  i p p uXtXT.",
"lX!. X Xx. Xk.. 1 nXH C P J K K K K K L L L I U *.*.*.*.*.T I &.&.U U &.&.*.3.8.:.:.:.Q U :.( 6.7./ U I 3.8.:.3.3.3.3.8.AXAXAXMX{ ,.MX1 o qXbXpXtXlXlX",
"!./.x.x.V.x.A.6 X IXBXf (.U.F.F J K K m m B B M K I U H D.F.F F R R m K K I 1.sX*.Y E Y 6.( ( _ Z ( :.I Y 3.:.:.3.3.9.AXGXBXvXvXt BXvX+ 1 gXuXrXlXlX!.",
"/./.V.C.B.N.A.5 1 }.N t G.H.J.f.d.S J I m M M M M N >X1XkXaX<Xl.l.l.K.B m I gX5XzX].B Y :.( %.A %.^ :.I I :.:.:.3.AXVXFXNXvXvXvXS E.G.; > gXyXrXlXlX!.",
"/.x.V.C.N.v.A.= : v E S f.D.G.I.D.J.a.C I L M M M F.5XkX/ / hX:X:X:X:XK.m U gX5X,X[.E Y / ( -.C A ^ ( *.I 2.:.:.MXVXFXcX(.(.(.`.S I.H.: & yXeXlX!.!./.",
"x.V.C.N.m.m.A.* : K.v w a.E.nXnXcXD.G.f.S Y K M M L.:X1.^ / hX:X:X:X5Xz.B U nX5XzX].B Y :.:.( / / ( :.*.T 3.3.1.BXDX(.cXnX[.cX(.t D.Q.8 @ tXT.!.!./.x.",
"V.C.N.m.m.v.V.O 8 T.P.0 P.MX<.I nXcXd.H.J.S J I L E.5XkX/ :.<X:X,X>X,X'.B L kX,X'.B E E L *.( / 6.:.U K *.8.,.FXNX(.cXmX&.&.mXcXe ,X).w o T.lX!./.x.x.",
"B.N.m.m.v.C.x.. p 2.2.w xXQ &.&.P BXD.H.H.J.g P &.T (.6X<X<X:XU.L.(.F.H jX-X1X-X9XR.L._.E I &.*.:.Y L *.8.,.FXvX`.E.NXQ U &.Q E.q ~.].c . I.lXW.c.x.V.",
"v.m.n.v.N.V.l.  A 9.8.V T.mXl K R cXr H.H.H.J.g Y I E ,X,X,XK.E ].F.jXZXi ! 2Xi i 2XhX(._.'.E L B L T *.,.FXvX).vXE.cXmXl l ].E.7 L.].b . j.zX/.x.V.B.",
"m.m.m.N.B.Z.l.  A 9.8.V t NX[.R cXg t G.H.H.H.J.S m K J '.'.].E N CXZXZX4 h 2X, h ZXZXhX(.vX_.'.E U &.P NXvX`.vX`.vXF.cX{.'.NXD t G.H.r   j.zXx.x.B.B.",
"n.N.C.V.x.Z.j.  A 3.<.b D.g U.U.g g d.D.H.d.D.H.f.x K K K ].].E qX1X1XZX .h 1X1 CXZX1X1XiX_.vX[.m I Y NXDX).(.(.(.(.(.F.U.T.F.U.D U.H.g   s./.x.B.B.m.",
"m.C.V.x.x./.s.  F E E b U.H.a.d.d.D.NXFXFXBXU.d.H.d.c K K L B R CX1 , -X1X-X! h 2X-X, i 1X'.].E m I nXDX(.E.BXFXFXBXcX(.(.E.vX_.j <XI.g   s. XB.B.v.n.",
"C.V.x.x.x./.s X J L I x (.Q.I.D.D GXFXVXVXVXLXE.d.I.g m L K B F 2X-Xh p -X2X! -X1Xa ] ZX1XF B K L P vX(.P.LXFXVXFXVXGXcX(.vXvX(.g 6Xz.g   s.Z.B.v.n.m.",
"V.x.x.c.z.zXs X Y 3.*.V I.~.Q.t VXVXAXAX6.9.VXLXD.D.J.V U U I { 1Xh h h ~ 1X1X1X-Xa a ! 1XA I U Y cXvXF.BXVX-.AXPXPXVXLXcX).vX(.x _.I.a.  p.C.N.m.n.v.",
"x.x.c./.!.zXs . *.8.3.V W.E.P.D GXMX8.8.( ( 9.FXcXt I.a.J U I W 1X; i ! ! ~ ~ -X~ 1Xi 9 1XP &.U R.vX(.P.GX-.( ( 8.PXPXVXBXE.vX).x I E F   p.A.m.n.v.B.",
"c.c./.!.!.zXp X T &.U x J.R.D P.FX2.( ( 6.( 6.VXFXr D.J.S m m J CX1X-Xi 1Xh p CXi ! 2X2X-Xn K J vX`.(.P.BX:.6.6.( :.PXVXVXE.vX`.V &.U m . p.A.n.m.C.B.",
"c./.!.!.T.xXp X R E R w K.W.k.P.FX2.( 6.6.( 6.VXFXr a.H.f.c K m sX2X> ! 1Xi p  .1X, h 2XZ m m E.vXvX(.F.FX^ / 6.6.( 9.VXFX(.vX`.p ZX1.Y . p.S.m.B.C.x.",
"/.!.!.eXyXgXp . l.f.D.r R.sXk.g DXMX/ / / / %.FXE.0 d.J.J.a.n K J ZXCX2Xh i h 4 ZX! ~ ~ n m F vX`.vX(.t vX,.^ / / / ^ VXBXL.}.vXw ! { $.  q.A.N.B.x.c.",
"!.!.eXyX0XsXp X ,X6Xf.p 9.1.J.t P.DX>.^ ^ ^ sXvXr f G.R.R.J.b K m J bXZXh ! ! p 2X2X~ n m J (.vX`.vXQ.g F.DX,.^ ^ ^ MXGXR.Q T [.x { -.-.. p.A.V.V.c.c.",
"!.lXtXyXaXsXp X E.,Xk.V 8.3.2.P.r P.vXcXsXcX(.f f f.h.nX8.U.d.C U U Y nXZXCX1X1X .A J I Y R.vX).nXcX(.G.f F.vXNXVXBXBXU._.Q &.U C 3.2.F . p.Z.x.x./.!.",
"lXyXuX0XaXkXa . U.U.s.C &.:.2.H.H.f g D.H.g g H.I.G.h.*XgXk.H.g Y I L '.'.'.[.[.{.Q &.U H xX7XbX3.cXvX(.U.D.D U.(.U.U.).`.[.Q T C H P.f.. p.Z.c.c.!.~.",
"T.yXqXqX} kXa . D.G.d.V 3.2.P.D.H.J.d.G t a.Q.~.~.U.H.h.h.f.H.J.S m L E ].].|.mX|.Q U P (.`.<XMX8.MX).}.`.vX).(.(.zXxX`.zX,X(.}.b /.:X,X. p.Z.c.z.~.T.",
"0XqXwXdX} @.a   L.[.d.r U.f.K.].K.P.| 3.R.R.Q._._._.(.I.f t H.H.f.c K L ].'.{.{.E U Y E.~.I.bXMXnX}.].U [._.Q [.`.zX,XvX;X+X,X`.S ~.:Xk.. p././.!.lXyX",
"qXwX} } | @.!   F mXL.e K.'.E E H.sX3.2.2.R.K.{.T T }.[.K.D.G.H.I.g n L N ].{.{.Q U H vX(.E.[._.).W.'.Y U T U Q ,X,X!.lX+X;XxX).g _.Q.a.. s./.!.lXtXuX",
"dXdX} | [ 1.)   F {.L.t ].B E '.R.2.T &.2.,.L.Q U T E B x F K.G.H.I.S l E E ].Q U H `._.Q T U T [.,X:XT.<.U U E zX5X,.1.:XzX`.).p T.Q.g . s./.!.eXpXqX",
"dX} } X.[ =._   t L.F.r ].B B '.G.,.:.T 3.aX'.U U T ].N , c '.f.H.H.f.x K K Y U A (.vX}.T U U U T E.;X<XxXR I E k.;XiXpX:X:X,XQ.a jXa.0 . j.!.eXuX0XaX",
"} | [ X.>.1.)   r Q.H.r L.'.L.G.J.sXnX9.sXT.L.Q [.W R.'.c E L.J.L.K.I.J.c K U P ).vXvX}.T &.&.U [.vXI.z.L.].]._.,XzX:X@X,XzX,X).t bXD.7   j.zXyXqXaXaX",
"....O.X.1.4     ; q q 8 r f f g g t g H f f f g f f f g F S f f f g f g r x C g P.D.D.D.C J J J D D.g r c c r d d p 5 5 5 w w 9 ; 9 1 - . @ Y.gXaXaX{ ",
"....O.7.)   d p > & o                       . . X X X X .   + $ ; # $ + $ # + 1 $ > @ + > +                 O O = = = = = = = = * * * % O   & gXdX} +.",
"[ $.;.7.3 + LXIXIXIXLXVXbX0Xj p i > & @ .       . o & 2 @ > w k k n k c k k C C V j 0XP.d d bX0Xd i > @ o . O = = 6 6 0.p.k.k.k.k.j.j.j.%     G fX} ..",
"$.=.;.7.3 + U.xXNXFXFXGXLXLXIXIXIXLXLXFXVXNXgXY.G d 9 > > Y.w , , n k n k k C , z qXG d p d GXGXLXLXGXFXBXcX0XG p i 1 > @ + o o o o O . ; 9   a @.[ [ ",
"=.;.;.;.)   w G.G.I.U.Q.Q.(.(.(.).`.vXvXvXNXDXDXDXDXDXvXQ.G.7 < , n k < n k V , V p gXD G P.U.).(.).`.vXvXvXvXvXDXDXvXvX).(.Q.U.U.I.H.H.I.:   ] ..[ $.",
"7.;.O.o.o.3   : r a.D.G.G.G.G.H.I.I.U.Q.Q.Q.(.).).).(.Q.H.Q.7 k k k , < < # z A z G G d P.d I.`.vX`.).(.Q.I.I.I.H.H.G.G.H.G.G.G.H.G.a.e +   a @.[ $.=.",
";.O.O.o.+.+.p @     - : 0 r 8 8 8 8 9 0 0 0 0 q q q 9 9 9 9 0 0 w 0 w 0 0 w 0 w 9 q 8 , q 9 q 9 q 9 9 9 9 0 0 0 0 9 8 8 7 7 : , , -     & a @...O.=.;.",
"=.O.5.#.} jXsXaX9X>   # ; 8 # + # # # # + # +   @ @ @ @ @ @ X O O O X O X X X . X . . X O O O = O O O O   + # # + + + # # # # - ;   > ] fX@...X.O.` ;.",
"X...+.+.fXwX0XuXgXj   - - 7 : - - - - - - -   5 zXiXtXtXzXlXd.d j j.j j s s p.s.p.p.s.s.s.s.B.C.N.N.B.A.6   - - - - - - - - - , -   a kX+.[ X.X.=.;.` ",
"o.#.} jXwXqXuXyXrXeX>   - - : : - - # - ; + . j.zXiXeXeXlXlXzX~.~.~.zX/.^./.zXzXZ.Z.Z. X XC.C.N.N.N.m.m.v.. + - - - - - - - , ; . & dX{ ..X.=.=.=.` X.",
".. .} wXwXpXyXeXeXlXj.o . - - : : : : : +   d zXrXlXT.T.lXlXlXlXQ.W.!./.W.^./.c.x.x.x.x.B.B.N.N.m.m.m.v.A.p.  X - ; ; ; ; , ; . o G | } o.=.;.;.=.X.[ ",
"} } jXhXiXrXeXlX>X>XlXj.@   X + + + X   @ j yXeXyXeXT.T.~.lXlXlX!.!.z./.^.^.x.x.x.V.V.V.C.v.m.n.n.m.v.N.B.Z.s.*   X # - $ X   & ' fX#...O.=.;.4.$.X...",
" .jXwXiXtXT.!.>X>Xz.z.>Xz.s * @ @ % > d eXzXeXeXT.T.T.!.!.lXlXlXlXc.c././.x.V.V.B.B.C.C.N.m.n.n.n.N.N.C.V.x. X/.s 5 * O o & p wX| +.[ X.O.4.;.` X.o.+."
};
