/* XPM */
static const char *Zmxvb3I_[] = {
/* columns rows colors chars-per-pixel */
"75 75 248 2 ",
"   c #BE7C6E",
".  c #B86F7A",
"X  c #AE7B7F",
"o  c #BD7573",
"O  c #BB7B73",
"+  c #B4757C",
"@  c #B37B7B",
"#  c #B87978",
"$  c #CD7E5E",
"%  c #D37E58",
"&  c #C67C66",
"*  c #CA7C62",
"=  c #C5756B",
"-  c #C27C6B",
";  c #CA7869",
":  c #D07C63",
">  c #C26F71",
",  c #C27871",
"<  c #BFA35F",
"1  c #BEAC5D",
"2  c #BCB55C",
"3  c #BABE5A",
"4  c #BBBB5C",
"5  c #9F9E7F",
"6  c #BC846D",
"7  c #BC8E69",
"8  c #BB8C6C",
"9  c #BB936A",
"0  c #BA9668",
"q  c #B49C6D",
"w  c #B99B6A",
"e  c #AF8C77",
"r  c #AD837D",
"t  c #AB8C7C",
"y  c #B58475",
"u  c #B58476",
"i  c #B38C73",
"p  c #AD9576",
"a  c #AC9C75",
"s  c #A5957E",
"d  c #AA947B",
"f  c #A59B7D",
"g  c #A99A7A",
"h  c #B39372",
"j  c #B19A72",
"k  c #B19279",
"l  c #9EA97D",
"z  c #9BB47C",
"x  c #9DBB78",
"c  c #AEA66F",
"v  c #ADAC6E",
"b  c #BBA264",
"n  c #B5AC66",
"m  c #BCAB63",
"M  c #B3A36B",
"N  c #BBA769",
"B  c #B3AC6A",
"V  c #ACB46D",
"C  c #A7BA6E",
"Z  c #ACBB6C",
"A  c #B4B365",
"S  c #BBB363",
"D  c #B4BB64",
"F  c #BABC63",
"G  c #B2B36A",
"H  c #B4B969",
"J  c #ABA374",
"K  c #A5AD75",
"L  c #ABAB72",
"P  c #A4A37B",
"I  c #A8A578",
"U  c #A3AB7A",
"Y  c #B0A372",
"T  c #A5B474",
"R  c #ABB572",
"E  c #A3BC72",
"W  c #A2B379",
"Q  c #DB844D",
"!  c #D88B4D",
"~  c #D3974E",
"^  c #CD825C",
"/  c #CC8D59",
"(  c #CC8A5C",
")  c #D48454",
"_  c #DA8552",
"`  c #D38B53",
"'  c #D98856",
"]  c #D2835A",
"[  c #CC9D54",
"{  c #CA935B",
"}  c #CA9558",
"|  c #C59C5C",
" . c #D19452",
".. c #CFA04F",
"X. c #CAA656",
"o. c #C4AD56",
"O. c #C3A45B",
"+. c #C3AC5B",
"@. c #C4B355",
"#. c #C3B45B",
"$. c #C5B958",
"%. c #C78765",
"&. c #CB8364",
"*. c #C38A64",
"=. c #C2836A",
"-. c #D18063",
";. c #C39663",
":. c #C2A663",
">. c #C0B562",
",. c #B9C55B",
"<. c #B4CB5D",
"1. c #B6D15B",
"2. c #ABC767",
"3. c #ADC466",
"4. c #ACC36A",
"5. c #A8C36E",
"6. c #B3C362",
"7. c #B3CB64",
"8. c #B4C568",
"9. c #C4C35A",
"0. c #7D76AD",
"q. c #7E7CAD",
"w. c #7D6EB6",
"e. c #7B65BD",
"r. c #7668BB",
"t. c #766DBE",
"y. c #7B6CBB",
"u. c #6E71BD",
"i. c #7D74B5",
"p. c #7579B7",
"a. c #7D7AB3",
"s. c #7572BD",
"d. c #7A73BA",
"f. c #6E5FCE",
"g. c #735EC8",
"h. c #675CD5",
"j. c #6A5DD2",
"k. c #6E6AC5",
"l. c #6E63CC",
"z. c #7766C2",
"x. c #7465C5",
"c. c #746BC3",
"v. c #7163C9",
"b. c #7271C1",
"n. c #6B60D0",
"m. c #9F7C8E",
"M. c #9D6E96",
"N. c #976E9D",
"B. c #9A6D9A",
"V. c #8F769E",
"C. c #8E7D9E",
"Z. c #9D7495",
"A. c #9B7B94",
"S. c #94749D",
"D. c #99739A",
"F. c #977C98",
"G. c #937B9C",
"H. c #AA6E8A",
"J. c #B16F81",
"K. c #AC7584",
"L. c #A77C87",
"P. c #AB7B84",
"I. c #A4748D",
"U. c #AA738A",
"Y. c #A37B8C",
"T. c #B27782",
"R. c #A26C94",
"E. c #A37392",
"W. c #A27A91",
"Q. c #866DAE",
"!. c #8D6AA8",
"~. c #8B6CAB",
"^. c #926DA3",
"/. c #8775A6",
"(. c #8C74A5",
"). c #857CA5",
"_. c #8C7CA3",
"`. c #8575AC",
"'. c #8974AA",
"]. c #847CAC",
"[. c #8A7AA9",
"{. c #9273A1",
"}. c #907AA0",
"|. c #8567B3",
" X c #8364B4",
".X c #836CB3",
"XX c #8274B2",
"oX c #8872B0",
"OX c #817AB1",
"+X c #7D8AA6",
"@X c #7C83AC",
"#X c #7389AF",
"$X c #7583B2",
"%X c #9D848D",
"&X c #998D8D",
"*X c #9C8C8C",
"=X c #8F9F8E",
"-X c #9E9486",
";X c #9D9C85",
":X c #96948D",
">X c #9B938B",
",X c #959C8D",
"<X c #9B9A8A",
"1X c #8D849D",
"2X c #89899B",
"3X c #8C8B9C",
"4X c #958595",
"5X c #9A8392",
"6X c #948C94",
"7X c #9A8B92",
"8X c #92839A",
"9X c #998299",
"0X c #928A9A",
"qX c #8D9396",
"wX c #8D9B93",
"eX c #87949C",
"rX c #8C929B",
"tX c #939393",
"yX c #979493",
"uX c #929A92",
"iX c #A58485",
"pX c #AA8482",
"aX c #A48C84",
"sX c #AB8C83",
"dX c #A3848A",
"fX c #A38C8A",
"gX c #A39384",
"hX c #A79584",
"jX c #A29B82",
"kX c #A19289",
"lX c #A18791",
"zX c #8EAA8B",
"xX c #9CA383",
"cX c #96AB85",
"vX c #9BAB82",
"bX c #94A38B",
"nX c #9BA389",
"mX c #95A888",
"MX c #A1A382",
"NX c #A0AA81",
"BX c #A0B480",
"VX c #8484A4",
"CX c #8B83A3",
"ZX c #858BA3",
"AX c #898BA1",
"SX c #8888A5",
"DX c #8483AA",
"FX c #8686AA",
/* pixels */
"gX<X6X1XVXVXq.0.a.|.i.p.p.@X+XZX1X3X8X3X3X8X8X8X8X1X}.^./.DXDX].XXi.d.e.y.t.z.x.v.v.v.f.j.h.h.j.l.l.c.c.b.d.i.DXFXCXCX3XuX,XnXxXU L b F @.$.+.A M K P ",
"dX7X3XC.VXq.0.i.w.y.p.p.a.@XVXVX2X1XF.3X3XF.D.8X3XC.}.(.[.'.].OX|.w.d.e.e.c.x.g.g.f.j.j.h.h.j.l.v.c.c.s.d..X`.FXCXS.F.tX:X<XjXU T V 8.7.1.<.6.V T I xX",
"yX4X1X/.`.|. Xs.r.s.p.a.q./._.2X1X3X6X0X4X0X8X3X1XS._./.].~.`.a.i.y.s.c.c.k.l.l.f.j.h.h.j.j.l.l.x.c.s.d..X|.~.CX}.D.4X5XL.X t W R H 6.1.,.7.G 8 I s L.",
"4X1X^.`.a.e.e.t.u.$X$Xq.+XZXC.1X0XqXtX4X4X4X0X3X8XG._./.'.`.a.i.d.s.c.c.c.l.l.l.j.h.h.j.l.l.l.c.c.d.p.i.XX~._.AX3X0X6XY.aXd U L V 3.<.1.2 n 5.a f ;X>X",
"1X_.!.0.p.e.r.k.u.$X@X).ZX2XF.qX4XtXtXtX5X5XF.F.3XC.(.'.'.OXi.w.y.c.c.x.v.l.f.j.h.h.l.l.l.v.c.c.d.d.p.a.`.[.AXAXrXuXY.L.xXBXI =.G D #.<.;.M x z xX*XuX",
"1X/.Q.p.r.g.x.u.p.q.).VX1X1X4X6X%X,XwXuX7X5X0X0X3XG._.[.`.XXXXy.t.c.x.x.v.f.j.h.j.l.v.v.v.x.c.d.XXXXOX`.~.(.AXrXrXtXY.iXvXU 8 w 3.+.1 3.B J e xXbX7X8X",
").Q. Xy.r.x.k.r.i.@XVX2XqX6X6X%X:X>X,X&X6X7X5X4X8XG._./.`.OXXXw.t.c.c.x.v.j.j.n.l.v.x.x.z.e.t.d..XQ.`.'.^.{.3XrXqX*XK.r U Y 7 Z 3.,.A Z 5.a s cX,XqX1X",
"/.Q. Xr.u.x.t.i.].VX2XqXwX:X*X*X-X-X<X>X:XtX5X5X4X8X(./.].OXXXy.r.c.c.v.l.l.l.l.k.c.c.b.t.t.d.i.Q.~.`.].(.C.3XtXuX*XK.r U R V n 1 2 *.R W l cXzX=XeX1X",
"q.i.s.s.k.u.p.@XVX1X8XtX:X*X-X-XgXgXgXnX>X%X7X7X0XG._./.'.XX.Xy.c.c.c.v.l.l.f.v.x.c.t.y.y.d.p.a.`.].DXVXAX3X0XA.>X>XpXf W E V ( | n M Y p jX-XzXwX2X_.",
"`.i.r.r.u.p.@XVX1X0X5X&X>X-X-XjXgXgXgXgX-X*X&X5X4XG._./.`.OXi.y.c.c.k.v.v.g.v.x.c.y.e.y.y..Xa.a.].].FXZX3XrXtX5X>XnXxXU K 5.Z m n V T g f ;X>XzXqX2X).",
"0.i.p.s.p.q.).1XqXtX>XkXaXjXf f f f jXjX;X-X>X7X4X8X}.(.'.a.i.d.c.x.l.k.k.c.c.c.t.y.y. X X.Xa.].'.^._.AXrXqXtX>X,XnXf i J V b D C E W P xX,X,XwX2XC.VX",
"0.#Xp.d..X).1X0XqX:X-XaXsXs f P P f d s gXaX>X7X4X8XG.(.].a.i.e.e.x.k.c.c.z.c.s.y.w.w..X.XQ.].DX[.{.C.3X8X5XY.L.aXxXt y c 9 ^ B 5.x W gXaXbXtXwX2X(./.",
"@X$Xp.0.).V.F.&X*X-XjXs g g g P I g f f jXaX-X>X7X4XG._.].`.i.y.t.c.c.z.c.t.s.y.w.i.a.XX`.`.].[._.CX1X8XZ.m.dXL.gXxXP K M *.7 v E x z jXgX&X5XqX2X).VX",
"q.a.0.).C.8X7X*XiXgXMXf P P g J I g d f ;XjX<X>X7X4X8X_.'.Q.XXp.s.z.s.t.y.p.p.w.i.a.a.`.!.'.VX_._.3X1XZ.A.7X<XnXvXz z T q 0 v T x x vXnX,X,X6X0X2XZX+X",
"@X@X/.1X8XA.>X-XgXjXf I I I a p a g d d jXxX,X>XtX4XS.}.[.]..Xi.y.y.d.p.p.p.i..X.X].`.].'./.ZXCX1X0X3X6X5X,XbXcX;Xf W L v V E x z z cXcX,X=XqXqX2XVXVX",
"+XVX1X0X5X%X>XgXsXf g g p a a p p P I P MXgX-X:XtX6XF.^.(.DXq.i. Xw.p.i.XXa..Xq.].].].VX[._.CX1XrX4X5XtXI.*XmXjXt f K 6 w R T U l l ;XnXbX:X6XqXrXeXVX",
"2XeXqXqX&X>X;XgXd g g p p a J J a p p f xXgXdX%XtXtX3X1X{.[.@X@Xa.a.a.XXQ.Q.Q.].].]._.CX{.S.C.1X4X6X5XwX:X<XmXgXf z T 8 q Y j g P f gXiX:X*X:XwX0X1X2X",
"0X6XtX:X*X-XgXgXf d t p p a J I a p t t ;X-XdXY.7XtX3X3XCXCXFX@X@X@X@X~.'.[.!.(.VXCXCXCXS.S.D.qX4XtXA.m.:XmXcXjXf U K T q h i y P s xX;XbX,X,XuX7X4X3X",
"5X&X:X>X-XaXaXjXP d e g I p p a J g t sXgX<X>X%X5X4X8X3XAXAXZX+X].~.DXVX_.ZXCX_.AX3X3XrX3X8XF.0X5XtX&X%X<XcXcXMXd h J E T K g g g r xX;XnX,X:X*XyX7XqX",
"&X*X%X-X-XgXgXs f f d g g P I g I f gXgXkX<X,XyX7XF.D.8X2XAXAXZXZX^.^.ZXCX_.eX2XG.1XD.qXqXZ.F.tX7X,X&X>XmXpXjXz U K E E J a U x P l vXxXxX;X<X,X<X>X6X",
"*X*XdXgXgXgXjXjXf f d t d f I P P jX;X,X<X>XuXuXtX4XZ.B.1XAXAXZXZXAXS.CX2XN.G.eXF.F.4X4X6XA.R.tXbXbX*X*XnXpXf z z T T L i i a z z z z l vXjXjX;X-X>X:X",
"iX-X-XgXgXgXjXjXjXs d d d d f MXjX;X<X<X>X*X*XyXuXtXF.M.D.G.S.2XeXeXeX3XeX8XD.0X0X0XwXtXW.m.&X:XbX-X-XmXxXt d I J h h K K T W W p y I l U l f f nX*XiX",
"iXaX-XaXaXgXaXiXgXgXgXaXsXsXjX;X<X,X,X<X>XdXY.W.7XuXtX5XF.F.R.D.3X8X3XwXwXwXqX5XE.7XuXuXI.I.Y.L.fXiXpXxXl r @ y 6 - j T K J L T a i J K p p U d gX*XiX",
"-X-XgXgXkXaX-XaXaXgXaXaXaXkX-X<X<X>X,X,X:X%XW.E.W.7XwXuXtX0XZ.R.Z.Z.R.6XuX7XyXuXY.I.,XbXdXU.L.P.L.;X;X5 s P a h j M v L L 6 8 T T T T R j j I s -XaXiX",
";X-XgXkX-X>X*XfX*X-X-X-X-X>X>X>X>X>XtXyXtX7XW.E.E.I.7XuXtXtX6XE.E.m.H.U.uXdXH.>X,X>X<X-X<XaX;XiXT.jXvXd # p T T R V q q L =.8 R V M V B R j p f ;X-X-X",
"-X-X*X*X-X*X%X*X*X&X>X>X>XyXtX7X7X5X5X6XtXtX5XE.I.I.%XtX&XI.5X>XdX*XdXH.dX<XK.K.<XmX;XT.P.xXcXjXr f z P i p T E E V q v V 9 =.M w 9 n ;.9 j g f ;X;X;X",
"gX*X*X*X&X&X7X7X7X7X7XtXtX6X6X0XF.A.A.A.4XtXtX5XI.U.Y.*X*XI.H.*X,X,XnXaXaXnX;XP.aXcXcXgX+ s l l l l z W K T E C V V V C Z B *.&.0 D D A w I g f jXgXgX",
"kX*X&X&X7X6X4X4X0X4X6X0X0X3X3X3XF.D.D.Z.Z.5XtXtX%XY.Y.Y.Y.P.J.K.;XcXcXcXxXcXxXs ;Xl t f P P d d g y J T h 8 c V 9 ;.G 4.4.3.A ;.D S b Z M a g s gXaXpX",
">X:X7X5X4X0XF.F.1X8X3X3X3XAXAXAXC.S.D.B.M.Z.5XtX,X>XdXK.J.K.K.+ t vXvXvXz z f @ t f @ o g z U I p > O J 8 = 7 w &.&.N 3.3.A 1 6.7.S n w L K g s jXgXaX",
">XtX4XF.8X8XG.G._._._.CXVXVXVXVXCX}.N.B.M.M.Z.7X,X,X-XP.J.+ + + @ P l P U z U O o y i o O a I T K i 8 L M *.w n ;.;.A 3.6.} / 4 | H Z w 9 a f s aXgX<X",
"m.4X8XF.1XCXCX_.(./.'.].DX].].DXVX_.{.N.B.M.Z.5X:XbX,XiX+ . . . # y a p i a T p o > h h 6 6 - j T R V C C V Z 3.D m { O.,.o.@.#.{ A C c 6 p f jX;X<X>X",
"5X0X8X_._._.[.].`.`.XXOXXXQ.Q.`.].DX_.S.B.M.R.A.&X<X;XjXX + . o o o 6 i - - h K j - 8 T R 9 = =.9 7 M 4.4.2.3.3.6.| %  .,.<.<.F b V 9 9 i d MXaX-X>X&X",
"8X1X_._.[.[.'.OXa.i.i.i.w. X|.|.Q.].FXCXG.D.Z.A.%XfXgXjXt @ o > , = = 6 - = = 9 V v M V C w =.7 =.* &.N 7.6.D 6.<.+. .@.<.<.2 | *.w =.j g g jX<X*X&X5X",
"8XCX_.].`.OXXXi.d.d.s.d.y. X X X|.'.ZXAX3X8XF.I.I.P.P.t t y o > = = = & =.; ; * M C C 5.Z ;.;.G 0 * : ;.8.1 1 <.<.<.,.@.3 3 ( ( ;.M L W f hXsXiX&X5XF.",
"CX_.].`.XXi.d.t.e.c.c.b.y.e. X|.~.(.CXrXqX4XA.I.U.T.T.@ y y O = ; ; ; * %.&.* : *.V 2.2.3.H S 3.D ;.;.S 6.O.4 <.1.1.X.Q [ D :.b *.8 L U f jXaX>XtX4X8X",
"CX[.OXXXy.y.t.z.x.x.c.c.s.i.|.~.~.{.G.0XqX7XY.U.T.T.# # O O - ; ; ; ; * &.;.&.-.&.N 3.3.2.7.7.7.D 1 O.2 ,.,.3 @.$.,.X.` 1 3.Z ;.7 j i f jXkX>X7X4X1X_.",
"DX].XXw.e.c.c.x.v.v.x.c.p.a.].'.^.^.D.A.7X&XdXK.J.+ # o o - - ; ; : : $ ( :.:.;.;.m 3.3.7.7.7.6.O.` ) ` @.,.~ ! ~ 4 6.S m H V 9 I U f xXjX<XuXtX3XCXVX",
"].XXd.t.c.x.l.l.l.g.z.t.a.].].(.^.N.M.E.Y.dXiXP.+ # , , = - ; & : : $ ^ { < F F S D 6.7.7.7.7.,.[ _ Q Q ~ @.! % ` 2 7.F b M M T U d jXiXiX>XtXqXAXZX].",
"XXXXy.c.x.l.l.l.v.g.e..XXX'.^.^.S.B.M.E.U.L.L.P.+ # , = = - & * : $ % ^ } 1 6.7.7.<.,.,.<.<.1.<.o.! Q Q ~ @.[ `  .| S 4.M & h W P t aXiX,X7X4X3XCX].`.",
"XXy.c.v.l.n.l.c.c.e.y.XX`.^.^.N.D.Z.R.I.U.K.P.+ + o , = - & * $ $ % % % / O.4 <.<.,.2 o.o.$.,.1.,...! ! X.,.,.O.( ] :.Z M 8 p k MXnXkXY.tX4X1XCX].].OX",
"y.c.v.l.j.j.l.c.d..X.XQ.]._.S.D.A.W.E.U.K.T.+ @ # O - - & * $ $ % % % % _  .X.$.,.@... .! ~ ..$.,.,.@.o.,.7.2 | &.*.;.q T K i y MXnX>XI.6X3X_.[.`.XXw.",
"c.c.l.j.j.f.c.d.d..XQ.'.).CX3X8XA.I.I.K.K.+ + O O - - & * * $ % % % % _ _ _ ` [ @.@.~ ! Q Q ! [ 3 <.<.<.7.8.| ;.N *.; 8 W U f sXsX>X7X4X1XCXCX'.XXw.t.",
"x.l.j.h.f.v.b.d.i.XX'./.CX3X0X6X%XY.P.P.@ @ @ O - - & * * $ $ % ) _ _ Q Q Q ! ! ~ X.~ ! Q Q Q ` +.,.7.7.7.F S Z V 7 6 J U vXxXpXiXY.4X8XS._.FXQ.i.d.c.",
"f.j.h.f.v.c.d.XXXX`.[._.3X0X4Xm.dXiXP.X r y y   - - %.* $ ^ ] % ) _ Q Q Q Q Q Q ! ~ ~ ! Q _ _ ` O.6.6.7.8.4.Z V M j I g t jXnXkX,X4X3X3X_.[.].XXy.c.x.",
"j.j.j.l.x.y.i.OX`.'._.3XqX6X%XY.L.pXt t e h i 6 =.=.&.&.^ ^ ) ) _ Q Q Q Q Q Q Q _ `  . .) ) ' { 1 6.8.8.4.4.v 8   i g @ + ;XbX,XuX4XG._./.].OXd.e.x.v.",
"h.l.v.c.t.d.a.]./.(.1X3XuXyXdXiXpXr t g I J q 7 =.%.&.] ] ) _ _ _ Q Q Q Q Q _ _ _ _ / } } / { :.S 3.3.4.4.R q   o i g r aX,X*X5XqXF.CXDX].XX.Xt.x.v.j.",
"j.v.c.t.w..X].].CX1XqXtXyX>XaXsXpXr k I L R M 9 *.&.] ] ) _ _ _ _ _ _ _ _ _ _ _ ' ) ` } :.:.:.S Z Z B B R T a y y f MXMXnX>XI.5XrXCX[.].XXXXw.z.v.f.h.",
"v.c.y.y..X`.DXCX3X3X6X7X>XjXjXhXe d j L R V M ;.( ( ' ` _ _ _ _ ' ' _ _ _ _ ' ] ] ] ^ ( m H H Z G w 7 8 h I U g MXjXgX<X,XtX4XrXCX^.~.XX.X.Xz.v.f.h.j.",
"c.t.y.i.`.'.CXG.8X6X*XiXsXMXMXP a I L M B B n ;.( ( ` _ _ _ _ _ ' ) ) ] ] ] ] ] ] ^ ^ *.b H Z V q 6 -   O p U vX;XpXK.*XuXrXrXAX_.'.`..Xy.e.x.l.j.h.l.",
"y.w.i.OX'._.8X9X5X*XdXsXsXP U K T L v M b 0 b | } ` _ _ _ _ _ ) ) ] ] ] ] ^ ] ] ^ ^ &.*.w G V L h     O O d vXnXaXT.I.7XrXrXAXCX'.`..Xy.r.x.l.j.h.l.x.",
"d.i.XX]._.1X0X7X>X*XgXgXP W K L T V B w { { } | [  .` _ _ ` ) ) ] ] ^ ^ ^ $ * * * * & =.9 M q j h y O O r jXnXnXkXdX7XrXrXAX_._.!.|.y.e.x.l.j.h.j.v.z.",
"a.XX'._.C.4XyX>XiXiXf I U W L v V G N ;.} }  . .[  .` ` ` ` ) ] ^ ^ ^ ^ $ * * * & & & =.6 8 6 y y y r t gXnXnX-XdX5X0XrXAX(.{.[.Q.w.t.c.l.n.h.j.v.c.d.",
"XX`._.1X4X7X>XkXpXt g p J v V G A A O.} }  . .~ ..[  .` ` ` ^ ^ ^ ^ $ $ * & & & & - -     O O O O @ t jXnXnX>XI.I.A.3XAXCX^.'.oX.Xe.c.l.l.h.j.l.x.t.d.",
"]._.1X8X5XfXkXjXd d a q M B G A D 4 +.[ [  .~ ~ X.o.[  ./ ( ^ ^ ^ ^ * & & & & - -     O O O O # + + pXgX<X,X%XI.Z.8XAXZX].~.XXi.e.z.v.f.j.j.l.c.c.p.a.",
"[.CX3X5XfXgXgXf p j q M n n m 2 ,.4 $.o.[ [ ~ [ +.$.#.| } ( ^ &.&.& & & & - -     O O O O # + + + T.P.P.dXtX6XF.F.AXZXFX].XXa.y.z.l.l.j.j.v.c.c.y.XX].",
"CX8X6X*XsXhXg p h q M N m O.| } +.#.4 #.+.o.o.#.F 8.8.m ;.*.&.&.&.& - - - - , O O O O # # # + + K.P.K.U.I.6X4XD.S.CXFXDXOXa.d.c.x.l.j.j.v.c.c.d.i.`.(.",
"F.5X>X-Xs p a Y M b b 2 +.O.| } | S F F 4 4 4 F F D D G w *.%.%.& - - - , , O O # @ y y T.T.K.K.U.Y.Y.A.4X0XD.N.{.DXDXa.p.d.c.x.f.j.h.v.x.c.d.i.].(.G.",
"5X>X-XgXd a J B b b +.#.+.O.| | :.S D 6.6.D D S n n B M 0 *.=.=.      O O O O @ @ @ sXsXpXP.U.U.I.5X6X0XrX8XN.{.[.DXa.p.y.z.c.l.j.h.l.x.z.t..X`.].CX9X",
">X<XgXd a c B b | O.4 F :.;.0 b n H D D D D G b ;.7 w 9 6 =.=.    O O @ # @ @ + X P.aX<X*XY.I.I.A.5X0X3XAXCX_.(.'.XXp.y.e.x.l.j.h.j.x.c.s.p.XX].CX0X7X",
"gXgXg j q b A 2 #.4 F S N b n V G n G Z V V B 9 =.=.8 8 6   O O O @ r r @ + X P.P.iX-X,XyX7X5XZ.Z.Z.G.CXZXFX[.!.|.d.s.z.x.l.j.h.j.v.c.d.d.a.'._.8XyXyX",
"jXd a M w b 1 4 2 S m n w q M V M M M V V V L 8 6 6 6 y y O O O # @ t aXsXP.L.L.dX*X>XtXuX4XA.M.M.B.{.CXFXFX~.|.w.s.c.c.l.n.h.j.v.x.e.w..X'._.1X7XfXaX",
"g a M b :.+.@.2 S m n M q h h q q q L J a J L a y y y e y @ # @ @ X iX;X-X*XdXY.I.Y.5X6XqX8XD.B.N.N.(.DXDXOXXXw.d.c.c.l.l.h.j.l.x.e.d.i.'.CX1X9X>XaXpX",
"a v G >.+.@.+.< b B M j i h i i h J K p y i g P g e d f d @ + + X K.iX<X,X:X%XI.I.E.Z.8X3X1XG.S.{.(.].].OXOXp.y.z.x.l.l.j.j.l.x.z.y.a.].[.C.0XlXfXr t ",
"v B S ,.$.#.S n M J a p p g p i p p d d y y d NXl xXMXMXhXT.P.P.K.P.fX>XuXyX5XZ.E.E.M.D.1XCXCX_.[.].OXXX.Xy.y.z.g.l.n.j.l.l.v.c.s.XX].DXCX4X7XkXgXd I ",
"w { #.$.#.m G v J K I P l P f g t r t jXsXsXjXxXxXnXnXnXgXP.P.dXdXL.dXlX6XtX4XZ.E.E.B.S._.VXFXDX].a.XX X Xe.c.v.l.n.j.f.v.v.z.y.i.`.'.AX0X5XiXsXs a L ",
"| X.$.#.m B q a P l t s xX;XjXxXgXpXgXgXaX<X,XaXaX>X-XkX-XdXY.&X*XY.I.E.F.0X0XF.D.N.^.{.[.FXDXa.a.i.w.e.e.x.v.l.n.j.l.v.v.c.t..XOX].(.8X6X&XaXf P 9 9 ",
"X.@.$.m G V a d s iXK.K.-XgXfXkX>X,X:XdXL.*X:XL.U.%XL.Y.&XtXtXuXtXW.E.M.D.1XAX8X{.^.^.'.].].a.p.p.p.t.c.z.v.f.j.h.n.v.k.c.s.w.a.FX_.D.4X&X<Xd P L 0 | ",
"9.#.S H v a g s ;XiXL.%X:X>XY.Y.:XwXuX%Xm.6XuX%XI.%XI.I.A.6X4XqXqXF.M.B.S._.ZXCXFX'.'.].a.a.p.p.s.t.c.c.v.f.j.h.j.v.c.c.y.w.a.].CXF.A.7XfXxXP J w | O.",
"$.F A C K g r iX<X%X:XtXtXtX6X5X6X5XqXqXqXwXwXqX6XqX4XA.4XZ.Z.8XrX3XG.S.}.CXFXFXDXOXOXa.a.p.p.s.c.z.x.v.v.j.h.j.f.x.c.e..X.X'.{.F.A.7X<XpXd I M A O.@.",
"+.H 5.K f vXaX*XyX5XA.4X4X4XrX3XF.F.8XF.rX3X8X3XeXeXrX3X3XD.B.G.AXAXCXCX_.DXDXDXa.a.a.i.w.w.t.c.c.v.v.v.f.j.j.l.v.c.t. X.X`.^.G.9X7X>XnXf a M b D 3 @.",
"n B J U jX;X>X7X6XF.F.8X8X2X2X2X1X1XV.S.AX1XB.1XeXrXrXrXAX1XS.}._.VXFXDX].].a.a.p.p.d.y. Xe.x.x.l.l.v.f.j.j.l.v.c.s.d..XQ.[.8X0X5X*XaXxXI q b m o.@.2 ",
"Z T g xX-X&X6X8X2XC.1X1X2XZXVX(.).+XVX_.CXAX1X2XrX3X1X1XAXAXZX_.^.'.DX`.Q.XXa.p.p.p.d.e.e.z.v.v.l.l.j.j.j.l.v.z.t.d..XQ.(.AXrX7X%X-Xt y Y N :.+.o.2 m ",
"Y U 5 ;X,XtX8X1X2X1XVX).VX/.].`.'.DXZXC.G.AX2XrXrXAXS.S._.ZXZXCX^.!.].XX|.|.XXp.d.d.d.t.z.x.g.f.j.j.j.j.l.v.z.t.p.|.~.^._.3XuXuX<Xt e j G m #.$.o.< 0 ",
"p f mX=XwXrX1XZX+X+X).@Xq.Q.q.].'.(.}.1X3X1XF.0X8X8XG.}.{.CXSXFX[.'.a.XX.X.Xw.s.t.c.c.c.x.f.j.h.h.j.f.l.v.x.e.w.a.`.]._.D.0X7X<XjXd K M H +.@.,.| b c ",
"l nX,XqX3XV.[.@X@X0.0.$Xa.i.@X)._.CXG.8X1X3X1X1XD.G.S._.[.DXFXDXDXa.i..XXXw.z.c.z.x.c.v.l.j.h.h.j.l.l.v.c.e. Xi.DXFXZXG.A.6XdX;Xt J q b 8.,.@.4 N V L "
};
