/* XPM */
static const char *d2FsbA__[] = {
/* columns rows colors chars-per-pixel */
"75 75 256 2 ",
"   c #2A3355",
".  c #530B47",
"X  c #6D0C4A",
"o  c #57345C",
"O  c #6D2952",
"+  c #074859",
"@  c #0D4C5D",
"#  c #17445B",
"$  c #134D5E",
"%  c #0C505F",
"&  c #13505E",
"*  c #1A505F",
"=  c #304D5D",
"-  c #0C4C61",
";  c #144F61",
":  c #1A4A61",
">  c #0D5261",
",  c #165161",
"<  c #195262",
"1  c #1C5B67",
"2  c #265869",
"3  c #2F586D",
"4  c #385C77",
"5  c #1C666E",
"6  c #23636C",
"7  c #38666B",
"8  c #266A72",
"9  c #376576",
"0  c #2A7578",
"q  c #2E7B7D",
"w  c #327C7E",
"e  c #387978",
"r  c #4F516B",
"t  c #435D7C",
"y  c #684F64",
"u  c #476779",
"i  c #516E73",
"p  c #6A7577",
"a  c #E62D2F",
"s  c #FE3B2B",
"d  c #EF3434",
"f  c #FB3E34",
"g  c #FB4436",
"h  c #FA4F34",
"j  c #F86C38",
"k  c #FD7738",
"l  c #FD7B39",
"z  c #910B4E",
"x  c #AD1052",
"c  c #93315F",
"v  c #B2295A",
"b  c #C31C4D",
"n  c #CF2957",
"m  c #ED354C",
"M  c #F6385C",
"N  c #D73463",
"B  c #E73963",
"V  c #F53D63",
"C  c #FA3B63",
"Z  c #9F4F57",
"A  c #8F5271",
"S  c #AE5371",
"D  c #937378",
"F  c #AF7171",
"G  c #D35552",
"H  c #FA4947",
"J  c #F3564B",
"K  c #F84957",
"L  c #FB5259",
"P  c #D56F54",
"I  c #FA7A44",
"U  c #F36E50",
"Y  c #D24F70",
"T  c #F64265",
"R  c #FB4265",
"E  c #F9496B",
"W  c #FA5968",
"Q  c #EE4E71",
"!  c #FA5474",
"~  c #F75877",
"^  c #FB5A75",
"/  c #FC5C7B",
"(  c #D16F70",
")  c #FA6666",
"_  c #F0796D",
"`  c #FC637C",
"'  c #2C867D",
"]  c #36867E",
"[  c #59896C",
"{  c #6C8872",
"}  c #FC8535",
"|  c #F68D36",
" . c #FC843A",
".. c #FC8B3B",
"X. c #FE9936",
"o. c #FC943B",
"O. c #FD9A3B",
"+. c #A3975B",
"@. c #BDB25C",
"#. c #969277",
"$. c #BA9967",
"%. c #AD8A7B",
"&. c #AC9B75",
"*. c #A9977A",
"=. c #A59B7D",
"-. c #B39170",
";. c #9BB17A",
":. c #B6A768",
">. c #ABB86B",
",. c #B5B666",
"<. c #A7A578",
"1. c #B1A472",
"2. c #A6B575",
"3. c #C9925B",
"4. c #F88C4C",
"5. c #FD9647",
"6. c #FC895C",
"7. c #C5AA59",
"8. c #C4B557",
"9. c #D6B055",
"0. c #C98C6C",
"q. c #FC8B63",
"w. c #F59271",
"e. c #C3AD68",
"r. c #FBA26B",
"t. c #B7CA5C",
"y. c #AEC369",
"u. c #C8C95A",
"i. c #3E5D87",
"p. c #2D7981",
"a. c #337E80",
"s. c #3A7983",
"d. c #4A5C84",
"f. c #476784",
"g. c #4C6384",
"h. c #54658A",
"j. c #57678A",
"k. c #477786",
"l. c #587491",
"z. c #63688B",
"x. c #69758C",
"c. c #747B88",
"v. c #676895",
"b. c #6C6995",
"n. c #746B98",
"m. c #757995",
"M. c #525CAB",
"N. c #597CAA",
"B. c #6C70AD",
"V. c #7B78AA",
"C. c #756DBD",
"Z. c #7A69B9",
"A. c #7B6CBB",
"S. c #7877B6",
"D. c #7A72BB",
"F. c #6F5ECD",
"G. c #675BD6",
"H. c #6A5DD3",
"J. c #6E6BC1",
"K. c #6D62CC",
"L. c #7465C5",
"P. c #746BC3",
"I. c #7968C7",
"U. c #7164CA",
"Y. c #706BCE",
"T. c #A35B84",
"R. c #916F8D",
"E. c #8A7A9C",
"W. c #957A99",
"Q. c #AD758C",
"!. c #896CAB",
"~. c #8779A7",
"^. c #9478A6",
"/. c #9273AA",
"(. c #8469B5",
"). c #8276B4",
"_. c #AA7AAA",
"`. c #D15A84",
"'. c #FA5D81",
"]. c #D0728E",
"[. c #EF6C89",
"{. c #FC6383",
"}. c #F86686",
"|. c #FC6B8C",
" X c #FC6E92",
".X c #FC6F98",
"XX c #E87697",
"oX c #FD7295",
"OX c #FD7599",
"+X c #FB7A9A",
"@X c #D77DA2",
"#X c #F37DA1",
"$X c #8869C6",
"%X c #2C8582",
"&X c #348282",
"*X c #3B8984",
"=X c #3B9786",
"-X c #3CA58A",
";X c #3EAA91",
":X c #458688",
">X c #44998B",
",X c #519494",
"<X c #6E8D91",
"1X c #43A48D",
"2X c #45A78C",
"3X c #51A98F",
"4X c #4AA692",
"5X c #56A796",
"6X c #56B79A",
"7X c #6EA994",
"8X c #5A8DA5",
"9X c #7087AC",
"0X c #7A85AA",
"qX c #5BB7A3",
"wX c #71B1A4",
"eX c #67C9AA",
"rX c #63CFAB",
"tX c #6ECEAD",
"yX c #6C83C4",
"uX c #9B888C",
"iX c #9B8C8C",
"pX c #879189",
"aX c #9D9B84",
"sX c #9B938B",
"dX c #98978A",
"fX c #8C859C",
"gX c #888899",
"hX c #8C8B9B",
"jX c #968697",
"kX c #938C94",
"lX c #8B9597",
"zX c #939392",
"xX c #969695",
"cX c #A68886",
"vX c #A48C85",
"bX c #A39484",
"nX c #A49785",
"mX c #AF8C91",
"MX c #8FAF8F",
"NX c #99A685",
"BX c #A5A789",
"VX c #8685A5",
"CX c #8D8BA8",
"ZX c #B18EA7",
"AX c #8BAFAF",
"SX c #C78F90",
"DX c #ED8F92",
"FX c #D1A899",
"GX c #FBAB8F",
"HX c #D08EAC",
"JX c #E98EAB",
"KX c #FB88A7",
"LX c #FC97B6",
"PX c #FAB0AC",
"IX c #87C297",
"UX c #FBACCA",
/* pixels */
"bXdXkXfXVXVXV.V.V.Z.S.S.S.0X0XVXfXhXfXhXhXfXfXfXfXfX^./.~.VXVX~.).D.D.Z.Z.C.L.L.U.U.U.F.H.G.G.H.K.K.L.P.D.D.D.VXVXVXCXhXxXdXNXNX<.<.:.,.8.8.7.,.:.<.<.",
"cXkXhXE.VX~.V.S.Z.Z.S.S.V.0XVXVXgXfXW.hXhXW.W.fXhXE.^.~.~.~.~.).(.A.D.Z.Z.P.L.U.F.F.H.H.G.G.H.K.U.L.P.D.D.A.).VXVX^.W.zXdXdXbX<.2.>.y.t.t.t.y.>.2.<.NX",
"zXjXfX~.~.(.(.C.Z.C.S.S.V.~.~.hXfXhXkXkXjXkXfXhXfXW.^.~.~.!.).S.D.A.D.P.P.U.K.K.F.H.G.G.H.H.K.K.L.P.D.D.(.!./.VX5XwXjXuXQ.F %.2.2.>.y.t.t.t.>.-.<.*.Q.",
"jXfX!.!.V.Z.Z.C.C.9X9XV.VXVXE.fXkXlXzXkXjXjXkXhXfXW.^.~.~.).).D.D.D.P.P.L.K.K.K.H.G.G.H.K.K.K.L.S.D.D.B.V.!.^.,X-XwXxXQ.vX*.<.<.>.y.t.t.@.:.y.&.=.aXsX",
"fX~.!.V.S.Z.Z.J.C.9X0X~.VXgXW.lXjXzXzXzXuXuXW.W.hXE.^.~.~.).D.A.A.P.P.L.U.K.F.H.G.G.H.K.K.U.N.P.8X9XS.*XV./.<X-X>X6XxXQ.NXNX<.0.,.,.8.t.3.:.2.;.NXiXxX",
"fX~.!.S.C.L.L.J.S.V.~.VXfXhXkXkXuXzXzXzXzXjXkXjXfXW.^.~.!.).).A.C.P.L.L.U.F.H.G.H.F.U.N.J.I.,XS.8X9XN.k.~.<X2X=X*X1XAXcXNX<.-.$.y.@.@.y.:.1.%.NXNXkXfX",
"~.!.(.Z.Z.L.J.C.S.0XVXgXlXkXkXuXzXsXdXuXzXkXjXkXfXE.~.~.V.S.D.A.C.P.P.L.U.H.H.K.F.U.I.8X:X$X:X8XN.l.l.:Xa.=X2X*X>X*XeXnX<.1.$.>.y.t.,.>.y.&.=.NXdXlXfX",
"~.!.(.C.C.L.C.S.~.VXfXlXlXzXuXiXsXsXdXsXdXzXjXQ.Q.Q.~.~._.Q./.C.A.P.P.U.K.K.H.8X8XU.I.9X' S.l.:Xv.k.:X:Xx.>X2X&X>X*XqXMX<.2.>.,.@.,.3.>.2.;.NXMXMXlXfX",
"V.S.S.C.P.C.S.0XVXfXfXzXzXiXdXsXbXbXbXNXsXcXkX( M C ].].R f K C.P.J.N.U.K.K.F.S.-X8XI.S.' l.l.6 V.0 k.4 k.2X>Xw >X&X5XtXNX2.>.3.3.:.1.<.*.nXsXMXlXfX~.",
").S.C.C.C.S.0XVXfXhXjXiXsXsXbXbXbXbXbXbXsXiXkXQ.T C K H m s S P.C.U.N.,XK.F.U.L.,X-XB.$Xk.6 B.2 l.4 9 9 =X2X=Xw >Xa.,XrXIX>.>.:.:.>.2.*.nXaXsXMXlXgX~.",
"V.S.S.C.S.V.~.fXlXzXsXvXvXbX=.=.=.=.=.nXaXsXsXkXQ.T f g g F J.D.C.L.U.,X>XJ.L.P.N.-X,X(.n.@ l.3 4 z.u :X2X1X=Xq >Xa.*XtXeX;.$.>.>.2.2.<.NXdXzXlXhXE.VX",
"V.9XS.S.(.~.fXkXzXdXsXbX%.*.=.<.<.=.*.*.bXvXsXiXkX( s f f G Q.A.L.L.U.B.-X>XC.C.C.,X] l.(.4 2 l.j.g.3 =X2X1X=Xq >X&X*XeXeXwX3.:.y.2.2.bXbXNXzXlXhX~.~.",
"0X9XS.V.~.E.W.uXiXsXbX*.*.*.*.<.<.*.<.=.nXcXbXsXxXP s H g s s Y P.P.P.I.8X-X:XZ.A.S.a.q V.V.< j.n.b.<X5X>X2X=Xq >X&Xa.eXeXeXNX:.2.;.NXnXsXiXjXlXgX~.VX",
"V.S.).~.E.jXkXiXcXbXaX=.<.<.*.<.<.*.*.nXaXaXdXzXcXf ) LX_.G s J C.P.C.A.S.&Xq l.).).B.q s.!.v.b.n.k.-X] =X2X*Xq >X&Xw qXtXeXtX2.2.;.NXNXdXdXkXhXgXVX0X",
"0X0X~.fXjXW.sXdXbXnX=.<.<.<.&.&.&.&.mXUXJXSXJXZX( H LXHX~.~.R.!.B.A.C.S.S.N.w q v.).V.j.1 t b.b.b.>X1X2X1X2X=X6 *X*Xw 4XeXeXeXIX2.;.NXNXdXdXzXlXhXVXVX",
"0XVXfXkXuXuXsXbXvX=.*.*.&.&.&.&.&.<.FXUXKXLXUXLXJ W KX_.!.VXS.D.B.,X9X).).).l.' w n.b.n.4 4 n.z.,X1X1X1X1X1X>X8 ] &X6 >XeXeXeXtXNX<.aXNXNXzXkXlXlXlXVX",
"gXlXlXzXiXsXaXbX*.*.*.*.&.&.<.<.&.mXJXLX+XUXUXLXH ^ ZXgX^.~.VX0X).8X-X9X!.!.v.f.5 t n.n.d.4 b.:X1X1X2X1X1X1X>Xq *X6 8 6XtXeXeXrXMX=.bXcXdXuXzXlXkXfXgX",
"kXkXzXzXiXsXbXbX=.*.%.&.&.&.<.<.&.SXKX^ L +XLX` s mXlXZXjXVXVXVX0X~.pX-X8XV.g.n.9 g.n.b.b.t k.2X1X2X6X3X=X2X=Xw *X0 q 4XtXeXeXMXNX*.NXaXNXdXzXzXkXjXhX",
"jXuXdXsXsXvXvXnX<.*.%.*.<.&.&.&.<.*.mX) s ) LX}.L ].].{.}.jXVX0X0X`.U { ;X:Xj.n.m.z.b.v.b.g.=X2X>X=X5X6X=X=X=Xq :X&Xq 4XrXeXMXNXtXcXNXaXNXNXsXiXzXzXzX",
"uXiXuXsXsXbXbX*.=.=.*.*.*.*.<.*.<.=.mXLX) +XUXUX{./ './ ^ SX9X&XF C J 4.4X' j.n.z.v.j.j.j.k.>X2X&X=XzXsX3X0 w w *X&Xq 5XMX=.MXeXeXMX;.NXNXaXdXdXdXsXkX",
"iXiXcXbXbXbXnX=.=.=.*.%.*.*.<.<.aX=.FXLXLXLX X/ W H K ^ ` ZX:Xw ( E K l zXa.j.n.v.j.j.g.f.w =X>Xw =XxXcXMX] 1 8 *X&X*XMXBXtXrX6XeXMX;.;.NXnXbXaXnXsXsX",
"cXsXsXbXbXbXbXbXnX=.*.*.*.*.=.aXnXaXnXLXKXLX+X! ^ L L ` ].m.q e FXGXV K SXl.j.b.v.t 4 3 e a.&X=Xw *X7XNXNX>X, $ *X&Xw >X4X&X=X6XtXNX&.<.<.;.=.=.NXiXcX",
"cXvXsXvXvXbXvXcXbXcXvXbXvXvXnXaXaXdXdXmXmXJX|.! ` {./ Q c.s.k.c.%.5.Y Y xX<Xg.b.b.4 < 9 a.w a.a.a.&X=X3X3X=X< < >X0 1 $ # 6 =X1XqXBX&.2.&.&.<.*.bXiXcX",
"sXsXbXbXnXvXsXiXcX( vXvXcXnXsXdXdXsXdXzXzXuX`.! / W V A %Xw c.c.F ..D pXzXpXd.z.b.2 4 f.q a.a.a.a.w *X-X2X=X$ 6 *X; , $ 8 =X=X1X2XMX2.2.&.&.<.*.bXvXcX",
"aXbXsXiXsXsXiXvXvXiXsXnX].].sXsXsXzXzXzXxXuXW.].H g ( <X&Xq <Xc.F 4.c.DX0.g.t j.j.4 h.9 q a.a.a.0 w a.&X>X=X$ 0 8 $ ; 8 =X] 1X1X-XNXe.1.>.-.&.=.aXsXaX",
"pXpXmXnXnXvXuXuXiXiXsXsXnXmXxXkXkXmXuXkX7X7XlXG f ( uXpX&Xc.cXjXP 3.c.D ( j.< 4 h.h.h.9 w a.a.&Xq 0 &Xw &Xw $ e 2 $ 8 =X] =X2X1X2X0.f E 0.&.&.=.aXaXnX",
"dXe t i 7 2 2 2 3 u p pXzXxXkXkXW.SXQ.R.<X-X-XG Y m.R.<X&XQ.Q.0...#.x.e -.j., 2 g.h.j.4 q a.w l.k.8 w w a.0 < q 2 0 &X] ] 2X=X=X4X0.s M ~ 2.&.=.bXvXbX",
"uX0 8 + 2 u , & ; @ @ , 3 i <XjXjXW.W.R.T.hX,XD D %Xa.s.:XR.( | #.c.a.p 0.c.2 2 h.h.h.d.8 w l.n.l.0 0 &X&X0 , 9 q &Xw 8 >X=Xq =X5Xy.U f K _ Q Y %.bXcX",
"sX2 6 0 3 x.3 & < , < , $ @ < 9 n.^.Q.SXFXSXjXF D *Xp.D h j 3.i p.c.D ( #.c.g.g.j.j.j.h.3 f.n.b.b.a.8 a.a.9 c.JXgX0 6 0 &X>X:Xl.F U J f g M C V %.bXvX",
"sX7 @ 1 8 1 $ , < 3 < < < < ; = G S W.W.].r.FXw.BXBX<XP h ( HXZXjXQ.q.D x.z.j.j.g.g.g.h.g.z.b.b.b.0 8 0 0 @X+XLXJXu 0 &Xw :X<XG s s s g f K ( cXvXnXdX",
"cX7 $ ; , 2 2 & t /.2 & < < ; 7 j y 2 ^.w.4.GX5.5.r.mX0.SXLX+X X|.) W z.d.d.g.l.l.j.j.j.g.j.b.b.b.3 8 1 1 `. X'. XQ.s.w &Xq s.S J 0._ g H DXnXaXbXdXsX",
"jXi @ < < $ < , < 4 < , $ & < ; = = = D mXQ.Y 5.X.r.DXpXJX{.~ ) _ E E S m.ZXHXJXJXXXKXHXd.d.b.b.n.4 0 , i +X'.T }.oXR.%Xp.p.a.s.&.>.FXH W BXnXvXsXsXiX",
"jXx.$ < , , & , , $ , , 4 d., < > . ( r ; R.mX4.k o._ ].oX^ |.oX|.E E JXKXoX|. X XoX X|.T.r b.b.b.3 0 1 3 ]. XoXoXXXf.8 e [ ' ] 3.$.DXH |.SXSXJXSXiXuX",
"fXm.< , , , , , , < , < Z.$X2 & ; y ( # , 2 0.5...o.| w.` / +XOX{.M +XKX/ |.oXoX XOX~ ! S r b.b.j.3 q 2 @ u Q.XXOXR.[ +.8.>.q { 3.1.e.H ^ {.KX|.` jXW.",
"~.^.4 $ < , , , , , < & 2 4 < , + p y + $ ; A GX5... ._ ^ ` KXoX^ E KX` oXoXoXoXoX|.V '.A t v.j.g.6 0 & 4 j.3 2 4 { 9.4.$.e x.].( -.0.L }./ {./ ` ].fX",
"VX^.v.$ < , , , , , , , & & , 2 i ( Z y T.].+Xw.5.} l } U }.KX XE {.+X}.OXoXoXoX{.E V +Xy g.j.j.g.1 1 4 h.h.4 - i u.7.D 0 s.].^ {.SXJ ) +X^ L L ! ].E.",
"VX~.).4 $ < , , , , , , , < @ R./ R E ! |.|.|.I }  .k | J }.XX|.M [.OX XoXoX X{.! V ! `.o j.j.j.4 $ 4 j.f.j.4 , i { e 8 q k.].^ ^ {.^ ^ / W s f oXHXVX",
"~.).).B., , < , , < < , $ , > u }.V T E {. XOX_ } 4.r.k J _ XX{.N `.OX X|.|./ E M B Y O . j.j.g.2 t j.g.f.j.g.< , > 5 ] 7X&XR.^ H H W ^ ` ^ ! ^ KXLX_.",
").).C.I.M.& & , , $ $ < 1 0 w 0 @XE ! T E ! / |._ I GXr.k ( [.^ b ].+X|.}.^ E B [.XXJX@Xc r j.4 9 k.g.f.g.h.h.2 $ * 5 [ ;.>XS / W L ^ ^ / / / / / Q.).",
").A.P.U.K.M.2 < , 1 :Xk.6 &X&Xq ZXE T ~ ^ |.oXoXOXI 4.w.4.( ~ ! x ].oX~ E M Y #X+X{./ |.KX].o 9 s.' s.f.j.j.h.2 1 w 0 %X1X] c Q / {.! C ( ].~ ( ( ~.S.",
"C.P.U.K.H.F.].F B.S.k.$ , < 2 % W.'.M E ~ / {.|.+XKX_ _ ( _ E T x [.^ T C N [.{.T E / |.|.KXT.2 &Xa.w k.s.j.g.8 q 6 1 { #.i Q.Q.( ! E Y kXhXW.~.~.).A.",
"P.U.K.H.H.F.(.E.v.4 $ , , , < + c.|.M M M E ~ / E Q ( ( ( _ E B z Y E R N Y ` T / oXOXoXoX X+Xo 5 &Xa.a.f.f.f.2 , 2 u c.n.n.b.E.mX'.oXxXgXVXVX).).A.A.",
"U.K.H.H.H.U.P.3 + & , , , < < + j.LXKX+X}.V V E E V R Q ( P ) B z v E V v E ! {.OXoXoXoXoX XOXY   8 &Xa.a.a.0 2 z.n.n.b.z.v.b.W.}.|.OXXXXX_.VX!.D.D.P.",
"U.Y.Y.Y.P.S.S.0X2 $ < , , < @ E.JX+X+X+XKX#XQ M C V V C ~ ( P n X v R n n ^ / |.|.|.|.oXoXoXoXoXY   8 a.a.w 1 4 v.v.b.z.v.b.n.[./ / |.oX X+X~.).A.P.L.",
"J.qXqX6X6X6X4X4X>X< $ < < + m.KX X X X X|.oXKX`.B R R R V `.P G X z x x B / ^ ! / |.oXOXOX X` E ^ S # q a.2 , 4 v.v.j.b.n.v.Q.` / H H }.{.XX).D.Z.L.U.",
"G.8X2X8X8X3X6X5X2X>X< $ + i KX XoXoX|.|.|.}./ |.`.n N R n v ( U z X z x T T E ^ / '.'.'.! E E ! / }.r %X6 < , 4 j.j.v.n.b.b.R.` ` K g ! }._.A.I.I.U.K.",
"H.C.-X,X8X1X4X9X,X2X>X1 p KX XoXoXoXoXoXoXoX X~ E B x x x x S _ n X . v R V C C V V K J J L E c 4 t 9 8 $ < & 4 h.j.j.z.b.b.n.{./ / / / }./.B.B.B.n.n.",
"U.I.B.4X2X2X-X-X1X-X,X]. XoXOXoXoX|.|.{.{./ {.{.^ E R n z X . S N X . B R V C R V W l k l l j o + 1 1 ; < , < g.h.h.j.z.v.j.l.].{./ ^ ^ S b.b.b.b.b.C.",
"L.D.9XS.VXVXCX5X1X-XuXC T ^ / ~ ^ ! E T T B B B V V R n z X X X x x v E V V V V C ) 5.l l k l j o > , , < & 3 j.j.j.h.h.g.g.x.l.r r D T.b.v.b.n.b.n.K.",
"C.).4X,X9XVXlX5X-X3X].C T T E E E B `.XXXXXX[.[.~ Q N x x x z X v C R {.'.M T E E ) 5.O.o. .k l J = , , < < & 3 j.j.g.4 g.4 2 $ @ i.v.v.v.v.j.j.b.C.U.",
"D.).5X-X-X;X4X4X=X:XQ.M M V R V N @XKX|.{.{.{.'.^ E V V B N N B R C T ` #XQ V E ! W 4.O.O.O.o.k l Z @ < , , , & 3 3 3 g.4 3 $ , t v.b.b.n.z.j.z.Z.U.P.",
"S.(.9X5X<XlXxXmX<X-X<X].].B V n JXKX/ |. XoXoX X{.T V ! E R R C ! ~ E |.XXT.E M C R 6.O.O.o.O...l U = % : : : @ , $ 3 2 4 4 4 g.z.b.n.b.n.n.z.B.K.P.C.",
").).CX6X<XkXzXlX7X2X>Xu 6 z.Q.JXKX/ oXoXoX X|.|.! T |.^ E T V V / |./ oX#XO `.Q Q Y P 5.o.o.O.o.k k O y P P G c # , ; , 2 < 2 j.j.j.z.z.j.g.M.K.P.C.D.",
"~.~.fX7X6X6XwXMXwX4X6 + @ @ + fX+X|.oXoXoXoX}.T T DXOX^ ` / T T |. X|.+X].. O S ( c c 4.O.o.o.o.k k j l O.O.} l Z : < & @ & < t g.g.u 4 d.M.K.C.C.D.S.",
"~.CXlX<XxXBXdX3X1Xq < w 0 , + ZX+XoX X|.OX{.E ~ [.LX{.|.|.|.! ^ OXoX.X+XG G I 4.6.q._ 6.O.O.o...k k k ..O.O...j k D j.i 7 < $ , < d.M.M.H.U.V.n.Z.).~.",
"VXfXxX3X1X4X-X1X*X, , 6 >X4X> ZX+XoX|. X|.^ {.|.[.LX}. XoXoX/ |.oX X) I k l k l  .6.q.q.5.X... .k k k ..O.o.j k k D b.n.n.c.3 ; , i.G.H.B.B.A.S.D.!.~.",
"W.uXsXpX-X1X2X=X< ; , $ $ ] =XW.+X X|.}.^ {. X{.S UX+X XoX|.{.oX|.W k l k l o.O.X.5.q.q.6.5.I j l l l o.O.l  . .k D v.b.n.c.2 , < + 9 P.b.n.B.V.).~.W.",
"uXsXdXbX<X-X=X1 $ < < , < $ 5 <X+X}.'.` _ w._ F . HXLX XoX|. XOX'.J l k l  ...o.o.4.q.q._ q.W U 6.I l .. .O.o.l I R.b.n.z.2 @ < , 8 e 2 v.n.b.V.~.VXjX",
"sXsX*.*.-.;.8 $ 1 , $ , , < $ 9 XX/ _ Z O X O . . O HXOX|.|.oX|.T L k l O.O...} I 6.q.E ) _ ) q.W J I } .. .k k P n.b.<X>X0 6 3 2 w ; + 2 n.V.~.VXjXkX",
"bXbX*.&.:.+.* $ 6 *X8 $ < , - , [._ O . O y o . . # 2 XX{.{.OX'.C N U 5.o.o.5... .U W V ) W U K M K U 6.q.w.w.6.SX5X6X6X6X6X6X4Xw $ < d., j./.~.fXxXxX",
"bX%.&.1.e.i - < ; 2 w & , 2 7 { _ Z . O 5XtX:X# , < + A |.^ |.Q C N r 0.w.q.6.6.q.) C R R T n d J w.GXPXPXPXPXPXFX;X3X5XJ.qX6X6X8 , ; f.9 2 u fXkXcXvX",
"*.&.1.:.$.2 ; $ $ @ $ * , 2 p &.0.O O 1.{ >X2 , < < > y }.E ^ T V Q = , p #.-.0.q.) V V B x b m W r.GXGXGXr.r.r.w.7X8X8X*X4XeX*X# 1 1 1 6 6 u jXsXvXcX",
"<.1.>.e.+.- < 6 *X] & & < ; @ $ 7 o = 7 2 $ $ , , < > r ~ E T V E Y 2 & @ + 6 0.q._ R n x x b d K _ 6.6.6.q.w.w.GXGX_.H.N.1 *X6X6 4 2 ; 2 E.jXuXvX%.%.",
"1.:.e.u.7 - < 5XeX>X$ & , < < , ; , , , 6 0 1 , , < $ i A E C E Q r > < $ 7 w.6.4.U N b a b b d h U 4.5.5.5.r.r.5.X.( G.yX] # 6 1 4 < 2 E.jXiXnXbX*.<.",
"$.3.+.7 , < , , ; $ , , , , , , < , , 0 &X&X&X1 , $ 7 pX2 A Y S r , < - 1 0.5.o.O.U m f g g Q H h  . .l ..O.X.X.X...U 9XqXeX0 + $ , 4 0XjXuXcXcX*.&.1.",
"7.9.{ - ; < , , , < , , , , , < , 2 7 %X&X&Xq < < @ p pX> , 2 , > < - 3 3.O.O.O...E m h j J ) _ g h O.o. .l  . .o.} P qXrXtXeX*X] <X^.jXkXuXcX*.<.-.$.",
"7.9.8.+.i $ , < , , < < , , , < $ 7 i 1 6 2 < ; , 2 Q.i @ < & < < & < 3.X.o. .l  .K J k o.I 6.4.I g  .O.O.O.o.o. .k F %X>X5XeXtXAXCXwXkXuXdX*.<.<.$.3.",
"u.8.e.,.,.{ < & < < < , , , , < @ i 7 @ $ $ , < @ i R.< , < < < < - y O.l k  .o...T I  .O. .o.O.o.g j O.O.o.o...k P <X8 =X*X*X>X5X1X<XiXvXaX<.1.$.3.7.",
"8.,.,.>.<.&.D 3 @ < < , , , , , , i < , , , , , $ gXx.@ < < , , , , = I X.O.O.o.k K U O.O. .o.O.O.U h l } } l I ( <X-X2X2X2X1X=X=X,XuXdXcX*.<.1.,.7.8.",
"7.,.y.2.=.NXcXuXi ; $ , < < < & 2 t $ < , , < @ i xX9 $ < < , , , < > r P I I I U Q.HX5.O. ...O.X.ZX/.( ( F D <X,X>X1X1X1X1X1X-X5XkXsXNX=.&.1.:.,.t.8.",
":.:.<.<.=.dXsXkXxXc.9 , $ & , , 2 < , < , < $ 3 lXgX< , , , , , , , < , ; = r n.).S.D.w.X. . .O.O._.G.H.G.N.-X-X-X1X1XwX2X-X1X<XuXiXvX<.<.$.:.:.7.8.@.",
">.2.&.NXdXiXkXjXhXfXfXm.u 2 < $ @ $ , , , $ < <XCXx.$ < < < < < , $ $ & < 4 B.S.S.S.P.SXX. . .o.5.$XH.F.H.H.C.8X4X2X-X5X0X7XlXjXuXsX%.%.1.:.e.7.7.@.:.",
"1.;.=.dXdXzXjXfXgXVXVXVXVX~.m.z.u 3 2 < < 2 m.hXhX3 @ & & $ @ $ & 2 9 j.n.(.).D.D.D.J._. .j j k w.H.F.F.K.U.L.P.S.0X0X0XCXjXxXxXdX%.%.&.,.:.8.8.7.$.$.",
"&.=.NXMXlXhXfXVX0X0X~.0XV.!.V.)./.^.E.m.<XfXW.hXm.3 4 9 9 f.l.l.m.~.).).(.(.A.D.A.P.P.I.w.k k 6.$XG.F.K.U.L.Z.A.).(.~.^.W.kXiXdXbX*.2.1.,.7.8.t.3.:.1.",
";.NXdXlXhXE.~.0X0XV.V.9XS.S.V.~.~.VX^.jXhXhXfXfXW.fX^.^.^.CXCXCXVX).D.A.).A.P.P.L.U.L.K.I.].].$XG.K.K.U.P.Z.Z.D.VXVXVXW.W.kXcXaX%.<.$.:.t.t.8.@.:.>.<."
};
