/* XPM */
static const char *d2FsbCUyODElMjk_[] = {
/* columns rows colors chars-per-pixel */
"75 75 256 2 ",
"   c #53233C",
".  c #695E34",
"X  c #113858",
"o  c #333456",
"O  c #383569",
"+  c #590846",
"@  c #6C0849",
"#  c #4E3651",
"$  c #6C335F",
"%  c #493A6C",
"&  c #0A4B5C",
"*  c #144D5E",
"=  c #19495C",
"-  c #0A515E",
";  c #17515E",
":  c #3C4F4C",
">  c #28475B",
",  c #384758",
"<  c #26525B",
"1  c #375658",
"2  c #2E6650",
"3  c #184D61",
"4  c #0C5063",
"5  c #165161",
"6  c #195262",
"7  c #1C5B67",
"8  c #264B63",
"9  c #265668",
"0  c #355369",
"q  c #375B75",
"w  c #1C676D",
"e  c #24656C",
"r  c #36686B",
"t  c #266B72",
"y  c #386876",
"u  c #2B7679",
"i  c #377578",
"p  c #327C7D",
"a  c #4E4C52",
"s  c #57575A",
"d  c #6E5657",
"f  c #516953",
"g  c #726D53",
"h  c #484967",
"j  c #495968",
"k  c #575867",
"l  c #4F4771",
"z  c #56497A",
"x  c #475B78",
"c  c #585977",
"v  c #685968",
"b  c #71536D",
"n  c #675878",
"m  c #50706E",
"M  c #45627B",
"N  c #5A6576",
"B  c #726E6C",
"V  c #696779",
"C  c #766979",
"Z  c #D82B3D",
"A  c #FB3D2F",
"S  c #947939",
"D  c #FC4436",
"F  c #F44C34",
"G  c #F96C38",
"H  c #FC7738",
"J  c #FD7C3A",
"K  c #931350",
"L  c #AF1252",
"P  c #A2345F",
"I  c #D0275A",
"U  c #F03758",
"Y  c #CB3B70",
"T  c #EB3963",
"R  c #F53D63",
"E  c #FB3B63",
"W  c #8F4F53",
"Q  c #AC4F51",
"!  c #897053",
"~  c #B16B54",
"^  c #92556D",
"/  c #AF546E",
"(  c #8C7071",
")  c #AE706F",
"_  c #CD514F",
"`  c #F54C4F",
"'  c #FC5458",
"]  c #D36D51",
"[  c #FA7A44",
"{  c #F37150",
"}  c #D14F70",
"|  c #FC4265",
" . c #F84869",
".. c #F95667",
"X. c #EE4D70",
"o. c #FA5674",
"O. c #FC5D7B",
"+. c #CD6C6F",
"@. c #F96664",
"#. c #F36F6F",
"$. c #FC637C",
"%. c #36837D",
"&. c #34887C",
"*. c #4A8877",
"=. c #6D8D61",
"-. c #6E8870",
";. c #D1843F",
":. c #FC8839",
">. c #FC9639",
",. c #FD9A3B",
"<. c #8F8C51",
"1. c #A68655",
"2. c #BAAF5A",
"3. c #928A73",
"4. c #B4906D",
"5. c #B89868",
"6. c #AA8A7A",
"7. c #AC9C75",
"8. c #A9967A",
"9. c #A59B7D",
"0. c #9CB078",
"q. c #ADA66E",
"w. c #B7A867",
"e. c #ACB76B",
"r. c #B6B565",
"t. c #A7A578",
"y. c #A5B575",
"u. c #C9925B",
"i. c #FB8746",
"p. c #FC9647",
"a. c #FD8C58",
"s. c #F89154",
"d. c #C5AA59",
"f. c #C4B558",
"g. c #CA896B",
"h. c #FC8963",
"j. c #F3916E",
"k. c #F2A460",
"l. c #B7CA5C",
"z. c #ADC468",
"x. c #C4C35A",
"c. c #453D8B",
"v. c #2E7C81",
"b. c #337E80",
"n. c #3B7983",
"m. c #4A4B8D",
"M. c #564B89",
"N. c #585787",
"B. c #574996",
"V. c #5A5597",
"C. c #6B548C",
"Z. c #655A89",
"A. c #4A6584",
"S. c #54668A",
"D. c #58668A",
"F. c #457783",
"G. c #58768A",
"H. c #67668A",
"J. c #78698A",
"K. c #717689",
"L. c #686794",
"P. c #6B6994",
"I. c #766897",
"U. c #726A99",
"Y. c #797596",
"T. c #564AA6",
"R. c #5C53AE",
"E. c #6559A7",
"W. c #675AB9",
"Q. c #6F66AE",
"!. c #7C78AB",
"~. c #786BBB",
"^. c #7975B7",
"/. c #5F54C2",
"(. c #695CC9",
"). c #745EC6",
"_. c #675CD4",
"`. c #6A5DD2",
"'. c #6D67C2",
"]. c #6D62CC",
"[. c #7365C6",
"{. c #746AC3",
"}. c #8D728A",
"|. c #89799A",
" X c #947A99",
".X c #AE778A",
"XX c #B76992",
"oX c #876BA9",
"OX c #877AA6",
"+X c #8474AB",
"@X c #9174A0",
"#X c #8267B3",
"$X c #8175B3",
"%X c #CF5A85",
"&X c #E85B82",
"*X c #FA5E82",
"=X c #D27090",
"-X c #FC6483",
";X c #FA6788",
":X c #FC6B8C",
">X c #EE708E",
",X c #FC6E92",
"<X c #FD7195",
"1X c #FB779A",
"2X c #FD7EA1",
"3X c #2C8484",
"4X c #348182",
"5X c #398B84",
"6X c #3C9587",
"7X c #3DA58C",
"8X c #3DA992",
"9X c #478987",
"0X c #45988A",
"qX c #53918D",
"wX c #76888B",
"eX c #43A48D",
"rX c #45A88E",
"tX c #47A892",
"yX c #50AE95",
"uX c #55B69A",
"iX c #68A88E",
"pX c #7C85AA",
"aX c #7485B1",
"sX c #5ABEA1",
"dX c #58C6A2",
"fX c #67C9A9",
"gX c #6BD2B1",
"hX c #8A8989",
"jX c #9A8B8B",
"kX c #9D9486",
"lX c #9A938B",
"zX c #999989",
"xX c #8C849C",
"cX c #888999",
"vX c #8C8B9B",
"bX c #958597",
"nX c #948C94",
"mX c #8B9596",
"MX c #939492",
"NX c #A58786",
"BX c #A48C85",
"VX c #AF8A8D",
"CX c #A39483",
"ZX c #A29883",
"AX c #AA9A94",
"SX c #8DA98D",
"DX c #99A584",
"FX c #8684A5",
"GX c #8381B0",
"HX c #CD8A98",
"JX c #EC8E9D",
"KX c #FBAD8F",
"LX c #E78FAD",
"PX c #F986A6",
"IX c #FB99B7",
"UX c #FDABC9",
/* pixels */
"CXzXnXxXFXFX!.!.!.#X^.^.^.aXpXpXxXvXxXvXvXxXbXbXbXxX@X@XOXFXGX+X$X^.^.#X~.{.[.[.[.[.].`.`._._.`.].].[.{.{.^.^.GXFXFXFXvXMXzXDXDXt.q.w.r.f.f.d.r.q.t.t.",
"NXnXvX|.FX+X!.^.~.~.^.^.!.pXFXFXcXxX XvXvX X XxXvX|.@XOXOX+X+X$X#X~.^.~.~.{.[.).).`.`._._._.`.].[.[.{.^.^.#X$XFXFX X XnXlXkXZXt.y.e.z.l.l.l.z.e.y.t.DX",
"MXbXxXOX+X#X#X~.~.^.^.^.!.OXFXvXxXvXvXnXbXnXxXvXxX X@XOXOXoX+X^.^.~.^.{.{.[.].].`.`._._.`.`.].].[.{.^.^.#X#XoX|.|. XbXjX.X6.6.y.y.e.z.l.l.z.e.4.t.8..X",
"bXxX@X+X!.~.~.~.~.aXaX!.FXFX|.xXnXmXnXnXbXbXnXvXxX XOXOX+X+X^.^.^.^.{.{.[.].].].`._._.`.].].].'.~.^.^.^.+XoXJ.V C hXnX.XNXZXt.q.e.z.l.l.2.w.z.7.9.zXlX",
"xXOXoX!.^.~.~.'.~.aXpXOXFXcX XmXbXMXMXMXbXbX XbXvX@XOXOX+X$X^.~.~.{.{.[.[.].`.`._._.].].].'.W.E.Q.Q.U.L.U.J.k qXwXC .X.XDXDXt.g.r.r.f.l.u.q.y.0.DXjXMX",
"xXOXoX^.~.).'.'.^.!.OXFXxXvXbXnXjXzXMXMXnXbXnXnXvX XOXOX+X$X$X~.~.{.[.[.[.`.`._.`.(.(.W.W.E.M.N.N.N.c N n k *.uXiXB ( NXDXt.4.5.z.d.2.z.q.q.6.DXDXnXxX",
"OXoX#X~.~.[.'.~.^.pXFXcXmXnXnXjXMXlXzXjXjXnXbXnXbX X@XOX+X$X$X~.~.{.{.[.[.].`.`.].W.V.B.B.N.l x S.# i x # m 7X0XuXB ( 6.t.7.4.e.z.l.r.e.z.7.8.DXzXmXxX",
"OXoX#X~.~.'.~.^.+XFXxXmXmXMXjXjXkXkXzXlXlXlXbXbXbX|.|.OXOX+X!.~.~.{.[.[.].].(.W.W.E.N.F.% M F.x F.h i h 9XrX6X9XuX-.W 6.y.y.e.r.2.r.u.e.y.0.DXSXSXmXxX",
"!.^.^.^.'.~.^.pXFXxXbXMXMXjXkXkXCXCXCXDXlXjXbXhXC V H.J.Z.N.V.E.Q.W.W.'.].(.R.B.B.V.M.9Xx x 5Xx y y 9Xp 7XeX5X0XeXiXd 3.y.y.e.u.u.w.q.t.8.ZXkXSXmXxXOX",
"!.^.~.~.~.^.aXFXxXvXbXlXlXkXCXZXCXCXCXCXkXjXjXC ^ / ^ l n / ^ M.E.V.B.T.W.W.B.9XF.% l F.y h b.j y F.i r 0XeX4X0X5XfX-.<.t.y.e.w.w.e.y.7.ZXzXlXSXmXcXOX",
"!.^.^.^.^.!.OXxXmXMXlXBXBXZX9.9.9.9.ZXZXzXkXjXB / E E / X.E A ^ V.B.A.A.B.E.B.S.rXM % M 4X, 9 j y r > u tX6Xb.0Xp fXiXd 7.q.w.r.e.y.y.t.DXzXMXSXcXOXFX",
"!.aX^.^.#XOXxXvXMXlXkXCXBX8.9.t.t.9.8.8.BXBXjXC v X.E ` A A _ z E.E.m.0XA.M.V.z 9XeXh % e > > 0 > > 1 6XrX6Xb.0Xp uXgXB ! 4.g.w.z.y.y.CXCXSXMXmXcX@X+X",
"pXaX^.!.OX X XjXjXCXCX8.8.8.9.t.t.9.9.9.ZXNXkX3.v b ` A A F k l E.Q.B.A.rXM M.M.x rX%.# > 6 , 9 x = t eXeX5Xb.0Xu yXgXsXg ~ 5.q.y.0.DXZXkXjXbXmXcXOXFX",
"!.^.+XOX|.bXnXjXNXCXZX9.t.t.7.t.t.8.8.9.9.kXkX3.B v Q A A A F W N.E.E.M.9XrXM l l m 5X0 # * 0 U.N.1 yXtXeX5Xb.0Xp 0XfXgX-.! q.y.0.0.DXDXDXzXnXvXcXFXpX",
"pXpXOXxXbX XlXkXCXZX9.t.t.t.7.7.7.7.8.3.B B -.B s s F ' #._ A A W V.Q.V.M 6X4Xh l h i b.# , A.U.N.%.0X6XrX5Xb.0Xp 0XfXfXfX=.<.0.0.0.DXDXzXSXMXmXcXFXFX",
"pXFXxXnXbXjXlXCXCX9.8.8.7.7.7.7.7.t.3.B NXVXd ( s W D IXHXh Q Q l z L.L.z y 3Xi h h j u 9 c U.I.G.7X6X6XrX4Xt 6Xp 5XfXfXgXiXg t.0.t.kXDXDXMXnXmXmXvXFX",
"cXmXmXMXjXlXzXCX8.8.8.8.7.7.t.t.8.8.( g UXUXPXUXLX` @.IXb c D.x x m c Z.Z.l y 3X0 h U.x 6 D.P.L.eXeXeXeXeX6Xe 5Xb.u uXfXfXfXB ( 9.9.CXNXzXjXMXmXvXxXcX",
"vXnXMXMXjXkXCXCX9.8.6.7.7.7.7.t.7.6.g ) UXPXIXUXIX` $..Xj J.Y.Y.c m 6Xc z l h y t c U.P.9 D.H.0XeXeXeXeXeX6Xp 5X7 u fXfXfXgXwXW 9.8.DXzXDXzXMXMXnXbXvX",
"bXnXlXlXkXBXBXZXt.8.6.8.t.7.7.7.7.3.! JX<Xo.PXIX<XD W : v N K.K.H.% m rXm a x c ; D.U.U.A.A.9XeXeXyXyX0XeX6Xb.%.t 5XfXfXgXfX-.g 3.6.9.kXDXzXlXjXMXMXMX",
"jXjXjXkXkXCXCX8.9.9.8.9.9.t.t.9.t.9.( d +.A ..IX$.' ^ } :X) j N j b ` 3.8Xi N.I.h L.P.L.L.i eXeX6XtXuX0X6X6Xp 5Xp 4XfXgXiXf iX=.<.0.0.9.DXzXzXzXzXlXnX",
"jXjXNXCXCXCXZXZX9.9.8.6.8.9.t.t.t.kX3.g LX$.$.UXUX*X-X-XO.-Xv r m } ' [ qX6XN.U.L.L.S.S.S.9XeX6X5Xm s *.p %.p 5Xp 4XiXf f iXgX-.=.0.0.0.DXZXZXzXZXlXMX",
"NXkXkXCXCXCXZXZXZX8.6.6.8.8.9.DXZXzX3.( IXIXIX1X*X..` ' $.-Xk 3X( o. .G ! u D.U.L.D.S.x n.5XrX4X5Xm a f %.7 t 5Xv.9X-.iXfXsXfXiX! 6.t.t.0.0.9.9.DXjXNX",
"NXBXkXBXBXCXBXNXCX6.3.( ( 6.ZXzXzXzX3.B HXPXIXPX .O.' ..#.d i 3XwXKX .| Q > D.P.D.q 9 q b.p 6X4X5X9Xa f &.* 7 0Xb.p tX0X5XrXgXiX! 6.t.y.7.7.t.8.CXkXNX",
"kXkXCXCXCXBXkXBXBX3.( ) B ( ( 3.lXlXzX-.B ^ .X>Xo.$.-Xo./ t F.wX}.s.] } d : N.P.H.9 9 n.4Xb.p b.p 6X0X0X6X; e 0Xe 6 * * &.6XuXiX=.0.y.y.7.7.t.8.ZXBXNX",
"zXkXjXjXkXkXjXjXjX( ( / s B ( B 3.hXhXhXB v a d X.o.' X.N 3XF.wX}.i.) hX( a x L.H.9 A.i %.b.b.b.b.4X6XrX6X* u u * * 7 5X5XeXeX-.g <.q.q.e.5.8.9.kXkXzX",
"kXkX( B ( ( ( ( ( B d s s B +.( B }.C B B B d # W ` ` d r 4Xm C }.i.3.VXj.D.q S.S.A.A.u 4Xb.b.p u b.p 6X5X* i 9 * 7 5X5X6XeX8X-.Q ~ <.1.4.4.8.9.kXkXzX",
"CXjXB m s v k k k s s s s s s v C C ( ( a m tX9X_ ` d # j m # ( g.i.wXV ) V 5 q S.S.A.t 4Xp b.n.t p b.b.u 6 p 6 e 4X6X5XrXeX8X( A | ~ g ! <.3.9.ZXCXCX",
"BXjXB m t = 6 5 5 5 5 6 < 1 a s b b b d # # m 8X) / i j 4Xi # W p.3.G.p 6.K.5 9 S.S.S.y %.p D.L.u t 4X4Xu 7 w t 4Xp p rX6X5XeXg F U X.! ~ ! g 3.CXCXNX",
"kXhXC 1 t t ; , < 5 5 5 5 5 5 8 , h # # b ^ a 1 ^ ( 3X3XB ) ] ;.-.G.F.( 4.wXq q S.S.S.A.t G.U.P.n.t b.4Xw q |.n.%.e p 0X4X4XqXg ~ A D ` E X.! 3.ZXCXBX",
"lXhXC j * e t 9 ; 5 5 5 5 6 5 5 4 a W b ^ ) KX! ) d 1 m { F g.mXqXK.) g.wXK.S.S.S.S.S.S.q I.P.U.F.t u p }.HXUXbXw t p 5X9XC _ D D D A U X./ g 3.BXCXZX",
".XbXC j 5 * 6 e 7 5 > , 6 5 6 6 4 ~ F > o W s.KXk.s.~ ( ] =XIXPXPX#.@.( A.A.A.A.A.A.A.A.S.P.L.U.x t t e =X1X1X1XA.v.p 4Xb.) D ` ` D ` +.W g ( 8.zXzXlX",
"bXvXJ.k 6 6 ; * 7 7 = , 6 5 5 5 4 j d & N g.~ +.p.>.k.HXhXIX-XO.@.@.| / A.Y.bXHXXX.XXXY.A.H.P.U.x t 7 0 =X*X| ;X>XF.4Xb.p F.( . ) ` ` ( d d 3.3.kXlXjX",
"xXxXY.c 6 5 5 5 5 5 5 5 5 5 8 6 5 4 X W ) = o d p.J p.+.HX:Xo.,X:XO.| >XLXPX<X<X<X1X,X=Xl Z.U.U.x t w j 1X:X;X<X=Xn.t p %.%.f . VX' #.d ( .X! 3.jXjXbX",
"xXFX|.n 8 5 6 5 5 6 5 6 5 6 # o 5 6 = +.k 4 = ! p.:.>.i.>XO.-X1X,X .o.IX-X-X,X<X,X<X .O.$ D.U.L.q u e & V =X1X1XH.2 . . i p . . ! ` $.;XPX,X+.v }.bX X",
"FXOX+XZ.h 5 5 5 5 5 5 5 5 5 8 > 5 & 7 ) & - 4 ^ KXp.:.i.#.o.,X2X:X| 1X:X;X1X<X<X<X-XR &X$ D.H.S.q u 5 9 S.q j N f . . a i .X) . W ' $.O.-XO.$.( B bXxX",
"FXOX+XU.z 6 5 5 5 5 5 5 5 5 5 5 5 q ( } $ ^ =X>XKXi.:.J J @.1X1XO. .PX;X1X<X<X<X-X . .=Xl S.S.S.9 7 q S.S.0 4 2 . . f u }.O.-X) _ @.1Xo.' ' O.^ V xX|.",
"FX+X$XQ.V.0 5 5 5 5 5 5 5 5 6 * 9 >X|  . .;X<X,X[ :.:.J J ..=X1X .X.1X:X<X<X:X$. .E *X^ z S.S.A.* q S.A.S.q 7 i r t u v.}.O...-XO.o.O.' A ` PX( V |.FX",
"OX$X~.~.E.M.8 5 6 6 5 6 5 * * 7 4 }. .| | o.;X<X#.:.s.j.G { +.:X| } 1X,X:X:XO.| T T } + % G.S.9 q D.A.A.S.A.3 5 5 t *.*.G.-X` ` ..o.$.O.o.-XIXHXN Y.OX",
"$X$X~.{.'.R.m.3 - * 5 * 7 9 e 4Xu wX*X . . .o.O.;X$.[ KXp.G / $.T Y PX;X-Xo.R X.>X2XPX=X^ z x q n.A.A.S.S.S.6 * 7 u m *.C X.O...o.o.O.$.$.O.X.v H.OX+X",
"$X~.{.[.].(.T.l k j 8 r qXy e p u G.,XR o.O.;X<X1X2Xa.[ ~ ] Q O.I Y 1Xo. .U } PX-Xo.o.:XPX/ 0 n.4Xb.F.A.S.S.7 u u u *.&.v } $.$. .| / / / / ^ N Y.+X$X",
"~.{.[.].`.`.W.m./ +.# , 9 * 3 6 * r 1XR R  .o.O.-X-X1X+.W ~ @.| L Y -XR R Y :X . .O.:X,X,X2Xn u 4Xp n.F.S.A.t t 5 e d N K. X^ X.o.W a s N N V I.+X$X~.",
"{.[.(.(.(.(.W.V.l 0 8 * 3 6 5 6 6 & HX*Xo. .R  .o. .| X.W . @.| L P  .| I X.O.o.,X1X<X<X,X1X%XX u b.p F.F.i 6 q D.P.U.U.P.P.W &X1X( v v C |.|.+X$X~.~.",
"[.(.R.T.B.B.M.z l , * 5 5 5 5 6 * G.LXPXPXPX>XT E  .R E  .W Q ..L K | T L  .o.,X1X<X,X<X,X<X<XP > u b.p 4Xt x U.U.U.L.H.P.}.#.-X<X1X1XXXn |.FXoX$X~.{.",
").(.T.G.qXqXqXqXqXqXi * 5 5 6 & |.PX<X,X,X,X2X>X} U | R R &XW _ K @ I L I O.O.O.O.-X,X<X<X,X-X-XP = p 4Xt 5 q L.L.H.L.P.I.>XO.....,X,X>Xn I.OX!.~.~.[.",
"`.(.T.F.dXeX0XuXuXyXtXp = 6 & G.PX,X<X,X:X;X-X:X>X} I R | I / Q Q + L L T o. .o.-X:X,X:X*Xo.o. .*X$ u u 6 5 x L.D.P.U.P.|.&XO.` A ..:X^ h n Z.N.V.E.(.",
"_.].W.m.0X6Xj 0XyXm *.tX%.- N PX,X<X<X<X<X<X,X;Xo.o.I L I L L ) _ @ @ K | R | | | R  .' `  .} b C c u 6 7 5 x S.S.H.L.U.P.=XO.O...O.;Xk l Z.H.Z.N.T.(.",
"`.[.Q.M.h 0XyXtXtX6X0X7XqX.X1X<X<X<X<X,X:X:X:X:X-Xo.| T L K @ P X.K + I | R R R R ' H H H [ P & - e 7 5 5 6 A.S.S.S.H.L.S.^ O.$.O.O.+.U.P.U.U.P.M.R.(.",
"[.{.Q.V.c h k j m 0XeX8X.XE  .*X*XO.O.o. .X.T T R | R | I K @ + K L K  .R R R R R { :.J H J H W 4 6 5 6 * q D.S.S.D.S.A.x : k b ^ +.J.L.P.L.U.N.B.(.`.",
"{.~.~.Z.qX0Xj k k 9XtX&./ | R  . .o.T } &X>X>X>X&XX.X.I L L L @ @ T | o.*XE |  . .@.,.>.:.J J G a 4 6 6 3 6 q S.S.x A.A.9 6 - q L.L.L.H.D.P.L.m.R.(.].",
"{.~.^.Z.N tXtXyXyXtX0Xi W E R R | U %XPX:X-X-X-X-Xo. .R T T I I R | | o.1XX.R  .o.@.p.,.,.,.J J _ 3 6 5 5 * ; q 9 q M q 6 5 q H.L.P.U.H.D.H.m.T.(.].[.",
"^.^.!.I.V tXm k a a *.7XwX=X%XT T %XIX-X-X,X<X<X,X-XR  .o.| | |  .o. .-X>XXX .E E ..s.,.>.,.>.J G a & 8 , > & * 6 9 9 M q x D.L.U.U.P.U.L.m.B./.`.[.{.",
"^.$X+XY.v qX0Xf f m iXtX9Xe e H..XIX:X:X<X<X<X,X-X .o.<Xo. . .R  .:X-X:XPX$ / } X.P ] ,.>.,.,.J J Q W ] [ ] W = 5 * 6 6 5 M S.S.D.D.S.x O O T.(.].[.~.",
"$X+XOX|.V m qXiX-.m iXeX7 * & & 7 LX:X<X,X,X<X-X .X.PX-X$.-XO.R O.<X:X2X=X+ P +.+.Q Q p.>.>.>.J H H J ,.,.:.H W 9 9 ; * * 9 x M M q 8 O % N.B.W.[.~.^.",
"+XOXxX|.C *.*.B m *.7Xt 7 %.%.* y PX,X<X:X<X-X..*X>XIXO.<X<X;X .:X<X,X:X] { i.i.a.h.h.a.>.>.>.J H H :.>.,.J G { J.P.H.M 9 * * 0 O O O O J.Z.B.W.{.^.^.",
"OXFXvXjX( B 8XeXtXtXu * 5 7 5X0Xy PX,X:X:X;Xo.;X;X>XIX:X<X<X;X-X<X,X@.H H J :.:.:.a.h.h.p.>.J H H H :.,.:.G J [ }.P.U.Y.N 5 6 6 o O L.N.O % V.~.~.$X+X",
"@XbXnXlX3.g *.8XrX%.* 6 5 3 & u 6XHX<X;X-X$.;X,X} $ UX1X<X<X-X,X,Xo.H J H J >.>.>.s.h.h.a.a.' [ [ H >.:.:.>.J { J.P.P.K.9 5 5 * i q L.Z.L.N.V.^.^.+XOX",
" XbXlXkX8.3.g *.5X5 * * 5 5 6 = w VX:XO.} W W W   + XXIX:X,X:X1X*X' J H :.>.:.:.i.a.h...h.@.@.h.{ H :.:.>.:.H ] P.I.K.r * = = i t * x U.Z.M.E.^.+XOX X",
"jXlXkXCX8.7.<.. < 5 e u 6 5 5 6 & V -XQ   + + + @ + o  X<X-X:X1X .T { :.>.>.:.:.[ { @.| @.@.{  .` ' [ i.i.[ [ ) qXiXuXuXeX%.t e * 3 3 O % N.Q.+XOXFXbX",
"lXkX8.7.7.q.<.f 3 6 5 p p * 6 6 - ^ }   + N gX9Xo > 5 * =X-X-X:X| T W j.a.a.a.s.s...R | ..` U U @.j.KXKXKXKXKXAXtXdXqX9XuXfX0X5 5 8 3 3 0 N.U.OXFXbXnX",
"CX8.8.7.5.5.<.1 5 ; * & 6 5 5 < : ! W +   m sXu * 5 6 * ^ *Xo.o.R  .b 9 ( g.j.h.h...R | T L Z | j.KXKXKXKXKXKXAX0XtX9X9XdXyX* 5 6 e u w 8 Z.Y.@XxXMXlX",
"ZX6.7.q.5.1.g ; 5 7 u t 3 5 5 5 ; < a # 1 1 6 * 6 6 6 4 b O.|  .R o.k - * 4 r g.a.@.R L L L A U @.h.h.h.h.h.j.KXHXh x t %.uXt 6 8 3 6 0 z I.OXxXnXjXNX",
"8.7.5.5.1.S f 5 * 0XfX0X* 5 5 5 5 5 6 5 5 7 e 7 ; 5 5 * a } | E o.^ 5 6 ; 9 g.a.s.@.I Z I I Z D ' [ p.p.p.k.k.p.p.^ o 9X5 e t 3 6 6 l Z.I.|.xXbXlXNXNX",
"t.q.r.w.! f ; 5 5 7 7 * 5 5 5 6 5 6 5 3 e 4X4X4X7 * 5 1 : h } } ^ 8 5 3 4 4.p.>.,.@.U D D `  .D H :.J :.>.>.>.>.:.) 0XfX0X& & 7 6 h Z.!.OX@XnXjXBXNX6.",
"q.w.r.2.<.; 4 5 6 3 3 5 5 5 5 6 5 5 5 < p 4Xb.p 7 5 5 a 1 4 6 8 5 5 5 7 4.p.>.,.:.| D F G ' #.{ F >.>.:.J :.:.>.H 6.gXgXgXtXp y h z U.OXFXbXjXCXCX8.t.",
"5.u.f.2.1.g f ; 5 6 5 5 5 5 5 5 5 5 6 : 7 7 7 6 3 5 < a < 5 ; ; 6 6 5 4.,.:.:.:.:.` G :.:.i.a.p.D G ,.,.,.>.>.:.[ V %.0XuXgXiXj qXc I.FXnXbXNXBX9.7.q.",
"d.d.f.f.w.1.! g < 5 5 5 5 5 5 5 5 5 < 1 5 * * 5 6 5 : a 5 6 6 6 6 5 9 p.:.J :.>.[ | H >.>.:.,.,.G F >.>.>.>.:.G ) 5X&.6X5X6X0XtXM Z.|.xXnXlXNX8.t.4.5.",
"d.f.f.r.r.q.3.( g 1 5 5 6 6 5 5 6 5 < < 5 6 5 6 5 = # > 5 6 5 5 5 6 4 ~ >.,.,.:.H  .a.,.>.:.,.,.{ ` J J J [ ] ( qX7XrXrXrX0X7X*.c J. XnXjXkX8.t.q.5.u.",
"x.f.r.e.e.7.8.6.3.B s < 5 5 6 6 6 5 < 6 5 5 5 6 5 a # = 5 5 5 5 5 6 5 6 d ~ ] ] ) b ) p.>.:.>.,.) z ^ ^ ( wXqXeXeXeXtX7XeXrX9Xc J. X XnXNXkXt.q.5.u.d.",
"f.r.r.e.t.9.6.NXkX( B v 1 < ; 5 5 5 6 6 6 6 6 5 1 a , 5 5 5 5 6 6 6 6 5 4 4 8 c N.x n s.>.J >.,.) c.m.m.m.5XrXrX7XtXiX0X9XM n J. X XjXzXNX8.t.q.r.d.f.",
"d.r.z.t.8.0.BXjXMXbX}.}.C v j 1 8 6 5 5 5 5 5 < s s < 5 6 5 5 5 5 5 5 6 8 j c P.!.U.N.j.:.H :.:.( B.W.W.T.c.A.9XqX0XG.z z C.}. XbXjXlXDX9.7.q.w.r.2.f.",
"w.q.t.t.ZXzXlXnXnX X X|.|.K.K.V n k h h 0 1 h k N j 5 5 5 6 7 8 8 0 j c n P.!.!.!.!.M.) J G H +.m.W.].`.(.W.T.B.M.N.N.C.I.OX XnXbXlXBXDXt.5.w.w.d.f.2.",
"e.y.8.DXkXjXnXbXvX|.xXxXxXcXcXoXY.K.J.J.V V C K.C N j j j N N n b n H.I.I.!.!.^.^.^.E.M.+.{ +.M.T.(.`.`.`.].'.W.Q.Q.Q.oXoXFXmXnXNXkX6.4.q.w.2.d.d.2.w.",
"q.0.9.zXzXnXbXxXxXFXFXOXFXOX+X+X+XFXFX|.|.cXcXcXcXK.}.J.J.K.Y.Y.oXoX!.+X#X#X$X^.~.^.~.E.B.B.B.T.(.`.`.`.].[.{.~.^.#XoX@X@XvXMXMXzX6.6.7.e.2.f.f.d.d.5.",
"7.9.DXSXmXmXxXFXpXpX+XpX!.+X!.+XOX@X@XxXvXxX XxXbX X X|.|.FXFXFXOX+X!.$X#X#X~.^.~.{.{.~.W.W.(.(._.`.`.].[.[.~.~.$X+XOX@X XnXjXzXZX8.t.q.r.d.f.l.u.w.q.",
"0.DXzXmXvX|.OXpXpX!.!.aX^.^.pXOXOXFX XxXxXxXxXxX X X X@XOXFXFXGXGX!.^.$X$X~.~.{.{.[.[.[.`.`._._._.`.].[.{.~.~.^.GXFXFX X XnXNXzX6.t.5.w.z.l.f.r.w.e.q."
};
