/* XPM */
static const char *MA__[] = {
/* columns rows colors chars-per-pixel */
"75 75 256 2 ",
"   c #D97E3E",
".  c #9F6C7F",
"X  c #BA786B",
"o  c #B66F73",
"O  c #A97A7A",
"+  c #BB7B73",
"@  c #B87778",
"#  c #D37A4C",
"$  c #C97A58",
"%  c #CA7762",
"&  c #C67D64",
"*  c #CA7D63",
"=  c #C6766A",
"-  c #C37C6B",
";  c #C27773",
":  c #BA8F5B",
">  c #BBA75A",
",  c #AFB25C",
"<  c #B8B75A",
"1  c #BBBB5B",
"2  c #9A887D",
"3  c #9C977A",
"4  c #AD876C",
"5  c #BA896B",
"6  c #AC9A6C",
"7  c #BA976A",
"8  c #B49B6D",
"9  c #AA8678",
"0  c #AB8C7C",
"q  c #B68575",
"w  c #AD9575",
"e  c #A29D72",
"r  c #AC9C75",
"t  c #A5947E",
"y  c #AB947B",
"u  c #A59B7D",
"i  c #A99B7A",
"p  c #B39473",
"a  c #B29B71",
"s  c #9EB46A",
"d  c #9AA87A",
"f  c #9CB77A",
"g  c #ABAA6B",
"h  c #BBA364",
"j  c #BCAB63",
"k  c #B4A36C",
"l  c #B5A968",
"z  c #ACB46D",
"x  c #AABA6B",
"c  c #B6B765",
"v  c #ABA374",
"b  c #A8A577",
"n  c #A5AC74",
"m  c #AAAB72",
"M  c #A5A37B",
"N  c #A3AB7B",
"B  c #B4AF76",
"V  c #A5B676",
"C  c #ABB472",
"Z  c #DB844D",
"A  c #D7884B",
"S  c #CA914C",
"D  c #D3974E",
"F  c #CD825C",
"G  c #C88A59",
"H  c #D48756",
"J  c #DA8553",
"K  c #D3845B",
"L  c #C99959",
"P  c #D19652",
"I  c #C6A94E",
"U  c #C7A757",
"Y  c #C3AB5B",
"T  c #C4B355",
"R  c #C4B55A",
"E  c #C58667",
"W  c #CB8263",
"Q  c #D08F6C",
"!  c #C59665",
"~  c #E29F73",
"^  c #C3A763",
"/  c #CBB16C",
"(  c #B8C559",
")  c #B3CA5E",
"_  c #B5CF5C",
"`  c #9DC075",
"'  c #ADC666",
"]  c #ACC36B",
"[  c #B4C764",
"{  c #AFC774",
"}  c #C4C25A",
"|  c #C6C574",
" . c #755EB7",
".. c #7B78AB",
"X. c #7E7BAC",
"o. c #6E6CB8",
"O. c #7667B6",
"+. c #746EB2",
"@. c #7D6DB5",
"#. c #7B65BD",
"$. c #756CBD",
"%. c #7B6CBB",
"&. c #7D74B4",
"*. c #7578B6",
"=. c #7D7AB3",
"-. c #7672BC",
";. c #7A73BB",
":. c #695CC6",
">. c #6D5ECE",
",. c #735EC6",
"<. c #675BD4",
"1. c #6A5DD2",
"2. c #6E6AC3",
"3. c #6D63CC",
"4. c #7465C5",
"5. c #746BC3",
"6. c #7868C3",
"7. c #7164C9",
"8. c #7A73C7",
"9. c #6B61D0",
"0. c #786CD5",
"q. c #9B6B8B",
"w. c #9C778B",
"e. c #8D6A9A",
"r. c #996C99",
"t. c #897899",
"y. c #8D7D9D",
"u. c #9D7495",
"i. c #9B7B94",
"p. c #94749D",
"a. c #987698",
"s. c #937C9C",
"d. c #A66C87",
"f. c #A97786",
"g. c #A37D8B",
"h. c #B27782",
"j. c #A56D91",
"k. c #A37292",
"l. c #A47A92",
"z. c #8B6AA7",
"x. c #856DAD",
"c. c #8B6CAB",
"v. c #916DA4",
"b. c #8C74A5",
"n. c #857DA5",
"m. c #8C7CA3",
"M. c #8574AD",
"N. c #8A74AA",
"B. c #847CAB",
"V. c #8979A8",
"C. c #9476A2",
"Z. c #8465B5",
"A. c #836CB3",
"S. c #8274B3",
"D. c #817AB1",
"F. c #8876BB",
"G. c #9375B7",
"H. c #A37AA5",
"J. c #8678C4",
"K. c #7C84AA",
"L. c #7384B2",
"P. c #8C8A8C",
"I. c #9A878B",
"U. c #9C8C8C",
"Y. c #8C978B",
"T. c #9D9486",
"R. c #969883",
"E. c #9D9C85",
"W. c #95938D",
"Q. c #9B938B",
"!. c #959B8C",
"~. c #9B9A8A",
"^. c #8C849D",
"/. c #898999",
"(. c #8C8B9C",
"). c #958595",
"_. c #9A8492",
"`. c #948C94",
"'. c #9A8B92",
"]. c #92839A",
"[. c #9B8299",
"{. c #928A99",
"}. c #8D9395",
"|. c #8A9997",
" X c #8C929B",
".X c #939393",
"XX c #969794",
"oX c #A58585",
"OX c #AB8783",
"+X c #A48D84",
"@X c #A2848B",
"#X c #A28B89",
"$X c #A39383",
"%X c #A49587",
"&X c #A29B82",
"*X c #AE8F92",
"=X c #9CA383",
"-X c #98A787",
";X c #90A890",
":X c #A4A584",
">X c #AEB18E",
",X c #8484A4",
"<X c #8B83A2",
"1X c #848BA3",
"2X c #898BA2",
"3X c #8482AA",
"4X c #8889AA",
"5X c #9889A5",
"6X c #8A92A5",
"7X c #9694A6",
"8X c #8886B6",
"9X c #9794B6",
"0X c #AF95AD",
"qX c #9EA6A4",
"wX c #B5B0AE",
"eX c #C9968C",
"rX c #D1AF90",
"tX c #E5B395",
"yX c #D2ACAA",
"uX c #D1B4B0",
"iX c #BAC693",
"pX c #BFC3BD",
"aX c #CCCE91",
"sX c #D6D6A8",
"dX c #CFCDB3",
"fX c #E7CEB2",
"gX c #E9C9B6",
"hX c #D7E5A6",
"jX c #958ECD",
"kX c #A699CC",
"lX c #B9B6C7",
"zX c #B1ABD3",
"xX c #CBB8C8",
"cX c #C4BDE2",
"vX c #BFC4CE",
"bX c #D5CECE",
"nX c #CBC7D6",
"mX c #EAD2CB",
"MX c #E9D8C8",
"NX c #E8DCDB",
"BX c #DCE2CF",
"VX c #EAE9CE",
"CX c #E6E5D7",
"ZX c #F4E6DB",
"AX c #CEC9E9",
"SX c #D9D8E7",
"DX c #E4DBE3",
"FX c #E9E6E7",
"GX c #F4EAE6",
"HX c #F3ECEC",
"JX c #EFF0EB",
"KX c #F6F4EC",
"LX c #E9E7F2",
"PX c #F4F4F4",
"IX c #F9F7F6",
"UX c #FFFFFE",
/* pixels */
"%XqXXX7X6X4X8X8X8XF.F.8X8X8X6X6X5X7X5X7X7X5X5X5X5X5X5XC.5X8X8X8XG.8XF.F.J.J.J.J.8.0.0.0.0.0.0.0.0.8.8.8.J.J.8X8X9X7X7X7XqXqX>X>X>XB / | / } / c B B >X",
"g.`./.y.n.....+.@.+.o.*.=.K.K.,X/.^.a.(./.s.a.^.(.y.p.b.V.V.B.&.Z.%.-.#.#.4.4.,.>.>.>.<.<.<.<.>.>.2.5.$.%.@.M.3X<Xp.s.}.W.~.$Xd V z x [ ( ( < z z M d ",
"XX).^.V.B.A.Z.-.O.-.*.=.K.V.m.(.^.(.{.{.).{.].(.^.p.m.m.B.c.M.=.&.%.-.5.5.5.7.3.3.1.<.<.1.1.3.3.4.5.-.;.A.Z.c.4Xm.r.)._.g.O 0 V V x [ _ ( [ z 5 n t f.",
"`.^.v.N.=.#.#.$.$.L.L.X.K.1Xy.^.).}..X`.).).(.(.].s.m.b.V.M.&.&.;.-.5.5.5.3.3.3.1.<.<.1.3.3.7.5.5.-.-.&.A.c.m.2X(.{.`.f.oXy b m z ] ) _ < j x w u E.Q.",
"].m.z...*.#.#.2.o.L.K.n.1X/.s.}.)..X.X.X_._.i.s.(.y.b.b.M.=.&.@.%.5.5.4.7.3.1.1.<.<.9.3.3.7.5.5.;.;.=.=.M.V.2X2X X.Xg.f.=X:Xb E c c Y ) ! k ` f =XU.XX",
"^.b.x.*.-.,.4.2.*.X.n.,X^.(.).`._.!.!.XX`._.{.{.(.s.m.V.N.S.S.%.$.5.4.4.7.>.1.<.1.9.7.7.4.4.5.%.S.S.D.M.c.b.2X X|..Xf.OX=XN 5 7 ' Y Y ' l v w =X-X`.{.",
"n.x.Z.%.#.4.2.$.&.K.,X/.(.`.`.I.W.Q.!.I.W.`._.`.].s.m.N.M.D.S.@.$.5.5.4.7.1.9.9.>.:.:.:.,. .%.&.A.x.+.z.e.p.(. X}.U.f.9 N v 5 z ' ( c x ` r t -X!.}.^.",
"V.x.Z.$.$.4.$.&.B.,X^.}.|.W.I.U.Q.T.~.Q.W..X_._.).].b.b.B.D.&.%.$.5.5.7.7.3.<.:.8.jXzXAXSXLXLXLXLXSXnXlX0Xm./.P.XXU.h.9 N C z c > < E z V d -X;X;X|.^.",
"X.&.-.-.2.o.*.K.,X^.]..XW.U.T.T.$X$X%X-X~.I.'.'.{.s.m.b.N.S.A.%.5.5.5.7.:.>.jXAXLXUXUXUXUXUXUXUXUXUXUXUXUXJXbX0XW.R.OXi V V z G L l k v w &XQ.;X|./.m.",
"M.=.-.$.$.*.K.,X^./.).W.Q.T.$X$X$X$X$X$XT.U.'._.).s.m.b.M.D.&.%.5.5.3.:.jXSXUXUXUXUXUXUXPXLXLXLXLXPXUXUXUXUXUXUXNXwX3 N V ` x j j z x r u &XW.;X}./.n.",
"X.&.*.-.*.X.n.^.}..XW.T.+X$Xu u u u &X&XE.T.W.'.).].C.b.M.D.&.-.5.:.8.AXUXUXUXUXLXAXkXJ.F.A.=.B.N.C.9XlXbXPXUXUXUXUXBXy 6 C h c x x n M =X~.W.|.(.^.,X",
"X.L.L.-.A.n.^./.}.W.T.+X+Xt u M b u t t $X+XW.'.`.].s.b.B.=.&.%. .kXPXUXUXUXSXjX%.O.O.O.@.x.B.3XV.e.y./.t.'.0XNXUXUXUXGX>X: W l ` f N t $X;X.X|./.b.V.",
"K.L.*...V.p.s.`.U.T.$Xt i i i b b i u u &XoXT.W.`.].s.m.B.M.S. .zXUXUXUXLXjXo.O.@.&.=.S.S.M.B.V.m.<X^.].u.w.w.f.uXKXUXUXIXrX: g f f f $X#XU.).}.(.n.,X",
"X.=...n.m.].`.U.oX$X&Xi M i r M b i y u &X$X~.Q.`.).s.m.N.N.+.zXUXUXUXcX%.o.*.&.&.=.=.M.z.N.3Xm.m.(.^.u.i.'.~.=Xd -XCXUXUXIXrXg f f d =X!.!.`.). X1XK.",
"K.K.V.^.].i.W.T.$X&Xu b b b r w r i y y &X=X!.Q..X).p.m.V...zXUXUXUXzXo.*.=.&.A.A.B.M.B.N.V.1X2X<X{. X`.`.!.-X-X=Xu d BXUXUXKXV f f -X-X!.!.}.}./.,X,X",
"K.,X^.{._.@XQ.$X$Xu i i r r r w r b b M :X$XT.W..X`.s.C.z.9XUXUXUXzXo.S.S.=.S.X.B.B.V.,Xt.t.y.y./.t._.XXl.U.-XE.0 i n 5 mXUXUXBXd d E.-X;XW.`.}.(. X,X",
"^. X}.}.I.Q.E.$X0 i i w w r b b r w y u =X$X@XU..X.X(.y.C.LXUXUXlX+.=.S.x.x.x.n.B.3Xt.<XkXnXSXFXSXnX0XY.W.~.-Xt u f V 5 a KXUXUX>X3 $XoX!.I.W.|.{././.",
"/.`..X!.U.T.$X$Xu y w w r r b b r w 0 0 E.T.@Xg.'..X X/.nXUXUXSX..K.3Xz.N.N.z.N.n.n.lXHXUXUXUXUXUXUXUXbX!.-X-X&Xu N n V 6 rXUXUXCX3 -X~.-X!.!.|.`.).(.",
").'.W.Q.T.+X+X&XM y 0 y b r r r b i 0 OX$X~.U._._.)./.7XIXUXIX9XX.N.3X,Xm.1X<Xm.2XSXUXUXUXUXPXHXIXUXUXUXCX-X-X:Xy w 6 V C n CXUXIX*Xd E.-X-XQ.U.W.`.}.",
"I.U.I.T.T.+X$Xt u i y i i i i i b u $X+X%X~.!..X`.i.e.nXUXUXvXK.4Xv.v.1X<X<X1X(.DXUXUXUXbX0X[..XXXpXIXUXUXbX3 :XN n V V m 6 dXUXUXdXd =X=XE.~.!.~.W.W.",
"U.U.@X$X$X$X&X&Xu u y 0 y i b M M &XE.E.Q.Q.XXXX.X).l.PXUXPX6X1X1X2Xv.<X/.r.t.bXUXUXPXqXP.w.j..X!.Y.qXIXUXIX>Xf V V V m p 4 >XUXUXBXd d -X&X&XE.$XQ.W.",
"oXU.T.$X$X$X$X&X&Xu y y y t u :X&XE.~.~.Q.U.U..XXXP.wXUXUXxXe.2X X X X(.|.t.0XUXUXPXqXP.l._.I.W.;X~.2 bXUXUXuXe b p a m n n V IXUXCXe N N d u u =XU.@X",
"oX+XT.+X+X$X+XOX$X$X$X+X+X+X&XE.E.!.!.~.W.@Xg.l.'.Y.FXUXUX0Xr.a.(.].(.|.|.}.FXUXUXwXY.XXg.l.g.g.#XoXO wXUXUXuXX q - a V n v m JXUXGXv N w i b 0 $XU.oX",
"T.T.$X$X%X+XT.+X+X$X+X+X+X$XT.~.~.~.!.!.W.@Xl.k.l.0XUXUXFX/.k.j.i.u.k..XY.wXUXUXDXw.XX;X@Xd.f.f.f.&X3 wXUXUXdX4 a 8 m m m 5 p JXUXJXn V a a b t $X+XoX",
"E.T.$X%XT.Q.U.#XU.T.T.T.T.Q.W.Q.Q.W..X.X.X_.l.l.q.xXUXUXuXP.`.k.k.i.j.k.W.bXUXUXwXU.~.T.~.+XE.oXh.:Xd bXUXUXiXn C z 8 8 m E E KXUXCXz B C a i u E.T.T.",
"T.T.U.U.T.U.I.U.U.U.Q.Q.Q.XX.X`.'._._.`..X.X_.k.j.FXUXIXXXw.'.U.g.U.@Xd.*XPXUXHX!.-XE.h.f.=X-X&XO u f JXUXIXV x x z 8 g V 5 Q IXUXMXl ! 7 a i u E.E.E.",
"$XT.U.I.U.U.'.`.'.'.'..X.X`.`.{.i.i.i.i.)..X.Xw.0XUXUXNXI.f.d.U.!.!.-X2 yXUXUXbX2 -X-X$X@ t =Xd d d iXUXUXBXs x z z z x ] l rXUXUXsX, l 7 b i u $X$X$X",
"#XU.I.I.`.`.).).{.`.`..X{.(.(.(.s.a.u.u.u._..XP.bXUXUXyXd.f.d.h.E.-X-Xd BXUXUX>X3 =Xt u u M y i i 4 bXUXUXrXk z 7 ! z ] ] , fXUXUXaX> x k w i t $X+XOX",
"T.W.'._.).{.s.s.].].(.(.(.2X2X2Xy.p.r.r.u.u._..XJXUXIXOXd.h.h.h.0 -Xd >XIXUXGXq 0 u @ @ i f M b w ; HXUXKX- 5 h W W l ' ' c KXUXKXc l 8 m n y t $X$X+X",
"W..X`.i.].].s.s.m.m.m.<X<X,X,X,X<XC.r.r.u.k.w.wXUXUXbXO h.h.@ @ O M d dXUXUXdXo ; q q o + r n V g rXUXUXMX: 7 l ! ! c ' < rXUXUXfX, x 8 p r u t +X$X~.",
"g.).).s.^.<X<Xm.b.N.N.B.3XB.B.3X,Xm.v.r.r.r.q.bXUXUXwXO h.@ @ @ @ q e CXUXUX>Xw ; ; p p 5 5 + a s BXUXUXiXz x ] c j L Y < MXUXUXrX, ] g 5 w u $X&X~.Q.",
"_.{.].m.m.m.V.B.M.M.S.D.M.x.x.M.n.3Xm.p.r.r.k.HXUXPX-XT.O @ @ @ + X eXIXUXZXp n p - 5 m m 7 = X a IXUXKX] ] ' ' [ L # P [ IXUXKXj z 7 p p y =X+XT.Q.I.",
"].^.m.m.V.V.M.D.=.&.&.&.A.Z.Z.Z.x.B.4X<Xs.e.0XUXUXbX2 &X0 @ @ ; ; X yXUXUXyX% 7 z k k z x 7 E : rXUXUXfX' [ c [ ) Y P I aXUXUXfXG h E a r i &XE.U.I._.",
"].<Xm.B.M.D.S.&.;.;.-.;.%.Z.Z.Z.Z.M.1X2X(.t.bXUXUX0XO OX0 + + ; = = NXUXIXQ % * k ] x ] x 7 ! , VXUXUXrX( j > ) ) ( ( I VXUXUX~ G k v V i &X%X#XU._.i.",
"<Xm.B.M.S.&.&.%.#.$.5.5.%.#.Z.Z.c.N.<X X X{.PXUXHXh.@ @ q + + ; = eXIXUXNX$ * * E z ] ] ] c j { IXUXGXj c Y 1 ) _ _ I Q IXUXZXh E 5 n N u &X#XU..X).].",
"<XV.D.S.%.%.$.6.4.4.5.5.-.&.A.c.c.C.s.{.P.wXUXUXxXo @ @ + + - - % gXUXUXtXG W * W j ' ' ' [ ' hXUXUXsX< [ ( ( T ( _ S tXUXUXsX: 5 p q u &X&XQ.`.).].y.",
"3XB.S.@.#.5.5.4.7.7.4.5.*.=.B.N.v.v.r.i.).DXUXUXeXo @ + ; - - * * GXUXIXQ ! ^ ! ! j ' ' [ [ ) VXUXIX~ S R ( D A P 1 ( ZXUXIXiX5 v N u =X&X%XXX.X(.<X,X",
"B.S.&.$.5.5.3.3.3.,.4.$.=.D.B.b.v.r.r.k.*XIXUXGX@ @ ; ; = = - $ eXUXUXMXG h c c j c [ [ [ ) { IXUXZX# Z P T A # H < | IXUXCXg V V w u +XoX~..X X2X1XB.",
"S.S.%.5.4.3.3.3.7.,.#.A.D.N.v.v.p.r.k.d.yXUXUXuXo @ ; = = = & $ gXUXUXtXG j [ [ [ ) ) ) [ _ hXUXUXtX  Z D T P H L L sXUXUXyX4 V M 9 +XoXW.'.).(.<X3XM.",
"S.%.5.7.3.9.3.5.5.#.%.S.M.v.v.r.r.u.k.d.NXUXUX*Xo + + - = & * * GXUXKXK H U 1 ) ) ( 1 Y T 1 ZXUXIX/ A A U ( 1 Y K F ZXUXIX! w w :X-X%Xf..X_.(.<XB.B.D.",
"%.5.7.3.1.1.3.5.-.%.A.x.B.m.p.p.u.k.d.*XIXUXFX@ + + - - & * $ eXUXUXgX# H P U 1 ( T U P A ~ UXUXVX1 T T 1 [ < L G rXUXUXCXn 0 q :X-XW.l.`.(.m.V.M.S.S.",
"5.5.3.1.1.>.5.-.;.A.A.N.n.<X(.].i.l.d.uXUXUXuXo + + - & & * $ gXUXUXrX# J H P P T T D A   fXUXUXaX( ) ) [ [ ! ! > fXUXUXdXd i OX%X~.'.`.{.<Xm.V.S.&.$.",
"7.3.1.1.>.7.5.&.&.S.N.b.<X/.{.)._.f.f.DXUXIX*XX + - - * * $ W KXUXGXJ Z Z Z A A D I D Z Z ZXUXIX/ ) [ [ [ c j z z GXUXIX>Xd =XOX@Xg.).].p.m.3Xx.&.-.5.",
"3.1.<.1.3.5.&.&.D.M.V.m.(.{._.i.@Xf.*XUXUXNXX 5 - - W W W # tXUXUXgX# Z Z Z Z Z A P P A ~ UXUXMX> [ [ [ [ ] x g rXUXUXMX4 &X=X%XXX`.(.(.m.V.B.S.%.5.4.",
"1.1.1.3.4.%.&.D.M.N.m.(. X`._.g.oXO dXUXUXuX4 5 E E W W K # MXUXUX~ Z Z Z Z Z Z J A P A gXUXUXrX> [ [ [ ] ] C 5 mXUXUXyXo &X-X!.XX].s.m.b.3XD.&.#.4.7.",
"<.3.7.5.$.;.&.B.N.b.^.(..XQ.@XoXoX9 GXUXIX>X8 5 E W W W K Q IXUXZXZ Z Z Z Z Z J J H P L KXUXKX^ c ] ] ] ] C 8 E HXUXKXOX+X-XU._. Xs.<X3XB.S.A.$.4.7.1.",
"1.7.5.$.%.A.B.B.m.^.(..XXX~.oXOX9 eXUXUXCXg k 7 E W K K # tXUXUXgX# J Z Z J J J J K H rXUXUXMX> x x z z C C 6 rXUXUXBX3 -XW.k._. X<XV.B.S.S.%.6.7.>.<.",
"7.5.$.%.A.M.3X<X(.(.`.'.~.&X&X%X9 bXUXUXaXg l 7 E K K H A MXUXUX~ Z J J J J J J K K F gXUXUXaXx z 8 7 5 p b b BXUXUXwXR.!.`._.(.<Xv.c.M.A.A.6.7.>.<.<.",
"4.#.%.&.M.N.<Xs.].`.U.@X+X:X:XM v KXUXIXB l j ! G K H A Q IXUXZXJ J H K K K K K K $ W KXUXKXx z 8 5 - - q w >XIXUXHXh.I.XX}. X2Xm.N.M.A.@.#.4.3.1.<.3.",
"5.@.&.D.V.m.].[.).I.@X+X+XM N n iXUXUXMXh 7 h U G H H A tXUXUXtX# K K K K K K K F $ rXUXUXfXg C p + + + + 9 dXUXUXxXd..X}. X(.<XN.M.A.%.$.4.3.1.<.3.4.",
"&.&.S.B.m.^.{.'.W.U.$X$XM N m g dXUXUXrXG L L L L P A A ZXUXIXQ H K F F F $ F W W $ MXUXUXrX6 a p 5 + + q 3 CXUXUX0XI.|. X2Xm.m.z.A.%.#.4.3.1.<.1.7.6.",
"=.S.V.m.s.].Q.Q.oXOXu b b C m g JXUXIX! G L P P P P A ~ UXUXMX# K F F F $ $ * * & Q IXUXGX5 5 q q q q q t >XIXUXFX_.}. X2Xb.v.V.x.@.$.5.3.9.<.1.3.5.-.",
"S.V.m.^.].'.~.#XOX0 i r v C g B IXUXMXS L P P D U U A fXUXUXtX# F F $ $ * & & & $ yXUXUXuXX + + + @ 0 :XR.dXUXUXxXq.(.2X<Xv.N.N.A.$.5.3.3.<.1.3.4.5.&.",
"B.m.<X]._.#X%X&Xy w r a k z , aXUXUXsXS P P D D U T L ZXUXIXQ F F F * & & & - - X NXUXUXeXX @ @ @ @ OX%X~.FXUXIX0Xs.2X1XB.c.M.S.#.6.7.>.1.1.3.5.5.;.&.",
"V.<X(._.#X$X$Xu w a 8 k l c > sXUXUXaXI L P D P Y 1 / UXUXMXF W W & & & - - - X eXIXUXNX+ @ @ @ @ h.h.f.*XUXUXDXs.2X1X3XB.M.=.%.6.5.3.1.1.7.5.5.%.&.B.",
"<X].`.U.+X%Xu w p 8 k l j Y S fXUXUX| 1 Y U Y Y R 1 aXUXUXtXF W W & - - - - ; X mXUXUXyXo @ @ @ h.h.f.d.xXUXUXxXe.<X3X3XD.=.;.5.4.3.1.1.7.5.5.-.&.M.b.",
"s._.W.T.$Xw r a k h h j Y U S fXUXIX| 1 1 1 1 c c , sXUXUXrXF E E - - - ; ; X eXUXUXHXOX@ h.h.f.f.f.g.i.HXUXIXH.v.3X3X=.=.;.5.4.3.1.<.7.4.5.-.&.B.b.C.",
"_.W.~.$Xy w m l h h Y R Y ^ : fXUXUXaX< [ c c c c , aXUXUXyX& E + + + + E + @ GXUXUXuX9 OXf.f.f.f._.P.wXUXUXnXe.V.3X=.*.;.6.5.3.1.<.3.4.6.%.@.S.B.<X[.",
"Q.~.$Xy r k l 7 L Y 1 c ^ ! : sXUXUXaX, x c c h ! 5 rXUXUXZXX X 5 + + + o @ NXUXUXNXOX&XU.g.f.l.i._.{.LXUXUX9Xb.N.S.=.%.#.4.3.1.<.1.7.5.-.;.S.B.<X{.'.",
"T.$Xi a 8 k c < Y 1 c c j h l aXUXUXsX, x z l 7 E E 5 CXUXUXmX+ o o O O eXHXUXUXHX*XU.~.XX'._.u.u.e.xXUXUXSXb.c.A.&.-.#.4.3.1.<.1.7.5.-.;.=.V.m.]..XQ.",
"$Xw r k 7 h > 1 1 j j l 7 7 k >XIXUXVXg V z g 5 5 5 X eXIXUXUXHXmXuXbXFXUXUXUXHX*XI.Q..X.X`.i.u.r.H.IXUXUX9Xc.x.@.-.5.5.3.9.<.1.7.4.%.@.A.N.m.^.`.U.#X",
"i r 8 h ^ Y T < c j l l 8 p p 8 GXUXIXB 6 v m w q q q 4 eXPXUXUXUXUXUXUXUXUXNX*Xw.g._.`. X].a.r.r.DXUXUXnX..S.@.-.5.5.3.3.<.1.3.4.6.;.&.N.m.<X_.'.#XOX",
"r g z ^ Y T Y > h l k p p p p 4 dXUXUXdXX p r b y 9 y u 9 *XbXGXIXUXUXPXDXwXI.l.k.k.u.].(.(.s.e.xXUXUXLXD.D.;.%.6.4.3.3.1.1.3.7.6.%.&.B.V.<X{.'.#XOX0 ",
"g l c } R R c l k v r w w i w q %XIXUXIXeX+ y :X=XM :X:X%XO O h.*X0X0XqXY.P._.u.k.k.r.p.<X2Xt.xXUXUXIXjXO.A.$.6.,.3.9.1.9.3.7.5.-.@.B.B.m.).'.%X$X0 b ",
"7 L R R R c z g v b b M d M u i 4 uXUXUXHXOX&X=X=X=X=X=X$Xh.f.g.f.f.g.I..X X).u.k.u.r.C.m.X.lXUXUXUXkX .Z.#.5.4.3.9.1.1.7.7.6.%.&.M.N.2X(._.@X+Xu b m ",
"L U R R j l 8 v b d 0 t =XE.&X:X$X9 FXUXUXFX-XI.#X~.T.%XT.g.g.U.'.g.k.k._.{.{.a.u.r.C.e.V.nXUXUXUXzXO.Z.#.5.7.3.9.1.1.7.7.5.$.A.=.B.b.].`.U.oXt b p 7 ",
"U R R R c z r y u +XO f.T.$X+X%X~.!.~.HXUXUXJX*X. I.g.g.U..X.X.X`.l.k.u.r.^.2X5XC.v.z.9XLXUXUXUXzXo.-.5.6.7.3.1.<.9.7.5.5.-.@.S.3Xm.p.`.I.T.y b m 7 L ",
"} R R x g r i t E.oXg.@X!.~.g.g.W.!.Y.XXHXUXUXUXxX'.q.d.i.`.`. X.X[.u.r.p.<X,Xn.V.9XAXUXUXUXPXkXo.5.5.5.7.>.1.<.1.7.5.5.$.@.=.B.<Xs.i.`.#X=Xb v 8 ! L ",
"R c c x n i 9 oX~.I.W.W..X.X).).`.)..X}.XXSXUXUXUXPXbX0X[.u.q.t././.e.e.e.<X9XlXSXUXUXUXUXSXjXo.5.6.4.4.7.1.<.1.>.4.5.#.@.A.M.v.s.i._.Q.OXy b g j U T ",
"Y c x n i -X+XU.Q._.i.{.).{. X(.s.a.].].(./.lXPXUXUXUXUXPXDXnXxXlXlXxXnXSXLXIXUXUXUXUXLXkXO.$.5.5.4.7.7.>.1.1.3.7.5.$.Z.A.M.v.s.[.'.Q.=Xu r k h c 1 T ",
"j l m N &XE.W.`.`.s.s.].]././.(.^.^.s.p.2X^.e.5XvXLXUXUXUXUXUXUXUXUXUXUXUXUXUXUXUXSXzX@. .#.6.4.3.7.7.>.1.1.3.7.5.-.&.A.x.m.m.{._.U.+X=Xb 8 h j Y T 1 ",
"x V i =XT.U.`.].(.y.^.^.^.1X,Xb.n.1X,Xm.<X2X^././.6X0XnXFXPXIXUXUXUXUXUXIXLXSXzXjX-.O.%.Z.4.4.7.3.7.1.1.1.3.7.4.5.;.A.x.b.2X X'.I.T.0 q v l ^ Y I 1 j ",
"k V u ~.!..X].^.^.,X,Xn.,XV.B.N.V.3X1Xm.s.2X(. X6X2Xp.e.y.6X9X0X0XkXkXjXG.x.@.+.O.-.8.6.4.4.,.>.1.1.1.1.3.7.6.$.;.A.c.v.m. XXXXX~.0 9 a z j R R T Y 7 ",
"r u -X;X|. X^.1XK.K.n.K.X.M.X.B.b.b.C.^.(.^.s.(.].].s.C.v.,X,X,Xb.x...&.Z.Z.S.;.$.5.5.5.4.>.1.<.<.1.>.3.7.4.#.@.=.M.B.m.p.`.'.~.&Xy n g c Y T ( L h k ",
"d E.!.|./.y.V.K.K.....K.=.&.K.n.b.<Xs.].(.^.^.^.a.s.p.m.m.3X4X4X3X3XD.S.S.@.%.5.6.4.5.7.3.1.<.<.1.3.3.7.5.#.#.&.3X3X1Xs.i.`.oXE.0 b k h [ ( T 1 h z b "
};
