/* XPM */
static const char *MQ__[] = {
/* columns rows colors chars-per-pixel */
"75 75 239 2 ",
"   c #4D006C",
".  c #53006D",
"X  c #500067",
"o  c #550071",
"O  c #5B0373",
"+  c #5E0776",
"@  c #540674",
"#  c #620978",
"$  c #671975",
"%  c #6D196F",
"&  c #722577",
"*  c #742E75",
"=  c #7A4A79",
"-  c #833371",
";  c #AD6F5D",
":  c #89477A",
">  c #8E506F",
",  c #A75265",
"<  c #896973",
"1  c #977170",
"2  c #B67A78",
"3  c #AF7171",
"4  c #A8515E",
"5  c #CC7B59",
"6  c #CA755A",
"7  c #C77869",
"8  c #BDAA5C",
"9  c #BCB75C",
"0  c #9B9571",
"q  c #BB8A6C",
"w  c #B49C6C",
"e  c #BA9769",
"r  c #AD847D",
"t  c #AC8C7C",
"y  c #A98C78",
"u  c #B38C74",
"i  c #B68575",
"p  c #AD9576",
"a  c #AC9B75",
"s  c #A5947E",
"d  c #AA947B",
"f  c #A59C7D",
"g  c #A99B7A",
"h  c #A29D72",
"j  c #B29773",
"k  c #AD9E6F",
"l  c #9EA97C",
"z  c #9CB77A",
"x  c #9FA06E",
"c  c #ADAC6D",
"v  c #AFA46E",
"b  c #BBA364",
"n  c #BBAB63",
"m  c #B3A46B",
"M  c #B2AB6A",
"N  c #B7A967",
"B  c #ACB46C",
"V  c #ACBB6C",
"C  c #AAB969",
"Z  c #B4B365",
"A  c #B7B765",
"S  c #ABA374",
"D  c #A5AC75",
"F  c #AAAA73",
"G  c #A4A37B",
"H  c #A3AB7B",
"J  c #A8A578",
"K  c #B1A273",
"L  c #A5B374",
"P  c #A5B575",
"I  c #B3B772",
"U  c #DB864C",
"Y  c #CB8859",
"T  c #D58555",
"R  c #C79A5B",
"E  c #D69356",
"W  c #E28D50",
"Q  c #C3AB5B",
"!  c #C5A659",
"~  c #C5B558",
"^  c #D5A551",
"/  c #C58965",
"(  c #C49862",
")  c #CA8E69",
"_  c #C2A663",
"`  c #C0B261",
"'  c #B7C85C",
"]  c #B7D15D",
"[  c #ACC868",
"{  c #B4C464",
"}  c #A9C86D",
"|  c #C3C559",
" . c #690E82",
".. c #6A1484",
"X. c #741A8C",
"o. c #781D91",
"O. c #7D2395",
"+. c #6E338A",
"@. c #71478E",
"#. c #7D7AAC",
"$. c #7E6DB6",
"%. c #7B65BD",
"&. c #766DBE",
"*. c #7B6CBB",
"=. c #7A67B9",
"-. c #6F78BB",
";. c #7D74B5",
":. c #7D7AB3",
">. c #7672BC",
",. c #7A73BA",
"<. c #7678B7",
"1. c #746BAE",
"2. c #775EAC",
"3. c #6E5ECE",
"4. c #735FC8",
"5. c #675CD5",
"6. c #6A5DD2",
"7. c #6D62CC",
"8. c #6E6AC5",
"9. c #7465C5",
"0. c #746BC3",
"q. c #7163C9",
"w. c #7667C3",
"e. c #6A60D0",
"r. c #7271C1",
"t. c #83299C",
"y. c #8D32A6",
"u. c #9337AC",
"i. c #983CB2",
"p. c #8A2EA3",
"a. c #8A5887",
"s. c #9C7B8D",
"d. c #9D6D95",
"f. c #9A6D9A",
"g. c #966D9D",
"h. c #8E7D9E",
"j. c #8A7C98",
"k. c #9C7394",
"l. c #9B7B94",
"z. c #95749C",
"x. c #9A729A",
"c. c #937B9C",
"v. c #977C98",
"b. c #8A6B8A",
"n. c #AC7B84",
"m. c #A5738D",
"M. c #A37B8C",
"N. c #AA7886",
"B. c #B27A84",
"V. c #A37692",
"C. c #A26A88",
"Z. c #9D41B6",
"A. c #A245BB",
"S. c #856DAD",
"D. c #8B6CAB",
"F. c #8C6AA9",
"G. c #926DA3",
"H. c #8C75A4",
"J. c #857CA6",
"K. c #8B7CA3",
"L. c #8575AD",
"P. c #8973AA",
"I. c #847CAC",
"U. c #8A7AA9",
"Y. c #8676A6",
"T. c #9272A2",
"R. c #907CA0",
"E. c #8364B4",
"W. c #836BB3",
"Q. c #8466B5",
"!. c #8274B2",
"~. c #817AB1",
"^. c #8872B0",
"/. c #AA4DC4",
"(. c #A548C0",
"). c #AE51C8",
"_. c #B255CC",
"`. c #BA5CD4",
"'. c #BF61D9",
"]. c #C264DD",
"[. c #CB6CE6",
"{. c #CD6EE9",
"}. c #C668E1",
"|. c #CF70EA",
" X c #D172ED",
".X c #7C84AA",
"XX c #7782B4",
"oX c #7286B0",
"OX c #9D848D",
"+X c #9B8C8C",
"@X c #998D8B",
"#X c #9E9486",
"$X c #9D9C84",
"%X c #95938E",
"&X c #9B938B",
"*X c #949B8D",
"=X c #9B9A8A",
"-X c #8D849D",
";X c #878C9E",
":X c #8C8B9C",
">X c #8B8899",
",X c #958595",
"<X c #9A8492",
"1X c #948C94",
"2X c #998A92",
"3X c #92839A",
"4X c #928A99",
"5X c #9B8399",
"6X c #8D9395",
"7X c #8C929B",
"8X c #8B9896",
"9X c #939392",
"0X c #929992",
"qX c #979594",
"wX c #8F9E8E",
"eX c #A58485",
"rX c #AA8483",
"tX c #A48D84",
"yX c #AA8C82",
"uX c #A2838B",
"iX c #A6898B",
"pX c #A39484",
"aX c #A29B82",
"sX c #A59687",
"dX c #A38C92",
"fX c #9CA383",
"gX c #9AAA81",
"hX c #9AA389",
"jX c #96A688",
"kX c #8FA88D",
"lX c #A2A583",
"zX c #A0B480",
"xX c #8484A4",
"cX c #8A83A3",
"vX c #858AA3",
"bX c #898BA1",
"nX c #8483AB",
"mX c #8787AA",
"MX c #8A8CA4",
/* pixels */
"pX=X1X>X;XxX#.#.:.E.;.<.<..X.XvX-XbX3X:X>X3X3X>X3X-XH.G.Y.nXnXI.!.;.,.=.=.&.w.9.q.q.q.7.6.5.5.6.7.7.q.0.r.,.;.nXmXcXcX:X0X*XhXfXG F e A ~ ~ Q n m D G ",
"M.1X>Xh.xX#.#.;.$.>.>.<.:..XxX;X;X>Xc.>X>Xv.x.3X;Xh.H.K.U.L.I.~.E.$.,.%.%.0.9.4.3.3.3.6.5.5.6.7.q.q.0.>.,.W.L.mXcXz.c.9X%X=XaXH L V { { ] ' { B L J fX",
"qX,X-XY.#.W.=.>.=.>.-.:.#.Y.h.;X-X:X1X1X,X1X3X:X-Xz.K.Y.I.D.L.:.;.*.>.0.0.q.q.7.3.6.5.5.5.6.7.7.9.0.>.<.W.E.D.cXR.x.,XOXN.n.t P L C { ] ' { C q J s n.",
",X>XG.S.:.%.=.&.&.-.XX#.xX;Xh.>X,X6X9X,X,X,X4X>X3Xh.K.Y.L.L.;.;.,.>.0.0.q.7.7.e.6.5.5.6.7.7.7.q.0.,.,.;.W.D.K.bX:X:X1XN.tXs H F B [ ' ] 9 N } a f $X&X",
"3XK.F.#.<.%.%.8.-.oX.XJ.;X;Xc.6X,X9X0X9X<X<Xv.v.:Xh.H.Y.L.:.;.$.*.0.0.9.q.7.7.6.5.5.7.7.7.q.q.0.,.<.:.:.L.U.bXMX7X6XM.n.fXzXJ / B A ~ ' ( m z z fX+X0X",
"-XY.S.<.>.4.8.&.<.XXJ.xX>X>X1X1XOX*XwX0X1X,X1X4X:Xc.K.Y.P.~.!.*.&.0.9.9.q.3.6.5.6.3.q.q.q.9.0.,.!.!.~.L.D.H.bX7X7X9XN.tXgXH q e [ 8 8 [ M v u gXjX%X4X",
"K.S.E.&.%.9.8.&.;..XxX>X:X1X1XOX%X&X*X+X@X9X<X,X3Xc.K.P.L.~.~.*.&.0.0.9.q.e.6.e.7.q.0.9.w.%.=.;.W.D.L.P.G.z.:X7X8X+XN.r H K q B [ ' Z V } a s jX*X6X-X",
"Y.S.E.&.&.9.&.;.L.xX>X6X8X%X+X+X&X#X=X&X&X9X2X<X4X3XT.Y.I.~.;.*.&.0.q.q.7.7.7.7.8.0.0.0.&.&.,.;.S.D.L.U.H.h.:X9X0X+Xn.r H P B Z 8 9 / B P l jXkXwX8XcX",
"#.;.,.-.8.-.<..XxX-X3X9X%X+X#X#XpXpXpXhX=XOX2X2X4Xc.K.Y.P.~.W.*.0.q.8.q.7.7.3.q.9.0.&.&.*.,.:.:.L.L.nXxXbX;X4Xl.@X&Xr g P P V Y R N m K d aX#XkX8X>XK.",
"L.;.&.&.&.<..XxX>X>X,X@X&X#XaXaXpXpXpXpX#X+X@X2X,Xc.K.Y.L.~.;.*.0.q.8.q.7.3.q.9.q.&.=.*.=.$.:.:.I.I.xXvXbX7X9X2X&X=XfXH D P V n N B P g f $X&XkX8X;XnX",
"#.;.-.>.<.#.J.;X6X1X+X#XtXpXf f f aXpXaX$X#X&X2X,X3XR.H.L.:.;.>.0.9.7.8.8.8.9.0.&.*.=.Q.Q.W.:.I.P.G.K.bX7X6X9X=X=XjXf u S B b C V P P G fX=X%X8X>XK.xX",
"#.oX-.>.W.J.-X>X9X%X#XtXyXs f G G f s s pXtX&X@X,X3Xc.H.I.I.;.=.%.9.8.8.8.w.0.&.*.*.$.W.W.S.L.nXU.T.h.;X3X,XM.n.tXfXt i S e / M } z H pXtXjX0X8X;XH.Y.",
".XoX<.#.Y.h.3X2X+X#XaXs g g g G G g f f aXtX+X&X1X,Xc.K.U.L.;.=.&.0.0.w.0.&.>.,.,.:.:.~.~.L.nXmXcXcX-X3Xk.s.uXn.tXfXG D m / e c P z z aX#X@X,X6X;XK.xX",
"I.#.L.J.h.3X@X+XeXpXlXf G J a g G g d f aXpX=X&X1X,Xc.K.P.S.!.<.>.&.>.%.*.XX<.2.@.+.+.+...+.+.+.a.j.4Xl.l.+X=XhXgXzXz L w e c L z z gXjX*X*X1X,X;XvX.X",
".X.XY.-Xv.l.&X#XpXaXf G J J a p a g d d f fX=X&X9X,Xz.K.U.L.W.;.*.=.,.<.1.@...O X X X . o . X   . O & b.2X*XjXjXfXf P F M B P P z z gXjX*XwX6X6X>XxXxX",
"vXxX>X1Xl.OX&XpXtXf g g a a a a a S G G G pX#X%X0X1Xc.G.H.nXI.:.=.,.:.+.+ . X + o.u.A./.)./.A.u.o.+ . o $ b.kX$Xy g D q e P L D l l $X$XjX%X1X6X6X7X;X",
";X;X6X6X@X&X$XpXd g g p p a S S a p d f fXpXuXOX9X9X:X-XT.U.nXXXXX1...o .  .i.`.{. X X X X X X X{.'.i. .. O = s g z P q w S a g G f pXeX*X+X%X0X>X>X;X",
">X1X9X*X+X#XpXpXf d p p a a S J a p t t $X#XuXM.2X9X:X;XcXcXnXmX1.# . O i.}. X{.[.[.[.[.[.[.[.[.[.{. X}.u.O . * f H L P m j u i f f fX=XjX*X*X0X1X,X>X",
",X2X%X&X#XtXtXaXG d t d G a a a J g t yXpX=X@XOX<X,X3X;XbXvXvX#.+ .  ._. X[.[.[.[.[.[.[.[.[.[.[.[.[.[.[. X).# . * j k P L D a g g r fX$XjXhX&X+XqX9X6X",
"+X+XOX#X#XpXpXs s g d g g J g g G f pXpXpX=X*X9X1Xv.x.3X;XMXvX$ .  .'. X[.[.[.[.[.[.[.[.[.[.[.[.[.[.[.[.[. X_.+ o < } P S a D z G l zXfXfX$X=X=X=X%X@X",
"@X+XuXpXpXpXaXf f f d t d g G G G $X$X=X=X&X0X0X0X,Xk.f.-X7X@.. # `. X[.[.[.[.[.[.[.[.{.{.{.[.[.[.[.[.[.[.[. XA.. $ x c u u a z z z z l gXaXaXaX#X&X%X",
"eX#X#XpXpXpXaXaXaXf d d d s f lXaX$X=X=X&X+X+XqX0X9Xv.d.v.b.O . (. X[.[.[.[.[.[.[.{. X}.'.].{.|.[.[.[.[.[.[.[.|.O.  : B D L L P g u G H H l f f fX+XuX",
"eXtX#XtXtXpXtXeXpXpXpXtXyXyXaX$X=X=X=X=X&XuXM.M.2X9X9Xv.5X+.X t. X[.[.[.[.[.[.[. X`.p. .+ # O.`.|.[.[.[.[.[.[. X/.. $ D L K D L a u S H p a H d pX#XeX",
"#X#XpXpXpXtX#XtXtX#XtXtXtXpX#X=X=X&X*X*X%XOXV.V.V.2X0X0Xj.O O `. X[.[.[.[.[.[. X/.#   O # # . O _. X[.[.[.[.[.[.}. .o 0 B q q L P L L P k a J s aXtXeX",
"$X#XpXpX#X&X+X+X+X#X#X#X#X&X&X&X&X&X9X0X%X+XM.V.m.M.1XwX@.X O. X[.[.[.[.[.[.|._.O . = s.&X+X= X o.{.[.[.[.[.[.[.|.t.. 1 I / q B B v B M B j g f $X#X#X",
"#X#X+X+X#X+XOX+X+X@X&X&X&XqX9X1X2X<X<X1X0X9X<Xm.m.m.s.%X$ . /. X[.[.[.[.[.[.[.X.. = lXB.n.fXjXO + ].{.[.[.[.[.[. Xy.  < [ q / m e e Z ( e w g f $X$X$X",
"pX+X+X+X@X@X2X1X2X2X2X9X9X1X1X1Xv.l.l.l.,X9X9X<Xm.m.M.b..  .}.[.[.[.[.[.[. X/.. $ jXgXpXB.d 0 O # ].{.[.[.[.[.[. Xy.  < [ M / / e C V M e J g f aXpXtX",
"pX#X+X+X1X1X,X,X,X,X1X9X4X:X>X:Xv.x.x.k.k.<X9X0XOXM.uX*   y. X[.[.[.[.[.[. XO.. < zXt f f H < . O.{.[.[.[.[.[.[. Xt.. 1 [ V Z ( A A b V m j g s tXtXeX",
"#X%X2X<X,X3Xv.v.3X3X:X:X:XbXbXbXh.z.f.f.d.k.<X0X0X&XOX# o _. X[.[.[.[.[.{.].+ O 3 g 2 2 d P * . Z. X[.[.[.[.[.[.[.X.. 0 [ Z 8 { { A N e F D g s pXpXtX",
"&X9X,Xv.3X3Xc.R.K.K.K.cXcXxXxXxXcXT.g.f.d.d.k.1X*XhXb.. X.[.[.[.[.[.[.[. XZ.  & 7 i u 2 2 y O + '.{.[.[.[.[.[.{.`.O # C { R E 9 R Z V w u a f s tXpX=X",
"s.,X3Xc.-XcXcXcXH.P.P.U.nXJ.U.nXxXK.T.g.f.d.k.<X%XjX* X u. X[.[.[.[.[.[.{.O.  < 7 3 u p ) >   O.|.[.[.[.[.[.}. XZ.  * ! ' ! Q 9 R A V v q p f aX$X=X&X",
"<X4X3XK.K.K.U.U.L.L.!.:.~.S.S.L.J.nXK.z.f.d.d.l.&X@X# O `.|.[.[.[.[.[.{.`.O + h w 2 q L B & . A. X[.[.[.[.[.[.[.o.  4 E ' ] ] { n B e u u d lXtX#X&X+X",
"3X-XK.K.U.U.L.~.:.;.;.;.W.Q.E.Q.S.I.mXcXc.z.k.l.dXa.. o.{.[.[.[.[.[.[. Xi.  - e B v v V x o # ].{.[.[.[.[.[.|.`.O # Y ~ ] ' 9 R / e / a g g aX=X+X2X<X",
"3XcXK.I.L.~.~.;.,.,.>.,.=.E.E.E.Q.L.xXbX:X3Xv.s.N.&   i. X[.[.[.[.[.[.[.X.. , / w V C [ <   t. X[.[.[.[.[.[. Xu.  = | ~ 9 ' Y Y / m S P g aXyXeX@X<Xv.",
"cXK.I.L.!.;.,.*.%.&.0.r.&.Q.E.E.F.H.cXMX6X1Xl.m.C.O O `.{.[.[.[.[.[.|.`.O # 7 7 / Z [ [ & . /. X[.[.[.[.[.[.[.X.. 0 ~ U R 9 _ b / q D H f aXtX&X9X,X-X",
"cXU.I.!.=.*.&.w.9.9.q.0.>.!.Q.D.D.T.c.4X9X2Xs.n.:   O.{.[.[.[.[.[.[. Xu.  - ) 5 / N [ x o  .}.[.[.[.[.[.[. X_.o $ ' ! T Q { V e q j u f aXaX&X2X,X>XK.",
"nXL.~.*.%.0.q.9.q.q.9.0.<.:.I.P.G.G.x.l.2X@XuXn.& . A. X[.[.[.[.[.[.[.... 3 ` ( ( n ] <   p. X[.[.[.[.[.[. Xu.  > | { ` n C V e S H g fXaXsX0X1X>XcXnX",
"I.^.,.&.0.9.7.7.7.3.w.&.:.I.I.Y.G.g.d.V.M.uXeXC.o # ].{.[.[.[.[.[. X_.o % b A A n A { $ o ). X[.[.[.[.[.[.}. .o ; ~ { A b b M P P p f eXeX&X9X6XbXvXU.",
"~.!.*.0.9.7.7.7.7.4.%.W.~.P.G.G.z.f.d.m.N.N.rX:   t. X[.[.[.[.[.[. Xy.  > ~ 9 { { ] 0 o ..[.[.[.[.[.[.[. X).o % Y R A { m 7 j P G t tXeX*X2X,X:XcXnXL.",
"!.*.0.9.7.e.7.8.0.%.=.!.L.G.G.g.x.k.m.m.N.B.n.% . A. X[.[.[.[.[.[.}. .o ; ! 9 ' ' ' >   u. X[.[.[.[.[.[. Xp.  > E 5 _ V m q a p lXfX#XN.9X,X-XcXU.L.~.",
"*.0.q.7.6.6.7.0.,.=.W.S.I.K.z.x.l.k.m.m.N.B.1 o # ].{.[.[.[.[.[. X/.o % T E ! 9 ' 8 $ o _. X[.[.[.[.[.{.}.# o ; Y / ) m L D u i lXjX&Xm.1X:XK.U.L.!.$.",
"0.9.7.6.5.3.q.,.,.W.Q.P.J.cX>X,Xl.m.m.N.n.2 -   t. X[.[.[.[.[.[. Xt.  , U T E R ~ ; . X.[.[.[.[.[.[.[. X/.o % ( b / 7 q P H f yXyX&X1X,X>XcXcXL.~.$.&.",
"9.7.6.5.3.q.*.,.;.!.P.U.cX;X4X,X<XN.N.n.2 2 $ . /. X[.[.[.[.[.{.].# o 6 U U U U ^ >   u. X[.[.[.[.[.[. Xt.  < { c q q a H l fXrXiXM.,X3Xz.K.mXS.;.,.0.",
"3.6.5.6.q.0.,.;.~.L.Y.cX:X4X,Xs.uXM.n.2 i 1 o  .}.[.[.[.[.[.[. XA.  & U U U U U T + O `.|.[.[.[.[.[.{.].# o x V m j S g r aXhXsXqX1X4X;XK.U.I.~.*.0.9.",
"6.6.6.7.9.*.;.~.L.P.K.:X6X1XOXM.M.rXt t j :   y. X[.[.[.[.[.[. Xt.  4 W U U U W 4   o.{.[.[.[.[.[.[. XA.. * B q 2 u g 2 2 $XhX*X0X3Xz.K.Y.I.~.,.%.9.7.",
"5.7.q.0.&.,.;.L.Y.H.-X:X9XqXuXeXeXr t g a $ o ). X[.[.[.[.[.{.].+ O 6 U U U U W -   i. X}.[.[.[.[.[.{.O.. < m 2 2 i g r tX*X+X<X6X3XcXnXI.L.W.&.w.q.6.",
"6.q.0.&.*.W.I.U.K.-X:X9XqX&XtXrXr r p F 0 o  .[.[.[.[.[.[.[. XA.  - W U U U U 6 O + `.{.[.[.[.[.[.{.`.O + x K i i f fXaXhX&Xm.<X7XcXU.I.~.^.=.w.q.3.5.",
"q.0.&.*.W.L.nXcX-X:X1X2XsXaXaXpXt p a I <   p. X[.[.[.[.[.[.{.O.  4 W T T T W ,   O.|.[.[.[.[.[.[. XZ.  * F H g G $XpX=X*X9X,X7XcXG.D.L.Q.Q.w.q.3.5.5.",
"0.&.*.;.L.P.cXc.3X,XOXiXyXlXlXG a J F I =   Z. X}.[.[.[.[.{.`.O # 5 T T T T T &   A. X[.[.[.[.[.[.{.o.. > a l gXaXrXB.+X0X7X7XbXK.P.L.!.*.%.9.7.6.5.7.",
"0.*.;.~.L.K.3X3X,X+XuXyXyXG H D L F c m * o /. X[.[.[.[.[. XZ.  - T T T 5 T ; o # ].{.[.[.[.[.[.|.`.O # 3 d gXjXtXB.N.1X7X7XbXcXP.L.W.=.&.9.7.6.5.7.9.",
",.;.~.I.K.-X4X2X&X+XpXs G H D F L B M e % o _.|.[.[.[.[.[. Xy.  , T 5 5 Y 5 &   u. X[.[.[.[.[.[. Xu.  - i aXjXhXpXuX2X7X7X;XK.K.F.Q.=.%.9.7.6.5.6.q.w.",
":.!.P.K.h.<XqX&XeXeXf G H P B c B B n R % o `.|.[.[.[.[.[. Xy.  > E T T 5 -   ..}.{.[.[.[.[.[.{.}. .. 1 aXhXhX#XuX<X9X7XbXH.G.U.S.$.&.q.7.e.5.6.7.0.,.",
"~.L.K.-X3X2X&XpXrXt g a S c B B Z Z 8 R * o ). X[.[.[.[.[. X).. # , , , & . O _. X[.[.[.[.[.[. XZ.. & aXhXhX&XN.m.l.:XbXcXG.P.^.W.&.0.7.7.6.6.7.9.&.,.",
"L.K.-X3X<XdXsXaXd g a k m B Z A A 9 Q ^ >   i. X[.[.[.[.[.[.|.u.o   .      ._. X[.[.[.[.[.[.{.].# . > sX=X*X2XV.k.3XbXvXJ.F.L.!.=.w.9.3.6.6.7.q.0.<.;.",
"U.cX:X<XiXpXpXf a j w m M n n 8 ' 9 ~ ~ ; . X.[.[.[.[.[.[.[.[. X).t.o.t.Z.}. X[.[.[.[.[.[.[. Xp.  & B.n.uX9X1Xv.3XbXvXnXL.L.:.*.w.8.7.6.6.q.9.0.*.!.I.",
"K.3X1X&XtXpXg p u w m b n ! R R Q Q 9 ~ 8 # o _. X[.[.[.[.[.[.[. X|.[.{. X[.[.[.[.[.[.[.[. XA.o o C.B.m.s.1X3Xv.z.cXnXnX~.:.<.0.9.7.6.6.q.0.0.>.;.L.H.",
"v.<X&X#XpXd a v m b b n Q ! R R R n A A | >   X.[.[.[.[.[.[.[.[.[.[.[.[.[.[.[.[.[.[.[.[. X/.O o - n.M.l.,X4Xx.g.T.nXnX:.:.<.0.9.3.6.5.7.9.0.>.;.~.Y.c.",
"<X&X#XpXg a c M b n ! ~ Q ! R R ( A A { { Z $ . y. X[.[.[.[.[.[.[.[.[.[.[.[.[.[.[.[.[. X/.+ . & m.l.1X4X:Xc.g.T.U.nX:.:.*.&.q.7.6.5.7.9.w.*.$.L.Y.cXv.",
"&X=XpXd a v M b R Q 9 A _ ( e b n Z C A C { 1 o . y.[.|.[.[.[.{.[.[.[.[.[.[.[.[.[. X{.i.o . $ C.M.<X:X;XbXcXK.T.P.~.<.*.%.9.7.6.5.6.q.0.>.<.~.U.cX4X1X",
"#XpXg j w b Z 9 8 9 A A N e M B B M Z B C B Z 1 O . X._.|. X{.{.[.[.[.[.[.[.{. X|.).X.. o & s.l.x.x.c.bXvXmXU.F.Q.;.>.&.9.7.6.5.6.q.0.,.,.:.L.K.3XqXqX",
"aXp a m e e 8 9 9 n n M e e m c m w m B B B c e 3 %   O O./.].{.|. X X X|.[.`.Z.o.o . O @.,Xl.d.d.f.T.cXmXmXP.Q.$.>.0.q.7.e.5.6.q.9.*.*.W.P.K.-X1XiXtX",
"g a m b _ Q ~ 8 A N M m w j j w j w F F S S D p q 2 : # . o # o.t.y.u.y.t...+ . X O & b.0X3Xz.f.g.g.H.nXnXI.~.*.>.0.q.7.7.5.6.7.9.%.,.;.P.K.cX5X&XiXr ",
"a c B A Q ~ Q 8 b M m j p p u u p S D a i u g G d t g s > & + . X       X . + & +.a.l.,X>X-Xc.z.T.T.U.~.~.~.<.&.w.q.7.7.6.6.7.q.w.*.;.I.U.cX4XdXiXrXt ",
"c M n { ~ ~ Z N m v a p p g p u p p d p i i d gXfXlXfXlXsX2 3 > : : a.a.b.b.s.k.V.V.f.z.-XbXcXK.U.I.~.!.W.$.&.w.9.7.e.6.7.7.q.0.>.;.I.U.K.3X2XsXpXp J ",
"e R ~ ~ ~ n Z c S D G G l G f g t r t pXyXyXaXfXjXjXhXhXtXn.n.eXiXiXiXdXqX0X,Xk.V.x.f.z.K.xXmXnX~.:.!.Q.E.%.0.q.q.e.6.3.q.q.w.*.;.L.P.bX4X<XiXyXs a F ",
"R ! ~ ~ _ M e a J l t s fX$XaXfXpXrXpX#XtX$X=XtXtX=X#XsX&XuXM.@X@XM.m.V.v.>X4Xv.x.x.G.T.U.mXnX:.:.:.*.=.%.w.q.7.e.6.6.q.q.w.&.$.:.U.H.3X1X@XtXs G j e ",
"! ~ ~ n A B a p f eX2 N.#XpXtX#X&X*X*XOXN.+X&XM.N.OXM.N.@X9X9X9X9XM.V.d.x.3XbX3XT.G.G.P.I.I.:.:.<.<.&.0.w.q.3.6.5.e.q.8.0.>.$.~.nXK.z.,X+X#Xs G F e R ",
"| ~ ` C c a g s $XtXM.OX*X&XuXM.%XwX0XOXs.+X0XOXm.<Xs.m.l.1X,X6X6X<Xd.f.z.K.bXcXU.L.L.~.:.:.:.<.>.&.0.q.q.3.6.5.6.q.q.0.&.*.;.I.cXc.l.1XtX$XG S w R ! ",
"~ A Z V D g r eX=XOX%X%X0X9X,X,X1X<X6X6X6X6X8X6X1X6X,Xl.<Xx.k.3X7X:Xc.z.T.cXnXmXnXI.:.:.:.<.,.>.0.w.9.9.q.6.5.6.3.9.0.%.W.Q.L.T.v.l.<X&XrXd J M Z ! ~ ",
"Q Z V D g gXtX+X9X<Xl.1X,X,X6X:Xv.z.3X3X:X:X3X:X7X7X7X:X:Xz.f.c.bXbXcXK.J.nXnXnX:.:.:.;.*.*.&.0.q.q.q.q.3.6.6.7.q.0.&.=.Q.L.G.z.5X<X&XhXf a m b A 9 ~ ",
"n M S H aX=X&X1X1Xv.c.c.3X>X;X;X>X>Xh.z.;X-Xf.-X7X7X7X7X;X-Xz.R.K.nXnXnXU.I.~.:.:.:.,.=.Q.%.9.9.7.q.q.6.6.6.7.q.q.>.,.W.S.U.R.4X<X+XtXfXG w b n ~ ~ 9 ",
"C L g fX#X@X1X3X>Xh.-X-X;XvXxXH.J.vXxXK.cXbX>X;X7XbX-X>XbXvXxXK.G.P.nXL.S.^.~.:.<.,.,.%.%.w.9.q.q.7.6.6.6.7.q.w.&.,.W.S.H.bX7X1XOX=Xt i K N n Q ! 9 n ",
"v l f =X*X9X3X-X;XxXxXJ.xXY.I.P.L.xXvXh.c.;X;X7X7X:Xz.z.K.vXvXcXG.F.I.L.Q.Q.!.<.,.,.,.w.w.9.3.3.6.6.6.3.7.q.w.&.<.W.D.G.K.:X0X0X=Xt u k B A ~ ~ Q ! e ",
"a f jXkXwX7X>XvX.X.XJ..X#.S.#.I.P.H.T.-X:X-Xc.:X3X3Xz.z.T.cXmXmXU.L.:.;.Q.Q.*.,.&.w.0.0.9.3.6.5.5.6.3.7.q.9.%.*.:.L.I.K.z.4X2X=XaXd D m A Q ~ ' R b v ",
"l hX*X6X>Xh.U..X.X#.#.XX:.;.#.J.K.cXc.3X>X>X>X-Xx.z.z.K.U.nXmXnXnX:.;.!.!.*.&.0.w.9.9.q.7.6.5.5.6.7.7.8.0.%.=.;.nXmXvXc.l.1XuX$Xr S w b { ' ~ 9 n B D "
};
