/* XPM */
static const char *Mg__[] = {
/* columns rows colors chars-per-pixel */
"75 75 248 2 ",
"   c #4D006D",
".  c #4E0067",
"X  c #53006D",
"o  c #540071",
"O  c #5A0272",
"+  c #5E0976",
"@  c #4F0070",
"#  c #630979",
"$  c #651475",
"%  c #6E186F",
"&  c #742C74",
"*  c #7E5476",
"=  c #85346D",
"-  c #B36A5C",
";  c #954E6F",
":  c #937374",
">  c #BE7B6D",
",  c #BD7573",
"<  c #BB7A73",
"1  c #B47A7B",
"2  c #B6757A",
"3  c #AE6E75",
"4  c #A85364",
"5  c #CC7C5B",
"6  c #D07957",
"7  c #C37B6B",
"8  c #C77867",
"9  c #CA776A",
"0  c #BEAA5D",
"q  c #BBBB5B",
"w  c #BCB65B",
"e  c #999277",
"r  c #BB8B6C",
"t  c #BB856D",
"y  c #B49C6C",
"u  c #BA9768",
"i  c #AD847D",
"p  c #AB8C7C",
"a  c #AC8A7A",
"s  c #B58375",
"d  c #B48C73",
"f  c #B68576",
"g  c #AD9476",
"h  c #AC9B75",
"j  c #A5957E",
"k  c #AA947B",
"l  c #A59B7D",
"z  c #A99B7A",
"x  c #A69E76",
"c  c #B39472",
"v  c #B29B72",
"b  c #B0967B",
"n  c #A59964",
"m  c #9DAB7D",
"M  c #9CB77A",
"N  c #ADAC6D",
"B  c #AFA46E",
"V  c #BBA364",
"C  c #BBAB63",
"Z  c #B3A36B",
"A  c #B3AC6A",
"S  c #B7AA66",
"D  c #ADB46C",
"F  c #ACBC6C",
"G  c #A9BA6C",
"H  c #B5B464",
"J  c #BCB364",
"K  c #B4B866",
"L  c #ABA474",
"P  c #A5AC75",
"I  c #ABAB72",
"U  c #A4A37B",
"Y  c #A3AB7B",
"T  c #A8A578",
"R  c #B1A572",
"E  c #A5B474",
"W  c #A3BB72",
"Q  c #A7B476",
"!  c #B8985D",
"~  c #D9874D",
"^  c #CB8A5A",
"/  c #D58856",
"(  c #C49C5D",
")  c #C99659",
"_  c #D49651",
"`  c #C3AC5B",
"'  c #C5A658",
"]  c #C3B35B",
"[  c #C5B656",
"{  c #D0A152",
"}  c #C68765",
"|  c #C49862",
" . c #D68165",
".. c #C2A662",
"X. c #C0B261",
"o. c #E2944A",
"O. c #B4CB5D",
"+. c #B9C55A",
"@. c #B8D35A",
"#. c #ACC36A",
"$. c #ACC567",
"%. c #B2C363",
"&. c #B5C765",
"*. c #A5C171",
"=. c #C4C15A",
"-. c #670C81",
";. c #680E81",
":. c #6B1385",
">. c #73188B",
",. c #771E90",
"<. c #752E90",
"1. c #764A8E",
"2. c #7E7AAD",
"3. c #7E6EB6",
"4. c #7B65BD",
"5. c #766DBE",
"6. c #7B6CBB",
"7. c #7967BA",
"8. c #7D74B5",
"9. c #7D7AB3",
"0. c #7672BC",
"q. c #7A73BA",
"w. c #7678B7",
"e. c #7173B7",
"r. c #7F6482",
"t. c #6E5ECE",
"y. c #735FC8",
"u. c #675CD5",
"i. c #6A5DD2",
"p. c #6D62CC",
"a. c #6E6AC5",
"s. c #7465C5",
"d. c #746BC3",
"f. c #7163C9",
"g. c #7667C3",
"h. c #6A60D0",
"j. c #7271C1",
"k. c #83289B",
"l. c #892DA2",
"z. c #9338AC",
"x. c #9338AC",
"c. c #996588",
"v. c #9C7B8C",
"b. c #9D6D95",
"n. c #9A6D9A",
"m. c #966C9B",
"M. c #8E7D9E",
"N. c #8B759C",
"B. c #9D7394",
"V. c #9B7B94",
"C. c #94749D",
"Z. c #937B9C",
"A. c #987899",
"S. c #8A6E8D",
"D. c #AD7583",
"F. c #AB7B84",
"G. c #A5748C",
"H. c #A37B8B",
"J. c #A87888",
"K. c #B27682",
"L. c #A37692",
"P. c #A96C8C",
"I. c #9E41B7",
"U. c #A346BC",
"Y. c #856DAD",
"T. c #8B6CAB",
"R. c #8B69A9",
"E. c #926DA3",
"W. c #8C75A4",
"Q. c #857CA6",
"!. c #8B7CA3",
"~. c #8574AD",
"^. c #8A73AA",
"/. c #847CAC",
"(. c #8979A8",
"). c #9273A2",
"_. c #907CA0",
"`. c #8364B4",
"'. c #836BB3",
"]. c #8466B5",
"[. c #8274B2",
"{. c #827AB1",
"}. c #8872B0",
"|. c #905484",
" X c #AA4CC3",
".X c #AE50C7",
"XX c #B255CC",
"oX c #BA5CD5",
"OX c #BF61DA",
"+X c #C264DD",
"@X c #C667E1",
"#X c #CB6CE6",
"$X c #CE6EE9",
"%X c #C769E2",
"&X c #CF70EA",
"*X c #D172ED",
"=X c #D676F1",
"-X c #7C84AA",
";X c #7783B2",
":X c #7286B0",
">X c #9D848D",
",X c #9C8C8C",
"<X c #978C8A",
"1X c #9E9486",
"2X c #9D9C84",
"3X c #95948E",
"4X c #9B938B",
"5X c #949C8C",
"6X c #9B9A8A",
"7X c #929F82",
"8X c #8D849D",
"9X c #8C8B9C",
"0X c #898A9B",
"qX c #958595",
"wX c #9A8492",
"eX c #948C94",
"rX c #998A92",
"tX c #92839A",
"yX c #928A99",
"uX c #998398",
"iX c #8D9395",
"pX c #8C929C",
"aX c #8B9895",
"sX c #939392",
"dX c #929992",
"fX c #979494",
"gX c #8F9E8E",
"hX c #A58485",
"jX c #A48D84",
"kX c #A2848B",
"lX c #A98885",
"zX c #A39484",
"xX c #A29B82",
"cX c #A49587",
"vX c #A18691",
"bX c #9CA483",
"nX c #9BAA82",
"mX c #97A588",
"MX c #90AB8B",
"NX c #A3A483",
"BX c #A0B480",
"VX c #8484A4",
"CX c #8B83A3",
"ZX c #858BA3",
"AX c #898BA1",
"SX c #8383AB",
"DX c #8785A9",
"FX c #898FA4",
/* pixels */
"zX6XeX8X0XVX2.2.9.`.8.w.w.-X-X-X8XAXtX9X8XtXtX8XtX8XW.E.(.SXSX/.[.8.q.4.6.5.g.s.f.f.f.p.i.u.u.i.p.p.f.d.0.q.8.SXDXCXCX9XdX5XmXbXU I u K ] [ ` C Z P U ",
"H.eX9XM.VX2.2.8.3.0.e.w.9.-XVXZX0X9XA.9X9XV.B.tX9XM.W.!.(.~./.{.`.3.q.4.4.d.s.y.y.t.t.i.u.u.i.p.f.f.d.0.q.'.~.DXCXC.A.sXfX6XxXY Q G #.&.O.O.%.D E T bX",
"fXqX8X(.2.'.4.0.7.0.w.w.2.(.!.0X8X9XyXeXqXeXtX9X8XC.!.(.(.T.~.9.8.6.0.d.d.f.f.p.t.i.u.u.u.i.p.p.s.d.0.w.'.`.T.CX_.B.qXwXJ.F.p E E F %.@.+.%.K r T j F.",
"qX0XE.Y.9.4.7.5.5.w.;X2.VX0XM.8XqXiXsXqXqXqX9X9XtXM.!.(.~.~.8.8.q.0.d.d.f.p.p.h.i.u.u.i.p.p.p.f.d.q.q.8.'.T.!.AX9X9XeXJ.jXj Y I F $.O.@.w S *.h l 6X4X",
"tX!.R.2.w.4.7.a.e.:X-XQ.0X0XA.iXqXsXdXsXwXwXV.V.9XM.W.W.~.9.8.3.6.d.d.s.f.p.p.i.u.u.p.p.p.f.f.d.q.8.w.9.~.(.AXFXpXiXH.F.bXBXT } A K ] O.| Z M M bX,XdX",
"8X(.Y.w.0.y.a.5.e.;XQ.VX0XyXeXeX>X5XgXdXeXqXeXyX9XZ.!.(.^.{.[.6.5.d.s.s.f.t.i.u.i.t.f.p.f.s.d.q.[.[.{.~.T.W.AXpXpXsXJ.jXnXY r u $.0 0 $.A B a nXmX3XyX",
"!.Y.`.5.4.s.a.5.8.-XVX0X9XeXeX>X3X4X5X,XeXsXwXyXtXZ.(.^.~.{.{.3.5.d.d.s.f.h.i.h.p.f.d.s.g.4.6.8.'.T.~.^.E.C.9XpXaX,XD.i Y R r D $.+.H F *.h j MX5XiX8X",
"(.Y.`.5.5.s.5.8.~.VX0XiXaX3X,X<X4X1X6X4X4XsXwXwXyXtXW.(./.{.8.6.5.d.f.f.p.p.p.p.a.d.d.d.5.7.q.8.Y.T.~./.W.M.9XsXdX,XD.i Y Q D H 0 w | D E m nXMXgXaXCX",
"2.8.q.e.d.e.w.-XVX8XtXsX3X<X1X1XzXzXzXmX6X>XrXrXyXZ.!.(.^.{.'.6.d.f.a.f.p.p.t.f.s.d.7.5.6.q.w.9.~./.SXVXAX9XtXV.4X6Xi z Q W G ^ ( S Z R k xX1XMXaX0X!.",
"~.8.5.5.5.w.-XVX0XyXqX<X4X1XxXxXzXzXzXzX1X,X<XwXqXZ.!.(.~.{.8.6.d.f.a.f.p.y.f.s.f.5.4.6.6.3.w.9./.(.VXZX9XpXyXwX4X6XbXY Q W F C S D E z l 2X4XMXaX0XVX",
"2.8.w.0.w.2.Q.0XiXeX<X1XjXzXl l l xXzXxX2X1X4XrXqXtX_.W.~.9.8.0.d.s.p.a.a.f.s.d.5.6.6.].].'.9./.^.E.!.AXpXpXsX4X6XmXl d L D V K F W E U bX6X3XaX0X!.VX",
"2.:Xw.0.'.Q.8XyXsX3X1XjXjXj l U U l j j zXjX4X<XqXtXZ.W.(./.8.4.4.s.a.a.d.g.d.0.6.6.3.'.'.Y./.SX(.).CXpXqXqXH.J.jXbXp s L u } A *.M Y zXjXmXdXaX0XW.(.",
"-X:Xw.2.(.N.tXrX,X1XxXj z z z U U z l l xXjX,X4XeXqXZ.!./.~.8.6.7.d.d.g.d.5.0.6.3.8.8.[.~.~./.DXCXCXN.S.c.vXkXF.jXbXU P B } u N W M M xX1XeXqXiX0XQ.-X",
"/.9.2.Q.M.tXeX<XhXzXNXl U T h z U z k l xXzX6X4XeXqXZ.!.^.Y.[.w.0.7.0.7.6.w.w.8.3.9.{.{.^.^.Q.1.<.$ + X O 1.6XmXnXBXM P y u N E M M nXmX5X5XeXqXpXZX-X",
"-X-X(.8XZ.V.4X1XzXxXl U T T h g h z k k l bX6X4XsXqXZ.W.(.~.'.8.6.6.6.w.w.w.8.'.[.{.~.1.<.:.+ X . X # >.+ o r.BX2Xl E I A D W M M M nXnX5XgXiXiX0X0XVX",
"ZXVX0XeXwX>X4XzXjXl z z h h h h h L U U U zX1X3XdXyXZ.E.W.SX/.8.].3.w.8.[.;X'.3.1.<.+ X . X + >.z. XOX&Xx.X & NXp z P t u G Q P m m 2X6XmX3XqXiXiXpXVX",
"0XpXiXiX<X4X2XzXk z z g g h L L h g k l bXzXkX>XsXsX9X8X).(.SX;X9.9.9.{.R.<.:.O X X O :.l.U.oX#X*X*X#X*XI.X & xXj M E r y L v z U l zXhX5X,X3XdXyX8X0X",
"9XeXsX5X<X1XzXzXl k g g h h L T h g p p 2X1XkXH.rXsX9X9XCXCXSX-X-X;XSX<.+ X X -.k.I.XX%X*X*X$X#X#X#X#X$X,.X : NXj Y E E y c d s l l bX2XmX5X5XdXeXqX9X",
"qXrX3X4X1XjXjXxXU k p k U h h h T z p lXzX6X<X>XwXqXtX9XAXAXZX-XQ.^.1.o X ,. X@X$X*X&X#X#X#X#X#X#X#X&XoXO + 7XNXk c h W E P h z z i bX2XmXmX4X<XfXsXiX",
">X<X>X1X1XzXzXj j z k z z T z z U l zXzXzX6X5XsXeXV.A.tX0XAXAXZXZXR.+ X l.$X*X#X#X#X#X#X#X#X#X#X#X#X*Xx.  & NXBXY P W W L h P M U m BXbXbX6X6X6X6X3XeX",
"<X,XkXzXzXzXxXxXl l k p k z U U U 2X2X6X4X4XdXdXdXqXB.n.8XAXAXZXFX1.X >.#X$X#X#X#X#X#X#X#X#X#X#X#X#X#X:.X ; xXM M E E I d d h M M M M m nXxXxXxX1X4X3X",
"hX1X1XzXzXzXxXxXxXl k k k j l NXxX2X6X6X4X,X,XfXdXsXV.b.A.Z.C.0XpX1.. x.*X#X#X#X#X#X#X#X#X#X#X#X#X*X.Xo $ i k U T c c P P Q Q E z d U Y Y m l l bX,XhX",
"hXjX1XjXjXzXjXlXzXzXzXjXjXjXxX2X6X6X6X6X4XkXH.H.rXdXsXuXV.A.n.n.pX1.. x.*X#X#X#X#X#X#X#X#X#X#X#X#X*Xl.. * b 1 f f 7 y E E L P Q h d L Y g h Y k zX1XhX",
"1X1XzXzXzXjX1XjXjX1XjXjXjXzX1X6X6X4X5X5X3X>XL.G.L.rXdXdXsXyXB.b.L.|.X >.#X$X#X$X*X#X#X#X#X#X#X#X$X+X# o : Y z c v v I I I t r E W E Q Q v h T j xXjXlX",
"2X1XzXzX1X4X,X,X,X1X1XzX1X4X4X4X4X4XsXdX3XrXL.G.G.H.eXdXsXsXeXL.G.v.$ X z.%X#XXX X#X#X#X#X#X#X#X*XU.X % 1 g E Q E D y y I } r D D B D A D v z l 2X1X1X",
"1X1X,X,X1X,X>X,X,X<X4X4X4XfXsXeXrXwXwXeXdXsXwXG.G.G.v.dX<XH.wX4Xv.,XS.O X -.>.X l.*X#X#X#X#X#X#X&X,.  ; c g E W W G y N D u } Z u u A | u v z l 2X2X2X",
"zX,X,X,X<X<XrXeXrXrXrXsXsXyXyXeXV.V.V.V.qXsXsXwXG.G.G.,X>XG.P.,X5X5XmXS.% O X O XX*X#X#X#X#X#X$XoXO + e Q P W W D D G F F A } } u K K S u T z l xXzXjX",
"zX1X,X,XeXeXqXqXqXqXeXsXyX9X9X9XZ.A.B.B.B.wXsXdX>XJ.J.J.J.J.P.D.2XnXnXnXBX* X >.#X#X#X#X#X#X#X*Xx.  & W c r B D u } A #.#.$.H | H H V F Z h z j jXjXlX",
"1X3XrXwXqXtXZ.Z.tXtX9X9X9XAXAXAXM.C.n.n.b.B.wXdX5X4XkXJ.D.D.D.2 lXnXnXnXM & . x.*X#X#X#X#X#X#X#X>.X ; N r 9 r Z } } S $.$.H 0 %.&.H S u I P z j zXzXjX",
"4XsXqXV.tXtXZ._.!.!.!.CXCXVXVXVXCX).m.n.b.b.V.eX5X5X1XF.K.K.2 2 1 U m Y e O + oX$X#X#X#X#X#X*XXXo $ t I Z } u A | | H $.%.) ^ q ( H F y c h l j jXzX6X",
"v.qXtXZ.8XCXCXCXW.^.^./.SXQ./.SXVX!.).m.n.b.B.wX3XmX6XlX2 2 2 2 2 s T v ;   ,.*X#X#X#X#X#X#X*Xz.  * #.W F D F #.K C ) ' +.' ` w ) H F B t g l xX2X6X4X",
"wXyXtX!.!.!.(./.~.~.[.9.{.Y.Y.~.Q.SX!.).n.b.b.V.<X6X6X1X1 2 , , , , f d % X U.*X#X#X#X#X#X#X%X;.o 3 S #.#.#.$.$.%.( 6 _ +.O.O.K C D u c d k NXjX1X4X,X",
"tX8X!.!.(.(.~.{.9.8.8.8.3.].`.].Y./.DXCXZ.A.B.V.>XkXzXxXp 2 , 7 7 7 7 3 o # +X$X#X#X#X#X#X*X XX % 8 } S $.%.K %.O.` _ [ O.O.q ( } u } h z z xX6X,XrXwX",
"tXCX!.(.~.{.{.8.q.q.0.0.6.`.`.`.`.~.VXAX9XtXV.H.G.F.F.i p 1 , 7 9 9 9 =   l.*X#X#X#X#X#X#X*Xk.  ; / 5 | %.0 0 O.O.O.+.[ q +.^ ^ | Z L E z xXjXhX<XwXV.",
"CX!.(.~.[.8.8.6.4.5.d.j.5.4.`.`.R.W.CXFXpXyXV.G.J.K.K.1 s f > 9 9 9 8 $ o .X*X#X#X#X#X#X$XOX# O n ..| J %.' q O.@.@.' ~ ) K ..V } r P Y l xXjX4XsXqX8X",
"CX(./.[.6.6.5.g.s.s.f.d.0.8.].T.T.).Z.yXsXrXH.J.K.K.2 2 < < 7 9 9  .4 X :.#X#X#X#X#X#X#X*XI.  & %.0 ' w +.+.q [ [ O.' / ' %.F u r c d l xXxX4XrXqX8X!.",
"SX/.{.3.4.d.f.s.f.f.s.d.w.9./.^.E.E.B.V.rX<XkXJ.K.2 2 , , 7 7 9 9  .=   x.*X#X#X#X#X#X#X#X,.  : ] ^ / / ] +.{ ~ _ q %.X.C K F u L Y z bXxXcXdXsX9XCXVX",
"/.}.8.5.d.s.p.p.p.y.g.7.9./.(.(.E.m.n.L.H.kXhXD.2 2 , , 7 7 8 8 5 8 # O oX&X#X#X#X#X#X&XXXO $ w { ~ ~ ~ _ [ ~ 6 / w &.K V V A E E g l lXhX4XsXpXAXZX/.",
"[.[.6.d.s.p.p.p.p.y.4.'.{.^.E.E.C.n.b.G.G.J.F.1 2 2 , 7 7 7 8 8 / 4   ,.$X#X#X#X#X#X%X*Xz.  ; @.' ~ ~ ~ _ [ _ / _ ( J #.Z 7 y Q U p jXhX5XrXqX9XCXSX~.",
"[.6.d.s.p.h.p.a.d.4.6.[.~.E.E.m.B.B.G.G.J.D.D.1 1 2 7 9 7 8 8 5 6 &   I.*X#X#X#X#X#X#X%X:.X n @.q { ~ ~ { +.q ' ^ / ..F Z r h g NXbX1XJ.sXqX8XCX/./.{.",
"6.d.f.p.i.i.p.d.q.6.].Y.~.!.C.C.V.B.G.G.J.K.2 1 2 < 7 7 8 8 5 / - O # +X$X#X#X#X#X#X*X.Xo % { [ +.+.[ ` +.&.q ( ^ } | y E P d s NXmX4XG.yX9X!.(.~.[.3.",
"d.s.p.i.u.t.f.q.w.'.].^.Q.CX9XqXV.G.G.J.D.1 1 < , > 7 8 8 8 5 / ;   k.*X#X#X#X#X#X#X*Xk.  ; o._ q O.O.O.&.%.| | V } 9 r E Y l lXjX4XeXqX8XCXCX~.{.3.7.",
"s.p.i.u.t.f.6.q.8.[.^.(.CX0XyXqXwXJ.J.D.1 1 1 < > 7 7 8 8 5 5 6 % o  X*X#X#X#X#X#X$X+X# O 6 ~ / ` +.&.&.&.K C D D r t h Y m bXlXkXH.qXtXC.!.DXT.8.q.d.",
"t.i.u.i.f.d.8.8.{.~.(.CX9XyXqXv.kXH.F.1 s f s > 7 7 } 8 5 5 / - o ;.%X$X#X#X#X#X#X*XU.  & ~ / / ' %.&.&.&.#.F D Z v T z a xXbXcX5XeXyX0X!.(./.[.6.d.s.",
"i.i.i.p.s.6.8.{.~.W.!.9XpXeX>XH.F.hXp p a c d t } } }  .5 5 / =   z.*X#X#X#X#X#X#X&X,.  4 ~ / ^ 0 %.$.&.#.#.N r > d z 1 2 2XmX5XdXtXZ.!.(./.{.q.4.s.p.",
"u.p.f.d.5.q.8./.(.W.8X9XsXfXkXhXlXi p z T L v r } }  .^ / / 6 + O XX*X#X#X#X#X#X$XoXO # ^ _ ) ..H #.#.#.#.G y > , s z i jX5X,XwXpXtXCXSX/.~.'.7.g.f.i.",
"i.f.d.5.6.'././.!.8X9XsXfX4XjXlXi a b T I D Z u } } ^ / / ~ 4   >.$X#X#X#X#X#X#X*Xx.  = ` ....J F D A N D E h s f l NXxXmX4XG.wXpXCX(./.[.}.6.g.f.t.u.",
"f.d.5.6.'.~.SXCX8X9XyXrXcXxXxXj a g v I D D Z u } ^ / / / ~ =   x.*X#X#X#X#X#X#X#X>.X - X.K K F D y r r c T Y z NX2XzX6X5XsXqXpXCXE.T.~.].].g.f.t.u.u.",
"d.7.6.8.~.^.CXZ.tXqX>XkXjXNXNXU h T I N A A S | ^ ^ / / ~ 5 O + oX$X#X#X#X#X#X*XXXo $ } V K F D Z t 7 > < g m nX2XlXK.,XdXpXpXAX!.^.~.'.3.4.s.p.i.u.p.",
"d.3.8.{.~.!.tXtXqX,XkXlXjXU Y P Q I N Z V u V ( ^ ^ / / o.4   k.*X#X#X#X#X#X#X*Xz.  = | y N D I y t > < < k nXmXjXK.J.eXpXpXAXCX^.~.'.6.5.s.p.i.u.p.s.",
"8.8.{.(.!.8XyXrX4X,XzXj U Q P I E D A u ) ) ) ( { _ _ _ / % X U.*X#X#X#X#X#X#X@X-.O - } u Z y v c s < < s l mXmXzXkXrXpXpX0X!.!.T.].6.4.s.p.i.u.i.f.g.",
"8.[.~.!.M.uXfXcXhXlXl U Y Q D N D D C ( ) ) _ ^ - ; = & & o -.@X#X#X#X#X#X#X*X XX O & = ; t r s s s s f zXbXmX4XkXwXsXpXAXW.E.(.Y.3.5.f.p.h.u.i.p.d.q.",
"{.~.!.8XtXrX4XjXi p z h L N D A H H ' ) ) _ - $ o   o o o X l.*X#X#X#X#X#X#X$X,.X O o   o & < < 2 1 p xXbXmX4XH.G.V.9XAXCXE.^.}.'.7.d.p.p.i.i.p.s.5.8.",
"/.!.CXtXwXkXcXxXk g h v Z A H H K q ` ) { - + o # x. X X.X X+X$X#X#X#X#X#X#X#XXX X X.XI.# @ = < 2 1 lXzX6X5X>XG.B.tXAXZXQ.T.~.[.4.g.s.t.i.i.p.f.d.w.8.",
"(.CX9XwXkXzXzXl h v y Z A S C 0 +.q ] ` { & @ :.+X*X&X&X*X*X$X#X#X#X#X#X#X#X#X&X*X*X&X=XXXO # 3 1 K.F.F.kXsXqXV.Z.AXZXSX/.~.9.6.g.a.p.i.i.f.s.d.6.[./.",
"!.tXeX4XjXzXz g c y Z S C ' ( ( ` ] q [ ! O O XX*X%X#X#X#X#X#X#X#X#X#X#X#X#X#X#X#X#X#X#X$X>.X ; K.D.J.G.H.eXtXA.C.CXSXSX{.9.w.d.s.p.i.i.f.d.d.0.8.~.W.",
"Z.wX4X1XzXk h B Z V V C ` ' ) ) ( J K &.e X >.#X#X#X#X#X#X#X#X#X#X#X#X#X#X#X#X#X#X#X#X#X$Xk.X |.D.G.H.V.qXyXC.m.).SXSX9.w.w.d.s.t.i.u.p.s.d.0.8.{.(.Z.",
"wX4X1XzXk h B A V C ' ] ` ' ( ( | J K &.: . l.*X#X#X#X#X#X#X#X#X#X#X#X#X#X#X#X#X#X#X#X#X#X>.X |.J.v.eXyX9XZ.m.).(.SX9.w.6.7.f.p.i.u.p.s.g.6.3.~.(.CXZ.",
"4X6XzXk h B A V ( ' q J ..| u V S H K &.: X k.*X#X#X#X#X#X#X#X#X#X#X#X#X#X#X#X#X#X#X#X*X.Xo + B.V.uXyX9XAXCX!.).^.{.w.6.4.s.p.i.u.i.f.d.0.w.{./.CXyXeX",
"1XzXz c y V H w w q K J S u A D A A A K n O # %X*X#X#X#X#X#X#X#X#X#X#X#X#X#X#X#X$X$X*X+X;.X & L.B.B.Z.AXZXDX(.T.].8.0.5.s.p.i.u.i.f.d.q.q.9.~.!.tXsXfX",
"xXg h Z u u 0 q w J C A u y Z N Z Z Z D D & X k.+X@X@X@X@X@X@X@X%X%X@X@X@X@X@X@X@XoXI.;.X + S.B.n.n.).CXDXDX^.Y.3.0.j.f.p.h.u.i.f.s.6.3.'.^.!.8XeXkXjX",
"z h Z V ..' ] w H S A Z y y c y y y I L R : o X # -.-.-.-.-.-.-.-.-.-.-.-.-.-.-.# O X X $ S.A.n.m.m.W.SXSX/.[.3.0.d.f.p.p.u.i.p.s.4.q.8.^.!.CXuX4XkXi ",
"h B A J ` [ ` 0 V A R c c c d d c L P h s c : $ O O O O O O O O O O O O O O O O O + $ 1.8X9XC.C.).)././.{.{.w.5.g.f.p.p.i.i.p.f.g.6.8./.(.CXyXvXjXhXp ",
"B A J =.[ ] J S Z L h g g z g d g g k k s s b bXe e <X<Xv.3 : c.c.c.c.v.S.S.S.c.c.b.n.Z.CXCXCX!.(./.{.[.'.3.5.g.y.p.h.i.p.p.f.d.0.8././.!.tXrXcXzXk T ",
"u ) ] [ ] C H N L P U m m U j z p i p zXjXlXxXbXnXnXnXNXcXF.F.hXhXhXkXvXfXdXyXV.L.L.m.C.!.VXDXSX/.9.[.].`.4.d.f.p.h.i.t.f.f.g.6.8.~.^.AXyXwXkXjXj h I ",
"( ' [ [ ..A y h T m p j bX2XxXNXzXhXzX1XjX2X6XjXjX4X1XcX4XH.H.<X<XH.G.G.V.9XyXA.n.n.E.).(.DXSX9.9.w.3.4.4.g.f.p.h.i.i.f.f.g.7.3.9./.!.tXeX,XjXj U y u ",
"' [ [ J H D h g l lX2 D.1XzXjXzX4X5X5X>XF.,X4XH.J.>XH.J.<XsXsXdXsXL.L.b.B.tXAXtX).E.E.^././.9.w.w.w.5.g.g.f.t.i.u.h.f.a.d.0.3.{.SX!.A.qX,X1Xj U I u ( ",
"=.] X.F N L z j 2XjXH.>X5X4XkXH.3XgXdX>Xv.,XdX>XG.wXv.G.V.qXqXpXpXwXb.n.C.!.AXCX(.^.~.{.9.9.w.w.0.5.d.f.f.t.i.u.i.f.f.d.5.3.8./.CXZ.V.eXjX2XU L y ( ' ",
"[ J H G P z i hX6X>X3X3XdXsXqXqXqXwXiXiXiXaXaXiXyXiXqXV.wXB.B.tXpX9XZ.C.).CXSXDXSX{.{.9.9.w.q.0.d.g.s.s.f.i.u.i.t.s.d.4.'.].~.).Z.V.wX4XlXk L A H ' [ ",
"' H W P z nXjX,XsXwXV.eXqXqXpX9XA.A.tXtXpX9XtX9XpXpXpX9X9XA.n.Z.AXAXCX!.Q.SXSXSX9.9.9.8.3.6.5.d.f.f.f.f.t.i.i.p.f.d.7.4.].~.E.Z.uXwX4XbXl h Z V K q [ ",
"S A L Y xX2X4XeXeXA.Z.Z.tX0X0X0X0X0XM.C.0X8Xm.8XpXpXpXpX0X8XC._.!.VXSXSX/./.{.9.w.w.q.6.].4.s.s.p.f.f.i.i.i.p.f.f.0.q.'.T.(._.yXwX,XjXbXU y V C ] [ w ",
"G E z bX1X<XeXtX0XM.8X8X0XZXVXW.Q.ZXVX!.CXZX0X0XpXAX8X0XAXZXVX!.E.W.SX~.T.}.{.w.w.q.q.4.4.g.s.f.f.p.i.i.i.p.f.g.5.q.'.T.W.AXpXeX>X1Xp f B S C ` ' w C ",
"B Y l 2X5XsXtX8X0XVXVXQ.VX(.Q.^.~.VXZXM.Z.AX0XpXpX9XC.C.!.ZXZXCXE.T./.[.`.].[.w.q.q.q.g.g.s.y.t.i.i.i.t.p.f.g.5.w.'.T.E.!.9XdXdX6Xp a v D J ] [ ` ' u ",
"h l mXgXaXpX0XZX-X-XQ.-X2.Y.2./.W.W.).8X9X8XA.9XtXtXZ.C.).CXDXDX(.~.9.8.].].3.q.7.d.d.d.s.y.i.u.u.i.t.p.f.s.4.3.9.~.(.!.C.yXrX6XxXk P A K ` [ +.) V B ",
"m bX5XdX9XM.(.-X-X2.2.;X9.8.2.Q.!.CXZ.tX8X8X8X8XA.Z.C.!.(.VXDXSXSX9.8.[.[.3.7.d.g.s.s.f.p.i.u.u.i.p.p.a.d.4.4.8.SXDXZXZ.V.eXkX2Xa L y V %.+.[ q C D P "
};
