/* XPM */
static const char *Mg__[] = {
/* columns rows colors chars-per-pixel */
"75 75 255 2 ",
"   c #D97D3F",
".  c #BF735E",
"X  c #B87568",
"o  c #BD7C6D",
"O  c #B86E79",
"+  c #AD7174",
"@  c #AC797A",
"#  c #BD7573",
"$  c #BB7A73",
"%  c #B3757C",
"&  c #B37A7A",
"*  c #B97879",
"=  c #CF7A49",
"-  c #D47B49",
";  c #CB7B5C",
":  c #D27D5A",
">  c #CB7C63",
",  c #C37B6B",
"<  c #C77969",
"1  c #D17C63",
"2  c #C27572",
"3  c #B9945B",
"4  c #BCA95D",
"5  c #B4BB51",
"6  c #BAB85B",
"7  c #999A78",
"8  c #AE8B69",
"9  c #BA876A",
"0  c #BC8C6C",
"q  c #A99B6A",
"w  c #BA9768",
"e  c #B59B6C",
"r  c #AA877B",
"t  c #AC8D7C",
"y  c #B58474",
"u  c #B68477",
"i  c #B38C74",
"p  c #AD9576",
"a  c #AC9C75",
"s  c #A5947B",
"d  c #AB947B",
"f  c #A59B7D",
"g  c #A99B7A",
"h  c #B39473",
"j  c #B29B72",
"k  c #9EAE69",
"l  c #9BA87B",
"z  c #9CB67A",
"x  c #ACAA6A",
"c  c #BBA364",
"v  c #BBAA63",
"b  c #B8AA67",
"n  c #B4A36B",
"m  c #B3AC6A",
"M  c #ACB46C",
"N  c #A9B96B",
"B  c #B4B465",
"V  c #B7B765",
"C  c #A7A776",
"Z  c #ABA374",
"A  c #ABAC72",
"S  c #A5A37B",
"D  c #A3AC7B",
"F  c #B4A674",
"G  c #A5B474",
"H  c #A7B675",
"J  c #B8B378",
"K  c #D9864C",
"L  c #CC914A",
"P  c #D2974D",
"I  c #CC8957",
"U  c #CD825C",
"Y  c #D38354",
"T  c #DA8553",
"R  c #D58957",
"E  c #D2845B",
"W  c #C7985A",
"Q  c #D39555",
"!  c #C1AA4E",
"~  c #C5A859",
"^  c #C4B558",
"/  c #C58766",
"(  c #CB8264",
")  c #C49664",
"_  c #D09671",
"`  c #E29F71",
"'  c #C2A764",
"]  c #CAB36F",
"[  c #B5C85B",
"{  c #B0CA5D",
"}  c #9DC075",
"|  c #ADC568",
" . c #B5C765",
".. c #ADC571",
"X. c #C4C25A",
"o. c #C4CA73",
"O. c #715CBD",
"+. c #7C68AA",
"@. c #7B76AA",
"#. c #7D7CAC",
"$. c #6E6DBA",
"%. c #7467B6",
"&. c #7D6DB6",
"*. c #7B65BD",
"=. c #756CBD",
"-. c #7B6DBB",
";. c #7D75B4",
":. c #7678B6",
">. c #7D7BB3",
",. c #7672BC",
"<. c #7A73BB",
"1. c #6858C7",
"2. c #6C5DCD",
"3. c #755EC5",
"4. c #675BD4",
"5. c #6A5DD2",
"6. c #6D66C4",
"7. c #6E63CC",
"8. c #7465C5",
"9. c #746BC3",
"0. c #7869C4",
"q. c #7164C9",
"w. c #7B75C7",
"e. c #6C60D1",
"r. c #796DD4",
"t. c #9B778A",
"y. c #916B96",
"u. c #986C99",
"i. c #8C7A9B",
"p. c #9A7597",
"a. c #9B7C94",
"s. c #94759D",
"d. c #937C9C",
"f. c #A46D8B",
"g. c #AC7584",
"h. c #AB7B84",
"j. c #A5748C",
"k. c #A97688",
"l. c #A47C8B",
"z. c #B27682",
"x. c #A37693",
"c. c #886BAA",
"v. c #8C6CAB",
"b. c #926DA3",
"n. c #8C75A5",
"m. c #857DA5",
"M. c #8B7CA4",
"N. c #8574AD",
"B. c #8A74AB",
"V. c #847CAB",
"C. c #8979A8",
"Z. c #9373A2",
"A. c #947CA3",
"S. c #8464B4",
"D. c #836CB3",
"F. c #8274B3",
"G. c #827AB1",
"H. c #8777BB",
"J. c #957CBF",
"K. c #8579C6",
"L. c #8577D3",
"P. c #7D899E",
"I. c #7D84A9",
"U. c #7384B2",
"Y. c #9D848D",
"T. c #978C8A",
"R. c #9C8C8C",
"E. c #8D938B",
"W. c #9E9486",
"Q. c #959884",
"!. c #9D9C85",
"~. c #95948D",
"^. c #9B938B",
"/. c #949B8D",
"(. c #9B9A8A",
"). c #8C849D",
"_. c #878999",
"`. c #8C8B9C",
"'. c #958595",
"]. c #9A8492",
"[. c #948C94",
"{. c #998B92",
"}. c #92839A",
"|. c #99819A",
" X c #928A9A",
".X c #8D9395",
"XX c #8B9996",
"oX c #8C939B",
"OX c #939393",
"+X c #979796",
"@X c #A58485",
"#X c #AA8682",
"$X c #A48D84",
"%X c #A2848B",
"&X c #A38B8A",
"*X c #A39384",
"=X c #A59486",
"-X c #A29B83",
";X c #A68899",
":X c #B39195",
">X c #98A787",
",X c #9CA484",
"<X c #8FA592",
"1X c #A2A382",
"2X c #A7AD88",
"3X c #ACAE90",
"4X c #8484A4",
"5X c #8B83A2",
"6X c #858AA3",
"7X c #8A8BA1",
"8X c #8482AB",
"9X c #8A87AA",
"0X c #9788A5",
"qX c #8D91AF",
"wX c #9795A6",
"eX c #8986B7",
"rX c #AA95AA",
"tX c #96A3A0",
"yX c #B3B3AF",
"uX c #D19A8C",
"iX c #CFAC92",
"pX c #E5B18E",
"aX c #CDB3AE",
"sX c #DAB1A7",
"dX c #B5C595",
"fX c #BBC4B9",
"gX c #CFD293",
"hX c #D0D3B0",
"jX c #EACFB4",
"kX c #DBE6B7",
"lX c #9891CC",
"zX c #A294CE",
"xX c #B3AED2",
"cX c #BAB4E5",
"vX c #C9BAD2",
"bX c #C2BCE6",
"nX c #BEC3D0",
"mX c #D4CCD0",
"MX c #D9D6DA",
"NX c #EBD4CB",
"BX c #E8DAD8",
"VX c #DCE1D9",
"CX c #ECE9D6",
"ZX c #CBC5E5",
"AX c #D4CDE6",
"SX c #D7D6E4",
"DX c #E3DBEA",
"FX c #EAE9E8",
"GX c #F4ECE4",
"HX c #F7F4EB",
"JX c #EDEDF1",
"KX c #F9F6F5",
"LX c #F6F5FA",
"PX c #F8F7F9",
"IX c #FEFEFE",
/* pixels */
":XtX+XwXwXqXeXeXeXH.H.eXeXqXqXqX0XwXwXwXwXwXwXwX0XwX0XA.0XqXqXeXH.eXH.H.K.K.K.K.w.r.r.r.r.r.r.r.r.r.w.w.K.K.eXqXqXwXwXwXtXtX3X2X2XJ ] o.] X.] J J J 2X",
"l.[._.i.m.@.@.:.&.%.$.:.>.I.I._._.).p.`. Xd.p.)._.i.i.n.C.C.V.;.S.-.,.*.*.8.8.3.2.2.2.4.4.4.4.2.2.6.9.=.-.&.N.8X5Xs.s..XOX(.*Xl G M  . .[ [ 6 M G S l ",
"OX'.).m.V.D.S.,.%.,.:.>.#.m.m.`.).`. X X'.'.}.`.).s.M.n.V.v.N.>.;.-.,.9.9.9.q.7.7.5.4.4.5.5.7.7.8.9.,.<.D.c.v.5XA.u.'.].l.#Xt G G B  .[ [  .M 0 C s h.",
"[.).b.N.>.*.*.=.$.U.U.#.I.6Xi.).'..XOX[.'.'.`.`.}.d.M.n.C.N.;.;.<.,.9.9.9.7.7.7.5.4.4.5.7.7.7.9.9.<.,.;.D.v.M.7X`. X[.l.@Xd C A N | { { 6 b N a f !.^.",
"}.M.v.@.:.*.*.9.$.U.I.m.6X_.d..X'.OXOXOX].].a.d.`.M.n.n.C.>.;.&.-.9.9.8.q.7.2.5.4.5.7.7.7.q.9.9.<.;.>.>.N.C.7X7XoXOXl.h.,X2XC / m B ^ { W n } z ,XR./.",
").n.c.:.,.3.8.9.:.#.m.4X).).'.[.]./././.[.'. X X`.d.M.C.N.F.F.-.=.9.8.8.q.2.5.4.5.7.q.q.q.8.9.<.F.F.G.N.v.n.7XoXoXOXl.@X,XD 0 w | ~ ~ | n n i ,X>X[. X",
"m.c.S.-.*.8.6.=.;.I.4X_.`.[.[.Y.~.^./.R.[.[.].[.}.s.m.n.N.G.F.-.=.9.9.8.q.5.e.e.7.q.3.1.O.O.%.%.+.S.+.c.b.Z.`.oX.XR.k.r D F 0 M | [ B N } a s >X/..X).",
"m.c.S.=.$.6.=.;.V.4X)..XXX~.R.R.^.W.(.^.^.OX].].'.}.n.n.V.G.;.-.=.9.9.q.q.7.4.1.7.L.zXcXbXZXAXZXvXxXzX9Xb.i.`.oX/.R.g.r D G M B 4 B / M G l >X<X<XXX).",
"#.;.:.,.9.$.:.I.4X).}.OX~.R.W.W.*X*X=X>X(.Y.{.{. Xd.M.n.B.F.D.-.9.9.9.q.2.1.L.cXDXIXIXIXIXIXIXIXIXIXIXLXSXyX Xt.^.(.r g G G N I W b n Z p -X^.<XXX_.m.",
"N.;.=.=.=.:.U.4X)._.'.^.^.W.*X*X*X*X*X*XW.R.{.].'.d.M.n.N.G.;.-.9.9.6.1.L.ZXIXIXIXIXIXIXIXLXLXPXIXIXIXIXIXIXJXaXR.Q.1XD G } N v b M G g f -X^.<XXX_.m.",
"#.;.:.,.:.#.m._..XOX^.W.$X*Xf f f f -X-X!.W.^.{.'.}.A.n.N.>.;.,.9.6.q.cXIXIXIXIXJXAXxXlXJ.J.eXeXqXrXvXFXIXIXIXIXFX3X7 i Z M c N N G G S ,X(.~.XX`.5X4X",
"#.U.U.,.D.m.). X.X~.W.$X$Xs f S S f d s *X$X^.{.[.}.d.n.V.>.;.D.O.L.JXIXIXIXDXzXw.%.%.+.+.c.N.#.N.y.i._.rXmXPXIXIXKXiXX F w ( m } z D *X=X>XOXXX_.n.C.",
"I.U.:.@.m.i.d.[.R.W.*Xs g g g C S g f f -X@XW.~.[.}.d.M.V.N.F.%.zXPXIXIXLXxX=.%.-.;.>.F.V.N.V.C.M.5X5X}.t.t.:XBXIXIXIXiXq / 0 x z z z *X&XR.'.XX`.m.4X",
"#.>.@.m.i.}.[.R.@X*X-Xg S g g S S g g f -X*X(.^.[.'.d.M.B.B.+.zXIXIXIXSXK.$.:.;.;.>.>.N.v.n.4XM.i.`.).p.a.{.^.!.VXIXIXPXiXw m G z z >X>X/./.[.'.oX6XI.",
"I.I.C.).}.a.^.W.*X-Xf S S C a p a g d d -X,X(.^.OX'.s.M.C.N.eXPXIXIXZX$.:.>.;.D.D.V.N.V.n.n.6X5X).`.`. XR./.>X>X7 mXIXIXGXM N z z z ,X>X/./..X.X`.4X4X",
"I.4X). X].%X^.*X*Xf g g a a a p a S S S 1X*XW.~.OX[.d.b.n.8XFXIXIXZX$.;.F.>.F.#.V.V.V.4XC.m.5X).oX|.].OXj.R.>X!.r s CXIXIXhXG D z l !.,X>X~.[.XX_.oX4X",
"_.oX.X.XR.^.!.*Xt g g p p a Z Z a p g f ,X*X%XR.OXOX`.5Xy.vXIXIXSX@.>.F.c.c.c.V.V.m.M.5XZ.A.d. X X[.].<X~.^.>X*Xf z 3XPXIXHXa g S f *X@X/.Y.[.XX X`._.",
" X[.OX/.R.W.*X*Xf d p p a a Z C a p t t !.W.%Xl.{.OX`._.0XLXIXPXqX#.8Xv.B.B.v.n.m.5X5Xi.y.y.y._.'.OXa.Y./.>X>X-Xf D k kXIXIXaX@ S f ,X!.>X/./.XX[.'.`.",
"'.{.~.^.W.$X$X-XS d i d Z a a a Z g t #X*X(.R.Y.].'. X_.nXIXIXnX@.B.8X4XM.6X5Xm.6X_.`.xXMXDXMXmX;XT.R.Y.^.>X>X1Xd h q dXIXIXNXq f r ,X!.>X/.~.R.~.[..X",
"R.R.Y.W.W.$X*Xs f g d g g g g g S f *X$X=X(./.OX[.a.p.).FXIXPXqXI.b.b.6X5X5X7X7Xi.rXFXIXIXIXIXIXKXyXT.(.>X#X-Xz D C G G GXIXHXz S l >X!.,X!.(.(.(.~.[.",
"R.R.%X*X*X*X-X-Xf f d t d g S S 1X-X!.(.^.^././.OX].u.A.PXIXSXP.6X7Xb.5X_.u.}.oX0XKXIXIXIXKXPXIXIXKX&XW.>X#Xf z z G G x NXIXIXdXz z z l ,X-X-X!.*X^.~.",
"@XR.W.*X=X*X*X-X-Xf d d d d f 1X-X!.(.(.^.R.R.OX/.OXp.rXIXIXmX_.7XoXoX`.oX}.p._.MXIXIXVXrX;X+XMXIXIXyX7 ,X#Xd C C h j x hXIXIXdXq i S D D l f f >XR.@X",
"@XW.W.$X$X*X$X#X*X*X*X$X$X$X-X!.(.(./.(.^.%Xl.l.{.OX[.rXIXIXvXy.`.}.`.XXXXXX.XrXIXIXJX/.t.l.t.:XIXIXmX7 ,Xr & u u , j k hXIXIXdXq i Z D p a C t *XW.@X",
"W.W.*X*X=X$XW.$X$X*X$X$X$X*XW.(.(.(././.OX%Xx.j.x.{..X+XKXIXJXf.p.x.x.OX<X{.E.VXIXIXfX/.%Xk.k.:XIXIXmX7 f S a h j e A x hXIXIXdXk G G G j j C s *X$X@X",
"!.W.*X=XW.^.R.&XR.W.W.W.W.^.^.^.^.^.OXOXOXR.l.j.j.l.OXE.MXIXIXmXf.t.f.f.~.Y.vXIXIXJX(.W.(.&X7 aXIXIXhXs * p G G G M e q NXIXIXdXx m G m M j a f !.W.W.",
"W.W.R.R.W.R.Y.R.R.R.^.^.^.OXOX[.{.].].[.OXOX].j.j.j.Y.~.rXPXIXIXDXyX:X:XaXFXIXIXIXyXQ.z.h.>Xl MXIXIX3XS i p G G N M e x GXIXKXF w w b ) w j g f !.!.!.",
"*XR.R.R.R.R.{.[.{.{.{.OXOX[.[. Xa.a.p.p.'.OXOXa.j.j.l.R.Y.yXIXIXIXIXPXIXIXIXIXIXaXl >X*Xz.s 2XPXIXJXz z G G G N N M N ..PXIXBXU w B B b w C g f *X*X=X",
"&XR.R.R.[.[.'.'. X[.[.OX X`.`.`.d.p.p.p.p.].OXOXY.l.l.l.l.f.:XBXIXIXIXIXIXIXFX3X7 ,Xs f 1X7 mXIXIXaXq G h i x M w ) B hXIXIXhX3 B B c N n a g s *X$X#X",
"W.~.{.].'. Xd.d.}.}.`.`.`.7X7X7Xi.s.u.u.u.p.].OX/.R.%Xk.g.g.+ % :XhXVXVXhXdXf @ t f * * s dXIXIXKX2 o Z 0 < 0 n ( ( b GXIXIX] [  .B b e A C d s *X=X$X",
"^.OX[.a.}.}.d.d.M.M.M.5X5X4X4X4X5XZ.u.u.u.u.a.[././.W.h.g.% % % @ 7 l l l z C * # u i # $ FXIXIXhX8 0 A n / w b ) W gXIXIXNXL 6 ~ B N e h a f s $X*X(.",
"l.'.'.d.).5X5XM.n.n.n.V.8XV.V.8X4XM.Z.u.u.u.p.].~.>X(.@X% O O O * i S p i Z G p 2 2 h 8 NXIXIXCXG G M N N M N | B ' GXIXIX] ! ^ W B | x 9 p f *X-X(.^.",
"]. X}.M.m.M.M.V.N.N.F.G.N.c.c.N.m.8XM.s.u.u.x.a.R.(.!.*X@ % O # # # u i o o h A h , 8 hXIXIXKX_ w w m ..| | | | 5 hXIXIXCX[ {  .c M w h i d ,X$XW.^.R.",
"}.).M.M.C.C.N.G.>.;.;.;.&.S.S.S.c.V.8X5Xd.p.p.a.Y.&X*X-Xt * # 2 2 2 , 9 , < < h G x hXIXIXIXuX9 / > ( b  . .B {  .PXIXIXo.[ B W / w / j a g -X(.R.R.].",
"}.5XM.V.N.G.F.;.<.<.,.<.&.S.S.S.c.N.6X7X`.}.a.l.j.k.h.r t u # 2 < < < , / < < < q gXIXIXIXsX3 m ) ; 1 )  .4 4 [ CXIXIXjX5  .I ( ) n Z G g -X=X&XR.].a.",
"5XM.V.N.F.;.<.-.*.=.9.9.-.*.S.S.v.n.5XoXoX[.a.j.g.z.z.& u u o < < < < > / ( 1 ; iXIXIXIXhX4 b | B ) ) v  .~ 5 kXIXIXGXK W B ' c / 0 C D f -X@X^.OX'.}.",
"5XC.G.F.&.-.=.0.8.8.9.9.,.;.S.c.v.Z.d. XoX{.l.k.z.z.* * * $ , < < < < > ( ) ; uXKXIXIXkX{  . . .B 4 ~ 6  .5 gXIXIXIX] K ~ | N w 9 h i f -X-X^.{.'.).i.",
"8XV.F.-.*.9.9.8.q.q.8.9.:.>.V.B.b.b.u.a.{.R.%Xk.z.* * # # , < < > 1 1 U ( W ] KXIXIXkX{  . . . .~ I Y Q ! o.KXIXIXgX5 ' v V N w Z D f ,X-X(./.OX`.5X4X",
"V.F.<.=.9.9.7.7.7.3.8.=.>.G.V.n.b.u.u.x.l.%X@Xh.% * # # 2 < < < 1 1 : U I ] HXIXIXCX{  . . .{ [ W Y T - Q HXIXIXjX4  .V c n m G G p f $X@X^.+XoX7X6XV.",
"F.F.-.9.8.7.7.7.q.3.*.D.G.n.b.b.s.u.u.x.k.h.h.@ % * # 2 , < < > 1 : : U ) GXIXIXCX[ [ [ [ { { [ ~ K K T GXIXIXCXI W B | n , h G S r $X@X~.{.'.`.5X8XN.",
"F.-.9.q.7.e.7.q.9.*.&.F.N.b.b.u.u.p.x.j.k.g.h.% % * # 2 < < > ; : : : Y CXIXIXGX .[ 6 ~ ^ ^ [ [ X.P K CXIXIXGX' I E ' ..n 0 a p 1X,X=Xl.OX].`.5XV.V.G.",
"-.0.q.7.5.5.7.9.<.&.D.c.V.M.s.s.p.j.j.k.k.z.% * * $ , < < > ; : : : - NXIXIXGX^ [ ^ ~ P P P ! ^ [ 5 NXIXIXHXB W ( / ) n G G i u 1X>X^.j.[.`.M.C.N.F.F.",
"9.9.7.5.5.2.9.<.<.D.S.n.m.5X`.}.a.j.j.k.g.% % * $ o , < > > : : : - jXIXIXHX` P ^ ^ P K K K K ~ 5 kXIXIXKXo.W ) b / < 0 G D g #X=X^.{.[.`.5XM.C.F.&.=.",
"8.7.5.5.2.q.9.<.;.F.N.n.5X_. X[.Y.l.k.g.% & & $ o , , < > : ; E = jXIXIXKX` K Q P ! P K K K T L hXIXIXIXgX6 b M M 0 / Z D l ,X#X%Xl.'.}.s.M.8Xc.;.<.9.",
"7.5.4.5.7.9.<.;.G.N.C.M.`. X'.a.%X@Xh.@ r u u o , , ( ( : U E = sXIXIXIX`   K K K P P K K T - pXIXIXIXgX| ..N M n j Z g t -X,X=X(.[.`.`.M.C.V.F.-.9.8.",
"5.5.5.7.8.-.<.G.N.n.M.`.oX[.Y.l.l.#X#Xt i h i 9 / / ( ( E E = pXIXIXIXpX  K K K K R Q P R - pXIXIXIXhX{ ....M 0 o i g & % !.>X/.XX}.d.M.n.8XG.<.*.8.q.",
"4.7.q.9.=.<.;.V.n.n.).`.OX{.%X@X#Xr t g Z Z j 0 / / ( E E = pXIXIXIXpX  T K T T T Y Q W L pXIXIXIXhXN ....N e o # u g r $X/.R.].oXd.5X8XV.F.D.=.8.q.5.",
"5.q.9.=.-.D.V.V.m.).`.OXOX^.&X#X#Xu p C A M n w / ( E E - ` IXIXIXjX- T K T T T T R R W ] PXIXIXkXB m m M G a u u f 1X-X>X^.j.].oX5XC.V.F.F.&.0.q.2.4.",
"q.9.=.-.D.N.8X5X`.`.[.{.^.-X-X=Xi p j A M M n w / I E Y ` KXIXIXjXK T T Y T T T E E U _ HXIXIXCXB n w 0 h C C g -X1X*X(./.[.].`.5Xb.v.N.D.D.0.q.2.4.4.",
"8.*.-.;.N.B.5Xs.}.[.R.%X$X1X1XS a C A m m m b ) I I Y _ HXIXIXjXK T R Y Y Y E E E ; ( GXIXIXCXN n 9 , o u p l ,X!.#Xg.R.XXoXoX7XM.B.N.D.-.*.8.7.5.4.7.",
"9.-.;.G.C.M.}.|.'.R.%X$X$XS C D G A M n c w c W I Y Q GXIXIXNXY R Y Y Y E U E E ; U CXIXIXGXM x e 9 o o * d ,X>X$Xz.k.[.oXoX7X5Xn.N.D.&.=.8.7.5.4.7.8.",
"<.;.F.V.M.). X[.^.R.*X*XS D C A G M m w W W W W W Q GXIXIXCXR Y E U U U U : U > ; NXIXIXHXF q j h u $ * u -X>X>X=X%X{.oXoX7XM.M.v.S.&.*.8.7.5.4.5.q.0.",
">.F.C.M.d.}.{.^.@X#Xf S C G A M M M b ) W W Q Q P CXIXIXGXR Y E U U U : ; > ( ; jXIXIXKX_ 9 0 u u u u u *X,X>X^.%X].OXoX7XZ.b.C.c.-.=.9.7.e.4.5.7.9.<.",
"F.C.M.).}.{.^.&X#Xt g a Z A M M B B ~ W W P P L NXIXIXHXQ Y E U U U ; > > ( ; sXIXIXIXuXX u $ $ * & t -X,X>X^.l.j.a.`.7X5Xb.B.B.D.=.9.7.7.4.5.7.8.9.<.",
"V.M.5X}.].&X=X-Xd p a j n m B B B 6 ~ W Q P L jXIXIXHX_ I I I E U ( > > , ; sXIXIXIXuXX $ $ * * % % #X*X(./.Y.j.p.}.7X6XV.v.N.F.*.0.q.2.5.5.7.9.9.<.;.",
"C.5X`.].&X=X*Xf g j e n m b v 4 [ 6 ^ ~ ~ L jXIXIXPX] W W I U ( ( > , , . iXIXIXIXsXX $ $ * % % % z.h.h.%XOX[.p.d.7X6X8XV.N.>.-.0.9.7.5.5.q.9.9.-.;.V.",
"5X}.[.R.$X=Xf p i e n b v ~ W W ~ ^ ^ ^ ! gXIXIXIXgX6 v ) / ( ( ( , / X uXIXIXIXaXX * * * * % % g.h.g.k.l.[.}.s.d.5X8X8XG.>.<.9.8.7.5.5.q.9.9.,.;.N.n.",
"d.].^.W.*Xp a j n c c v ~ ~ W W W v  .5 gXIXIXIXgX5 B B w / / / , / X uXKXIXIXmX+ & u u z.z.g.g.k.l.l.a.[. Xu.u.Z.8X8X>.>.<.9.8.7.5.4.7.8.9.,.;.V.n.A.",
"].^.(.*Xd a x m c c ~ ^ ~ ~ W W ' B 5 gXIXIXIXhX4 b m n w / / / , X _ HXIXIXNX+ % & r #X#Xg.g.f.j.a.[. XoX}.u.Z.C.8X>.:.<.0.9.7.5.4.7.8.0.-.&.F.V.5X|.",
"^.(.*Xd a x m w W ~ 6 B ' ) w c b 6 gXIXIXIXhX3 ) 0 e w 9 / / o o u GXIXIXBX#X#X:X:X:X3X:X:X;X;X;X'._.`.7X5XM.Z.B.F.;.-.*.8.7.5.4.5.q.9.,.<.F.V.5X X[.",
"W.*Xg j e n B 6 ^ 6 B B b c b m B 3XPXIXIXkXx w / / 0 0 9 $ $ o $ BXIXIXIXPXPXPXPXPXPXPXPXPXPXPXKXFXvX5X7X9XC.v.S.;.,.0.8.7.5.4.5.q.9.<.<.>.C.M.}.+X^.",
"*Xp a n w c 4 6 6 v v b w e n x J HXIXIXVXM A 0 9 9 9 u u $ $ * BXIXIXIXIXIXIXIXIXIXIXIXIXIXIXIXIXIXIXSX8X8XB.S.&.,.9.9.7.e.4.5.q.8.-.-.D.N.M.).[.R.&X",
"g a e c ' ~ ^ 6 B b b n e h 8 F GXIXIXCXq Z A h u u u i u & + iXBXNXBXMXMXMXMXMXMXMXMXMXMXMXMXMXSXPXIXIXZX@.F.-.<.9.9.7.7.4.5.7.8.0.<.;.B.M.5X].{.&X#X",
"a x m ' ~ ^ ~ 4 c m n h h i h CXIXIXFXa u i g C d i d f t & % % + + r Q.Q.T.t.t.f.f.t.i._.).y.y.y.rXKXIXLXeX<.-.0.8.7.7.5.5.7.q.0.-.;.V.C.5X X%X&X#Xt ",
"x m B X.^ ^ B b n Z a p p p BXIXIXGXg p u u d 1X,X1X,X,X$X& h.h.g.k.&X^./.+X].x.j.x.u.s.5X7X5XA.C.+.ZXIXIXlX%.0.3.7.e.5.e.7.q.9.,.&.G.V.M.'.{.=X*Xt Z ",
"w W ^ ^ ^ v B M Z C S S 7 hXIXIXHX:Xr -Xt #X-X,X>X>X,X,X=Xz.h.@Xl.%X%X%X[.OX'.p.x.u.u.s.5X4X9X8X8X@.xXIXIXzXO.q.7.e.5.2.q.q.0.-.;.N.B.7X`.].%X$Xf Z A ",
") ~ ^ ^ v b e Z C l s s 2XKXIXIX3X@ *XW.=X,X(.$X$X(.W.W.W.l.l.R.R.l.j.j.a. X Xa.u.u.b.Z.C.8X8X#.>.%.bXIXIXlX6.q.e.5.2.q.q.9.=.D.>.V.n.}.[.R.@Xd S h w ",
"~ ^ ^ ' M M a p f t z.+ hXIXIXmXQ././.%Xk.R.^.l.j.Y.l.l.R.OXOXOXOXx.x.x.p.}.7X5XZ.b.b.B.V.8X>.>.:.<.JXIXLX0.2.5.4.e.q.q.9.,.&.F.8XM.s.[.R.W.d C A w W ",
"X.^ ' B M a g s !.@Xl.t.MXIXIX;XE./.E.Y.t.{.E.Y.t.Y.t.f.a.'.'..X.Xa.u.u.u.M.4X4XM.N.N.N.>.;.:.$.w.SXIXIXbX1.5.4.5.q.9.9.=.-.>.V.5Xd.a.[.&X,XC Z e ) W ",
"^ B B N G g r @X(.%X~.E.mXIXIXmXrX{.+X+X+XtXtXwX+XwX+X;X;X;Xx.wXwXwX0XA.0XqXqXqXqXeXeXeXeXlXlXcXJXIXIXJXq.5.4.5.2.8.9.*.D.S.N.Z.d.a.].^.#Xd C m b ~ ^ ",
"~ B N A g ,X$XR.{.].a.'.yXIXIXIXIXPXPXPXPXPXPXPXPXPXPXPXPXPXPXPXPXPXPXPXPXLXLXLXPXPXPXLXLXIXIXIXIXIXJXL.2.4.5.7.q.9.=.S.D.N.b.s.|.{.^.,Xf a n c B 6 ^ ",
"v m A D *X!.^.[.[.d.d.}.i.xXPXIXIXIXIXIXIXIXIXIXIXIXIXIXIXIXIXIXIXIXIXIXIXIXIXIXIXIXIXIXIXIXIXIXLXbXr.2.5.5.7.q.9.,.<.D.c.M.A. X].R.$X,XC e n v ^ ^ 6 ",
"N G g ,XW.R.[.}.`.i.).i._.P.qXvXmXSXSXMXMXMXMXMXMXMXMXMXMXSXSXMXAXAXAXAXAXAXAXAXAXAXAXAXAXZXcXzXr.1.5.5.5.7.q.8.9.<.D.c.B.7XoX[.Y.W.t i F b ' ~ ! 6 v ",
"n z f !./.OX}.).).4X4Xm.4Xm.@.c.+.@.I.i.i._._._._._.y.y.i.4XI.m.b.c.@.+.S.+.+.$.%.%.%.O.O.3.1.1.5.5.5.5.7.q.0.=.<.D.c.b.M.oX+X/.(.r i j M b 6 ^ ~ ~ w ",
"a f >X<XXXoX).6XP.I.m.I.#.N.#.V.n.Z.Z.5X`.}.d. X}.0XA.Z.Z.5X9X9XM.N.G.G.D.S.D.<.0.0.9.0.8.q.e.4.4.5.2.7.q.8.*.-.>.N.V.M.s.[.{.(.-Xd G m B ~ ^ [ W c n ",
"l !./.XX`.i.C.I.I.@.#.U.>.;.I.m.n.5Xd.}.`.`.).).p.s.s.M.M.8X8X8X8X>.;.F.F.-.-.9.0.8.9.q.7.5.4.4.5.7.7.q.9.*.*.;.8X8X6Xd.p.[.%X!.t Z n c  .[ ^ 6 c M C "
};
