/* XPM */
static const char *Mw__[] = {
/* columns rows colors chars-per-pixel */
"75 75 242 2 ",
"   c #4E006C",
".  c #4E0066",
"X  c #52006D",
"o  c #59016F",
"O  c #4E0071",
"+  c #540072",
"@  c #5B0473",
"#  c #5D0973",
"$  c #5E0B79",
"%  c #62077C",
"&  c #630C78",
"*  c #671675",
"=  c #731D70",
"-  c #762F74",
";  c #7C4B6E",
":  c #8A386E",
">  c #B7725B",
",  c #94526D",
"<  c #A6596C",
"1  c #907373",
"2  c #BD7A6C",
"3  c #A97679",
"4  c #BD7573",
"5  c #BB7A72",
"6  c #B37A7A",
"7  c #B7757B",
"8  c #B06A6F",
"9  c #A44A5C",
"0  c #CA7B5B",
"q  c #CF7A5B",
"w  c #CB7A63",
"e  c #C37B6B",
"r  c #C67769",
"t  c #C6776E",
"y  c #BCAA5D",
"u  c #BBBB5C",
"i  c #BDB45C",
"p  c #9B917A",
"a  c #BC8A6C",
"s  c #BC9D64",
"d  c #B49C6C",
"f  c #BA956A",
"g  c #AD847D",
"h  c #AB8C7C",
"j  c #AF8D77",
"k  c #B58775",
"l  c #AD9476",
"z  c #AC9C75",
"x  c #A5947E",
"c  c #AA947B",
"v  c #A59B7D",
"b  c #A99B7A",
"n  c #B29772",
"m  c #A7986B",
"M  c #9EAA7D",
"N  c #9CB77A",
"B  c #ADAC6D",
"V  c #ADA46D",
"C  c #BBA364",
"Z  c #BBAB63",
"A  c #B3A46C",
"S  c #B2AC6A",
"D  c #B8A967",
"F  c #ADB46D",
"G  c #ACBC6C",
"H  c #A8B86A",
"J  c #B4B464",
"K  c #BBB364",
"L  c #B5B967",
"P  c #ABA474",
"I  c #A5AC75",
"U  c #ABAB73",
"Y  c #A4A37B",
"T  c #A3AB7B",
"R  c #A9A478",
"E  c #B1A472",
"W  c #A5B374",
"Q  c #A6B675",
"!  c #B3805D",
"~  c #CA8B5B",
"^  c #D4865A",
"/  c #C49C5D",
"(  c #CA9659",
")  c #D79053",
"_  c #C3AB5B",
"`  c #C6A659",
"'  c #C4B458",
"]  c #D0AF4F",
"[  c #C68765",
"{  c #C39963",
"}  c #D28961",
"|  c #C1A563",
" . c #C4B461",
".. c #B5CC5C",
"X. c #B9C55B",
"o. c #B7D35C",
"O. c #ACC368",
"+. c #B3C565",
"@. c #A5C171",
"#. c #C4C25C",
"$. c #680D81",
"%. c #6B1384",
"&. c #74198B",
"*. c #722E8C",
"=. c #74498F",
"-. c #7E7AAD",
";. c #7D6DB6",
":. c #7B65BD",
">. c #766DBE",
",. c #7B6CBB",
"<. c #7967BA",
"1. c #7D74B5",
"2. c #7C7AB3",
"3. c #7672BC",
"4. c #7A73BA",
"5. c #7679B7",
"6. c #6F76BB",
"7. c #765CA1",
"8. c #6E5ECE",
"9. c #735FC8",
"0. c #675CD5",
"q. c #6A5DD2",
"w. c #6D62CC",
"e. c #6E6AC5",
"r. c #7465C5",
"t. c #746BC3",
"y. c #7163C9",
"u. c #7667C3",
"i. c #6A60D0",
"p. c #7271C1",
"a. c #83289C",
"s. c #892DA2",
"d. c #872CA1",
"f. c #8C31A6",
"g. c #9337AC",
"h. c #993DB2",
"j. c #8D5D90",
"k. c #9E7C8E",
"l. c #9D6D95",
"z. c #986C9A",
"x. c #8E7C9E",
"c. c #8A7795",
"v. c #9C7394",
"b. c #9B7C94",
"n. c #94749C",
"m. c #9A739A",
"M. c #937C9C",
"N. c #977C98",
"B. c #916D8A",
"V. c #AB7B84",
"C. c #A5748D",
"Z. c #A37B8B",
"A. c #A97786",
"S. c #B27683",
"D. c #A37592",
"F. c #AB6F85",
"G. c #A244BB",
"H. c #856DAD",
"J. c #8B6CAB",
"K. c #8C6AA9",
"L. c #926DA3",
"P. c #8C74A4",
"I. c #857CA6",
"U. c #8B7CA3",
"Y. c #8575AD",
"T. c #8973AA",
"R. c #847CAC",
"E. c #8A7BA9",
"W. c #8676A6",
"Q. c #9273A1",
"!. c #9379A1",
"~. c #8364B4",
"^. c #836BB3",
"/. c #8466B5",
"(. c #8274B2",
"). c #817AB1",
"_. c #8977B0",
"`. c #9E41B7",
"'. c #A94CC4",
"]. c #B254CC",
"[. c #BA5BD4",
"{. c #AF51CA",
"}. c #BF61DA",
"|. c #C264DD",
" X c #C566E0",
".X c #CB6CE6",
"XX c #CD6EE8",
"oX c #C769E2",
"OX c #CF70EA",
"+X c #D172ED",
"@X c #D475F0",
"#X c #7C84AA",
"$X c #7782B5",
"%X c #7286B0",
"&X c #9D848D",
"*X c #9B8C8C",
"=X c #988D8C",
"-X c #9E9486",
";X c #9D9C84",
":X c #95948E",
">X c #9B938B",
",X c #949B8D",
"<X c #9B9A8A",
"1X c #8D849D",
"2X c #8C8B9C",
"3X c #898A9B",
"4X c #958595",
"5X c #9A8492",
"6X c #948C94",
"7X c #998A92",
"8X c #92839A",
"9X c #928A9A",
"0X c #9B8299",
"qX c #8D9395",
"wX c #8C929B",
"eX c #8B9895",
"rX c #939392",
"tX c #929992",
"yX c #979494",
"uX c #8E928A",
"iX c #A58485",
"pX c #A48D84",
"aX c #AA8C82",
"sX c #A2838B",
"dX c #A88586",
"fX c #A39484",
"gX c #A29B82",
"hX c #A49588",
"jX c #A9878A",
"kX c #9CA383",
"lX c #9BA982",
"zX c #97A589",
"xX c #8EAA8C",
"cX c #A3A382",
"vX c #A0B480",
"bX c #8484A4",
"nX c #8A83A3",
"mX c #858BA3",
"MX c #898BA2",
"NX c #8483AB",
"BX c #8685AA",
"VX c #8A8EA4",
/* pixels */
"fX<X6X1X3XbX-.-.2.~.1.5.5.#X#XmX1XMX1X2X1X9X8X1X8X1XP.L.W.NXNXR.(.1.4.:.;.>.u.r.y.y.y.w.q.0.0.q.w.w.y.t.3.4.1.NXBXnXnX2XtX,XzXkXY U s L ' ' _ Z A I Y ",
"Z.6X2Xx.bX-.-.1.;.3.3.5.2.#XbX3X3X2XN.2X2XN.m.9X2Xx.P.U.E.Y.R.).~.;.4.:.:.t.r.9.8.8.8.q.0.0.q.w.y.y.t.3.4.^.Y.NXnXn.N.rX:X<XgXT W H O.+.....+.F W R kX",
"yX4X1XW.-.^.~.3.<.3.6.5.-.W.x.3X1X2X6X6X4X6X9X2X1Xn.U.W.Y.J.Y.2.1.,.3.t.t.y.y.w.8.q.0.0.0.q.w.w.r.t.3.5.^.~.J.nX!.m.4X&XV.V.h W W G +.o...+.L a R x V.",
"4X3XL.H.2.:.<.>.>.6.$X-.#X3Xx.1X4XqXrX4X4X4X9X2X8Xx.U.W.Y.Y.1.1.4.3.t.t.y.w.w.i.q.0.0.q.w.w.w.y.t.4.4.1.^.J.U.MX2X2X6XZ.pXfXT U G O...o.i D @.z v ;X>X",
"8XU.K.-.5.:.<.e.6.%X#XI.3X3XN.qX4XrXtXrX5X5XN.N.2Xx.P.P.Y.2.1.;.,.t.t.r.y.w.w.q.0.0.w.w.w.y.y.t.4.5.2.2.Y.E.MXVXwXqXZ.V.kXvXR [ S L ' ..{ A N N kX*XtX",
"1XW.H.5.3.9.e.>.5.#XI.bX3X9X6X6X&X,XtXtX6X4X6X9X2XM.U.W.T.).(.,.>.t.r.r.y.8.q.0.q.8.y.w.y.r.t.4.(.(.).Y.J.P.MXwXwXrXV.dXlXT a f O._ i O.S V j lXzX:X9X",
"U.H.~.>.:.r.e.>.1.#XbX3X2X6X6X&X:X>X,X*X=XrX5X4X8XM.U.T.Y.).).,.>.t.t.r.y.i.q.i.w.y.t.r.u.:.;.1.^.J.Y.T.L.n.2XwXeX*XA.g T E a F +.X.J G @.z x xX,XqX1X",
"W.H.~.>.>.r.>.1.Y.bX3XqXeX:X*X*X>X-X<X>X>XrX5X5X9X8X!.W.R.).1.,.>.t.y.y.w.w.w.w.e.t.t.t.>.<.4.1.H.J.Y.Y.P.x.2XrXtX*XS.g T Q F J y i [ F Q M zXxXxXeXnX",
"-.1.4.6.e.6.5.#XbX1X8XrX:X*X-X-XfXfXfXzX<X&X7X7X9XM.U.W.T.).^.,.t.y.e.y.w.w.8.y.r.t.<.>.>.4.5.2.Y.Y.NXbXMX2X9Xb.>X<Xg b Q Q H ~ / D A E c gX-XxXeX3XI.",
"Y.1.>.>.>.5.#XbX3X9X4X=X>X-XgXgXfXfXfXfX-X*X=X5X4XM.U.W.Y.).1.,.t.y.e.y.w.8.y.r.y.>.:.,.;.;.2.2.R.Y.NXmX2XwXrX5X>X<XkXT I Q G Z D F Q b v ;X>XxXeX3XbX",
"-.1.6.3.5.-.I.3XqX6X=X-XpXfXv v v gXfXgX;X-X>X7X4X8X!.P.Y.2.1.3.t.r.w.e.e.e.r.t.>.,.;././.^.2.R.T.L.U.MXwXqXrX>X<XzXv j P F C L G Q W Y kX<X:XeX3XU.bX",
"-.%X6.3.^.I.1X9XrX:X-XpXaXx v Y Y b x x fXpX>X=X4X9XM.P.Y.R.1.:.:.r.e.e.p.u.t.>.,.,.;.^.^.H.Y.NXE.Q.x.2X8X4XZ.V.pXkXh k P f ~ S @.N T fXpXzXtXeX3XP.W.",
"#X%X5.-.W.x.8X=X*X-XgXx b b b Y Y b v v gXpX-X>X6X4XM.U.E.Y.1.;.<.t.t.u.t.>.3.,.4.2.$X).)._.BXnXU.nX1X8Xv.k.sXV.pXkXY I E [ f V Q N N gX-X>X4XqX3XU.bX",
"R.-.-.I.x.8X=X*XiXfXcXv Y R z b Y b c v gXgX<X>X6X4XM.U.T.H.(.5.3.<.3.<.,.$X5.;.7.=.*.*.*.*.=.j.x.wX9Xv.b.7X<XzXlXvXN W d f V W N N lXzX,X,X6X4X3XmX#X",
"#X#XW.1XN.b.>X-XfXgXv Y R R z l z b c c v kX<X>XrX4Xn.P.E.Y.^.1.,.,.,.5.5.7.*.$ + X . X X . X o $ *.c.rX7X,XzXzXkXv W U S F Q N N N lXzX,X,XqXqX3XbXbX",
"mXbX3X6X5X&X>XfXpXv b b z z z z z R Y Y Y fX-X:XtX6XM.L.P.NXR.2./.;.$X7.%.o X @ %.d.g.h.h.g.s.%.+ X @ - B.>XxX;Xh b I a f Q W I M M ;X;XzX:X6XqX2XwXbX",
"3XwXqXqX=X>X;XfXc b b l l z P P z l c v kXfXsX&XrXrX2X1XQ.E.NX$X2.2.*.+ X % f.[..X+X+X+X+X+XOX.X[.f.$ X & B.lXx x N W a d P z b Y v fXsX,X*X:XtX9X1X3X",
"2X6XrX,X*X-XfXfXv c l l z z P R z l h h ;X-XsXZ.7XrX2X2XnXnXNX#X#X*.o + s.|.+XXXXX.X.X.X.XoX.XXXOX+X[.&.X @ B.cXx T W W d n j k v v kX;XzX,X,XtX6X4X2X",
"4X=X:X>X-XpXpXgXY c h c Y z z z R b h aXfX<X=X&X5X4X9X2XMXMXmXNX*.X & '.+XXXoX.XXX.X.XXX.XXXXXXX.XXXXXXXf.X $ p b j P Q W I z b b g kX;XzXzX>X*XyXrXqX",
"&X*X&X-X-XfXfXx x b c b b R b b Y v fXfXfX<X,XrX6XN.m.8X3XMXVX=.o & ].+X.XXXXXXXXXXX.X.XXXXXXX.XXXXXXXXX+Xa.X - T I Q Q P z I N Y M vXkXkX;X;X<X<X:X=X",
"=X*XsXfXfXfXgXgXv v c h c b Y Y Y ;X;X<X>X>XtXtXtX4Xv.z.1XVX7.+ + '.+X.XXXXXXXXXXXXXXXXXXXXXXX.XXXXX.X.XXX|.$.X 1 Q W U k j z N N N N M lXgXgXgX-X>X:X",
"iX-X-XfXfXfXgXgXgXv c c c x v cXgX;X<X<X>X*X*XyXtXrXN.l.m.M.*.X f.+XoXXXXXXXXXXXXXXX.X.X.XXXXX.XXXXX.X.XoX+X`.X = n n I I W W Q b j Y T T M v v kX*XiX",
"iXpX-XpXpXfXpXdXfXfXfXpXaXaXgX;X<X<X<X<X>XsXZ.Z.7XtXrX5X0Xj.+ % |.XX.XXXXXXX.X.X.XXX+X+X+XXXXXXXXXXXXX.X.XXX|.% + 8 d W W E I W z j P T l z T c fX-XiX",
"-X-XfXfXfXpX-XpXpX-XpXpXpXfX-X<X<X>X,X,X:X&XD.D.D.7XtXqXtX=.X d.+X.XXXXXXX.X.X.XXXoXG.g.G.oXXXXXXXXXXX.X.X.XXX&.X 1 F I U a a W Q W W Q d z R x gXpXdX",
";X-XfXhX-X>X*X*X*X-X-X-X-X>X>X>X>X>XrXtX:X7XZ.D.C.Z.6XtXyX- X G.+X.XXXXXXXXX.XXX|.&.X   X a.XXXX.X.XXXXXXXoX+Xg.  , D n U [ a F F V F S F d b v ;X-X-X",
"-X-X*X*X-X*X&X*X*X=X>X>X>XyXrX6X7X5X5X6XtXrX5XC.C.C.k.:XyX- X G.+X.XXXXXXXXX.X+Xs.  * : & @ }.XX.XXXXXXXXXoX+Xh.  , D B Q f [ A s f S { f d b v ;X;X;X",
"fX*X*X*X=X=X7X6X7X7X7XrXrX6X6X6XN.b.b.b.4XrXrX5XC.C.C.*XhX*.  f.+X.XXXXX.XoX+X[.@ + uXgX& @ [.XX.X.XXXXXXX.X+Xh.  , O.H G S [ [ s L L D f R b v gXfXpX",
"hX-X*X*X6X6X4X4X4X4X6XrX9X2X2X2XN.m.m.v.v.5XrXtX&XZ.Z.Z.V.j.+ @ ].@XXXXXXX+XoX&.X - R 1 + %..XXX.X.XXXXXXX.X+Xs.  , L O.O.O.J { J J C G E z b x pXpXdX",
"-X:X7X5X4X9XN.N.8X8X2X2X2XMXMXMXx.n.z.z.l.v.5XtX,X>XsXA.F.S.-   & G.|.oXoX'.&.X * p k :   f.+X.X.X.X.X.XXXXXXX%.o 8 Z O.O.J y +.+.J D f U I b x fXfXpX",
">XrX4XN.9X8XM.!.U.U.U.nXnXbXbXbXnX!.z.z.l.l.v.6X,X,X-XV.F.S.7 - + X % %.% + X * < k 3 @ @ [.XX.X.X.XXXXXXX+X].+ * { K +.+.( ~ u / J G d n z v x pXfX<X",
"k.4X4XM.1XnXnXU.P.T.T.E.NXR.E.NXbXU.Q.z.z.l.v.5X:XzX<XdX7 7 7 7 , = @ o + * 1 l t 4 *   f.+X.X.XXXXXXXXX.X+Xs.  ,  .( ` X._ _ i ( J G V a l v gX;X<X>X",
"5X9X8XU.U.U.E.E.Y.Y.(.2.).H.H.Y.R.NXU.n.z.l.l.b.=X<X;XgX6 7 4 4 t t 3 3 8 2 d F d -   &.oXXXXXXXXXXXXX.XXX[.@ @ V ` q ) X.....L Z F f n k c kXpX-X>X*X",
"9X1XU.U.E.E.Y.).2.1.1.1.^./.~./.H.R.BXnXM.m.v.b.&XsXfXgXh 6 4 t t t e [ e r r f ; + & [.OX.XXXXX.X.X.X.X+Xa.  ; o._ ( ' ....u / [ s [ z b b gX<X*X7X5X",
"8XnXU.Y.Y.).).1.4.4.3.4.;.~.~.~./.Y.bXMX2X9XN.Z.C.V.V.g h 6 4 t t r r e [ r w : + @ ].+X.XXXXXXX.X.XoX+X'.o # J o...X.' u X.~ ~ [ A P W b gXaXiX=X5XN.",
"nXU.Y.Y.(.1.1.,.:.>.t.p.>.:.~.~.K.P.nXVXqX6Xb.C.A.S.S.6 k k 5 t t r r w [ } 9 + + '.+X.XXXXXXXXXXX.XXX|.%.X 1 o...o.] ^ ( u | | [ a I T Y gXpX>XrX4X1X",
"nXE.R.(.;.,.>.u.r.r.y.t.3.1./.J.J.Q.M.9XrX7XZ.A.S.S.7 7 5 5 e t r r w w } < + + G.+X.XXXXXXXXXXXXX.XXXa.  - X.' ' ..` ) _ +.L f a n j v gXgX>X7X4X1XU.",
"NXY.).,.:.t.y.r.y.y.r.t.5.2.R.T.L.L.m.b.7X7XsXA.S.7 7 4 t e e r w w w ^ < @ o h.+X.X.X.XXXXXXXXX.X+Xg.X * y ] ) ) u +. .Z L G f P T b kXgXhXtX6X2XnXbX",
"R.(.1.>.t.r.w.w.w.8.u.<.2.R.Y.W.L.z.l.D.Z.sXsXV.7 7 4 4 t e r w w w ^ 8 # X g.+X.X.X.X.XXXXXXX.X+XG.o + > ] ) ^ ) i +.L C C S Q W l v dXiX>XrXqXMXmXE.",
").(.,.t.r.w.w.w.w.9.:.^.).T.L.L.n.z.l.C.C.A.V.6 7 5 4 t e e w w w ^ > & X s.OXXX.X.X.XXXXXXX.X+X'.+ + 9 ) ' ( ) ) / K O.A e n Q Y g pXsX,X7X4X2XnXNXY.",
"(.,.t.r.w.i.w.e.t.:.;.(.Y.L.L.z.m.v.l.C.A.S.V.6 6 5 t t e r w w q 0 *   a.XXXX.X.X.X.XXXXX.X+X].@ + : ) ` X.X.` ~ ^ | G A a z l cXlX-XZ.rX4X1XnXE.Y.).",
",.t.y.w.q.q.w.t.4.;./.H.Y.U.n.m.b.v.C.C.A.S.7 7 5 5 e e r w 0 q 0 =   &.XXXX.X.X.X.X.X.X.X+X[.& + ; ' ' u +.u / ~ [ [ d W I j k cXzX>XC.6X2XU.E.Y.(.;.",
"t.r.w.q.0.8.y.4.5.^./.T.I.nX2X4Xb.C.C.A.S.6 7 5 4 2 e e w w q 0 =   &.oXXX.X.X.X.X.XXX.XOX|.%.O - ......+.+./ { D [ w a W T v aXaX>X6X4X2XnXnXY.).;.<.",
"r.w.q.0.8.y.,.4.1.(.T.E.nX3X9X4X5XZ.V.V.6 6 6 5 2 e e w w 0 q - O %.|.OX.XXXXXXXXXXX.XXXoX&.  = y ..+.+.+.L Z F F a a z T lXkXdXjXZ.4X8Xn.U.nXH.1.4.t.",
"8.q.0.q.y.t.1.1.).Y.E.nX2X9X4Xk.sXsXdX6 k k k 2 e e [ w 0 ^ : O & [.OX.XXXXXXXXXXX.XXX.X&.  * ~ _ +.+.+.+.O.G F A d R b g gXzXhXyX6X9X3XU.E.R.).,.t.r.",
"q.q.q.w.r.,.1.).Y.P.U.2XqX6X&XZ.V.dXh h j l k a e [ [ } ^ : O & ].+X.XXXXX.XXXXX.XXXXXa.  & 0 ) y +.O.+.O.O.B a 2 k b 6 7 ;XzX,XtX9Xn.U.W.R.).4.:.r.w.",
"0.w.y.t.>.4.1.Y.T.P.1X2XrXyXsXsXdXg h b R P d a [ [ } ) , + @ {.+X.XXXXX.X.X.X.XXX+Xs.X # 8 ( { K O.O.O.@.Q d 2 4 k b g pX,X*X5XqX8XnXNXR.Y.^.<.u.y.q.",
"q.y.t.>.,.^.R.E.U.1X2XrXyX>XpXdXg k j R U F A f [ [ ) 9 + + '.+X.XXXXXXX.X.X.X.X+Xg.X + 8  .| K G F S B F W z k k v cXgXzX>XC.5XwXnXE.R.).(.;.u.y.8.0.",
"y.t.>.,.^.Y.NXnX1X2X6X7XhXgXgXx j l z U F F A f [ ) < + o G.+X.XXXXXXXXX.X.X.X+X`.o + <  .L L G F d a a n R I b Y ;XfX<X,XrX4XwXnXL.J.Y././.u.y.8.0.0.",
"t.<.,.1.Y.T.nXn.8X4X&XjXaXcXcXY z P U B S S D s ( < @ X h.+X.XXXXX.XXXXXXX.X+X'.+ + , ( s L G F A a e 2 5 l M lX;XdXS.*XtXwXwXMXU.T.Y.^.,.:.r.w.q.0.w.",
"t.,.1.).Y.U.8X8X5X*XsXaXaXY I I W U B A C s s ` > # X g.+X.X.XXXXXXXXXXXoX+X{.@ + : } [ f B F U n a 2 5 5 c lXzXpXS.A.6XwXwXMXnXT.Y.^.;.>.r.w.q.0.w.r.",
"1.1.).Y.U.1X9X7X>X*XfXx Y T U U W F S s ( ~ ( ! & X a.+XXXXX.X.X.X.XXX.X+X[.& + : } } [ { D A d n k 5 5 k v zXzXhXsX7XwXwX3XU.U.K./.;.:.r.w.q.0.q.y.u.",
"2.(.Y.U.x.8XyX>XiXdXv Y I Q F B F F Z / ~ ( > *   *.XXXX.XXXXX.XXX.X.X+X}.%.+ & , , , , , , 8 k k k k k fXkXzX>XsX5XrXwXMXP.L.E.H.;.>.y.w.i.0.q.w.t.4.",
").Y.U.1X8X7X>XhXg h b z P U F S J J y ( ( ~ =   &..XXX.XXXXXXX.X.X.XXX[.$.. o X           X + * < k h gXkXzX>XZ.C.b.2XMXnXL.T._.^.<.t.w.w.q.q.w.r.>.1.",
"Y.U.nX8X5XjXhXgXc l z d S S J J L u _ ` ( =   &.|.XX.XXXXXXXXXXX.X.XXXG.a.s.s.s.s.s.s.s.s.a.%.X & 8 aXfX<X,X5XC.v.8XMXmXI.K.Y.(.:.u.r.8.q.q.w.y.t.5.1.",
"E.nX2X5XpXfXfXv z d d A S D Z i X.u ' _ - O %.}.OX.XXXXXXX.X.X.XXXXX.XXX+X+X+X+X+X+X+X+X+X+XoX&.X - jXV.sXrX4Xb.8XMXmXNXY.Y.2.,.u.e.w.q.q.y.r.t.,.(.R.",
"U.8X6X>XpXfXb l n d A D Z _ / / _ _ #., + & [.+X.XXXXXXX.X.X.X.XXXXXXXXX.X.X.X.X.X.X.X.X.X.X+X[.@ # F.C.Z.6X9Xm.n.nXNXNX).2.5.t.r.w.q.q.y.t.t.3.1.Y.P.",
"N.5X>X-XfXc z V A C C Z _ ` / ( /  .p + @ ].+X.XXXXXXXXX.X.X.XXXXXXX.X.X.XXXXXXX.X.X.XXXXXXXXXoX%.+ B.b.4X9Xm.z.Q.NXNX2.2.5.t.r.8.q.0.w.r.t.3.1.).W.M.",
"5X>X-XfXc z P S C Z _ ' _ ` / / | K -   g.+X.X.X.XXXXXXX.XXX.XXXXXXX.X.X.X.XXXXX.XXXXX.XXXXXXXoX$.+ c.rX2XM.z.Q.E.NX2.2.,.<.y.w.q.0.w.r.u.,.;.Y.Y.nXN.",
">X<XfXc z V S C / ` u K | { s C K V # % |.XXXXXX.X.X.X.XXXXXXXXXXX.X.X.XXXXXXXXXXXXX.XXXXXoX+X'.o * 2XwXMXnXU.Q.T.).5.,.u.r.w.q.0.q.y.t.3.5.).E.nX9X6X",
"-XfXb n d C J i i u L K D s S B L m o $.XX+XXXXXXXXXXXXXXXXXXXXXXXXXXXXXXXXXXXXXXXXXXXXXXX+X[.%.X *.8XnXmXBXE.K./.1.3.<.r.w.q.0.q.y.t.4.4.2.Y.U.8XyX>X",
"gXl z A s s i u i K Z S f f A B A d * + s.[.|.oXoX|.|.|.oXoXoXoX|.|.oXoX|.|.|.|.oXoXoX|.[.h.% X & z.!.nXBXnXT./.;.3.t.y.w.i.0.q.y.r.:.,.^.T.U.1X6XsXpX",
"b z A C | _ ' i K D S A d n n d n A 1 @   @ % % % % % % % % % % % % % % % % % % % % % % @ X o * j.Q.P.NXNXR.).,.3.t.y.w.w.0.q.w.r.:.4.1.T.U.nX0X>XjXg ",
"z B S K _ ' _ y C A A n n n j k n z U 3 - * # # # # # # # # # # # # # # # # # # @ @ # # * *.=.z.Q.P.Y.R.).).5.>.u.y.w.w.q.q.w.y.u.,.1.R.E.nX9X7XpXdXh ",
"B S K +.' ' K D A P z l l b l k l l c c k 6 h ;Xv p ;X;XdX3 3 F.F.F.Z.=XuX6Xb.l.l.l.z.n.1XMXMXU.E.R.).(.^.;.>.u.r.w.i.q.w.w.y.t.3.1.R.E.U.9X7XhXfXl R ",
"s ( ' ' ' Z J B P I Y Y M Y v b h g h fXaXaXgXlXlXlXlXkXfXV.V.sXdXjXsX&XrXqX4Xv.D.D.m.Q.U.bXBXNXR.2.(./.~.:.t.y.w.i.q.8.y.y.u.,.1.Y.T.MX9X5XsXaXx z B ",
"/ ` ' ' Z S f z R M h x kX;XgXkXfXdXfX-XpX;X<XpXpX<X-XhX>XsXZ.=X=XZ.D.D.N.2X9XN.m.m.L.Q.E.BXNX2.2.2.,.:.:.u.y.w.i.q.q.y.y.u.<.;.2.E.U.8X6X=XpXx Y n f ",
"` ' ' K L F z l v dX3 A.-XfXpX-X>X<X<X&XV.*X>XZ.A.&XZ.Z.=XrXrXrXrXZ.C.l.m.8XMX8X!.L.L.T.R.R.2.2.5.5.>.t.u.y.8.q.0.i.y.e.t.3.;.).NXU.m.4X*X-Xx Y U s / ",
"#.'  .L B z b x ;XpXZ.&X<X>XsXZ.:XtXtX&Xk.*XtX&XC.5Xk.C.b.4X4XqXqX5Xl.z.n.U.nXnXE.T.Y.).2.2.2.5.3.>.t.y.y.8.q.0.q.y.y.t.,.,.1.R.nXM.b.6XpX;XY P d / ` ",
"' K J H I b g iX<X&X:X:XtXrX4X4X6X5XqXqXqXeXeXqX6XqX4Xb.5Xv.v.9XwX2XM.n.!.nXNXBXNX).2.2.2.5.4.3.t.u.r.r.y.q.0.q.8.r.t.:.^./.Y.Q.M.b.5X>XdXc R S D ` ' ",
"_ J G I b lXpX*XrX5Xb.6X4X4XwX2XN.N.8X8X2X2X8X2XwXwXwX2X2Xm.z.M.MXMXnXU.I.NXNXNX2.2.2.1.,.,.>.t.y.y.y.y.8.q.q.w.y.t.<.:./.Y.L.n.0X5X>XkXv z A C L u ' ",
"Z S P T gX;X>X6X6XN.M.M.8X3X3X3X3X3Xx.n.3X1Xz.1XwXwXwXwX3X1Xn.!.U.bXNXNXE.R.).2.2.2.4.;./.:.r.r.w.y.y.q.q.q.w.y.y.3.4.^.H.E.!.9X5X*XpXkXY d C Z ' ' i ",
"H W b kX-X=X6X8X3Xx.1X1X3XmXbXP.I.mXbXU.nXmX3X3XwXMX1X3XMXmXbXU.L.P.NXY.H.(.).2.5.4.4.:.:.u.r.y.y.w.q.q.q.w.y.u.>.4.^.H.P.MXwX6X&X-Xh k E D Z _ ` i Z ",
"V T v ;X,XrX8X1X3XbXbXI.bXW.I.T.Y.NXmXx.M.3X3XwXwX2Xn.n.U.mXmXnXL.K.R.(.~./.(.5.4.4.4.u.u.r.8.8.q.q.q.8.w.y.u.>.5.^.J.L.U.2XtXtX<Xh j d F K ' ' _ ` s ",
"z v zXxXeXwX3XmX#X#XI.#X-.H.-.R.P.P.!.1X2X1XN.2X8X8Xn.!.Q.nXBXBXE.Y.2.1././.,.4.<.u.t.t.r.8.q.0.0.q.8.w.y.r.:.,.2.Y.Y.U.m.9X7X<XgXc I S L _ ' ../ C V ",
"M kX,XqX2Xx.E.#X#X-.-.$X2.1.-.R.U.nXM.8X1X1X1X1Xm.n.n.U.E.bXBXBXNX2.1.(.(.,.<.t.u.r.r.y.w.q.0.0.q.w.w.e.t.:.:.1.NXBXmXM.b.rXsX;Xg P d C +.X.' u Z F I "
};
