/* XPM */
static const char *NA__[] = {
/* columns rows colors chars-per-pixel */
"75 75 240 2 ",
"   c #4D006C",
".  c #4F0067",
"X  c #53006D",
"o  c #57006D",
"O  c #550071",
"+  c #5A0373",
"@  c #5D0777",
"#  c #4D0070",
"$  c #630A79",
"%  c #661675",
"&  c #6B126F",
"*  c #732C78",
"=  c #7C4D74",
"-  c #7F687E",
";  c #88346B",
":  c #A9565D",
">  c #BB695B",
",  c #875A75",
"<  c #935170",
"1  c #A5566A",
"2  c #907073",
"3  c #B37A7B",
"4  c #B97677",
"5  c #B16F70",
"6  c #CB7C5B",
"7  c #D37D54",
"8  c #C67B67",
"9  c #C27973",
"0  c #BDAC5D",
"q  c #BCB75C",
"w  c #ADBB5F",
"e  c #9B9074",
"r  c #BC8A6C",
"t  c #B49C6C",
"y  c #BA9769",
"u  c #AD847D",
"i  c #AB8C7C",
"p  c #AB8D78",
"a  c #B38C73",
"s  c #B78675",
"d  c #AD9576",
"f  c #AC9B75",
"g  c #A5947E",
"h  c #AA947B",
"j  c #A59B7D",
"k  c #A99A7A",
"l  c #A29275",
"z  c #B29772",
"x  c #A88666",
"c  c #9EAA7D",
"v  c #9CB77A",
"b  c #ADA96D",
"n  c #BBA364",
"m  c #BBAB63",
"M  c #B3A46B",
"N  c #B2AC6A",
"B  c #B8A867",
"V  c #ACB46C",
"C  c #ACBB6C",
"Z  c #AABB6B",
"A  c #B4B365",
"S  c #BCB363",
"D  c #B5BA66",
"F  c #ABA374",
"G  c #A6AC74",
"H  c #ABAA72",
"J  c #A4A37B",
"K  c #A3AB7B",
"L  c #A9A578",
"P  c #B1A273",
"I  c #A5B374",
"U  c #A5B675",
"Y  c #B0B471",
"T  c #DA854C",
"R  c #CA895B",
"E  c #D48355",
"W  c #DA8553",
"Q  c #DD8952",
"!  c #D48559",
"~  c #C59C5C",
"^  c #C99559",
"/  c #D49551",
"(  c #E2904A",
")  c #C4A85A",
"_  c #C5B458",
"`  c #C58866",
"'  c #C39862",
"]  c #C1AB62",
"[  c #B8C85B",
"{  c #B7D35C",
"}  c #ABC467",
"|  c #B4C564",
" . c #A1C172",
".. c #C3C559",
"X. c #680C82",
"o. c #6C1286",
"O. c #74198C",
"+. c #791E92",
"@. c #7D2296",
"#. c #6E348B",
"$. c #765091",
"%. c #7E7AAD",
"&. c #7E6DB6",
"*. c #7B65BD",
"=. c #766DBE",
"-. c #7B6CBB",
";. c #7967BA",
":. c #7D74B5",
">. c #7D7AB3",
",. c #7672BC",
"<. c #7A73BB",
"1. c #7778B7",
"2. c #7073B9",
"3. c #7A659D",
"4. c #6E5ECE",
"5. c #735FC8",
"6. c #675CD5",
"7. c #6A5DD2",
"8. c #6D62CC",
"9. c #6E6AC5",
"0. c #7465C5",
"q. c #746BC3",
"w. c #7163C9",
"e. c #7667C3",
"r. c #6A60D0",
"t. c #7271C1",
"y. c #84299D",
"u. c #81269A",
"i. c #892DA2",
"p. c #8D32A6",
"a. c #8E33A8",
"s. c #9337AC",
"d. c #993DB3",
"f. c #885286",
"g. c #9E7B8E",
"h. c #9A6D9A",
"j. c #9A6D98",
"k. c #8E7D9E",
"l. c #887395",
"z. c #9C7394",
"x. c #9B7B94",
"c. c #95749C",
"v. c #9A739A",
"b. c #937B9C",
"n. c #977C98",
"m. c #8E6888",
"M. c #AC7583",
"N. c #AB7B84",
"B. c #A5748D",
"V. c #A37B8B",
"C. c #A87988",
"Z. c #B27583",
"A. c #A37692",
"S. c #AA6C87",
"D. c #9E42B7",
"F. c #A245BB",
"G. c #856DAD",
"H. c #8B6CAB",
"J. c #8C6AA9",
"K. c #926DA3",
"L. c #8C75A4",
"P. c #857CA6",
"I. c #8B7CA3",
"U. c #8575AD",
"Y. c #8973AA",
"T. c #847CAC",
"R. c #8A7BA9",
"E. c #8676A6",
"W. c #9272A2",
"Q. c #907CA0",
"!. c #8364B4",
"~. c #836BB3",
"^. c #8466B5",
"/. c #8274B2",
"(. c #817AB1",
"). c #8977B0",
"_. c #B254CC",
"`. c #B85AD2",
"'. c #AC4FC7",
"]. c #BE60D9",
"[. c #C263DD",
"{. c #CB6CE6",
"}. c #CE6EE9",
"|. c #C667E1",
" X c #CF70EA",
".X c #D172EC",
"XX c #D575F0",
"oX c #7C84AA",
"OX c #7782B4",
"+X c #7286B0",
"@X c #9D848D",
"#X c #9B8C8C",
"$X c #988D8C",
"%X c #9E9486",
"&X c #9D9C85",
"*X c #95948E",
"=X c #9B938B",
"-X c #949B8D",
";X c #9A9A8A",
":X c #8D849D",
">X c #878C9E",
",X c #8C8B9C",
"<X c #8B8899",
"1X c #958595",
"2X c #9A8492",
"3X c #948C94",
"4X c #9A8A92",
"5X c #92839A",
"6X c #928A9A",
"7X c #998898",
"8X c #8D9395",
"9X c #8C929B",
"0X c #8B9895",
"qX c #939392",
"wX c #929992",
"eX c #979594",
"rX c #8E9088",
"tX c #A58485",
"yX c #A48D84",
"uX c #AA8C82",
"iX c #A2848B",
"pX c #A88686",
"aX c #A39484",
"sX c #A29B82",
"dX c #A49587",
"fX c #A38992",
"gX c #9DA383",
"hX c #98A687",
"jX c #9AB183",
"kX c #89A690",
"lX c #A2A582",
"zX c #A0B480",
"xX c #8484A4",
"cX c #8A83A3",
"vX c #858AA3",
"bX c #898BA1",
"nX c #8383AB",
"mX c #8786AB",
"MX c #8A91A3",
"NX c #8982A9",
/* pixels */
"aX;X3X<X>XxX%.%.>.!.:.1.1.oXoXvX:XbX:X,X<X5X5X<X5X:XL.K.E.nXnXT./.:.<.*.&.=.e.0.w.w.w.8.7.6.6.7.8.8.w.q.t.<.:.nXmXcXcX,XwX-XhXgXJ H y D _ _ ) m B G J ",
"V.3X<Xk.xX%.%.:.&.,.2.1.>.oXxXvX>X<Xn.<X<Xn.v.5X>Xk.L.I.R.U.T.(.!.&.<.*.*.q.0.5.4.4.4.7.6.6.7.8.w.w.q.,.<.~.U.mXcXc.n.qX*X;XsXK I Z } | [ [ | V I J gX",
"eX1X:XE.%.~.!.,.;.,.1.1.%.E.k.>X:X,X3X1X1X1X5X,X:Xc.I.E.U.H.U.>.:.-.,.q.q.w.w.8.4.7.6.6.6.7.8.8.0.q.,.1.~.!.H.cXQ.v.1X@XC.N.p U I D | { [ | V r L g N.",
"1X<XK.G.>.*.;.=.=.2.OX%.oX>Xk.<X1X8XqX1X1X1X6X<X5Xk.I.E.U.U.:.:.<.,.q.q.w.8.8.r.7.6.6.7.8.8.8.w.q.<.<.:.~.H.I.bX,X,X3XC.yXaXK H V } [ { q B  .f j ;X=X",
"5XI.J.%.1.*.;.9.2.+XoXP.>X>Xn.8X1XqXwXqX2X2Xn.n.,Xk.L.E.U.>.:.&.-.q.q.0.w.8.8.7.6.6.8.8.8.w.w.q.<.1.>.>.U.R.bXMX9X8XV.N.gXzXL ` V D _ [ ' M v v gX#XwX",
":XE.G.1.,.5.9.=.2.OXP.xX<X<X1X3X@X-XwXwX3X1X1X6X,Xb.I.E.Y.(./.-.=.q.0.0.w.4.7.6.7.4.w.8.w.0.q.<././.(.U.H.L.bX9X9XqXC.tXjXK r y } ) 0 } M P p gXhX*X6X",
"I.G.!.=.*.0.9.=.:.oXxX<X,X3X3X@X*X=X-X#X$XqX2X1X5Xb.I.Y.U.(.(.-.=.q.q.0.w.r.7.r.8.w.q.0.e.*.&.:.~.H.U.Y.K.c.,X9X0X#XM.u K P r V } [ A C  .f g hX-X8X:X",
"E.G.!.=.=.0.=.:.U.xX<X8X0X*X#X#X=X%X;X=X=XqX4X7X6X5XW.E.T.(.:.-.=.q.w.w.8.8.8.8.9.q.q.q.=.;.<.:.G.H.U.R.L.k.,XqXwX#XM.u K U V A 0 q ` V U c hXkXkX0XcX",
"%.:.,.2.q.2.1.oXxX:X5XqX*X#X%X%XaXaXaXhX;X@X4X7X6Xb.I.E.Y.(.~.-.q.w.9.w.8.8.4.w.0.q.;.=.-.<.1.>.U.U.nXxXbX>X6Xx.=X;Xu k U U Z R ~ B M P h sX%XkX0X<XI.",
"U.:.=.=.=.1.oXxX<X<X1X$X=X%XsXsXaXaXaXaX%X#X$X4X7Xb.I.E.U.(.:.-.q.w.9.w.8.4.w.0.w.=.*.-.&.&.>.>.T.U.xXvX>X9XqX4X=X;XgXK G  .Z m B V U k j &X=XkX0X>XxX",
"%.:.2.,.2.%.P.>X8XqX#X%XyXaXj j j sXaXsX&X%X=X4X1X5XQ.L.U.>.:.,.q.0.8.9.9.9.0.q.=.-.&.^.^.~.>.T.Y.K.I.bX9X8XqX=X;XhXj a F Y n D Z U U J gX;X*XkX<XI.xX",
"%.+X1.,.~.P.:X<XqX*X%XyXuXg j J J k g g aXyX=X$X1X5Xb.L.U.T.:.*.*.0.9.9.9.e.q.=.-.&.&.~.~.G.U.nXR.W.k.>X5X1XV.C.yXgXi s F y ` N  .v K g yXhXwXkX>XL.E.",
"oX+X1.%.E.k.5X$X#X%XsXg k k k J J k j j sXyX%X=X3X1Xb.I.R.U.:.&.;.q.q.e.q.=.,.<.<.>.>.(.(.).NXR.I.cX:X5Xz.g.iXN.yXgXJ G P ` y b U v v sX%X#X1X8X>XI.oX",
"T.%.%.P.k.5X$X#XtXaXlXj J L f k J k h j sXsX;X=X3X1Xb.I.Y.G./.1.,.;.,.;.<.OX1.3.$.#.#.#.#.$.$.J.k.MX6Xz.x.4X;XhXhXjXv I y y b I v v jXhX-X-X3X1X>XvXoX",
"oXoXE.:Xn.x.=X%XaXsXj J L L f d f k h h j gX;X=XqX1Xc.L.R.U.~.:.-.;.<.1.;.#.% + X . X X . . X O % #.l.qX4X-XhXhXgXj U H N V U v v v gXhX-X-X8X8X<XxXxX",
"vXxX<X1Xx.@X=XaXyXj k k f f f f f L J J J aX%X*XwX3Xb.K.L.nXT.>.^.<.:.#.+ X o X.@.a.d.d.d.p.@.X.O X + * m.=XhX&Xi k G r y U I G c c &X;XhX*X3X8X9X9XxX",
">X>X8X8X$X=X&XaXh k k d d f F F f d h j gXaXiX@XqXqX,X:XW.R.nXOXOX$.@ X @ y.'.|.}..X.X.X.X.X}.|.'.i.@ X @ m.jXaXg v I r t F f k J j aXtX-X#X*X0X1X<X>X",
"<X3XqX-X#X%XaXaXj h d d f f F L f d p i &X%XiXV.4XqX,X>XcXcXnXmX$.+ o O._..X.X{.{.{.{.{.{.{.{.{..X.X`.@.o O - lXg K I I t z a s j j gX;XhX-X-XwX3X1X<X",
"1X$X*X=X%XyXyXsXJ h p h J f f f L k i uXaX;X$X@X2X1X5X>XbXvXvX3.@ o i.{..X{.{.{.{.{.{.{.{.{.{.{.{.{. X Xs.o O 2 k p f U I H f k k u gX&XhXhX*X#XeXqX8X",
"#X#X@X%X%XaXaXg g k h k k L k k J j aXaXaX;X-XqX3Xn.v.5X>XMXvX% X y..X{.{.{.{.{.{.{.{.{.{.{.{.{.{.{.{.{..Xs.X % j I U U F f G v J c jXgXgX;X;X;X;X=X$X",
"$X#XiXaXaXaXsXsXj j h p h k J J J &X&X;X=X=XwXwXwX1Xz.h.:XMX$.X o.|.}.{.{.{.{.{.{.{.{.{.{.{.{.{.{.{.{.{.{.}.@.X = U I H a a f v v v v c gXsXsXsX%X=X*X",
"tX%X%XaXaXaXsXsXsXj h h h g j lXsX&X;X;X=X#X#XeXwXqXn.j.v.b.% X D..X{.{.{.{.{.{.{..X{.|.{..X{.{.{.{.{.{.{..X_.O % a z G G I I U k a J K K c j j gX#XiX",
"tXyX%XyXyXaXyXtXaXaXaXyXuXuXsX&X;X;X;X;X=XiXV.V.4XwXqX1Xn.j.+ $ [.}.{.{.{.{.{.{.}.D.O.$ O.'.}.{.{.{.{.{.{.{.{.O.o 1 M I I F H I f a F K d f K h aX%XtX",
"%X%XaXaXaXyX%XyXyX%XyXyXyXaX%X;X;X=X-X-X*X@XA.A.A.4X0X8XeXl.o O.{.{.{.{.{.{.{.}.i.X o + X X F. X{.{.{.{.{.{..Xa.. , Y G H r r I U I I U t f J g sXyXtX",
"&X%XaXaX%X=X#X#X#X%X%X%X%X=X=X=X=X=XqXwX*X#XV.A.B.V.3X0XeXl.O o.{.{.{.{.{.{..XF.X % m.#X= X o.{.{.{.{.{.{.{..Xd.  = B t H ` r V V M V N Y t k j &X%X%X",
"%X%X#X#X%X#X@X#X#X$X=X=X=XeXqX3X4X2X2X3XwXqX2XB.B.B.g.*X4Xz.$ + _..X{.{.{..X[.$ O m.jXN.M.+ $ |.}.{.{.{.{.{..XD.  = B b V y ` M y y N ' y t k j &X&X&X",
"aX#X#X#X$X$X4X3X4X4X4XqXqX3X3X1Xn.x.x.x.2XqXqX2XB.B.B.#X@XC.* X o._.}. X}.`.O.X * jXhXdX5 o o.{.{.{.{.{.{.{..Xs.  , } Z Z N ` ` y D D N y L k j sXaXyX",
"aX%X#X#X3X3X1X1X1X1X3XqX6X,X<X,Xn.v.v.z.z.2XqXeX@XC.C.C.C.C.S.% X @ +.y.+.@ X % %XgXi lX, . y..X{.{.{.{.{.{..Xy.  < D } } } A ' D A n C M f k g yXyXpX",
"%X*X4X2X1X5Xn.n.5X5X,X,X,XbXbXbXk.c.h.h.j.z.2XwX-X=XiXM.M.M.Z.5 * + X   X O * 5 p j s 5 % o '..X{.{.{.{.{.{.|.X.o 5 m } } A 0 | | A B y H G k g aXaXyX",
"=XqX1Xn.5X5Xb.Q.I.I.I.cXcXxXxXxXcXW.h.h.j.j.z.3X-X-X%XN.Z.Z.3 4 s e 2 , , e U s 9 s 5 & . @.}.{.{.{.{.{.{..X'.O & ' S | | ^ R q ~ A Z t z f j g yXaX;X",
"g.1X5Xb.:XcXcXcXL.Y.Y.R.nXT.R.nXxXI.W.h.h.j.z.2X*XhX;XtX3 4 4 4 4 a L p 2 2 2 < ; & + . o.[.}.{.{.{.{.{.{..Xy.  , _ ^ ) [ ) _ q ^ A Z b r d j sX&X;X=X",
"2X6X5XI.I.I.R.R.U.U./.>.(.G.G.U.T.nXI.c.h.j.z.x.$X;X;XsX3 4 4 9 1 ; % o X X       O $ p.[.}.{.{.{.{.{.{..X_.+ @ b ) 7 / [ { [ D n V y z a h lXyX%X=X#X",
"5X:XI.I.R.R.U.(.>.:.:.:.&.^.!.^.G.T.mXcXb.c.z.x.@XiXyXsXi 3 9 ; +   @ o.@.y.i.s.d.'.[..X}.{.{.{.{.{.{.{.{.O.  , { ) / _ { { q ~ ` y ` f k k sX;X#X4X7X",
"5XcXI.U.U.).(.:.<.<.,.<.&.!.!.!.^.U.xXbX,X5Xn.V.B.C.N.i i s < O + s.].{.}. X.X.X.X.X}.{.{.{.{.{.{.{.{..Xp.X % w { { [ _ q [ R R ` M F U k sXuXtX$X2Xn.",
"cXI.U.U./.:.:.-.*.=.q.t.=.*.!.!.J.L.cXMX8X3Xx.B.M.Z.Z.3 s 3 % O D.XX}.}.{.{.{.{.{.{.{.{.{.{.{.{.{.}..Xs.o + x { { { ) W ^ w ] n ` r H K J sXyX=XqX1X:X",
"cXR.T./.&.-.=.e.0.0.w.q.,./.^.H.H.W.b.6XqX4XV.C.Z.Z.4 4 9 1 O o.{.{.{.{.{.{.{.{.{.{.{.{.{.{.{.{.{.[.y.X O 2 .._ _ [ ) E ) | C y r z a j sXsX=X4X1X<XI.",
"nXU.(.-.*.q.w.0.w.w.0.q.1.>.T.Y.K.K.v.x.4X$XiXM.Z.4 4 4 9 < . i..X{.{.{.{.{.{.{.{.{.{.{.{.{.{. X`.$ X $ 2 ../ T / q | ] n D C y F K k gXsXdXwX3X<XcXxX",
"T./.:.=.q.0.8.8.8.4.e.;.>.T.U.E.K.h.j.A.V.iXtXM.3 4 4 4 8 <   p..X{.{.{.{.{.{.{.{.{.{.{.{.{.{.{.{.s.o $ R _ T T E q | D n n N U U d j tXtX=XqX8XbXvXR.",
"(./.-.q.0.8.8.8.8.5.*.~.(.Y.K.K.c.h.j.B.C.N.N.3 3 4 4 4 8 1 X O.}.{.{.{.{.{.{.{.{.{.{.{.{.{.{.{.{..Xu.  * _ ^ E / ~ S } B 8 z U J i yXtX-X4X1X,XcXnXU.",
"/.-.q.0.8.r.8.9.q.*.&./.U.K.K.h.v.z.B.B.M.M.M.3 3 4 4 9 8 > % o F.XX.X}. X.X}.}..X X{.{.{.{.{.{.{.}.].$ O x [ ) R ! ] C M r f d lXgX%XC.qX1X:XcXR.U.(.",
"-.q.w.8.7.7.8.q.<.&.~.G.U.I.c.v.x.z.B.B.M.Z.3 3 4 4 9 8 8 ` < O + p._.`._.D.u.@.s.`..X{.{.{.{.{.{.{..Xp.  = [ ~ R ` ` t I G a s lXhX=XB.3X,XI.R.U./.&.",
"q.0.8.7.6.4.w.<.<.~.^.Y.P.cX<X1Xx.B.B.M.M.3 3 4 4 4 8 8 8 8 6 ; +   + + O #       + D..X{.{.{.{.{.{..X_.+ % ' ' B ` 8 r U K j uXuX=X3X1X<XcXcXU.(.&.;.",
"0.8.7.6.4.w.-.<.:./.Y.E.cX>X6X1X@XC.M.M.3 3 3 4 ` ` ` 8 8 6 6 E > ; & $ & ; : : ; O + _..X{.{.{.{.{.{.|.X.+ x D V r r f K c gXpXiXV.1X5Xc.I.mXG.:.<.q.",
"4.7.6.7.w.q.:.:.(.U.R.cX,X6X1Xg.iXV.N.3 u s s 5 1 1 5 8 ! 6 E 7 Q Q 7 7 W T ( ( ( <   y..X{.{.{.{.{.{.}.@.X 2 C M t L k u sXhXdXeX3X6X>XI.R.T.(.-.q.0.",
"7.7.7.8.0.-.:.(.U.Y.I.,X8X3X@XV.V.tXi i z 5 * + X X + & > E E E W Q T T T T T W Q > o o.{.{.{.{.{.{.{..Xy.  2 y 4 a k 3 3 &XhX-XwX5Xc.I.E.T.(.<.*.0.8.",
"6.8.w.q.=.<.:.U.E.L.:X,XqXeXiXtXtXu i L e $ X + +.y.o.X + : Q W Q Q T W T W W Q Q 6 o $ |.{.{.{.{.{.{..Xi.. < ` 4 s k u yX-X#X2X8X5XcXnXT.U.~.;.e.w.7.",
"7.w.q.=.-.~.T.R.I.:X,XqXeX=XyXpXu u d H * O $ _.}.}.|.p.O % 7 Q Q Q Q W W W W W Q > o o.|.{.{.{.{.{.{..Xy.  , r 3 j lXsXhX=XB.2X9XcXR.T.(./.&.e.w.4.6.",
"w.q.=.-.~.U.nXcX:X,X3X4XdXsXsXaXi d P l + O '.XX{.{.}.}.O.# : ( W Q W E E W W E Q 1   @.}.{.{.{.{.{.{.{.+.X 2 L j &XaX;X-XqX1X9XcXK.H.U.^.^.e.w.4.6.6.",
"q.;.-.:.U.Y.cXb.5X1X@XiXuXlXlXJ f F Y 2 X O.{.{.{.{.{..XF.  ; Q E E E E E E ! ! ! ;   s..X{.{.{.{.{.{.|.X.+ e jX&XpXM.#XwX9X9XbXI.Y.U.~.-.*.0.8.7.6.8.",
"q.-.:.(.U.I.5X5X1X#XiXuXuXJ K G I G D ,   i..X{.{.{.{..X_.O & E E E E E E 6 6 ! > + + `. X{.{.{.{.{..X_.O % gXhXyXZ.B.3X9X9XbXcXY.U.~.&.=.0.8.7.6.8.0.",
":.:.(.U.I.:X6X4X=X#XaXg J K G H I V A < . p..X{.{.{.{.}.|.$ O > Q ! E E ! ! ! > & . y..X{.{.{.{.{.{..Xp.. = jXhXyXiX4X9X9X>XI.I.J.^.&.*.0.8.7.6.7.w.e.",
">./.U.I.k.1XeXdXtXtXj J K U V b V V S 1 X y..X{.{.{.{.{..Xd.. % 1 6 6 6 8 : ; + . O.[.}.{.{.{.{.{.}.|.X.O rXhX=XiX2XqX9XbXL.K.R.G.&.=.w.8.r.6.7.8.q.<.",
"(.U.I.:X5X4X=XyXtXi k f F b V V A A ) 5 X O.{.{.{.{.{.{.{.}.p.O   + & & + o   + y.|.}.{.{.{.{.{.{..Xd.X * hX=XV.B.x.,XbXcXK.Y.).~.;.q.8.8.7.7.8.0.=.:.",
"U.I.cX5X2XiXdXsXh h f t M V A A D q _ ^ & + `.}.{.{.{.{.{.{. X'.u.X.@ @ $ O.p._. X}.{.{.{.{.{.{.}.].$ O m.hX@XB.z.5XbXvXP.J.U./.*.e.0.4.7.7.8.w.q.1.:.",
"R.cX,X2XfXaXaXj f t t M N m m q [ q _ _ ;   s..X{.{.{.{.{.{.{..X X|.].].[.{..X.X{.{.{.{.{.{.{.{.}.@.  * iXqX1Xx.5XbXvXnXU.U.>.-.e.9.8.7.7.w.0.q.-./.T.",
"I.5X3X=XyXaXk d z t M B m ) ~ ~ ) _ q ..x O @ `..X{.{.{.{.{.{.{.{.{.}.}.}.{.{.{.{.{.{.{.{.{.{..Xs.X $ S.V.3X5Xc.c.cXnXnX(.>.1.q.0.8.7.7.w.q.q.,.:.U.L.",
"n.2X=X%XaXh f P M n n m ) ) ~ ^ ~ S D D [ =   O.{.}.{.{.{.{.{.{.{.{.{.{.{.{.{.{.{.{.{.{.{.{..Xd.O + f.fX1X6Xv.h.W.nXnX>.>.1.q.0.4.7.6.8.0.q.,.:.(.E.b.",
"2X=X%XaXk f b N n n ) _ ) ) ~ ~ ' S D D | N % X u.{.}.{.{.{.{.{.{.{.{.{.{.{.{.{.{.{.{.{.}. Xs.o O f.eX,X,Xb.h.W.R.nX>.>.-.;.w.8.7.6.8.0.e.-.&.U.U.cXn.",
"=X;XaXh f b V n ~ ) q S ] ' y n B A D D D | x $ X @.]..X{.{.{.{.{.{.{.{.{.{.{.{.{.{.}..X`.@.o + f.7X<X>XbXcXI.W.Y.(.1.-.e.0.8.7.6.7.w.q.,.1.(.R.cX6X4X",
"%XaXk z t n A q 0 q D S B y N V V N A V C V A 5 %   $ D.|..X.X}.{.{.{.{.{.{.{.}..X.X[.d.$ X @ f.A.v.b.bXvXmXR.J.^.:.,.=.0.8.7.6.7.w.q.<.<.>.U.I.5XeXeX",
"sXd f M y y 0 q q S m N y y M b M t M V V V H y 5 * O X o.d.`.|.}..X.X.X.X.X{.[.'.i.$ X O #.m.z.h.h.W.cXmXmXY.^.&.,.q.w.8.r.6.7.w.0.-.-.~.Y.I.:X3XfXyX",
"k f M n ~ ) _ 0 A B N M t y z t y t H H F F H d s s < % O   + o.u.i.s.d.a.i.+.$ O X + % 3.6Xn.h.h.h.L.nXnXT.(.-.,.q.w.8.8.6.7.8.0.*.<.:.Y.I.cX7X=XiXu ",
"f b V S ) _ ) 0 n M P z z z a a z F G f s a k J k p k j 2 * % + X . . . . X X + % #.f.5X9X:Xb.c.W.W.U.T.(.(.1.=.e.w.8.8.7.7.8.w.e.-.:.T.R.cX6XfXfXtXp ",
"b N S | _ _ S B M F f d d k d a d d h h s s h lXc J lXlXdXu N.2 < < f.$.$.$.f.m.A.A.v.c.:XbXcXI.R.T.(./.~.&.=.e.0.8.r.7.8.8.w.q.,.:.T.R.I.5X4XdXaXd L ",
"y ^ _ _ _ m A b F G J J c J j k i u i aXuXuXsXgXhXhXhXhXyXN.N.tXpXpXfXfXeXwX7XA.A.j.h.c.I.xXmXnX(.>./.^.!.*.q.w.8.r.7.4.w.w.e.-.:.U.Y.bX6X2XiXuXg F b ",
"~ ) _ _ ] N y f L c i g gX&XsXgXaXtXaX%XyX&X;XyXyX;X%XdX=XiXV.$X$XV.B.A.n.<X6Xn.v.v.K.W.R.mXnX>.>.>.-.*.*.e.w.8.r.7.7.w.w.e.;.&.>.R.I.5X3X$XyXg J y y ",
") _ _ S A V f k j tX3 M.%XaXyX%X=X;X;X@XN.#X=XV.C.@XV.C.$XqXqXqXqXA.A.j.v.5XbX5XW.K.K.Y.T.T.>.>.1.1.=.q.e.w.4.7.6.r.w.9.q.,.&.(.nXI.c.1X#X%Xg J H y ^ ",
".._ ] D V F k g &XyXV.@X;X=XiXV.*XwXwX@Xg.#XwX@XB.2Xg.B.x.1X1X8X8X2Xj.h.c.I.bXcXR.U.U.(.>.>.>.1.,.=.q.w.w.4.7.6.7.w.w.q.-.-.:.T.cXb.x.3XyX&XJ F t ~ ) ",
"_ S A Z G k u tX;X@X*X*XwXqX1X1X3X2X8X8X8X0X0X8X3X8X1Xx.1Xz.z.5X9X,Xb.c.W.cXnXmXnX(.>.>.>.1.<.,.q.e.0.0.w.7.6.7.4.0.q.*.~.^.U.W.n.x.2X=XpXh L N B ) _ ",
") A Z G k gXyX#XqX2Xx.1X1X1X8X,Xn.n.5X5X,X<X5X,X9X9X9X,X,Xc.h.b.bXbXcXI.P.nXnXnX>.>.>.:.-.-.=.q.w.w.w.w.4.7.7.8.w.q.;.*.^.U.K.c.7X2X=XgXj f M n D q _ ",
"m N F K sX;X$X3X3Xn.b.b.5X<X>X>X<X<Xk.c.>X:Xj.:X9X9X9X9X>X:Xc.Q.I.xXmXnXR.T.(.>.>.>.<.&.^.*.0.0.8.w.w.7.7.7.8.w.w.,.<.~.G.R.Q.6X2X#XyXgXJ t n m _ _ q ",
"Z I k gX%X$X3Xn.<Xk.:X:X>XvXxXL.P.vXxXI.cXbX<X>X9XbX:X<XbXvXxXI.K.Y.nXU.G./.(.>.1.<.<.*.*.e.0.w.w.8.7.7.7.8.w.e.=.<.~.G.L.bX9X4X@X%Xi s P B m ) ) q m ",
"P c j ;X-XqX5X:X>XxXxXP.xXE.P.Y.U.nXvXk.b.>X>X9X9X,Xc.c.I.vXvXcXK.J.T./.!.^./.1.<.<.<.e.e.0.4.4.7.7.7.4.8.w.e.=.1.~.H.K.I.,XwXwX;Xi p t V S _ _ ) ) y ",
"f j hXkX0X9X<XvXoXoXP.oX%.G.%.T.Y.L.W.:X,X:Xn.,X5X5Xc.W.W.cXmXmXR.U.>.:.^.^.-.<.;.e.q.q.0.4.7.6.6.7.4.8.w.0.*.-.>.U.U.I.c.6X4X;XsXh G M D ) _ [ ~ n b ",
"c gX-X0X<Xk.R.oXoX%.%.OX>.:.%.T.I.cXb.5X<X<X<X:Xv.c.c.I.R.xXmXmXnX>.:././.-.;.q.e.0.0.w.8.7.6.6.7.8.8.9.q.*.*.:.nXmXvXb.x.qXiX&Xu F t n | [ _ q m V G "
};
