/* XPM */
static const char *NQ__[] = {
/* columns rows colors chars-per-pixel */
"75 75 239 2 ",
"   c #4D006C",
".  c #4E0067",
"X  c #52006D",
"o  c #510067",
"O  c #4E0070",
"+  c #550071",
"@  c #5B0373",
"#  c #5E0776",
"$  c #630A7D",
"%  c #620977",
"&  c #661776",
"*  c #701A6E",
"=  c #6C2778",
"-  c #793B74",
";  c #752B77",
":  c #7A4877",
">  c #8B3668",
",  c #853974",
"<  c #904E6F",
"1  c #A4536A",
"2  c #937073",
"3  c #B67A78",
"4  c #B6716F",
"5  c #BE705F",
"6  c #CC7C66",
"7  c #D77C55",
"8  c #BEAA5D",
"9  c #BBBB5C",
"0  c #BCB55B",
"q  c #ADA35F",
"w  c #989274",
"e  c #BB896B",
"r  c #B49C6C",
"t  c #BB9768",
"y  c #AD847D",
"u  c #AC8D7C",
"i  c #AB8977",
"p  c #B38C73",
"a  c #B68475",
"s  c #AD9476",
"d  c #AC9B75",
"f  c #A5947E",
"g  c #AA947B",
"h  c #A59C7D",
"j  c #A99A7A",
"k  c #B29A71",
"l  c #B39472",
"z  c #AC8769",
"x  c #9EAA7D",
"c  c #9CB77A",
"v  c #ADAC6D",
"b  c #AEA46F",
"n  c #BBA364",
"m  c #BBAB63",
"M  c #B3A46B",
"N  c #B2AB6A",
"B  c #B7AA66",
"V  c #ACB46C",
"C  c #ACBC6C",
"Z  c #A9B86B",
"A  c #B4B365",
"S  c #B3BB64",
"D  c #B8B665",
"F  c #ABA374",
"G  c #A5AC75",
"H  c #ABAB72",
"J  c #A4A37B",
"K  c #A3AB7B",
"L  c #A8A478",
"P  c #B3A572",
"I  c #A5B374",
"U  c #A5B575",
"Y  c #B0B279",
"T  c #AD8D5A",
"R  c #D4954E",
"E  c #CC895A",
"W  c #D38955",
"Q  c #C59C5C",
"!  c #CB9658",
"~  c #D49553",
"^  c #D68B4D",
"/  c #C3AC5B",
"(  c #C6A758",
")  c #C4B558",
"_  c #D2A355",
"`  c #C68866",
"'  c #C39763",
"]  c #C6886D",
"[  c #C1A562",
"{  c #C4B461",
"}  c #B4CC5C",
"|  c #B9C65B",
" . c #B6D15B",
".. c #ACC467",
"X. c #B4C463",
"o. c #A8C66F",
"O. c #C4C15A",
"+. c #680D81",
"@. c #6B1485",
"#. c #73198B",
"$. c #781E91",
"%. c #7C2295",
"&. c #6E3287",
"*. c #795389",
"=. c #7D7AAC",
"-. c #7E6DB6",
";. c #7B65BD",
":. c #766DBE",
">. c #7B6CBB",
",. c #7867BB",
"<. c #7D74B5",
"1. c #7D7BB3",
"2. c #7672BC",
"3. c #7A73BA",
"4. c #7678B7",
"5. c #6F76BB",
"6. c #7A5F9D",
"7. c #6E5ECE",
"8. c #735FC8",
"9. c #675CD5",
"0. c #6A5DD2",
"q. c #6D62CC",
"w. c #6E6AC5",
"e. c #7465C5",
"r. c #746BC3",
"t. c #7163C9",
"y. c #7667C3",
"u. c #6A60D0",
"i. c #7271C1",
"p. c #83289C",
"a. c #892EA2",
"s. c #8E32A7",
"d. c #9337AC",
"f. c #993DB2",
"g. c #885185",
"h. c #9F7B8C",
"j. c #9A6D9A",
"k. c #9A6D98",
"l. c #8E7D9E",
"z. c #8A7798",
"x. c #9D7394",
"c. c #9B7B94",
"v. c #95749C",
"b. c #9A7299",
"n. c #937B9C",
"m. c #977C98",
"M. c #906C88",
"N. c #AB7483",
"B. c #AC7B84",
"V. c #A4748D",
"C. c #A47C8B",
"Z. c #A87A89",
"A. c #A47692",
"S. c #AA7389",
"D. c #9E42B7",
"F. c #A144BA",
"G. c #A549BF",
"H. c #856DAD",
"J. c #8B6CAB",
"K. c #8C6AA9",
"L. c #926DA3",
"P. c #8C75A4",
"I. c #857CA6",
"U. c #8B7CA4",
"Y. c #8575AD",
"T. c #8973AA",
"R. c #847BAC",
"E. c #8A7AA9",
"W. c #8676A6",
"Q. c #9273A2",
"!. c #917CA0",
"~. c #8364B4",
"^. c #836BB3",
"/. c #8466B5",
"(. c #8274B2",
"). c #817AB1",
"_. c #8872B0",
"`. c #A94CC3",
"'. c #B255CC",
"]. c #B95BD4",
"[. c #AE51C8",
"{. c #BF61D9",
"}. c #C263DD",
"|. c #CB6CE6",
" X c #CD6EE9",
".X c #C667E1",
"XX c #CF70EA",
"oX c #D272ED",
"OX c #D576F0",
"+X c #7C84AA",
"@X c #7484B2",
"#X c #9D848D",
"$X c #9C8C8C",
"%X c #988D8C",
"&X c #9E9486",
"*X c #9D9C85",
"=X c #95938D",
"-X c #9B938B",
";X c #949B8C",
":X c #9B9A8A",
">X c #8D849D",
",X c #8C8B9C",
"<X c #8A8A9A",
"1X c #958595",
"2X c #9A8492",
"3X c #948C94",
"4X c #9A8A92",
"5X c #92839A",
"6X c #928A9A",
"7X c #998398",
"8X c #8D9395",
"9X c #8C929B",
"0X c #8B9896",
"qX c #939392",
"wX c #929A92",
"eX c #979495",
"rX c #8B8A8D",
"tX c #A58485",
"yX c #A48D84",
"uX c #AA8C82",
"iX c #A3838B",
"pX c #A88686",
"aX c #A39484",
"sX c #A29B82",
"dX c #A49487",
"fX c #A8838D",
"gX c #9CA483",
"hX c #98A686",
"jX c #91A88E",
"kX c #A2A583",
"lX c #A0B480",
"zX c #8484A4",
"xX c #8A83A3",
"cX c #858AA3",
"vX c #898BA1",
"bX c #8483AB",
"nX c #8686AA",
"mX c #8A92A1",
"MX c #8681AB",
/* pixels */
"aX:X3X<X<XzX=.=.1.~.<.4.4.+X+XcX>XvX>X,X<X6X5X<Xn.>XP.L.W.bXbXR.(.<.3.;.>.:.y.e.t.t.t.q.0.9.9.0.q.q.t.r.i.3.<.bXnXxXxX,XwX;XhXgXJ H t D ) ) / B M G J ",
"C.3X<Xl.zX=.=.<.-.2.2.4.1.+XzX<X<X<Xn.<X<Xm.b.6X,Xl.P.U.E.Y.R.).~.-.3.;.;.r.e.8.7.7.7.0.9.9.0.q.t.t.r.2.3.^.Y.MXxXv.n.8X=X:XsXK I Z ..X. .| X.V I J gX",
"qX1X>XW.=.^.~.2.,.2.5.4.=.W.l.<X>X,X3X3X1X3X6X,X>Xv.U.W.R.J.Y.1.<.>.2.r.r.t.t.q.7.0.9.9.9.0.q.q.e.r.2.3.^.~.J.xX!.b.1X#XZ.B.u U I C X. .| X.V e L f B.",
"1X<XL.H.1.;.,.:.:.5.@X=.zX<Xl.<X1X8XqX1X1X1X6X<X5Xl.U.W.Y.Y.<.<.3.2.r.r.t.q.q.u.0.9.9.0.q.q.q.t.r.3.4.<.^.J.U.vX,X,X3XZ.yXf K H V ..}  .0 B o.d h *X-X",
"5XU.K.=.4.;.,.w.5.@X+XI.cX<Xn.8X1XqXwXqX2X2Xm.m.,Xl.P.W.Y.1.<.-.>.r.r.e.t.q.q.0.9.9.q.q.q.t.t.r.3.1.4.1.Y.E.vXmX9X8XC.B.gXlXH ] N S ) } ' M c c gX$XwX",
">XW.H.4.2.8.w.:.4.+XI.zX<X<X3X3X#X;XwXwX3X1X3X6X6Xn.U.W.T.).(.>.:.r.e.e.t.7.0.9.0.7.t.q.t.e.r.3.(.(.).Y.J.P.vX9X9XqXZ.tXgXK e t ..8 0 ..N b p gXhX=X6X",
"U.H.~.>.,.e.w.:.<.+XzX<X,X3X3X#X=X-X;X$X%XqX2X1X5Xn.U.T.Y.).).>.:.r.r.e.t.u.0.u.q.t.r.e.y.;.>.<.^.J.Y.T.L.v.,X9XwX$XN.y K P e V ..| A C o.d f hX;X8X>X",
"W.H.~.:.:.e.:.<.Y.zX<X8X0X=X$X$X-X&X:X-X-XqX2X2X6X5XQ.W.R.).<.>.:.r.t.t.q.q.q.q.t.r.r.r.:.,.3.<.H.J.Y.R.P.l.,XqXwX$XN.y K U V A 8 0 ` V U x hXjXjX0XxX",
"=.<.3.5.w.5.4.+XzX>X5XqX=X$X&X&XaXaXaXhX:X#X4X4X6Xn.U.W.T.).^.>.r.t.w.t.q.q.7.t.e.r.,.:.:.3.4.1.Y.Y.bXzXvX9X6Xc.-X:Xy j U U Z E Q B M F g sX&XjX0X<XU.",
"Y.<.:.:.:.4.+XzX<X<X1X%X-X&XsXsXaXaXaXaX&X$X%X2X1Xn.U.W.Y.).<.>.r.t.w.t.q.7.t.e.t.:.;.>.>.-.4.1.R.R.zXcX,X9XqX2X-X:XgXK Y C C m B V U d h *X-XjX0X<XzX",
"=.<.5.2.4.=.I.<X8X3X%X&XyXaXh h h sXaXsX*X&X-X4X1X5X!.P.Y.1.<.2.r.e.q.w.w.w.e.r.:.>.>./.~.^.=.R.T.L.U.vX9X8XqX-X:XhXh p F V n S C U I J gX:X=X0X<XU.zX",
"=.@X5.2.^.I.>X6XqX=X&XyXuXf h J J j f f aXyX-X%X1X6Xn.P.R.R.<.;.;.e.w.w.w.e.r.2.>.>.-.^.^.H.Y.bXE.Q.xX9X1X1XV.Z.yXgXu a F t ` N o.c K aXyXjXwX0X<XP.W.",
"+X@X4.=.W.l.5X%X$X&XsXf j j j J J j h h sXyX&X-X3X1Xn.U.E.Y.<.>.,.r.r.y.r.:.2.>.>.<.<.(.Y.Y.R.E.xXxXz.z.k.h.fXB.yXgXJ G b ` t v U c c sX&X-X1X8X9XU.+X",
"I.=.=.I.l.5X%X$XtXaXkXh J L d j J j g h sXsX:X-X3X1Xn.U.T.H.<.4.2.,.2.,.,.5.4.-.<.1.1.Y.K.T.nXP.&.& @ @ @ & *.:XhXlXc I r t v I c c hXhX;X;X3X1X<XcX+X",
"+X+XW.>Xm.c.-X&XaXsXh J L L d s d j g g h gX:X-XqX1Xv.P.E.Y.^.<.>.>.3.4.4.@X1.^.^.R.Y.R.T.E.zX= X X % $ # X X - gXh U H N V U c c c hXhX;X;X8X8X<XzXzX",
"cXzX<X3Xc.#X-XaXyXh j j d d d d d L J J J aX&X=XwX3Xn.L.P.bXR.1.-.6.&.#.&.*.6.+XR.I.E.zXE.xX&.X $ f.{..X{.D.$ X - L G e t U I G x x *X*XhX=X1X8X,X9XzX",
"<X9X8X8X%X-X*XaXg j j s s d F F d s g h gXaXiX#XqXqX,X>XQ.E.nX=.@.X o X o o @ &.R.MXU.U.Q.*.X % '.OX X X XOX'.% @ w U p r F k j J h aXtX;X$X=X0X6X<X<X",
"<X3XqX;X$X&XaXaXh g s s d d F L d s u u *X&XiXC.4XqX,X,XxXxX=.& o $ s.F.F.a.# X &.xXxX>X!.&.o f.OX.X|.|.|.|.oXs.  < U I b l p a h h gX*XhX;X;X0X3X1X<X",
"1X%X=X-X&XyXyXsXJ g u g J d d d L j u uXaX:X%X#X2X1X6X,XvXmX&.o #.{.oXoXoXoX[.% X 6.mX9Xz.@ @ ]. X|.|.|.|.|.oXD.  , P U I H d j j y gX*XhXhX-X%XqXqX8X",
"#X$X#X&X&XaXaXf f j g j j L j j J h aXaXaX:X;XqX3Xm.b.5XmX6.@ @ ].oX.X|.|.|.OXf.o &.m.9X*.o %. X|.|.|.|.|.|.oXd.  : o.U F d G c J x lXgXgX*X:X:X:X-X%X",
"%X$XiXaXaXaXsXsXh h g u g j J J J *X*X:X-X-XwXwXwX1Xx.k.6X&.o a.oX|.|.|.|.|.oX[.X = 1X3X= X F.oX|.|.|.|.|.|.|.#.X 2 o.b p p d c c c c x gXsXsXsXaX-X=X",
"tX&X&XaXaXaXsXsXsXh g g g f h kXsX*X:X:X-X$X$XeXwXqXm.k.k.# @ '.XX|.|.|.|.|.oXF.o ; jXrX@ % }. X|.|.|.|.|.oX'.+ & p k G G I U U j p J K K x h h gX$XiX",
"tXyX&XyXyXaXyXpXaXaXaXyXuXuXsX*X:X:X:X:X-XiXC.C.4XwX8X4X&.  %.XX|.|.|.|.|.|.XX%.X *.jX*.  p.oX|.|.|.|.|.|.oXs.  , ] r I I F H I d p F K s d K g aX&XtX",
"&X&XaXaXaXyX&XyXyX&XyXyXyXaX&X:X:X-X;X;X=X#XA.A.A.4XwX8X& X [.oX|.|.|.|.|.XX'.@ # M.;X= X `.oX|.|.|.|.|.|..X+.+ 2 P H H H e e I U I I U k d L f sXyXpX",
"*X&XaXdX&X-X$X$X$X&X&X&X&X-X-X-X-X-XqXwXwX$XC.A.V.V.eX*.X #.|.|.|.|.|.|.|.oXa.  : kXM.+ +..X X|.|.|.|.|.oX[.X & I V r r H ] e V V M V N V k j h *X&X&X",
"&X&X$X$X&X$X#X$X$X%X-X-X-XqXqX3X4X2X2X3XwXqX2XV.V.V.h.& X F.oX|.|.|.|.|. X].# @ M.lX:   a.oX|.|.|.|.|.|.oXp.  : o.V r v V t ` M t t N ' t k j h *X*X*X",
"aX$X$X$X%X%X4X3X4X4X4XqXqX3X3X3Xm.c.c.c.2XqXqX2XV.Z.g.X @..X|.|.|.|.|.|.oXd.  ; aXhX& X [.oX|.|.|.|.|.XX}.$ + w C V Z C C N ` ` t S S N t L j h sXaXyX",
"dX&X$X$X3X3X1X1X1X1X3X8X6X,X<X,Xm.b.b.x.x.2XqXqX#XC.=   f.oX|.|.|.|.|. X}.+.+ 2 lX2 X @.|. X|.|.|.|..XoXG.X = V t ] N ......A ' A A n C P d j f yXyXpX",
"&X=X4X2X1X6Xm.m.5X5X,X,X,XvXvXvXl.v.j.j.k.x.2XwXwXM.+ $ }. X|.|.|.|.|.oXD.X = y u :   s.oX|.|.|.|.|.|.oXp.  < m ` ` B ....A 8 X.X.A B t H G j f aXaXyX",
"-XqX1Xm.6X5Xn.!.U.U.U.xXxXzXzXzXxXQ.j.j.k.k.x.3XjX-   s.oX|.|.|.|.|. X|.@.X 2 a 4 % + '.oX|.|.|.|.|. X}.% @ z A ' ' A ..X.! W 9 Q D C r l d h f yXaX:X",
"h.1X1Xn.>XxXxXU.P.T.T.E.bXI.E.bXzXU.Q.j.j.k.x.2XrX@ @ ]. X|.|.|.|.|.oX`.X & G P 1 X #.|.|.|.|.|.|.|.oXD.X - ....S m ! ( | ( / 0 ! A C b e s h sX*X:X-X",
"2X6X5XU.U.U.E.E.Y.Y.Y.1.).H.H.Y.I.bXU.v.j.k.x.#X*.  p.oX|.|.|.|.|.|. X$.  < r V -   d.oX|.|.|.|.|.|. X%.X 2 } ..X.Q 7 ! | } } S m V t l p g gXyX&X-X$X",
"6X>XU.U.E.E.Y.).1.<.<.<.-./.~.K.H.R.nXxXn.b.x.x.# @ '.oX|.|.|.|.|.oX[.+ % 5 6 z # @ ].XX|.|.|.|.|. X].@ # V S X.} / ! ) } } 9 Q ` t ` d d j sX:X$X4X2X",
"5XxXU.R.Y.).).<.3.3.2.2.>.~.~.~.K.Y.zXvX,X5X2Xg.X %. X|.|.|.|.|.|.oXp.  < 6 6 1   $. X|.|.|.|.|.|.oXf.  : ) 8 } } } | ) 9 | E E ` M F U j sXuXtX%X2Xm.",
"xXU.R.Y.(.<.<.>.;.:.r.i.:.;.~.~.K.P.xXmX8X3Xc.& X `.oX|.|.|.|.|.XX].@ @ 4 ` 6 ;   f.oX|.|.|.|.|.|.|.#.X z ) 9 }  . .( ^ ! 9 [ [ ` e H K h sXyX-XqX1X>X",
"xXE.R.(.>.>.:.y.e.e.t.r.2.<./.J.J.Q.n.6X8XeXg.X #.|.|.|.|.|.|.|.oXs.  > ` ' 5 @ @ ]. X|.|.|.|.|.oX'.+ & 9 | 9 ) ) | ( W ( X.C t e k p h sXsX-X4X1X<XU.",
"bXY.).>.;.r.t.e.t.t.e.r.4.1.R.T.L.L.b.c.4X%X= X D.oX|.|.|.|.|. X}.% @ 5 ~ { 2   %. X|.|.|.|.|.|.oXd.  < ) 9 R ^ R 9 X.{ m C Z t F K j gXsX:XwXqX<XxXzX",
"R._.<.:.r.e.q.q.q.7.y.,.1.R.R.W.L.j.k.A.fXM.X +..X X|.|.|.|.|.oXf.X * 1 1 2 ; X F.oX|.|.|.|.|.|.|.@.+ 1 R ) ^ 7 W 0 X.D n n N U U s h pXtX-XqX8XvXcXE.",
"_.(.>.r.e.q.q.q.q.8.;.^.).T.L.L.v.j.k.V.Z.;   d.oX|.|.|.|.|. X}.%   o       o # }. X|.|.|.|.|.oX`.o X X * T _ W ! Q D ..M 6 l U J u yXtX;X4X1X,XxXbXY.",
"(.>.r.e.q.u.q.w.r.;.>.(.Y.L.L.j.b.x.x.V.M.@ % {. X|.|.|.|.|. X'.a.a.a.s.s.s.a.f. X|.|.|.|.|.|.oX`.p.a.#.+ & q / E E [ C M e d s kXgX&XZ.qX1X>XxXE.Y.).",
">.r.t.q.0.0.q.r.3.^./.H.R.U.v.b.c.x.V.Z.,   a.oX|.|.|.|.|.|.|.|.oXoXoXoXoXoXoXoX|.|.|.|.|.|.|.|. XoXoX|.%.O < ( E ` ` r I G p a kXhX-XV.6X,XU.E.Y.(.-.",
"r.e.q.0.9.7.t.3.3.^./.T.I.xX,X1Xc.V.Z.N.* + [.oX|.|.|.|.|.|.|.|.|.|.|.|.|.|.|.|.|.|.|.|.|.|.|.|.|.|.|.oX'.+ * t B ` 6 e U K h uXuX-X3X1X>XxXxXY.).-.,.",
"e.q.0.9.7.t.>.3.<.(.T.W.xX<X6X1X#XZ.B.N.@ # {. X|.|.|.|.|.|.|.|.|.|.|.|.|.|.|.|.|.|.|.|.|.|.|.|.|.|.|. X}.# @ v V e e d K gXgXpXpXC.1X5Xv.U.MXH.<.3.r.",
"7.0.9.0.t.r.<.<.).Y.W.xX,X6X1Xh.iXC.pX3 @ $ .X X|.|.|.|.|.|.|.|.|.|.|.|.|.|.|.|.|.|.|.|.|.|.|.|.|.|.|. X{.# # v M k F j y sXgXdX;X3X6X<XU.E.R._.>.r.e.",
"0.0.0.q.e.>.<.).Y.W.U.,X8X3X#XC.C.pXuXy @ # }. X|.|.|.|.|.|.|.|.|.|.|.|.|.|.|.|.|.|.|.|.|.|.|.|.|.|.|.oX`.X = e 3 p j 3 3 *XhX;XwX6Xn.U.W.R.).3.;.e.q.",
"9.q.t.r.:.3.<.Y.W.P.>X,XqXeXiXtXpXy u L = X F.OX|.|.|.|.|.|.|.|.|.|.|.|.|.|.|.|.|.|.|.|.|.|.|.|.|.|. X|.#.  < ] 4 a j y yX;X$X2X8X5XxXbXR.Y.^.,.y.t.0.",
"0.t.r.:.>.^.R.E.U.>X,XqXqX-XyXpXy y u Y 2 + $ [.oXoXoXoXoXoXoXoXoXoXoXoXoX|.|.|.|.|.|.|.|.XXoXoXoXoX}.p.X # i e a h gXsXhX-XV.2X9XxXE.R._._.>.y.t.7.9.",
"t.r.:.>.^.Y.bXxX>X,X3X4XdXsXsXf u s d H V - O @ %.d.D.F.F.F.F.F.F.F.F.D.[.|.|.|.|.|.|.|.XX'.f.D.f.s.+.X + < U j kX*XaX:X;XqX1X9XxXL.J.Y./.^.y.t.7.9.9.",
"r.,.>.<.Y.T.xXn.5X1X#XiXuXkXkXJ d L H P V N < #     O O O O O O O O + . s.oX|.|.|.|.|.|. X#.  X     + % < d x gXsXpXN.$XwX9X9XvXU.T.Y.^.>.;.e.q.0.9.q.",
"r.>.<.).Y.U.5X5X2X$XiXuXaXJ K G I H v M n t [ z 1 < > > > > > > > > @ @ ].XX|.|.|.|.|.XX].@ % : - , < 4 a g gXhXyXN.Z.3X9X9XvXxXT.Y.^.>.:.e.q.0.9.q.e.",
"<.<.).R.U.>X6X4X-X$XaXf J K H H I V N t ! ! ! ( _ R R ^ ^ ^ W W ~ 1   $. X|.|.|.|.|.|.oXd.  - P k ] ] 3 y h hXhXdXiX4X9X9X<XU.U.K./.>.;.e.q.0.9.0.t.y.",
"1.(.T.U.l.5XeX-XtXpXh J K U V v V V B Q ! ! ! ! ! ~ ^ W W W W E W ;   D.oX|.|.|.|.|.|.|.@.X 1 e 3 a y y aXgXhX-XiX2XqX9XvXP.L.E.H.-.:.t.q.u.9.0.q.r.3.",
").Y.U.>X5X4X-XdXy u j d F v V N A A 8 ! ! ~ ~ R _ ~ ~ ^ W W E E 5 @ % }. X|.|.|.|.|.oX[.+ & 3 3 3 3 u sXgXhX-XC.V.c.,XvXxXL.T._.^.,.r.q.q.0.0.q.e.:.<.",
"Y.U.xX5X2XiXdXsXg g d k M N A A S 9 / ! R R R R _ / ! ! W E E W <   p.oX|.|.|.|.|.|.oXa.  , 3 3 3 3 uXaX:X;X2XV.x.5XvXcXI.K.Y.(.;.y.e.7.0.0.q.t.r.3.<.",
"E.xX,X2XyXaXaXh d k r M N B m 8 | 9 ) ( ! ! R ! ( ) ) Q ! E E ` * X `.oX|.|.|.|.|.|..X+.+ 1 3 3 3 B.B.B.iXqX1Xc.5XvXcXzXY._.1.>.y.w.q.0.0.t.e.r.>.(.R.",
"U.5X3X-XyXaXj s l r M B m ( Q Q / ) 9 ) / ( / / { X.S m ' ` E 4 + +..X|.|.|.|.|.|.oX`.X * 3 3 3 N.B.B.S.C.3X6Xv.v.xXzXbX).1.3.r.e.q.0.0.t.r.r.2.<.Y.P.",
"m.2X-X&XaXg d b M n n m / ( Q ! Q D S S 9 9 9 D S S S A t ` ` >   s.oX|.|.|.|.|.|.XXp.  < pXN.N.N.Z.C.c.1X6Xb.j.Q.bXbX1.4.3.r.e.7.0.9.q.e.r.2.<.).W.n.",
"2X-X&XaXg d H N n m ( ) / ( Q Q ' D S X.X.S S D m B N M t ] ` * + [.oX|.|.|.|.|. X}.# @ h.B.N.N.V.c.3X6X9Xn.j.Q.E.bX1.4.>.,.t.q.0.9.q.e.y.>.-.Y.R.xXm.",
"-X:XaXg d b N n Q ( 9 D [ ' t n B D S S S S A n ' e r t e ] 4 @ # }. X|.|.|.|.|.oXF.o = dXC.C.V.c.7X,X,XvXxXU.Q.T.).4.>.;.e.q.0.9.0.t.r.2.3.).E.xX6X3X",
"&XaXj k r n A 0 0 9 D D B t N V N N A V Z V N t e ` e e e e 4 % @ {. X|.|.|.|.|. X$.X g.;X3X2Xx.x.b.n.vXcXnXE.K./.<.2.:.e.q.0.9.0.t.r.3.3.1.Y.U.5XqXeX",
"sXs d M t t 8 9 0 D m N t r M v M r M V V V H e e e e a a 3 3 ; X d.oX|.|.|.|.OXD.X & 8XwX1Xc.k.k.j.Q.xXnXMXT.H.-.2.i.t.q.u.9.0.t.e.;.>.^.T.U.>X3XyXyX",
"j d M n Q ( ) 0 D B N M r r l r r r H H F F H k a 3 a p a 3 a 1 + @ d.}. X|..Xf.@ + g.eX8X6Xb.j.j.j.P.bXbXR.).>.2.r.t.q.q.9.0.q.e.;.3.<.T.U.xX7X-XpXy ",
"d v N D / ) / 8 n N P l l l p p l F G d a p d J g i g h u 3 3 3 < + X $ %.%.+.X + &.c.7X,X,Xn.v.Q.Q.R.R.).).3.:.y.t.q.q.0.0.q.t.y.>.<.R.E.xX6X4XyXpXu ",
"v N D X.) ) A B M F d s s j s p s s g g a a g kXx kXkXkXaX3 B.N.B.g.= @ X X + & g.A.b.v.>XvXxXU.E.R.).(.^.-.:.y.8.q.u.0.q.q.t.r.2.<.R.E.U.6X4XdXaXs L ",
"t ! ) ) ) m A v F G J J x J h j u y u aXuXuXsXgXhXhXgXgXaXB.B.iXC.fXiXM.g.*.M.x.A.b.j.v.U.zXnXbXR.1.(.~./.;.r.t.q.u.0.7.t.t.y.>.<.Y.T.vX6X2XiXuXf d H ",
"Q ( ) ) [ N r d L x u f gX*XsXgXaXpXaX&XyX*X:XyXyX:X&XdX-XiXC.%X%XC.V.A.2X9X6Xm.b.b.L.Q.E.nXbX1.1.4.>.;.;.r.t.q.u.0.0.t.t.y.,.-.1.E.U.5X3X%XyXf J r t ",
"( ) ) D A V d s h pX3 N.&XaXyX&X-X;X;X#XZ.$X-XC.Z.#XC.Z.%XqXqXqXqXA.V.k.b.5XvX>XQ.L.L.T.R.R.1.4.3.3.:.r.y.t.7.0.9.u.t.w.r.2.-.).zXU.v.1X$X&Xf J H t Q ",
"O.) { C v d j f *XyXC.#X;X-XiXC.=XwXwX#Xh.%XwX#XV.2Xh.V.c.1X1X8X8X2Xk.j.v.U.vXvXE.Y.Y._.1.1.4.3.2.:.r.t.t.7.0.9.0.t.t.r.>.>.<.R.xXm.c.3XyX*XJ F r Q ( ",
") D A Z G j y tX:X#X=XqXwXqX1X1X1X2X8X8X8X0X0X8X3X8X1Xc.7Xb.x.6X9X,Xn.v.Q.xXzXnXbXR.1.1.1.3.4.2.r.y.e.e.t.0.9.0.7.e.r.;.^./.Y.Q.m.c.2X-XpXg L N A ( ) ",
"/ D C G j gXyX$XqX2Xc.3X1X1X8X,Xm.b.5X5X,X,X5X,X9X9X9X,X,Xv.j.n.vXvXxXU.I.bXbXbX1.1.1.<.>.>.:.r.t.t.t.t.7.0.0.q.t.r.,.;./.Y.L.n.7X2X-XgXh d M n S 9 ) ",
"B N F K sX*X-X3X3Xm.n.l.5X<X<X<X<X<Xl.v.<X>Xk.>X9X9X9X9X9X>Xv.!.U.zXzXbXE.R.).1.4.4.3.>./.;.e.e.q.t.t.0.0.0.q.t.t.2.3.^.H.E.!.6X2X$XyXgXJ r n m ) ) 0 ",
"Z I j gX&X%X3X5X<Xl.>X>X<XcXzXP.I.cXzXU.xXvX<X<X9XvX>X<XvXcXzXU.L.T.bXY.H._.).1.3.4.3.;.;.y.e.t.t.q.0.0.0.q.t.y.:.3.^.H.P.vX9X3X#X&Xu a b B m / ( 0 m ",
"b K h *X;XqX5X>X<XzXzXI.zXW.I.T.Y.zXzXl.n.vX<X9X9X,Xv.v.U.cXcXxXL.K.R.(././.(.3.3.3.3.y.y.e.7.7.0.0.0.7.q.t.y.:.3.^.J.L.U.,XwXwX:Xu p k V D ) ) / ( t ",
"d h hXjX0X9X<XcX+X+XI.+X=.H.=.I.T.P.Q.>X,X>Xn.,X5X5Xn.v.Q.xXnXnXE.Y.1.<././.>.3.,.y.r.r.e.7.0.9.9.0.7.q.t.e.;.>.1.Y.R.U.v.1X4X:XsXg G N D / ) | Q n b ",
"x gX;X8X<Xl.E.+X+X=.=.@X1.<.=.I.U.xXn.5X<X<X<X>Xb.n.v.U.E.zXnXbXbX1.<.(.(.>.,.r.y.e.e.t.q.0.9.9.0.q.q.w.r.;.;.<.bXnXcXn.c.qXiX*Xy F r n X.| ) 9 m V G "
};
