/* XPM */
static char *f682f275b6214970865d36c4797d5d53HbxKrlWrQkLnM8sM[] = {
/* columns rows colors chars-per-pixel */
"75 75 255 2 ",
"   c #BF6F5E",
".  c #BB776A",
"X  c #B46E76",
"o  c #AB777A",
"O  c #BB7B73",
"+  c #B87678",
"@  c #B47A7B",
"#  c #D77D49",
"$  c #CD7B54",
"%  c #CB7958",
"&  c #CB7665",
"*  c #C57A67",
"=  c #C17A73",
"-  c #BB955C",
";  c #BDA95B",
":  c #BAB75B",
">  c #BCBB5C",
",  c #9D987B",
"<  c #BC866A",
"1  c #BB8B6C",
"2  c #AB9C6B",
"3  c #B99869",
"4  c #AB8878",
"5  c #AB8D7C",
"6  c #B68476",
"7  c #B38B74",
"8  c #A49674",
"9  c #AD9576",
"0  c #AC9B75",
"q  c #A5957E",
"w  c #AB947B",
"e  c #A59B7D",
"r  c #A99B7A",
"t  c #B39472",
"y  c #B19B72",
"u  c #B49976",
"i  c #9DB16C",
"p  c #9BA77C",
"a  c #9BB37C",
"s  c #9CB879",
"d  c #AAA96C",
"f  c #BBA364",
"g  c #B7AB67",
"h  c #BBAB63",
"j  c #B4A36B",
"k  c #B3AC6A",
"l  c #ACB46D",
"z  c #A8B968",
"x  c #ACBC6C",
"c  c #B4B465",
"v  c #BBB364",
"b  c #B5B867",
"n  c #B3BD64",
"m  c #ABA374",
"M  c #A7A876",
"N  c #ABAB73",
"B  c #A4A37B",
"V  c #A3AB7B",
"C  c #B2A775",
"Z  c #A4B474",
"A  c #ACB371",
"S  c #A7B974",
"D  c #A2B279",
"F  c #B8B575",
"G  c #D68649",
"H  c #DB854D",
"J  c #CD9349",
"K  c #CB8859",
"L  c #D58554",
"P  c #DA8553",
"I  c #D68857",
"U  c #C7985A",
"Y  c #D19554",
"T  c #C5A84E",
"R  c #C6A758",
"E  c #C3AB5B",
"W  c #C5B557",
"Q  c #C3B35B",
"!  c #CB8363",
"~  c #C68865",
"^  c #C2836A",
"/  c #C39764",
"(  c #D9996B",
")  c #CF8F72",
"_  c #C3A764",
"`  c #CBAE6B",
"'  c #E4A277",
"]  c #B7C85A",
"[  c #B2CD5B",
"{  c #9DC075",
"}  c #ADC468",
"|  c #B4C665",
" . c #B5CC70",
".. c #C2C259",
"X. c #C5C671",
"o. c #6F5FBB",
"O. c #7A77A9",
"+. c #7E7BAC",
"@. c #6E6FBB",
"#. c #7666B7",
"$. c #7D6CB6",
"%. c #7B65BD",
"&. c #756CBE",
"*. c #7B6CBB",
"=. c #7D75B4",
"-. c #7678B6",
";. c #7D7AB4",
":. c #7672BC",
">. c #7A72BB",
",. c #6958C4",
"<. c #6D5ECD",
"1. c #735EC7",
"2. c #675BD4",
"3. c #6A5DD2",
"4. c #6E68C4",
"5. c #6D63CC",
"6. c #7465C5",
"7. c #746BC3",
"8. c #7868C3",
"9. c #7164C9",
"0. c #7B75C8",
"q. c #6B60D0",
"w. c #786CD5",
"e. c #99798A",
"r. c #946D90",
"t. c #976C98",
"y. c #8B799C",
"u. c #9B7B94",
"i. c #94749D",
"p. c #997698",
"a. c #937B9C",
"s. c #A76B8C",
"d. c #AB7B84",
"f. c #A77588",
"g. c #A37C8C",
"h. c #B27784",
"j. c #A37993",
"k. c #856DAD",
"l. c #8C6AA8",
"z. c #8B6CAB",
"x. c #916DA4",
"c. c #8C75A5",
"v. c #847CA5",
"b. c #8878A7",
"n. c #8C7CA4",
"m. c #8574AC",
"M. c #8974AB",
"N. c #847CAB",
"B. c #9273A2",
"V. c #957BA6",
"C. c #8465B4",
"Z. c #836BB3",
"A. c #8274B2",
"S. c #817AB1",
"D. c #8A79BC",
"F. c #8377C4",
"G. c #8379D1",
"H. c #7D869E",
"J. c #7C87A6",
"K. c #7C82AB",
"L. c #7384B2",
"P. c #8D8B8B",
"I. c #9D858C",
"U. c #968A8A",
"Y. c #9C8C8C",
"T. c #8C978B",
"R. c #9D9486",
"E. c #939984",
"W. c #9D9C84",
"Q. c #95948D",
"!. c #9B948B",
"~. c #959B8C",
"^. c #9B9A8A",
"/. c #8C849D",
"(. c #898899",
"). c #8C8B9C",
"_. c #958595",
"`. c #9A8493",
"'. c #948C94",
"]. c #9A8B92",
"[. c #92839A",
"{. c #9B829B",
"}. c #928A99",
"|. c #8D9395",
" X c #899796",
".X c #8C929C",
"XX c #939393",
"oX c #989395",
"OX c #939A92",
"+X c #A58585",
"@X c #AB8782",
"#X c #A48D84",
"$X c #A2848A",
"%X c #A38B89",
"&X c #A39383",
"*X c #A59487",
"=X c #A29B83",
"-X c #AE8F94",
";X c #9CA483",
":X c #97A886",
">X c #91A693",
",X c #A3A683",
"<X c #B0AE8F",
"1X c #8484A4",
"2X c #8B83A3",
"3X c #858BA3",
"4X c #898BA2",
"5X c #8483AB",
"6X c #8788AA",
"7X c #9789A5",
"8X c #8D94AF",
"9X c #9694A6",
"0X c #8A87B7",
"qX c #AF92AD",
"wX c #B3ADB1",
"eX c #CA958C",
"rX c #D2AD91",
"tX c #D5AAA4",
"yX c #CFB3B2",
"uX c #B9C68F",
"iX c #B6C3A6",
"pX c #C8CD93",
"aX c #D0CDB0",
"sX c #E4D1AB",
"dX c #E8C9BA",
"fX c #EAD6B8",
"gX c #D5E2A8",
"hX c #928DC6",
"jX c #A69CCC",
"kX c #B2ACCF",
"lX c #B8B6C8",
"zX c #CAB8C7",
"xX c #CBB8CC",
"cX c #BEC5C8",
"vX c #CECBCB",
"bX c #D6C5C6",
"nX c #D8CBD7",
"mX c #D7D4D7",
"MX c #EAD4CD",
"NX c #F3D9CA",
"BX c #E6D5D9",
"VX c #DEE3D1",
"CX c #E7E9D6",
"ZX c #EDE8D4",
"AX c #CECAE4",
"SX c #D9D8E8",
"DX c #E7DDE5",
"FX c #EAE7E9",
"GX c #F4EAE8",
"HX c #F0EFEF",
"JX c #F7F4EC",
"KX c #EBE9F2",
"LX c #F5F3F5",
"PX c #F9F7F5",
"IX c #FEFEFE",
/* pixels */
"*X^.oX9X9X8X0X0X0XD.D.0X0X8X8X8X7X9X9X9X9X7X7X7X7X9X7XV.7X8X8X0XD.0XD.D.F.F.F.F.0.w.w.w.w.w.w.w.w.0.0.0.F.F.0X8X8X9X9X9X9X>X<X<X<XF ` X.` ..` F F D ,X",
"g.'.(.y.v.O.O.-.$.#.@.-.;.K.J.(.(./.p.).}.a.p./.).y.y.c.b.M.N.=.C.*.:.#.%.6.6.1.<.<.<.2.2.2.2.<.<.4.7.&.&.$.m.5X2Xi.i.|.Q.^.&Xp Z l } | ] ] > x A B p ",
"oX_./.b.N.Z.C.:.#.:.-.;.+.b.n.)./.).}.}._._.[.)./.i.n.c.b.z.m.;.=.*.:.7.7.7.9.5.5.3.2.2.3.3.5.5.6.7.:.>.Z.C.z.2Xn.p._.`.g.@X5 D A b | [ ] | x 1 M q d.",
"'.).x.M.;.%.#.&.@.-.L.+.J.3Xy./._.|.XX'._._.).).[.a.n.b.M.m.=.=.>.:.7.7.7.5.5.5.3.2.2.3.5.5.9.7.7.>.:.=.Z.z.c.4X).}.'.g.+Xw M N x } [ [ : c x 0 e W.!.",
"[.n.l.=.-.%.%.4.@.L.K.v.3X).a.|._.XXXXXX`.`.u.a.).y.c.b.m.;.=.$.*.7.7.6.9.5.3.3.2.2.q.5.5.9.7.7.>.=.-.;.m.b.4X.X.XXXg.d.;X,XM ^ k n Q [ U j { a ;XY.OX",
"2Xb.k.-.:.1.6.@.-.+.v.1X/./._.'.`.~.OXOX'._.}.}.).a.n.b.M.A.A.*.&.7.6.6.9.<.3.2.3.5.9.9.6.6.7.>.>.A.S.m.z.c./..X XP.f.+X:XV 1 3 } R E } j m 9 ;X:X'.}.",
"v.k.C.*.%.6.4.&.=.K.1X).).'.'.I.Q.!.~.Y.'.'.`.}.[.a.n.M.m.S.A.*.&.7.7.6.9.3.3.q.5.9.6.6.6.8.&.>.Z.k.m.c.l.x.9XwXwXwX@Xo V C 1 x } ] c z { 0 q :X~.|./.",
"b.k.C.&.@.6.&.=.N.1X/. X XQ.Y.Y.!.R.^.!.!.XX`.`._.[.c.b.N.S.A.*.&.7.7.9.9.5.5.5.9.7.7.7.&.&.>.=.k.z.m.b.qXSXPXIXIXIXPXMX<XA A c ; : ~ l Z p :X>X>X.X/.",
"+.=.:.:.7.@.-.K.1X/.[.XXQ.Y.R.R.&X&X*X;X^.I.].].}.a.n.b.M.A.Z.*.8.7.4.5.<.5.5.9.6.7.&.8.&.>.-.;.m.N.O.lXIXIXIXIXIXIXIXIXIXaXz K U g j m 9 =X!.>X X(.n.",
"m.=.&.&.&.-.K.1X/.(._.!.!.R.&X&X&X&X&X&XR.Y.].`._.a.n.b.m.S.>.#.o.7.0.G.w.,.,.6.7.8.%.*.$.$.;.;.N.O.lXIXIXIXFXvXaXvXHXIXIXIXuX; g l S r e =X!.>X X(.v.",
"+.=.-.:.-.+.v.(.|.XX!.R.#X&Xq e q q =X=XW.R.!.]._.[.n.c.M.S.#.F.kXKXPXIXLXSXjX7.&.>.$.$.C.Z.;.N.M.V.PXIXIXlX'.P.E.p e dXIXIXZXz x S D B ;X^.Q. X).2X1X",
"+.L.L.:.Z.v./.}.|.Q.R.#X#Xq q B B e w q &X&X!.].'.[.a.c.N.O.jXLXIXIXIXIXIXIXIXSXF.#.$.Z.Z.k.N.5Xb.xXIXIXvXe.g.$X*X;X5 . CXIXIX<Xz s D &X&X>XXX X).c.M.",
"K.L.-.=.b.y.a.'.Y.R.&Xq r r r M B r e q =X+XY.Q.'.[.a.n.m.jXIXIXIXLXSXAXSXIXIXIXFX=.=.A.A.m.b.n.n.KXIXPXj.e.$Xd.#X;XB d aXIXIXpXi s a &X%XY._. X).n.1X",
"+.;.=.v.y.[.'.Y.+X&X=Xr B r r B B r r e =X&X^.!.'._.[.n.V.LXIXIXAXF.@.o.#.hXKXIXIXkXO.A.l.c.5Xy.qXIXIXnXr.].^.^.:Xa s d aXIXIXuXi s :X:X~.~.'._..X3XJ.",
"K.K.b./.[.u.!.R.&X=Xe B B M 0 9 0 r w q =X;X^.!.XX_.a.y.lXIXIXAX#.#.>.-.-.@.hXIXIXDXm.N.M.b.3Xy.nXIXIXwXU.OX:X:X;Xe D d CXIXIXuXs a ;X:X~.OX|.|.(.1X1X",
"J.1X/.}.`.$X!.&X&Xq r r 9 0 0 9 9 B B B ,X&XR.Q.XX'.a.B.KXIXIX0X%.>.-.=.A.;.Z.KXIXKX5X1Xn.n.2X2XLXIXLXoXf.Y.:XW.5 r M ) PXIXFXM a p W.;X:XQ.'. X)..X1X",
"(..X|.|.Y.!.W.&Xq r r 9 9 0 m m 0 9 r e ;X&X$XY.XXXX(.wXIXIXAXO.;.=.;.m.k.k.M.KXIXKXn.2XB.n.y.wXIXIXvXT.!.!.:X&Xq a i yXIXIXaX8 B e &X+X~.I.'. X}.(.).",
"}.'.XX~.Y.R.&X&Xe r 9 9 9 0 m M m 9 5 #XW.R.$Xg.].XX(.FXIXIX8XK.K.K.K.z.M.k.qXIXIXSXy.2XB.i.r.mXIXIXqXe.~.:X:X=Xq V Z CXIXIXeX6 B q ;X^.:X~.~. X'._.).",
"_.U.Q.!.R.#X#X=XB w 7 w m 9 9 0 m r 5 @X&X^.Y.$X`._.wXIXIXSXJ.6XN.z.5X1Xb.J.mXIXIXlX(..X).[.{.LXIXHXY.I.!.:X:X,Xw 7 <XIXIXCX0 r r 4 ;XW.:X:X!.Y.Q.'.|.",
"Y.Y.I.R.R.#X&Xq q r w r r r r r B B &X#X*X^.~.XX].r.mXIXIXwXH.3X1Xx.x.3X1X9XPXIXKX[.p..X.Xr.wXIXIXvXU.^.:X@X=Xa V i aXIXIXaXi s B p :XW.;XW.^.^.^.Q.'.",
"Y.Y.$X&X&X&X=X=Xq e w 5 w r B B B =XW.^.!.!.OXOXXXqXIXIXFX).3X3X3X4Xi.2X(.xXIXIXzXr._.}.XXr.BXIXIXwXI.#X:X@Xq a s Z GXIXPX*X0 s a a a p ;X=X=XW.&X!.Q.",
"+XY.R.&X*X&X&X=X=Xq q q q w e ,X=XW.W.^.!.Y.Y.oXP.vXIXIXlXi.a.)..X.X.X).9XPXIXPXoX_. XXXe.-XPXIXFX!.R.:X;X@Xq B m rXIXIXCXd D s r 7 B V V p q e :XY.+X",
"+X#XR.#X#X&X#X@X&X&X&X#X#X#X=XW.^.^.^.^.!.$Xj.u.oXPXIXHX{.p.t.p.).[.). XcXIXIXvXr.XXOXOXe.yXIXIXbXo @X;Xp 4 @ 6 . dXIXIXpX2 N Z 0 7 m D 9 r B 5 &XR.+X",
"R.R.&X&X*X#XR.#X#X&X#X#X#X&XR.^.^.^.~.~.Q.$Xj.s.zXIXIXvXP.}.j.s.u.p.s.oXHXIXIX>Xe.g.~.>Xe.DXIXIX-XW.=Xe q B r t y GXIXPXC < 1 Z Z Z Z Z y y B q &X#X+X",
"W.R.&X*XR.!.Y.%XY.R.R.R.R.!.!.!.!.!.XXXXXX].g.j.HXIXPX>XXXoX].j.s.u.s.yXIXIXnXU.>X!.^.!.<XIXIXBXo ,X:Xw + 9 V Z uXIXIXVXd ^ 1 A l d A k A y r e W.R.R.",
"R.R.Y.Y.R.Y.I.Y.Y.Y.!.!.!.oXXX'.].`.`.'.XXXXe.yXIXIXnXP.].g.].Y.g.Y.e.DXIXIX-Xf.^.:X^.o yXIXIXyXo =Xa B 7 9 Z i VXIXIXpXd 1 ^ j 3 3 g / 3 y r e W.W.W.",
"&XR.Y.Y.Y.Y.].'.].].].XXXX'.'.}.u.u.u.u._.XX'.FXIXIX-XU.Y.f.s.Y.^.E.wXIXIXCX, d.#X:X:Xq FXIXPX<Xp p s a M Z S S PXIXJXx z k ~ ~ 3 n n g 3 M r q &X&X*X",
"%XY.Y.Y.'.'._._.}.'.'.XX}.).).).a.p.p.p.p.e.wXIXIXBXf.g.g.g.s.d.W.p VXIXIXiXp &X=X;X4 <XIXIXBX8 r 7 M Z t 1 d pXIXIXfXz } } c U c c f x j 0 r q &X#X@X",
"R.Q.].`._.}.a.a.[.[.).).).4X4X4Xy.i.t.t.p.r.DXIXIXwXI.d.h.h.h.h.4 <XIXIXFXa q @ 5 e X yXIXIXaX8 t = 6 m 1 * < VXIXIXrXz } c : | | v g 3 N M w q &X*X#X",
"!.XX'.u.[.[.a.a.n.n.n.2X2X1X1X1X2XB.t.t.t.qXIXIXFXE.R.d.h.X X + o mXIXIXaXi B O X 7 7 GXIXPXV s M 7 < N j < _ PXIXGXc } | U Y > R c z 3 t 0 e q #X&X^.",
"g._._.a./.2X2Xn.c.c.c.N.5XN.N.5X1Xn.B.t.t.nXIXIXwXE.^.+X@ X X X eXPXIXJXt 0 Z 9 = . rXIXIXMX. y S Z l x x z pXIXIXsXU E ] R E Q U c } d < 9 q &X=X^.!.",
"`.}.[.n.n.n.n.N.m.m.A.S.m.k.k.m.N.5X2Xi.7XPXIXHXY.^.W.&X@ X + X dXIXIXyX. O t Z t . bXIXIXrX& ^ 3 1 k } } } CXIXIX` # Y ] [ [ n f x 3 t 7 w ;X#XR.!.Y.",
"[./.n.n.b.b.m.S.;.=.=.=.$.C.C.C.k.N.6Xy.vXIXIXyXe.%X&X=X5 + X = JXIXPX) * & * 3 l C JXIXJX3 ^ 1 ! & ! g }  .IXIXCXE Y W [ [ > U / 3 ^ y 9 r =X^.Y.Y.`.",
"[.2Xn.b.m.S.A.=.>.>.:.>.$.C.C.C.C.m.1X9XPXIXLXj.f.d.d.@X5 6   tXIXIXdX  ^ & & * 2 pXIXIXVX- / k / % & _ > sXIXIXgX[ ..W > > K K / j m D r =X*X%XY.`.u.",
"2Xc.b.m.A.=.>.*.%.&.7.7.*.%.C.C.z.M./.cXIXIXbXf.h.h.h.@ 6 6 O GXIXIX) % ~ ! & & K VXIXIXpXc g } c / / v > ZXIXPX .[ T H U n _ f ~ 1 M V e =X+X!.XX_.[.",
"2Xb.S.A.$.*.&.8.6.6.7.7.:.=.C.z.z.B.2XKXIXPX-Xf.h.h.+ + O . tXIXIXMX% & ~ / ! & ) PXIXJX} | | | n ; E : X.IXIXZX> ] R L E } x 3 < t 7 q =X=X!.]._./.y.",
"5XN.A.*.%.7.7.6.9.9.6.7.-.;.N.M.x.t.wXIXIXmXe.d.h.+ + + O . ZXIXIXeX% ! ! / _ K rXIXIXgX[  .| | E K I J sXIXIXrXJ > | Q _ b x 1 m V r ;X=X^.OXXX).2X2X",
"N.A.>.&.7.7.5.5.5.1.8.&.;.S.b.c.x.t.DXIXIXqXg.d.@ + + =   eXIXIXNX% ! K U f b : ZXIXIX .[ | [ ] U L H H GXIXPXI G : | b f j k Z D 9 e #X+X!.oX.X4X3XN.",
"A.A.*.7.6.5.5.5.9.1.%.Z.S.c.x.B.t.qXIXIXBXf.d.o @ + + = * MXIXIXrX$ $ K U ; >  .PXIXZX] ] [ [ ] R P # ' IXIXfXG Y U v } j * 3 D B 4 #X+XQ.]._.).2X5Xm.",
"A.*.7.9.5.q.5.9.7.%.$.A.m.x.x.t.t.BXIXIXqXo h.@ + + = * eXIXIXGX! ! ! ! ( ` > gXIXIXsX; Q W ] [ W Y G fXIXIXpXE K $ _ } j 1 0 t ,X;X*Xg.oX`.).2XN.N.S.",
"*.8.9.5.3.3.5.7.>.$.Z.k.b.c.B.t.qXIXIXFXf.h.@ + + O = & dXIXIXPXJXJXJXJXJXJXJXPXIXIX` J Y Y T W ] > W JXIXIXPXJXNXrX~ j Z M 7 6 ,X:X!.f.'.).n.n.m.A.A.",
"7.7.5.3.3.<.7.>.>.Z.C.c.v.2X).y.nXIXIXyXo @ + + O = * ) IXIXIXIXIXIXIXIXIXIXIXIXIXZXJ H H H G T ] [ pXIXIXIXIXIXIXIXtX< D V r @X*X!.].'.}.2Xn.M.A.=.&.",
"6.5.3.3.<.9.8.>.=.A.M.b.2X).(.oXPXIXJXd.o @ + O . = * rXNXNXNXNXNXNXNXNXNXNXNXNXNXpXJ H H H P Y Q ] gXCXCXCXCXCXIXIXIX<Xp :X;X@X$Xg._.[.i.n.5Xk.=.>.7.",
"5.3.2.3.5.7.>.=.S.m.n.n.).}.e.yXIXIXbXo 6 6 6 O * * ! * % $ $ $ # # # # # G G G G J Y H H P P I R ] } } } } z d fXIXIXaX4 ,X;X*XOX'.).).n.b.N.A.*.7.6.",
"3.3.3.5.6.*.>.S.m.M.n.)..X'.e.nXIXIX<X4 7 t 7 < * ! ! ! K K L I P P H H H H H P P I Y Y L I I K ; | | |  .} A 1 ^ PXIXBXo =X:X~.OX[.a.n.b.5XS.>.%.6.9.",
"2.5.9.7.&.>.=.N.M.c./.).XXoX$XFXIXLX*Xr m m y 1 ^ ~ ! K K L I P P P H H H H P P P L Y U Y Y Y / v } } } } S y = O GXIXFX#X^.Y.`..Xa.2X5XN.A.Z.&.6.9.3.",
"3.9.7.&.*.Z.N.N.n./.).XXoXR.%XGXIXGX9 M N A j 1 ~ ! K I I L P P P P P P P P P P I I I U _ _ _ v b x l k A Z 0 O 6 JXIXFXE.!.s.`..X2Xn.N.A.A.$.6.9.<.2.",
"9.7.&.*.Z.m.5X2X).).'.].*X=X=XFXIXHXu N A l j 3 ~ K I I L L I P P P P P L P I I I I K U h b b x l 3 1 1 t M M 8 <XIXIXmXT.XX`.).2Xx.z.m.Z.Z.8.9.<.2.2.",
"6.%.*.=.m.M.2Xa.[.'.Y.$X#X,XB CXIXIX<Xd F k c / K K I I I I L I I P I L L K I I K K K K 3 b x l j < = = 6 9 V p mXIXIXwXP.|..X4Xn.M.m.Z.*.%.6.5.3.2.5.",
"8.*.=.S.M.n.[.{._.Y.$X#X#X,XM aXIXIXCXj - - - U K L G G G G G G L $ $ $ $ $ $ K K K ! ~ 3 l A d 3 . . . . 4 p aXIXIXHXoX|..X4X2Xc.m.Z.$.&.6.5.3.2.5.6.",
">.=.A.b.n./.}.].!.Y.&X&XB D M N HXIXIXJXsXrX` ` ` ( ( ( ( ( ( ( ( ( ( ) ) ) ) % * * ! ~ 3 j y <XrXeXeXeXeXyXVXIXIXIXwX|..X4Xn.c.z.C.$.%.6.5.3.2.3.9.8.",
";.A.M.n.a.[.oX!.+X@Xe B M Z A d uXPXIXIXIXIXIXIXIXIXIXIXIXIXIXIXIXIXIXIXIXIXrX% * * * ^ < 1 < GXIXIXIXIXIXIXIXIXIXzXP..X4Xc.x.b.k.*.&.7.5.q.2.3.5.7.>.",
"S.M.n./.[.].!.%X@X5 r 9 m N l k c F NXPXIXIXIXIXIXIXIXIXIXIXIXIXIXIXIXIXIXJX! * * * * O < . eXIXIXIXIXIXIXIXIXFXqXr.).4X2Xx.M.M.Z.&.7.5.5.2.3.5.6.7.>.",
"N.n.2X[.`.%X*X=Xq 9 0 y j k c c n : ; ` rXsXfXfXfXfXfXfXdXdXdXdXdXdXZXIXIXdX% = * . . O O . bXIXIXMXaXbXvXvXwXj.r._.4X3XN.z.m.A.%.6.9.<.3.3.5.7.7.>.=.",
"n.2X).`.%X*X&Xq r y y j k c h : ] > Q R J J J J T : ; J K K $ % % % MXIXIXeX* O . O O O O + GXIXLXh.o d.e.P._.u.[.4X3X5XN.m.;.*.6.7.5.3.3.9.7.7.*.=.N.",
"2X[.'.Y.#X*Xq 9 t 3 j f h E U U E Q > Q E R R Q Q | | h / ~ ~ ~ ! ) IXIXGX= = O O O O + + tXIXIXbXo d.f.j.}.}.a.a.2X5X5XS.;.>.7.6.5.3.3.9.7.7.:.=.m.c.",
"a.`.!.R.&X9 0 y j f f h E R U U U v n n > > > v b n n c 3 ~ ~ ~ * tXIXIXyX. = O + @ 6 6 o MXIXIXqXf.g.u.'.}.p.t.B.5X5X;.-.>.7.6.5.3.2.5.6.7.:.=.S.c.n.",
"`.!.^.&Xw 0 N k f f E Q E R U U _ v b | | n n v v c k j 3 ^ ^ ^ . DXIXIXeXO + + @ @ @X#X-XPXIXHXf.u.'.}..X[.t.B.n.5X;.-.>.8.7.5.3.2.5.6.8.*.$.A.N.2X{.",
"!.^.&Xw 9 j k 3 U E > v _ / 3 f g c n n n n c f / 1 3 3 < ^ ^ . eXIXIXBX+ + @ @ o d.#XR.yXIXIXxXe.`.)..X4X2Xc.B.M.A.-.*.%.6.5.3.2.3.9.7.:.>.A.N.2X}.].",
"R.q r y y j c : Q > n v g f g k k k c x x x k 3 ^ ^ 1 1 < O 6 . yXIXIXtXo @ @ d.d.+X*XQ.DXIXIXqXr.p.a.4X3X6Xn.z.C.=.>.8.6.5.3.2.3.9.7.>.>.;.M.n.[.oXoX",
"&X9 0 j 3 f ; > : v h g 3 3 j l j j j l l A d 1 < < < 6 6 O O O GXIXPX*X4 d.d.g.$XY.U.oXPXIXDXr.t.t.i.2X6X5Xz.C.$.:.7.7.5.q.2.3.9.6.*.*.Z.M.n./.'.%X%X",
"r 9 y f _ R Q : v h g j 3 3 3 m 3 y N N m m N t 6 6 6 7 6 + X eXIXIXmX, R.Y.$Xg.g.j.e.zXIXIXzXr.p.t.c.5X5XN.A.*.>.7.7.5.5.2.3.5.6.8.>.=.M.n.2X_.!.+X@X",
"0 d k _ E W E f f k j 3 t t 7 7 t m M 0 6 7 r B w 7 w e 5 6 X bXIXIXwXR.~.Q.I.g.j.j.p.FXIXIX7Xi.B.B.b.N.S.S.>.*.6.6.5.5.3.3.5.9.6.*.=.N.n.2X}.].%X@X5 ",
"d k v | W Q v g j m 0 9 9 r 9 7 9 w w 9 6 6 w ,X;XB ,X,X*X@ @XLXIXHX%X!.OXoX`.p.j.t.qXIXIXSXv.V.n.N.S.A.Z.$.*.8.1.5.q.q.q.5.9.7.:.$.N.N.n._.].*X&X5 m ",
"3 U Q W Q v k l m M B B p B q w w 4 5 &X@X@X=X;X:X:X;X;X*Xo yXIXIXbXe.$X'.XX_.p.j.t.xXIXIXlX1X5X5X;.A.C.C.%.7.6.5.q.3.<.9.9.6.*.=.m.M.4X).`.$X#Xq 0 N ",
"U R W Q h g 3 m M p 5 q ;XW.=X,X*X@X&XR.*XW.^.#X#X^.R.R.!.e.BXIXIXqXf.j.u.}.}.p.p.p.KXIXPX8X5X;.;.=.*.%.%.6.9.5.q.3.<.9.9.7.&.Z.;.N.c.[.'.Y.+Xw B 3 3 ",
"R W W Q c l 0 w q #Xo d.R.&X#X*X!.~.~.$Xd.Y.Q.g.f.I.g.g.Y.oXHXIXFXj.j.p.p./.).2Xi.qXIXIXAXO.S.-.=.:.&.7.6.9.5.3.2.q.9.9.7.:.$.A.5Xn.i.'.Y.R.q B N 3 U ",
"..W Q b l m r q W.+Xg.$X~.R.g.g.Q.OXOXI.g.Y.OXI.f.I.g.s.u.oXLXIXFXu.p.t.i.n.3X4Xb.nXIXIXjX-.=.>.:.&.7.7.9.<.3.2.3.9.7.7.&.*.;.N.2Xa.u.'.%X;XB m 3 / U ",
"W v c z M r 4 +X^.I.Q.Q.XXXX_.`.'.`.|.|.|.|. X|.'.|._.u.u.p.FXIXPX7Xi.B.B.2X6XO.8XIXIXKX;.=.>.:.7.6.6.6.9.3.2.3.<.6.7.%.Z.C.m.B.a.u.`.!.@Xw M k c R W ",
"R c x Z r ;X#XY.oX`.u.}._.}..X).u.p.[.[..X).[.)..X.X.X).).r.xXIXIXSX1Xy.v.O.O.8XKXIXIXkX#.*.7.7.7.6.9.9.<.3.3.5.9.7.&.C.C.m.x.a.{.].!.;Xq 9 j f n > W ",
"g k N V =XW.!.'.'.u.a.[.[.(.).)././.y.i.4X/.t./..X.X.X).4X/.V.LXIXIXKXvXkXkXAXIXIXIXSX*.C.8.6.6.5.9.9.<.3.3.5.9.7.:.>.Z.k.n.n.}.`.Y.#X;XB y f h Q W : ",
"z Z r ;XR.Y.'.[.).y././.(.3X1Xc.v.1X1Xn.2X3X/.)..X.X/.).3X4X/.qXLXIXIXIXIXIXIXIXIXSX0.#.C.8.6.9.5.9.3.3.3.5.9.6.7.>.Z.k.c.4X.X].I.R.5 7 m g _ E T : h ",
"m D e ^.E.XX[././.1X1Xv.1Xb.N.c.M.5X3Xn.a.).)..X.X).i.i.2X3X6Xv.V.nXPXIXIXIXIXKXkX>.&.8.8.6.1.<.3.3.3.3.5.9.6.&.>.Z.z.x.n..XOXOX^.5 7 y A v : W E E 3 ",
"9 q :X>X X.X/.3XJ.J.v.K.+.m.+.N.b.c.B./.)./.a.).[.[.a.i.B.2X6X6XM.k.0XjXkXjXhX>.#.7.8.7.6.<.3.2.2.3.<.5.9.8.%.*.;.m.N.n.i.'.].^.=Xw M k b E W ] U f j ",
"V W.>X X).y.n.J.K.O.+.L.;.=.K.N.c.2Xa.[.)./././.p.a.i.n.c.5X5X5X5XS.=.$.#.#.#.7.8.6.7.9.5.3.2.2.3.5.5.9.7.%.%.=.5X5X3Xa.u.'.$XW.5 m j f | ] W > f l M "
};
