/* XPM */
static const char *Ng__[] = {
/* columns rows colors chars-per-pixel */
"75 75 241 2 ",
"   c #4D006C",
".  c #4E0067",
"X  c #53006D",
"o  c #5A016F",
"O  c #550072",
"+  c #5B0373",
"@  c #5D0677",
"#  c #4E0070",
"$  c #60057A",
"%  c #640B77",
"&  c #671874",
"*  c #6D176F",
"=  c #77256C",
"-  c #742877",
";  c #763877",
":  c #733172",
">  c #794A78",
",  c #893871",
"<  c #BB705D",
"1  c #8E4E73",
"2  c #907078",
"3  c #AD7C7D",
"4  c #B87877",
"5  c #B26B6D",
"6  c #A3556E",
"7  c #CA7A59",
"8  c #D57E54",
"9  c #C06B5E",
"0  c #C67A66",
"q  c #C17674",
"w  c #BCAB5D",
"e  c #BCB75C",
"r  c #958D76",
"t  c #BB8A6C",
"y  c #B49C6C",
"u  c #BA9769",
"i  c #AD847D",
"p  c #AB8D7C",
"a  c #AB8B7A",
"s  c #B58874",
"d  c #AD9476",
"f  c #AC9B75",
"g  c #A5947E",
"h  c #AA947B",
"j  c #A59B7D",
"k  c #A99B7A",
"l  c #B39372",
"z  c #B29B71",
"x  c #B3987B",
"c  c #A68E6A",
"v  c #9DAA7D",
"b  c #9CB77A",
"n  c #AEA46E",
"m  c #ADAC6D",
"M  c #A8AB68",
"N  c #BBA364",
"B  c #BBAB63",
"V  c #B3A36B",
"C  c #B3AC6A",
"Z  c #B7AA66",
"A  c #ACB46C",
"S  c #ABBB6C",
"D  c #ABBA6A",
"F  c #B4B365",
"G  c #B3BC64",
"H  c #B7B666",
"J  c #ABA374",
"K  c #A5AC75",
"L  c #AAAB72",
"P  c #A4A37B",
"I  c #A3AC7B",
"U  c #A8A478",
"Y  c #B1A373",
"T  c #A5B374",
"R  c #A3BB72",
"E  c #A2B27B",
"W  c #A8B774",
"Q  c #AE8F5E",
"!  c #DB844C",
"~  c #DB8B4D",
"^  c #CB895B",
"/  c #D48354",
"(  c #DA8552",
")  c #D78757",
"_  c #C8995A",
"`  c #D39950",
"'  c #C3AB5B",
"]  c #C5A659",
"[  c #C4B558",
"{  c #CDAA4F",
"}  c #C58866",
"|  c #C39863",
" . c #C1A962",
".. c #E28E50",
"X. c #B6C95C",
"o. c #B6D15B",
"O. c #ABC567",
"+. c #B5C664",
"@. c #A3C172",
"#. c #C2CB58",
"$. c #680C82",
"%. c #6B1285",
"&. c #751B8E",
"*. c #71168B",
"=. c #791E91",
"-. c #762990",
";. c #7B598D",
":. c #7D79AD",
">. c #7E6DB5",
",. c #7B65BD",
"<. c #766CBE",
"1. c #7B6CBB",
"2. c #7867BA",
"3. c #7D74B5",
"4. c #7D7BB3",
"5. c #7672BD",
"6. c #7A72BA",
"7. c #7577B6",
"8. c #6F76BB",
"9. c #6E5ECE",
"0. c #735FC8",
"q. c #675CD5",
"w. c #6A5DD2",
"e. c #6D62CC",
"r. c #6E6AC5",
"t. c #7465C5",
"y. c #746BC3",
"u. c #7163C9",
"i. c #7667C3",
"p. c #6A60D0",
"a. c #7171C3",
"s. c #83289B",
"d. c #892DA2",
"f. c #9237AB",
"g. c #983CB2",
"h. c #8B30A4",
"j. c #8B5284",
"k. c #9B7A8E",
"l. c #9A6D9A",
"z. c #9B6D98",
"x. c #8E7D9E",
"c. c #8D769E",
"v. c #9C7394",
"b. c #9B7B93",
"n. c #95749C",
"m. c #9A729A",
"M. c #937B9C",
"N. c #977B98",
"B. c #876B88",
"V. c #AB7B84",
"C. c #A5738D",
"Z. c #A37B8C",
"A. c #AA7786",
"S. c #B57882",
"D. c #A37692",
"F. c #A16B8A",
"G. c #9D41B6",
"H. c #A346BC",
"J. c #856DAD",
"K. c #8B6CAB",
"L. c #8B69A9",
"P. c #926DA3",
"I. c #8C75A4",
"U. c #857CA6",
"Y. c #8B7CA3",
"T. c #8575AD",
"R. c #8973AA",
"E. c #847CAC",
"W. c #8A7AA9",
"Q. c #8676A6",
"!. c #9272A2",
"~. c #907CA0",
"^. c #8364B4",
"/. c #836BB3",
"(. c #8466B5",
"). c #8274B2",
"_. c #817AB1",
"`. c #8872B0",
"'. c #AA4DC4",
"]. c #B254CC",
"[. c #BA5CD4",
"{. c #AE51C7",
"}. c #BE60D9",
"|. c #C264DD",
" X c #CB6CE6",
".X c #CD6EE8",
"XX c #C667E1",
"oX c #CF70EA",
"OX c #D272ED",
"+X c #D575F0",
"@X c #7C84AA",
"#X c #7385B1",
"$X c #9D848D",
"%X c #9B8C8C",
"&X c #988C8D",
"*X c #9E9486",
"=X c #9D9C85",
"-X c #95948E",
";X c #9B938B",
":X c #949B8D",
">X c #9B9A8A",
",X c #929385",
"<X c #8D849D",
"1X c #8C8B9C",
"2X c #89899C",
"3X c #958595",
"4X c #9A8492",
"5X c #948C94",
"6X c #998A92",
"7X c #92839A",
"8X c #928A99",
"9X c #998599",
"0X c #8D9395",
"qX c #8C929B",
"wX c #8B9895",
"eX c #939392",
"rX c #929992",
"tX c #979594",
"yX c #8F9E8E",
"uX c #A58485",
"iX c #A48D84",
"pX c #AA8C82",
"aX c #A2838B",
"sX c #A88687",
"dX c #A39484",
"fX c #A29B82",
"gX c #A2938A",
"hX c #A79884",
"jX c #A6878F",
"kX c #9CA483",
"lX c #99A686",
"zX c #8EAA8C",
"xX c #A2A683",
"cX c #A0B480",
"vX c #8484A4",
"bX c #8A83A3",
"nX c #858BA3",
"mX c #898BA1",
"MX c #8483AB",
"NX c #8687AA",
"BX c #898DA5",
/* pixels */
"dX>X5X<X2XvX:.:.:.^.3.7.7.@X@XnX<XmX7X1X<X8X7X<X7X<XI.P.Q.MXMXE.).3.6.,.1.<.i.t.u.u.u.e.w.q.q.w.e.e.t.y.a.6.3.MXNXbXbX1XrX:XlXkXP L u H [ [ ' B V K P ",
"Z.5X1Xx.vX:.:.3.>.5.7.7.:.@XvX2X2X1XN.1X1XN.m.8X1Xx.I.Y.W.T.E._.^.>.5.,.,.y.t.0.9.9.9.w.q.q.w.e.u.t.y.5.6./.T.MXbXn.N.eX-X>XfXI T D O.+.X.X.+.D T P kX",
"tX3X<XQ.:./.^.5.2.5.8.7.:.Q.Y.2X<X1X5X8X3X8X8X1X<Xn.Y.Q.W.K.T.4.3.1.5.y.y.t.u.e.9.w.q.q.q.w.e.e.t.y.5.6./.^.K.bX~.m.3X$XA.V.p E W G +.o.X.+.D t U g V.",
"3X2XP.J.:.,.2.<.<.8.#X:.vXnXx.<X3X0XeX3X3X3X8X1X7Xx.Y.Q.T.T.3.3.6.5.y.y.t.e.e.p.w.q.q.w.e.e.e.t.y.5.5.7./.K.Y.mX1X1X5XZ.iXhXI L A O.X.o.e Z @.f j =X;X",
"7XY.L.:.7.,.2.r.8.#X@XU.nX2XN.0X3XeXrXeX4X4XN.N.1Xx.I.Q.T.4.3.>.1.y.y.t.u.e.e.w.q.q.e.e.e.u.t.y.6.3.4.4.T.W.mXBXqX0XZ.V.kXcXL } C G [ X.| V b b kX%XrX",
"<XQ.J.7.5.0.r.<.7.#XU.vX2X8X5X5X$X:XyXrX5X3X8X8X1XM.Y.Q.R._.).1.<.y.t.t.u.9.w.q.w.9.u.u.u.t.y.5.).)._.T.K.I.mXqXqXeXA.uXkXI t u O.' w O.C n a kXlX-X8X",
"Y.J.^.1.,.t.r.<.3.@XvX2X1X5X&X$X-X;X:X%X&XeX4X3X7XM.Y.R.T._._.1.<.y.y.t.u.p.w.p.e.u.y.t.i.,.1.3./.K.T.R.P.n.1XqXwX%XA.sXI Y t D O.X.F S @.f g zX:X0X<X",
"Q.J.^.<.<.t.<.3.T.vX2X0XwX-X%X%X;X*X>X;X;XeX4X9X8X7X!.Q.E._.3.1.<.y.t.u.e.e.e.e.r.y.y.y.<.<.6.3.J.K.T.W.I.x.1XeXrX%XV.i I W A F w e } A E v lXzXyXwXbX",
":.3.6.8.r.8.7.@XvX<X7XeX-X%X*X*XdXdXdXlX>X$X6X6X8XM.Y.Q.R._./.1.y.t.r.u.e.e.9.u.t.y.<.<.<.6.7.4.T.T.MXvXmX1X8Xb.;X>Xi k E R D ^ _ Z V Y h fX*XzXwX2XY.",
"T.3.<.<.<.7.@XvX2X8X3X&X;X*XfXfXdXdXdXdX*X%X&X4X9XM.Y.Q.T._.3.1.y.t.r.u.e.9.u.t.t.<.,.1.1.>.4.4.E.W.vXnX1XqXeX4X;X>XkXI K R S B Z A T k j =X;XzXwX2XvX",
":.3.7.5.7.:.U.2X0X5X%X*XiXdXj j j fXdXfX=X*X;X6X3X7X~.I.T.4.7.5.y.t.e.r.r.r.t.y.<.1.1.(.^./.:.E.R.P.Y.mXqXqXeX;X>XlXj s J A N G S R E P kX>X-XwX2XY.vX",
":.#X8.5./.U.<X8XeX-X*XiXpXg j P P k g g dXiX;X&X3X8XM.I.W.E.3.,.,.t.r.r.y.i.y.5.1.1.>././.J.T.MXW.!.x.1X7X3XZ.Z.iXkXp s J u } C @.b E dXiXlXrXwX2XI.Q.",
"@X#X7.:.Q.c.7X&X%X*XfXg k k k P P k j j fXiX*X;X5X3XM.Y.W.T.3.1.<.y.a.y.y.5.5.5.6.3.4._.T.T.W.W.Y.bX<X8Xb.k.Z.V.iXkXP K V } u m R b b fX*X%X3X0X2XY.@X",
"E.4.T.U.x.7X&X%XuXdXxXj P U f k P k h j fXfX>X;X5X3XM.Y.R.J.).7.5.y.<.2.2.7.6.>.>.3.:.J.L.L.U.I.c.2Xx.z.v.4XlXlXlXcXb K y u m T b b lXlX:X:X5X3X2XnX@X",
"@X@XQ.<XN.b.;X*XdXfXj P U U f d f k h h j kX>X;XeX3Xn.I.W.T./.3.1.-.@ @ @ @ @ @ @ @ @ @ @ @ @ + + @ @ + + & ; ,XxXj E L C A R b b b kXlX:XyX0X0X2XvXvX",
"vXvX2X8Xb.$X;XdXiXj k k f f f f f U P P P dX*X-XrX5XM.P.I.MX:.4.-.X + $ @ @ $ $ $ $ @ $ $ $ $ @ $ $ $ $ @ + X % 3 k K t u W T K v v =X=XlX-X5X0XqXqXvX",
"2XqX0X0X&X;X=XdXh k k d d f J J f d h j kXdXaX$XeXeX1X<X!.W.@X:.@ + H.XX|.|.|.|.|.|.|.|.|.|.|.|.|.|.|.|.|.].&.X ; R E t y J x k P j dXuX:X%X-XwX8X<X2X",
"1X5XeX:X%X*XdXdXj h d d f f J U f d p p =X*XaXZ.6XeX1X1XbXbXNX;.o &.oX.X.X.X.X.X.X.X.X.X.X.X.X.X.X.X.X.X.XOX[.@ + r W T V l s s j j kX=XlX:X:XrX5X3X1X",
"3X&X-X;X*XiXiXfXP h a h P f f f U k p pXdX>X&X$X4X3X8X1XmXnXBX-.X g.OX X X X X X X X X X X X X X X X X X X X.X=.X 2 Y R T K f k k i kX=XlXlX-X&XtXeX0X",
"%X%X$X*X*XdXdXg g k h k k U k k P j dXdXdX>X:XeX5XN.m.7X2XBX2X@ + [.oX X X X X X X X X X X X X X X X X X X X.X=.X 2 @.R J f K b P v cXkXkX=X>X>X>X;X&X",
"&X%XaXdXdXdXfXfXj j h p h k P P P =X=X>X;X;XrXrXrX3Xv.l.<XBX;.X &..X X X X X X X X X X X X X X X X X X X X.XXX$.O r R n s s f b b b b v kXfXfXfX*X;X-X",
"uX*X*XdXdXdXfXfXfXj h h h g j xXfX=X>X>X;X%X%XtXrXeXN.z.m.7X-.. g.OX X X X X X X X X X X X X X X X X X.X.X+Xg.X & s z K K T W E k s P I I v j j kX%XuX",
"uXiX*XiXiXdXiXuXdXdXdXiXpXpXfX=X>X>X>X>X;XaXZ.Z.6XrXeX3XN.n.@ + [..X X X X X X.X X X X X X X X X X X X X|.f.+ O 1 } y T T J K T f l J I d f I h dX*XuX",
"*X*XdXdXdXiX*XiXiX*XiXiXiXdX*X>X>X;X:X:X-X$XD.D.D.6XrX0XtX;.X =..X X X X X X.X[.&.&.&.&.&.&.&.&.&.&.&.*.@ X O : z z L L L t t T R T T W z f U g fXiXsX",
"=X*XdXgX*X;X%X%X%X*X*X*X*X;X;X;X;X;XeXrX-X%XZ.D.C.Z.5XrXrX- X G.OX X X X X XOXf.. O o o o o o o o o o o + & 2 T W A y y L } t A A V A C W z k j =X*X*X",
"*X*X%X%X*X%X$X%X%X&X;X;X;XtXeX5X6X4X4X5XrXeX4XC.C.C.k.rXk.+ @ [..X X X X X X X*.O > B.j.1 2 2 2 2 2 r r 3 d R R R D y m A u } V u u C | u z k j =X=X=X",
"dX%X%X%X&X&X6X5X6X6X6XeXeX5X5X8XN.b.b.b.4XeXeX4XC.C.C.gXj.X =..X X X X X XOX].+ % lXcXhXS.k cXE E E R R T K R R A A D S S C } } u G G C u U k j fXdXiX",
"gX*X%X%X5X5X3X3X3X3X5XeX8X1X1X1XN.m.m.v.v.4XeXtX$XZ.Z.Z.- X H.OX X X X X XOXf.. > cXh P P P p h k s J E z t n A u } C O.O.O.F | F H N S Y f k g iXiXsX",
"*X-X6X4X3X8XN.N.7X7X1X1X1XmXmXmXx.n.l.l.z.v.4XrX:X;XiXF.+ @ |..X X X X X.X X*.o & ; , , 2 v K K d q 4 J t 0 t V } } Z O.O.F w +.+.F Z u L K k g dXdXiX",
";XeX3XN.8X7XM.~.Y.Y.Y.bXbXvXvXvXbX!.l.l.z.z.v.5X:X:XhX1   =.oX X X X X XOX{.o + + O   . o % > r W s t L V } u C | | F O.+._ ^ e _ H S y l f j g iXdX>X",
"k.3X3XM.<XbXbXY.I.R.R.W.MXU.W.MXvXY.!.l.l.z.v.4X-XlX>X- X H.OX X X X X XoX].G.'.{.'.H.f.&.+ . + > K S R S D S O.G B _ ] X.] ' e _ F S n t d j fX=X>X;X",
"4X8X7XY.Y.Y.W.W.T.T.).4._.J.J.T.U.MXY.n.l.z.v.b.&X>X,X+ $ |..X X X X X X XoXOXOXOXOXOXOX X[.h.@ X & c O.O.O.O.O.+._ 8 ^ X.o.X.G B D u l s h kXiX*X;X%X",
"8X<XY.Y.W.W.T._.4.3.3.3.>.(.^.^.J.E.NXbXM.m.v.b.$XgXB.X =..X X.X X X X X X X X X X X X X X.XOX[.&.  % c +.G G +.X.' ` [ o.o.e _ } u } f k k fX>X%X6X9X",
"7XbXY.W.T._._.3.6.6.5.5.1.^.^.^.^.T.vXmX1X8XN.Z.A.sX1   f.OX X X X X X X X X X X X X X X X X XOXXXs.X & M ' w X.X.o.X.[ e X.^ ^ } V J E k hXpXuX&X4XN.",
"bXY.W.T.).7.6.1.,.<.y.a.<.,.^.^.L.I.bXBXqX5Xb.A.A.S., . g.OXXX X X X X X X X X X X X X X X X X X.X X&.  : ] e o.o.o.{ ! _ G  .N } t K I j fXiX;XeX3X<X",
"bXW.E.).1.1.<.i.t.t.t.y.5.3.(.K.K.!.M.8XeX6XZ.A.A.S.,   f.OXXX X X X X X X.X.X.X X X X X X X X X XoX[.% O c #.[ [ X.] ) ] O.S u t z s j fXfX*X6X3X<XY.",
"MXT._.1.,.y.t.t.u.u.t.y.4.4.E.R.P.P.m.b.6X&XaXA.S.4 6 O $.XXOX.X.XoXOXOX.XXXXXXX.XOX.X X X X X X X XOXf.  : ` ~ ` e +.' B G S u J I k kXfXgXrX5X1XbXvX",
"E.`.6.<.y.t.e.e.e.9.t.<.4.E.W.Q.P.l.z.D.Z.aXuXV.3 4 q -   =.[.XX|.[.H.f.s.%.$ $.=.G. X.X X X X X X X.X|.$ + 7 ! / e +.H N N C W E d j uXuX;XtXqXmXnXW.",
"_.).1.y.t.e.e.e.e.0.,./._.R.P.P.n.l.z.C.C.A.V.V.4 4 q 5 % # + $.$.+ O     O + + X X =.XX.X X X X X X XOXs.  6 ` ^ _ H O.V 0 l E P i iXuX:X6X3X1XbXMXT.",
").1.y.t.e.p.e.r.y.,.1.).T.P.P.l.m.v.C.C.A.A.V.4 4 4 4 0 5 , % o o * = , 6 < w M 2 & . h.OX X X X X X XOXG.  1 [ ^ )  .S V t f d xXkX*XZ.eX3X<XbXW.T._.",
"1.y.u.e.w.w.e.y.5.1./.J.W.Y.n.m.b.v.C.A.A.S.3 4 4 4 q 0 0 0 0 < 9 7 8 ( ~ ` ] [ #.Q + @ |..X X X X X XOX'.O : ] ^ } } y T K s s xXlX;XC.5X1XY.W.T.).>.",
"y.t.e.w.q.9.t.5.6./.(.R.U.bX1X3Xb.C.A.A.V.3 4 4 4 4 0 } 0 0 7 / / / 8 8 / / ~ ` [ [ = O {.OX X X X X XOX].O = | Z } 0 t E E j pXpX;X5X3X1XbXbXT._.>.<.",
"t.e.w.q.9.u.1.6.3.).R.Q.bX2X8X3X$XZ.A.V.3 s 5 , * * = 1 0 ) 7 8 / / ( ! ! ! ! ~ ` { = O {.OX X X X X XOX{.O : G A t t f I v kXsXsXZ.3X7Xn.Y.MXK.3.5.y.",
"9.w.q.w.u.y.6.3._.T.W.Y.1X8X3Xk.aXZ.V.3 s 1 +   O @ O   * < / 8 / ( ! ! ! ! ! ~ ~ ` * + [..X X X X X XOXG.  1 S V z U k i fXlXgXtX5X8X2XY.W.E._.1.y.t.",
"w.w.w.e.t.1.3._.T.R.Y.1XqX5X$XZ.Z.sXp x 1 O O h.].[.'.&.# * 7 / ( ( ! ! ! ! ! ! ~ < o $.XX.X X X X X XOXs.  2 u 4 s k 4 4 =XlX:XrX8XM.Y.Q.E._.6.,.t.e.",
"q.e.u.y.<.6.3.T.Q.I.<X1XeXtXaXuXsXi h g % o g.OXOX.XOXXX&.# 6 ..( ..! ! ! ! ( ( ..6   s.OX X X X X X.XXX$.+ c } 4 s k i iX:X%X4XqX7XbXMXE.T./.<.i.u.w.",
"w.u.y.<.1./.E.W.Y.<X1XeXtX;XiXuXi i x 2   =.oX X X XXXOX'.O = ( ( ( ( ( ( ( ( ( ( = X H.OX X X X X XOX].O - f s s j xXfXlX;XC.4XqXbXW.E._.`.1.i.u.9.q.",
"u.y.<.1./.T.MXbX<X1X5X6XgXfXfXg a d Y ;   H.OX X X X X.X}.+ % / ( ( ( / / / ) ) < O % |..X X X X X XOXf.. 1 W k P =XdX>X:XeX3XqXbXP.K.T.(.(.i.u.9.q.q.",
"y.<.1.3.T.R.bXM.7X3X$XsXpXxXxXP f J J & + [.oX X X X X.X[.+ % / ) / / / / / / ) ,   h.OX X X X X X X X*.o 2 E kX=XsXA.%XrXqXqXmXY.R.T./.1.,.t.e.w.q.e.",
"y.1.3._.T.Y.7X7X3X%XaXpXpXP I K T A n % @ |..X X X X XOX].O = / / / / / / 7 ) 0 % O ].OX X X X X XoX].+ % a kXlXiXS.A.5XqXqXmXbXR.T./.1.<.t.e.w.q.e.t.",
"6.3._.W.Y.<X8X6X;X%XdXg P E K L T D V % @ |..X X X X XOX].O * / ) / / ) ) ) < *   =..X X X X X X XOXg.. ; fXlXlXgXaX6XqXqX2XY.Y.L.(.1.,.t.e.w.q.w.u.i.",
"4.).R.Y.x.3XtX;XuXuXj P I W A m A F Z * O ].oX X X X X.XXX$.X , < 7 7 < 5 , %   % [..X X X X X X.X X%.X 2 xXlX;XaX4XeXqXmXI.P.W.J.>.<.t.e.p.q.w.e.y.5.",
"_.T.Y.<X7X6X;XgXsXp k f J m A C F F ' : # H.OX X X X X XOX'.@   + + + + o   O =.[.oX X X X X X XOX'.X & =XlX;XZ.C.b.1XmXbXP.R.`./.<.y.e.e.w.w.e.t.<.6.",
"T.Y.<X7X4XjXgXfXh h f z V C F F G e [ 1   s.OX X X X X X XoX].s.%.@ @ $ *.h.'..X.X X X X X X X.X X&.X 1 xX:X$XD.v.7XmXnXU.L.T.).,.i.t.9.w.w.e.t.y.6.3.",
"W.bX1X4XjXdXdXj f z y V C Z B w X.e [ Q + $ |..X X X X X X XoXOXXX|.|.XX XOXOX X X.X X X X X XOXf.X & A.aXeX3Xb.7XmXnXNXT.T.4.1.i.r.e.w.w.u.t.y.1.).E.",
"Y.7X5X;XiXhXk d l y V Z B ] _ _ ' ' e [ :   f.OX X X X X X X X X.X.X.X.X X X X X X.X X.X X XOX'.+ O j.A.k.5X8Xm.n.bXNXMX_.4.6.y.t.e.w.w.u.y.y.5.3.T.I.",
"N.4X;X*XdXh f V V N N B ' ] _ _ _ B G +.Q + + ].OX X X X X X X X X X X X X X X X X X X X XOX{.@ X ; jXb.3X8Xm.l.!.MXMX4.4.6.y.t.9.w.q.u.t.y.5.7.E.Q.M.",
"4X;X*XdXk f n C N B ] [ ' ] _ _ | H G G +.1 O % [.OX X X X X X X X.X X X X X X X X X X.XOXH.@ X - $X5X1XqXM.l.!.W.MX4.4.1.<.t.e.w.q.e.t.i.1.>.T.W.bXN.",
";X>XdXh f n C N _ ] e H  .| u N Z H G G O.G ; X $.].OX.X X X X X X X X X X X X X X.XOX|.d.o O - b.4X1X1XmXbXY.!.R._.6.1.,.t.e.w.q.w.u.y.5.6._.W.bX8X5X",
"*XdXk z y N F e w e G H Z u C A C C F D D S V : O @ f.XXOXoX.X.X X X X X X X.XOXOX|.g.% X @ j.D.v.m.M.mXnXNXW.L.(.3.5.<.t.e.w.q.w.u.y.5.6.4.T.Y.7XtXtX",
"fXd f V u u w e e B B C u y V m V y V A A A m t , + X $.f.[.XX.XOXOXOXOXOX X|.{.d.$.X o - B.4Xz.z.l.!.bXNXMXR.K.>.5.y.t.e.p.q.w.u.t.,.1./.R.Y.<X5XjXiX",
"k f V N  .' [ w H Z C V y y l y y y L L J J K z t 6 - O   + $.s.d.f.g.f.h.&.$ O . O & B.0X8Xm.l.l.l.I.MXMXE._.1.5.y.t.e.e.q.w.e.t.,.6.3.R.Y.bX9X;XsXuX",
"f n C H ' [ ' w N C Y l l l l s l f K f s s k P h l h 2 > & + X . . . . X o + & -.j.v.9X1X<XM.n.!.!.W._._._.6.<.i.u.e.e.w.w.e.u.i.1.3.E.W.bX8XjXiXsXp ",
"n C B +.[ [ F Z V J f d d k d s d d h h s s h kXkXkXxXcXhX3 2 1 1 1 j.;.;.B.k.v.D.D.l.m.bXmXbXY.W.E._.)./.1.<.i.0.e.p.w.e.e.u.y.5.3.E.W.Y.8X6XgXdXh U ",
"u _ [ [ ' B C m J K P P v P j k p i a dXpXpXfXkXlXlXlXlXiXV.V.sXsXsXsXjXtXrX3Xv.D.m.l.n.Y.vXNXMXE.4.).^.(.,.y.u.e.p.w.9.u.u.i.1.7.T.R.mX8X4XaXpXg f L ",
"_ ] [ [  .C y f U v p g kX=XfXkXdXsXdX*XiX=X>XiXiX>X*XgX;XaXZ.&X&XZ.C.D.N.1X8XN.m.m.P.!.W.NXMX4.4.4.1.,.,.i.u.e.p.w.w.u.u.i.<.>.4.W.I.7X5X&XiXg P y u ",
"] [ [ B F A f h j uX3 A.*XdXiX*X;X>X>X$XV.%X;XZ.A.$XZ.Z.&XeXeXeXeXD.D.z.m.7XmX<X!.P.P.R.E.E.4.4.6.6.<.y.i.u.9.w.q.p.u.r.y.5.>._.NXY.m.3X%X*Xg P L u _ ",
"#.[ ' G m J k g =XiXZ.$X>X;XaXZ.-XyXrX$Xk.%XrX$XC.4Xk.C.b.5X3XqXqX4Xz.l.n.Y.mXbXW.R.T._.4.4.4.6.5.<.y.t.u.9.w.q.w.u.t.y.<.1.3.E.bXN.b.5XiX=XP J y | _ ",
"[ H F R K k i uX>X$X-X-XrXeX3X3X5X4X0X0X0X0XwX0X5X0X3Xb.4Xv.v.8XqX1XM.n.!.bXNXNXMXE.4.4.4.6.5.5.y.i.t.t.u.w.q.w.9.t.y.,./.(.T.!.N.b.4X;XuXh U C F ] [ ",
"' H R K k kXiX%XeX4Xb.8X3X3XqX1XN.N.7X7XqX1X7X1XqXqXqX1X1Xm.l.M.mXmXvXY.U.MXMXMX4.4.4.3.1.1.<.y.t.u.u.u.9.w.w.e.u.y.<.,.(.T.P.M.9X4X;XkXj f V N G e [ ",
"B C J I fX=X;X5X5XN.M.M.7X2X2X2X2X2Xx.n.2X<Xl.<XqXqXqXqX2X<Xn.~.Y.vXNXMXW.E.4.4.4.4.6.1.(.,.t.t.e.u.u.w.w.w.e.u.t.5.6./.K.W.~.8X4X%XiXkXP y N B [ [ e ",
"D T k kX*X&X5X7X2Xx.<X<X2XnXvXI.U.vXvXY.bXmX2X2XqXmX<X2XmXnXvXY.P.R.MXT.K.`.4.4.6.5.5.,.,.t.t.u.u.e.w.w.w.e.u.i.<.6./.K.I.mXqX5X$X*Xp s Y Z B ' { e B ",
"n I j =X:XeX7X<X2XvXvXU.vXQ.U.R.T.MXnXx.M.2X2XqXqX1Xn.n.Y.nXnXbXP.L.E.T.(.(.).6.5.5.5.i.t.t.9.9.w.w.w.9.e.u.i.<.6./.K.P.Y.1XrXrX>Xa a z A H [ [ ' ] u ",
"f j lXzXwXqX2XnX@X@XU.@X:.J.:.E.R.I.!.<X1X<XN.1X7X7XM.!.!.bXNXNXW.T._._.(.(.1.5.<.i.y.y.t.9.w.q.q.w.9.e.u.t.,.1.4.T.W.Y.n.3X6X>XfXh K V H ' [ X._ N n ",
"v kX:X0X1Xx.W.@X@X:.:.#X4.3.:.U.Y.bXM.7X<X<X<X<Xm.M.n.Y.W.vXNXMXMX4.3.).).1.<.y.i.t.t.u.e.w.q.q.w.e.e.r.y.,.,.3.MXNXnXM.b.eXaX=Xi J y N +.X.[ e B A K "
};
