/* XPM */
static char *_035fdd6ed1d46f5c921a89562449256TK1h4ZK1oRmOsZLi[] = {
/* columns rows colors chars-per-pixel */
"75 75 256 2 ",
"   c #BF7B5B",
".  c #BA7869",
"X  c #AA6D7C",
"o  c #AC777A",
"O  c #B57070",
"+  c #BB7A73",
"@  c #B67778",
"#  c #D27A4F",
"$  c #CA795C",
"%  c #CB7665",
"&  c #C67D65",
"*  c #CA7D63",
"=  c #C8766A",
"-  c #C37C6B",
";  c #C27B71",
":  c #B9935B",
">  c #B5AE52",
",  c #BBA95B",
"<  c #BBB95A",
"1  c #97977C",
"2  c #AD8768",
"3  c #BB896B",
"4  c #AB9568",
"5  c #B99769",
"6  c #B59B6D",
"7  c #A88778",
"8  c #AB8D7D",
"9  c #B58676",
"0  c #A49774",
"q  c #AD9576",
"w  c #AC9B75",
"e  c #A5957E",
"r  c #AB947B",
"t  c #A59B7D",
"y  c #A99B7A",
"u  c #B39373",
"i  c #B19B72",
"p  c #9FAB6E",
"a  c #9AA87B",
"s  c #9CB67B",
"d  c #ABAA6C",
"f  c #BBA364",
"g  c #B9AA65",
"h  c #B4A36B",
"j  c #B3AC6A",
"k  c #ACB46D",
"l  c #A9B968",
"z  c #ABBC6C",
"x  c #B4B465",
"c  c #B8B766",
"v  c #B3BD63",
"b  c #ABA374",
"n  c #A5A977",
"m  c #AAAB72",
"M  c #A4A37B",
"N  c #B3A774",
"B  c #A4B374",
"V  c #A6B575",
"C  c #B7B478",
"Z  c #DB844C",
"A  c #D7884B",
"S  c #CE9149",
"D  c #CD825C",
"F  c #C98B58",
"G  c #D48454",
"H  c #DA8552",
"J  c #D88854",
"K  c #D2835A",
"L  c #C8985A",
"P  c #D19652",
"I  c #C3A04D",
"U  c #C6A857",
"Y  c #C3AB5B",
"T  c #C5B255",
"R  c #C4B55B",
"E  c #C58767",
"W  c #CB8364",
"Q  c #C49564",
"!  c #D08F73",
"~  c #E09665",
"^  c #C4A864",
"/  c #C5B16E",
"(  c #B7C658",
")  c #B1CC59",
"_  c #B4CB5C",
"`  c #9DC075",
"'  c #ACC666",
"]  c #ACC26B",
"[  c #ACC76F",
"{  c #B4C765",
"}  c #C2C159",
"|  c #C4CC75",
" . c #745CBB",
".. c #7C77A9",
"X. c #7E7BAC",
"o. c #7D6DB6",
"O. c #7467B8",
"+. c #7B65BC",
"@. c #716BB8",
"#. c #756CBD",
"$. c #7B6DBB",
"%. c #7D75B4",
"&. c #7678B7",
"*. c #7D7AB3",
"=. c #7672BC",
"-. c #7A72BB",
";. c #6D5ECE",
":. c #735EC7",
">. c #675BD4",
",. c #6A5DD2",
"<. c #6D69C3",
"1. c #6E63CC",
"2. c #7465C5",
"3. c #7967C2",
"4. c #746BC3",
"5. c #7164C9",
"6. c #7A74C8",
"7. c #6B60D0",
"8. c #786CD5",
"9. c #92718F",
"0. c #9A788A",
"q. c #8B6A9A",
"w. c #996D99",
"e. c #8A789A",
"r. c #8D7C9D",
"t. c #9C7495",
"y. c #967A97",
"u. c #9C7B94",
"i. c #94749D",
"p. c #9A739A",
"a. c #937C9C",
"s. c #A76D8C",
"d. c #A77787",
"f. c #AC7584",
"g. c #AB7C85",
"h. c #A4748C",
"j. c #A47C8C",
"k. c #B17782",
"l. c #A37392",
"z. c #A57A91",
"x. c #866DAE",
"c. c #8969A8",
"v. c #8B6CAB",
"b. c #926DA3",
"n. c #8C75A5",
"m. c #847CA5",
"M. c #8B7CA3",
"N. c #8574AD",
"B. c #8A74AA",
"V. c #847CAB",
"C. c #8879A8",
"Z. c #9376A1",
"A. c #8465B4",
"S. c #826CB4",
"D. c #8274B3",
"F. c #827AB1",
"G. c #8777BB",
"H. c #8478C4",
"J. c #7E8A9B",
"K. c #7C84AA",
"L. c #7384B2",
"P. c #898A89",
"I. c #99888B",
"U. c #9C8C8C",
"Y. c #8D9A8D",
"T. c #939785",
"R. c #9D9486",
"E. c #9D9C85",
"W. c #95948D",
"Q. c #9B948B",
"!. c #949B8C",
"~. c #9B9A8A",
"^. c #8D849D",
"/. c #888899",
"(. c #8C8B9C",
"). c #958595",
"_. c #9A8493",
"`. c #948C94",
"'. c #998B92",
"]. c #93839A",
"[. c #998199",
"{. c #928A99",
"}. c #8D9395",
"|. c #8B9996",
" X c #8C929C",
".X c #939393",
"XX c #979495",
"oX c #939A92",
"OX c #A58585",
"+X c #AB8482",
"@X c #A68A87",
"#X c #A48D84",
"$X c #A2838B",
"%X c #A39384",
"&X c #A49587",
"*X c #A29B83",
"=X c #AF9094",
"-X c #9CA483",
";X c #98A786",
":X c #91A791",
">X c #A4A683",
",X c #B1B08F",
"<X c #A6A897",
"1X c #8484A4",
"2X c #8B83A2",
"3X c #848BA4",
"4X c #8A8BA2",
"5X c #8483AA",
"6X c #8989AB",
"7X c #9789A5",
"8X c #8892A4",
"9X c #9794A7",
"0X c #8786B6",
"qX c #948DB5",
"wX c #A991AD",
"eX c #9FA0BC",
"rX c #B0ACB2",
"tX c #C9938B",
"yX c #CFB391",
"uX c #E2B296",
"iX c #C9B6AD",
"pX c #D7B8B7",
"aX c #E3BEA9",
"sX c #BAC392",
"dX c #CCCC8F",
"fX c #D3CAB3",
"gX c #E0D9A9",
"hX c #E8CDB4",
"jX c #DDE3B7",
"kX c #948AC8",
"lX c #A49AC9",
"zX c #B2ABC9",
"xX c #C8B9CC",
"cX c #CFC7CC",
"vX c #D9D9CA",
"bX c #C8C6D8",
"nX c #D8D7D6",
"mX c #E3CBC7",
"MX c #EFD9CC",
"NX c #E9D9D8",
"BX c #DDE3CD",
"VX c #E6E7C8",
"CX c #E8E7D8",
"ZX c #F3E5D7",
"AX c #D4CFE6",
"SX c #E4DEEC",
"DX c #EAE7E9",
"FX c #F4ECE7",
"GX c #EFF1EF",
"HX c #F5F3EB",
"JX c #E4E3F3",
"KX c #EAE8F2",
"LX c #F4F3F4",
"PX c #F8F5F6",
"IX c #FAFAF5",
"UX c #FEFEFE",
/* pixels */
"<X<XXX9X9X6X0X0X0XG.G.0X0X0X8X8X7X9X9X9X9X7X7X7X7X9X7XZ.7XqXqX0XG.0XG.G.H.H.H.H.6.8.8.8.8.8.8.8.8.6.6.6.H.H.0XqXqX9X9X9X9X<X<X,X,XC / | / } / C C C >X",
"j.`./.r.m.....&.o.O.@.&.*.K.K.1X/.^.y.(.{.y.w.^.(.r.i.n.C.C.V.%.A.o.=.+.+.2.2.:.;.;.;.>.>.>.>.;.;.<.4.#.$.o.N.5X2Xi.y.}.W.~.%Xa B k ] { ( ( < k B M a ",
".X).^.C.V.S.+.=.O.=.&.*.K.C.M.(.^.(.{.{.).).].(.^.a.M.C.C.v.N.*.%.$.=.4.4.4.5.1.1.,.>.>.,.,.1.1.2.4.=.-.S.A.v.2XM.p.)._.j.+X8 B k x { _ ( { x 3 n e g.",
").^.b.B.*.+.+.#.#.L.L.X.K.3Xr.^.).}..X).).).{.(.].a.M.C.C.N.%.%.-.=.4.4.4.1.1.1.,.>.>.,.1.1.5.4.4.=.=.%.S.v.M.4X(.{.`.d.OXe n m k ' _ _ < x z w t E.W.",
"].M.c.%.&.+.+.<.=.L.K.m.3X/.y.}.)..XoX.X_._.y.y.(.r.n.C.N.*.%.o.$.4.4.2.5.1.;.,.>.>.7.1.1.5.4.4.-.-.&.*.N.C.4X8X X.Xj.g.-X>Xm E k v R _ L h ` s -XU.oX",
"^.C.x.&.=.:.2.#.&.X.m.1X^.(.).`._.!.Y.oX`._.{.{.(.a.M.C.B.D.D.$.#.4.2.2.5.;.,.>.,.1.5.1.2.2.4.=.D.D.F.N.v.n.4X X X.Xd.@X-Xn 3 5 ' Y Y ' h b q -X;X`.{.",
"m.x.A.o.+.2.<.#.%.K.1X/.(.`.`.I.W.Q.!.I.'.`._.`.].a.M.B.N.F.D.$.#.4.4.2.5.,.,.7.1.5.2.2.3.3.$.%.S.x.N.B.b.Z.(. X|.U.f.+X>XN 3 k ' ( x z ` w e ;X!.}.^.",
"C.x.A.#.#.2.#.%.V.1X^.}.Y.W.I.U.Q.R.~.Q.W..X_._.).].n.C.V.F.D.$.O. .4.5.1.;.;.;.1.4.4.4.#.+.-.%.x.v.C.C.n.r.(.}.oXU.o o n V k x , x E k B a ;X:X|.|.^.",
"X.%.=.=.<.=.&.K.1X^.]..XW.U.R.R.%X%X&X-X~.I.'.'.{.].M.C.B.D.S.O.kXAXJXJXJXJXJXJXJXJXJXJXJXJXJXJXJXJXDXDXDXDXDXDXDXDXDXvXsXl z F L g h b q *XQ.:X|./.M.",
"N.%.#.#.#.&.K.1X^./.).W.Q.R.%X%X%X%X%X%XR.U.'._.).a.M.C.B.F.o.H.PXUXUXUXUXUXUXUXUXUXUXUXUXUXUXUXUXUXUXUXUXUXUXUXUXUXUXUXUXdXl g x k V w t *XQ.:X|./.m.",
"X.%.&.=.&.X.m./.}..XW.R.#X%Xe t e e *X*XE.R.W.'.).].Z.n.B.F.@.zXUXUXKXJXJXJXJXJXKXKXKXKXKXKXKXKXKXKXKXKXKXGXGXGXGXGXLXUXUXIX/ x z V B M -X~.W.|.(.2X1X",
"X.L.L.=.S.m.^.{.}.W.R.#X#Xe e M M t e e %X%XW.'.).].Z.n.V.*.%.KXUXLX6.<.4.3.4.=.#.$.S.S.S.x.V.5XC.Z.2X(.].).z.$X%X-Xr mXUXUXhX, ` s B %X%X:XoX|./.n.C.",
"K.L.&.%.C.i.a.`.U.R.%Xe y y y n M y t t *X@XR.W.`.].a.M.V...kXUXUXAX<.4.4.#.=.$.$.%.%.D.N.N.C.C.M.4X^.].t.u.j.g.#X-XM n LXUXFXd V s s %X#XU.).|.(.M.1X",
"X.*.%.m.r.].`.U.OX%X*Xy M y w M M y y t *X%X~.Q.`.).a.M.n.c.xXUXUXlX@.3.#.&.&.o.%.*.*.N.v.B.5XM.M.(.^.t.u.U.~.~.;X;Xs n CXUXHXV s s ;X;X!.!.`.). X3XK.",
"K.K.C.^.].u.W.R.%X*Xt M M n w q w y r r *X-X~.Q..X{.i.Z.C.V.KXUXLXH.#.&.&.&.%.S.S.V.N.C.B.C.3X4X^.(.(.`.I.!.;X;X-Xt B m FXUXGXV s s ;X;X!.Y.}.}./.1X1X",
"K.1X^.{._.$XQ.%X%Xe y y q w w q q b M M >X%XR.W.oX`.a.b.c.eXUXUXbXO.*.%.D.*.D.X.V.V.V.5XC.2X2X2X X]._.oXh.U.;XE.8 y n tXIXUXCXn s a E.-X;XW.`.|.(. X1X",
"/. X}.}.I.Q.E.%X8 y y q q w b b w q y t -X%X$XU..X.X(.2Xq.bXUXUXlXo.*.N.x.x.x.m.m.m.M.M.q.e.e.^.].{._.Y.W.W.;Xe 0 p B NXUXUXfX0 M t %XOX!.I.'.|.{././.",
"{.`..X!.U.R.%X%Xt r q q q w b b b q 8 #XE.R.$Xj.'..X(./.4XLXUXLX0XK.5Xv.B.B.v.n.qXqX9X9X7X7X7X9XwX9X=X=X<X<X<X,X,XfXGXUXUXFX9 9 M e -X~.;X!.!.Y.`.).(.",
").'.W.Q.R.#X#X*XM r 8 r b q q w b y 8 +X%X~.U.$X_.).{./.rXUXUXbX..B.5X5XM.3Xe.rXUXIXIXIXIXIXIXIXIXIXIXIXIXIXIXIXUXUXUXUXLX,Xw r y 9 -XE.;X;XQ.U..X`.}.",
"I.U.I.R.R.#X%Xe e y r y y y y y M M %X#X&X~.!..X`.u.p.e.nXUXUXeXK.b.b.3X4X2XJ.nXUXUXUXUXUXUXUXUXUXUXUXUXUXUXUXUXUXUXUXBX,Xw B s M a ;XE.-XE.~.~.~.W.'.",
"U.U.$X%X%X%X*X*Xt t r 8 r y M M M *XE.~.Q.Q.oXoXoX_.t.p.LXUXGX8X3X4Xb.2X/.w.7XPXUXLXnXnXnXnXmXnXnXnXnXnXvXvXvXBXvXfXsXd 2 u w s s s s a ;X*X*XE.%XQ.W.",
"OXU.R.%X%X%X%X*X*Xe r r r e t >X*XE.~.~.Q.U.U..XoX.X9.rXUXUXcX/.8X X X(. Xe.rXUXUXcXP.}.0.0.I.P.Y.T.R.1 1 7 7 p b 4 6 m m B B B y 9 M n n a e t ;XU.OX",
"OX#XR.#X#X%X#XOX%X%X%X#X#X#X*XE.~.~.~.~.W.$Xj.z.'.oXP.nXUXUXwXw.(.].(.|.|.}.nXUXUX<XY.oXj.h.$Xj.@X$X+X;X-X9 @ 9 9 - i B B b m B w u b B q y M 8 %XR.OX",
"R.R.%X%X&X#XR.#X#X%X#X#X#X%XR.~.~.~.!.!.W.$Xz.l.z.`.oXPXUXKXl.s.u.t.l..XY.9XIXUXDXh.oX:X$Xd.d.d.g.E.*Xt e M y u i 6 m m m 3 3 B B B B V i i M e %X#XOX",
"E.R.%X&XR.Q.U.@XU.R.R.R.R.Q.W.Q.Q.W..XoXoX'.z.l.z.0.rXUXUXcX).l.l.u.s.h.W.iXUXUXcXI.~.R.~.#XE.OXk.*X;Xr @ q B B B k 6 6 m E 3 k k d k j k i y t E.R.R.",
"R.R.U.U.Q.U.I.U.U.U.Q.Q.Q..X.X`.'._._.`.oX.X_.l.z.s.NXUXUXwXI.U.j.U.$Xs.I.CXUXUX<X;X~.k.g.-X;X*Xo *Xs M 9 q B V z k 6 d k 3 E h 6 5 j Q 5 6 y t E.E.E.",
"%XR.U.U.U.U.'.`.'.'.'..X.X`.`.{.y.u.u.u.)..X`.u.h.z.PXUXDXh.s.U.!.!.-XI.=XIXUXNX7 a a 7 X 7 a a a a s s B B V l z k k z z j E W 5 x z g 5 b y e %X%X%X",
"#XU.I.I.`.`.).).{.).`..X{.(.(.(.y.p.t.t.t._..X.X0.iXUXUXxXX f.f.E.;X;Xa fXUXUXDXvXBXvXvXfXrX,X0 0 9 n B i u d k 5 Q k ] ] ] x Q x x f z h w y e %X#XOX",
"R.W.'._.).{.y.y.].].(.(.(.4X4X4Xr.i.w.w.t.t._.oXW.NXUXUX=Xf.f.k.8 ;X;Xa CXUXUXUXUXUXUXUXUXUXIXDXfXtX. b 3 = 3 h W W g ' ' x , { { c g 6 m n r e %X%X#X",
"W..X).y.].].a.a.M.M.M.2X2X1X1X1X2XZ.w.w.t.t.u.`.<XIXUXDXX k.@ @ o M a ,XUXUXUXUXIXPXIXIXUXUXUXUXUXIXmXC 4 E 5 j Q Q x ' { L F < U x z 6 u w t e #X%X~.",
"j.).).a.^.2X2X2Xn.B.B.V.5XV.V.5X1XM.Z.w.w.t.l.0.rXUXUXpXX @ @ @ @ 9 0 yXmXfXsX,XtX! &X,XyXpXMXPXUXUXUXIXfXl z ] v g L Y ( U T R L x ] d 3 q e %X*X~.Q.",
"_.{.].M.M.M.M.V.N.N.D.F.N.x.x.N.m.5XM.i.w.t.l.0.nXUXUX<Xo @ O @ + + 9 3 . . 4 d u . 3 d d 2 % ! aXFXUXUXUXVX' ' { L # P ( _ _ v f k 5 u u r >X#XR.Q.I.",
"].^.M.M.C.C.B.F.*.%.%.%.o.A.A.A.x.V.5X2Xa.p.t.u.DXUXGX*X8 @ @ ; ; = = 3 - = = 6 k h h V z 6 E 3   * aXUXUXUXVX_ _ Y P T _ _ < L Q f E i q y *X~.U.I._.",
"].2XM.C.N.F.D.%.-.-.=.-.$.A.A.A.A.B.3X4X(.].y.$XPXUXNX7 8 9 + ; = = = & E % % & h z z ] z 5 Q j Q * $ yXIXUXUXVX) _ ( T ( < F F Q h b B y *X#X@XU._.y.",
"2XM.C.N.D.%.%.$.+.#.4.4.#.+.A.A.v.n.2X8X X{.0.=XIXUXmXO 9 + + = = % % * E W % % E k ' ' ' c g ] x Q Q , | PXUXUXgX) U Z L v ^ ^ E 3 n n t *X@XW..X).].",
"2XC.F.D.$.#.#.3.2.2.4.4.=.%.A.v.v.Z.Z.{..X'.0.=XIXUXNXO + + ; ; = % * * D F D $ D , ' ' ' { { { v , Y c ( | UXUXIX| I G Y ' z 5 3 i 9 e *X*XQ.'.).].r.",
"5XV.D.$.+.4.4.2.5.5.2.4.&.*.V.B.b.b.p.u.'.'.$Xf.FXUXIXtXO - = % $ $ $ W ! yXhXhXhXdX[ ) { { { { Y F G P R > gXUXUXVX< R g x z 5 b n e -X*X&XoX.X(.2X1X",
"V.D.%.#.4.4.1.1.1.:.3.$.*.F.C.C.b.w.w.l.j.$XOXX pXUXUXFXtX; E tXuXhXZXFXUXUXUXUXUXUXHXjX{ _ _ ( L G Z Z P T A FXUXUX| c f h j V B q t #XOXQ.oX X4X3XV.",
"D.D.#.4.2.1.1.1.5.:.+.S.F.B.b.b.i.w.t.l.h.d.g.o @ DXUXUXUXHXPXUXUXUXUXUXUXUXUXUXUXUXUXUXIXdX) _ U A Z Z P T S uXUXUXjXv h & u B M 7 #XOXW.'.).(.2X5XN.",
"D.$.4.5.1.7.1.4.4.+.$.D.N.b.b.w.p.t.l.h.d.f.f.@ @ + NXUXUXUXUXUXUXUXHXZXhXgXdXdXdXjXHXUXUXUX| ) } P A A U ( < ^ HXUXHXz h 3 q q >X-X&Xd..X).(.2XV.V.F.",
"$.3.5.1.,.,.1.4.=.S.A.x.C.M.i.p.t.l.h.d.f.k.@ @ @ . - yXmXZXMXhXuX! K # # S I < ( > U hXUXUXHX} ( } T T < { c L MXUXIXyXm n 9 9 >X;XW.h.`.(.M.C.N.D.D.",
"4.4.1.,.,.;.4.=.-.S.A.B.m.4X(.].u.h.h.f.f.@ @ + + + - $ $ $ $ # # # # H H J P U T T S A MXUXUXaX> _ _ _ { { Q : fXUXUXyXp B y +X#XQ.'.).(.2X2XC.D.%.$.",
"2.1.,.,.;.5.4.-.%.D.B.C.2X/.{.)._.d.f.f.@ o @ + + - & * * $ $ K K G H Z Z Z A A P U P A ~ IXUXZXU _ _ { { v g x dXUXUXfXp ;X-X+X@Xj.).].i.M.5Xx.%.=.4.",
"1.,.>.,.1.4.%.%.F.N.C.M.(.{.).u.$XOXg.o 9 9 9 + - & W W $ $ $ # G H Z Z Z Z Z Z A P P A Z ZXUXHX^ ( { { ] ] ] d yXUXUXfX7 >X-X&XXX).(.(.M.C.V.D.$.4.2.",
",.,.,.1.2.#.%.F.N.B.M.(. X`.I.j.j.+X#X8 8 u u 3 E E W W D K K G H H Z Z Z Z Z Z Z J P P A MXUXIX/ v ] ] [ [ k 3 tXUXUXpXX *X;X!.oX].a.M.C.5XF.-.+.2.5.",
">.1.5.4.#.-.%.V.B.n.^.(..XU.$XOXOX7 7 0 b N 6 3 E E W K K K G H H H Z Z Z Z H H H J P L F MXUXPXc v ] ] [ V i . tXUXUXpX7 ;XU._. Xa.2X5XV.D.S.$.2.5.,.",
",.5.4.#.$.S.V.V.M.^.(..XXXQ.@XOX7 7 iXCXHXHXCXfXQ D K K G J J H H H H H H H H H J G G L ^ FXUXHXz l k k k V i . pXUXUXrXT.U.h._. X2XC.V.D.D.$.3.5.;.>.",
"5.4.#.$.S.N.5X2X(.(.`.'.R.*X*Xr =XCXUXUXUXUXUXUXFX! K G G A J H J H H H G H J J J K D F / IXUXCXx h 5 3 i m n 0 CXUXIX<X!.`.).(.2Xb.v.N.S.S.3.5.;.>.>.",
"2.+.$.%.D.C.2Xa.].).U.@X@X>XM >XFXUXUXUXHXCXIXUXUXPX~ A J J J J J H G K K K K K K D D F yXUXUXfX4 E - - 9 q a >XLXUXDXI.oX X X4XM.B.N.S.$.+.2.1.,.>.1.",
"4.$.%.F.C.M.].].).I.$X@X#X>Xn BXUXUXFXyXf 5 / CXUXUXMXA J J G G G K K K K K K K D D W : MXUXUX,X4 3 + + + r a rXUXUXcXI.|. X4X2XB.N.S.$.$.2.1.,.>.1.2.",
"%.%.D.C.M.^.{.'.W.U.%X%XM n ,XUXUXHXC : Q L L L FXUXIX~ A G G G G K D D D $ D * * * & E PXUXFXi u 9 + + 9 *Xa vXUXUXrX}. X4XM.M.v.A.$.+.2.1.,.>.,.5.3.",
"*.D.C.M.a.].U.&XOXOXt M n B jXUXUXdX, Q L L L S gXUXUXuXA G G D D D D D $ $ * * & & $ yXUXUXhX. 9 9 9 9 %X-X-XGXUXLXXX X4Xn.b.B.x.$.#.4.1.7.>.,.1.4.=.",
"D.C.M.^.].'.Q.#X+X8 y q b d FXUXIXc Y L L P P S uXUXUXuXA K K D D D $ * * & & & - - . NXUXUXtXO + o 8 *X-X!.<XUXUXnX/.8X2Xb.B.N.S.$.4.1.1.>.,.1.2.4.%.",
"V.M.2X]._.$X&X*Xr q w i h C HXUXCX< Y L P P P S aXUXUXuXS K D D D D * & & & & - - . ! IXUXDX@ @ @ @ +X%X*XT.cXUXUXrX/.3XV.v.B.D.+.3.5.;.,.,.1.4.4.-.%.",
"C.4X(._.$X%X%Xe w i 6 h j C IXUXVX> R U I P P S jXUXUX/ F F D W W & & & - - - + + . pXUXUXpXO @ @ k.g.g.$X`.DXUXIX9X1X5XV.N.*.$.3.4.1.,.,.5.4.4.$.%.V.",
"2X].`.U.#X%Xe q u 6 h g , / IXUXVX> c R Y U U U VXUXIX/ L E W W W & - - - - ; + + + HXUXIXtX@ @ f.g.f.d.0.9XUXUXSXm.5X5XF.*.-.4.2.1.,.,.5.4.4.=.%.N.n.",
"y._.W.R.%Xq w i h f f g Y / IXUXVX, { v < < v < jXUXUXdX: Q E W E - - - ; ; ; + O mXUXUXmXo k.f.f.d.h.z.y.cXUXUXzX..5X*.*.-.4.2.1.,.>.5.2.4.=.%.V.n.Z.",
"_.W.~.%Xr w b j f f Y R Y ^ HXUXZXx v { { v c , dXUXUXCX: 3 E E - + + + + + O @ mXUXUXLX=Xf.f.d.h.u.`.{.(.KXUXIXqXX.*.&.-.3.4.1.,.>.1.2.3.#.o.D.V.2X[.",
"Q.~.%Xr q d j 5 L Y < c ^ L ZXUXHXc v v v v x f Q FXUXUXMX! - . . . O O + tXpXLXUXUXIXrXI.$Xj.h.u.).{./.zXUXUXAXc.F.&.$.+.2.1.,.>.,.5.4.=.-.D.V.2X{.'.",
"R.%Xy i 6 h x < Y < v c g : jXUXUXdXx x k k j 5 3 tXIXUXUXIXZXmXpXpXfXmXDXIXUXUXUXLXrXT..X'._.t.t.p.a.4XGXUXUXwXA.%.=.3.2.1.7.>.,.5.4.=.-.*.C.M.].oXXX",
"%Xq w h 5 f , < < g g j 5 5 yXUXUXjX4 k k k m 3 3 . tXFXUXUXUXUXUXUXUXUXUXUXUXPXcXU.W.oX.X).t.t.t.p.q.bXUXUXAXA.S.=.4.4.1.7.>.,.5.2.$.$.S.B.M.^.`.$X@X",
"y q 6 f ^ Y T < c g j h 6 u u HXUXIXC b b b m i 9 9 . u pXNXPXUXUXUXUXIXGXnXiX=X0.u._.`. X].p.w.p.q.eXUXUXIXqXo.=.4.4.1.1.>.,.1.2.3.-.%.N.M.2X).Q.@X+X",
"w d k ^ Y T Y , f j h 6 u u 2 fXUXUXvX4 9 9 y M q 9 r t 7 o +X=XtX=X=X<X!.W.0.0.l.l.t.].(.^.i.Z.q.wXIXUXUXzX@.=.3.2.1.1.,.,.1.5.3.$.%.V.C.2X{.'.#X+X8 ",
"d j c { R R x g h b w q q y q 9 HXUXUXiX. 9 r >Xa >X>X>X&Xg.o o X f.OXQ.oXoX_.t.l.l.t.i.4X4X2Xe.wXLXUXUXbXO.#.3.2.1.7.,.7.1.5.4.=.o.V.V.M.).'.&X%X8 b ",
"5 L R R R x k d b n M M M M e 0 iXUXUXIX=X7 *X-X;X;X-X-X#Xk.d.OX$X$X$X$X`..X).t.l.p.w.i.2X1X..zXPXUXUXAX+.+.4.5.1.7.,.,.5.5.3.#.%.N.B.4X(._.@X@Xe w m ",
"L U R R g j 6 b n a 8 e -XE.*X-X7 mXUXUXPXrX1 #X#X~.R.R.R.j.j.U.U.j.h.l.y.{.{.y.p.p.Z.Z.m.5XbXUXUXUXAX+.+.4.5.1.7.,.,.5.5.4.$.S.*.V.n.].`.U.@Xe M u 5 ",
"U T R R x k w r e #Xf.f.R.%X#X&XQ.T.nXUXUXUXfXd.d.$XOXj.U..X.XoX.Xz.l.t.p.^.4X7XZ.b.c.c.lXKXUXUXUXbX#.+.4.5.1.,.>.7.5.4.4.=.o.D.5XM.i.).I.R.r M m 5 L ",
"} R R x d w y e E.OXj.I.~.R.j.j.W.Y.W.nXUXUXUXNXwXI.0.s._.).`..X.X[.p.w.p.2X1X1Xm.C.lXSXUXUXUXPXzX@.4.4.2.;.,.>.,.5.4.4.#.$.*.V.2Xa.u.`.@X-XM b 6 Q L ",
"R c x l B y 7 OX~.$XW.W.oX.X)._.`.).}.}.cXUXUXUXUXDXrX[.y.9.9.e././.q.q.q.m.6XeXbXKXUXUXUXUXAXkX@.2.2.2.5.,.>.,.;.2.4.+.S.A.N.Z.a.u._.Q.+Xr b j x U T ",
"Y x z m y a #XU.U._.u.{.).{. X(.y.y.].]./.eXSXUXUXUXUXIXDXcXxXzXzXzXzXxXbXSXLXUXUXUXUXUXAXkXO.4.4.2.5.5.;.,.,.1.5.4.$.A.A.N.b.a.[.'.Q.-Xe q h f v < T ",
"g j m n *XE.W.`.`.y.y.].^././.(.^.^.r.i.4Xe.w.rXDXUXUXUXUXUXUXUXUXUXUXUXUXUXUXUXUXLXAXkX+. .3.4.1.5.5.;.,.,.1.5.4.=.%.S.x.M.M.{._.U.#X-XM 6 f g Y T < ",
"l B y -XR.U.`.].(.r.^.^./.3X1Xn.m.3X5XM.4X4X^./.(.eXxXSXLXUXUXUXUXUXUXUXUXLXJXbXlXG.O.+.+.3.2.5.1.5.,.,.,.1.5.2.4.-.S.x.n.4X X'.I.R.8 9 b g ^ Y U < g ",
"b B t ~.!..X].^.^.1X1Xm.1XC.V.B.C.5X3XM.a./.(. X X/.w.i.2XeXeXzXzXzXzXlXqXG.D.@.O.#.6.3.3.2.:.;.,.,.,.,.1.5.3.#.-.S.v.b.M. XoXoX~.8 8 i k g < R T Y 5 ",
"q e ;X:X|. X^.3XJ.K.m.K.X.x.X.V.C.n.Z.^.(.^.y.(.].7Xa.i.i.1X1Xm.n.c...o.A.A.S.=.3.3.4.4.2.;.,.>.>.,.;.1.5.3.+.$.*.N.V.M.i.).'.~.*Xr B j c Y T ( L f h ",
"n E.!.Y.(.r.C.K.K...X.L.*.%.K.m.n.2Xa.].(.^.^.^.p.a.i.M.M.5X6X6X5X0XF.D.D.$.#.4.3.2.4.5.1.,.>.>.,.1.1.5.4.+.+.%.0X5X3Xa.u.`.OXE.8 b h f { ( T < f k m "
};
