/* XPM */
static char *_8a2b61ec26c4f52f6bf23740c40da2eLDY97E9cU6LLMlLj[] = {
/* columns rows colors chars-per-pixel */
"75 75 256 2 ",
"   c #D7793D",
".  c #BF7A5F",
"X  c #B9776B",
"o  c #B16D76",
"O  c #A97777",
"+  c #BC7B73",
"@  c #B87778",
"#  c #D37C4E",
"$  c #CB7C5A",
"%  c #C67C65",
"&  c #CA7C62",
"*  c #C7776A",
"=  c #C37C6B",
"-  c #D17C63",
";  c #C17872",
":  c #D6823E",
">  c #BE875B",
",  c #BCA75C",
"<  c #ADB958",
"1  c #BAB95B",
"2  c #9C887D",
"3  c #9D9975",
"4  c #AB896A",
"5  c #BA896B",
"6  c #AC9968",
"7  c #B89869",
"8  c #AA8778",
"9  c #AB8D7D",
"0  c #B58675",
"q  c #A39773",
"w  c #AD9575",
"e  c #AC9C75",
"r  c #A6957E",
"t  c #AB947B",
"y  c #A59B7D",
"u  c #A99B7A",
"i  c #B49574",
"p  c #B29A72",
"a  c #9EB36A",
"s  c #9BA67D",
"d  c #9CB67B",
"f  c #AAAA6A",
"g  c #BBA364",
"h  c #B7AB67",
"j  c #BBAA63",
"k  c #B4A46B",
"l  c #B3AB6A",
"z  c #ADB46C",
"x  c #A9B86A",
"c  c #B4B465",
"v  c #B7B666",
"b  c #B3BC64",
"n  c #ABA274",
"m  c #A8A976",
"M  c #A5A37B",
"N  c #A3AB7B",
"B  c #B3A675",
"V  c #A5B474",
"C  c #A6B576",
"Z  c #B8B778",
"A  c #DB844C",
"S  c #D6884C",
"D  c #CC9249",
"F  c #D2984E",
"G  c #CD815C",
"H  c #C98C58",
"J  c #D48355",
"K  c #D78855",
"L  c #D3845B",
"P  c #C79859",
"I  c #D29553",
"U  c #C4AE4E",
"Y  c #C6A757",
"T  c #C4AB5B",
"R  c #C4B558",
"E  c #C78565",
"W  c #D38E6D",
"Q  c #C39764",
"!  c #C2A765",
"~  c #C3B663",
"^  c #C9AE75",
"/  c #E4A47D",
"(  c #ABC45A",
")  c #B6CD54",
"_  c #B6C85B",
"`  c #9DC075",
"'  c #ACC46A",
"]  c #B5C566",
"[  c #B3CA64",
"{  c #AEC573",
"}  c #C2C259",
"|  c #C5C972",
" . c #725CBB",
".. c #7A77A9",
"X. c #7E7BAC",
"o. c #7567B7",
"O. c #7D6CB5",
"+. c #7B65BD",
"@. c #706DB8",
"#. c #756CBD",
"$. c #7B6CBB",
"%. c #7D75B4",
"&. c #7578B6",
"*. c #7D7AB3",
"=. c #7672BC",
"-. c #7A72BB",
";. c #685BC6",
":. c #6D5ECE",
">. c #745EC6",
",. c #675BD4",
"<. c #6A5DD2",
"1. c #6E68C4",
"2. c #6E63CC",
"3. c #7464C5",
"4. c #746BC3",
"5. c #7868C3",
"6. c #7164C9",
"7. c #7A74C8",
"8. c #6B61D0",
"9. c #786CD5",
"0. c #9A7989",
"q. c #926C92",
"w. c #9B6C97",
"e. c #9A6D9A",
"r. c #8B7998",
"t. c #8D7C9D",
"y. c #9C7495",
"u. c #977997",
"i. c #9B7B94",
"p. c #94749D",
"a. c #9A729A",
"s. c #937C9C",
"d. c #A56C88",
"f. c #A97787",
"g. c #A47C8B",
"h. c #B37882",
"j. c #A66D90",
"k. c #A47792",
"l. c #856DAD",
"z. c #8869A8",
"x. c #8B6CAB",
"c. c #926DA3",
"v. c #986FA0",
"b. c #8C74A5",
"n. c #857CA5",
"m. c #8878A7",
"M. c #8B7CA4",
"N. c #8574AD",
"B. c #8974AA",
"V. c #847CAB",
"C. c #9375A2",
"Z. c #8465B5",
"A. c #836CB3",
"S. c #8274B3",
"D. c #827AB2",
"F. c #8877BA",
"G. c #9277BB",
"H. c #A07EA5",
"J. c #8478C5",
"K. c #7B879C",
"L. c #7C84AA",
"P. c #7384B2",
"I. c #99878C",
"U. c #9C8C8C",
"Y. c #8D938B",
"T. c #939785",
"R. c #9D9486",
"E. c #9D9C85",
"W. c #95948D",
"Q. c #9B948B",
"!. c #959B8C",
"~. c #9B9A8A",
"^. c #888798",
"/. c #8D849D",
"(. c #868A9B",
"). c #8C8B9C",
"_. c #958595",
"`. c #9A8493",
"'. c #948C94",
"]. c #9A8B92",
"[. c #93839A",
"{. c #9A859A",
"}. c #928A99",
"|. c #8D9395",
" X c #8A9997",
".X c #8C939C",
"XX c #939393",
"oX c #959794",
"OX c #A58585",
"+X c #A48D84",
"@X c #A88885",
"#X c #A2838B",
"$X c #A39383",
"%X c #A49586",
"&X c #A29B82",
"*X c #AE9193",
"=X c #8FA68F",
"-X c #9CA383",
";X c #98A887",
":X c #A4A784",
">X c #AEB08D",
",X c #8484A4",
"<X c #8B83A2",
"1X c #848AA4",
"2X c #898BA1",
"3X c #8483AA",
"4X c #888AAA",
"5X c #9889A6",
"6X c #8E91AF",
"7X c #9794A7",
"8X c #8886B6",
"9X c #AE96AE",
"0X c #B2AEB0",
"qX c #CA9A8F",
"wX c #CEAB91",
"eX c #E4B08F",
"rX c #C59CA9",
"tX c #CDB1AE",
"yX c #E9BBA4",
"uX c #BCC68F",
"iX c #BECAAE",
"pX c #C9D090",
"aX c #C9C8B7",
"sX c #D3D0B1",
"dX c #E9CDB5",
"fX c #DAE3AD",
"gX c #E4E3BD",
"hX c #928BCA",
"jX c #A696CC",
"kX c #B9B9C8",
"lX c #B7B0D4",
"zX c #B6AFE2",
"xX c #CAB8C8",
"cX c #C3BBE1",
"vX c #BCC2D3",
"bX c #DBC7C6",
"nX c #D2CBCF",
"mX c #D6D7D6",
"MX c #E8D0CB",
"NX c #EAD8C9",
"BX c #E7D9DA",
"VX c #DAE3D0",
"CX c #EAE8D0",
"ZX c #E7E7D8",
"AX c #CDC8E4",
"SX c #DAD8E8",
"DX c #E3DBE6",
"FX c #E9E6E8",
"GX c #EFEFEE",
"HX c #F4EBE8",
"JX c #F5F4EB",
"KX c #E9E7F2",
"LX c #F4F2F3",
"PX c #F9F5F3",
"IX c #F8F7F7",
"UX c #FFFFFE",
/* pixels */
"*X~.oX7X7X6X8X8X8XF.F.8X8X6X6X6X5X7X7X7X7X5X5X5X5X7X5XC.5X6X6X8XG.8XF.F.J.J.J.J.7.9.9.9.9.9.9.9.9.7.7.7.J.J.8X6X6X7X7X7X7X=X>X>X>XZ ^ { ~ } ~ Z Z C >X",
"g.'.^.t.n.....&.O.o.@.&.*.L.L.,X(./.u.).^.s.a./.).t.t.b.m.N.V.%.Z.$.=.o.+.3.3.>.:.:.:.,.,.,.,.:.:.1.4.#.$.O.N.3X<Xp.p.|.W.~.$Xs C x ' [ _ _ 1 z f M s ",
"oX_./.m.V.A.+.=.o.=.&.*.X.m.M.(./.).}.}._._.[.)./.p.M.M.V.x.N.*.%.$.=.4.4.4.6.2.2.<.,.,.<.<.2.2.3.4.=.-.A.Z.x.<XM.a._.`.g.@X9 C C b ] ) _ [ c 5 M r f.",
"'.).c.B.*.+.o.#.#.P.P.X.L.1Xt./._.|.XX'._._.}.).[.s.M.m.N.N.%.%.-.=.4.4.4.2.2.2.<.,.,.<.2.2.6.4.4.=.=.%.A.x.m.2X).}.'.g.@Xr N m z ' _ ) 1 h x e y E.W.",
"[.M.z.%.&.+.+.1.@.P.L.n.1X).u.|._.XXXXXX`.`.u.u.).t.b.m.N.*.%.O.$.4.4.3.6.2.<.<.,.,.8.2.2.6.4.4.-.%.*.*.N.m.4X.X.XXXg.f.-X:Xm E l b R _ Q k ` d -XU.oX",
"<Xm.l.&.=.>.3.#.&.X.n.,X/./._.'.`.!.!.oX'.`.}.}.).s.M.M.B.S.S.$.#.4.3.3.6.:.<.,.<.2.6.6.6.3.4.$.S.S.D.N.x.b.2X.X XXXg.@X-XN 5 7 ' T , [ k n w -X;X].}.",
"n.l.Z.$.+.3.1.#.%.L.,X).|.'.'.I.W.Q.!.I.'.'.`.'.[.p.M.B.N.D.S.$.$.4.4.3.6.8.<.8.2.2.;.;. . .$.%.A.l...z.z.p.)..X|.I.f.8 N B 5 z [ _ c b ` e r ;X!.|./.",
"m.l.Z.#.#.3.#.%.V.,X/.|. XW.U.U.Q.R.~.Q.W.XX`.`._.[.b.m.V.D.%.$.#.4.4.6.2.2.:.;.2.J.jXcXAXDXKXKXKXDXAXlX9Xt.^.|.oXU.h.8 N C z c , 1 E z C s ;X=X X X/.",
"X.%.=.=.4.@.&.L.,X/.[.XXW.U.R.R.$X$X%X-X~.I.].].}.s.M.m.B.S.A.$.4.4.4.6.2.;.6.jXSXIXUXUXUXUXUXUXUXUXUXUXUXFXxX{.I.Q.@Xu C C x H P h k B w &XQ.=X X/.M.",
"N.%.#.#.#.&.L.,X/.^._.W.Q.R.$X$X$X$X$X$XR.U.].`._.s.M.m.N.D.%.$.4.4.1.;.6.zXKXUXUXUXUXUXIXKXKXKXKXLXUXUXUXUXUXLXnXE.s :XC ` x j h z C e y &XQ.=X|.(.n.",
"X.%.&.=.&.X.n.(.|.XXW.R.+X$Xr y r r &X&XE.R.W.]._.[.C.b.N.X.%.=.4.3.;.jXKXUXUXUXUXSXzXjXG.S.*.V.B.C.7X0XmXIXUXUXUXFX>X4 B z g b x C C M -X!.W. X).,X,X",
"X.P.P.=.A.n./.^.|.W.R.+X+Xr r M M y r r $X$XW.].'.[.s.b.V.X.%.$.+.4.AXUXUXUXIXAXhXo.o.o.O.l.V.3Xm.c.t.^.r.].xXIXUXUXPXqX6 7 G l ` d N $X$X=XXX X).b.N.",
"L.P.&.%.m.t.s.'.U.R.$Xr u u u N M u y r &X@XR.W.'.[.s.m.V.N.S.o.J.KXUXUXUXAXhXo.o.%.*.S.N.N.V.M.M.2X/.[.y.0.0.*XFXUXUXIXwX> Q f C d d $X+XU._.|.(.M.,X",
"X.*.%.n.t.[.'.U.OX$X&Xu M u e M M u u y &X$X~.Q.'._.s.M.B.B.O.hXKXUXUXLXjX@.&.%.S.*.*.N.z.b.,XM.M.2X/.y.i.].~.E.-XVXUXUXJXQ f C d d ;X-X!.!.'._.(.1XL.",
"L.L.m./.[.i.W.R.$X&Xy M M m e w e u t t &X-X!.Q.XX_.p.M.m.N.F.KXUXUXKXhX@.*.%.A.A.V.N.V.B.m.1X2X/.).).'.].!.;X;Xs 3 ZXUXUXVXa C d d ;X;X!.!.|.|.^.(.,X",
"L.,X/.}.`.#XQ.$X$Xr u u w e e w w M M M :X$XR.W.XX'.s.v.b.n.SXUXUXSX&.O.S.*.S.X.V.n.V.,XM.M.<X<X.X[._.XXk.U.;XE.9 u N JXUXUXuXm d s E.-X=XW.'.|.)..X,X",
"(.(.|.XXI.Q.E.$X9 u u w w e n n e w u y -X$X#XU.XXXX).<Xz.xXUXUXKXD.%.S.l.l.l.n.V.n.M.<XC.t.r.^._.'.].=XW.Q.;X$Xu d a wXUXUXZXq M y $XOX!.U.'. X}./.).",
"^.'.XX!.Q.R.$X$Xy t w w w e n n n w 9 +XE.R.#Xg.].XX).(.7XIXUXUX6X..3Xx.B.B.x.B.n.<X<Xr.p.H.9X0X9XXX0.#X!.;X;X&Xr N C f HXUXIX*Xq r -XE.;X!.!. X'._.).",
"_.].W.Q.R.+X+X&XM t 9 t n w w e n u 9 @X$X~.U.#X`._.}.(.mXUXUXvX..B.3X,XM.1X,XM.1X(.).0XDXIXUXUXUXGX0X0.~.;X;XM t w n a sXUXUXaX3 0 -XE.;X;XW.U.W.'.|.",
"I.U.I.R.R.+X$Xr r u t u u u u u M M $X+X%X~.!.W.'.u.a.7XUXUXGX1X1Xc.c.1X2X/.1X2Xr.7XDXUXUXUXUXUXUXUXUX0XT.@X&Xd N m C a >XUXUXVX3 -X;XE.-XE.~.!.~.W.'.",
"U.U.#X$X$X$X&X&Xy y t 9 t u M M M &XE.~.Q.Q.oXoXXX`.q.xXUXUXkXK.1X2XC.<X).e.[.(.9XLXUXUXUXDXxX0XmXUXUXLX;X@Xr d d C C f i PXUXZXd d d s ;X&X&XE.$XQ.W.",
"OXU.R.$X$X$X$X&X&Xr t t t r y :X&XE.~.~.Q.U.U.XXoXXXu.KXUXIX5X(..X.X.X)..X[.a.7XIXUXUXFX9X0.0.Y.T.mXUXUX0X8 r M n i p f C JXUXZXq 0 M N N s r y -XU.OX",
"OXR.R.+X+X$X+X@X$X$X$X+X+X+X&XE.~.!.!.~.W.#Xg.g.].Y.0XUXUXmXw.a.).[.). X X XY.mXUXUXDXoX0.g.#X#XI.0XUXUXaXO @ 0 0 = p C C PXUXZX6 0 n C w u M 9 $XR.OX",
"R.R.$X$X%X+XR.+X+X$X+X+X+X$XR.~.~.~.!.!.W.#Xk.k.k.I.nXUXUX0Xw.j.i.y.j.'.oXI.0XUXUXHX!.=X#Xf.g.f.O aXUXUXtX3 u i p p m f >XUXUXVXa C C C p p M r $X+XOX",
"E.R.$X%XR.Q.U.+XU.R.R.R.R.Q.W.Q.Q.W.XXXXXX].k.k.j.k.LXUXLXoX'.j.j.i.j.j.oX0.bXUXUX0XT.~.~.+XE.@XO aXUXUXrX8 C C C z p 6 sXUXUXsXf l C l z p u y E.R.R.",
"R.R.U.U.R.U.I.U.U.U.Q.Q.Q.oXXX'.].`.`.'.XXXX`.k.d.rXUXUXnX0.].W.g.U.#Xd.#X~.LXUXGX;XE.h.f.-X;X&XO tXUXUXbX4 C C C z 6 Z PXUXIXZ 7 7 h Q 7 p u y E.E.E.",
"$XU.U.U.U.U.].'.].].].XXXX'.'.}.u.i.i.i._.XXXX`.d.BXUXUX0Xd.j.U.!.!.;X+X8 iXUXUXnXs ;X$Xh.$X-Xs s :XIXUXIXpXa x x f uXJXUXUXdX$ 7 c b h 7 n u r $X$X$X",
"+XU.I.I.'.'.'._.}.'.'.XX}.).).).u.a.y.y.y.`.XXW.*XIXUXHXg.f.d.h.E.;X;X;Xs ZXUXIX>X3 8 3 3 3 8 t u 4 aXUXUXUXZXsXsXCXUXUXUXJXc P v v g x k e u r $X+X@X",
"R.W.].`._.}.u.u.[.[.).).).2X2X2Xt.p.a.e.w.y.`.Y.0XUXUXxXo h.h.h.9 ;X;Xs >XIXUXLXaXbXbXbXaXiX>XM 4 X X NXUXUXUXUXUXUXUXUXZXc 1 ] [ c g 7 m m t r $X$X+X",
"W.XX'.u.[.[.s.s.M.M.M.<X<X,X,X,X<XC.e.e.w.w.i.I.FXUXUX*Xo h.@ @ O M s s aXUXUXUXUXUXUXUXUXUXUXJXNXwX5 f pXHXUXUXUXUXHXfX] H H 1 Y c x 7 i e y r +X$X~.",
"g._._.s./.<X<XM.b.b.b.V.3XV.V.3X,XM.C.e.e.w.w.*XIXUXFXOXh.o o @ @ 0 n w ZXUXUXUXUXUXUXUXUXUXUXUXUXUXZXpXa x { pXpX^ P , _ Y T 1 P c ' f 5 w r $X&X~.Q.",
"`.}.[.M.M.M.M.V.N.N.S.D.N.l.l.N.n.3XM.p.e.e.q.xXUXUXaX2 O @ @ @ + + 5 wXUXJXNXsXwXqXqX>XuXtXbXHXUXUXUXUXCX{ ( ( ( P # I _ ) _ b j z 7 i i t :X+XR.Q.I.",
"[./.M.M.m.m.N.D.*.%.%.%.A.Z.Z.Z.l.V.,X<Xs.a.y.FXUXIX*X3 9 @ @ ; ; ; * qXwX* * 6 f k 6 x x 7 . 5 wXMXUXUXUXJXpX( [ Y I R ) _ 1 P Q 7 E p w u &X~.U.U.`.",
"[.<XM.V.N.D.S.%.-.-.=.-.$.Z.Z.Z.Z.N.1X2X).r.9XUXUXBXO @X9 + + ; * * * % $ * * % k ' ' ' x Q Q l > $ qXHXUXUXIXpX) _ _ R _ 1 H H Q k n C u &X+XOXU.`.u.",
"<Xm.V.N.S.%.%.$.+.#.4.4.$.+.Z.Z.x.b.2X.X.X_.nXUXUXtXo @ 0 + + * * * * & E E & - E z ' ' ' c h ' c Q H ~ CXUXUXUX| ) Y A P b ! g E 5 m N y &X@XW.XX_.[.",
"<Xm.D.S.$.$.#.5.3.3.4.4.=.%.A.x.x.C.s.}.|.].HXUXPXh.@ @ + + = * * & & & E Q E - E h ' ' ' [ [ [ b , T 1 _ fXUXUXJX[ Y K T ] b 7 5 i 0 r &X%XQ.]._./.t.",
"3XV.S.$.+.4.4.3.6.6.3.4.&.*.V.B.c.v.a.i.I.0XUXUXMXo @ + + = = * & - - E E Q , H H , ( ( [ [ [ ] Y J J I R 1 gXUXUXCX1 ~ j b x 7 n N u -X&X%XoXXX).2X,X",
"V.S.%.#.4.4.2.2.2.>.3.$.*.D.V.m.c.e.e.k.0.nXUXUXrXo ; + ; * % & - - G $ H ! pXsXgXgXfXpX[ _ [ _ P J A A F U I HXUXUXpXc g k l C C w y +XOXQ.oX.X2X1XV.",
"S.S.$.4.3.2.2.2.6.>.+.A.D.b.c.c.p.e.j.j.k.LXUXJX@ @ + ; * * & & - - # W dXJXUXUXUXUXUXUXJXpX) _ Y S A A F R D eXUXUXCXb k % i C M 8 +XOXW.]._.).<X3XN.",
"S.$.4.6.2.8.2.6.4.+.$.S.N.c.c.e.a.y.k.d.rXUXUXbXo + + = = % & $ - # eXPXUXUXUXUXUXUXUXUXUXUXfX) R F S S Y _ _ Y HXUXPX{ 6 5 w w :X-X%Xg.XX`.).<XV.V.D.",
"$.5.6.2.<.<.2.4.=.$.A.l.V.m.p.a.y.k.j.d.BXUXUXqXX + = = % & & $ # yXUXUXUXJXdXpX| | eXNXUXUXUXpX) } Y Y 1 [ b P dXUXUXpXf C 0 0 :X;XW.k.'.).M.M.N.S.S.",
"4.4.2.<.<.:.4.=.-.A.A.b.n.2X).[.i.k.d.*XIXUXHX@ + + = % & & $ # yXUXUXUXdXK D F U U D : eXUXUXJX} _ _ _ [ ] Q P wXUXUXsXa N u @X+XQ.].'.}.<XM.N.S.%.$.",
"3.2.<.<.:.6.5.-.%.S.B.m.<X).}._.`.g.O tXUXUXtXX ; = % % & $ $ W IXUXUXeX  A K S F U F S   dXUXUXpX( [ [ [ b h z Z PXUXZXs ;X-X@X#Xg._.[.p.M.3Xl.%.=.4.",
"2.<.,.<.2.4.%.%.D.N.M.M.).}.`.i.#X#XO BXUXIXqXX = = E E $ G # dXUXUXyX  A A A A S F F K # / UXUXsX< [ [ ] ' x z B JXUXZX8 &X-X%XoX'.).).M.m.V.S.$.4.3.",
"<.<.<.2.3.$.%.D.N.b.M.)..X'.I.g.f.8 *XIXUXZX4 5 E E E E G J L HXUXJXK A A A A A K S I I S / UXUXgX< [ ] { { z 5 5 JXUXBXO E.;X!.oX[.s.M.m.3XD.-.+.3.6.",
",.2.6.4.#.-.%.V.b.b./.).XXW.#XOX@XO aXUXUXsX6 5 E E E L L # eXUXUXdX# A A A A K K K I P D eXUXUXfX< ' ' { z p X E IXUXBX8 ;XU.`..Xs.<X3XV.S.A.$.3.6.<.",
"<.6.4.#.$.A.V.V.M.<X).XXQ.%X@X@X9 8 HXUXPX>Xk 5 E E L L L # dXUXUX/ A K A K K K K K J P Y dXUXUXpXx z l z C p X qXUXUXnXT.Q.j.u..X<XM.V.S.S.$.5.6.:.,.",
"6.4.#.$.A.N.3X<X).).'.].Q.&X&X$X8 >XUXUXCXf k 7 H H L K S K PXUXHXK K K J K K K K L G H j ZXUXIXZ 7 5 5 i m N q aXUXUX0XY.XX`.).2Xc.x.N.A.A.5.6.:.,.,.",
"3.+.$.%.S.m.<Xs.[.'.U.#X@X:X:XM q sXUXUXpXf h Q H L J K A eXUXUXdX# K J J J L L L $ G H ^ UXUXZX6 5 = X 0 u ;Xs ZXUXIX*X|. X.X2XM.B.N.A.$.+.3.2.<.,.2.",
"5.$.%.D.N.M.[.{._.U.#X@X+XM N N C JXUXPXh 7 g P H H K K S CXUXIX/ # L J L L L L $ $ E > sXUXUXsX6 5 + + + t s >XIXUXDX]. X.X).<Xb.N.A.$.$.3.2.<.,.2.3.",
"%.%.S.V.M./.}.].W.U.$X$XM N m f uXUXUXNXH H P P P I K S W IXUXCXJ L G G G $ G & $ & E E HXUXIX>Xi 0 + + 0 &Xs aXUXUXnX^..X2XM.M.x.A.$.+.3.2.<.,.<.6.5.",
"*.S.N.M.s.[.W.Q.OX@Xy M N C C f gXUXUXwXH P I I F I I S dXUXUXyX# G G G $ $ & & % % $ qXUXUXBXX 0 0 0 0 $X-XT.FXUXUX7X(.2Xb.b.m.l.$.#.4.2.8.,.<.2.4.=.",
"D.N.M./.[.].Q.+X@X9 u w n z z c ZXUXJXQ P I I F Y F I S CXUXPXW $ G $ $ & % % % % = X MXUXUXwXX + @ 9 &X;X;X*XIXUXFX^..X<Xc.B.B.A.$.4.2.2.,.<.2.3.4.%.",
"V.M.<X[.`.#X%X&Xt w e p k l c Z PXUXCXF I F F F U T F P PXUXCXG E $ & % % % % = = X E IXUXJX@ @ @ @ @X$X&XT.tXUXUXkX(.4XV.x.N.S.+.5.6.:.<.<.2.4.4.-.%.",
"M.2X).`.#X$X$Xr e p p k l h , ^ UXUXgXU Y F F F T R T ^ UXUXdX$ E % % % = = = + + X tXUXUXtXo @ @ h.h.h.#X'.FXUXIX7X,X3XV.N.D.$.5.4.2.<.<.6.4.4.$.%.V.",
"<X[.'.U.+X$Xr w 5 7 k g j T P ^ UXUXgX1 T Y Y T c ] 1 ^ UXUXdX$ E % % = = = ; + + X FXUXUXqXo @ h.f.f.f.0.9XUXUXDXn.3X3XD.*.-.4.3.2.<.<.6.4.4.=.%.N.b.",
"u.`.Q.R.$Xw e p k g g j T Y P ^ UXUXgX1 1 1 1 c b b b Z PXUXNX$ E = = = = = ; + o tXUXUXBXO h.h.f.g.g.i.r.nXUXUXlX..3X*.*.-.4.3.2.<.,.6.3.4.=.%.V.b.C.",
"`.W.~.$Xt w n l g j T R T Y P ! PXUXCX< ] b c h h h l k JXUXHXE = X X + + + @ o *XLXUXUX9XO f.f.f.i.'.}.).GXUXIX5XV.*.&.-.4.4.2.<.,.2.3.5.$.O.S.V.<X{.",
"Q.~.$Xt w k l 7 P Y 1 c ! Q 7 g HXUXJXb b b c g Q 5 p 5 NXUXUXwXX 0 + + @ @ o *XHXUXUXmXI.g.f.k.i.`.}.(.0XUXUXAXz.D.&.$.+.3.2.<.,.<.6.4.=.-.S.V.<X}.].",
"R.r u p p k c 1 R 1 b c h g l f VXUXUXuXx x l 5 E E 5 5 qXUXUXIXqXX O O O h.tXIXUXUXFXQ.W.].i.y.y.y.s.^.SXUXUXjXZ.%.=.5.3.2.8.,.<.6.4.=.-.*.N.M.[.oXQ.",
"$Xw e k 7 g , 1 1 j j h 7 7 k f pXUXUXgXf C f 5 5 5 5 0 X MXUXUXUXBXbXaXMXGXUXUXUXFXoXXXXX'.i.y.w.e.c.9XUXUXKXl.O.=.4.4.2.8.,.<.6.3.$.$.A.B.M./.'.U.+X",
"u w k g Y T R 1 c j l k 7 i i p p JXUXPXB n m p 0 0 0 0 0 @ MXUXUXUXUXUXUXUXUXUXbXg.`.'.|.[.y.e.e.e.b.KXUXUXjXo.=.4.4.2.2.,.<.2.3.5.-.%.B.M.<X{.Q.OX@X",
"e f c ~ T R T , g l k i i i i i 4 sXUXUXbX4 u M t 8 t y 9 @ O tXBXIXUXUXUXLXnX9Xd.k.y.[.).).s.p.v.z.AXUXUXSX@.$.5.3.2.2.<.<.2.6.5.$.%.V.M.<X}.].+X@X9 ",
"f l c ] R R c h k n e w w u w 0 w u PXUXUXwX8 :Xs :X:X:X+Xh.h.O O *X9X0X0XoX0.y.k.k.y.p./.2X<XM.m.AXUXUXLXF.#.5.>.2.8.<.8.2.6.4.=.O.V.V.M._.].%X$X9 n ",
"7 P R R R j l f n M M M s M r u t O tXUXUXPX>Xs ;X-X-X;X+Xh.f.#Xg.g.g.I.I.XX_.y.k.a.e.p.M.4X,X3XAXUXUXUXhX .4.3.2.8.<.:.6.6.5.$.%.N.B.2X).`.#X$Xr e m ",
"Q Y R R ! h 7 n M s 9 r -XE.&X:X$X@X2 mXUXUXJX*X2 ~.Q.Q.R.g.g.U.U.k.k.k.`.}.}.u.a.a.v.C.m...6XKXUXUXUXjX .4.2.2.8.<.<.6.6.4.$.A.*.V.b.[.'.U.@Xr M i 7 ",
"Y R R ~ c z e w r +Xh.f.R.$X+X$XQ.!.!.I.BXUXUXPX9X0.g.g.U.XX'.XX'.k.k.w.a./.2X<XC.C.c.z.8XkXIXUXUXIXjX .5.6.2.<.,.8.6.6.4.=.O.S.3Xm.p.'.I.R.t M m 7 P ",
"} R ~ b f n u r E.OXg.#X!.R.g.g.W.!.oXI.g.BXUXUXUXnX*Xd.0.'.'.|.XX{.a.e.a.<X1X,Xn.l.8XcXLXUXUXUXSXhX .4.6.:.<.,.<.6.4.4.#.$.*.V.<Xu.i.'.+X-XM n 7 Q P ",
"R c c x N u 8 OX~.I.W.W.XXXX_.`.'.`.|.|.|.|.nXUXUXUXIXnX9Xi.q.r.(.^.q.q.c.n.3X6XlXSXIXUXUXUXIXzX#.3.4.3.6.<.,.<.:.3.4.+.O.A.N.C.s.i.`.Q.@Xt n l h Y R ",
"T c x m u ;X+XU.W.`.i.}._.}..X).u.u.[.[..X).r.0XKXUXUXUXUXLXDXnXkXkXkXxXnXSXKXUXUXUXUXUXIXcXJ. .4.6.6.6.:.<.<.2.6.4.$.Z.A.N.c.s.{.].Q.-Xr w k g b 1 R ",
"j l m N &XE.W.'.'.u.u.[.[.^.).(././.t.p.2X/.e.r..XkXFXUXUXUXUXUXUXUXUXUXUXUXUXUXUXUXKXlXJ. .3.6.2.6.6.:.<.<.2.6.4.=.%.A.l.M.M.}.`.U.+X-XM p g j R R 1 ",
"x C u s R.U.'.[.).t././.(.1X,Xb.n.1X,XM.2X1X/.).).(./.0XnXFXIXUXUXUXUXUXUXIXKXSXlXhX#. .+.5.3.6.2.6.<.<.<.2.6.3.4.-.A.l.b.2X.X].I.R.9 0 B h ~ T U 1 j ",
"k C y E.!.XX[././.,X,Xn.,Xm.V.b.N.3X1XM.s.2X)..X.X2Xp.q.r.,X6X9X9XjXjXjX8XG.S.=.o.#.=.5.5.3.6.:.<.<.<.<.2.6.5.#.-.A.x.c.M..XoXoX~.9 8 p z c 1 R Y Y 7 ",
"w r ;X=X X.X/.1XK.L.n.L.X.N.X.V.m.b.C./.)./.u.).[.[.s.C.C.<X1X,Xm.l...O.Z.Z.$.-.5.5.4.4.3.:.<.,.,.<.:.2.6.3.+.$.*.N.V.M.p.'.].~.&Xt N l c T R _ P g k ",
"s E.!. X^.t.M.L.L...X.P.*.%.L.n.b.<Xs.[.)./././.a.s.p.M.m.3X3X3X3X8XD.S.S.A.$.4.5.3.4.6.2.<.,.,.<.2.2.6.4.+.+.%.8X3X1Xs.i.'.#XE.9 n k g ] _ R 1 g z m "
};
