/* XPM */
static const char *Nw__[] = {
/* columns rows colors chars-per-pixel */
"75 75 236 2 ",
"   c #4D006C",
".  c #52006D",
"X  c #5A026F",
"o  c #550071",
"O  c #5B0374",
"+  c #5E0776",
"@  c #540672",
"#  c #68176F",
"$  c #620978",
"%  c #661676",
"&  c #6D1772",
"*  c #6A2475",
"=  c #782F72",
"-  c #7C4776",
";  c #833A78",
":  c #8B386A",
">  c #AF5A5C",
",  c #AB6A5C",
"<  c #8F4F72",
"1  c #A45665",
"2  c #936B74",
"3  c #B57879",
"4  c #AD7073",
"5  c #CD7B59",
"6  c #C77B67",
"7  c #BDAB5C",
"8  c #BCBB5C",
"9  c #BDB45C",
"0  c #9A9276",
"q  c #BB8A6C",
"w  c #B49C6C",
"e  c #BA9769",
"r  c #AD847D",
"t  c #AB8C7C",
"y  c #A98B78",
"u  c #B58874",
"i  c #AD9476",
"p  c #AC9B75",
"a  c #A5957E",
"s  c #AA947B",
"d  c #A59B7D",
"f  c #A99B7A",
"g  c #B29773",
"h  c #A8996B",
"j  c #9EAA7C",
"k  c #9CB77A",
"l  c #ADAC6D",
"z  c #AEA46F",
"x  c #BBA364",
"c  c #BBAB63",
"v  c #B3A46B",
"b  c #B2AB6A",
"n  c #B7A966",
"m  c #ACB46C",
"M  c #ABBC6C",
"N  c #AAB969",
"B  c #B4B365",
"V  c #B7B865",
"C  c #ABA374",
"Z  c #A5AC75",
"A  c #AAAB72",
"S  c #A4A37B",
"D  c #A3AB7B",
"F  c #A8A578",
"G  c #B3A474",
"H  c #A5B374",
"J  c #A5B676",
"K  c #B1B375",
"L  c #DA864C",
"P  c #CC895B",
"I  c #D68656",
"U  c #C59C5C",
"Y  c #C99759",
"T  c #D39650",
"R  c #E18D4C",
"E  c #C3AC5B",
"W  c #C5A759",
"Q  c #C4B558",
"!  c #D4A84F",
"~  c #C48966",
"^  c #C49963",
"/  c #C2A763",
"(  c #C0B261",
")  c #B4CC5C",
"_  c #B9C65B",
"`  c #B6D15B",
"'  c #ABC467",
"]  c #B4C563",
"[  c #A1C172",
"{  c #C3C558",
"}  c #690E83",
"|  c #6B1384",
" . c #73198C",
".. c #781D91",
"X. c #6C3589",
"o. c #7C2195",
"O. c #7F2599",
"+. c #6D3389",
"@. c #76508D",
"#. c #7E7AAD",
"$. c #7E6DB6",
"%. c #7B65BD",
"&. c #766DBE",
"*. c #7B6CBB",
"=. c #7967BA",
"-. c #6F78BB",
";. c #7D74B5",
":. c #7D7BB3",
">. c #7672BC",
",. c #7A73BA",
"<. c #7679B7",
"1. c #746BB3",
"2. c #7B659F",
"3. c #6E5ECE",
"4. c #735FC8",
"5. c #675CD5",
"6. c #6A5DD2",
"7. c #6D62CC",
"8. c #6E6AC5",
"9. c #7465C5",
"0. c #746BC3",
"q. c #7163C9",
"w. c #7667C3",
"e. c #6A60D0",
"r. c #7271C1",
"t. c #83289C",
"y. c #813E84",
"u. c #882DA1",
"i. c #8E33A7",
"p. c #9135AB",
"a. c #9539AD",
"s. c #993DB2",
"d. c #8B5387",
"f. c #9E7B8E",
"g. c #9A6D9A",
"h. c #9A6D98",
"j. c #8E7D9E",
"k. c #8B7A98",
"l. c #9D7394",
"z. c #9B7B94",
"x. c #95749C",
"c. c #9A739A",
"v. c #937B9C",
"b. c #977C97",
"n. c #906A8A",
"m. c #AB7B84",
"M. c #A4738D",
"N. c #A37C8C",
"B. c #AA7886",
"V. c #A37692",
"C. c #AB7386",
"Z. c #9E42B8",
"A. c #A346BC",
"S. c #856DAD",
"D. c #8B6CAB",
"F. c #8C6AA9",
"G. c #926DA3",
"H. c #8C75A4",
"J. c #857CA6",
"K. c #8B7CA3",
"L. c #8575AD",
"P. c #8973AA",
"I. c #847CAC",
"U. c #8A7AA9",
"Y. c #8676A6",
"T. c #9272A2",
"R. c #907CA0",
"E. c #8364B4",
"W. c #836BB3",
"Q. c #8466B5",
"!. c #8274B2",
"~. c #817AB1",
"^. c #8872B0",
"/. c #A94DC4",
"(. c #B255CC",
"). c #B95BD4",
"_. c #AD50C7",
"`. c #BF60D9",
"'. c #C264DD",
"]. c #CB6CE6",
"[. c #CE6FE9",
"{. c #C667E1",
"}. c #CF70EA",
"|. c #D172ED",
" X c #7C84AA",
".X c #7782B4",
"XX c #7286B0",
"oX c #9D848D",
"OX c #9B8C8C",
"+X c #988C8B",
"@X c #9E9486",
"#X c #9D9C85",
"$X c #95948E",
"%X c #9B938B",
"&X c #949B8D",
"*X c #9B9A8A",
"=X c #949F82",
"-X c #8D849D",
";X c #878C9E",
":X c #8C8B9C",
">X c #8B8899",
",X c #958595",
"<X c #9A8492",
"1X c #948C94",
"2X c #9A8A92",
"3X c #92839A",
"4X c #928A9A",
"5X c #9A8699",
"6X c #8D9395",
"7X c #8C929B",
"8X c #8B9896",
"9X c #939392",
"0X c #929A92",
"qX c #979594",
"wX c #8D8F8B",
"eX c #A58485",
"rX c #A48D84",
"tX c #AA8C82",
"yX c #A2838B",
"uX c #A88686",
"iX c #A39484",
"pX c #A29B82",
"aX c #A49587",
"sX c #AF8687",
"dX c #9CA483",
"fX c #98A687",
"gX c #8EA98D",
"hX c #A2A483",
"jX c #A0B480",
"kX c #8484A4",
"lX c #8A83A3",
"zX c #858BA3",
"xX c #898BA1",
"cX c #8483AB",
"vX c #8786A9",
"bX c #8A8CA4",
/* pixels */
"iX*X1X>X;XkX#.#.:.E.;.<.<. X XkX-XxX3X:X>X3X3X>X3X-XH.G.Y.cXcXI.!.;.,.%.$.&.w.9.q.q.q.7.6.5.5.6.7.7.q.0.r.,.;.cXvXlXlX:X0X&XfXdXS A e V Q Q E n v Z S ",
"N.1X>Xj.kX#.#.;.$.>.>.<.:. XkX;X;X>Xb.>X>Xb.c.3X;X-XH.K.U.L.I.~.E.$.,.%.%.0.9.4.3.3.3.6.5.5.6.7.q.q.0.>.,.W.^.cXlXx.b.9X$X*XpXD H M ' ] ` _ ] m H S dX",
"qX,X-XY.#.W.E.>.=.>.-.<.#.Y.j.;X-X:X1X,X,X,X3X:X-Xx.K.Y.I.D.L.:.;.*.>.0.0.q.q.7.3.6.5.5.5.6.7.7.9.0.>.<.W.E.D.lXR.c.,XoXB.m.t J H B ] ` _ ] N q F a m.",
",X>XG.S.:.%.=.&.&.-..X#.kX;Xj.>X,X6X9X,X,X,X4X>X3Xj.K.Y.L.L.;.;.,.>.0.0.q.7.7.e.6.5.5.6.7.7.7.q.0.,.,.;.W.D.K.xX:X:X1XB.rXiXD A m ' ) ` 9 n [ p d #X%X",
"3XK.F.#.<.%.=.8.-.XX XJ.;X;Xb.6X,X9X0X9X<X<Xb.b.:Xj.H.H.L.:.;.$.*.0.0.9.q.7.7.6.5.5.7.7.7.q.q.0.,.<.<.:.L.U.xX7X7X6XN.m.dXjXF ~ m V Q ) ^ v k k dXOX0X",
"-XY.S.<.>.4.8.&.<. XJ.kX>X>X,X1XoX&X0X0X1X,X,X4X:Xv.K.Y.P.~.!.*.&.0.9.9.q.3.6.5.6.3.q.7.q.9.0.,.!.!.~.L.D.H.xX7X7X9XB.uXdXD q e ' E 9 ' b z y dXfX$X4X",
"K.S.E.&.%.9.8.&.;. XkX>X:X1X1XoX$X%X&XOX1X9X<X,X3Xv.K.P.L.~.~.*.&.0.0.9.q.e.6.e.7.q.0.9.w.%.$.;.W.D.L.P.G.x.:X7X8XOXm.r D G q m ' _ B M [ p a fX&X6X-X",
"Y.S.E.&.&.9.&.;.L.kX>X6X8X$XOX+X%X@X*X%X%X9X<X5X4X3XT.Y.I.~.;.*.&.0.q.q.7.7.7.7.8.0.0.0.&.=.,.;.S.D.L.I.H.j.:X9X0XOXm.r D J m B 7 9 ~ m J j fXgXgX8XlX",
"#.;.,.-.0.-.<. XkX-X3X9X$X+X@X@XiXiXiXfX*XoX2X2X4Xv.K.Y.P.~.W.*.0.q.8.q.7.7.3.q.9.0.=.&.*.,.<.:.L.L.cXkXxX;X4Xz.%X*Xr f J J M P U n v G s pX@XgX8X>XK.",
"L.;.&.&.&.<. XkX>X>X,X+X%X@XpXpXiXiXiXiX@XOX+X<X,Xv.K.Y.L.~.;.*.0.q.8.q.7.3.q.9.q.&.%.*.$.$.<.:.I.I.kXzXxX7X9X<X%X*XdXD Z M M c n m H f d #X%XgX8X;XkX",
"#.;.-.>.<.#.J.;X6X1X+X@XrXiXd d d pXiXpX#X@X%X2X,X3XR.H.L.:.;.>.0.9.7.8.8.8.9.0.&.*.$.Q.Q.W.:.I.P.G.K.xX7X7X9X%X*XfXd u C m x N M J J S dX*X$X8X>XK.kX",
"#.XX-.>.W.J.-X>X9X$X@XrXtXa d S S f a a iXrX%X+X,X3Xv.H.I.I.;.%.%.9.8.8.8.w.0.>.*.*.$.W.W.S.L.cXU.T.j.;X3X,XN.m.rXdXt u C e ~ b [ k D iXrXgX0X8X:XH.Y.",
" XXX<.#.Y.j.3X2XOX@XpXa f f f S S f d d pXrXOX%X1X,Xv.K.U.L.;.$.=.0.0.w.0.&.>.*.,.:.:.!.~.L.cXvXlXlX-X3Xl.f.yXm.rXdXS Z z ~ e l J k k pX@X+X,X8X;XK. X",
"I.#.#.J.j.3X1X+XeXiXhXd S F p f S f s d pXiX*X%X1X,Xv.K.P.S.!.<.>.=.>.=.*.<..X;.2.@.X.+.| +.X.X.d.-X4Xz.z.2X*XfXfXjXk H w e l H k k fXfX&X&X1X,X;XkX X",
" X XY.-Xb.z.%X@XiXpXd S F F p i p f s a d dX*X%X9X,Xx.K.U.L.W.;.*.*.*.<.<.1.@.} o . . . . . .   . + +.n.2X&XfXfXdXd J A b m J J k k dXfX&X&X6X6X>XkXkX",
"zXkX>X,Xz.oX%XiXrXd f f p p p p p C S S S iX@X$X0X1Xv.G.H.cXI.;.Q.$..X1.+.+ . . } t.s./._./.A.a...O   O = +XgX#Xt f Z q e J H Z j j #X#XfX$X1X6X6X7XkX",
";X;X6X6X+X%X#XiXa f f i i p C C p i s d dXiXyXoX9X9X:X-XT.U.cX.X:.:.2.+ . o t./.{.|.|.|.|.|.|.|.].).u.+ . % wXpXa k H q w C p f S d iXeX&X+X$X0X,X>X;X",
">X1X9X&X+X@XiXiXd s i i p p C F p i t t #X@XyXN.2X9X:X;XlXlXcX X XX.o . ..(.}.|.[.{.{.].{.{.{.{.].}.|.(.| . % @Xf D H H v g u u d d dX#XfX&X&X0X1X,X>X",
",X2X$X%X@XrXrXpXS s t s S p p p F f t tXiX*X+XoX<X,X3X;XxXxXzXzXX.. o p.].|.{.{.].].].].].].].].].{.].}.{. .. * a i z J H A p f f r dX#XfXfX$X+XqX9X6X",
"OX+XoX@X@XiXiXa a f s f f F f f S d iXiXiX*X&X9X1Xb.c.3X;XxXbX@.o o s.|.].{.].].].].].].].].].].].].].{.}.'.| o < J J J C p Z k S j jXdXdX#X*X*X*X%X1X",
"+XOXyXiXiXiXpXpXd d s t s f S S S #X#X*X%X%X0X0X0X,Xl.g.-X7X2.+ . s.|.{.].].].].].].].].].].].].].].].].{.|./.o % j J A u u p k k k k j dXpXpXpX@X%X$X",
"eX@X@XiXiXiXpXpXpXd a a a a d hXpX#X*X*X%XOXOXqX0X9Xb.h.c.v.* . t.|.].].].].].].].].{.].].].{.].].].].].].{.[...  < G Z Z H J J f u S D D j d d dXOXeX",
"eXrX@XrXrXiXrXuXiXiXiXrXtXtXpX#X*X*X*X*X%XyXN.N.2X9X9Xb.5Xd.. $ '.[.].].].].].].{.].|.[.{.{.|.].].].].].].{.|.Z.  = w H H C A H p g C D i p D s iX@XeX",
"@X@XiXiXiXrX@XrXrX@XrXrXrXiX@X*X*X%X&X&X$XoXV.V.V.2X0X6XqX+.  p.|.{.].].].].].{.[.].A.o.} } A.[.{.].].].].{.}.(.o * A A A q q H J H H J w p S a pXrXuX",
"#X@XiXiX@X%XOXOXOX@X@X@X@X%X%X%X%X%X9X0X$XOXN.V.M.N.1X0X,XO + ).[.{.].].].].{.[.'.... . O . . _.|.{.].].].{.[.`.O # g w A ~ q m m v m b K w f d #X@X@X",
"@X@XOXOX@XOXoXOXOX+X%X%X%XqX9X1X2X<X<X1X0X9X<XM.M.M.f.&X@.. O.|.{.].].].].].].{. .  * d.B.-   i.|.{.].].].{.[.'.O # g l m e ~ v e e b ^ e w f d #X#X#X",
"iXOXOXOX+X+X2X1X2X2X2X9X9X1X1X,Xb.z.z.z.<X9X9X<XM.M.M.OX* . A.|.{.].].].].{.|.s.. * =XaXsX<   a.|.{.].].].{.[.(.o * m M M b ~ ~ e N M b e F f d pXiXrX",
"iX@XOXOX1X1X,X,X,X,X1X9X4X:X>X:Xb.c.c.l.l.<X9XqXoXN.N.n.o $ '.[.].].].].].].{.| . 2 f a D <   i.|.{.].].].{.|.p.  : V ' ' ' B ^ B B x M v w f a rXrXuX",
"@X$X2X<X,X3Xb.b.3X3X:X:X:XxXxXxXj.x.g.g.h.l.<X0X&X%XrX;   u.|.{.].].].].{.|._.o % a 3 3 G 0 o } {.|.{.].].|.).+ o , c ' ' B 7 ] ] B n e A Z f a iXiXrX",
"%X9X,Xb.3X3Xv.R.K.K.K.lXlXkXkXkXlXT.g.g.h.h.l.1X&X&X@X% o _.|.{.].].].].{.|.u.. O + # & ; 2 % . o.'.[.[.{./.%   : ^ B ' ] Y P 8 U B M w q p d a rXiX*X",
"f.,X3Xv.-XlXlXlXH.P.P.U.cXI.U.cXkXK.T.g.g.h.l.<X$XfXn.. } {.].].].].].{.[.'.$ O $ + O o   . o O . $ o.t. .o o = B ( Y W _ W E 9 Y B M z q i d pX#X*X%X",
"<X4X3XK.K.K.U.U.L.L.!.:.~.S.S.L.I.cXK.x.g.h.l.z.+XfX-   i.|.{.].].].].{.[.).A.).`.'.).(.s.o.O . O o . . . # 2 N ] U 5 T _ ) ) V c m e q u s dXrX@X%XOX",
"3X-XK.K.U.U.L.~.:.;.;.;.W.Q.E.Q.S.I.vXlXv.c.l.z.yXyX% o (.|.].].].].].].].[.|.}.[.[.[.|.|.[.).t.o o $ < 0 m _ ] ) E T Q ) ) 8 U ~ e ~ p f f pX*XOXOX5X",
"3XlXK.I.L.~.~.;.,.,.>.>.$.E.E.E.E.L.kXxX:X3Xb.f.N.d..  .].].].].].].].].].].{.].].].].{.{.{.|.|./.$ . = ] E 7 ) ) ) _ Q 8 _ P P ~ v C J f pXtXeX+X<Xb.",
"lXK.I.L.!.;.;.*.%.&.0.r.&.Q.E.E.F.H.lX7X7X1Xz.M.m.=   s.|.{.].].].].].].].].].].].].].].].].{.{.|.).$   = W 8 ) ` ` W L Y 8 / x ~ q A D d pXrX%X9X,X-X",
"lXU.I.!.$.*.&.w.9.9.q.0.>.;.Q.D.D.T.v.4X9X2XN.C.C.O O ).}.{.].].].].].].].].].{.{.].].].].].].].{.|.(.+ o 2 { Q Q ` W I W ] M e q g u d pXpX%X2X,X>XK.",
"cXL.~.*.%.0.q.9.q.q.9.0.<.:.I.P.G.G.c.z.2X+XN.m.< . ..[.].].].].].].].].{.].[.|.|.}.].{.].].].].].{.|.s.. * T L T 8 ] ( c B M e C D f dXpXaX0X9X>XlXkX",
"I.^.;.&.0.9.7.7.7.3.w.=.:.I.I.Y.G.g.h.V.N.yXyXm.*   Z.|.{.].].].].].].{.|.[.)./.A.).[.}.].].].].].].[.{.| o > R I 9 ] V x x b J J i d uXeX%XqX7XxXzXU.",
"!.!.*.0.9.7.7.7.7.4.%.W.~.P.G.G.x.g.h.M.M.B.uX4 O $ '.[.{.].].].].].].|._...+ o o O ..).}.{.].].].].{.|.p.  : T P U V ' v 6 g J S t rXeX&X2X,X:XlXcXL.",
"!.*.0.9.7.e.7.8.0.%.$.!.L.G.G.g.c.l.M.M.C.C.sX<   t.|.{.].].].].].].}.a.o   # - - #   | {.].].].].].{.|.(.o * W P I / M v q p i hXdX@XB.9X,X-XlXU.L.~.",
"*.0.q.7.6.6.7.0.,.$.W.S.I.K.x.c.z.l.M.C.B.C.3 * . A.|.{.].].].].{.|.s.. $ 1 U Q _ 7 =   a.|.{.].].].].[.'.+ # U P ~ ~ w m Z u u hXfX%XM.1X:XK.U.L.!.$.",
"0.9.7.6.5.3.q.,.,.W.Q.P.J.lX:X,Xz.M.M.B.m.3 4 o $ {.[.].].].].].[.'.$ o > R T T E Q ,   O.[.{.].].].].].{.$ X e n ~ 6 q J D d tXtX%X1X,X-XlXlXL.~.$.=.",
"9.7.6.6.3.q.*.,.;.!.P.Y.lX:X4X,XoXB.B.m.3 u ;   u.|.{.].].].].{.|.A.  = L L L L T ! ,   t.}.].].].].{.[.'.+ + m m q q p D dXdXsXuXN.,X3Xx.K.cXS.;.,.0.",
"3.6.5.6.q.0.;.;.~.L.Y.lX:X4X,Xf.yXN.m.3 r u & o _.|.{.].].].].{.[.o.  1 R L L L L ! <   a.|.{.].].].{.[.(.o = m v w F f r pXfXaX&X1X4X:XK.U.I.!.*.0.9.",
"6.6.6.7.9.*.;.~.L.H.K.:X7X1XoXN.m.uXt t g 2 o } {.].].].].].].[.).O $ 5 L L L L L I # o (.|.{.].].].{.|.s.  < e 3 u f 3 3 #XfX&X0X3Xx.K.Y.I.~.,.%.9.7.",
"5.7.q.0.&.,.;.L.Y.H.-X:X9XqXyXeXuXr t f K -   p.|.{.].].].].{.|.s.  : R L L L L R > o | {.].].].].].].[.o.. 2 ~ 3 u f r rX&XOX<X7X3XlXcXI.L.W.=.w.q.6.",
"6.q.0.&.*.W.I.U.K.-X:X9XqX%XrXuXr r i F A % o (.|.{.].].].].].]. .o > R L L I I I :   a.|.{.].].].{.[.`.+ + i u u d dXpXfX%XM.<X7XlXU.I.!.^.$.w.q.3.5.",
"q.0.&.*.W.L.cXlX-X:X1X2XaXpXpXa t i p K 0 o } {.].].].].].{.|.(.o # 5 I I I I I 5 O O ).[.{.].].].{.|.Z.  = Z f S #XiX*X&X9X,X7XlXG.D.L.Q.Q.w.q.3.5.5.",
"0.=.*.;.L.P.lXv.3X,XoXyXtXhXhXS p F C K 2   t.|.].].].].].{.|.s.  : I I I I I I 1   o.}.{.].].].].].}.o.. 2 J dX#XuXC.OX0X7X7XxXK.P.L.W.*.%.9.7.6.5.7.",
"0.*.;.~.L.K.3X3X,XOXyXtXtXS D Z H A l V <   i.|.{.].].].].{.|.i.  1 I 5 I I I P & o A.|.{.].].].{.[.).O $ y dXfXrXC.B.1X7X7XxXlXP.L.W.$.&.9.7.6.5.7.9.",
";.;.~.I.K.-X4X2X%XOXiXa S D Z A H m v / <   p.|.{.].].].].{.|.p.  1 I 5 5 5 I 1 o | {.].].].].].{.|.s.  = pXfXfXiXyX1X7X7X:XK.K.F.Q.$.%.9.7.6.5.6.q.w.",
":.!.P.K.j.3XqXaXeXuXd S D J m l m m n U 1   t.|.{.].].].].{.|.Z.  = I P P P , $ . A.|.{.].].].].].[. .. 2 hXfX%XyX<X9X7XxXH.G.U.S.$.&.q.7.e.5.6.7.0.,.",
"~.L.K.-X3X2X%XrXuXt f p C l m m B B 7 Y , .  .].].].].].].{.[.).+ o : 1 1 : +   a.}.{.].].].].{.|.(.o % #XfX%XN.M.z.:XxXlXG.P.^.W.=.0.7.7.6.6.7.9.&.;.",
"L.K.lX3X<XyXaXpXa s p w b m B B V 8 E W Y $ O ).[.{.].].].].{.|.A.o   . .   O s.}.].].].].].].].|.t.  - hX&XoXM.l.3XxXzXJ.F.L.!.%.w.9.3.6.6.7.q.0.<.;.",
"U.lX:X<XrXiXiXd p w w v b n c 7 _ 8 Q W ! =   a.|.{.].].].].].].|.(.u...o.p.).|.].].].].].].{.|.(.o + M.yX9X,Xz.3XxXzXcXL.L.:.*.w.8.7.6.6.q.9.0.*.!.I.",
"K.3X1X%XrXiXf i q w v n c W U Y E E 8 8 Q , o $ '.[.{.].].].].].{.|.|.{.[.|.}.{.].].].{.].{.[.'.| . ; B.f.1X3Xc.x.lXcXcX~.:.<.0.9.7.6.6.q.0.0.>.;.L.H.",
"b.<X%X@XiXs p v v x x c E W Y Y U c V V 8 _ =   t.|.].].].].].].].{.{.].].{.{.].].].].].{.[.{.o.. % M.z.,X4Xc.g.T.cXcX:.<.<.0.9.3.6.5.7.9.0.>.;.~.H.v.",
"<X%X@XiXs p l b x c W Q E W U U ^ V V ] ] ] h + . a.|.].{.].].].].].].].].].].].].].{.{.|.'.... $ n.qX:X7Xv.g.T.U.cX:.<.*.=.q.7.6.5.7.9.w.*.$.L.Y.lXb.",
"%X*XiXs p z b x U W 8 V / ^ e x n B N V V N V 2 o o p.[.|.{.{.].].].].].].].].].].].|.}./.| . $ n.2X>X;XxXlXK.T.P.~.<.*.%.9.7.6.5.6.q.0.>.<.~.U.lX4X1X",
"@XiXf g w x B 9 9 8 V V n e b m m b B N M m b ^ < o . o.).|.|.[.].{.{.{.{.].].|.|.[.(.O.o . % n.V.c.v.xXzXvXU.F.Q.;.>.&.9.7.6.5.6.q.0.,.,.:.L.K.3XqXqX",
"pXi p v e e 7 8 9 c c b e e v l v w v m m m A q ~ 1 $ . + u._.{.[.|.|.|.|.[.{.).s...o . + @.z.l.h.g.T.lXvXcXP.Q.$.>.0.q.7.e.5.6.q.9.*.*.W.P.K.-X1XrXrX",
"f p v x / E Q 9 V n b v w g q w g w A A C C A p u q 4 = o   o } o.t.p.p.u.o.} O . . + X.k.4Xc.g.g.g.H.cXcXI.~.*.>.0.q.7.7.5.6.7.9.%.,.;.P.K.lX5X%XuXuX",
"p l m c E Q E 7 x b z g g g g u g C Z p u u f S f y s S 2 = % X . .     . . o + & y.n.5X7X-Xv.x.T.T.I.I.~.~.<.&.w.q.7.7.6.6.7.q.w.*.;.I.U.lX4XoXrXuXt ",
"l b c ] Q Q B n v C p i i f i u i i s s u u s hXdXhXhXdXaXsX3 2 < < d.@.@.@.n.n.M.V.c.c.-XxXlXK.U.I.~.!.W.$.&.w.9.7.e.6.7.7.q.0.>.;.I.U.K.3X2XaXiXs F ",
"e Y Q Q Q c m l C Z S S j S d f t r t iXtXtXpXdXfXfXdXfXrXm.B.eXuXsXsXaXqX0X5Xl.V.h.g.x.K.kXvXcXI.:.!.Q.E.%.0.q.7.e.6.3.q.q.w.*.;.L.P.xX4X<XyXtXa p A ",
"U W Q Q / b e p F j t a dX#XpXdXiXuXiX@XrX#X*XrXrX*X@XaX%XyXN.+X+XN.M.M.b.:X4Xb.c.c.G.T.U.vXcX:.:.<.*.%.%.w.q.7.e.6.6.q.q.w.=.$.:.U.K.3X1X+XrXa S g e ",
"W Q Q c B m p i d uX3 B.@XiXrX@X%X*X*XoXB.OX$XN.B.oXN.B.+X9X9X9X9XV.M.h.c.-XxX-XT.G.G.P.I.I.:.<.<.<.&.0.w.q.3.6.5.e.q.8.0.>.$.~.cXK.c.,XOX@Xa S A e U ",
"{ Q ( B l p f a #XrXN.oX*X%XyXN.$X0X0XoXf.2X0XoXM.<Xf.M.z.,X,X7X7X<Xh.g.x.K.zXlXU.L.L.~.:.:.<.<.>.&.0.q.q.3.6.5.6.q.q.0.*.*.;.I.lXv.z.1XrX#XS C w U W ",
"Q V B M Z f r eX*XoX$X$X0X9X,X,X,X<X6X6X6X8X8X6X1X6X,Xz.<Xl.l.3X7X:Xv.x.T.lXcXvXcX~.:.:.:.<.,.>.0.w.9.9.q.6.5.6.3.9.0.%.W.Q.L.T.v.z.<X%XuXs F b B W Q ",
"E B M Z f dXrXOX9X<Xz.,X,X,X6X:Xb.c.3X3X:X:X3X:X7X7X7X:X:Xc.g.v.xXxXlXK.J.cXcXcX:.:.:.;.*.*.&.0.q.q.q.q.3.6.6.7.q.0.=.%.Q.L.G.x.5X<X%XdXd p v x V 8 Q ",
"n b C D pX#X%X1X1Xb.v.b.3X>X;X;X>X>Xj.x.:X-Xg.-X7X7X7X7X;X-Xx.R.K.kXcXcXU.I.~.:.<.<.,.$.Q.%.9.9.7.q.q.6.6.6.7.q.q.>.,.W.S.U.R.4X<XOXrXdXS w x c Q Q 9 ",
"N H f dX@X+X1X3X>Xj.-X-X;XzXkXH.J.zXkXK.lXxX>X:X7XxX-X>XxXzXkXK.G.H.cXL.S.^.~.:.<.,.,.%.%.w.9.q.q.7.6.6.6.7.q.w.&.,.W.S.H.xX7X1XoX@Xt u z n c E W 9 c ",
"z D d #X&X9X3X-X;XkXkXJ.kXY.J.P.L.cXzXj.v.xX:X7X7X:Xx.x.K.zXzXlXG.F.I.!.E.Q.!.<.,.,.,.w.w.9.3.3.6.6.6.3.7.q.w.&.<.W.D.G.K.:X0X0X*Xt y w m c Q Q E W e ",
"p d fXgX8X7X>XkX X XJ. X#.S.#.I.H.H.T.-X:X-Xb.:X3X3Xx.T.T.lXvXvXU.L.:.;.Q.Q.*.,.=.w.0.0.9.3.6.5.5.6.3.7.q.9.%.*.:.L.I.K.c.4X2X*XpXs Z v V E Q _ Y x z ",
"j dX&X6X>Xj.U. X X#.#..X:.;.#.I.K.lXv.3X>X>X>X-Xc.x.x.K.U.kXvXcXcX:.;.!.!.*.=.0.w.9.9.q.7.6.5.5.6.7.7.8.0.%.%.;.cXvXzXv.z.1XyX#Xr C w x ] _ Q 8 c m Z "
};
