/* XPM */
static const char *OA__[] = {
/* columns rows colors chars-per-pixel */
"75 75 243 2 ",
"   c #4D006C",
".  c #4D0065",
"X  c #54006E",
"o  c #5A016F",
"O  c #4F0071",
"+  c #540071",
"@  c #5B0373",
"#  c #5E0A76",
"$  c #640B7B",
"%  c #661775",
"&  c #711B70",
"*  c #7A276C",
"=  c #792773",
"-  c #702C75",
";  c #7C5679",
":  c #7C4772",
">  c #7E667E",
",  c #8A3C73",
"<  c #B96E5A",
"1  c #874874",
"2  c #934D6C",
"3  c #A6566D",
"4  c #956E77",
"5  c #BE7B6E",
"6  c #AA7A7C",
"7  c #BB7A73",
"8  c #B3757C",
"9  c #B37B7B",
"0  c #B97977",
"q  c #AD6D70",
"w  c #CD7B59",
"e  c #C57C68",
"r  c #C27C76",
"t  c #BDAB5D",
"y  c #BCBA5C",
"u  c #BCB45C",
"i  c #988B6E",
"p  c #BB896C",
"a  c #B49C6C",
"s  c #BA9768",
"d  c #AD847D",
"f  c #AC8C7C",
"g  c #AF8C77",
"h  c #B58775",
"j  c #AD9576",
"k  c #AC9B75",
"l  c #A6947E",
"z  c #AA947B",
"x  c #A59B7D",
"c  c #A99B7A",
"v  c #B19B72",
"b  c #B49373",
"n  c #9EA97D",
"m  c #9CB77A",
"M  c #ADAC6D",
"N  c #ACA56C",
"B  c #BCA364",
"V  c #BBAB63",
"C  c #B3A36B",
"Z  c #B3AC6B",
"A  c #B7A966",
"S  c #ADB46C",
"D  c #ACBC6B",
"F  c #A9B96A",
"G  c #B5B365",
"H  c #BCB364",
"J  c #B4B966",
"K  c #ABA374",
"L  c #A5AB75",
"P  c #ABAB73",
"I  c #A4A37B",
"U  c #A3AB7B",
"Y  c #A8A578",
"T  c #B1A573",
"R  c #A5B474",
"E  c #A7B575",
"W  c #CB8A5C",
"Q  c #D48859",
"!  c #C49C5C",
"~  c #CA9658",
"^  c #D69555",
"/  c #D48E4F",
"(  c #C3AC5B",
")  c #C6A659",
"_  c #C4B559",
"`  c #D5A34E",
"'  c #C78665",
"]  c #C49963",
"[  c #C68374",
"{  c #C3A662",
"}  c #C3B162",
"|  c #B7C95C",
" . c #BAD55A",
".. c #ACC368",
"X. c #B4C565",
"o. c #ABC66D",
"O. c #C4C15A",
"+. c #6C1384",
"@. c #73198C",
"#. c #771C91",
"$. c #791E91",
"%. c #6A0F83",
"&. c #752D8C",
"*. c #7B5A99",
"=. c #75578F",
"-. c #7655A2",
";. c #7E7AAD",
":. c #7E6DB6",
">. c #7B65BD",
",. c #766DBE",
"<. c #7B6CBB",
"1. c #7967BA",
"2. c #7D74B5",
"3. c #7D7BB3",
"4. c #7672BC",
"5. c #7A73BA",
"6. c #7678B7",
"7. c #7173B6",
"8. c #78659C",
"9. c #6E5ECE",
"0. c #735FC8",
"q. c #675CD5",
"w. c #6A5DD2",
"e. c #6D62CC",
"r. c #6E6AC5",
"t. c #7465C5",
"y. c #746BC3",
"u. c #7163C9",
"i. c #7667C3",
"p. c #6A60D0",
"a. c #7271C1",
"s. c #83289C",
"d. c #892DA2",
"f. c #8D32A6",
"g. c #9438AD",
"h. c #993DB2",
"j. c #9D7C8C",
"k. c #9D6E95",
"l. c #9A6D9A",
"z. c #966D9D",
"x. c #8E7D9E",
"c. c #8E779E",
"v. c #9C7394",
"b. c #9B7B93",
"n. c #95749C",
"m. c #9A739A",
"M. c #937B9C",
"N. c #977C98",
"B. c #856C8B",
"V. c #AC7584",
"C. c #AB7B84",
"Z. c #A4748D",
"A. c #A37B8B",
"S. c #A87888",
"D. c #B17782",
"F. c #A37392",
"G. c #A27A91",
"H. c #AC6E87",
"J. c #A447BD",
"K. c #856DAD",
"L. c #8B6CAB",
"P. c #8C6AA9",
"I. c #926DA3",
"U. c #8C75A4",
"Y. c #857CA6",
"T. c #8B7CA3",
"R. c #8575AD",
"E. c #8A73AA",
"W. c #847CAC",
"Q. c #8A7AA9",
"!. c #8676A6",
"~. c #9272A2",
"^. c #907CA0",
"/. c #8364B4",
"(. c #836BB3",
"). c #8467B5",
"_. c #8274B2",
"`. c #817AB1",
"'. c #8872B0",
"]. c #915399",
"[. c #A94CC4",
"{. c #B255CC",
"}. c #B557CF",
"|. c #BF60DA",
" X c #C264DD",
".X c #CB6CE6",
"XX c #CD6EE8",
"oX c #C667E1",
"OX c #CF70EA",
"+X c #D273ED",
"@X c #D575F0",
"#X c #7C84AA",
"$X c #7484B2",
"%X c #9D848D",
"&X c #9C8C8C",
"*X c #988D8D",
"=X c #9D9486",
"-X c #9D9C85",
";X c #95948E",
":X c #9B938B",
">X c #949B8D",
",X c #9B9A8A",
"<X c #8D849D",
"1X c #8C8B9C",
"2X c #898A9B",
"3X c #958595",
"4X c #9A8492",
"5X c #948C94",
"6X c #998B92",
"7X c #92839A",
"8X c #928A9A",
"9X c #998398",
"0X c #8D9395",
"qX c #8C929B",
"wX c #8B9895",
"eX c #939392",
"rX c #929992",
"tX c #969495",
"yX c #8F9E8E",
"uX c #A58485",
"iX c #AA8482",
"pX c #A48D84",
"aX c #AA8C82",
"sX c #A3838B",
"dX c #A48A8A",
"fX c #A39484",
"gX c #A29B82",
"hX c #A49487",
"jX c #A5838D",
"kX c #9CA483",
"lX c #98A687",
"zX c #9BB682",
"xX c #8BA690",
"cX c #A2A582",
"vX c #A0B480",
"bX c #8484A4",
"nX c #8A83A3",
"mX c #858BA3",
"MX c #898BA2",
"NX c #8483AB",
"BX c #8686AA",
"VX c #8A8CA3",
"CX c #9FC080",
/* pixels */
"fX,X5X<X2XbX;.;.3./.2.6.6.#X#X#X<XMX7X1X<X8X7X<X7X<XU.I.!.NXNXW._.2.5.>.<.,.i.t.u.u.u.e.w.q.q.w.e.e.u.y.4.5.2.NXBXnXnX1XrX>XlXkXI P a J ( _ ( A C L I ",
"A.5X1Xx.bX;.;.2.:.4.7.6.3.#XbXmX2X1XN.1X1XN.m.8X1Xx.U.T.Q.R.W.`./.:.5.>.>.y.t.0.0.9.9.w.q.q.w.e.u.u.y.4.5.(.R.BXnXn.N.tX;X,XgXU R F ..X.| | X.S R I kX",
"eX3X<X!.;.(.>.4.1.4.6.6.;.!.T.2X<X1X5X5X3X5X8X1X<Xn.T.!.W.L.R.3.2.<.4.y.y.u.u.e.9.w.q.q.q.w.e.e.t.y.4.6.)./.L.nX^.m.3X%XS.C.f R S J X. .| X.J p Y l C.",
"3X2XI.K.3.>.1.,.,.6.$X;.bX2Xx.<X3X0XeX3X3X3X1X1X7Xx.T.!.R.R.2.2.5.4.y.y.u.e.e.p.w.q.q.w.e.e.e.u.y.5.5.2.(.L.T.MX1X1X5XS.pXl U P S ..|  .u A o.k x ,X:X",
"7XT.P.;.6.>.1.r.7.$X#XY.2X2XN.0X3XeXrXeX4X4XN.N.1Xx.U.U.R.3.2.:.<.y.y.t.u.e.e.w.q.q.e.e.e.u.u.y.5.3.3.3.R.Q.BXVXqX0XA.C.kXvXY ' S J _ | ] C m m kX&XrX",
"<X!.K.6.4.0.r.,.7.#XY.mX2X8X5X5X%X>XyXrX5X3X5X8X1XM.T.!.E.`._.<.,.y.t.t.u.9.w.q.w.9.u.e.u.t.y.5._._.`.R.L.U.MXqXqXeXS.pXkXU p s ..t u ..Z T g kXlX;X8X",
"T.K./.<.>.t.r.,.2.#XbX2X1X5X5X%X;X:X>X&X*XeX4X3X7XM.T.E.R.`.`.<.,.y.y.t.u.p.w.p.e.u.y.t.i.>.<.2.(.L.R.E.I.n.1XqXwX&XV.d U T p S ..| G D o.k l lX>X0X<X",
"!.K./.,.,.t.,.2.R.bX2X0XwX;X&X&X:X=X,X:X:XeX4X9X8X7X~.!.W.`.2.<.,.y.u.u.e.e.e.e.r.y.y.y.,.1.5.2.K.L.R.W.U.x.1XeXrX&XV.d U E S G t u ' S R n lXxXxXwXnX",
";.2.5.7.r.7.6.#XbX<X7XeX;X&X=X=XfXfXfXlX,X%X6X6X8XM.T.!.E.`.).<.y.u.r.u.e.e.9.u.t.y.1.,.<.5.6.3.R.R.NXbXMX1X8Xj.:X,Xd c E E F W ! A C T z gX=XxXwX2XT.",
"R.2.,.,.,.6.#XbX2X8X3X*X:X=XgXgXfXfXfXfX=X&X*X4X3XM.T.!.R.`.2.<.y.u.r.u.e.0.u.t.u.,.>.<.:.:.6.3.W.W.bXmXMXqXeX%X:X,XkXU L E D V A S E c x -X:XxXwX2XbX",
";.2.6.4.7.;.Y.2X0X5X*X=XpXfXx x x gXfXgX-X=X:X6X3X7X^.U.R.3.2.4.y.t.e.r.r.u.t.y.,.<.<.).).(.3.W.E.I.T.MXqX0XeX:X,XlXx g K S B J D R R I kX,X;XwX2XT.bX",
";.$X6.4.(.Y.<X8X0X;X=XpXaXl x I I c l l fXpX:X*X3X8XM.U.W.W.2.>.>.t.r.r.y.i.y.4.<.<.:.(.(.K.W.NXQ.~.x.1X8X5XA.S.pXkXf h K s W Z o.m U l pXlXrXwX2XU.!.",
"#X$X6.;.!.c.7X*X&X=XgXl c c c I I c x x gXpX=X:X5X3XM.T.Q.R.2.<.1.y.y.i.y.,.4.<.<.2.2._.R.R.W.Q.T.nX<X7Xv.j.sXC.pXkXI L T ' s N R m m gX=X&X3X0XqXT.#X",
"W.3.;.Y.x.7X*X&XuXfXcXx I Y k c I c z x gXgX,X:X5X3XM.T.E.K._.6.4.1.4.1.<.6.6.:.2.3.3.R.P.E.NXT.x.2X<Xm.b.&X,X,XlXzXm R a s N R m m zXlX>X>X5X3X2XmX#X",
"#X#X!.<XN.b.:X=XfXgXx I Y Y k j k c z z x kX,X:XeX3Xn.U.Q.R.(.2.<.1.5.6.6.$X3._._.`.W.NXU.T.mXMXVX8XqXeX6X>XlXzXcXI E P Z S E m m m lXlX>XyX0X0X2XmXbX",
"mXbX2X5Xb.%X:XfXpXx c c k k k k k Y I I I fX=X;XrX5XM.I.U.NX;.3.(.:.7.-.-.-.-.*.*.*.*.*.*.*.*.*.B.B.B.B.].B.B.4 4 4 i 7 a D R U n n -X,XlX;X3X0X1XqXmX",
"2XqX0X0X*X:X-XfXz c c j j k K K k j z x kXfXsX%XeXeX1X<X~.Q.BX8.&.# + X X X X X X X X X X X X X X X X X X X X X X X X @ 1 T v c I x fXuX>X&X;XwX8X<X2X",
"1X5XeX>X&X=XfXfXx z j j k k K Y k j f f -X=XsXA.6XeX1X1XnXBX8.# X X $ @.#.#.#.#.#.#.#.#.#.#.#.#.#.#.#.#.#.#.#.#.#.$.@.@ + 4 b h x x kX-XlX>X>XrX5X3X1X",
"3X*X;X:X=XpXpXgXI z f z I k k k Y c f aXfX,X*X%X4X3X8X1XVXbX% X %.J. X.X.X.X.X.X.X.X.X.X.X.X.X.X.X.X.X.X.X.X.X.X.X.X+Xf.  : T z c d kX-XlXlX:X*XeXeX0X",
"%X&X%X=X=XfXfXl l c z c c Y c c I x fXfXfX,X>XeX5XN.m.M.qX=.X $ |.+XXX.X.X.X.X.X.X.X.X.X.X.X.X.X.X.X.X.X.X.X.X.X.X.X+Xd.  1 E m I n zXkXkX,X,X,X,X;X*X",
"*X&XsXfXfXfXgXgXx x z f z c I I I -X-X,X:X:XrXrXrX3Xk.l.8X&.X h.+X.X.X.X.X.X.X.X.X.X.X.X.X.X.X.X.X.X.X.X.X.X.X.X.X+X{.@ + 6 K m m m m n kXgXgXgX=X:X;X",
"uX=X=XfXfXfXgXgXgXx z z z l x cXgX-X,X,X:X&X&XtXrXeXN.k.m.% + {.OX.X.X.X.X.X.X.X.X.X.X.X.X.X.X.X.X.X.X.X.X.X.X.XXX.X@.X ; E R R c g I U U n x x kX=XuX",
"uXpX=XpXpXfXpXuXfXfXfXpXaXaXgX-X,X,X,X,X:XsXA.G.6XrXeX3XN.- + {.+X.X.X.X.X.X.X.X.X.X.X.X.X.X.X.X.X.X.X.X.X.X.X.X+Xg.X % L T P R k b K U j k U z fX=XuX",
"=X=XfXfXfXpX=XpXpX=XpXpXpXfX=X,X,X:X>X>X;X%XG.F.G.6XrX0XtX&.X g.@X.X.X.X.X.X.X.X.X.X.X.X.X.X.X.X.X.X.X.X.X.X.X+X{.+ + i S p p R R R R E v k Y l gXpXuX",
"-X=XfXhX=X:X&X&X&X=X=X=X=X:X:X:X:X:XeXrX;X&XG.F.F.A.5XrXtXB.+ $ [.+X+X+X+X+X+X+X+X+X+X+X+X.X.X.X.X.X.X.XXXXXXX.X@.  1 Z P [ p S S C S Z S v c x -X=X=X",
"=X=X&X&X=X&X%X&X&X*X:X:X:XeXeX5X6X4X4X5XrXeX4XF.Z.Z.j.rX*XjX&.X # d.h.h.h.h.h.h.h.h.h.h.h..XXX.X.X.X.X.XXX.X+Xg.X % a M S s ' C s s Z ] s v c x -X-X-X",
"fX&X&X&X*X*X6X5X6X6X6XeXeX5X5X5XN.b.b.b.3XeXeX4XZ.Z.Z.&X&XZ.H.- + X               X X . d.OX.X.X.X.X.X.X.X+X}.+ + i ..F D Z ' ' s J J Z s Y c x gXfXpX",
"hX=X&X&X5X5X3X3X3X3X5XtX8X1X1X1XN.m.m.v.v.4XeXrX%XS.S.S.S.S.H.D.j.> ; ; ; ; ; 1 1 % + +..XXX.X.X.X.X.X.X.X.X@.  , ] Z ......G ] J G B D C k c l pXpXiX",
"=X;X6X4X3X8XN.N.7X7X1X1X1XMXMXMXx.n.l.l.k.v.4XrX>X:XsXV.V.V.V.8 f zXzXzXm CXU b 6 # + [.+X.X.X.X.X.X.X.X+Xg.  % e ' A ....G t X.X.G A a P L c l fXfXpX",
":XeX3XN.8X7XM.^.T.T.T.nXnXbXbXbXnX~.z.l.k.k.v.5X>X>X=XC.D.D.8 8 9 x n I n m I 0 &   d.+X.X.X.X.X.X.X.X+X}.# + 4 ] ] G ..X.~ / y ! G D a b k x l pXfX,X",
"j.3X3XM.<XnXnXT.U.E.E.Q.NXW.Q.NXbXT.~.z.l.k.v.4X;XlX,XuX8 8 8 0 7 b P v b T o.1 X %. XXX.X.X.X.X.X.X.XXX#.X ; X.J V ~ ) | ( ( u ~ G D N p j x gX-X,X:X",
"4X8X7XT.T.T.Q.Q.R.R._.3.`.K.K.R.W.NXT.n.l.k.k.b.*X,X,XgX6 0 0 3 3 2 1 1 , 1 1 # X [.+X.X.X.X.X.X.X.X+Xh.X % F X.X.! w / | | | J B S s b h z kXpX=X:X&X",
"8X<XT.T.Q.Q.R.`.3.2.2.2.:.)./.P.K.W.BXnXM.n.v.b.%XdXpX=Xz q = # X             . s.+X.X.X.X.X.X.X.XOX{.X X + - S | ( ~ _  .| y ! ' s ' k c c gX,X&X*X9X",
"7XnXT.W.R.`.`.2.5.5.4.4.<./././.P.R.bXMX1X8XN.A.Z.S.C.f 6 % + + #.f.f.f.f.f.f.f. XXX.X.X.X.X.X.X.XXXJ.d.d.$ O - | | | _ y | W W ' C K R c gXaXuX*X4XN.",
"nXT.W.R._.2.2.<.>.,.y.a.,.>././.P.U.nXVX0X5Xb.Z.V.D.D.9 = + $ [.XX+X+X+X+X+X+X+XXX.X.X.X.X.X.X.X.X.XOX+X+X|.%.+ i  .) Q ~ y { { ' p P U x gXpX:XeX3X<X",
"nXQ.W._.<.<.,.i.t.t.u.y.4.2.(.L.L.~.M.8XtX6XA.S.D.D.0 8 # + [.@X.X.X.X.X.X.X.X.X.X.X.X.X.X.X.X.X.X.X.X.X.X@XJ.  :  .) Q ) X.J s p v g x gXgX:X6X3X<XT.",
"NXR.`.<.>.y.u.t.u.u.t.y.3.3.W.E.I.I.m.b.6X*XsXV.D.8 r 3 X #.XX.X.X.X.X.X.X.X.X.X.X.X.X.X.X.X.X.X.X.X.X.X.XOX{.+ * y X.H B J F s K U c kXgXhXrXeX1XnXbX",
"W.'.2.,.y.t.e.e.e.0.i.1.3.W.W.!.I.z.k.F.A.sXuXV.8 8 r 3 X s.XX.X.X.X.X.X.X.X.X.X.X.X.X.X.X.X.X.X.X.X.X.X.X+XJ.O * _ X.J B B Z E R j x uXuX:XtX0XMXmXQ.",
"_._.<.y.t.e.e.e.e.0.>.(.`.E.I.I.n.l.k.F.Z.C.C.V.8 8 r 3 X %.XXXX.X.X.X.X.X.X.X.X.X.X.X.X.X.X.X.X.X.X.X.X+XXX$.  2 ) H ..C e b R I f pXuX>X6X3X1XnXNXR.",
"_.<.y.t.e.p.e.r.y.>.<._.R.I.I.z.m.v.F.Z.S.V.V.9 8 0 5 e & + f..XXXXXXX.X.X.X.X.X.X.X.X.X.XXX.X.X.X.X.X.X}.$.+ # < Q B D C p k j cXkX=XS.eX3X<XnXQ.R.`.",
"<.y.u.e.w.w.e.y.5.<.).K.R.T.n.m.b.v.Z.Z.V.D.8 9 0 7 e e 3 + X %.$.$.#.[.+X.X.X.X.X.X.X.X+XJ.@.#.#.#.#.%.@ X @ 3 W ' ] C S L g h cXlX:XZ.5X1XT.Q.R._.:.",
"y.t.e.w.q.9.u.5.6.(./.E.Y.nX1X3Xb.Z.Z.V.V.9 9 0 5 5 e e ' 3 & o X   +.oXXX.X.X.X.X.X.XXX|.$ X X X X X o % - q { A ' e p R U c aXaX:X5X3X<XnXnXR.`.:.1.",
"t.e.w.w.9.u.<.5.2._.E.Q.nX2X8X3X4XS.V.V.9 9 0 7 e e e e e Q Q 2 @ @ }.+X.X.X.X.X.X.X.XOXs.  * < q i i N D X.H S S p p k U kXkXiXdXA.3X7Xn.T.NXK.2.5.y.",
"9.w.q.w.u.y.2.2.`.R.Q.nX1X8X3Xj.sXC.C.9 h h h 5 e e ' e w Q w &   g.+X.X.X.X.X.X.X.X+XJ.X $ w ^ ( | | X.X...D S C v Y c d gXkXhX>X5X8X2XT.Q.W._.<.y.t.",
"w.w.w.e.t.<.2.`.R.E.T.1X0X5X%XA.C.iXf f g b h p ' ' ' w w Q , O @..XXX.X.X.X.X.X.XXX X$ + 3 ^ W t J ..X...D M p 5 h c 9 8 -XlX>XrX8XM.T.!.W.`.5.>.t.e.",
"q.e.u.y.,.5.2.R.E.U.<X1XeXtXsXuXiXd f c Y K v p ' ' ' Q Q < + + {.+X.X.X.X.X.X.X.XOXs.  * ^ ~ ] G ......o.D a 5 5 h c d pX>X&X4X0X7XnXNXW.R.(.1.i.u.w.",
"w.u.y.,.<.(.W.Q.T.<X1XeXeX:XpXiXd d j Y P S C s ' ' Q Q Q &   f.+X.X.X.X.X.X.X.X+XJ.X # s } { H D D S M S R k h h x kXgXlX:XZ.4XqXnXQ.W._.'.<.i.u.9.q.",
"u.y.,.<.(.R.NXnX<X1X5X6XhXgXgXfXg j v P S S C s W W Q ^ 2 O +.oXXX.X.X.X.X.X.XXX X$ + 2 } J J D S C p p b Y U c I -XfX,X>XeX3XqXnXI.L.R.(.).i.u.9.q.q.",
"y.1.<.2.R.E.nXM.7X3X%XdXaXcXcXI k Y P M Z Z A ] W W ^ < + + [.+X.X.X.X.X.X.X.X+Xs.  * W s J D S C p e 5 7 j n kX-XiXV.&XrXqXqXMXT.E.R.(.<.>.t.e.w.q.e.",
"y.<.2.`.R.T.7X7X3X&XsXaXfXI U L R P M C B s B ! ~ Q Q *   d.+X.X.X.X.X.X.X.X+XJ.X # < ' s S S P a p 5 7 7 z kXlXpXD.Z.5XqXqXMXnXE.R.(.<.,.t.e.w.q.e.t.",
"2.2.`.W.T.<X8X6X:X&XfXl I U L P R S Z s ~ ~ ~ ! ~ ^ 2 O %. XXX.X.X.X.X.X.XXX X$ + 2 ' ' s a a v b h 7 7 h x lXlXhXsX6XqXqX2XT.T.P.(.<.>.t.e.w.q.w.u.i.",
"3._.E.T.x.3XtX:XuXuXx I U E S M S S V ! ~ ~ / ~ ` < # X [.+X.X.X.X.X.X.X.X+Xs.  = e e ' p p p h h h h h fXkXlX:XsX4XeXqXMXU.I.Q.K.:.,.u.e.p.q.w.e.y.5.",
"`.R.T.<X7X6X:XhXd f c k K M S S G G ) ~ ~ / / / ` *   s.+X.X.X.X.X.X.X.X+X[.X # q ' e 5 5 7 7 7 7 9 f gXkXlX:XA.Z.b.1XMXnXI.E.'.).1.y.e.e.w.w.e.t.,.2.",
"R.T.nX7X4XdXhXgXz j k v C S G G J y ( ~ ^ ^ / ` 3 O $  XXX.X.X.X.X.X.XXX X%.+ 2 ' 5 5 7 7 7 0 0 8 8 iXfXhX>X4XF.v.7XMXmXY.P.R._.>.i.t.9.w.w.e.u.y.6.2.",
"Q.nX1X4XdXfXfXx k v a C Z A V t | y _ ( ) ~ ` ~ & X J.+X.X.X.X.X.X.X.X+Xs.  = e 5 7 7 7 7 0 8 8 8 D.C.C.sXeX3Xb.7XMXmXNXR.R.3.<.i.r.e.w.w.u.t.y.<._.W.",
"T.7X5X:XpXfXc j b a C A V ) ! ! ( _ y y _ ) _ q X @.XX.X.X.X.X.X.X.X+X[.X # q r 7 7 7 0 0 9 8 8 V.C.V.Z.A.5X8Xm.n.nXNXNX`.3.6.y.t.e.w.w.u.y.y.4.2.R.U.",
"N.4X:X=XfXz k T C B B V ( ) ! ~ ! H J J y y | 1   h.+X.X.X.X.X.X.XXX X%.X 2 [ 7 0 9 d d 9 D.V.V.V.S.A.b.3X8Xm.z.~.NXNX3.6.6.y.t.9.w.q.e.t.y.4.2.`.!.M.",
"4X:X=XfXz k P Z B B ) _ ( ) ! ! ] H J X.X.J X.:   J.+X.X.X.X.X.X.X+Xd.  = 7 0 8 9 9 aXaXiXC.V.V.Z.b.5X8XqXM.z.~.Q.NX3.6.<.1.u.e.w.q.e.t.i.<.:.R.W.nXN.",
":X,XfXz k N Z B ! ) y H { ] s B A G J J J J J 2   f.@X.X.X.X.X.X@X[.X # q 0 8 8 6 C.pX,X&XA.A.Z.b.3X1X1XMXnXT.~.E.`.6.<.>.t.e.w.q.w.u.y.4.6.`.Q.nX8X5X",
"=XfXc v a B G u u y J H A s Z S S Z G S D S Z q + # {.+XOXXX+X+X[.$ + 1 h 6 6 V.C.uX=X>XeX6X4Xv.v.m.M.MXmXBXQ.P.(.2.4.1.t.e.w.q.w.u.y.5.5.3.R.T.7XeXtX",
"gXj k C s s t y u H V Z s a C M C a C S S S P s = O # g.}.|.[.d.@ X - fXiXC.C.C.sX%X:XrXeX3Xb.k.k.l.~.nXBXNXE.K.:.4.a.u.e.p.q.w.u.t.>.<.(.E.T.<X5XdXdX",
"c k C B ) ( _ u G A Z C a a b a a a P P K K P v 7 = + X @ @ +   # , uX-X=X&XsXA.A.A.4X5X0X8Xm.l.z.z.U.NXNXW._.<.4.y.u.e.e.q.w.e.t.>.5.2.E.T.nX9X:XdXd ",
"k M S H ( _ ( t B Z T b b b b h b k L k h h c I c g 4 : & % % , q C.uX,X>X;X%XZ.Z.F.v.7X1X1XM.n.~.~.W.W.`.`.6.,.i.u.e.e.w.w.e.u.i.<.2.W.Q.nX8X%XdXiXf ",
"M Z H X._ _ H A C T k j j c j h j j z z h h z cXkXcXcXvXfX6 V.iXV.V.dX:XrXeX4Xv.F.F.m.n.<XMXnXT.Q.W.`._.(.:.,.i.0.e.p.w.e.e.u.y.4.2.W.Q.T.8X6XhXfXj Y ",
"s ~ _ _ _ V G M K L I I n I x c f d f fXaXaXgXkXlXlXkXkXfXD.C.C.A.sXsX%X5XeX3Xv.F.m.l.n.T.bXBXNXW.3._.)./.>.y.u.e.p.w.9.u.u.i.<.2.R.E.MX8X4XsXaXl k M ",
"! ) _ _ { Z a k Y n f l kX-XgXkXfXiXfX=XpX-X,XpXpX,X=XhX:XsXA.*X*XA.Z.F.N.1X8XN.m.m.I.~.Q.BXNX3.3.6.<.>.>.i.u.e.p.w.w.u.u.i.1.:.3.Q.T.7X5X*XpXl I a s ",
") _ _ H G S k j x uX8 V.=XfXpX=X:X>X>X%XC.&X:XA.S.%XA.S.*XeXeXeXeXG.F.k.m.7XMX7X~.I.I.E.W.W.3.3.6.6.,.y.i.u.9.w.q.p.u.r.y.4.:.`.NXT.n.3X&X=Xl I P s ! ",
"O._ } J M K c l -XpXA.%X>X:XsXA.;XyXrX%Xj.&XrX%XZ.4Xj.Z.b.3X3X0X0X4Xk.l.n.T.BXnXQ.R.R.`.3.3.6.6.4.,.y.u.u.9.w.q.w.u.u.y.<.<.2.W.nXM.b.5XpX-XI K a ! ) ",
"_ H G F L c d uX,X%X;X;XrXeX3X3X3X4X0X0X0XwXwX0X5X0X3Xb.3Xm.v.8XqX1XM.n.~.nXNXBXNXW.3.3.3.6.5.4.y.i.t.t.u.w.q.w.9.t.y.>.).(.R.~.N.b.4X:XiXz Y Z G ) _ ",
"( G F L c kXpX&XeX4Xb.5X3X3X0X1XN.m.7X7X1X1X7X1XqXqXqX1X1Xn.l.M.MXMXnXT.Y.NXNXNX3.3.3.2.<.<.,.y.u.u.u.u.9.w.w.e.u.y.1.>.(.R.I.M.9X4X:XkXx k C B J y _ ",
"A Z P U gX-X:X5X5XN.M.M.7X2X2X2X2X2Xx.n.2X<Xl.<XqXqXqXqXqX<Xn.^.T.bXNXNXQ.W.`.3.6.6.5.<.).>.t.t.e.u.u.w.w.w.e.u.u.4.5.(.K.Q.^.8X4X&XpXkXI a B V _ _ u ",
"F R c kX=X*X5X7X2Xx.<X<X2XmXbXU.Y.mXbXT.nXmX2X2XqXMX<X2XMXmXmXT.I.U.NXR.K.'.`.3.6.5.5.>.>.i.t.u.u.e.w.w.w.e.u.i.,.5.(.K.U.MXqX5X%X=Xf h T A V ( ) u V ",
"T U x -X>XeX7X<X2XbXbXY.bX!.Y.E.R.NXmXx.M.2X2XqXqX1Xn.n.T.mXmXnXI.P.W._./.(._.5.5.5.5.i.i.t.0.9.w.w.w.9.e.u.i.,.6.(.L.I.T.1XrXrX,Xf g v S H _ _ ( ) s ",
"k x lXxXwXqX2XmX#X#XY.#X;.K.;.W.U.U.~.<X1X<XN.1X7X7XM.~.~.nXBXBXQ.R.3.2.(.).<.5.1.y.y.y.t.0.w.q.q.w.9.e.u.t.>.<.3.R.W.T.n.8X6X,XgXz L Z J ( _ | ! B N ",
"n kX>X0X2Xx.Q.#X#X;.;.$X3.2.;.W.T.nXM.7X<X<X<X<Xm.M.n.T.Q.bXBXNXNX3.2._._.<.1.y.i.t.t.u.e.w.q.q.w.e.e.r.y.>.>.2.NXBXmXM.b.5XsX-Xd K a B X.| _ y V S L "
};
