/* XPM */
static char *_a6805826400464afab92ebb82cb612e8T6GH4czoJ41txl0[] = {
/* columns rows colors chars-per-pixel */
"75 75 256 2 ",
"   c #BB776B",
".  c #AB6E77",
"X  c #B26D73",
"o  c #A87679",
"O  c #B77977",
"+  c #D47C48",
"@  c #CB7451",
"#  c #C8765A",
"$  c #CC7E5D",
"%  c #D27E59",
"&  c #C67467",
"*  c #C57D65",
"=  c #CA7C63",
"-  c #C37C6B",
";  c #C87B6B",
":  c #BA9358",
">  c #B5AC55",
",  c #BCAA5B",
"<  c #BAB85A",
"1  c #9D9375",
"2  c #9C977A",
"3  c #AB8A6C",
"4  c #BA886A",
"5  c #A99A6B",
"6  c #B8986A",
"7  c #AB8779",
"8  c #AB8D7C",
"9  c #B68676",
"0  c #A49575",
"q  c #AD9676",
"w  c #AC9C75",
"e  c #A5957E",
"r  c #AB947B",
"t  c #A59B7D",
"y  c #A99B7A",
"u  c #B49472",
"i  c #B29A71",
"p  c #9CAD6C",
"a  c #9AA87A",
"s  c #9CB67B",
"d  c #ABA96C",
"f  c #BBA364",
"g  c #B7A967",
"h  c #BBAB64",
"j  c #B4A36B",
"k  c #B3AC6B",
"l  c #ACB46C",
"z  c #A7B968",
"x  c #ACBB6B",
"c  c #B6B767",
"v  c #BBB363",
"b  c #B3BC64",
"n  c #A6A776",
"m  c #ABA374",
"M  c #ABAB72",
"N  c #A4A37B",
"B  c #A3AC7B",
"V  c #B4A776",
"C  c #A4B474",
"Z  c #A7B675",
"A  c #B7B476",
"S  c #D9854C",
"D  c #CE914C",
"F  c #CD825C",
"G  c #CB8A59",
"H  c #D38355",
"J  c #D78756",
"K  c #D2835A",
"L  c #C8985A",
"P  c #D19653",
"I  c #C5A54B",
"U  c #C5A758",
"Y  c #C3AA5B",
"T  c #C4B559",
"R  c #C58666",
"E  c #CB8363",
"W  c #C49663",
"Q  c #D5926C",
"!  c #E29B6E",
"~  c #C1A764",
"^  c #CCAE70",
"/  c #E2A379",
"(  c #B6C85B",
")  c #B1CA5D",
"_  c #9DC075",
"`  c #ADC766",
"'  c #ACC36B",
"]  c #B4C664",
"[  c #ADC570",
"{  c #C1C158",
"}  c #C4C774",
"|  c #705CBD",
" . c #7A76AB",
".. c #7D7BAC",
"X. c #7D6CB5",
"o. c #7465B9",
"O. c #7B65BD",
"+. c #7269B8",
"@. c #756CBD",
"#. c #7B6CBB",
"$. c #7D74B4",
"%. c #7578B6",
"&. c #7D7AB3",
"*. c #7672BC",
"=. c #7A73BB",
"-. c #665BC7",
";. c #6D5ECE",
":. c #735EC6",
">. c #675BD4",
",. c #6A5DD2",
"<. c #6D66C3",
"1. c #6E63CC",
"2. c #7464C4",
"3. c #746BC3",
"4. c #7768C4",
"5. c #7164C9",
"6. c #7A73C6",
"7. c #6C61D0",
"8. c #796DD5",
"9. c #9A7A87",
"0. c #926A94",
"q. c #9A6D96",
"w. c #9A6D9B",
"e. c #8B7A9C",
"r. c #9C7495",
"t. c #967997",
"y. c #9C7B93",
"u. c #94749D",
"i. c #9A739A",
"p. c #937C9C",
"a. c #A76C86",
"s. c #A97788",
"d. c #A47D8B",
"f. c #B27783",
"g. c #A36E92",
"h. c #A37692",
"j. c #805FB0",
"k. c #896BA7",
"l. c #866DAD",
"z. c #8B6CAB",
"x. c #926DA3",
"c. c #8C75A5",
"v. c #847DA5",
"b. c #8B7CA4",
"n. c #8574AD",
"m. c #8A74AA",
"M. c #847CAB",
"N. c #8979A8",
"B. c #9373A2",
"V. c #937AA2",
"C. c #8365B5",
"Z. c #826CB3",
"A. c #8274B2",
"S. c #827AB1",
"D. c #8978BA",
"F. c #8478C4",
"G. c #8675C8",
"H. c #7D819E",
"J. c #7C84A9",
"K. c #7484B2",
"L. c #8A878E",
"P. c #99878B",
"I. c #9B8C8C",
"U. c #8D968B",
"Y. c #949683",
"T. c #9D9486",
"R. c #9D9C85",
"E. c #95948D",
"W. c #9B938B",
"Q. c #949B8C",
"!. c #9B9A8A",
"~. c #8D849D",
"^. c #888999",
"/. c #8C8B9C",
"(. c #958595",
"). c #9A8492",
"_. c #948C94",
"`. c #9A8B92",
"'. c #93839A",
"]. c #9A8299",
"[. c #928A99",
"{. c #8C9395",
"}. c #8B9997",
"|. c #8C929C",
" X c #939392",
".X c #979595",
"XX c #939A93",
"oX c #A58585",
"OX c #AB8782",
"+X c #A48D84",
"@X c #A2848B",
"#X c #A28B89",
"$X c #A39384",
"%X c #A59487",
"&X c #A29B83",
"*X c #B08D90",
"=X c #9CA383",
"-X c #98A787",
";X c #92A88F",
":X c #A4A584",
">X c #AFAF90",
",X c #8484A4",
"<X c #8B83A2",
"1X c #848BA3",
"2X c #8A8BA2",
"3X c #8483AA",
"4X c #8A88AA",
"5X c #978AA6",
"6X c #8D92AC",
"7X c #9595A7",
"8X c #8886B6",
"9X c #B094AB",
"0X c #9EA3B2",
"qX c #AEAAB2",
"wX c #B7B6B8",
"eX c #C7948D",
"rX c #C8A599",
"tX c #D1B393",
"yX c #E6B390",
"uX c #DAAEAC",
"iX c #CCB1AD",
"pX c #D7B7B9",
"aX c #B5C496",
"sX c #CDCD90",
"dX c #D2CEB0",
"fX c #E8CCB2",
"gX c #DCE4BC",
"hX c #E0E9B9",
"jX c #9489C9",
"kX c #B4ADD1",
"lX c #B3A6D8",
"zX c #C9BACA",
"xX c #C5BFEA",
"cX c #BDC4C9",
"vX c #D9C8CA",
"bX c #D7D7C8",
"nX c #CECAD1",
"mX c #D6D5D8",
"MX c #EDD4CB",
"NX c #E7D8D7",
"BX c #DBE2D1",
"VX c #EDEAD3",
"CX c #E7E7D9",
"ZX c #D1CEE9",
"AX c #D8D6E8",
"SX c #E6DCE7",
"DX c #E9E7EA",
"FX c #F5EAE7",
"GX c #EEF1E6",
"HX c #F6F3EB",
"JX c #EAE8F3",
"KX c #F1EEF5",
"LX c #F4F3F4",
"PX c #F8F6F7",
"IX c #FAF9F5",
"UX c #FFFEFE",
/* pixels */
"%X!..X7X6X6X8X8X8XD.D.8X8X6X6X6X5X7X5X7X7X5X5X5X5X5X5XV.5X6X6X8XD.8XD.D.F.F.G.G.6.8.8.8.8.8.8.8.8.8.6.6.F.F.8X8X6X7X7X7X7X;X>X>X>XA ^ } ^ { ^ A A C >X",
"d._.^.e.v... .%.X.+.*.%.&.J.J.^.^.~.t./.[.t.q.~./.e.e.c.N.N.M.$.C.#.*.o.O.2.2.:.;.-.-.>.>.>.>.;.;.<.3.@.#.X.n.3X<Xu.t.{. X!.$Xa C l ] ] ( ( < l C N a ",
".X(.~.N.M.Z.C.*.o.*.%.&...N.b./.~./.[.[.(.(.'./.~.p.b.N.N.z.n.&.=.#.3.3.3.3.5.1.1.,.>.>.,.,.1.1.2.3.*.=.Z.C.z.<XV.i.(.).d.OX8 C C x ] ( ( ] l 4 n e s.",
"_./.x.m.&.O.o.@.@.%.K...J.1Xe.~.(.{. X_.(.(.[./.'.p.b.N.N.n.$.$.=.*.3.3.3.1.1.1.,.>.>.,.1.1.5.3.3.*.*.$.Z.z.b.2X/.[._.s.oXe n M l ' ) ) < h x w t R.E.",
"'.b.k. .%.O.O.3.*.K.J.v.1X^.t.{.(. X X X).(.t.t./.e.c.N.n.&.$.X.#.3.3.2.5.1.;.,.>.>.,.1.1.1.3.3.=.=.&.&.n.N.2X|.|. Xd.s.=X:Xn R k b T ) W j _ s =XI.XX",
"<XN.l.%.*.:.2.3.%...v.,X/.~.(._.).Q.XXXX_.(.[.[./.p.b.N.m.A.A.#.@.3.2.2.5.;.,.>.,.7.5.5.2.:.2.@.X.A.S.n.m.c.2X|.}. Xs.oX=XB 4 6 ` Y Y ` j m q =X-X_.[.",
"v.l.C.#.O.2.<.@.$.J.,X^./._._.P.E.W.Q.P.E._.)._.'.u.b.m.n.S.A.X.@.3.3.2.5.7.7.,.-.-.-.2.2.G.F.D.D.l.n.k.k.0.^.|.XXP.s.7 B V 4 l ` ( c z _ w e -XQ.{.~.",
"N.l.C.@.@.2.@.$.M.,X/.{.}.E.P.I.W.T.!.W.E. X).).(.'.c.N.M.S.A.#.@.3.3.5.5.;.-.1.jXlXZXAXJXKXPXPXLXJXDXZXzX9X/.L.U.I.f.7 B C l c , < R l C a -X;X;X}./.",
"..$.*.*.3.*.%.J.,X/.'. XE.I.T.T.$X$X%X=X!.).`.`.[.p.b.N.m.A.Z.#.3.3.3.<.-.8.lXJXUXUXUXUXUXUXUXUXUXUXUXUXUXUXJXnX.XY.7 &XC C x G L g j m q &XW.;X}./.v.",
"n.$.@.@.@.%.K.,X/.^.(.E.W.T.$X$X$X$X$X$XT.I.I.).(.p.b.N.n.S.$.@.3.3.-.G.xXPXUXUXUXUXUXKXJXAXAXAXAXDXKXUXUXUXUXUXIXbX:Xa C _ x h h l C y t &XW.;X}.^.v.",
"..$.%.*.%...v.^.{. XE.T.+X$Xe t e e &X&XR.T.E.`.(.'.V.c.n.S.$.=.@.2.lXPXUXUXUXLXZXlXjXZ.O.X. . .n.k.<X7XwXmXLXUXUXUXLXrX5 l f b x C B N =X!.E.}./.<X,X",
"..K.K.*.Z.v.~.[.{.E.T.+XOXe e N N t e e $X$XW.`._.'.p.c.N.&.A.o.G.AXUXUXUXJXlXF.o.o.X.X.Z.l.M.3XN.B.e.^.e.L.@XpXLXUXUXUXdX4 E k _ s B $X$X;X X}.^.c.N.",
"J.K.%. .N.e.p._.I.T.$Xe y y y n N y t e &XoXT.E._.'.p.b.M.A.X.F.JXUXUXPXlX6.+.#.=.$.&.A.n.n.N.N.b.<X~.'.r.d.d.o %XbXUXUXUXfX: d C s s $X#XI.(.}./.b.,X",
"..&. .v.e.'._.I.oX$X&Xy N y y N N y y t &X$X!.W._.(.p.b.c.l.D.KXUXUXJXG.o.%.&.$.$.&.&.n.z.m.3Xb.b./.~.r.y.`.!.=X=Xa dXUXUXUXdXd s s -X=XQ.Q._.(.|.1XJ.",
"J.J.N.~.'.y.E.T.$X&Xt N N n w q w y r r &X=X!.W. X(.u.V.N.N.DXUXUXAX=.*.&.%.$.Z.Z.M.n.M.m.N.1X2X<X[.|._._.Q.;X-X=XN p sXUXUXUXaXs s -X-XQ.Q.{.{.^.,X,X",
"J.,X/.[.).@XW.$X$Xe y y q w w q q N N N :X$XT.E. X_.p.B.k.nXUXUXSX=.%.A.A.&.A...M.M.M.v.e.e.<X~.^.t.(. Xh.I.;XR.7 y B 4 pXUXUXCXp a R.=X;XE._.}./.|.,X",
"^.|.{.{.P.W.R.$X8 y y q q w m m w q y t =X$X@XI. X X/.e.9XUXUXPX8X$.&.n.l.l.l.v.M.v.v.0XzXSXDXDXAXzX.XU.E.W.-Xe y s C 4 6 CXUXUX>X1 $XoXQ.P.E.}.[.^.^.",
"[._. XQ.I.T.$X$Xt r q q q w m n m q 8 8 R.T.@Xd.`. X/.^.mXUXUXkX .J.J.k.m.m.k.m.v.4XmXUXUXUXUXUXUXUXLXpXY.;X-X&Xe a C C 5 rXUXUXmX1 -XY.-XQ.Q.XX_.(./.",
"(.`.E.W.T.+X+X&XN r 8 r m q q w m y 8 OX$X!.I.).).(.^.7XUXUXJXJ.v.z.3X,Xb.1X<Xv.6XJXUXUXUXLXDXJXPXUXUXUXbX-X-X:Xr q i C C n GXUXPX*Xa R.=X-XW.I..X_.{.",
"P.I.P.T.T.+X$Xe e y r y y y y y N N $X+X%X!.Q. X_.y.0.zXUXUXkXJ.1Xx.x.1X<X<X|./.DXUXUXLXwXh.y. X.XnXUXUXUXiX2 -XB n C C M 5 dXUXUXaXa =X=X=X!.!.!.E.E.",
"I.I.@X$X$X$X&X&Xt t r 8 r y N N N &XR.!.W.W.XXXX X).0.SXUXPX7X1X1X2Xx.<X^.w.e.cXUXUXDX.XL.r.g. XQ.U.wXUXUXSXe s s C C M u 3 iXUXUXdXa -X-X&X&XR.$XW.E.",
"oXI.T.$X$X$X$X&X&Xe r r r e t :X&XR.!.!.W.I.I. XXX_.].KXUXSXu.^.|.|.|./.|.'.i.KXUXPX0XU.h.).P.E.;X!.Y.CXUXIX:XN n u i C M C aXUXUXdX1 B B a e t =XI.@X",
"oX+XT.+X+X$X+XOX$X$X$X+XOX+X&XR.!.!.!.!.E.@Xd.d.`.{.0XUXUXnXq.i./.'./.}.}.{.qXUXUXmXU.XXd.h.d.d.#XoXo bXUXUXeXO 9 - i C C m >XUXUXdX5 B q y N 8 $XT.oX",
"T.T.$X$X%X+XT.+X+X$X+X+X+X$XT.!.!.!.Q.Q.E.@Xh.h.h.(.qXUXUXnX0.g.y.r.g. XXX(.wXUXUXiXU.;X@Xa.s.s.s.R.2 CXUXIX:Xu i i M M M 4 rXUXUXdXp C i i N e $X+XoX",
"R.T.$X%XT.W.I.#XI.T.T.T.T.W.E.W.W.E. X X XP.d.h.h.9.qXUXUXnX(.h.g.y.a.h.XX9.iXUXUXwXY.W.!.+XR.oXf.R.>XIXUXGXB C C l i i M 4 uXUXUXdXz V l i y t R.T.T.",
"T.T.I.I.T.I.P.I.I.I.W.W.W..X X_.`.).)._. X X).h.h.a.9XUXUXzXP.W.d.I.@Xa.#XT.9XUXUXbX2 f.s.=X-X&XOX1 BXUXUXdXp C x l 6 d l 4 MXUXUXtXg W 6 i y t R.R.R.",
"$XT.I.I.I.I.`._.`.`.`. X X_._.[.t.y.y.y.(. X Xy.h.a.*XIXUXvXa.W.Q.Q.-X#XoX=X:XPXUXGX-X$Xf.e =Xa a dXUXUXIXC C C x l l x z k HXUXHXc b g 6 m y t $X$X$X",
"#XI.P.P._._.(.(.[._._. X[./././.t.i.r.r.r.). X X).d.d.KXUXDXa.s.R.-X-X-X=X-X2 mXUXUXiX1 :XN 0 0 dXUXUXUXtX3 M l 6 W k ' z sXUXUXgX> h x j w y e $X+XOX",
"T.E.`.).(.[.t.t.'.'./././.2X2X2Xe.u.i.w.q.r.). XQ.E.9.NXUXUX*X. OX-X-X-Xs -X0 eXUXUXPXeX0 p >XCXUXUXUXdX4 & 4 j E E g ' ` VXUXUXsX> g 6 M n r e $X$X+X",
"E. X_.t.'.'.p.p.b.b.b.<X<X,X,X,X<XB.w.w.q.q.r._.Q.;XP.iXUXUXpXX 9 N a N B s n   pXUXUXFXrXBXUXUXUXIXiXd j R 6 g W W c ) sXUXUXVXL c z 6 u w t e +X$X!.",
"d.(.(.p.~.<X<Xb.c.m.m.M.3XM.M.3X,Xb.B.w.w.q.r.).E.;XY.*XPXUXHXO O 9 N q u m C q & NXUXUXUXUXUXUXCX>Xd [ x l x ' b h L Y HXUXUXsXL l ' d 4 q e $X&X!.W.",
").[.'.b.b.b.b.M.n.n.A.S.n.l.l.n.v.3Xb.u.w.q.g.y.I.!.=X1 vXUXUXpX  - 9 9     u C u R FXUXUXUXFXuX6 4 k ' ' ' ` ` ] L + MXUXUXVX< f l 6 u u r :X+XT.W.P.",
"'.~.b.b.N.N.n.S.&.$.$.$.X.C.C.C.l.M.3X<Xp.i.r.y.).#X$X2 *XUXUXIXeX& - 4 - & & 6 l d V CXBXtXR 4 E & E h ` ] b ] ) I fXUXUXIX^ L W 6 R i q y &X!.I.P.).",
"'.<Xb.N.n.S.A.$.=.=.*.=.X.C.C.C.C.n.1X2X/.'.t.d.s.s.s.OX7 pXUXUXCX& & - R & & * j ' z ' z 6 W k W = $ W ] , Y ) ) hXUXUXUXsXG E W j m C y &X%XoXI.).t.",
"<Xb.N.n.A.$.=.#.O.@.3.3.@.O.C.C.z.c.<X|.|._.y.s.s.f.f.X O eXPXUXUXfX# & R E = = R l ' ' ' c g ' c W W v ] U < ] VXUXUXUXsX< ~ f R 4 n B t &XoXE. X(.'.",
"<XN.S.A.X.@.@.4.2.2.3.3.*.$.C.z.z.B.p.[. X`.d.s.f.X X rXNXUXUXUXUXUXuX# E W E $ E g ` ` ` ` ` ] b , Y < ( ( sXIXUXUXUXyX: ] x 6 4 u 9 e &X&XW.`.(.'.e.",
"3XM.A.X.O.3.3.2.5.5.2.3.=.&.M.m.x.x.i.y.`.`.@Xs.. eXNXUXUXUXUXIXMXuX/ $ G W ~ W W h ` ` ] ] ] ] Y H + P sXGXUXUXUXGX} , h b x 6 m B y =X&X&XXX X/.<X,X",
"M.A.=.@.3.3.1.1.1.:.2.@.&.S.N.N.x.w.q.g.d.@Xs.OXvXUXUXUXUXFXuXQ # # $ F G ~ c v v b ] ` ] ] ) ( L Q yXFXUXUXUXUXfXT ) c f j d C C q t +XoXW..X|.2X1XM.",
"A.A.@.3.2.1.1.1.5.:.O.Z.S.m.x.x.u.w.q.g.h.o rXHXUXUXUXNXeX& # # $ $ % F L , ] ] ] ) ( ( ( ) ) ( I / UXUXUXUXMX/ D L v ' g * 6 C N 7 +XoXE.`.(./.<X3Xn.",
"A.#.3.5.1.7.1.3.3.O.X.A.n.x.x.w.i.r.g.h.a.pXUXUXUXHXrX& & = * $ % % % H G U < ] ] ( < T T T ( ( { D yXUXUXIX} : G K ~ ' j 4 q q :X=X%Xs. X(./.<XM.M.S.",
"#.4.5.1.,.,.1.3.*.X.Z.l.N.b.u.i.r.h.h.a.vXUXUXUXvXO   - - = $ $ % % % H H D I > < T U P P P I T ( { I fXUXUXGXL G R W j C B 9 9 :X-XE.h._./.b.N.n.A.A.",
"3.3.1.,.,.;.3.*.=.Z.C.m.v.<X/.'.y.h.a.vXUXUXUXuX    - * = = $ % % H % + + J / fXVXT D S S S S I ( ( ( ( VXUXUXdXf R ; 4 C B y OX%XW.`._.[.<Xb.N.A.$.@.",
"2.1.,.,.;.5.4.$.$.A.m.N.<X^.[._.).a.zXUXUXUXrX  - - * * = $ % K H + J yXfXHXUXUXUXVXP S S S S P T ( ] ) } UXUXIXA 4 4 w B a :XOX@Xd.(.'.u.b.3Xl.$.*.3.",
"1.,.>.,.1.3.=.$.S.n.N.b./.[.(.).9.iXUXUXUXrX  9 - - E E $ F K + H yXFXUXUXUXUXUXUXUXfXS S S J D Y ( ] ` ` gXUXUXdX5 m y 8 &X=X%XXX_././.b.N.M.A.#.3.2.",
",.,.,.1.2.@.=.S.n.m.b./.|._.).d.*XPXUXUXiX3 u 4 R E E E F K + / FXUXUXUXUXFXfXyXHXUXUXyX+ K J G , ] ] ' ' [ IXUXHXu y O O R.-XQ.XX'.p.b.N.3XS.$.O.2.5.",
">.1.5.3.@.=.$.M.m.c.~./. XW.@Xs.NXUXUXbX5 V i 4 R R E K K H fXUXUXUXUXMX/ S + + / UXUXIXQ G L ~ c ' ' ' [ z bXUXUXrX0 OX+X!.I.).|.p.<X3XM.A.Z.@.2.5.,.",
",.5.4.@.#.Z.M.M.b.~./. X.X!.oXrXUXUXFXn M l j 6 R E K K H MXUXUXUXMX! + + J J J + fXUXUXMXU ~ v x x l d C C tXUXUXbX2 :X;XE.g.).|.<XN.M.A.A.X.2.5.;.>.",
"5.3.@.#.Z.n.3X<X/./._.I.W.&X&XDXUXUXtXd C d g 6 R G K H MXUXUXIXyXS S J H J J J J K FXUXUXsXb x l 6 4 4 u n B HXUXGX$X!.XX_.(./.<Xx.z.n.Z.Z.4.5.;.>.>.",
"2.O.#.$.n.m.<Xp.'._.I.@X+X2 >XUXUXCXd k k k g W G G S fXUXUXHX! + J H H H H H K K @ yXUXUXgXz l j 4 - - O q a BXUXIX*XP.XX}.|.2Xb.m.n.Z.X.O.2.1.>.>.1.",
"4.X.$.S.N.b.'.].(.P.@X+X%Xt bXUXUXsXd g f 6 f L G H ! UXUXIX! + J H H K K K K K F $ R HXUXGXl d 6 4     O r a bXUXUX9X(.}.|./.<Xm.n.Z.X.@.2.1.,.>.1.2.",
"=.$.A.N.b.~.[.`.E.I.$X$XN B GXUXIXC g 6 W G L L L D MXUXUXyX+ K H K F F F $ E = = E # MXUXIXV i u 9 O O 7 &Xa dXUXUXqX{.|.2Xb.b.k.C.X.O.2.1.,.>.,.5.4.",
"&.A.N.b.p.'.W.W.oXOXt N n >XUXUXVXz g L L L G L P Q IXUXFXH H H F F F F $ $ = = * * # fXUXUXeX  9 9 7 9 $X=XY.dXUXUXwX^.2XB.x.N.l.X.@.3.1.7.>.,.1.3.*.",
"S.N.b.~.'.`.W.#XOX8 y q 5 sXUXUXdX> ~ L L P P P I yXUXUXfXS F F F F $ = = = * * - -   vXUXUXeX  O O 8 &X=X-XP.pXUXUXqX^.<Xx.m.n.Z.@.3.1.1.>.,.1.2.3.=.",
"M.b.<X'.).#X%X&Xr q w i j dXUXUXsX< Y L P P P P I fXUXUXyXH F F F E = = * * * - - -   NXUXPXOXO O O OX$X!.Q.9.zXUXUX0X,XM.z.n.A.O.2.5.;.,.,.1.3.3.=.$.",
"N.<X/.).#X$X$Xe q i i j > dXUXUXsX< T U L P P P I hXUXUX/ G F E E = * * * * -       9 PXUXFXO O O f.s.s.@X.X(.mXUXIX7XJ.M.n.&.#.2.3.1.,.,.5.3.3.#.$.M.",
"<X'._.I.+X$Xe q u i j g > dXUXUXsX, v T Y U U T < hXUXUXtXG E R E * - - - - -   O   iXUXUXvXX f.f.f.s.a.d._.[.KXUXJX3X3XS.&.=.3.2.1.,.,.5.3.3.*.$.n.c.",
"t.).E.T.$Xq w i j f f v , sXUXUXtX, ] b < < < c < sXUXUXfXG R R R - - - - - - O O O FXUXUXeX. s.s.s.d.y.[.~.9XUXUXZX .S.&.=.3.2.1.,.>.5.2.3.*.$.S.c.V.",
").E.!.$Xr w d k f f Y T U tXUXUXdX> b ] ] b b v h c IXUXIXeX* R       O O O O O . vXUXUXNXo s.a.s.y._.[.|.e.nXUXUXkX .=.=.4.3.1.,.>.1.2.4.@.X.A.M.<X].",
"W.!.$Xr q d k 6 L U < v Y ^ UXUXVX> b b b b c f W : dXUXUXFXeX    O O O O O X O vXUXUXIX*X9.d.h.y.(./.|.^.5XPXUXKXS.$.#.O.2.1.7.>.,.5.3.*.=.A.M.<X[.`.",
"T.e y i i j c < T < b v g f GXUXIXA c x l l k 6 R R 4 CXUXUXIXpX9 O o o o OXrXFXUXUXUXwXU.`.).r.r.i.p.2XH.nXUXUXkX+.=.4.2.1.7.>.,.5.3.*.=.&.N.b.'..X.X",
"$Xq w j 6 f , < < v h g 6 6 dXUXUXdXj l l l d 4 4 4 4 9 NXUXUXUXPXNXNXNXNXLXUXUXUXIXwXU.XX_.y.q.q.w.B.v.0XUXUXKXD.*.3.3.1.7.>.,.5.2.#.X.Z.m.b.~._.I.#X",
"y q i f ~ Y T < v h k j i 6 >XUXUXHXM M m m M u 9 9 9 7 9 pXUXUXUXUXUXUXUXUXUXUXNX*X9. X|.'.r.w.w.x.c.3XJXUXUXlX+.3.3.1.1.>.,.1.2.4.=.$.n.b.<X].W.oXOX",
"w d l ~ Y T Y , f k j 6 u q 3 MXUXUXdX5 9 9 w N r 7 r t 8 o *XpXSXLXIXIXPXDXnX9Xg.g.y.'././.p.w.B.B.n.AXUXUXAXo.4.2.1.1.,.,.1.5.2.#.$.M.N.<X[.`.#XOX8 ",
"d k v ] T T v g j m w u q y 7 *XIXUXUXrXO 9 r :X=X:X:X=X$XOXo . a.s.*X>XXX X9.q.g.g.r.u.~.2X<XV.N. .ZXUXUXKXF.o.2.1.7.,.7.1.5.3.*.X.M.M.b.(.`.%X$X8 m ",
"6 L T T T v k d m n N N a N y 0 iXUXUXIXrX7 &X=X=X=X=X=X$Xf.s.@Xd.d.d.)._. X(.r.h.i.w.B.b.2X4X..8XAXUXUXUXjX| 2.1.7.,.;.5.5.2.@.$.n.m.2X/.).@X+Xe m M ",
"L U T T ~ g i m n a 8 e =XR.&X:X7 vXUXUXIXwXY.#X#X!.T.T.W.d.d.I.I.d.s.h.).[.[.t.i.i.w.B.M.3X .jXJXUXUXIXjX| 3.1.7.,.,.5.5.3.@.Z.&.M.c.'._.I.oXe N 6 6 ",
"U T T T c l w r e +Xf.s.T.$X+X%XW.Y.mXUXUXUXnX@Xo P.d.d.I. X X X_.d.g.q.i.~.2X<XB.B.x.k. .8XnXUXUXUXKXjX| 5.1.,.>.7.5.3.3.*.X.A.3Xb.u._.P.T.r N M 6 L ",
"{ T T x d m y e R.oXd.@XQ.W.d.d.E.Q.U.nXUXUXUXKXiX`.9.a.y._._. X X].r.w.i.<X2X<Xv.k.l.8XzXPXUXUXUXZX6.<.5.;.,.>.,.5.3.3.@.X.&.M.<Xp.y._.#X=XN m 6 L L ",
"T v c x B y 7 oX!.@XE.E. X X(.)._.).{.L.wXLXUXUXUXLXnX9X].0.0.e.^.^.e.0.0.e...3X6XkXAXUXUXUXUXLXlX2.<.4.5.,.>.,.;.2.3.O.Z.C.n.B.p.y.).W.OXr n k g U T ",
"Y c x M y -X#XI.W.).y.[.(.[.|./.t.t.'.'.^.7XnXIXUXUXUXUXLXSXzXzXwXqXqXkXkXkXZXDXUXUXUXUXUXPXxX6.<.5.2.5.,.>.,.1.5.3.@.C.Z.n.x.p.].`.W.=Xe q j f b < T ",
"h k M B &XR.E._._.t.t.'.~.^.^./.~./.e.u.2Xe.0.7XnXLXUXUXUXUXUXUXUXUXUXUXUXUXUXUXUXUXUXJXlXG.| <.3.5.5.;.,.,.1.5.3.*.=.Z.l.b.V.[.).I.+X=XN i f h T T < ",
"l C y a T.I._.'./.e.~.~.^.1X,Xc.v.1X,Xb.<X2X~.^.^.7XqXnXDXLXUXUXUXUXUXUXUXUXUXKXAXkXjXO.| :.2.5.1.5.,.,.,.1.5.2.3.=.Z.l.c.2X|.`.).T.8 9 m g ~ Y U < h ",
"m s 2 Y.Q. X'.~./.,X,Xv.,XN.M.m.N.3X1Xb.p.^./.|.|./.0.0.b.6X0XkXkXkXkXkXlXjX8XD.o.+.@.4.4.2.:.;.,.,.,.,.1.5.2.@.=.Z.z.x.b.|.XXXX!.8 7 i l v < T Y Y 6 ",
"y t -X;X}.|./.1XJ.J.v.J...l...M.N.c.B.~./.~.t./.'.'.V.B.B.,X,Xv.c.k. .X.X.j.X.*.@.4.4.3.2.;.,.>.>.,.;.1.5.2.O.X.&.n.M.b.u._.`.!.&Xr B k c Y T ( L f j ",
"B R.Q.}./.e.N.J.J.....K.&.$.J.v.c.<Xp.'./.~.~.~.i.p.u.b.b.3X4X4X3X8XS.A.A.Z.@.3.2.2.3.5.1.,.>.>.,.;.1.1.3.O.O.$.8X3X1Xp.y._.@XR.8 m j f ] ( T < f l n "
};
