/* XPM */
static const char *OQ__[] = {
/* columns rows colors chars-per-pixel */
"75 75 240 2 ",
"   c #4D006B",
".  c #4F0067",
"X  c #53006D",
"o  c #57006D",
"O  c #540071",
"+  c #5B0373",
"@  c #5C0876",
"#  c #560976",
"$  c #630A79",
"%  c #671877",
"&  c #6F166F",
"*  c #6B2775",
"=  c #792A75",
"-  c #753779",
";  c #773370",
":  c #7B4A72",
">  c #89356A",
",  c #B56A5B",
"<  c #864778",
"1  c #935074",
"2  c #8D6F73",
"3  c #A7687B",
"4  c #B57A7A",
"5  c #B47369",
"6  c #AA5A65",
"7  c #CB7959",
"8  c #DA7F4D",
"9  c #C37A6A",
"0  c #BDAC5D",
"q  c #BCB85B",
"w  c #9A8677",
"e  c #9D9171",
"r  c #BB8A6C",
"t  c #B49C6C",
"y  c #BA9769",
"u  c #AD847D",
"i  c #AB8C7C",
"p  c #AA8A77",
"a  c #B58974",
"s  c #AD9476",
"d  c #AC9B75",
"f  c #A5957E",
"g  c #AA947B",
"h  c #A59C7D",
"j  c #A99B7A",
"k  c #B19773",
"l  c #AC9267",
"z  c #9EAA7D",
"x  c #9CB77A",
"c  c #ADAC6D",
"v  c #ADA46E",
"b  c #BBA364",
"n  c #BBAB62",
"m  c #B3A46B",
"M  c #B2AB6A",
"N  c #B7AA66",
"B  c #ADB46C",
"V  c #ACBB6C",
"C  c #A9BA6C",
"Z  c #B4B465",
"A  c #B3BB64",
"S  c #B8B666",
"D  c #ACA374",
"F  c #A5AC75",
"G  c #ABAA73",
"H  c #A4A37B",
"J  c #A3AB7B",
"K  c #A8A478",
"L  c #B1A273",
"P  c #A5B374",
"I  c #A5B575",
"U  c #B0B270",
"Y  c #AD865F",
"T  c #D9864D",
"R  c #CC895A",
"E  c #D58556",
"W  c #C59C5D",
"Q  c #C99659",
"!  c #D39951",
"~  c #E28C4E",
"^  c #C4A95A",
"/  c #C4B558",
"(  c #D2A54E",
")  c #C48965",
"_  c #C39962",
"`  c #C1A962",
"'  c #E1A04A",
"]  c #B7C85C",
"[  c #B8D35B",
"{  c #ABC568",
"}  c #B4C564",
"|  c #A3C272",
" . c #C3C157",
".. c #6C1285",
"X. c #6D1587",
"o. c #72178B",
"O. c #781D92",
"+. c #690E83",
"@. c #7E2397",
"#. c #6F3389",
"$. c #784D88",
"%. c #7C6E99",
"&. c #7E7AAD",
"*. c #7E6DB6",
"=. c #7B65BD",
"-. c #766DBE",
";. c #7B6CBB",
":. c #7967BA",
">. c #7D74B5",
",. c #7D7AB3",
"<. c #7672BC",
"1. c #7A73BB",
"2. c #7678B7",
"3. c #7074B9",
"4. c #7558A5",
"5. c #6E5ECE",
"6. c #735FC8",
"7. c #675CD5",
"8. c #6A5DD2",
"9. c #6D62CC",
"0. c #6E6AC5",
"q. c #7465C5",
"w. c #746BC3",
"e. c #7163C9",
"r. c #7667C3",
"t. c #6A60D0",
"y. c #7271C1",
"u. c #83289D",
"i. c #882CA1",
"p. c #8D31A6",
"a. c #9337AC",
"s. c #993DB3",
"d. c #895285",
"f. c #9C7C8E",
"g. c #9E6D95",
"h. c #9A6D9A",
"j. c #966D9D",
"k. c #8E7D9E",
"l. c #8E779E",
"z. c #9D7394",
"x. c #9B7B94",
"c. c #94749D",
"v. c #9A7399",
"b. c #937B9C",
"n. c #977C98",
"m. c #89688D",
"M. c #AC7C84",
"N. c #A5738C",
"B. c #A37B8C",
"V. c #A97786",
"C. c #B37883",
"Z. c #A47692",
"A. c #A26E90",
"S. c #9E42B7",
"D. c #A346BC",
"F. c #866DAD",
"G. c #8B6CAB",
"H. c #8C6AA9",
"J. c #926DA3",
"K. c #8C75A4",
"L. c #857CA6",
"P. c #8B7CA3",
"I. c #8574AD",
"U. c #8973AA",
"Y. c #847CAC",
"T. c #8A7BA9",
"R. c #8676A6",
"E. c #9272A2",
"W. c #907CA0",
"Q. c #8364B4",
"!. c #836BB3",
"~. c #8466B5",
"^. c #8274B2",
"/. c #817AB1",
"(. c #8872B0",
"). c #A94CC4",
"_. c #AE51C8",
"`. c #B255CD",
"'. c #B558CF",
"]. c #BA5CD5",
"[. c #BE60D8",
"{. c #C264DD",
"}. c #CB6CE6",
"|. c #CE6EE9",
" X c #C667E1",
".X c #CF70EA",
"XX c #D172EC",
"oX c #7C84AA",
"OX c #7782B4",
"+X c #7286B0",
"@X c #9D848D",
"#X c #9B8C8C",
"$X c #998C8B",
"%X c #9E9486",
"&X c #9D9C85",
"*X c #95948E",
"=X c #9B938B",
"-X c #949B8D",
";X c #9A9A8A",
":X c #8D849D",
">X c #878C9E",
",X c #8C8B9C",
"<X c #8B8899",
"1X c #958595",
"2X c #9A8492",
"3X c #948C94",
"4X c #998B92",
"5X c #92839A",
"6X c #928A99",
"7X c #9A8698",
"8X c #8D9395",
"9X c #8C929B",
"0X c #8B9896",
"qX c #939392",
"wX c #929A92",
"eX c #979594",
"rX c #8D8C86",
"tX c #A58485",
"yX c #A48D84",
"uX c #AA8C82",
"iX c #A2838B",
"pX c #A98687",
"aX c #A39384",
"sX c #A29B82",
"dX c #A49587",
"fX c #A6868E",
"gX c #9CA383",
"hX c #9BA38A",
"jX c #98A786",
"kX c #91A98C",
"lX c #A2A583",
"zX c #A0B480",
"xX c #8484A4",
"cX c #8A83A3",
"vX c #858BA3",
"bX c #898BA1",
"nX c #8383AB",
"mX c #8686AA",
"MX c #8991A3",
"NX c #8982A9",
/* pixels */
"aX;X3X<X>XxX&.&.,.Q.>.2.2.oXoXvX:XbX5X,X<X5X5X<X5X:XK.J.K.nXnXY.^.>.1.=.;.-.r.q.e.e.e.9.8.7.7.8.9.9.q.w.y.1.>.nXmXcXcX,XwX-XhXgXH G y S / / ^ n m F H ",
"B.3X<Xk.xX&.&.>.*.<.3.2.,.oXxXvX>X<Xn.<X<Xn.v.5X>Xk.K.P.T.I.Y./.Q.*.<.=.=.w.q.6.5.5.5.8.7.7.8.9.e.q.w.<.1.!.I.NXcXc.n.qX*X;XsXJ P C { } ] ] } B P K gX",
"eX1X:XR.&.!.Q.<.:.<.2.2.&.R.k.>X:X,X3X3X1X3X5X,X:Xc.P.K.R.G.I.,.>.;.<.w.w.q.e.9.5.8.7.7.7.8.9.9.q.w.<.2.!.Q.G.cXW.v.1X@XV.M.i P P A } [ ] } B r K f M.",
"1X<XJ.F.,.=.:.-.-.3.OX&.xX>Xk.<X1X8XqX1X1X1X6X<X5Xk.P.K.I.I.>.>.1.<.w.w.q.9.9.t.8.7.7.8.9.9.9.q.w.<.<.>.!.G.P.bX,X,X3XB.yXf J G B { ] [ q N | d h &X=X",
"5XP.H.&.2.=.:.0.3.+XoXL.>X>Xn.8X1XqXwXqX2X2Xn.n.,Xk.K.K.I.,.>.*.;.w.w.q.e.9.9.8.7.7.9.9.9.e.q.w.1.,.2.,.I.T.bXMX9X8XB.M.gXzXG ) B A / ] _ m x x gX#XwX",
":XR.F.2.<.6.0.-.3.OXL.xX<X<X3X3X@X-XwXwX3X1X3X6X,Xb.P.K.U./.^.;.-.w.q.q.e.5.8.7.8.5.e.e.e.q.w.<.^.^./.I.G.K.bX9X9XqXV.tXjXJ r y { 0 0 { M L p jXjX*X6X",
"P.F.Q.-.=.q.0.-.>.oXxX<X,X3X3X@X*X=X-X#X$XqX2X1X5Xb.P.U.I././.*.-.w.w.q.e.t.8.t.9.e.w.q.r.=.;.>.!.G.I.U.J.c.,X9X0X#XV.pXJ L r B { ] Z V | d f kX-X8X:X",
"R.F.Q.-.-.q.-.>.I.xX<X8X0X*X#X#X=X%X;X=X=XqX2X7X6X5XK.K.Y./.>.;.-.w.q.e.9.9.9.9.0.w.w.w.-.-.1.>.F.G.I.T.K.k.,XqXwX#XC.u J I B Z 0 q ) B P z jXkXkX0XcX",
"&.>.1.3.w.3.2.oXxX:X5XqX*X#X%X%XaXaXdXhX;X@X4X4X6Xb.P.K.U./.!.;.w.q.0.e.9.9.5.e.q.w.-.-.-.1.2.,.I.I.nXxXbX>X6Xx.=X;Xu j I I C R W N m L g sX%XkX0X<XP.",
"I.>.-.-.-.2.oXxX<X<X1X$X=X%XsXsXaXaXaXaX%X#X$X2X1Xb.P.K.I./.>.;.w.q.0.e.9.5.e.q.q.-.=.;.;.*.,.,.Y.R.xXvX>X9XqX2X=X;XgXJ F C V n N B P d h &X=XkX0X>XxX",
"&.>.3.<.3.&.L.>X8X3X#X%XyXaXh h h sXaXsX&X%X=X4X1X5XW.K.I.,.>.<.w.q.9.0.0.0.q.w.-.;.;.~.~.!.,.Y.U.J.P.bX9X8XqX=X;XjXh a D U b A C I P H gX;X*X0X<XP.xX",
"&.+X2.<.!.L.:X<XqX*X%XyXuXf h H H h f f aXyX=X$X1X5Xb.K.R.Y.>.=.=.q.0.0.w.r.w.-.;.;.*.!.!.F.I.nXT.E.k.>X5X1XB.M.yXgXi a D y ) M | x J aXyXkXwX0X>XK.R.",
"oX+X2.&.R.l.5X$X#X%XsXf j j j H H j h f sXyX#X=X3X1Xb.P.T.I.>.;.-.w.w.r.w.-.<.1.1.,.,.^.I.I.T.T.cXbX:X5Xz.f.iXM.yXgXH F L ) y v I x x sX%X#X1X8X>XP.oX",
"Y.,.&.L.k.5X$X#XtXaXlXh H K d j H j g h sXaX;X=X3X1X5XP.K.F.^.2.<.-.<.-.;.OX2.4.#.#.X...% X.#.#.$.%.:Xx.x.4X;XhXjXzXx P t y v P x x jXjX-X-X3X1X>XvXoX",
"oXoXR.:Xn.x.=X%XaXsXh H K K d s d j g g h gX;X=XqX1Xc.P.T.R.!.>.;.:.<.2.:.#.% O . X o O + O O X   X % $.f.hXhXjXgXh P G M B I x x x jXjX-X-X8X8X<XxXxX",
"vXxX<X3Xx.@X=XaXyXh j j d d d d d D H H H aX%X*XwX3Xb.J.K.nXY.,.~.1.2.#.+ X O ..i.s._.'.].`._.D.i.X.O X @ $.kXlXp j F r y C P F z z &X&XkX*X3X8X9X9XxX",
">X>X8X8X$X=X&XaXg j j s s d D D d s g h gXaXiX@XqXqX,X:XE.T.nXOXOX4.$ X O u._. XXXXXXX.X|..XXXXXXX}._.u.O X * w j x P r t D k j H f aXtX-X$X*XwX3X<X>X",
"<X3XqX-X#X%XaXaXh g s s d d D K d s i i &X%XiXB.4XqX,X>XcXcXnXmX4.@ X o.`.XXXX}.}.}.}.}.}.}.}.}.}.}.XXXX_...X % w J F P m k a a h h gX&XjX-X-XwX3X1X<X",
"1X$X*X=X%XyXyXsXH g i g H d d d K j i uXaX;X$X@X2X1X5X>XbXvXMX4.+ X i.}.XX}.}.}.}.}.}.}.}.}.}.}.}.}.}.}.XX{.o.X % p D I P F d j h u gX&XjXhX=X$XeXqX8X",
"@X#X@X%X%XaXaXf f j g j j K j j H h aXaXaX;X-XqX3Xn.v.5X>XMX&.$ X p.XX}.}.}.}.}.}.}.}.}.}.}.}.}.}.}.}.}.}..X{...X : | I D d F x H z zXgXgX&X;X;X;X*X$X",
"$X#XiXaXaXaXsXsXf h g i g j H H H &X&X;X;X=XwXwXwX1Xz.h.:XMX#.X O.|.}.}.}.}.}.}.}.}.}.|.|.|.}.}.}.}.}.}.}.}.XX_.O + e c a a d x x x x z jXsXsXsX%X=X*X",
"tX%X%XaXaXaXsXsXsXf g g g f h lXsX&X;X;X=X#X#XeXwXqXn.g.n.m.O @ ]..X}.}.}.}.}.}.}.XX|.{.].{.|.|.}.}.}.}.}.}.}.XXu.  < V F P I P j a H J J z h h gX#XiX",
"tXyX%XyXyXaXyXtXaXaXaXyXuXuXsX&X;X;X;X;X=XiXB.B.4XwXqX2X7X#.  i.XX}.}.}.}.}.}.}.XX'.@.$ + $ u.]..X}.}.}.}.}.}.XX_.O % F P D F P d a D J s d J g aX%XtX",
"%X%XaXaXaXyX%XyXyX%XyXyXyXaX%X;X;X=X-X-X*X@XZ.Z.Z.4XwXwX3X$ O '.XX}.}.}.}.}.}.XX).@ X @ % + X $ ].|.}.}.}.}.}.|.{.$ + e G r r P I P P I t d K f sXyXpX",
"&X%XaXaX%X=X#X#X#X%X%X%X%X=X=X=X=X=XqXwX*X#XB.Z.Z.B.3XwXm.X ..}.}.}.}.}.}.}.|.{.$ X $.@X=X@X-   i.XX}.}.}.}.}.}.}.X.o w U ) r P B m B M B t j h &X%X%X",
"%X%X#X#X%X#X@X#X#X$X=X=X=XeXqX3X4X2X2X3XwXqX2XZ.N.N.f.wXd.X u..X}.}.}.}.}.}.XXs.  - hXC.M.jXrXX o.}.}.}.}.}.}.}.}.O.X w V r ) m y y B _ y t j h &X&X&X",
"aX#X#X#X$X$X4X3X4X4X4XqXqX3X3X3Xn.x.x.x.1XqXqX2XN.N.N.dXd.  p.XX}.}.}.}.}.}.XXu.X 2 zXaXC.sX2 X @.|.}.}.}.}.}.}.}.X.X e { M ) ) y A A M y K j h sXaXyX",
"aX%X#X#X3X3X1X1X1X1X3XqX6X,X<X,Xn.v.v.z.z.2XqXwX@XB.B.pXd.  p.XX}.}.}.}.}.}.XXp.  < j f H f % X S.XX}.}.}.}.}.}.{.$ + F { { Z W Z Z b V L d j f yXyXpX",
"%X*X4X2X1X5Xn.n.5X5X,X,X,XbXbXbXk.c.h.h.g.z.2XwX-X=XiXM.d.X u.XX}.}.}.}.}.}.XXD.X * 4 9 p *   o.}.}.}.}.}.}.}.XX_.O * { { Z 0 } } Z N y G F j f aXaXyX",
"=XqX1Xn.5X5Xb.W.P.P.P.cXcXxXxXxXcXE.j.h.g.g.z.3X-X-X%XM.1 X X.}.}.}.}.}.}.}.}. X..X < 1 $   X.{.|.}.}.}.}.}.}.XXp.  1 } } Q R q W S V t k d h f yXaX;X",
"f.1X5Xb.:XcXcXcXK.U.U.T.nXL.T.nXxXP.E.j.h.g.z.2X*XhX;XpX3 $ O '..X}.}.}.}.}.}.XX_.X O X O i. X|.}.}.}.}.}.}..X{.$ + 5 ^ ] ^ / q Q Z C v r s h sX&X;X=X",
"2X6X5XP.P.P.T.T.I.I.^.,./.F.F.I.L.nXP.c.h.g.g.x.$X;X;X%Xu =   a.XX}.}.}.}.}.}.}.XXs.+ @._.XX|.}.}.}.}.}.}.}.XXp.  > E R ] [ ] A b B y k a g gXyX%X=X#X",
"5X:XP.P.T.T.I./.,.>.>.>.*.~.Q.~.F.Y.mXcXb.c.z.x.@XiXyXsXg 3 O $ [.|.}.}.}.}.}.}.}.}.]..XXX}.}.}.}.}.}.}.}.XX_.O + Y ! / [ [ q W ) y ) d d j sX;X#X$X2X",
"5XcXP.R.I././.>.1.1.<.<.;.Q.Q.Q.~.I.xXbX,X5Xn.B.V.V.M.u i a =   u.XX}.}.}.}.}.}.}.}.|.}.}.}.}.}.}.}.}.}.XX].$ O 2 [ ] / q ] R R ) m D P j sXuXtX$X2Xn.",
"cXP.R.I.^.>.>.;.=.-.w.y.w.=.Q.Q.H.K.cXMX8X3Xx.N.V.C.C.a 4 < % O . S.XX}.}.}.}.}.}.}.}.}.}.}.}.}.}.}.}.XX`.$   : [ [ ^ T Q q ` b ) r F J h sXyX=XqX1X:X",
"cXT.Y.^.;.;.-.r.q.q.q.w.<.>.~.G.G.E.b.6XqX4XB.V.C.C.4 < $ X X ..p.`.|.}.}.}.}.}.}.}.}.}.}.}.}.}.}.XX|.s.@   ; /  .] ^ E ^ } V y r t a h sXdX=X4X1X<XP.",
"nXI./.*.=.w.q.q.e.e.q.w.2.,.Y.U.J.J.v.x.4X$XiXV.C.3 & O X X.D. XXXXX}.}.}.}.}.}.}.}.}.}.}.}.}.}.}.`.O.X O 1 ( T ! q } ` b A V y D J j gXsXdXwXqX,XcXxX",
"Y.(.>.-.w.q.9.9.9.5.r.-.,.Y.R.K.J.j.h.Z.B.iXtXpX1 @ X $ s.}.XX}.}.}.}.}.}.}.}.}.}.}.}.}.}.}.}.|.i.X X & 6 / T 8 E q } S b b M I P s h tXtX=XqX8XbXvXT.",
"^.^.;.w.q.9.9.9.9.6.=.!./.U.J.J.c.h.g.Z.N.V.pX1 + X o.].XX}.}.}.}.}.}.}.}.}.}.}.}.}.}.}.}.}.}..X).O + , ' / ! E Q W S { m 9 k I H u yXtX-X4X1X,XcXnXI.",
"^.;.w.q.9.t.9.0.w.=.;.^.I.J.J.j.v.z.A.N.V.C.1 @ X @.}..X}.}.}.}.}.}.}.}.}.}..XXX}.}.}.}.}.}.}.}.XXa.  = ( ] q ^ R E ` V m r d s lXgX%XB.qX1X:XcXT.I./.",
";.w.e.9.8.8.9.w.<.;.~.F.I.P.c.v.x.Z.N.N.M.3 $ X @.|.|.}.}.}.}.}.}.}.}..XXX}.`._.|.}.}.}.}.}.}.}.|. X..O Y [ q W R ) ) t P F a a lXjX=XN.3X,XP.T.I.^.*.",
"w.q.9.8.7.5.q.<.2.!.~.U.L.cX<X1Xx.N.V.V.C.= X o.}.|.}.}.}.}.}.}.}.|.XX].a.X.+ O ).XX}.}.}.}.}.}.}.XXS.X ; } W _ N ) 9 r J J j uXuX=X3X1X<XcXcXI./.*.-.",
"q.9.8.7.5.e.;.1.>.^.U.T.cX,X6X1X@XB.V.C.1 O @ ].XX}.}.}.}.}.}.}.XX{.i.@   o $ O $ ].|.}.}.}.}.}.}.|.{.$ + v S B B r r d J z gXpXpXB.1X5Xc.P.NXG.>.<.w.",
"5.8.7.8.e.w.>.>./.I.T.cX,X6X1Xf.iXB.M.4 *   s.XX}.}.}.}.}.}.}.XX_.$   + > , 8 >   @..X}.}.}.}.}.}.}.XXu.  2 { c m t K j u sXhXdXeX3X6X>XP.T.Y.^.;.w.q.",
"8.8.8.9.q.;.>./.I.U.P.,X8X3X@XB.B.tXuX2 O +.{.|.}.}.}.}.}.}.XX).O O > 7 ~ ~ ~ 7 $ O `.XX}.}.}.}.}.}.XXD.X : U r 5 a j 4 4 &XhX-XwX5Xc.P.K.Y./.1.=.q.9.",
"7.9.e.w.-.1.>.I.K.K.:X,XqXeXiXtXpXu g <   p.XX}.}.}.}.}.}..X].@ O > ~ T T T T ~ >   i.XX}.}.}.}.}.}.XX`.O * t 5 5 a j u yX-X#X2X8X5XcXnXY.I.!.-.r.e.8.",
"8.e.w.-.;.!.Y.T.P.:X,XqXeX=XyXpXu u s * O _.XX}.}.}.}.}.}..X@.  > ~ T T T T E ~ , X X.}.}.}.}.}.}.}.|.].+ % d a a h gXsXhX=XN.2X9XcXT.Y.^.(.;.r.e.5.7.",
"e.w.-.;.!.I.nXcX:X,X3X4XdXsXsXf i s s + $ {.|.}.}.}.}.}.|.].+ + 7 ~ E E E E E E 7 o ..}.}.}.}.}.}.}.|.].+ % H j sX&XaX;X-XqX1X9XcXJ.G.I.~.~.r.e.5.7.7.",
"w.-.;.>.I.U.cXb.5X1X@XiXuXlXlXH d G e X o.}.}.}.}.}.}.}.XXD.  > E E E E E E E E , X o.}.}.}.}.}.}.}.XX`.O * J jX&XpXC.#XwX9X9XbXP.U.I.!.*.=.q.9.8.7.9.",
"w.*.>./.I.P.5X5X1X#XiXuXuXH J F P B w X O.}.}.}.}.}.}.}.XXS.  > E E E E E E 7 E >   p.XX}.}.}.}.}.}.XXD.X - lXjXyXC.V.3X9X9XbXcXU.I.!.;.-.q.9.8.7.9.q.",
">.>./.R.P.:X6X4X=X#XaXf H J F G P V w X O.}.}.}.}.}.}.}.XX_.O & E R 7 R 7 7 R , $ O `.XX}.}.}.}.}.}.XXi.  : zXhXaXiX4X9X9X>XP.P.H.~.;.=.q.9.8.7.8.e.r.",
",.^.I.P.k.2XeX=XtXtXh H J I P c B A l o ..}.}.}.}.}.}.}.}.}...X 6 E E E R R 9 &   u..X}.}.}.}.}.}.}.}...X rXjX%XiX2XqX9XbXK.J.T.F.*.-.q.9.t.7.8.9.w.<.",
"/.I.P.:X5X4X=XaXpXi j d D c B B Z Z y $ + ].|.}.}.}.}.}.}.XX`.+ X > 1 1 1 > $   X.{.|.}.}.}.}.}.}.XXD.X * hX=XB.N.x.,XbXcXJ.U.(.!.-.w.9.9.8.8.9.q.-.>.",
"I.P.cX5X2XfXdXsXg g d t m B Z S A q / >   S.XX}.}.}.}.}.}.}.XX`.X.O         + u. X|.}.}.}.}.}.}.}.}...X m.hX@XN.z.5XbXvXL.H.I.^.=.r.q.5.8.8.9.q.w.2./.",
"T.cX,X2XfXaXaXh d t t m M n n 0 ] q / 5 O X.}.}.}.}.}.}.}.}.}.XX}.).p.u.i.s.]..X|.}.}.}.}.}.}.}.XXs.X % iXqX1Xx.5XbXvXnXI.I.,.;.r.0.9.8.8.e.q.w.;.^.Y.",
"P.5X3X=XyXaXj s k t m N n ^ W Q ^ / / n % X s.XX}.}.}.}.}.}.}.}.}.XXXX.XXXXX.X}.}.}.}.}.}.}.}.XX_.O O d.B.3X5Xv.c.cXnXnX/.,.2.w.q.9.8.8.e.w.w.<.>.I.K.",
"n.2X=X%XaXg d L m b b n ^ ^ W Q W S A ] 2 O @ '.XX}.}.}.}.}.}.}.}.}.}.}.}.}.}.}.}.}.}.}.}.}.XX`.$ X d.fX1X6Xv.j.E.nXnX,.,.2.w.q.5.8.7.9.q.w.<.>./.K.b.",
"2X=X%XaXg d G M b b ^ / ^ ^ W W _ S A } } : O $ '.XX}.}.}.}.}.}.}.}.}.}.}.}.}.}.}.}.}.}.}.XX_.$ X - 3X6X,Xb.j.E.T.nX,.,.;.-.q.9.8.7.9.q.r.;.*.I.R.cXn.",
"=X;XaXg d v B b W ^ q S ` _ y b N S A A A A ; X $ ).XX|.}.}.}.}.}.}.}.}.}.}.}.}.}.}.}.XX Xp.+ X #.7X6X>XbXcXP.E.U./.2.;.r.q.9.8.7.8.e.w.<.2./.T.cX6X3X",
"%XaXj k t b Z q 0 q S S N y M B B M Z B B V M ; O X u.].XXXX|.}.}.}.}.}.}.}.}.}.XXXX XD...X + #.x.v.b.bXvXmXT.H.~.>.<.-.q.9.8.7.8.e.w.<.1.,.I.P.5XeXeX",
"sXs d m y y 0 q q S n M y y m c m t m B B B G r 1 +   @ u._.{.}.XXXXXXXXXXXX|. X`.a...X X % m.z.h.h.E.cXmXNXU.F.*.<.w.q.9.t.7.8.e.q.=.*.!.U.P.:X3XfXyX",
"j d m b ^ ^ / 0 S N M m t t k t t t G G D D F t r 3 = +   O $ O.p.a.s.S.s.p.@.+.O   X % $.5Xn.h.j.j.K.nXnXY.^.*.<.w.q.9.9.7.8.9.q.=.1.>.U.P.cX7X=XpXu ",
"d c B S ^ / ^ 0 b m L k k k a a k d F d a a d H g i g w < % + X       X     X O $ #.d.5X9X,Xc.c.E.E.R.Y././.2.-.r.e.9.9.8.8.9.e.r.;.>.Y.T.cX6X4XyXpXi ",
"c M S } / / Z N m L d s s j s a s s g s a a g jXjXgXlXlXsX4 3 1 < > - - $.$.d.m.g.Z.v.c.:XbXcXP.T.R./.^.!.;.-.r.6.9.t.8.9.9.e.w.<.>.Y.T.P.5X4XdXaXg K ",
"y Q / / / n Z c D F H H z H h j i u i aXuXuXsXgXjXjXhXhXyXM.M.pXpXpXfXfXeXwX4Xx.Z.h.j.c.P.xXmXnX/.,.^.~.Q.=.w.e.9.t.8.5.e.e.r.;.>.I.U.bX6X2XiXuXf d G ",
"W ^ / / ` M y d K z i f gX&XsXgXaXpXaX%XyX&X;XyXyX;X%XdX=XiXB.$X$XB.N.Z.n.<X6Xn.v.v.J.E.T.mXnX,.,.,.*.=.=.r.e.9.t.8.8.e.e.r.-.*.,.T.K.5X3X$XyXf H t y ",
"^ / / S Z B d s h tX4 V.%XaXyX%X=X;X;X@XV.#X=XB.V.@XB.B.$XqXqXqXqXB.Z.g.v.5XbX:XE.J.J.U.Y.Y.,.,.2.2.-.w.r.e.5.8.7.t.e.0.w.<.*./.nXP.c.1X#X%Xf H G y Q ",
" ./ ` A c d j f &XyXB.@X;X=XiXB.*XwXwX@Xf.#XwX@XN.2Xf.N.x.3X1X8X8X2Xg.h.c.P.bXcXT.I.I.^.,.,.,.2.<.-.w.q.e.5.8.7.8.e.q.w.-.*.>.Y.cXn.x.3XyX&XH D t W W ",
"/ S Z C F j u tX;X@X*X*XwXqX1X1X3X2X8X8X8X0X0X8X3X8X1Xx.2Xz.z.5X9X,Xb.c.E.cXnXmXnXY.,.,.,.2.<.<.w.r.q.q.e.8.7.8.5.q.w.=.!.~.I.E.n.x.2X=XpXg K M N ^ / ",
"^ S C F j jXyX#XqX2Xx.3X1X1X8X,Xn.n.5X5X,X<X5X,X9X9X9X,X,Xc.h.b.bXbXcXP.L.nXnXnX/.,.,.>.*.;.-.w.q.e.e.e.5.8.8.9.e.w.-.=.~.I.J.c.7X2X=XgXh d m b A q / ",
"n M D J sX&X=X3X3Xn.b.b.5X<X>X>X<X<Xk.c.>X:Xh.:X9X9X9X9X>X:Xc.W.P.xXnXnXT.Y.,.,.,.,.1.;.~.=.q.q.9.e.e.8.8.8.9.e.q.<.1.!.G.T.W.6X2X#XyXgXH t b n / / q ",
"C P j gX%X$X3X5X<Xk.:X:X>XvXxXK.L.vXxXP.cXbX<X>X9XbX:X<XbXvXxXP.J.U.nXI.G.(.,.,.2.<.<.=.=.r.q.e.e.9.8.8.8.9.e.r.-.1.!.G.K.bX9X3X@X%Xi a L N n ^ ^ q n ",
"L J h &X-XqX5X:X>XxXxXL.xXR.L.U.I.nXvXk.b.>X>X9X9X,Xc.c.P.vXvXcXJ.H.Y.I.~.~.^.2.<.<.<.r.r.q.5.5.8.8.8.5.9.e.r.-.2.!.G.J.P.,XwXwX;Xi p t B S / / ^ ^ y ",
"d h jXkX0X9X<XvXoXoXL.oX&.F.&.Y.U.K.E.:X,X:Xn.,X5X5Xc.E.E.cXmXmXT.I././.~.~.*.<.-.r.w.w.q.5.8.7.7.8.5.9.e.q.=.*.,.I.R.P.c.6X4X;XdXg F M S ^ / ] W b v ",
"z gX-X8X<Xk.T.oXoX&.&.OX,.>.&.L.P.cXb.5X<X<X<X:Xv.c.c.P.T.xXmXmXnX,.>.^.^.*.-.w.r.q.q.e.9.8.7.7.8.9.9.0.w.=.=.>.nXmXvXb.x.qXiX&Xu D t b } ] / q n B F "
};
