/* XPM */
static const char *MTA_[] = {
/* columns rows colors chars-per-pixel */
"75 75 236 2 ",
"   c #4D006C",
".  c #52006D",
"X  c #58006F",
"o  c #4E0071",
"O  c #550071",
"+  c #5B0373",
"@  c #5E0777",
"#  c #620B72",
"$  c #63097C",
"%  c #661574",
"&  c #6C166E",
"*  c #6B2677",
"=  c #753378",
"-  c #752E74",
";  c #7A4A76",
":  c #87366C",
">  c #B7665D",
",  c #904F71",
"<  c #A65364",
"1  c #926E71",
"2  c #BC786C",
"3  c #B67977",
"4  c #AF6E70",
"5  c #AD585F",
"6  c #CA7959",
"7  c #D07F5E",
"8  c #C67A68",
"9  c #C9766D",
"0  c #BDAB5D",
"q  c #BCBA5C",
"w  c #BCB45C",
"e  c #9A9571",
"r  c #BA896C",
"t  c #B49C6C",
"y  c #BA9769",
"u  c #AD847D",
"i  c #AC8C7C",
"p  c #AA8A76",
"a  c #B38C73",
"s  c #B68575",
"d  c #AD9576",
"f  c #AC9B75",
"g  c #A6947E",
"h  c #AA947B",
"j  c #A59B7D",
"k  c #A99B7A",
"l  c #B19B72",
"z  c #B29274",
"x  c #AC996D",
"c  c #9EAA7D",
"v  c #9CB77A",
"b  c #AEA46E",
"n  c #ADAC6D",
"m  c #A2AF6C",
"M  c #BBA364",
"N  c #BBAB63",
"B  c #B3A36B",
"V  c #B3AC6B",
"C  c #B7A967",
"Z  c #ACB46D",
"A  c #ACBB6C",
"S  c #A9BA6B",
"D  c #B4B365",
"F  c #B6B765",
"G  c #ABA374",
"H  c #A5AC75",
"J  c #ABAB73",
"K  c #A4A37B",
"L  c #A3AB7B",
"P  c #A8A578",
"I  c #B1A372",
"U  c #A5B374",
"Y  c #A6B675",
"T  c #AC825E",
"R  c #CB875A",
"E  c #D68856",
"W  c #C7995B",
"Q  c #D48F56",
"!  c #C3AB5B",
"~  c #C5A75A",
"^  c #C5B558",
"/  c #D3A652",
"(  c #C58766",
")  c #C49962",
"_  c #D08B66",
"`  c #C1A564",
"'  c #C0B261",
"]  c #E99750",
"[  c #B6C85C",
"{  c #B7D15D",
"}  c #ABC568",
"|  c #B4C463",
" . c #A7C66E",
".. c #C4C557",
"X. c #680D81",
"o. c #6D1386",
"O. c #741A8C",
"+. c #781D91",
"@. c #7D2296",
"#. c #6B2B85",
"$. c #764C8F",
"%. c #7E7AAD",
"&. c #7E6DB6",
"*. c #7B65BD",
"=. c #766DBE",
"-. c #7B6CBB",
";. c #7967BA",
":. c #7D74B5",
">. c #7D7BB3",
",. c #7672BC",
"<. c #7A73BA",
"1. c #7679B7",
"2. c #726FB3",
"3. c #7654A1",
"4. c #6E5ECE",
"5. c #735FC8",
"6. c #675CD5",
"7. c #6A5DD2",
"8. c #6D62CC",
"9. c #6E6AC5",
"0. c #7465C5",
"q. c #746BC3",
"w. c #7163C9",
"e. c #7667C3",
"r. c #6A60D0",
"t. c #7271C1",
"y. c #84299D",
"u. c #82279A",
"i. c #882CA1",
"p. c #8D32A6",
"a. c #9337AC",
"s. c #993DB2",
"d. c #8A5486",
"f. c #9F7C8E",
"g. c #9A6D9A",
"h. c #9B6D98",
"j. c #8E7D9E",
"k. c #877897",
"l. c #9C7394",
"z. c #9B7B93",
"x. c #95749C",
"c. c #9A739A",
"v. c #937B9C",
"b. c #977C98",
"n. c #847086",
"m. c #AA7B84",
"M. c #A4748D",
"N. c #A37C8B",
"B. c #A97786",
"V. c #A47792",
"C. c #AA7286",
"Z. c #9D40B7",
"A. c #A347BC",
"S. c #856DAD",
"D. c #8B6CAB",
"F. c #8C6AA9",
"G. c #926DA3",
"H. c #8C75A4",
"J. c #857CA6",
"K. c #8B7CA3",
"L. c #8575AD",
"P. c #8973AA",
"I. c #847CAC",
"U. c #8A7AA9",
"Y. c #8575A5",
"T. c #9272A2",
"R. c #907CA0",
"E. c #8364B4",
"W. c #836BB3",
"Q. c #8466B5",
"!. c #8274B2",
"~. c #817AB1",
"^. c #8872B0",
"/. c #A94CC3",
"(. c #B255CC",
"). c #BA5CD5",
"_. c #B658D1",
"`. c #AF52C9",
"'. c #BE60D9",
"]. c #C263DD",
"[. c #CB6CE6",
"{. c #CE6EE9",
"}. c #C668E1",
"|. c #CF70EA",
" X c #D272ED",
".X c #7C84AA",
"XX c #7782B3",
"oX c #7286B0",
"OX c #9D848D",
"+X c #9C8C8C",
"@X c #988D8C",
"#X c #9E9486",
"$X c #9D9C84",
"%X c #95948E",
"&X c #9B938B",
"*X c #949B8C",
"=X c #9B9A8A",
"-X c #8D849D",
";X c #8C8B9C",
":X c #898A9B",
">X c #958595",
",X c #9A8492",
"<X c #948C94",
"1X c #9A8B92",
"2X c #92839A",
"3X c #928A9A",
"4X c #998898",
"5X c #8D9395",
"6X c #8C929B",
"7X c #8B9896",
"8X c #939392",
"9X c #929A92",
"0X c #979493",
"qX c #8B908E",
"wX c #A58485",
"eX c #A48D84",
"rX c #AA8C82",
"tX c #A2838B",
"yX c #A88686",
"uX c #A39484",
"iX c #A29B82",
"pX c #A59687",
"aX c #AA848B",
"sX c #9CA383",
"dX c #9BA389",
"fX c #97A885",
"gX c #8EAA8C",
"hX c #A2A582",
"jX c #A0B480",
"kX c #8484A4",
"lX c #8A83A3",
"zX c #858BA3",
"xX c #898BA1",
"cX c #8383AB",
"vX c #8686AA",
"bX c #8A8EA5",
/* pixels */
"uX=X<X-X:XkX%.%.>.E.:.1.1..X.X.X-XxX-X;X-X2X2X-X2X-XH.G.U.cXcXI.!.:.<.*.-.=.e.0.w.w.w.8.7.6.6.7.8.8.0.q.t.<.:.cXvXlXlX;X9X*XdXsXK J y F ^ ^ ! N B H K ",
"N.<X;Xj.kX%.%.:.&.2.2.1.>..XkXzX:X;Xb.;X;Xb.c.2X;Xj.j.K.U.L.I.~.E.&.,.*.*.q.0.5.4.4.4.7.6.6.7.8.w.0.q.,.<.W.L.vXlXx.b.8X%X=XiXL U S } | { [ | Z U P sX",
"0X>X-XJ.%.W.E.2.;.,.1.1.%.J.K.:X-X;X<X3X>X3X2X;X-Xx.K.U.L.D.L.>.:.-.,.q.q.0.w.8.4.7.6.6.6.7.8.8.0.q.,.1.W.E.D.lXR.c.>XOXN.m.i U Z F | { [ | Z r P g m.",
">X:XG.S.>.*.;.=.=.1.XX%.kXzXj.-X>X5X8X>X>X>X3X;X2Xj.K.U.L.L.:.:.<.,.q.q.0.8.8.r.7.6.6.7.8.8.8.0.q.,.,.:.W.D.K.xX;X;X<XB.eXuXL J Z } [ { q C  .f j $X&X",
"2XK.F.%.1.*.;.9.,.oX.XJ.:X:Xb.5X>X8X9X8X,X,Xb.b.;Xj.H.U.L.>.:.&.-.q.q.0.w.8.8.7.6.6.8.8.8.w.0.q.<.1.>.>.L.U.xXbX6X5XN.m.sXjXP ( Z F ^ [ ) B v v sX+X9X",
"-XY.S.1.,.5.9.=.2.XXJ.kX:X3X<X<XOX*X9X9X<X>X3X3X;Xv.K.U.P.~.!.-.=.q.0.0.w.4.7.6.7.4.w.w.w.0.q.,.!.!.~.L.D.H.xX6X6X8XN.yXfXL r y } 0 w } V b a fXfX%X3X",
"K.S.E.-.*.0.9.=.:..XkX:X;X<X<XOX%X&X*X+X<X8X,X>X2Xx.U.P.L.I.~.&.=.q.q.0.w.r.7.r.8.w.q.0.e.*.-.:.W.D.L.P.G.x.;X6X7X+Xm.u L I r Z } [ D A  .f g fX*X5X-X",
"J.S.E.=.=.0.=.:.L.kX:X5X7X%X+X+X&X#X=X&X&X8X1X4X>X2XH.U.I.~.:.-.=.q.0.w.8.8.8.8.9.q.q.q.=.=.<.:.S.D.L.U.H.j.;X8X9X+Xm.u L Y Z D 0 w ( Z Y c fXgXgX7XlX",
"%.:.2.,.q.,.1..XkX-X2X8X%X+X#X#XuXuXuXdX=XOX1X4X3Xv.K.U.P.~.W.-.q.0.9.w.8.4.4.w.0.q.=.=.-.<.1.>.L.L.cXkXxX;X3Xz.@X=Xu k Y Y S R W C B I h iX#XgX7X:XK.",
"L.>.=.=.=.1..XkX:X3X>X@X&X#XiXiXuXuXuXuX#X+X@X1X>Xv.K.U.L.~.:.-.q.0.9.w.8.4.w.0.0.=.*.-.-.&.>.>.I.L.cXzX;X6X8X1X&X=XsXL H Y A N C Z Y k j $X&XgX7X:XkX",
"%.:.1.,.2.%.J.:X5X8X@X#XeXuXj j j iXuXiX$X#X&X1X>X2XR.H.L.>.:.,.q.0.8.9.9.9.0.q.=.-.-.Q.Q.W.%.I.P.G.K.xX6X5X8X&X=XfXj a G Z M F A Y U K sX=X%X7X:XK.kX",
"%.oX1.,.W.J.-X3X8X%X#XeXrXg j K K j g g uXeX&X@X>X2Xv.H.L.I.:.*.*.0.9.9.9.e.q.,.-.-.&.W.W.S.L.cXU.T.j.;X2X>XN.m.eXsXi s G y ( V  .v L uXeXgX9X7X:XH.Y.",
".XoX1.%.J.j.2X@X+X#XiXg k k k K K k j j iXeX+X&X<X>Xv.K.U.L.:.-.=.q.q.e.q.=.,.-.:.:.>.!.~.L.U.U.K.lX-X2Xl.f.tXm.eXsXK H I ( y n Y v v iX#X&X>X5X:XK..X",
"I.>.%.J.j.2X<X+XwXuXhXj K P f k K k h j iXuX=X&X<X>Xv.K.P.S.!.1.,.=.,.=.-.1.XX:.&.2.3.3.3.F.Y.H.K.6X3Xl.z.1X=XdXfXjXv U t y n U v v fXfX*X*X<X>X6XzX.X",
".X.XJ.-Xb.z.&X#XuXiXj K P P f d f k h h j sX=X&X8X>Xx.K.U.L.W.:.-.-.-.1.1.2.$.#.$ + O . . O O @ #.$.k.8X1X*XdXfXsXj U J V Z Y v v v fXfX*X*X5X5X:XkXkX",
"zXkX:X3Xz.OX&XuXeXj k k f f f f f G K K K uX#X%X9X<Xv.G.H.cXI.>.Q.:.1.3.#.+ . . O $ o.+.+.o.X.@ . . + = d.&XgX$Xi k H r y Y U H c c $X$XfX%X<X5X;X6XkX",
":X6X5X5X@X&X$XuXh k k d d f G G f d h j sXuXtXOX8X8X;X-XT.U.cXXXXX2.#.. . $ u.Z._.].[.[.{.[.}.).A.y.@ . O ; fXuXg v U r t G l k K j uXwX*X+X%X7X3X-X:X",
";X<X8X*X+X#XuXuXj h d d f f G P f d i i $X#XtXN.1X8X;X;XlXlXcXvX$.+ . $ s.'.|. X{.{.{.[.[.{.{.{. X X).i.O . = iXk L U U t z a s j j sX$XfX*X*X7X<X>X;X",
">X@X%X&X#XeXeXiXK h i h K f f f P k i rXuX=X@XOX,X>X2X;XxXzXbX$.X . y.'. X{.[.[.[.[.[.[.[.[.[.[.[.[.|. X/.$ . = g z b Y U J f k k u sX$XfXdX%X@X%X8X5X",
"OX+XOX#X#XuXuXg g k h k k P k k K j uXuXuX=X*X8X<Xb.c.2X:XbX$.O O s. X{.[.[.[.[.[.[.[.[.[.[.[.[.[.[.[.[. X).$ . ; U Y Y G f H v K c jXsXsX$X=X=X=X&X<X",
"@X+XtXuXuXuXiXiXj j h i h k K K K $X$X=X&X&X9X9X9X>Xl.g.2Xk.@ . s. X[.[.[.[.[.[.[.[.[.[.[.[.[.[.[.[.[.[.[. X(.@ O e  .b a a f v v v v c fXiXiXiXuX&X%X",
"wX#X#XuXuXuXiXiXiXj h h h g j hXiX$X=X=X&X+X+X0X9X8Xb.h.c.* . y. X[.[.[.[.[.[.[.[.{. X X X X{.[.[.[.[.[.[.[. Xa.. * l H H U U Y k a K L L c j j sX#XwX",
"wXeX#XeXeXuXeXyXuXuXuXeXrXrXiX$X=X=X=X=X&XtXN.N.1X8X5X4Xd.. $ ].{.[.[.[.[.[.[.{. X).s.p.p.A.}.|.[.[.[.[.[.[.{.}.X.O 1 Y H G J U f a G L d f L h uX#XwX",
"#X#XuXuXuXeX#XeXeX#XeXeXeXuX#X=X=X&X*X*X%XOXV.M.V.1X7X9X* . a. X[.[.[.[.[.[.{.[.p.@ .     . o.).|.[.[.[.[.[.[. Xp.  , A J r r U Y U U Y l f P g iXeXwX",
"$X#XuXuX#X&X+X+X+X#X#X#X#X&X&X&X&X&X8X9X%X+XN.M.M.M.0XqXO $ '.{.[.[.[.[.[.{.[.@.. O = d.d.* . o.}.{.[.[.[.[.[. X`.O * t J ( r Z Z B S V Z l k j $X#X#X",
"#X#X+X+X#X+XOX+X+X@X&X&X&X0X8X<X1X,X,X<X9X8X,XM.M.M.tX$.  y. X[.[.[.[.[.[. Xa.. @ n.dXaXaXsX* . A. X[.[.[.[.[.{.].@ % n Z r ( B y y D ) y t k j $X$X$X",
"uX+X+X+X@X@X1X<X1X1X1X8X8X<X<X3Xb.z.z.z.>X8X8X,XM.M.M.% . /. X[.[.[.[.[.{.].$ O 1 jXfXuX3 k ;   p. X[.[.[.[.[.{.[.X.+ m } V ( ( y F A V y P k j iXuXeX",
"uX#X+X+X<X<X>X>X>X>X<X8X3X;X;X;Xb.c.c.l.l.,X8X0XOXtXd.O X.}.{.[.[.[.[.[. XZ.  = hXsXg j j L ,   a. X[.[.[.[.[.{.}.$ + m } } D ) D F M A I f k g eXeXyX",
"#X%X1X,X>X2Xb.b.2X2X;X;X;XxXxXxXj.x.g.g.h.l.,X9X%X=X=   p. X[.[.[.[.[.[.{.+.. , i j 3 3 h v - . /. X[.[.[.[.[.{.].@ # S } D 0 | | D C y J H k g uXuXeX",
"&X8X>Xb.2X2Xv.R.K.K.K.lXlXkXkXkXlXT.g.g.h.h.l.<X*X*X% O (. X[.[.[.[.[.{.).+ @ 3 9 s a 2 2 p + $ ].{.[.[.[.[.[. X`.O * | | W Q q W F A t a f j g eXuX=X",
"f.>X2Xv.-XlXlXlXH.P.P.U.cXI.U.cXkXK.T.g.g.h.l.z.9Xn.. o.[.{.[.[.[.[.[. Xs.  ; I 2 9 a z ( ,   y. X[.[.[.[.[.[. Xa.  : ! [ ~ ! w W D A b r d j iX$X=X&X",
",X3X2XK.K.K.U.U.L.L.!.>.~.S.S.L.I.cXK.x.g.h.l.z.=X$.  p. X[.[.[.[.[.[.{.+.. 1 Z z 2 r U J * . /. X[.[.[.[.[.[.{.+.  5 Q [ { { F N Z y a a h sXeX#X&X+X",
"2X-XK.K.U.U.L.~.>.:.:.:.&.Q.E.F.S.I.vXlXv.c.l.z.tX* . /. X[.[.[.[.[.{.).+ # 2 y Z b b } e O X.}.[.[.[.[.[.[.{.).+ # R ^ { [ q W ( y ( f k k iX=X+X@X4X",
"2XlXK.L.L.~.~.:.<.<.,.,.-.E.E.E.F.L.kXxX;X2Xb.N.M.% + ).{.[.[.[.[.[. Xs.  : 7 8 B S S } ,   p. X[.[.[.[.[.[. Xs.  ; ..^ q [ R R ( B G U k iXrXwX@X,Xb.",
"lXK.L.L.!.:.:.-.*.=.q.t.=.*.E.E.F.H.lXbX5X<Xz.M.C.+ @ ].{.[.[.[.[.[. Xy.  < _ 8 ( D } } * O `. X[.[.[.[.[.[.{.O.. e ^ E W q ` M ( r J L j iXeX&X8X>X-X",
"lXU.I.!.-.-.=.e.0.0.0.q.,.:.W.D.D.T.v.3X8X1XN.B.C.+ $ }.{.[.[.[.[.[.|.y.  < _ 8 ( N { 1 . o.[.[.[.[.[.[.[. X_.+ % [ ~ E ~ | A y r l a j iXiX&X1X>X-XK.",
"cXL.~.&.*.q.0.0.w.w.0.q.1.>.I.P.G.G.c.z.4X1XtXm.C.# @ ].{.[.[.[.[.[. Xs.  - y ) ) t 1 + . A. X[.[.[.[.[.[. Xa.  : ..| ' N F A y G L k sXiX=X9X<X;XlXkX",
"I.^.:.=.q.0.8.8.8.4.e.=.>.I.L.U.G.g.h.V.N.tXtXm.3 % O `. X[.[.[.[.[.{.].o.  % = - # . O a.|.[.[.[.[.[.[.{.[.o.O > ^ | F M M V Y U d j yXwX&X0X5XxXzXU.",
"!.!.-.q.0.8.8.8.8.5.*.W.~.P.G.G.x.g.h.M.M.B.m.m.3 :   a. X[.[.[.[.[.[.|.).+.O O O + O.`. X[.[.[.[.[.[.[. X`.O & R W F } B 8 z Y K i eXwX*X1X>X;XlXcXL.",
"!.-.q.0.8.r.8.9.q.*.-.!.L.G.G.g.c.l.M.M.B.B.m.3 3 , . o.[.{.[.[.[.[.{.[.{.[.(.A./._.{. X[.[.[.[.[.[.[.[. Xp.  , Q 7 ` A B r f d hXsX#XB.8X>X-XlXU.L.~.",
"-.q.w.8.7.7.8.q.,.-.W.S.L.K.x.c.z.l.M.M.B.C.3 3 3 2 % . s. X[.[.[.[.[.[.[.[. X X X{.[.[.[.[.[.[.[.[.[.{.}.X.O 4 Q ( ) t U H a s hXfX&XM.<X;XK.U.L.!.&.",
"q.0.8.7.6.4.0.,.1.W.Q.P.J.lX;X>Xz.M.M.B.m.3 3 3 3 ( , O $ _. X[.[.[.[.[.[.[.[.[.[.[.[.[.[.[.[.[.[.[.[. X/.O & ) C ( 8 r U L k rXrX&X<X>X;XlXlXL.~.&.=.",
"0.8.7.6.4.w.-.:.:.!.P.U.lX;X3X>X,XB.B.m.3 3 3 3 2 8 ( : o $ ). X[.[.[.[.[.[.[.[.[.[.[.[.[.[.[.[.[.[.[. Xy.  , | Z r r G L fXsXyXyXN.>X2Xx.K.vXD.:.,.q.",
"4.7.6.7.w.q.:.:.~.L.U.K.;X3X>Xf.tXN.m.3 u s s 2 8 8 ( 8 - o $ `. X|.[.[.[.[.[.[.[.[.[.[.[.[.[.[.[.[.{.].$ O e A B l P k u iXdXpX0X<X3X:XK.U.I.!.-.q.0.",
"7.7.7.8.0.-.:.~.L.P.K.;X5X<XOXN.N.wXi i a z a r ( ( _ E R : o O i.).|. X|.{.{.{.|. X{.[.[.[.[.[.[.[. XA.. - Z r 2 a k 3 3 $XdX*X9X2Xx.K.U.I.~.:.*.0.8.",
"6.8.w.q.=.<.:.L.U.H.-X;X8X0XtXwXwXu i k P G l y ( 2 < < > E < +   @ @.s.(.).].]._.Z.).{.[.[.[.[.[.[. Xy.  1 V 2 2 s k u eX*X+X,X5X2XlXcXI.L.W.=.e.w.7.",
"7.w.q.=.-.W.I.U.K.-X;X8X0X&XeXyXu u z P J J V r - + . . O & 6 6 : #     + + @ $ O $ ].{.[.[.[.[.[.{.].$ + e I s s j sXiXdX&XM.,X6XlXU.I.!.^.-.e.w.4.6.",
"w.q.=.-.W.L.cXlX-X;X<X1XpXiXiXuXi d l J Z Z x & o $ @.y.X.. O > ] 6 5 : & & # + . p. X[.[.[.[.[.[. XA.  - J L k hX$XuX=X*X8X>X6XlXG.D.L.W.Q.e.w.4.6.6.",
"q.=.-.:.L.P.lXv.2X>XOXtXrXhXhXK f P J n V D -   +.).{.{.[.p.O # 6 E E E E 7 6 % O (. X[.[.[.[.[.[.{.@.  , l c fX$XyXB.+X9X6X6XxXK.P.L.W.&.*.0.8.7.6.8.",
"q.&.:.~.L.K.2X2X>X+XtXrXrXK L H U J n B ` 4 O $ ]. X[.[.{. Xu.  : E 6 7 7 E <   O.{.[.[.[.[.[.[.{.).@ + 4 h fXfXeXB.B.<X6X6XxXlXP.L.W.-.=.0.8.7.6.8.0.",
":.:.~.L.K.-X3X1X&X+XuXg K L H J U S V y W ,   a. X[.[.[.[. X_.O % R R R E > # . A. X[.[.[.[.[.[. Xs.  - s iXfXdXuXtX1X6X6X:XK.K.F.W.-.*.0.8.7.6.7.w.e.",
">.!.L.K.j.2X0XpXwXyXj K L Y Z n Z Z C W W : o A. X[.[.[.[.{.[.X.O 5 R 6 < #   i.{.[.[.[.[.[.[.[.{.+.. , iXdXdX&XtX,X8X6XxXH.G.U.S.&.=.0.8.r.6.7.8.q.,.",
"~.L.K.-X2X1X&XeXwXi k f G n Z Z D D 0 W W - O /. X[.[.[.[.[. Xi.  + & #   . i.[.{.[.[.[.[.[.[. X(.O # iXhXdX&XN.M.z.;XxXlXG.P.^.W.=.q.8.8.7.7.8.0.=.:.",
"L.K.lX2X,XtXpXiXh h f l B Z D D F q ! W / :   A. X[.[.[.[.[.{.}.i.$ @ $ +./.{.{.[.[.[.[.[.[.[. Xy.  , pX=X*X,XM.l.2XxXzXJ.F.L.!.*.e.0.4.7.7.8.0.q.1.~.",
"U.lX;X,XeXuXuXj f l t B V N N 0 [ q ^ ~ / <   p. X[.[.[.[.[.[.{.|.].).].{. X[.[.[.[.[.[.[.[.|.).@ O C.aXtX8X>Xz.2XxXzXcXL.L.>.-.e.9.8.7.7.w.0.q.-.!.I.",
"K.2X<X&XeXuXk d a t B C N ~ W W ! ^ q q ^ T . X.}.{.[.[.[.[.[.[.[.{.{.{.[.[.[.[.[.[.[.[.[.[.{.@.  = m.M.N.<X2Xc.x.lXcXcX~.>.1.q.0.8.7.7.w.q.q.,.:.L.H.",
"b.,X&X#XuXh f B B M M N ! ~ W W W N F F q q * . A. X[.[.[.[.[.{.[.[.[.[.[.[.[.[.[.[.[.[.[. Xs.. # M.N.z.>X3Xc.g.T.cXcX>.>.1.q.0.4.7.6.8.0.q.,.:.~.U.v.",
",X&X#XuXh f b V M N ~ ^ ! ~ W W ` F F | | | 1 O $ '. X[.[.[.[.[.[.[.[.[.[.[.[.[.[.[.[.[. XA.O O d.tX>X3X;Xv.g.T.U.cX>.>.-.=.0.8.7.6.8.0.e.-.&.L.J.lXb.",
"&X=XuXh f b V M W ~ q F ` ) y M C F F F F F F -   O.]. X[.[.[.[.[.[.[.[.[.[.[.[.[.[.{. Xs.+ O d.tX>X;X;XxXlXR.T.P.~.1.-.e.0.8.7.6.7.w.q.,.1.~.U.lX3X<X",
"#XuXk l t M D q w q F F C y V Z Z V D Z Z Z V r &   o.(. X|.[.[.[.[.[.[.[.[.[.[.{. X].y.. O $.N.c.c.v.xXzXvXU.F.W.:.,.=.0.8.7.6.7.w.q.,.<.>.L.K.2X0X0X",
"iXd f B y y 0 q w N N V y t B n B t B Z Z Z J y 2 * . + i.).{. X X|.{.{.{. X X{.'.a.$ . @ d.z.h.h.g.T.lXvXvXP.S.&.,.q.0.8.r.6.7.w.0.-.&.W.P.K.-X<XtXeX",
"k f B M ` ! ^ w F C V B t z z t z t J J G G J d r 3 : +   @ +.s.`.).].].).`.s.@.@ . O #.k.3Xc.g.g.g.H.cXcXI.!.&.,.q.0.8.8.6.7.8.0.*.<.:.P.K.lX4X&XyXu ",
"f b Z N ! ^ ! 0 M V B z z z a a z G H f s a k K h i k 1 = +     O @ @ @ @ O   . @ = d.>X6X-Xv.x.T.T.L.I.~.~.1.=.e.w.8.8.7.7.8.w.e.-.:.I.U.lX3X1XeXwXi ",
"b V N | ^ ^ F C B b f d d k d a d d h h s s h hXfXhXsXjXpX4 , - % # @ @ % * #.d.h.V.c.c.-XxXlXK.U.I.~.!.W.-.=.e.5.8.r.7.8.8.w.q.,.:.I.U.K.2X1XpXuXh P ",
"y W ^ ^ ^ N Z n G H K K c K j k i u i uXrXrXiXsXfXfXdXdXuXm.yXwXN.B.N.f.<X8X4XV.V.h.g.x.K.kXvXcX~.>.!.Q.E.*.q.w.8.r.7.4.w.w.e.-.:.L.P.xX3X,XtXrXg f b ",
"W ~ ^ ^ ` V t f P c i g sX$XiXsXuXwXuX#XeX$X=XeXeX=X#XpX&XN.N.@X1XN.V.M.,X;X3Xb.c.c.G.T.U.vXcX>.>.>.&.*.*.e.w.8.r.7.7.w.w.e.=.&.>.U.H.2X<X@XeXg K z y ",
"~ ^ ^ N D Z f d j yX3 B.#XuXeX#X&X*X*XOXB.+X&XN.B.OXN.B.@X8X8X8X8XV.M.h.c.-XxX-XT.G.G.P.I.I.>.>.1.1.=.q.e.w.4.7.6.r.w.9.q.,.&.~.cXK.c.>X+X#Xg K J y W ",
"..^ ' F n G k g $XeXN.OX*X&XtXN.%X9X9XOXf.+X9XOXM.,Xf.M.z.<X>X5X5X,Xh.g.x.K.zXlXU.L.L.~.>.>.>.1.,.=.q.0.w.4.7.6.7.w.0.q.=.&.:.I.lXv.z.<XeX$XK G t W ~ ",
"^ F D S H k u wX=XOX%X%X9X8X>X>X<X,X5X5X5X5X7X5X<X5X>Xz.,Xl.l.2X6X;Xv.x.T.lXvXvXcXI.>.>.>.1.,.,.q.e.0.0.w.7.6.7.4.0.q.*.W.W.L.T.v.z.,X&XyXh P V D ~ ^ ",
"! F S H k c eX+X8X,Xz.3X>X>X5X;Xb.b.2X2X;X;X2X;X6X6X6X;X;Xc.g.v.xXxXlXK.J.cXcXcX>.>.>.:.&.-.=.q.0.w.w.w.4.7.7.8.w.q.=.*.W.L.G.x.4X,X&XdXj f B M F q ^ ",
"N V G L iX$X&X<X<Xb.v.v.2X:X:X:X:X:Xj.x.:X-Xg.-X6X6X6X6X:X-Xx.R.K.kXcXcXU.I.>.>.>.>.<.-.Q.*.0.0.8.w.w.7.7.7.8.w.0.,.<.W.D.U.R.3X,X+XeXsXK t M N ^ ^ w ",
"S U k sX#X@X<X2X:Xj.-X-X:XzXkXH.J.zXkXK.lXzX:X:X6XxX-X:XxXzXkXK.G.P.cXL.D.^.>.>.1.,.,.*.*.e.0.w.w.8.7.7.7.8.w.e.=.<.W.D.H.xX6X<XOX#Xi s I C N ! ~ w N ",
"b L j $X*X8X2X-X:XkXkXJ.kXY.J.P.L.cXzXj.v.:X:X6X6X;Xx.x.K.zXzXlXG.F.I.L.Q.W.!.1.,.,.,.e.e.0.4.4.7.7.7.4.8.w.e.=.1.W.D.G.K.;X9X9X=Xi a l Z N ^ ^ ! ~ y ",
"f j fXgX7X6X:XzX.X.XJ..X%.S.%.I.P.H.T.-X;X-Xb.;X2X2Xx.T.T.lXvXvXU.L.~.~.W.Q.&.,.=.e.q.q.0.4.7.6.6.7.4.8.w.0.*.&.>.L.L.K.c.3X1X=XiXh H B F ! ^ [ W M b ",
"c dX*X5X;Xj.U..X.X%.%.XX>.:.%.I.K.lXv.2X-X-X-X-Xc.x.x.K.U.kXvXvXcX>.:.!.!.&.=.q.e.0.0.w.8.7.6.6.7.8.8.9.q.*.*.:.cXvXzXv.z.8XtX$Xu G t M | [ ^ q N Z H "
};
