/* XPM */
static const char *Mg__[] = {
/* columns rows colors chars-per-pixel */
"75 75 241 2 ",
"   c #4D006C",
".  c #53006D",
"X  c #55016B",
"o  c #540071",
"O  c #5A0373",
"+  c #5E0878",
"@  c #4E0071",
"#  c #620979",
"$  c #671674",
"%  c #701870",
"&  c #752676",
"*  c #7B3879",
"=  c #712A73",
"-  c #7A4D75",
";  c #8A3A6F",
":  c #BA6B5D",
">  c #98567A",
",  c #8D4C70",
"<  c #AA5A64",
"1  c #936D74",
"2  c #B67B77",
"3  c #B17570",
"4  c #A9525C",
"5  c #D17C55",
"6  c #C67968",
"7  c #CB7867",
"8  c #BEA95D",
"9  c #BBBB5C",
"0  c #BDB55B",
"q  c #AEA35A",
"w  c #99937A",
"e  c #BC886C",
"r  c #B49C6C",
"t  c #BA9668",
"y  c #AD847D",
"u  c #AB8C7C",
"i  c #AB8C77",
"p  c #B38C74",
"a  c #B78476",
"s  c #AD9476",
"d  c #AC9B75",
"f  c #A5947E",
"g  c #AA947B",
"h  c #A59B7D",
"j  c #A99B7A",
"k  c #B29773",
"l  c #AD9D6F",
"z  c #9DAA7C",
"x  c #9CB77A",
"c  c #AEA46E",
"v  c #ADAC6D",
"b  c #BBA364",
"n  c #BBAB63",
"m  c #B3A46B",
"M  c #B2AC6A",
"N  c #B8AA66",
"B  c #ACB46D",
"V  c #ABBC6C",
"C  c #A9BA6C",
"Z  c #B4B365",
"A  c #B4BB64",
"S  c #B8B665",
"D  c #ABA374",
"F  c #A5AC75",
"G  c #ABAB72",
"H  c #A4A37B",
"J  c #A3AB7B",
"K  c #A8A478",
"L  c #B2A573",
"P  c #A5B374",
"I  c #A4BB72",
"U  c #A6B476",
"Y  c #B1B872",
"T  c #DA844C",
"R  c #D8894D",
"E  c #D3964E",
"W  c #CB8B59",
"Q  c #D78752",
"!  c #C99859",
"~  c #D49552",
"^  c #E28D4E",
"/  c #C3AC5B",
"(  c #C6A758",
")  c #C4B559",
"_  c #D3A74F",
"`  c #C58766",
"'  c #C59863",
"]  c #D18062",
"[  c #C1A462",
"{  c #C1B461",
"}  c #B4CB5D",
"|  c #B8C55B",
" . c #B9D45A",
".. c #ABC568",
"X. c #B2C462",
"o. c #B4C865",
"O. c #A7C56E",
"+. c #C2C458",
"@. c #690E82",
"#. c #6B1384",
"$. c #73198D",
"%. c #741E91",
"&. c #64248B",
"*. c #7C2295",
"=. c #70338A",
"-. c #663FAE",
";. c #784F89",
":. c #7051AF",
">. c #7E7AAD",
",. c #7E6EB6",
"<. c #7B65BD",
"1. c #766CBE",
"2. c #7B6CBB",
"3. c #7967BA",
"4. c #7D74B5",
"5. c #7D7BB3",
"6. c #7672BC",
"7. c #7A73BA",
"8. c #7578B6",
"9. c #7174B7",
"0. c #7A6694",
"q. c #6E5ECE",
"w. c #6852C1",
"e. c #735EC8",
"r. c #675CD5",
"t. c #6A5DD2",
"y. c #6D63CC",
"u. c #6E6AC3",
"i. c #7465C5",
"p. c #746BC3",
"a. c #7163C9",
"s. c #7667C5",
"d. c #6B62D2",
"f. c #756FC5",
"g. c #83289C",
"h. c #882CA1",
"j. c #8E32A7",
"k. c #9336AB",
"l. c #9A3DB3",
"z. c #865187",
"x. c #9C7B8D",
"c. c #9A6D9A",
"v. c #9B6D98",
"b. c #8E7D9E",
"n. c #8D7A98",
"m. c #9C7394",
"M. c #9B7B94",
"N. c #94749C",
"B. c #937B9C",
"V. c #987799",
"C. c #966488",
"Z. c #AB7B84",
"A. c #A4748D",
"S. c #A37C8B",
"D. c #A97886",
"F. c #B17D86",
"G. c #A37392",
"H. c #A27B90",
"J. c #A46E8B",
"K. c #9D41B7",
"L. c #A347BD",
"P. c #8B6CAB",
"I. c #896BAB",
"U. c #926DA2",
"Y. c #8C75A4",
"T. c #857CA6",
"R. c #8C7CA3",
"E. c #8574AD",
"W. c #8A73AA",
"Q. c #847CAC",
"!. c #8A7BA9",
"~. c #8576A6",
"^. c #9273A2",
"/. c #917CA1",
"(. c #836BB3",
"). c #8464B4",
"_. c #8274B2",
"`. c #817AB1",
"'. c #8774B4",
"]. c #AA4DC5",
"[. c #A74AC1",
"{. c #AD50C8",
"}. c #B355CD",
"|. c #BA5CD5",
" X c #BF60D9",
".X c #C264DD",
"XX c #CB6CE6",
"oX c #CE6EE9",
"OX c #C667E1",
"+X c #CF70EA",
"@X c #D172EC",
"#X c #D475F0",
"$X c #7C84AA",
"%X c #7385B1",
"&X c #9D848D",
"*X c #9C8C8C",
"=X c #978C8B",
"-X c #9E9486",
";X c #9D9C85",
":X c #95948D",
">X c #9B938B",
",X c #949B8C",
"<X c #9B9A8A",
"1X c #8D849D",
"2X c #8C8B9C",
"3X c #898A9B",
"4X c #958595",
"5X c #9A8492",
"6X c #948C94",
"7X c #9A8A92",
"8X c #92839A",
"9X c #928A9A",
"0X c #998398",
"qX c #8D9395",
"wX c #8C929B",
"eX c #8A9896",
"rX c #939392",
"tX c #929992",
"yX c #989493",
"uX c #8C8E8D",
"iX c #A58485",
"pX c #A48C84",
"aX c #A3838B",
"sX c #A98885",
"dX c #A39484",
"fX c #A29B82",
"gX c #A49587",
"hX c #A28590",
"jX c #9CA383",
"kX c #98A686",
"lX c #8EA98D",
"zX c #A2A382",
"xX c #A1AB82",
"cX c #A1B680",
"vX c #8484A4",
"bX c #8A83A3",
"nX c #858AA3",
"mX c #898BA1",
"MX c #8483AB",
"NX c #8787A9",
"BX c #8A8CA4",
/* pixels */
"dX<X6X1X3XvX>.>.>.).4.8.8.$X$XnX1XmX8X2X1X8X8X1X8X1XY.U.Y.MXMXQ._.4.7.<.<.1.i.i.i.a.a.y.t.r.r.t.y.y.i.p.f.7.4.MXNXbXbX2XtX,XkXjXH G t S ) ) / N m F H ",
"S.6X2Xb.vX>.>.4.,.6.9.8.>.$XvXnX3X2XV.2X2XB.m.8X2Xb.b.R.!.E.Q.`.).,.7.<.<.p.i.e.q.q.q.t.r.r.t.y.a.i.p.6.7.(.E.MXbXN.V.rX:X<XfXJ U C ..o. .} X.B P H jX",
"yX4X1X~.>.(.<.6.3.6.8.8.>.~.R.3X1X2X6X9X4X9X8X2X1XN.R.Y.!.I.E.5.4.1.6.p.p.i.a.y.y.t.r.r.r.t.y.y.i.p.6.7.(.I.P.bX/.c.4X&XD.Z.u P P B X. .| X.Z e K f Z.",
"4X3XU.I.5.<.3.1.1.9.%X>.vXnXb.1X4XqXrX4X4X4X2X2X8Xb.R.Y.E.E.4.4.7.6.p.p.i.y.y.d.t.r.r.r.y.y.y.i.p.7.6.8.(.P.R.mX2X2X6XD.pXdXJ G V ..} } 0 N O.d h ;X>X",
"8XR.I.>.8.<.3.u.9.%X$XT.nX3XV.qX4XrXtXrX5X5XM.M.2Xb.Y.Y.E.5.4.,.2.p.p.i.a.y.y.t.r.r.y.y.y.a.i.p.7.4.8.5.E.!.mXBXwXqXS.Z.jXcXG ` M A ) } ' m x x jX*XtX",
"1X~.I.8.6.e.u.1.9.$XT.vX3X9X6X6X&X,XtXtX6X4X9X9X2XB.R.Y.W.`._.1.1.p.i.i.a.q.t.r.r.q.a.y.i.i.p.2._._.`.E.I.Y.mXwXwXrXD.iXjXJ e t ..8 0 ..M c i jXkX:X9X",
"R.I.).1.<.i.u.1.4.$XvX3X2X6X6X&X:X>X,X=X6XrX5X4X8XN.R.W.E.`.`.,.1.p.p.i.a.y.d.d.d.a.s.p.i.s.f._.(.I.E.W.U.^.2XwXeX=XD.sXJ L e B ..| Z V O.d f kX,XqX1X",
"~.(.).1.1.i.1.4.E.vX3XqXeX:X*X*X>X-X<X>X>XrX5X5X9X8XY.Y.Q.`.4.1.1.p.i.a.y.d.w.-.=.&.&.&.&.&.=.:.I.'.Q.~.Y.b.2XrXtX*XZ.y J U B Z 8 0 ` B P z kXlXlXeXmX",
">.4.6.9.p.9.8.$XvX1X8XrX:X*X-X-XdXdXdXkX<X&X7X7X9XB.R.Y.W.`.(.2.p.i.f.a.:.&.O .   . . O . .   . + =.0.BXmX2X9XM.>X<Xy j U I C W ! N m L g fX-XlXeX3XT.",
"E.4.1.1.1.8.$XvX3X9X4X=X>X-XfXfXdXdXdXdX-X*X=X5X4XB.R.Y.E.`.4.1.1.f.3.&.O . O $.j.K.].{.[.L.j.$.O . O ;.mXwX6X5X>X<XjXJ U I V n N B U d h ;X>XlXeX3XvX",
">.4.9.6.8.>.T.3XqX6X=X-XpXdXh h h fXdXfX;X-X>X7X4X8X/.Y.E.5.8.6.f.:.+ X O h.}.XX@X@X@X+X@X@X@XXX}.h.O . &.2XyX>X<XkXh p D B b A V I P H jX<X:XeX3XR.vX",
">.%X8.6.(.T.1X9XqX:X-XpXpXf h H H h f f dXpX>X=X4X8XB.Y.!.Q.4.2.:.O X #.}.@X+XXXXXXXXXXXXXXXXXXX@X@X].@.. = S.S.pXjXu a D t ` M O.x J dXpXlXtXeX3XY.~.",
"$X%X8.>.~.b.8X=X*X-XfXf j j j H H j h h fXpX*X>X6X4XB.R.!.E.4.:.+ . *.OX@XXXXXXXXXXXXXXXXXXXXXXXXXXX@X|.# . ; sXpXjXH F c ` t v I x x fX-X>X4XqXwXR.vX",
"Q.5.>.T.b.8X6X*XiXdXzXh H K d j H j g h fXdX<X>X6X4X8XR.W.P.(.#.. %.XXoXXXXXXXXXXXXXXXXXXXXXXXXXXXXXXX@X].o + =XkXcXx F r t v P x x kXkX,X,X6X4X3XnX$X",
"$X$X~.1XB.M.>X-XdXfXh H K K d s d j g g h jX<X>XrX4XB.R.Y.!.=.. @..XoXXXXXXXXXXXXXXXXXXXXXXXXXXXXXXXXXXX@Xg.  - xXh P G M B I x x x kXkX,X,XqXqX3XvXvX",
"nXvX3X9X5X&X>XdXpXh j j d d d d d D H H H dX-X:XtX6XB.U.^.~.+ . [.@XXXXXXXXXXXXXXXXXXXXXXXXXXXXXXXXXXXXX@X[.. = u h F e t I U F z z ;X;XkX:X6XqX2XwXvX",
"3XwXqXqX=X>X;XdXg j j s s d D D d s g h jXdXaX&XrXrX2Xb./.;.. *.oXXXXXXXXXXXXXXXXXoX@X@X@XXXXXXXXXXXXXXXoX.X+ O f x P e r D d j H h dXiX,X*X:XeX9X1X3X",
"2X6XrX,X*X-XdXdXh g s s d d D K d s u u ;X-XaXS.7XrX2XmXbX$ . ].@XXXXXXXXXXXXXXX@X.XK.j.L.XXXXXXXXXXXXXXXXXX@.O w J F P r k p a h h jX;XkX,X,XtX6X4X2X",
"4X=X:X>X-XpXpXfXH g u g H d d d K j u sXdX<X=X&X5X4X8XwX0.. #.XXXXXXXXXXXXXXXX@X{.# . . . l.@XXXXXXXXXXXXXXX$.. 1 k l I P G d j j y jX;XkXkX:X=XyXrXqX",
"&X*X&X-X-XdXdXf f j g j j K j j H h dXdXdX<X,XrX6XM.m.9X=.  k.@XXXXXXXXXXXXX+X|.# . =.=.. *.+XXXXXXXXXXXXXXX#.. w U I I D d F x H z cXjXjX;X<X<X<X>X6X",
"=X*XaXdXdXdXfXfXh h g u g j H H H ;X;X<X<X>XtXtXtX4Xm.v.+ O }.+XXXXXXXXXXXXX@Xg.. =.yXz.  g.@XXXXXXXXXXXoXOX# O z I P G p p d x x x x z jXfXfXfX-X>X:X",
"iX-X-XdXdXdXfXfXfXh g g g f h zXfX;X<X<X>X*X*XyXtXrX0Xz.. $.oXXXXXXXXXXXXX+X|.O O n.tX= . K.@XXXXXXXXXXX+X}.O $ D k k F F U U P j p H J J z h h jX-XiX",
"iXpX-XpXpXdXpXsXdXdXdXpXpXpXfX;X<X<X<X<X>XaXS.H.7XtXtX=.  l.@XXXXXXXXXXXXX@Xl.  =.yXuX+ O |.oXXXXXXXXXXX@XK.  * e 6 r P P D G U d p D J s d J g dX-XiX",
"-X-XdXdXdXpX-XpXpX-XpXpXpXdX-X<X<X>X,X,X:X&XH.G.G.7XuX+ O |.oXXXXXXXXXXXXXXX$.. z.hXuXo @.XXXXXXXXXXXXXXoX%.. 1 L r G G G e e P I P U U l d K f fXpXiX",
";X-XdXdX-X>X*X*X*X-X-XdX-X>X>X>X>X>XrXtX:X7XS.G.A.hXz.. *.oXXXXXXXXXXXXX@X}.O $ :X<X=XO # .XoXXXXXXXXX@X{.o $ F I B r r G ` e B B m B M Y l j h ;X-X-X",
"-X-X*X*X-X*X&X*X*X=X>X>X>XyXrX6X7X5X5X6XtXrX&XG.A.A.& . K.@XXXXXXXXXXXXX@Xj.  * jXlX;X& . h.@X+XXXoX@X|.#.o - O.I C r v B t ` m t t M ' t k j h ;X;X;X",
"dX*X*X*X=X=X7X6X7X7X7XrXrX6X6X9XM.M.M.M.5XrXrXM.A.C.O +  XoXXXXXXXXXXXXXXX@.. > dXkXkX1 O o g.|.OX.XL.#.. = P I B B C V V M ` ` t A A N t K j h fXdXpX",
"dX-X=X=X6X6X4X4X4X4X6XrX9X2X2X2XB.V.m.m.m.5XrXrXhXz.  *.+XXXXXXXXXXXXX@X].. $ f fXjXu H 1 O . O @.# . o % 3 M B t ` M O.O...Z ' Z Z b V L d j f pXpXsX",
"-X:X7X5X4X8XB.B.8X8X2X2X2XmXmXmXb.N.c.c.v.m.5XtXtX= . L.@XXXXXXXXXXXXX@Xg.  , a y j 2 2 j w - = O # & , e 7 e m ` ] N ....Z 8 X.o.Z N t G F j f dXdXpX",
">XrX4XM.8X8XB./.R.R.R.bXbXvXvXvXbX^.c.c.v.v.m.yXuXO # .XoXXXXXXXXXXXoX.X# o w a 3 a p 2 2 D G P H p e Y m ` t M ' ' Z ..X.! W 9 ! Z V r k d h f pXdX<X",
"x.4X8XB.1XbXbXbXY.W.W.!.MXQ.!.MXvXR.^.c.c.v.m.7X;.  g.@XXXXXXXXXXXXX@XL.. = U d 6 6 p k a e 2 r I B B I V B V ..A n ! ( | ( / 0 ! A V c e s h fX;X<X>X",
"5X9X8XR.R.R.!.!.E.E._.5.`.(.(.E.Q.MXR.N.c.v.m.M.$ . [.@XXXXXXXXXXXXX+X*.  , r F k 2 e P P t 6 6 t t m O.........X.! 5 ~ | } } A b B t k p g zXpX-X>X=X",
"8X1XR.R.!.!.E.`.5.4.4.8.,.).).I.(.Q.NXbXB.N.M.C.o @.OXXXXXXXXXXXXXoX|.+ O : 7 t B c m B C t ` e ` 7 ` N ..X.A X.} / ~ ) } } 9 ! ` t ` d d j fX<X*X7X5X",
"8XbXR.!.E.`.`.4.7.7.6.6.<.).).).I.E.vXmX2X8X0X=.  h.@XXXXXXXXXXXXX@XK.  & 7 7 6 m C C O.V ' ` Z t 7 7 ' X.8 8 } } } | ) 9 | W W ` m D P j fXgXiX=X5XM.",
"bXR.!.E._.8.4.2.<.1.p.f.p.<.).).P.Y.bXwXwX6XM.$ . {.@XXXXXXXXXXXXXoX%.  < ` 7 7 ` Z ..O...Z N ..A ' ' S X.) +. . . .( T ! 9 [ b ` e G J H fXpX>XrX4X1X",
"bX!.Q._.<.2.1.s.i.i.i.p.6.4.(.I.P.^.B.9XrXyXC.o #.XXXXXXXXXXXXXX+X|.O # 6 ' ` ] ` N ......o.o.o.A 8 ( ) 9 1 , * - 1 ! ~ 8 X.V t e k p h fXfX<X7X4X1XR.",
"MXQ.`.,.<.p.i.i.a.a.i.p.8.5.Q.W.U.U.m.M.7X>X*   j.@XXXXXXXXXXXXX@Xk.  ; W ' [ ' ' n X.o.o.o.o.X.( W Q W = o   o o @ $ 3 { Z V t D J j jXfXgXtXrX2XbXvX",
"Q.'.4.1.p.i.y.y.y.q.i.1.5.Q.!.Y.U.c.v.G.H.aX$ o }.@XXXXXXXXXXXXXXX#.. < ! b A S S A X.} o.o.} | ! T T & @ #.K.{.L.%.o O 3 N c U P s h sXiX>XyXwXmXnX!.",
"_._.2.p.i.y.y.y.y.e.<.(.`.W.U.U.N.c.v.G.D.C.o @.XXXXXXXXXXXXXX@X}.o $ 5 ! 8 X.o.X.} | | } } } } ( R 4 o # |.@X+X@XoXg.  * ` k U H u pXiX,X7X4X2XbXMXE.",
"_.2.p.i.y.d.y.i.p.<.<._.E.U.U.c.m.m.G.J.F.,   h.@XXXXXXXXXXXXX@Xj.  ; Q W ( 9 | } | 0 / / ) | } 9 _ ;   j.@XXXXXXX@X|.O $ e d s zXjX-XD.rX4X1XbX!.Q.`.",
"2.p.a.y.t.t.y.p.7.<.(.(.!.R.N.N.M.m.J.A.F.*   K.@XXXXXXXXXXXXXXX@.o : Q Q ~ ( 0 | 0 ( ~ ~ E _ )  .q O O |.oXXXXXXXoX|.O $ F p a zXkX>XA.6X2XR.!.E._.,.",
"p.i.y.t.r.q.i.7.7.(.I.W.T.mX2X8XM.A.D.D.F.& o [.@XXXXXXXXXXXoX|.O % 5 Q T Q ~ ! ) ) E R T T R ! +.-   g.@XXXXXXXXX@X[.. = P h sXsX<X6X4X2XbXbXE.`.,.1.",
"i.y.t.t.q.a.2.7.4._.W.Y.bX3X9X4X5XD.D.Z.2 % o }.@XXXXXXXXXXX@X{.o & Q T T T T R E _ E T T T T E 3 o # |.oXXXXXXXXX@Xg.  1 cXjXsXaXS.4X8XN.R.MXP.4.7.p.",
"q.t.r.t.a.p.4.4.`.E.Y.bX2X9X4Xx.aXiXZ.2 y & o }.@XXXXXXXXXXX+X}.o % T T T T T T R E E R Q T ^ : # . L.@XXXXXXXXXoX|.+ O 3 fXjXgXyX4X9X3XR.!.Q._.1.p.i.",
"t.t.t.y.i.2.4.`.E.W.R.2XwX6X&XS.D.sXu u k * o [.@XXXXXXXXXXXXXXX#.o 4 ^ T T T T T R ~ ~ Q R : # . k.@XXXXXXXXXXX@Xj.  * 2 ;XkX,XtX8XB.R.Y.Q.`.7.<.i.y.",
"r.y.a.p.1.7.4.Q.Y.Y.1X2XrXyXaXiXiXy u j L ,   k.@XXXXXXXXXXXXX@X[.. O ; 5 ^ ^ ^ R R ~ ! : ; O . k.+XXXXXXXXXXX+X|.+ O 1 dX,X*X5XwX8XbXMXQ.E.(.1.i.a.t.",
"t.a.p.1.1.(.Q.!.R.1X2XrXyX<XpXsXy y s K Y 1 . %.oXXXXXXXXXXXXXXX@Xl.O   # ; 4 : : < , = O   # L.@XXXXXXXXXXXXX@X*.  - zX,X:XA.5XwXbX!.Q._.'.<.i.a.q.r.",
"a.p.1.1.(.E.MXbX1X2X6X7XgXfXfXdXu s d G Y c $ O }.@XXXXXXXXXXXXXXX@X}.$.O     . . .   @ # j..X@XXXXXXXXXXXXX@XK.. $ pX<XtXrX4XwXmXU.I.E.(.).s.i.q.r.r.",
"p.1.1.4.E.W.bXB.8X4X&XaXsXzXzXH d K G v M S ,   *.+XXXXXXXXXXXXXXXXX@XXX}.k.g.$.$.*.j.L..X@XoXXXXXXXXXXXXX@X{.O o > F.&XtXwXwXmXR.W.E._.,.<.i.y.t.r.y.",
"f.,.4.`.E.R.8X8X4X=XaXsXdXH J F U G v m b [ t $ o L.@XXXXXXXXXXXXXXXXXXX@X@XoXXXXXoX@X@XoXXXXXXXXXXXXXXX@X}.# o * F.D.6XwXwXmXbXW.E.(.,.1.i.y.t.r.y.i.",
"4.4.`.!.R.1X9X7X>X*XdXf H U F G P B M t W W ! < o O {.@XXXXXXXXXXXXXXXXXXXXXXXXXXXXXXXXXXXXXXXXXXXXXXX@X].# . - gXaX7XwXwX3XR.R.P.(.<.<.i.y.t.r.t.a.s.",
"5._.W.R.b.4XyXgXiXsXh H J U B v B Z n ! ! ! W E , @ + ].@XXXXXXXXXXXXXXXXXXXXXXXXXXXXXXXXXXXXXXXXX@XXXk.O o * -XaX5XrXwXmXY.U.!.I.,.1.i.y.d.r.t.y.p.7.",
"`.E.R.1X8X7X<XpXsXu j d D v B M Z Z 8 ! ! ~ ~ E _ , o O k.XX@XXXXXXXXXXXXXXXXXXXXXXXXXXXXXXXXX@XoX].$.. O ;.<XS.A.M.2XmXbXU.W.'.(.1.p.y.y.t.t.y.i.1.4.",
"Q.R.bX8X5XhXgXfXg j d l m M Z A A 9 / ! ! ~ E E _ ) , O   $.L.OX@X@XoXXXXXXXXXXXXXXXXXoX@X@XXX].*.o . $ x.kX&XA.m.8XmXnXT.P.E._.<.i.i.q.t.t.y.i.p.7.4.",
"!.mX2X5XhXdXdXh d k r m M N n 8 | 9 ) / ! ! E ! / ) ) 3 % o . #.k.{..XXX+X@X@X@X@XoXXX.X{.j.#.o   # , D.hXrX4XM.B.mXnXMXQ.E.5.2.i.a.y.t.t.a.i.p.1._.Q.",
"R.8X6X>XpXdXj s k r m N n ( ! ! / / 9 ) / ( ( / { X.A { t < % .   o # %.g.j.k.k.h.g.$.+ o   . $ ; J.F.D.x.6X8XV.N.bXMXMX`.5.7.p.i.y.t.t.a.p.p.6.4.E.Y.",
"B.5X>X-XdXg d c m b b n / ( ! ! ! S A A 9 9 9 A A A A Z t ' ` < ; % O . .         . o # & ; > D.Z.S.S.M.4X9XN.c.^.MXMX5.8.7.p.i.q.t.r.y.i.p.6.8.Q.Y.B.",
"5X>X-XdXg d G M b b ( ) / ( ! ! ' S A X.X.X.A S n N M m t ` ` ` ` 2 3 > > , ; , , > 1 iXsXF.D.D.A.x.6X9X2XB.c.^.!.MX5.8.1.1.i.y.t.r.y.i.s.2.,.E.!.bXV.",
">X<XdXg d c M b ! ( 9 S [ ' t b N Z A A A A Z b ' ` r t e e 6 2 2 2 a a a a 2 2 y sXgXgX*XS.S.A.M.4X2X2XmXbXR.^.W.`.8.1.<.i.y.t.r.t.a.p.6.7.`.!.bX9X6X",
"-XdXj k r b Z 0 0 9 A S N t M B M M Z Z V B M t e ` e e e 2 2 2 2 2 a a 2 2 2 Z.D.iX*X<XyX7X5Xm.m.m.B.mXnXNX!.P.(.4.6.1.i.y.t.r.t.a.p.7.7.5.E.R.8XyXyX",
"fXs d m t t 8 9 0 S n M t t m v m r m B B B G e e e e a 2 2 2 2 2 2 u pXsXZ.Z.D.aX*X>XtXrX4XM.v.v.c.^.bXNXMXW.I.,.6.p.i.a.d.r.t.a.i.2.,.(.W.R.1X6XhXpX",
"j d m b ( ( ) 0 S N M m r r r l r r G G D D G k a 2 a i a 2 2 2 2 2 sX;X-X*XaXS.S.S.5X6XwX8XV.c.c.c.Y.MXMXQ.`.,.6.p.i.y.y.r.t.y.i.<.7.4.W.R.bX5XyXaXy ",
"d v M n / ) / 8 b m L k k k p p k D F d a p d H g i g h u 2 2 2 2 Z.iX<X,X>X&XA.A.G.m.8X2X2XB.N.^.^.!.Q.`.`.7.1.i.i.y.y.t.t.y.a.i.1.4.Q.!.bX9XhXpXsXu ",
"v M S +.) ) S N m D d s s j s p s g g g a a g xXz zXzXzXdX2 Z.Z.D.D.aX>XtXyX5Xm.G.G.m.V.1XmXbXR.!.Q.`._.(.<.1.i.e.y.d.t.y.y.a.p.6.4.Q.!.R.8X7XgXdXg K ",
"t ! ) ) ) n M v D F H H z H h j u y u dXpXsXfXjXkXkXjXjXdXZ.D.aXaXS.S.hX6XrX4Xm.G.v.c.N.R.vXNXMXQ.5._.).).<.p.i.y.d.t.y.a.a.i.2.8.E.W.mX9X5XaXsXf d G ",
"! ( ) ) n M t d K z u f jX;XfXjXdXsXdX-XpX;X<XpXpX<X-XgX<XaXS.=X=XS.A.G.M.2X9XV.c.c.U.^.!.NXMX5.5.8.,.<.<.p.a.y.d.t.t.a.a.i.1.,.5.!.^.8X6X=XpXf H r t ",
"( ) ) S A B d s h sX2 D.-XdXpX-X>X,X,X&XD.*X>XS.D.aXS.D.=XrXrXrXrXH.G.v.m.8XmX1X^.U.U.W.Q.Q.5.5.7.7.1.p.i.a.q.t.r.d.a.a.p.6.,.`.MXR.V.4X=X-Xf H G t ! ",
"+.) { V v d j f ;XpXS.&X,X>XaXS.:XtXtX&Xx.=XtX&XA.5XS.A.M.4X4XwXwX5Xv.c.N.R.mXbX!.!.E.`.5.5.8.7.6.1.p.i.i.q.t.r.t.a.i.p.1.,.4.Q.bXB.M.6XpX;XH D r ' ( ",
") S Z C F j y iX<X&X:X:XtXrX4X4X6X5XqXqXqXeXeXqX6XqX4XM.M.m.m.8XwX2XB.N.^.bXNXNXMXQ.5.5.5.8.7.6.p.i.i.i.a.t.r.t.q.i.p.<.(.(.E.^.B.M.5X>XsXg K M Z ( ) ",
"/ Z C F j jXpX*XrX5XM.9X4X4XwX2XV.V.8X8XwX2X8X2XwXwXwX2X2XV.c.B.mXmXmXR.T.MXMXQ.5.5.5.4.,.1.1.p.i.a.a.a.q.t.t.y.a.p.1.<.(.E.U.B.0X5X>XjXh d m b A 9 ) ",
"N M D J fX;X>X6X6XV.B.B.8X3X3X3X3X3Xb.N.3X1Xc.1XwXwXwXwXwX1XN./.R.vXMXMX!.Q.5.5.8.8.7.<.).<.i.i.y.a.a.t.t.t.y.a.i.6.7.(.P.!./.9X5X*XpXjXH r b n ) ) 0 ",
"C P j jX-X=X6X8X3Xb.1X1X3XnXvXY.T.nXvXR.mXnX3X3XwXmX1X3XmXnXvXR.U.W.MXE.P.'.`.8.7.6.7.<.<.i.i.a.a.y.t.t.t.y.a.i.1.7.(.P.Y.mXwX6X&X-Xu a c N n / ( 0 n ",
"c J h ;X,XrX8X1X3XvXvXT.vX~.T.W.E.vXnXb.B.mX3XwXwX2XN.N.R.nXnXbXU.P.Q.E.I.(._.7.7.7.7.s.i.i.q.q.t.t.t.q.y.a.i.1.7.(.I.U.R.2XtXtX<Xu i l B n ) ) / ( t ",
"d h kXlXeXwX3XnX$X$XT.$X>.I.>.Q.W.Y.^.1X2X1XV.2X8X8XB.^.^.bXNXNX!.E.5.4.(.).,.7.1.s.p.p.i.q.t.r.r.t.q.y.a.i.<.,.5.E.!.R.N.4X7X<XfXg F M S / ) | ! b c ",
"z jX,XqX2Xb.!.$X$X>.>.%X5.4.>.Q.R.mXB.8X1X1X1X1XV.B.N.R.!.vXNXMXMX5.4._._.,.1.p.i.i.i.a.y.t.r.r.t.y.y.a.p.<.<.4.MXNXnXB.M.rXaX;Xy D r b X.| ) 9 n B F "
};
