/* XPM */
static const char *Yw__[] = {
/* columns rows colors chars-per-pixel */
"75 75 241 2 ",
"   c #4D006C",
".  c #47006D",
"X  c #52006E",
"o  c #4E0072",
"O  c #550071",
"+  c #5B0373",
"@  c #5E0577",
"#  c #630A79",
"$  c #681774",
"%  c #6E166E",
"&  c #752678",
"*  c #732F74",
"=  c #7C5078",
"-  c #8A3A6A",
";  c #AB585C",
":  c #B76B5A",
">  c #8B4678",
",  c #934977",
"<  c #914F6E",
"1  c #8F6C71",
"2  c #B27C7C",
"3  c #B77A75",
"4  c #AE7173",
"5  c #A15067",
"6  c #CB7557",
"7  c #C37B6A",
"8  c #BDAA5B",
"9  c #BCBA5C",
"0  c #BCB45C",
"q  c #AEAD5A",
"w  c #9E9278",
"e  c #BC896C",
"r  c #BC9C64",
"t  c #B49C6C",
"y  c #BA956A",
"u  c #AD847D",
"i  c #AB8C7C",
"p  c #AD8D77",
"a  c #B68776",
"s  c #AD9476",
"d  c #AC9B75",
"f  c #A6957E",
"g  c #AA947B",
"h  c #A59B7D",
"j  c #A99B7A",
"k  c #B39372",
"l  c #B29A72",
"z  c #A88B63",
"x  c #9EA97D",
"c  c #9CB47C",
"v  c #9DBB78",
"b  c #ADAC6D",
"n  c #AEA36D",
"m  c #BBA364",
"M  c #B5AC65",
"N  c #BBAB63",
"B  c #B3A46B",
"V  c #B2AC6A",
"C  c #B9A769",
"Z  c #ACB46C",
"A  c #ABBB6C",
"S  c #A9BB6C",
"D  c #B4B365",
"F  c #B3BC64",
"G  c #B8B666",
"H  c #ABA374",
"J  c #A5AC75",
"K  c #ABAB72",
"L  c #A4A37B",
"P  c #A3AB7B",
"I  c #A8A478",
"U  c #B1A472",
"Y  c #A5B474",
"T  c #A3BB72",
"R  c #A7B376",
"E  c #B0965D",
"W  c #DA874D",
"Q  c #D3984E",
"!  c #D78752",
"~  c #CC9C54",
"^  c #C8975A",
"/  c #D49452",
"(  c #CB8B5B",
")  c #E38E4A",
"_  c #C3AC5B",
"`  c #C6A759",
"'  c #C4B559",
"]  c #D2A94F",
"[  c #C58866",
"{  c #C49863",
"}  c #C08478",
"|  c #C3AF62",
" . c #B6C85C",
".. c #B8D45A",
"X. c #ACC568",
"o. c #B4C463",
"O. c #A1C172",
"+. c #C3C459",
"@. c #6C1285",
"#. c #73198B",
"$. c #791D92",
"%. c #690E81",
"&. c #7D2296",
"*. c #7E7AAD",
"=. c #7E6EB6",
"-. c #7B65BD",
";. c #766DBE",
":. c #7B6CBB",
">. c #7967BA",
",. c #7D74B5",
"<. c #7D7AB3",
"1. c #7672BC",
"2. c #7A73BA",
"3. c #7678B7",
"4. c #6F76BB",
"5. c #755186",
"6. c #6E5ECE",
"7. c #735FC8",
"8. c #675CD5",
"9. c #6A5DD2",
"0. c #6D62CC",
"q. c #6E6AC5",
"w. c #7465C5",
"e. c #746BC3",
"r. c #7163C9",
"t. c #7667C3",
"y. c #6A60D0",
"u. c #7271C1",
"i. c #84289D",
"p. c #892DA2",
"a. c #8D31A6",
"s. c #9337AC",
"d. c #973AB1",
"f. c #8A5383",
"g. c #9E7D8E",
"h. c #94738C",
"j. c #9A6D9A",
"k. c #9B6D98",
"l. c #8E7D9E",
"z. c #8E779E",
"x. c #9C7394",
"c. c #9B7B94",
"v. c #95749C",
"b. c #9A7399",
"n. c #937B9C",
"m. c #977C98",
"M. c #946C88",
"N. c #AC7683",
"B. c #AA7B84",
"V. c #A4748C",
"C. c #A37B8B",
"Z. c #A77988",
"A. c #B37984",
"S. c #A37392",
"D. c #A27A91",
"F. c #A56B8E",
"G. c #9E42B7",
"H. c #A346BC",
"J. c #866DAD",
"K. c #8B6CAB",
"L. c #8C6AA9",
"P. c #926DA3",
"I. c #8C74A5",
"U. c #857CA6",
"Y. c #8B7CA3",
"T. c #8575AD",
"R. c #8973AA",
"E. c #847BAC",
"W. c #8979A8",
"Q. c #9272A2",
"!. c #907CA0",
"~. c #8364B4",
"^. c #836BB3",
"/. c #8466B5",
"(. c #8273B2",
"). c #817AB1",
"_. c #8872B0",
"`. c #AA4DC4",
"'. c #B356CD",
"]. c #B95BD4",
"[. c #AE51C8",
"{. c #BE61D9",
"}. c #C162DC",
"|. c #CB6CE6",
" X c #CD6EE9",
".X c #C668E1",
"XX c #CF70EA",
"oX c #D272ED",
"OX c #D576F1",
"+X c #7C83AC",
"@X c #7C88A8",
"#X c #7484B1",
"$X c #9D848D",
"%X c #9C8C8C",
"&X c #998B8C",
"*X c #9E9486",
"=X c #9D9C85",
"-X c #95948D",
";X c #9B948B",
":X c #949C8D",
">X c #9A9A8A",
",X c #8D849D",
"<X c #878C9E",
"1X c #8C8B9C",
"2X c #8B8899",
"3X c #958595",
"4X c #9A8392",
"5X c #948C94",
"6X c #998B92",
"7X c #92839A",
"8X c #928A99",
"9X c #998398",
"0X c #8D9395",
"qX c #8C929B",
"wX c #8A9797",
"eX c #939392",
"rX c #929A92",
"tX c #989493",
"yX c #8F9E8E",
"uX c #A58485",
"iX c #AA8382",
"pX c #A48D84",
"aX c #AA8C82",
"sX c #A3838A",
"dX c #A38B8A",
"fX c #A39484",
"gX c #A29B82",
"hX c #A49587",
"jX c #AB8489",
"kX c #9CA383",
"lX c #98A787",
"zX c #8DA88F",
"xX c #A2A583",
"cX c #A0B480",
"vX c #8484A5",
"bX c #8A83A3",
"nX c #848BA3",
"mX c #898BA1",
"MX c #8383AB",
"NX c #8785A9",
"BX c #888CA3",
/* pixels */
"fX>X5X2X<XvX*.*.<.~.,.3.3.+X@XnX,XmX7X1X2X8X7X2X7X,XI.P.W.MXMXE.(.,.2.-.:.;.t.w.r.r.r.0.9.8.8.9.0.0.r.e.u.2.,.MXNXbXbX1XrX:XlXkXL K r G ' ' _ M B J L ",
"C.5X2Xl.vX*.*.,.=.1.1.3.<.+XvX<X<X2Xn.2X2Xm.b.8X<Xl.I.Y.W.T.E.).~.=.2.-.-.e.w.7.7.6.6.9.8.8.9.0.r.r.e.1.2.^.T.NXbXv.n.eX-X>XgXP R A X.o. . .o.Z Y I kX",
"tX3X,XU.*.^.~.1.>.1.4.<.*.U.l.<X,X1X5X3X3X3X8X1X,Xv.Y.W.W.K.T.<.,.:.1.e.e.r.r.0.6.9.8.8.8.9.0.0.w.e.1.3.^.~.K.bX!.b.3X4XZ.B.i Y Y A o... .o.Z e I f B.",
"3X2XP.J.<.-.>.;.;.4.#X*.vX<Xl.2X3X0XeX3X3X3X8X2X7Xl.Y.W.T.T.,.,.2.1.e.e.r.0.0.y.9.8.8.9.0.0.0.r.e.2.2.,.^.K.Y.mX1X1X5XZ.pXf P K Z X. ...0 M O.d h =X-X",
"7XY.L.*.3.-.>.q.4.#X+XU.<X<Xn.0X3XeXrXeX4X4Xm.m.1Xl.I.I.T.<.,.=.:.e.e.w.r.0.0.9.8.8.0.0.0.r.r.e.2.,.3.<.T.W.mXmXqX0XC.B.kXcXI [ V F '  .{ B v c kX%XrX",
",XR.J.3.1.7.q.;.3.+XU.vX2X2X3X5X$X:XyXrX5X3X3X8X1Xn.Y.W.R.).(.:.;.e.w.w.r.6.9.8.9.6.r.0.r.w.e.2.(.(.).T.K.I.mXqXwXeXZ.uXkXP e y X._ 0 X.V n p kXlX-X8X",
"Y.J.~.;.-.w.q.;.,.+XvX2X1X5X5X$X-X;X:X&X&XeX4X3X7Xn.W.R.T.).).=.;.e.e.w.r.y.9.y.0.r.e.w.t.-.:.,.^.K.T.R.P.v.1XqXwX&XN.u P U e Z X. .D A O.d f lX:X0X,X",
"U.J.~.;.;.w.;.,.T.vX2X0XwX-X&X%X;X*X>X;X-XeX4X9X8X7XI.W.E.).,.:.;.e.r.r.0.0.0.0.r.e.e.e.;.>.2.,.J.K.T.W.I.l.1XeXrX%XN.u P R Z D 8 0 { Z Y x lXzXzXwXbX",
"*.,.2.4.e.4.3.+XvX,X7XeX-X%X*X*XfXfXfXlX>X$X6X6X8Xn.Y.W.R.).^.:.e.r.q.r.0.0.6.r.w.e.>.;.:.2.3.<.T.T.MXvXmX<X8Xc.-X>Xu j R T A ( ^ M B U g gX*XzXwX2XY.",
"T.,.;.;.;.3.+XvX2X2X3X-X;X*XgXgXfXfXfXfX*X%X&X4X3Xn.Y.W.T.).,.:.e.r.q.r.0.7.r.w.r.;.-.:.:.=.3.<.E.W.vXnX<XqXeX4X;X>XkXP R T A N M Z R d h =X;XzXwX<XvX",
"*.,.4.1.3.*.U.<X0X5X&X*XpXfXh h h gXfXgX=X*X-X6X3X7X!.I.T.<.,.1.e.w.0.q.q.r.w.e.;.:.:././.^.<.E.R.P.Y.mXqX0XeX;X>XlXh p H Z m F S T Y L kX>X-XwX2XY.vX",
"*.#X4.1.^.U.,X2XeX-X*XpXaXf h L L j f f fXpX;X&X3X8Xn.I.W.E.,.-.-.w.q.q.e.t.e.1.:.:.=.^.^.J.E.MXW.Q.l.<X7X3XC.Z.pXkXi a H y [ V O.v P fXpXzXrXwX<XI.R.",
"+X#X3.*.U.z.7X&X%X*XgXf j j j L L j h h gXpX*X-X5X3Xn.Y.W.T.,.:.>.e.e.t.e.;.1.:.=.,.,.(.T.T.W.W.Y.bX,X7Xx.g.sXB.pXkXL J U [ y n T v c gX*X%X3X0X<XY.@X",
"E.*.*.U.l.7X&X%XuXfXxXh L I d j L j g h gXgX>X;X5X3Xn.Y.R.J.(.3.1.>.1.>.:.3.3.,.,.<.<.T.L.R.MXY.l.<X2Xx.c.6X>XlXlXcXc R y y n Y v v lXlX:X:X5X3X<XnX@X",
"+X+XU.,Xm.c.-X*XfXgXh L I I d s d j g g h kX>X;XeX3Xv.I.W.T.^.,.:.:.:.3.3.3.,.^.^.E.T.W.I.W.nXvX,X8X1X3X3X:XlXlXkXh Y K V Z T v c c kXlX:XyX0X0X2XvXvX",
"nXvX2X3Xc.$X;XfXpXh j j d d d d d H L L L fX*X-XrX5Xn.P.I.MXE.,./.=.3.,.(.<.(.*.E.E.W.vXW.Y.bX,XqX7X4XrXV.%XlX=Xi j J e y S R J x x =X=XlX-X5X0X0XqXvX",
"<X<X0X0X&X;X=XfXg j j s s d H H d s g h kXfXsX$XeXeX1X,XQ.W.MX+X<.<.<.T.J.J.J.E.W.U.Y.bXQ.v.l.2X3X5X9XyX-X>XlXfXf c Y e t H l j L h fXuX:X&X-XrX3X2X<X",
"2X5XeX:X%X*XfXfXh g s s d d H I d s i i =X*XsXC.6XeX1X<XbXbXMX+X+X+X+XK.R.W.L.I.vXbXbXbXv.v.v.0X3X5X4X$X-XlXlXgXh P Y Y t k a a L h kX=XlX:X:XrX5X3X2X",
"3X&X-X;X*XpXpXgXL g i g L d d d I j i aXfX>X&X$X4X3X8X<XmXmXnX@XMXK.MXvXY.nXbXY.mX<X1XqX2X7Xm.3X4XeX&X$X;XlXlXxXf s H T Y J d j j u kX=XlXlX-X&XtXeX0X",
"$X%X$X*X*XfXfXf f j g j j I j j L h fXfXfX>X:XeX5Xc.b.7X<XmXmXnXnXP.P.nXbXY.nX<Xn.,Xn.0XwXx.c.eX5X:X%X;XlXiXgXc P J T T H d J v L x c kXkX=X>X>X>X-X&X",
"&X%XsXfXfXfXgXgXh h g i g j L L L =X=X>X>X;XrXrXrX3Xx.j.,XmXmXnXnXnXQ.bX<Xj.l.qXv.v.7X3X5Xx.S.rXzX:XsXpXlXiXh c v Y Y K a a d c c c c x kXgXgXgX*X;X-X",
"uX*X*XfXfXfXgXgXgXh g g g f h xXgX=X>X>X;X%X%XtXrXeXm.k.b.n.v.<XqXqXqXqXwX8Xm.1X5X5XzXrXD.g.&X-XlX*X*XlXkXaXg L I k k J J R R Y j p L P P x h h kX%XuX",
"uXpX*XpXpXfXpXuXfXfXfXpXaXaXgX=X=X>X>X>X-XsXC.D.6XrXeX9Xm.m.k.b.2X3X8X2X5.5.* & & * 5.h.g.C.C.C.sXuXiXkXx u 2 a a 7 t Y Y H J R d k H P s d P g fX*XuX",
"*X*XfXfXfXpX*XpXpX*XpXpXpXfX*X>X>X;X:X:X-X$XD.S.D.6XrXrXeX8Xx.F.c.f.& + X   X O O X   O $ f.Z.B.B.=XgXh h L j k l t K K K e e Y T Y R R l d I f gXpXuX",
"=X*XfXdX*X;X%X%X%X*X*X*X*X;X;X;X;X-XeXrX-X&XD.S.S.C.5XrXeXeXtXF.& O X @ &.d.`.[.[.H.a.@.X X * Z.A.gXlXf 3 s Y R Y Z t t K [ e Z Z n Z V Z l j h =X*X*X",
"*X*X%X%X*X%X$X%X%X&X;X;X;XtXeX5X6X4X4X5XrXeX4XS.V.V.g.rX&XC.h.$ X + p.]. XoXoXoXoXoXoX.XH.# X $ 2 L c L p s Y T T A t b Z y [ B r y V { y l j h =X=X=X",
"fX%X%X%X&X&X6X5X6X6X6XeXeX5X5X3Xm.c.c.c.4XeXeX$XV.V.V.&X%XF.# X # [.oX X|.|.|.|.|.|.|.|.oX}.#.X & x c c J J T T Z Z A S S V [ [ r F F N y I j h gXfXpX",
"dX*X&X&X5X5X3X3X3X3X5XeX8X1X2X1Xm.b.b.x.x.4XeXtX$XZ.Z.Z.Z.& X %.].oX|.|.|.|.|.|.|.|.|.|.|.oX}.%.X < K Y k e n Z y [ V X.X.X.D { F D m A U d j f pXpXiX",
"*X-X6X4X3X8Xm.m.7X7X1X1X1XmXmXmXl.v.j.j.k.x.4XrX:X;XsXB., O @ '.oX|.|.|.|.|.|.|.|.|.|.|.|.|.oXH.X $ 3 H e 7 e B [ [ C X.X.D 0 o.o.D C r K J j g fXfXpX",
"-XeX3Xm.8X7Xn.!.Y.Y.Y.bXbXvXvXvXbXQ.j.j.k.k.x.5X:X:X*XB.$ X d.oX|.|.|.|.|.|.|.|.|.|.|.|.|.|.|.|.%.O 4 Z B [ r M { { D o.o.^ ( 9 ^ G A t k d h f pXfX>X",
"g.3X3Xn.,XbXbXY.I.R.R.W.MXE.W.MXvXY.Q.j.j.k.x.4X-X:XkXM.X @..X|.|.|.|.|.|. X X.X X|.|.|.|.|.|.oXp.  1 X.A Z A X.F N ^ `  .` _ 0 ^ D S n e s h gX=X>X;X",
"4X8X7XY.Y.Y.W.W.T.T.(.<.).J.J.T.E.MXY.v.j.k.x.c.&X;XkX*   d.oX|.|.|.|.|. X.Xi.# a. X|.|.|.|.|.oXs.  < X.X.X.X.X.o.^ 6 /  ... .F m Z y k a g xXpX*X-X&X",
"8X,XY.Y.W.W.T.).<.,.,.,.=./.~./.J.E.NXbXn.v.x.c.$XdX$X+ @ ]. X|.|.|.|.|.oXi.  X @ }. X|.|.|.|.oXd.  , | X.o.F  . ._ ~ ' ....9 ^ [ r [ d d j gX=X%X&X4X",
"7XbXY.W.T.).).,.2.2.1.1.:.~.~.~./.T.vXmX1X8Xm.C.V.jX,   &. X|.|.|.|.|. X].@ + X @.|.|.|.|.|.|.oXa.  5 ` o.8 8  . ... .' 9  .( ( { B H Y j gXhXuX&X4Xm.",
"bXY.W.T.(.,.,.:.-.;.e.u.;.-.~.~.L.I.bXmX0X5Xc.V.N.A.&   G.oX|.|.|.|.|.oXd.X @ X d.oX|.|.|.|.|. X$.X 4 ' o.' +.......` W ^ F ` m [ e J P L gXpX-XeX3X,X",
"bXW.E.(.:.:.;.t.w.w.r.e.1.,./.K.K.Q.n.8XeX6XC.N.A.N.+ @ }. X|.|.|.|.|.|.#.X + @ ].XX|.|.|.|. X}.@ + E ' n 1 1 1 E ..` ! _ o.A y e k p h gXhX;X6X3X8XY.",
"MXT.).=.-.e.r.w.r.r.w.e.3.<.E.R.P.P.b.c.6X&XsXN.A.,   &.XX|.|.|.|.|.XX'.+ # + @ }. X|.|.|.|.oXG.  * ! - + X     + * M ' m D A y H P j kXgXhXrXeX2XbXvX",
"E._.,.;.e.w.0.0.0.7.t.>.<.E.W.W.P.j.k.S.C.sXsXB.2 &   H.oX|.|.|.|.|.oXs.  < * O G.OX|.|.|.oX}.# O : - o + i.s.p.# o $ V N t V R Y s h uXuX;XtX0XmXnXW.",
"(.(.:.e.w.0.0.0.0.7.-.^.).R.P.P.v.j.k.S.V.B.B.2 4 + # }. X|.|.|.|.|.|.@.O z z O @ H. XoXoX].#.o * : O @ [.oXoXoX{.#.o < G 7 k R L u pXuX:X6X3X1XbXMXT.",
"(.:.e.w.0.y.0.q.e.-.:.(.T.P.P.j.b.x.S.V.N.N.N.a ,   i.oX|.|.|.|.|.XX[.O % ^  .= O O $.a.i.@ o $ 8 -   s.OX|.|.|.oX'.O $ t e d s xXkX*XZ.eX3X,XbXW.T.).",
":.e.r.0.9.9.0.e.2.:./.J.T.Y.v.b.c.x.V.V.N.N.2 3 & X H.oX|.|.|.|.|.oXa.  - / ` ' 1 $ X     + * 8 q O # {. X|.|.|.XX{.+ $ J R p a xXlX;XV.5X1XY.W.T.(.=.",
"e.w.0.9.8.6.r.2.3.^./.R.U.bX2X3Xc.V.V.N.N.2 2 4 + @ }. X|.|.|.|.|..X%.O : W ! ~ ' 8 : 5 ; 6 W ] *   a.oX|.|.|.|.oXH.X * R c h aXaX;X5X3X2XbXbXT.).=.>.",
"w.0.9.8.6.r.:.2.,.(.R.W.bX<X8X3X$XZ.N.N.2 2 a 5 X $.|.|.|.|.|.|.oX[.O % W W W W Q ] Q ) ) W ) ; O # }. X|.|.|.|. X$.X 1 R kXkXiXdXC.3X7Xv.Y.NXJ.,.2.e.",
"6.9.8.9.r.e.,.,.).T.W.bX1X8X3Xg.sXZ.B.2 u 2 e ,   p.oX|.|.|.|.|.oXd.  - ) W W W W Q ~ ! ! W 6 # X H.oX|.|.|.|.oX[.O $ p p gXkXhXtX5X8X<XY.W.E.(.:.e.w.",
"9.9.9.0.w.:.,.).T.I.Y.1X0X5X$XC.Z.iXaXi p k y >   s.oX|.|.|.|.|.oXs.. 5 ) W W W W ! ~ / / 6 $   a.XX|.|.|.|.|.oXi.  > a 2 =XlX:XrX8Xn.Y.W.E.).2.-.w.0.",
"8.0.r.e.;.2.,.T.R.I.,X1XeXtXsXuXuXu i j I H C <   s.oX|.|.|.|.|.oXH.  % W ) W W W W / ^ 5 #   i. X|.|.|.|.|.oX[.O @ u u uX:X%X4X0X7XbXMXE.T.^.>.t.r.9.",
"9.r.e.;.:.^.E.W.Y.,X1XeXtX;XpXiXi u s I K K C <   i.oX|.|.|.|.|.|..X@.X % ; 6 ! 6 : 5 % O O s. X|.|.|.|.|.|.|.@.X = cXgXlX-XV.4XqXbXW.E.(._.:.t.r.6.8.",
"r.e.;.:.^.T.MXbX,X1X5X6XhXgXgXfXi s l K Z b N 4 X #.|.|.|.|.|.|.|.XX].#   O + % + X   O #.[.oX|.|.|.|.|.|.oXs.X $ =XfX>X:XeX3XqXbXP.K.T././.t.r.6.8.8.",
"e.>.:.,.T.R.bXn.7X3X$XdXaXxXxXL d I K b V V M y # O '.oX|.|.|.|.|.|.XX}.s.@.@ + @ @.i.`.|.oX|.|.|.|.|.|.oXH.O + 1 aXN.%XrXwXqXmXY.R.T.^.=.-.w.0.9.8.0.",
"e.=.,.).T.Y.7X7X3X&XsXaXaXL P J R K b B m r r ` -   i.oX|.|.|.|.|.|.|. XoX|.}.].}.|.oXoX|.|.|.|.|.|.|.oX[.+ O 1 hXN.V.5XwXqXmXbXR.T.^.:.;.w.0.9.8.0.w.",
",.,.).W.Y.,X8X6X-X%XfXf L R J K Y Z V r ^ ^ ^ ` : + O [.oX|.|.|.|.|.|.|.|.|. X X X|.|.|.|.|.|.|.|.|.oX`.@ O = lXdXsX6XwXqX<XY.W.L./.:.-.w.0.9.8.9.r.t.",
",.(.T.Y.l.9XtX;XuXuXh L P R Z b Z Z N ^ ( ( / / ] < o # '.oX|.|.|.|.|.|.|.|.|.|.|.|.|.|.|.|.|.|.XX Xd.+ O * lX;XsX4XeXqXmXI.P.W.J.=.;.r.0.y.8.9.0.e.2.",
").T.Y.,X7X6X;XdXiXi j d H b Z V D D 8 ^ ^ / / Q ] ~ - o # [.oX X|.|.|.|.|.|.|.|.|.|.|.|.|.|. XoX'.$.X O = lX;XC.V.c.1XmXbXP.R._.^.>.e.0.0.9.9.0.w.;.,.",
"T.Y.bX7X4XdXhXgXg g d l B V D D F 9 _ ~ ~ ~ Q Q ] ' ~ * o + a.}.oXoX X|.|.|.|.|.|.|.|. XoX X].p.+   # f.xX:X$XV.x.7XmXnXU.L.T.(.-.t.w.6.9.9.0.r.e.3.,.",
"W.bX1X4XdXfXfXh d l t B V M N 0  .9 ' ` ~ ~ Q ~ _ ' _ ^ < +   # p.[.}.|.XXoXoXoXoX X.X].G.$.+   + & N.jXsXeX3Xm.7XmXnXMXT.T.<.:.t.q.0.9.9.r.w.e.:.(.E.",
"Y.7X5X;XpXfXj s k t B C N _ ^ ^ _ _ 9 ' _ ` _ _ ' o.F N ` : & +   O # $.i.a.s.a.i.&.%.+ X   + & , A.A.V.g.5X8Xb.v.bXMXMX).<.3.e.w.0.9.9.r.e.e.1.,.T.I.",
"m.4X-X*XfXg d n B m m N _ ` ^ ( ^ G F F 9 9 9 G F F F D r { [ 4 - % + X           X O # & > 4 N.B.V.C.c.3X8Xb.j.Q.MXMX<.3.3.e.w.6.9.8.0.w.e.1.,.).W.n.",
"4X-X*XfXg d K V m m _ ' _ ` ^ ^ { G F o.o.F F G N M V B y [ [ [ [ 3 4 < , , - > > > 1 uXiXiXN.V.V.g.5X8X1Xn.j.Q.W.MX<.3.:.>.r.0.9.8.0.w.t.:.=.T.W.bXm.",
";X>XfXg d n V m ^ ` 9 G | { r m M G F F F F D m { e t y e [ 7 3 3 3 a a } a 3 2 u iXhXhX%XC.Z.V.c.9X1X<XmXbXY.Q.R.).3.:.-.w.0.9.8.9.r.e.1.3.).W.bX8X5X",
"*XfXj k t m D 0 0 9 F G C r V Z V M D Z A Z V y e [ e e e 3 3 3 3 3 u u 2 2 2 N.B.uX%X>XtX6Xc.x.x.x.n.mXnXNXW.L./.,.1.;.w.0.9.8.9.r.e.2.2.<.T.Y.7XtXtX",
"gXs d B r r 0 9 0 G N M y t B Z B t B Z Z Z K e e e e a 3 3 3 3 3 2 i pXiXB.B.Z.C.%X-XrXrX3Xc.k.k.j.Q.bXNXNXR.J.=.1.u.r.0.y.8.9.r.w.-.=.^.R.Y.,X5XdXdX",
"j d B m ^ _ ' 0 G C M B t y k n y t K K H H J l a 3 a p a 3 3 2 2 2 uX=X*X%XsXC.C.C.4X5X0X8Xb.j.j.j.I.MXMXE.(.=.1.e.r.0.0.8.9.0.w.-.2.,.R.Y.bX9X;XdXu ",
"d b V N _ ' _ 8 m V U k k k k a k H J d a a d L g p g h i 2 2 2 2 N.uX>X:X-X$XV.V.S.x.7X1X1Xn.v.Q.Q.W.E.).).3.;.t.r.0.0.9.9.0.r.t.:.,.E.W.bX8X$XdXiXi ",
"b M G o.' ' D M B H d s s j s a s s g g a a g xXx L xXxXfX2 N.N.N.B.dX;XrXtX4Xx.S.S.b.v.,XmXbXY.W.E.).(.^.=.;.t.7.0.y.9.0.0.r.e.1.,.E.W.Y.8X6XhXfXg I ",
"r ^ ' ' ' N D b H J L L x L h j i u i fXaXaXgXkXlXlXkXkXfXB.B.sXsXsXsX$X5XeX3Xx.S.b.j.v.Y.vXNXMXE.<.(./.~.-.e.r.0.y.9.6.r.r.t.:.,.T.R.mX8X4XsXaXf d K ",
"^ ` ' ' | V t d I x i f kX=XgXkXfXiXfX*XpX=X>XpXpX>X*XhX;XsXC.&X&XC.V.S.m.1X8Xm.b.b.P.Q.W.NXMX<.<.3.=.-.-.t.r.0.y.9.9.r.r.t.>.=.<.W.Y.7X5X&XpXf L y y ",
"` ' ' G D Z d g h uX2 N.*XfXpX*X;X>X>X$XB.%X;XC.Z.$XC.Z.&XeXeXrXeXD.S.k.b.7XmX,XQ.P.P.R.E.E.<.3.3.3.;.e.t.r.6.9.8.y.r.q.e.1.=.).MXY.v.3X&X*Xf L K y ^ ",
"+.' | D b d j f =XpXC.$X>X;XsXC.-XyXrX$Xg.&XrX$XV.4Xg.V.c.3X3X0X0X4Xk.j.v.Y.mXbXW.R.T.(.<.<.3.3.1.;.e.r.r.6.9.8.9.r.r.e.:.=.,.E.bXn.c.5XpX=XL H t ^ ` ",
"' G D S J j u uX>X$X-X-XrXeX3X3X5X4X0X0X0XwXwX0X5X0X3Xc.4Xx.x.8XqX1Xn.v.Q.bXMXNXMXE.<.<.<.3.2.1.e.t.w.w.r.9.8.9.6.w.e.-.^./.T.Q.m.c.4X;XiXg I V D ` ' ",
"_ G T J j kXpX%XeX4Xc.3X3X3X0X1Xm.m.7X7X1X2X7X1XqXqXqX1X1Xv.j.n.mXmXbXY.U.MXMXMX<.<.<.,.=.:.;.e.r.r.r.r.6.9.9.0.r.e.>.-./.T.P.n.9X4X;XkXh d B m F 9 ' ",
"M V H P gX=X-X5X5Xm.n.m.7X2X<X<X2X2Xl.v.<X,Xj.,XqXqXqXqX<X,Xv.!.Y.vXMXMXE.E.).<.3.3.2.:./.-.w.w.0.r.r.9.9.9.0.r.r.1.2.^.J.W.!.8X4X%XpXkXL t m N ' ' 0 ",
"S Y j kX*X&X5X7X2Xl.,X,X<XnXvXI.U.nXvXY.bXnX2X<XqXmX,X2XmXnXvXY.P.I.MXT.J._.).3.3.2.2.-.-.t.w.r.r.0.9.9.9.0.r.t.;.2.^.J.I.mXqX5X$X*Xi a U C N _ ` 0 N ",
"n P h =X:XeX7X,X<XvXU.U.vXR.U.R.T.vXnXl.n.mX<XqXqX1Xv.v.Y.nXnXbXP.L.E.(.~./.(.3.2.2.2.t.t.w.7.6.9.9.9.6.0.r.t.;.3.^.K.P.Y.1XrXrX>Xi p l Z N ' ' _ ` r ",
"d h lXzXyXqX2XnX@X@XU.+X*.J.*.E.I.I.Q.7X1X,Xn.1X7X7Xn.Q.Q.bXNXNXW.T.<.,././.=.2.>.e.e.e.w.7.9.8.8.9.6.0.r.w.-.=.<.T.W.Y.v.8X6X>XgXg J V G _ '  .^ m n ",
"x kX:X0X2Xl.W.@X+X*.*.#X<.,.*.E.Y.bXn.7X2X2X2X,Xb.n.v.Y.W.vXNXMXMX<.,.(.(.=.>.e.t.w.w.r.0.9.8.8.9.0.0.q.e.-.-.,.MXNXnXn.c.5XsX=Xu H t m o. .' 9 N Z J "
};
