/* XPM */
static const char *ZG91YmxlX3BvaW50[] = {
/* columns rows colors chars-per-pixel */
"75 75 250 2 ",
"   c #4D006C",
".  c #53006E",
"X  c #5B026F",
"o  c #4E0071",
"O  c #550071",
"+  c #5C0473",
"@  c #5E1276",
"#  c #630A78",
"$  c #6A1772",
"%  c #742C75",
"&  c #7E5974",
"*  c #87356D",
"=  c #B35E5C",
"-  c #B76559",
";  c #954970",
":  c #A35467",
">  c #BE7C6E",
",  c #BB7368",
"<  c #AE797E",
"1  c #BD7573",
"2  c #BB7B73",
"3  c #B3757C",
"4  c #B37B7B",
"5  c #B87878",
"6  c #B46C72",
"7  c #8F7574",
"8  c #CD7C5C",
"9  c #D37E58",
"0  c #C66F56",
"q  c #CB7A63",
"w  c #C37B6B",
"e  c #C67769",
"r  c #CB7968",
"t  c #BEAA5D",
"y  c #BDB45C",
"u  c #BBBB5C",
"i  c #BEBA57",
"p  c #9D9B79",
"a  c #BD846C",
"s  c #BB8B6C",
"d  c #BF8B66",
"f  c #BC9D64",
"g  c #B49C6C",
"h  c #BA956A",
"j  c #AD847D",
"k  c #AB8C7C",
"l  c #AF8C77",
"z  c #B58374",
"x  c #B38C73",
"c  c #B78476",
"v  c #AD9476",
"b  c #AC9B75",
"n  c #A6957E",
"m  c #AA947B",
"M  c #A59B7D",
"N  c #A99B7A",
"B  c #B39372",
"V  c #B19B72",
"C  c #B79275",
"Z  c #A58568",
"A  c #9DAA7D",
"S  c #9CB67A",
"D  c #9EA769",
"F  c #ADAC6D",
"G  c #AFA46E",
"H  c #BBA364",
"J  c #BBAB63",
"K  c #B3A36B",
"L  c #B2AC6A",
"P  c #B7AA66",
"I  c #ACB46C",
"U  c #ACBC6C",
"Y  c #A9BA6C",
"T  c #B4B365",
"R  c #BCB364",
"E  c #B3BB64",
"W  c #B6B867",
"Q  c #ABA374",
"!  c #A5AC75",
"~  c #ABAB72",
"^  c #A4A37B",
"/  c #A3AB7B",
"(  c #A8A578",
")  c #B1A472",
"_  c #A5B474",
"`  c #A5B675",
"'  c #DA844C",
"]  c #D88B4D",
"[  c #D3964E",
"{  c #CC885B",
"}  c #D48354",
"|  c #D28B53",
" . c #D68756",
".. c #CC9C54",
"X. c #CA935B",
"o. c #C49C5C",
"O. c #CB9458",
"+. c #D29452",
"@. c #CF9D4F",
"#. c #E18A4E",
"$. c #C3AC5B",
"%. c #C6A758",
"&. c #C3B35B",
"*. c #C4B656",
"=. c #CFA04F",
"-. c #CB8363",
";. c #C58865",
":. c #C49862",
">. c #CC8369",
",. c #C2A563",
"<. c #C0B461",
"1. c #B4CB5C",
"2. c #B9C55B",
"3. c #B6D15C",
"4. c #ACC36B",
"5. c #ACC566",
"6. c #B2C362",
"7. c #B2CB64",
"8. c #B5C467",
"9. c #ADC96B",
"0. c #C4C15A",
"q. c #71168A",
"w. c #7C2095",
"e. c #7A5686",
"r. c #7E7AAD",
"t. c #7E6EB6",
"y. c #7B65BD",
"u. c #766DBE",
"i. c #7B6CBB",
"p. c #7967BA",
"a. c #7D74B5",
"s. c #7D7AB3",
"d. c #7672BC",
"f. c #7A73BA",
"g. c #7678B7",
"h. c #6F76BB",
"j. c #6E5ECE",
"k. c #735FC8",
"l. c #675CD5",
"z. c #6A5DD2",
"x. c #6D62CC",
"c. c #6E6AC5",
"v. c #7465C5",
"b. c #746BC3",
"n. c #7163C9",
"m. c #7667C3",
"M. c #6A60D0",
"N. c #7271C1",
"B. c #852A9D",
"V. c #9035A9",
"C. c #9E7C8D",
"Z. c #9A6D9A",
"A. c #9B6D98",
"S. c #8E7D9E",
"D. c #8E779E",
"F. c #9C7494",
"G. c #9B7B93",
"H. c #95749C",
"J. c #9A739A",
"K. c #937B9C",
"L. c #977C98",
"P. c #916B88",
"I. c #AC7583",
"U. c #AB7B84",
"Y. c #A5748D",
"T. c #A37B8B",
"R. c #A87888",
"E. c #B27582",
"W. c #A37392",
"Q. c #A27A91",
"!. c #A86C8E",
"~. c #866DAD",
"^. c #8B6CAB",
"/. c #8C6AA9",
"(. c #926DA3",
"). c #8C74A5",
"_. c #857CA6",
"`. c #8B7CA3",
"'. c #8575AD",
"]. c #8973AA",
"[. c #847BAC",
"{. c #8979A8",
"}. c #9272A2",
"|. c #907CA0",
" X c #8364B4",
".X c #836BB3",
"XX c #8466B5",
"oX c #8273B2",
"OX c #817AB1",
"+X c #8872B0",
"@X c #9A4AAA",
"#X c #AF52CA",
"$X c #C264DD",
"%X c #CB6CE6",
"&X c #CB6CE6",
"*X c #D272ED",
"=X c #D575F0",
"-X c #7C84AA",
";X c #7484B1",
":X c #9D848D",
">X c #9C8C8C",
",X c #988D8C",
"<X c #9E9486",
"1X c #9D9C85",
"2X c #95948D",
"3X c #9B938B",
"4X c #959C8C",
"5X c #9B9A8A",
"6X c #8D849D",
"7X c #878C9E",
"8X c #8C8B9C",
"9X c #8B8999",
"0X c #958595",
"qX c #9A8492",
"wX c #948C94",
"eX c #998B92",
"rX c #92839A",
"tX c #928A99",
"yX c #998398",
"uX c #8D9395",
"iX c #8D9B93",
"pX c #8C929B",
"aX c #87949C",
"sX c #939393",
"dX c #929992",
"fX c #989593",
"gX c #8F9E8E",
"hX c #A58485",
"jX c #AA8482",
"kX c #A48D84",
"lX c #AA8C82",
"zX c #A3838A",
"xX c #A48A8A",
"cX c #A39484",
"vX c #A29B82",
"bX c #A49587",
"nX c #A18791",
"mX c #9CA383",
"MX c #9BAA81",
"NX c #96A688",
"BX c #8EA98D",
"VX c #A1A482",
"CX c #A0B480",
"ZX c #8484A5",
"AX c #8A83A3",
"SX c #858BA3",
"DX c #898BA1",
"FX c #8383AB",
"GX c #8785A9",
"HX c #888CA3",
/* pixels */
"cX5XwX9X7XZXr.r.s. Xa.g.g.-X-XSX6XDXrX8X9XtXrX9XrX6X).(.{.FXFX[.oXa.f.y.i.u.m.v.n.n.n.x.z.l.l.z.x.x.n.b.N.f.a.FXGXAXAX8XdX4XNXmX^ ~ f W &.*.$.P K ! ^ ",
"T.wX9XS.ZXr.r.a.t.d.d.g.s.-XZX7X7X9XL.9X9XL.J.tX7XS.).`.{.'.[.OX Xt.f.y.y.b.v.k.k.j.j.z.l.l.z.x.n.n.b.d.f..X'.GXAXH.L.sX2X5XvX/ _ Y 4.7.3.1.6.I _ ^ mX",
"fX0X6X_.r..Xy.d.p.d.g.s.r._.`.7X6X8XwX0X0X0XtX8X6XH.`.{.{.^.'.s.a.i.d.b.b.n.n.x.j.z.l.l.l.z.x.x.v.b.d.g..X X^.AX|.J.0XqXR.U.k _ _ W 6.3.1.6.T s ( n U.",
"0X9X(.~.s.y.p.u.u.h.;Xr.ZX7XS.9X0XuXsX0X0X0XtX9XrXS.`.{.'.'.a.a.f.d.b.b.n.x.x.M.z.l.l.z.x.x.x.n.b.f.f.a..X^.`.DX8X8XwXR.kXcX/ ~ I 5.1.3.y P 4.b M 1X3X",
"rX`./.r.g.y.p.c.h.;X-X_.7X7XL.uX0XsXdXsXqXqXL.L.8XS.).{.'.s.a.t.i.b.b.v.n.x.x.z.l.l.x.x.x.n.n.b.f.a.g.s.'.{.DXDXpXuXT.U.mXCX( ;.L E &.1.:.K S S mX>XdX",
"6X].~.g.d.k.c.u.g.;X_.ZX9X9X0XwX:X4XiXdXwX0X0XtX8XK.`.{.].OXoXi.u.b.v.v.n.j.z.l.z.j.n.x.n.v.b.f.oXoXOX'.^.).DXpXpXsXR.hXMX/ s h 5.t t 5.L G l MXNX2XtX",
"`.~. Xu.y.v.c.u.a.-XZX9X8XwXwX:X2X3X4X>X,XsXqX0XrXH.{.].'.[.OXt.u.b.b.v.n.M.z.M.x.n.b.v.m.y.i.a..X^.'.].(.H.8XpXiX>XI.j / ) s I 7.1.T U 4.b n NX4XuX6X",
"_.~. Xu.u.v.u.a.'.ZX9XuXiX2X>X>X3X<X5X3X3XsXqXyXtXrX).{.[.OXa.i.u.b.n.n.x.x.x.x.n.b.b.b.u.p.f.a.~.^.'.{.).S.8XsXdX>XI.j / ` I T t y ;.I ` A NXBXgXaXAX",
"r.a.f.h.b.h.g.-XZX6XrXsX2X>X<X<XcXcXcXNX5X:XeXeXtXK.`.{.].OX.Xi.b.n.c.n.x.x.j.n.v.b.p.u.i.f.g.s.'.'.FXZXDX7XtXG.3X5Xj N ` ` Y X.o.P K ) m vX<XBXiX9X_.",
"'.a.u.u.u.g.-XZX9X9X0X,X3X<XvXvXcXcXcXcX<X>X,XqX0XK.`.{.'.OXa.i.b.n.c.n.x.k.n.v.n.u.y.i.i.t.g.s.[.{.ZXSX7XpXsXqX3X5XmX/ ! 4.U J P I _ N M 1X3XBXuX7XZX",
"r.a.h.d.g.r._.7XuXwX>X<XkXcXM M M vXcXvX1X<X3XeX0XrX|.).'.s.a.d.b.v.x.c.c.n.v.b.u.i.i.XXXX.Xs.[.].(.`.DXpXuXsX3X5XNXM x Q I H E Y Y _ ^ mX5X2XiX9X`.ZX",
"r.;Xh.d..X_.6X9XsX2X<XkXlXn M ^ ^ N n n cXkX3X,X0XtXK.).{.[.a.y.y.v.c.c.b.m.b.d.i.i.t..X.X~.[.FX{.}.S.7XrX0XT.U.kXmXk z Q h -.L 4.S / cXkXBXdXiX8X).].",
"-X;Xg.r._.D.rX,X>X<XvXn N N N ^ ^ N M M vXkX<X3XwX0XK.`.{.'.a.i.p.b.b.m.b.u.d.i.t.a.a.oX'.'.{.{.`.AX6XrXF.C.zXU.kXmX^ ! ) ;.d G ` S S vX<X3X0XuX7X`.-X",
"[.r.r._.S.rX,X>XhXcXVXM ^ ( b N ^ N m M vXvX5X3XwX0XK.`.].~.oXg.d.p.d.p.i.g.g.a.a.s.s.'./.].FX`.S.7X9XF.G.eX5XNXMXCXS _ g h F _ S S MXNX4X4XwX0X7XSX-X",
"-X-X_.6XL.G.3X<XcXvXM ^ ( ( b v b N m m M mX5X3XsX0XH.).{.'..Xa.i.i.i.g.g.g.a..X.X[.'.{.].{.SXZX6XtX8X0X0X4XNXNXmXM _ ~ L I ` S S S MXNX4XgXuXuX9XZXZX",
"SXZX9X0XG.:X3XcXkXM N N b b b b b ( ^ ^ ^ cX<X2XdXwXK.(.).FX[.a.XXt.g.a.oXs.oXr.[.[.{.ZX{.`.AX6XpXrXqXdXY.>XBX1Xk N ! a h ` _ ! A A 1X1XNX2XwXuXuX7XZX",
"7XaXuXuX,X3X1XcXm N N v v b Q Q b v m M mXcXzX:XsXsX8X6X}.{.FX-Xs.s.s.'.~.~.~.[.{._.`.AX}.H.S.9X0XwXyXiX2X5XNXcXn S _ s g Q V N ^ M cXhX4X>X2XiX0X9X7X",
"9XwXsX4X>X<XcXcXM m v v b b Q ( b v k k 1X<XzXT.eXsX8X7XAXAXFX-X-X-X-X^.].]./.].ZXAXAXAXH.H.H.uX0XwXqX:X2XBXNXvXM / _ ` g C x z M M mX1XNX4X4XdXwX0X9X",
"0X,X2X3X<XkXkXvX^ m k m ^ b b b ( N k lXcX5X,X:XqX0XtX7XDXDXSX-XFX^.FXZX`.SXZX`.DX7X8XpX9XrXL.0XqXsX,X:X3XNXNXVXm B G ` _ ! b N N j mX1XNXNX2X,XfXsXuX",
":X>X:X<X<XcXcXn n N m N N ( N N ^ M cXcXcX5X4XsXwXG.J.rX7XDXDXSXSX(.(.SXAX`.aX7XK.6XL.uXpXF.G.sXwX4X>X3XNXjXvXS / ! ` ` Q b ! S ^ A CXmXmX1X5X5X5X3X,X",
",X>XzXcXcXcXvXvXM M m k m N ^ ^ ^ 1X1X5X3X3XdXdXdX0XF.Z.6XDXDXSXSXSX}.AX8XZ.K.aXH.H.rX0XwXF.W.dXBX4XzXkXNXjXM S S ` _ ~ x x b S S S S A MXvXvXvX<X3X2X",
"hX<X<XcXcXcXvXvXvXM m m m n M VXvX1X5X5X3X>X>XfXdXsXL.A.J.K.H.8X7X7X7X7XaXtXJ.9XsXsXBXdXQ.C.>X2XNX<X<XNXmXlXm ^ ( C B ! ! _ _ ` N x ^ / / A M M mX>XhX",
"hXkX<XkXkXcXkXhXcXcXcXkXlXlXvX1X5X5X5X5X3XzXT.Q.eXdXsXyXL.L.Z.J.9XrX9XiXiXiXdX0XP.e.e.e.P.T.zXR.zXhXjXmXA j 4 c c w g _ _ Q ! _ b x Q / v b / m cX<XhX",
"<X<XcXcXcXkX<XkXkX<XkXkXkXcX<X5X5X3X4X4X2X:XQ.W.Q.eXiXdXsXtXF.!.F.F.W.wXiXfXP.$ X     . + % C.U.U.1XvXM M ^ N B V V ~ ~ ~ a s _ ` _ _ ` V b ( n vXkXhX",
"1X<XcXbX<X3X>X>X>X<X<X<X<X3X3X3X3X3XsXdX2XeXQ.W.W.T.wXiXsXsXwXW.W.C.!.Y.5XP.+ . q.V.V.B.# . $ R.E.vXMXn 5 v _ _ _ I g g ~ ;.s I I K I L I V N M 1X<X<X",
"<X<X>X>X<X>X:X>X>X,X3X3X3XfXsXwXeXqXqXwXdXsXqXW.Y.Y.C.dXeXT.qX3XzX>X:XI.C.@ . V.%X*X*X*X#Xw.. % j M S ^ x v ` ` Y Y g F I h ;.K f h L :.h V N M 1X1X1X",
"cX>X>X>X,X,XeXwXeXeXeXsXsXwXwX0XL.G.G.G.qXsXsX:XY.Y.Y.>X>XY.!.>X4X4X4XcX%   B.*X&X%X%X%X*X$Xq.. 7 ` S S ! ! ` Y I I Y Y Y L ;.-.f E E L h ( N M vXcXkX",
"bX<X>X>XwXwX0X0X0X0XwXsXtX8X9X8XL.J.J.F.F.qXsXfX:XR.R.R.R.R.I.I.1XNXNXMX$ O #X*X%X%X%X%X%X*XV.  % C ( _ B s G I h ;.L 4.4.4.T :.T T H U ) b N n kXkXjX",
"<X2XeXqX0XtXL.L.rXrX8X8X8XDXDXDXS.H.Z.Z.A.F.qXdX4X3XzXI.I.I.I.3 j MXCXA + # %X&X%X%X%X%X%X*X#XO % w 2 Q a e d K -.-.P 5.5.T t 6.7.T P h ~ ! N n cXcXkX",
"3XsX0XL.tXrXK.|.`.`.`.AXAXZXZXZXAX}.Z.Z.A.A.F.wX4X4X<XU.E.E.3 3 4 M A p + + $X&X%X%X%X%X%X*X#X. % B a ~ K ;.f L :.:.T 5.6.O.| u o.T U g B b M n kXcX5X",
"C.0X0XK.6XAXAX`.).].].{.FX[.{.FXZX`.}.Z.Z.A.F.qX2XNX5XhX3 3 6 1 5 z b v % . #X*X%X%X%X%X%X*XV.  & 4.I 4.Y I U 4.E J X.%.2.%.$.y X.W Y G a v M vX1X5X3X",
"qXtXrX`.`.`.{.{.'.'.oXs.OX~.~.'.[.FX`.H.Z.A.F.G.,X5X1XvX< 3 1 1 1 1 z h ;   q.%X*X%X%X&X*X#X+ O 6 h K 4.4.4.5.5.6.o.9 +.2.1.1.E J I h B x m mXkX<X3X>X",
"tX6X`.`.{.{.'.OXs.a.a.a.t.XX XXX~.[.GXAXK.H.F.G.:XxXkXvXk 4 1 1 e e e a , $   q.#X%X%X%X@X# o * ;.q -.J 9.6.E 6.1.$.+.*.1.1.u o.;.f ;.b N N vX5X>X>XqX",
"rXAX`.{.'.OXOXa.f.f.d.d.i. X X XXX'.ZXDX8XtXL.T.Y.R.U.j k c 1 e e e e w ;., $ o O q.q.# . O % L :.q q :.8.t t 1.1.1.2.*.u 2.X.{ ;.K Q _ N vXlXhX,XqXL.",
"AX`.{.'.oXa.a.i.y.u.b.N.u.y. X X/.).AXDXuXwXG.Y.R.E.E.4 c c 2 e e r r q ;.-.r * # O . + % 7 R 5.W :.:.R 8.%.u 1.3.3.%.' ..u ,.H ;.s ! / ^ vXkX3XsX0X6X",
"AX{.[.oXi.i.u.m.v.v.n.b.d.a.XX^.^.}.K.tXsXeXT.R.E.E.3 5 2 2 w e r q q q -.:.-. .-.Z Z D 4.7.7.7.E t %.y 2.2.u *.*.1.%.| %.6.U h s B x M vXbX3XeX0X9X`.",
"FX'.OXt.y.b.n.v.n.n.v.b.g.s.[.].(.(.J.G.eX,XzXI.E.3 5 1 1 w e r q q 8 { { ,.,.:.:.<.7.7.7.7.7.6.%.| } | &.2.@.] [ u 8.<.J W I h Q / N mXvXbXdXsX9XAXZX",
"[.+Xa.u.b.v.x.x.x.k.m.p.s.[.{.{.(.Z.A.W.T.zXhXU.3 5 1 1 e e e q q 8 8 { X.%.W R R E 6.7.7.7.7.2...} ' ' [ *.] ' | y 7.W H H K _ _ v M hXhX3XsXuXDXSX{.",
"oXoXi.b.v.x.x.x.x.k.y..XOX].(.(.H.Z.A.W.Y.R.U.U.3 5 1 e w e q q q 8 8 { X.t 6.7.6.1.2.2.1.1.3.1.%.] ' ' [ *...| +.o.R 4.K w g ` ^ k kXhX4XeX0X8XAXFX'.",
"oXi.b.v.x.M.x.c.b.y.i.oX'.(.(.Z.J.F.W.Y.R.I.U.4 3 5 w e e e q 8 8 9 9 9 | %.u 6.1.2.y $.$.*.2.1.0.=.] ] =.2.u %.{  .,.U K a b v VXmX<XR.sX0X6XAX{.'.OX",
"i.b.n.x.z.z.x.b.f.i.XX~.'.`.H.J.G.F.Y.Y.I.E.3 4 5 2 w e e q 8 8 8 9 9 9 } +.%.&.2.*.=.+.] [ =.*.2.2.*.$.2.6.u o.{ ;.:.g _ ! x c VXNX3XY.wX8X`.{.'.oXt.",
"b.v.x.z.l.j.n.f.g..XXX]._.AX9X0XG.Y.Y.I.I.3 4 2 2 > w e q q 8 8 9 9 9 } } | | ..*.*.[ ] ' ' ] ..i 1.1.1.7.8.o.:.H ;.r s _ / M lXlX3XwX0X9XAXAX'.OXt.p.",
"v.x.z.l.j.n.i.f.a.oX].{.AX8XtX0X:XR.I.I.4 4 4 2 > w w q q 8 8 9 } } } ' ' ' ' ] @.%.[ ] ' ' ' | $.2.7.7.7.W J I I d a b / MXmXjXxXT.0XrXH.`.GX~.a.f.b.",
"j.z.l.z.n.b.a.a.OX'.{.AX8XtX0XC.zXhXU.4 j c z > w w -.q 8 { } 9 } ' #.#.' ' ' ' ] [ [ ] ' }  .| %.6.7.7.9.4.U I K V ( N j vXmXbXfXwXtX8X`.{.[.oXi.b.v.",
"z.z.z.x.v.i.a.OX'.].`.8XuXwX:XT.U.jXk k l B x a ;.>.-.-.8 } } ] ' 0 - - 9 #.#.' ' ] +.+.}  . .X.t 6.5.9.4.4.F s > x N 4 3 1XNX5XdXtXK.`.{.[.OXf.y.v.x.",
"l.x.n.b.u.f.a.'.].).6X8XsXfXzXhXjXj k N ( Q V s ;.;.-.-.{ } ] = % X . . + * 0 #. .} | O.O.X.X.,.T 4.4.4.4.` g > 1 z N j kX4X>XqXuXrXAXFX[.'..Xp.m.n.z.",
"z.n.b.u.i..X[.{.`.6X8XsXfX3XkXjXj j v ( ~ I K h ;.-.{  . .] : O   # q.q.+ o + = #.} | O.,.,.,.R U I L L I _ b c c M mXvXNX3XY.qXpXAX{.[.oX+Xi.m.n.j.l.",
"n.b.u.i..X'.FXAX6X8XwXeXbXvXvXcXl v V ~ I I K f ;.{  . .] = O + V.$X%X%X#XB.O + 0  .{ X.J W W U I g s s B ( / N ^ 1XcX5X4XsX0XpXAX(.^.'.XXXXm.n.j.l.l.",
"b.p.i.a.'.].AXK.rX0X:XxXlXVXVX^ b ( ~ F L L P :.X.{ | | } $ O V.*X&X%X%X&X*XB.o * { { ;.f W U I K a w w 2 v A MXvXjXI.>XdXpXpXDX`.].'..Xt.y.v.x.z.l.x.",
"b.t.a.OX'.`.rXrX0X>XzXlXcX^ / ! _ ~ F K H f H o.X.| | ] - O q.%X&X%X%X%X%X&X$X# + , -.;.f F I ~ g a > 2 2 m MXNXkXE.Y.wXpXpXDXAX].'..Xi.u.v.x.z.l.x.v.",
"a.a.OX{.`.6XtXeX3X>XcXn ^ / ! ~ _ I L f X.X.X.o...+.| [ :   B.*X%X%X%X%X%X%X&Xw.. : -.;.h K g V B c 2 2 j M NXNXbXzXeXpXpX8X`.`./.XXi.y.v.x.z.l.z.n.m.",
"a.oX'.`.S.yXfX3XhXhXM ^ / _ I F I L P o.X.X.+.+...+.| [ :   V.*X%X%X%X%X%X%X&Xw.. : -.w a a a c z z z j cXmXNX3XzXqXsXpXDX).(.{.~.t.u.n.x.M.l.z.x.b.f.",
"OX'.`.6XrXeX3XbXjXk N b Q F I L W T t O.O.+.+.[ =.@.+.[ = . q.&X%X%X%X%X%X&X%Xq.+ 6 w > > 2 2 2 2 4 k vXmXNX3XT.Y.G.8XDXAX(.].+X.Xp.b.x.x.z.z.x.v.u.a.",
"'.`.AXrXqXxXbXvXm m b V K L T W E u $.......[ [ =.$...+.{ # O #X=X%X%X%X%X=XV.. $ > > 2 2 2 5 5 3 3 jXcXbX4XqXW.F.rXDXSX_./.'.oXy.m.v.j.z.z.x.n.b.g.a.",
"{.AX8XqXxXcXcXM b V g K L P J y 2.u &.%.....[ ..$.&.$.o.O.: O # #X&X*X*X&X@X+ O : >.2 2 2 5 3 3 3 E.U.U.zXsX0XG.rXDXSXFX'.'.s.i.m.c.x.z.z.n.v.b.i.oX[.",
"`.rXwX3XkXcXN v B g K H J %.o.O.$.&.u &.$.%.%.$.<.8.E J :.;.* o O w.V.V.q.. O * 2 5 2 5 5 5 3 3 I.U.R.Y.T.wXtXJ.H.AXFXFXOXs.g.b.v.x.z.z.n.b.b.d.a.'.).",
"L.qX3X<XcXm b G K H H J $.%.o.X.o.R E E u u u W E E E T f ;.;.; # .     . # ; 2 5 4 c c 4 E.I.I.I.R.T.G.0XtXJ.Z.}.FXFXs.g.g.b.v.j.z.l.x.v.b.d.a.OX{.K.",
"qX3X<XcXm b Q L H J %.&.$.%.o.o.:.R E 6.6.6.E R J P L K h ;.;.;., : ; ; : 5 2 3 4 4 lXlXjXU.I.Y.Y.G.wXtX8XK.Z.}.{.FXs.g.i.p.n.x.z.l.x.v.m.i.t.'.{.AXL.",
"3X5XcXm b G L H o.%.u R ,.:.f H P T E E E E T H :.d g h a a w > 2 a a c c 5 3 3 < U.kX5X>XT.T.Y.G.yX8X7XDXAX`.}.].OXg.i.y.v.x.z.l.z.n.b.d.g.OX{.AXtXwX",
"<XcXN B g H T y y u W R P f L I L L T I U I L h d ;.s a a > 2 2 2 4 j j 4 < < I.U.hX<X4XfXeXqXF.F.F.K.DXSXGX{./.XXa.d.u.v.x.z.l.z.n.b.f.f.s.'.`.rXsXfX",
"vXv b K f f y u y R J L h h K F K g K I I I ~ s a a a z c 2 2 5 5 4 k kXjXjXU.U.T.>X3XdXdX0XG.A.A.Z.}.AXGXGX].~.t.d.N.n.x.M.l.z.n.v.y.t..X].`.6XwXxXxX",
"N b K H ,.$.&.y T P L K g g B g g g ~ ~ Q Q ! V c 2 z l c 4 5 4 3 < hX1X<XxXzXT.T.T.qXwXuXtXJ.Z.Z.Z.).FXFX[.oXt.d.b.n.x.x.l.z.x.v.y.f.a.].`.AXyX3XxXj ",
"b F L R $.*.$.t H L ) B B B x x B Q ! b z x N ^ m l m M k j 3 3 < I.hX5X4X2X:XY.Y.W.F.rX8X8XK.H.}.}.{.[.OXOXg.u.m.n.x.x.z.z.x.n.m.i.a.[.{.AXtXnXxXjXk ",
"F L R 8.*.&.R P K Q b v v N v x v v m m c c m VXMXVXmXVXcX4 U.U.I.U.xX3XdXfXqXF.W.W.J.H.6XDXAX`.{.[.OXoX.Xt.u.m.k.x.M.z.x.x.n.b.d.a.[.{.`.tXeXbXcXm ( ",
"f X.&.*.&.J L F Q ! ^ ^ A ^ M N k j k cXlXlXvXmXNXNXmXmXcXU.U.zXzXzXzXnXwXsX0XF.W.J.Z.H.`.ZXGXFX[.s.oXXX Xy.b.n.x.M.z.j.n.n.m.i.a.'.].DXtXqXzXlXn b ~ ",
"o.%.*.*.J L g b ( A k n mX1XvXmXcXjXcX<XkX1X5XkXkX5X<XbX3XzXT.,X,XT.Y.W.L.8XtXL.J.J.(.}.{.GXFXs.s.g.t.y.y.m.n.x.M.z.z.n.n.m.p.t.s.{.`.rXwX,XkXn ^ g h ",
"%.*.*.R W I b v M hX< I.<XcXkX<X3X5X5X:XR.>X2XT.R.:XT.R.,XsXsXdXsXQ.W.A.J.rXDX6X}.(.(.].[.[.s.g.g.g.u.b.m.n.j.z.l.M.n.c.b.d.t.OXFX`.H.0X>X<Xn ^ ~ f o.",
"0.*.<.W F b N n 1XkXT.:X5X3XzXT.2XiXdX:XC.,XdX:XY.qXC.Y.G.0X0XuXuXqXA.Z.H.`.DXAX{.].'.oXs.s.g.g.d.u.b.n.n.j.z.l.z.n.n.b.i.t.a.[.AXK.G.wXkX1X^ Q g o.%.",
"*.R T Y ! N j hX5X:X2X2XdXsX0X0XwXqXuXuXuXuXiXuXwXuX0XG.qXF.F.tXpX8XK.H.}.AXFXGXFX[.s.s.s.g.f.d.b.m.v.v.n.z.l.z.j.v.b.y..XXX'.}.L.G.qX3XjXm ( L P %.*.",
"$.T Y ! N MXkX>XsXqXG.0X0X0XuX8XL.L.rXrX8X9XrX8XpXpXpX8X8XH.Z.K.DXDXAX`._.FXFXFXs.s.s.a.t.i.u.b.n.n.n.n.j.z.z.x.n.b.p.y.XX'.(.K.yXqX3XmXM b K H E u *.",
"P L Q / vX1X3XwXwXL.K.L.rX9X7X7X9X9XS.H.8X6XZ.6X7XpXpXpX7X6XH.|.`.ZXFXFX[.[.OXs.g.g.f.i.XXy.v.v.x.n.n.z.z.z.x.n.n.d.f..X~.{.|.tXqX>XkXmX^ g H J &.*.y ",
"Y _ N mX<X,XwXrX9XS.6X6X7XSXZX)._.SXZX`.AXDX9X8XpXDX6X9XDXSXZX`.(.].FX'.~.+XOXg.g.f.f.y.y.m.v.n.n.x.z.z.z.x.n.m.u.f..X~.).DXpXwX:X<Xk z ) P J $.%.y J ",
"G / M 1X4XsXrX6X7XZXZX_.ZX]._.].'.FXSXS.K.DX8XpXpX8XH.H.AXSXSXAX(./.[.oX XXXoXg.f.f.f.m.m.v.k.j.z.z.z.j.x.n.m.u.g..X^.(.`.8XdXdX5Xk l V I R &.*.$.%.f ",
"b M NXBXiXpX9XSX-X-X_.-Xr.~.r.[.].).}.6X8X6XL.8XrXrXK.H.}.AXGXGX{.'.s.a.XXXXt.f.p.b.b.b.v.k.z.l.l.z.j.x.n.v.y.t.s.'.{.`.H.tXeX5XvXm ! L W $.*.1.o.H G ",
"A mX4XuX9XS.{.-X-Xr.r.;Xs.a.r.[.`.AXK.rX9X9X6X6XJ.K.H.`.{.ZXGXFXFXs.a.oXoXt.p.b.m.v.v.n.x.z.l.l.z.x.x.c.b.y.y.a.FXGXSXK.G.wXzX1Xj Q g H 8.2.*.u J I ! "
};
