/* XPM */
static const char *ZQ__[] = {
/* columns rows colors chars-per-pixel */
"75 75 241 2 ",
"   c #4D006C",
".  c #53006D",
"X  c #4D0071",
"o  c #550071",
"O  c #5A0273",
"+  c #5C0676",
"@  c #6C176E",
"#  c #741D6C",
"$  c #630A79",
"%  c #671674",
"&  c #670E6F",
"*  c #732675",
"=  c #753075",
"-  c #853471",
";  c #B96F5C",
":  c #914E73",
">  c #A45B71",
",  c #916C77",
"<  c #B27C7C",
"1  c #B77A75",
"2  c #B27471",
"3  c #A5545F",
"4  c #CF7A57",
"5  c #C37C6A",
"6  c #BC8D5B",
"7  c #BEAA5C",
"8  c #BCBA5C",
"9  c #BCB55B",
"0  c #9A9676",
"q  c #BC886B",
"w  c #B49B6C",
"e  c #BA9769",
"r  c #AD847D",
"t  c #AB8C7C",
"y  c #AF8C77",
"u  c #B38C74",
"i  c #B78476",
"p  c #AD9476",
"a  c #AC9B75",
"s  c #A5957E",
"d  c #AA947B",
"f  c #A59B7D",
"g  c #A99B7A",
"h  c #B39372",
"j  c #B19B72",
"k  c #B09179",
"l  c #A38F68",
"z  c #9EA97D",
"x  c #9CB77A",
"c  c #ADAC6D",
"v  c #AFA46E",
"b  c #BBA364",
"n  c #BBAB63",
"m  c #B3A46B",
"M  c #B2AC6A",
"N  c #B7AA66",
"B  c #ACB46C",
"V  c #ABBB6B",
"C  c #A8B86C",
"Z  c #B4B364",
"A  c #BCB363",
"S  c #B3BC64",
"D  c #B6B866",
"F  c #ABA374",
"G  c #A5AC75",
"H  c #ABAB72",
"J  c #A4A37B",
"K  c #A3AB7B",
"L  c #A8A478",
"P  c #B1A472",
"I  c #A5B474",
"U  c #A3BB72",
"Y  c #A6B577",
"T  c #CB8C5A",
"R  c #C99859",
"E  c #D29150",
"W  c #C4AC5B",
"Q  c #C6A759",
"!  c #C3B35C",
"~  c #C5B658",
"^  c #D2A84F",
"/  c #C58767",
"(  c #C49862",
")  c #C08478",
"_  c #C1AC62",
"`  c #B6C95C",
"'  c #B7D25A",
"]  c #ACC567",
"[  c #B4C463",
"{  c #A1C172",
"}  c #C4C15A",
"|  c #6C1285",
" . c #73198C",
".. c #71168A",
"X. c #7C2295",
"o. c #723880",
"O. c #785183",
"+. c #7E7CAD",
"@. c #7E76AD",
"#. c #7E6EB6",
"$. c #7B65BD",
"%. c #766DBE",
"&. c #7B6CBB",
"*. c #7967BA",
"=. c #7D74B5",
"-. c #7D7AB3",
";. c #7672BC",
":. c #7A73BA",
">. c #7678B7",
",. c #6F76BB",
"<. c #7F6387",
"1. c #6E5ECE",
"2. c #735FC8",
"3. c #675CD5",
"4. c #6A5DD2",
"5. c #6D62CC",
"6. c #6E6AC5",
"7. c #7465C5",
"8. c #746BC3",
"9. c #7163C9",
"0. c #7667C3",
"q. c #6A60D0",
"w. c #7271C1",
"e. c #83289C",
"r. c #803D85",
"t. c #8A2EA3",
"y. c #9337AC",
"u. c #993CB2",
"i. c #8E33A7",
"p. c #8F4D82",
"a. c #9E7D8E",
"s. c #937984",
"d. c #9D6D95",
"f. c #9A6D9A",
"g. c #966D9D",
"h. c #8E7D9E",
"j. c #877797",
"k. c #9C7394",
"l. c #9B7B94",
"z. c #95749C",
"x. c #9A739A",
"c. c #937B9C",
"v. c #977C98",
"b. c #876484",
"n. c #AC7582",
"m. c #AB7B84",
"M. c #A4748C",
"N. c #A37B8B",
"B. c #A77888",
"V. c #B37A85",
"C. c #A37392",
"Z. c #A37A92",
"A. c #A46C8C",
"S. c #9D41B7",
"D. c #A245BC",
"F. c #866DAD",
"G. c #8B6CAB",
"H. c #8C6AA9",
"J. c #926DA3",
"K. c #8C74A5",
"L. c #857CA6",
"P. c #8B7CA3",
"I. c #8575AD",
"U. c #8973AA",
"Y. c #847BAC",
"T. c #8A7AA9",
"R. c #8676A6",
"E. c #9272A2",
"W. c #907CA0",
"Q. c #8364B4",
"!. c #836BB3",
"~. c #8466B5",
"^. c #8273B2",
"/. c #817AB1",
"(. c #8872B0",
"). c #AB4DC4",
"_. c #B254CC",
"`. c #BA5CD4",
"'. c #AF51C8",
"]. c #BF60DA",
"[. c #C364DD",
"{. c #CB6CE6",
"}. c #CE6EE9",
"|. c #C667E1",
" X c #CF70EA",
".X c #D172EC",
"XX c #D576F1",
"oX c #7C83AC",
"OX c #7C88A8",
"+X c #7683B1",
"@X c #7286B0",
"#X c #9D848D",
"$X c #9C8C8C",
"%X c #988D8D",
"&X c #9E9486",
"*X c #9D9C85",
"=X c #95948D",
"-X c #9B938B",
";X c #949C8D",
":X c #9A9A8A",
">X c #8D849D",
",X c #878C9E",
"<X c #8C8B9C",
"1X c #8B8899",
"2X c #958595",
"3X c #9A8492",
"4X c #948C94",
"5X c #998B92",
"6X c #92839A",
"7X c #928A99",
"8X c #998398",
"9X c #8D9395",
"0X c #8C929B",
"qX c #8A9897",
"wX c #939392",
"eX c #929992",
"rX c #979493",
"tX c #8F9E8E",
"yX c #A58485",
"uX c #AA8382",
"iX c #A48D84",
"pX c #AA8C82",
"aX c #A3838A",
"sX c #A48A8A",
"dX c #A39484",
"fX c #A29B82",
"gX c #A49687",
"hX c #A9858B",
"jX c #9CA383",
"kX c #97A787",
"lX c #8FA78E",
"zX c #A2A382",
"xX c #A2A984",
"cX c #A0B380",
"vX c #8484A5",
"bX c #8A83A3",
"nX c #848BA3",
"mX c #898BA1",
"MX c #8383AB",
"NX c #8785A9",
"BX c #888CA3",
/* pixels */
"dX:X4X1X,XvX+.+.@.Q.=.>.>.oXOXvX>XmX6X<X1X6X6X1X6X>XK.J.U.MXMXY.^.=.:.$.&.%.0.7.9.9.9.5.4.3.3.4.5.5.9.8.w.:.=.MXNXbXbX<XeX;XkXjXJ H e D ! ~ W n m G J ",
"N.4X1Xh.vX@.@.=.#.;.;.>.@.oXvXnX,X1Xv.1X1Xv.x.6X,Xh.K.P.T.I.Y./.Q.#.:.$.$.8.7.2.2.1.1.4.3.3.4.5.9.9.8.;.:.!.I.NXbXz.v.7X=X:XfXK I V ] [ ' ` [ B I J jX",
"rX2X>XR.@.!.Q.;.*.;.,.-.+.R.h.,X>X<X4X4X2X4X6X<X>Xz.P.U.Y.G.I.-.=.&.;.8.8.9.9.5.1.4.3.3.3.4.5.5.7.8.;.>.!.Q.G.bXW.x.2X3XB.m.t Y I V [ ' ` [ B q L s m.",
"2X1XJ.F.@.$.*.%.%.@X+X+.vX,Xh.1X2X9XwX2X2X2X7X1X6Xh.P.U.I.I.=.=.:.;.8.8.9.5.5.q.4.3.3.4.5.5.5.9.8.:.:.=.!.G.P.mX<X<X4XB.iXs K H B ] ` ' 9 N { a f *X-X",
"6XP.H.@.>.$.*.6.,.@XoXL.nX,Xv.9X2XwXeXwX3X3Xv.v.<Xh.K.U.I.-.=.#.&.8.8.7.9.5.5.4.3.3.5.5.5.9.9.8.:.=.>.-.I.T.mXmX0X9XN.m.jXcXL / M S ! ` ( m x x jX$XeX",
">XR.F.>.;.2.6.%.>.oXL.nX1X1X4X4X#X;XtXeX4X2X4X7X<Xc.P.U.U./.^.&.%.8.7.7.9.1.4.3.4.1.9.5.9.7.8.:.^.^./.I.G.K.mX0XqXwXB.yXjXK q e ] W 9 ] M v y jXkX=X7X",
"P.F.Q.%.$.7.6.%.=.oXvX1X<X4X4X#X=X-X;X$X%XwX3X2X6Xc.P.U.I././.#.%.8.8.7.9.q.4.q.5.9.8.7.0.$.&.=.!.G.I.U.J.z.<X0XqX$Xn.r K P q B ] ` Z V { a s kX;X9X>X",
"R.F.Q.%.%.7.%.=.I.vX1X9XqX=X$X$X-X&X:X-X-XwX3X8X7X6XK.U.Y./.=.&.%.8.9.9.5.5.5.5.9.8.8.8.%.*.:.=.F.G.I.T.K.h.<XwXeX$Xn.r K Y B Z 7 9 / B I z kXlXlXqXbX",
"+.=.:.,.8.,.>.oXvX>X6XwX=X$X&X&XdXdXdXkX:X#X5X5X7Xc.P.U.U./.!.&.8.9.6.9.5.5.1.9.7.8.*.%.&.:.>.-.I.I.MXvXmX,X7Xl.-X:Xr g Y U V T R N m P d fX&XlXqX1XP.",
"I.=.%.%.%.>.oXvX1X1X2X%X-X&XfXfXdXdXdXdX&X$X%X3X2Xc.P.U.I./.=.&.8.9.6.9.5.2.9.7.9.%.$.&.&.#.-.-.Y.Y.vXnX,X0XwX3X-X:XjXK Y U V n N B I a f *X-XlXqX,XvX",
"+.=.,.;.>.+.L.,X9X4X%X&XiXdXf f f fXdXfX*X&X-X5X2X6XW.K.I.-.=.;.8.7.5.6.6.9.7.8.%.&.&.~.~.!.-.Y.U.J.P.mX0X0XwX-X:XkXf u F B b S V U Y J jX:X=XqX1XP.vX",
"+.@X,.;.!.L.>X1XwX=X&XiXpXs f J J f s s dXiX-X%X2X6Xc.K.Y.Y.=.$.$.7.6.6.8.0.8.;.&.&.#.!.!.F.Y.MXT.E.h.,X6X2XN.m.iXjXt i F e / M { x K dXiXlXeXqX<XK.R.",
"oX@X>.+.R.h.6X%X$X&XfXs g g g J J g f f fXiX$X-X4X2Xc.P.T.I.=.&.*.8.8.0.8.%.;.&.#.=.=.^.I.I.Y.T.P.bX>X6Xk.a.aXm.iXjXJ G v / e c U x x fX&X%X2X9X,XP.OX",
"Y.+.@.L.h.6X%X$XyXdXzXf J L a g J g d f fXdX:X-X4X2Xc.P.U.F.^.>.;.*.;.*.&.>.>.=.=.-.-.I.H.U.MXP.h.,X1Xk.l.5X:XkXkXcXx G w e c I x x kXkX;X;X4X2X,XnXOX",
"oXoXR.>Xv.l.-X&XdXfXf J L L a p a g d d f jX:X-XwX2Xc.P.T.I.!.=.&.&.&.>.>.>.=.!.!.Y.I.Y.U.U.nXbX>X7X<X4X3X;XkXkXjXf Y H M B U x x x jXkX;XtX9X9X1XnXvX",
"nXvX1X4X3X#X-XdXiXf g g a a a a a F J J J dX&X=XeX4Xc.J.K.MXY.=.~.#.>.=.^.-.^.+.Y.Y.T.vXT.P.bX>X0X6X3XeXM.$XkX*Xt g G q e C I G z z *X*XkX=X4X9X9X0XnX",
",X,X9X9X%X-X*XdXd g g p p a F F a p d f jXdXaX#XwXwX<X>XE.T.MXoX-.-.-.I.F.F.F.Y.Y.L.P.bXE.z.c.1X2X4X8XtX=X:XkXdXs x I q w F j g J f dXyX;X$X=XeX1X1X,X",
"1X4XwX;X$X&XdXdXf d p p a a F L a p t t *X&XaXN.5XwX<X,XbXbXMXoXoXoXoXG.U.T.H.U.vXbXbXbXz.z.z.0X2X4X3X#X=XkXkXfXf K I I w h u i f f jX*XkX;X;XeX4X2X1X",
"2X%X=X-X&XiXiXfXJ d t d J a a a L g t pXdX:X%X#X3X2X6X,XmXmXnXOXMXG.MXvXP.nXbXP.mX<X<X0X<X6Xv.4X3XwX%X#X-XkXkXzXs h F U I G a g g r jX*XkXkX=X%XrXwX9X",
"$X$X#X&X&XdXdXs s g d g g L g g J f dXdXdX:X;XwX4Xl.x.6X,XmXmXnXnXJ.J.nXbXP.nX,Xc.>Xv.0XqXk.v.eX4X;X$X-XkXuXfXx K G U U F a G x J z cXjXjX*X:X:X:X-X%X",
"%X$XaXdXdXdXfXfXf f d t d g J J J *X*X:X:X-XeXeXeX2Xk.f.6XmXmXnXnXnXE.bX<Xg.h.0Xz.z.6X2X4Xk.C.rXlX;XaXiXkXuXf x x I I H u u a x x x x z jXfXfXfX&X-X=X",
"yX&X&XdXdXdXfXfXfXf d d d s f zXfX*X:X:X-X$X$XrXeXwXv.d.x.c.z.<X0X0X0X0XqX7Xv.<X4X4XeXeXZ.a.#X=XkX&X&XkXjXpXd J L h h G G I I I g u J K K z f f jX$XyX",
"yXiX&XiXiXdXiXyXdXdXdXiXpXpXfX*X*X:X:X:X-XaXN.Z.5XeXwX8Xv.v.f.x.1X6X7X0Xj.O.o.* * = O.<.b.N.aXN.aXyXuXjXz r < i i 5 w I I F G I a u F K p a K d dX&XyX",
"&X&XdXdXdXiX&XiXiX&XiXiXiXdX&X:X:X-X;X;X=X#XZ.C.Z.5XeXeXwX7Xk.d.Z.d.o.% o   . o o . . . O % p.m.uX*XfXf f J g h j j H H H q q I U I I Y j a L s fXiXyX",
"*X&XdXdX&X-X$X$X$X&X&X&X&X-X-X-X-X-XwXeX=X$XZ.C.C.M.4XeXwXwX4XZ.p.$ . o ..i.D.).'.).S.e.| . . * n.zXkXs 1 p G I I B w w H / q B B m B M B j g f *X&X&X",
"&X&X$X$X&X$X#X$X$X%X-X-X-XrXwX4X5X3X3X4XeXwX3XC.M.M.a.eX%XN.3Xo.. . X._.{..X.X.X.X.X.X.X[.S.| . $ , Y J u p I U U V w c B e / m e e M ( e j g f *X*X*X",
"dX$X$X$X%X%X5X4X5X5X5XwXwX4X4X4Xv.l.l.l.2XwXwX3XM.M.M.$X$XM.* . $ D. X.X{.{.{.{.{.{.{.{.}..X[.X.. % 0 Y G G U C B B V V V M / / e S S M e L g f fXdXiX",
"dX&X$X$X4X4X2X2X2X2X4X7X7X<X1X<Xv.x.x.k.k.3XwXeX#XB.B.B.m.= . $ _..X{.{.{.{.{.{.{.{.{.{.{.{.}.{. .. = Y h q m B e / M ] ] ] Z ( S Z b V P a g s iXiXuX",
"&X=X5X3X2X6Xv.v.6X6X<X<X<XmXmXmXh.z.f.f.d.k.3XeX;X-XaXm.p.o + _..X{.{.{.{.{.{.{.{.{.{.{.{.{.{. X].$ o , e 5 q m / / N ] ] Z 7 [ [ Z N e H G g s dXdXiX",
"-XwX2Xv.6X6Xc.W.P.P.P.bXbXvXvXvXbXE.g.f.d.d.k.4X;X;X&XB.% . u..X{.{.{.{.{.{.}..X.X}.{.{.{.{.{.{..Xy.  = m / e M ( ( Z ] [ R E 8 R Z V w h a f s iXdX:X",
"a.2X6Xc.>XbXbXbXK.U.U.T.MXY.T.MXvXP.E.g.f.d.k.3X=X;XjX: . ..{.}.{.{.{.{.{.}.|.S.u.`.}.{.{.{.{.{. X`.O + I V V ] S n R Q ` Q W 9 R Z V v q p f fX*X:X-X",
"3X7X6XP.P.P.T.T.I.I.I.-./.F.F.I.Y.MXP.z.f.d.d.l.%X:X*X* . S..X{.{.{.{.{.}.`.| .   | ].}.{.{.{.{.}.{.| . 0 ] ] ] [ R 4 E ` ' ` S b B e h u d jXiX&X-X$X",
"6X>XP.P.T.T.I./.-.=.=.=.!.~.Q.~.F.Y.NXbXc.z.k.l.#XsXs.o $ [.}.{.{.{.{.{.}.X.  * *   u..X{.{.{.{.{.}.X.. 0 [ Z [ ` W E ~ ' ' 8 R / e / a a g fX*X$X5X8X",
"6XbXP.Y.I././.=.:.:.;.:.&.Q.Q.Q.Q.I.vXmX<X6Xv.M.M.hX:   t..X{.{.{.{.{..X`.O $ / :   i..X{.{.{.{.{.}.X.. l ! 7 ` ` ' ` ~ 8 ` T T / m F Y g fXpXyX%X3Xv.",
"bXP.Y.I.^.=.=.&.$.%.8.w.%.$.Q.Q.H.K.mXmX0X4Xl.M.n.n.% . )..X{.{.{.{.{..Xy.  - ; % . D..X{.{.{.{.{.{. .. l W 8 ' ' ' Q E R S _ ( / q G K J fXiX-XwX2X>X",
"bXT.Y.^.&.&.%.0.7.7.9.8.;.=.~.G.G.E.c.7X7X5XN.B.V.> o | |.}.{.{.{.{.}.|.| . O O    .{.}.{.{.{.{.}.[.$ O Z ` 9 7 9 ' Q E Q [ V e q j u f fXfX-X5X2X1XP.",
"MXI./.#.$.8.9.7.9.9.7.8.>.-.Y.U.J.J.x.l.5X5XaXn.V.-   t..X{.{.{.{.{.}.|.i...| | i.[.}.{.{.{.{.{..X).o # 2 = @ & @ : N ! b D V e F K g jXfX:XeX4X1XbXvX",
"Y.(.=.%.8.7.5.5.5.2.0.*.-.Y.Y.U.J.g.d.C.N.aXaXm.< % o '..X{.{.{.{.{.{.}..X{.|.{..X}.{.{.{.{.{.{..Xe.. & O   O + O   % l _ w M Y Y p f yXyX-XeX0XmXnXT.",
"(.^.&.8.7.5.5.5.5.2.$.!./.U.J.J.z.f.d.C.M.B.m.< > o | {.}.{.{.{.{.{.{.{.{.{.}.{.{.{.{.{.{.{.|..X_.O O O O i.`.]._.e.o % w 5 h Y J r iXyX;X5X2X<XbXMXI.",
"^.&.8.7.5.q.5.6.8.$.&.^.I.J.J.g.x.k.C.M.B.n.n.< -   i..X{.{.{.{.{.{.{.{.{.{.{.{.{.{.{.{.{.{.}.{.... O . u.XX}.}..X}. .. , e p p zXjX&XB.wX2X>XbXT.I./.",
"&.8.9.5.4.4.5.8.:.&.~.F.I.P.z.x.l.k.M.M.n.n.< < & o _..X{.{.{.{.{.{.{.{.}.}.{.{.{.{.{.{.{.}.}.e.. O . ..}.{.{.{.|.XXy.  : U u i xXkX-XM.4X<XP.T.I.^.#.",
"8.7.5.4.3.1.9.:.>.!.~.U.L.bX1X2Xl.M.M.n.n.< 1 > . | {.}.{.{.{.{.{.}..X{.{.{.{.{.{.{.{.}..X[.X.. % $ . D..X{.{.{.{..Xe.  , Y s pXpX-X4X2X1XbXbXI./.#.*.",
"7.5.4.3.1.9.&.:.=.^.U.T.bX<X7X2X#XB.n.n.< < i :   t..X{.{.{.{.{..X).D.}..X.X}.}. X.X.X|.D.| X # - . | {.}.{.{.{.}.[.$ O 0 cXjXuXsXN.2X6Xz.P.NXF.=.:.8.",
"1.4.3.4.9.8.=.=./.I.T.bX<X7X2Xa.aXyXm.< i i i =   D..X{.{.{.{.{.}.X..  .u.).`.`._.).i.| o X - 3 $ o '..X{.{.{.{..XS.  = k *XjXgXrX4X7X<XP.T.Y.(.&.8.7.",
"4.4.4.5.7.&.=./.I.U.P.<X0X4X#XN.m.uXt t k h u * o )..X{.{.{.{.}.|.$ O .   o O O O o   . # ; 5 %   u..X{.{.{.{.}.{.| . > < *XkX;XeX6Xc.P.U.Y./.:.$.7.5.",
"3.5.9.8.%.:.=.I.U.K.>X<XwXrXaXyXyXr t g L F j * o _..X{.{.{.{.}.{.| o 3 3 - # @ # - 3 ; R 3 +   y..X{.{.{.{.{..XS.. % r iX;X$X3XqX6XbXMXY.I.!.*.0.9.4.",
"4.9.8.%.&.!.Y.T.P.>X<XwXrX-XiXuXt r k L H H N = o )..X{.{.{.{.{..Xy.  # ; 4 4 4 4 4 ; 3 @   + D..X{.{.{.{.{.}.[.$ o s.xX;X-XM.3X0XbXT.Y.(.(.&.0.9.1.3.",
"9.8.%.&.!.I.MXbX>X<X4X5X-XfXfXs y p j H B c A :   y..X{.{.{.{.{.}.{.e.  . O & @ & O .   O e.`..X{.{.{.{.{.{. XX.  = gX&X;XwX2X0XbXJ.G.I.~.~.0.9.1.3.3.",
"8.*.&.=.I.U.bXc.6X2X#XaXpXzXzXJ a L H c M M A > o ..{.{.{.{.{.{.{.}.}.D.X.$ O O O $ X.u.`..X}.{.{.{.{.{.{..Xu.. + n.V.#XeXqX0XmXP.U.I.!.#.$.7.5.4.3.5.",
"8.#.=./.I.P.6X6X2X$XaXpXdXJ K G I H c m b e b e & o )..X{.}.{.{.{.{.{..X}.[.`.`.`.[.}..X}.{.{.{.{.{.{.{..XD.o O , V.M.4XqX0XmXbXU.I.!.&.%.7.5.4.3.5.7.",
"=.=./.Y.P.>X7X5X-X$XdXs J Y G H I B M e T T R Q : X | [..X{.{.{.{.{.{.{.{.}.}. X}.}.{.{.{.{.{.{.{.{.}..Xu.O o b.gXN.5XqX0X<XP.P.H.~.&.$.7.5.4.3.4.9.0.",
"-.^.I.P.h.8XrX-XyXyXf J K Y B c B B n R R R E R R #   X.|. X|.{.{.{.{.{.{.{.{.{.{.{.{.{.{.{.{.{.{..X|.t.. o O.gXaX3XwX0XmXK.J.T.F.#.%.9.5.q.3.4.5.8.:.",
"/.I.P.>X6X5X-XdXuXt g a F c B M Z Z Q R R E E E ^ 6 &    .`..X}.{.{.{.{.{.{.{.{.{.{.{.{.{.{.}..X}.).... + b.:XN.M.l.<XmXbXJ.U.(.!.*.8.5.5.4.4.5.7.%.=.",
"I.P.bX6X3XsXgXfXd g a j m M Z Z S 8 W R E E E E ^ ~ 6 @ X $ y.[..X.X}.{.{.{.{.{.{.{.}.}..X.X{.'.X.. . % s.kX#XM.k.6XmXnXL.H.I.^.$.0.7.1.4.4.5.9.8.>.=.",
"T.bX<X3XsXdXdXf a j w m M N n 7 ` 8 ! W Q R E R W 8 ~ 6 - o   $ t.).[.{. X.X.X.X.X}.{.[.'.i.| o   $ : B.sXwX2Xv.6XmXnXMXI.(.-.&.0.6.5.4.4.9.7.8.&.^.Y.",
"P.6X4X-XiXdXg p h w m N n Q R R W ! 8 ! W Q Q W ! [ S A ( > @ o   o $  .e.t.i.i.t.e. .$ o   . % - A.V.B.a.4X6Xz.z.bXMXMX/.-.>.8.7.5.4.4.9.8.8.;.=.I.K.",
"v.3X-X&XdXd a v m b b n W Q R R R A S S 8 8 8 D S S S Z e ( / > - % O .           . . & * - : n.m.B.N.l.2X7Xx.g.E.MXMX-.>.>.8.7.1.4.3.5.7.8.;.=./.U.c.",
"3X-X&XdXd a v M b b Q ! W Q R R ( A D [ [ [ S A n N M m e / / / / 1 2 : : : - : : : , yXuXm.m.M.M.a.4X7X0Xc.g.E.T.MX-.>.&.*.9.5.4.3.5.7.0.&.#.I.Y.bXv.",
"-X:XdXd a v M b R Q 8 A _ ( e b N Z S S S S Z b ( / w e q q 5 1 1 1 i i ) i 1 < r uXpXgX$XN.M.M.l.8X<X,XmXbXP.E.U./.>.&.$.7.5.4.3.4.9.8.;.>./.T.bX7X4X",
"&XdXg h w b Z 9 9 8 S A N e M B M M Z B V B M e q / q q q 1 1 1 1 1 i i < < < n.m.yX&X:XrX5X3Xk.k.k.c.mXnXNXT.H.~.=.;.*.7.5.4.3.4.9.8.:.:.-.I.P.6XwXrX",
"fXp a m e e 7 8 9 A n M e w m c m w m B B B H q q q q i i 1 1 1 1 < t iXuXm.m.m.N.$X-XeXeX2Xl.d.d.f.E.bXNXNXU.F.#.;.w.9.5.q.3.4.9.7.&.#.!.U.P.>X4XsXsX",
"g a m b _ Q ~ 9 Z N M m w w h v w w H H F F G j i 1 i y i 1 1 1 < < yX*X&X$XsXN.N.N.3X4X0X6Xx.f.g.g.K.MXMXY.(.#.;.8.9.5.5.3.4.5.7.$.:.=.U.P.bX8X-XsXr ",
"a v M A W ~ W 7 b M P h h h u u h F G a i u a J d y d f t < < < < n.yX:X;X=X#XM.M.C.k.6X<X<Xc.z.E.E.Y.Y././.>.%.0.9.5.5.4.4.5.9.0.&.=.Y.T.bX7X#XsXuXt ",
"v M A [ ~ ! A N m F a p p g p u p p d d i i d xXz zXzXxXdX< m.m.n.B.aX-XeXrX3Xk.C.C.x.z.>XmXbXP.T.Y./.^.!.#.%.0.2.5.q.4.5.5.9.8.;.=.Y.T.P.6X5XgXdXp L ",
"e R ! ~ ! A Z c F G J J z J f g t r t dXpXpXfXjXkXkXjXjXdXm.B.aXaXaXaX#X4XwX2Xk.C.k.f.z.P.vXNXMXY.-.^.~.Q.$.8.9.5.q.4.1.9.9.0.&.=.I.U.mX7X3XaXpXs a H ",
"R Q ~ ~ n M w a L z t s jX*XfXjXdXuXdX&XiX*X:XiXiX:X&XgX-XaXN.%X%XN.M.C.v.<X7Xv.k.x.J.E.T.NXMX-.-.>.#.$.$.0.9.5.q.4.4.9.9.0.*.#.-.T.P.6X4X%XiXs J w e ",
"Q ~ ~ A Z B a d f yXn.n.&XdXiX&X-X:X:X#XB.$X=XN.B.#XN.B.%XwXwXeXwXZ.C.d.x.6XmX>XE.J.J.U.Y.Y.-.>.>.>.%.8.0.9.1.4.3.q.9.6.8.;.#./.MXP.z.2X$X&Xs J H e R ",
"} ~ _ D c a g s *XiXN.#X:X-XaXN.=XtXeX#Xa.%XeX#XM.3Xa.M.l.2X2X0X0X3Xd.f.x.P.mXbXT.I.I./.-.-.>.>.;.%.8.9.9.1.4.3.4.9.9.8.&.#.=.Y.bXc.l.4XiX*XJ F w R Q ",
"~ A Z C G g r yX:X#X=XwXeXwX2X2X4X3X9X9X9XqXqX9X4X9X2Xl.3Xk.k.6X0X<Xc.z.E.bXMXNXMX/.-.-.-.>.:.;.8.0.7.7.9.4.3.4.1.7.8.$.!.~.I.E.v.l.3X-XuXd L M Z Q ~ ",
"Q Z U G g jXiX$XwX3Xl.4X2X2X0X<Xv.z.6X6X<X<X6X<X0X0X0X<X<Xz.f.c.mXmXbXP.L.MXMXMX-.-.-.=.#.&.%.8.9.9.9.9.1.4.4.5.9.8.*.$.~.I.J.c.8X3X-XjXf a m b S 8 ~ ",
"n M F K fX*X-X4X4Xv.v.v.6X1X,X,X1X1Xh.z.<X>Xf.>X0X0X0X0X,X>Xz.W.P.vXMXMXY.Y./.-.>.>.:.&.~.$.7.7.5.9.9.4.4.4.5.9.9.;.:.!.F.T.W.7X3X$XiXjXJ w b n ! ~ 9 ",
"V I g jX&X%X4X6X1Xh.>X>X,XnXvXK.L.nXvXP.bXmX1X<X0XmX>X1XmXnXnXP.J.U.MXI.F.(./.>.>.:.:.$.$.0.7.9.9.5.4.4.4.5.9.0.%.:.!.F.K.mX0X4X#X&Xt i v N n W Q 9 n ",
"v K f *X;XwX6X>X,XvXL.L.vXR.L.U.I.MXnXh.c.mX<X0X0X<Xz.z.P.nXnXbXJ.H.Y.^.Q.~.^.>.:.:.:.0.0.7.2.1.4.4.4.1.5.9.0.%.>.!.G.J.P.<XeXeX:Xt y j B A ! ~ W Q e ",
"a f kXlXtX0X1XnXOXOXL.oX+.F.+.Y.U.K.E.>X<X>Xv.<X6X6Xc.E.E.bXNXNXT.I.-.=.~.~.#.:.*.8.8.8.7.2.4.3.3.4.1.5.9.7.$.#.-.I.Y.P.z.7X5X:XfXd G M D W ~ ` R b v ",
"z jX;X9X1Xh.T.OXoX@.@.+X-.=.+.Y.P.bXc.6X1X1X1X>Xx.c.z.P.T.vXNXMXMX-.=.^.^.#.*.8.0.7.7.9.5.4.3.3.4.5.5.6.8.$.$.=.MXNXnXc.l.4XaX*Xr F w b [ ` ~ 8 n B G "
};
