/* XPM */
static char *result[] = {
/* columns rows colors chars-per-pixel */
"75 75 256 2 ",
"   c #D97A3A",
".  c #B87669",
"X  c #BE7C6E",
"o  c #B06C72",
"O  c #A67571",
"+  c #AC7A7B",
"@  c #BB7B73",
"#  c #B77678",
"$  c #B37A7B",
"%  c #D37B4A",
"&  c #C87658",
"*  c #D17A56",
"=  c #C67966",
"-  c #C37C6B",
";  c #CA7C6A",
":  c #D6853F",
">  c #B99D58",
",  c #BBA859",
"<  c #AFB45B",
"1  c #B8B65B",
"2  c #BCBB5B",
"3  c #9A9879",
"4  c #BC866A",
"5  c #BC8B6C",
"6  c #AB9469",
"7  c #BA9768",
"8  c #B59C6C",
"9  c #AB8679",
"0  c #AB8D7C",
"q  c #B58775",
"w  c #AD9576",
"e  c #A49B72",
"r  c #AC9C75",
"t  c #A5947E",
"y  c #AA947B",
"u  c #A49B7D",
"i  c #A99B7A",
"p  c #B59472",
"a  c #B29B72",
"s  c #9BAA6E",
"d  c #9CA97B",
"f  c #9CB67A",
"g  c #ABA96B",
"h  c #BBA364",
"j  c #BBAB63",
"k  c #B8A967",
"l  c #B4A36B",
"z  c #B2AC6B",
"x  c #ACB46D",
"c  c #A9B96A",
"v  c #B4B465",
"b  c #B6B766",
"n  c #ACA374",
"m  c #A7A876",
"M  c #AAAB73",
"N  c #A4A37B",
"B  c #A3AC7B",
"V  c #B4A975",
"C  c #A4B374",
"Z  c #A5B677",
"A  c #ABB472",
"S  c #B5B678",
"D  c #D8854A",
"F  c #CB924A",
"G  c #D2954D",
"H  c #CD835D",
"J  c #CA8A59",
"K  c #D48554",
"L  c #D68856",
"P  c #C89859",
"I  c #D19753",
"U  c #C6A84D",
"Y  c #C5A959",
"T  c #C4B458",
"R  c #C68666",
"E  c #C39564",
"W  c #D08E72",
"Q  c #E29D71",
"!  c #C3A665",
"~  c #CDAC71",
"^  c #B9C45A",
"/  c #B0CA5A",
"(  c #B4CB5D",
")  c #9DC075",
"_  c #ACC568",
"`  c #AFC56E",
"'  c #B4C566",
"]  c #B4CB64",
"[  c #C4C25A",
"{  c #C4C46E",
"}  c #7B70A7",
"|  c #7C79A7",
" . c #7D7BAC",
".. c #736AB6",
"X. c #7D6DB6",
"o. c #7565B8",
"O. c #7B65BD",
"+. c #756CBE",
"@. c #7B6CBB",
"#. c #7D75B4",
"$. c #7478B6",
"%. c #7D7BB3",
"&. c #7672BC",
"*. c #7A73BB",
"=. c #6D5BC2",
"-. c #6D5ECE",
";. c #735EC8",
":. c #675BD4",
">. c #6A5DD2",
",. c #6E68C4",
"<. c #6D63CC",
"1. c #7465C5",
"2. c #746BC3",
"3. c #7768C4",
"4. c #7164C9",
"5. c #7973C7",
"6. c #6B60D0",
"7. c #786CD5",
"8. c #9A6B89",
"9. c #997987",
"0. c #8C659C",
"q. c #986B99",
"w. c #8C7A9B",
"e. c #997697",
"r. c #9B7C94",
"t. c #94749C",
"y. c #937B9C",
"u. c #A66C89",
"i. c #AC7483",
"p. c #AB7B83",
"a. c #A77789",
"s. c #A47C8B",
"d. c #B37783",
"f. c #A47693",
"g. c #825CAC",
"h. c #886BAA",
"j. c #926CA3",
"k. c #8C74A5",
"l. c #857DA5",
"z. c #8C7CA3",
"x. c #8574AC",
"c. c #8974AA",
"v. c #847CAB",
"b. c #8979A8",
"n. c #9373A1",
"m. c #937AA4",
"M. c #8467B5",
"N. c #836CB3",
"B. c #8274B3",
"V. c #817AB1",
"C. c #8979BB",
"Z. c #917CB0",
"A. c #8577C4",
"S. c #7D879A",
"D. c #7D86A6",
"F. c #7C83AB",
"G. c #7384B2",
"H. c #8A8C8D",
"J. c #9D848D",
"K. c #97898A",
"L. c #9C8C8C",
"P. c #8C998C",
"I. c #949183",
"U. c #9D9486",
"Y. c #9C9C85",
"T. c #95948D",
"R. c #9B948B",
"E. c #949B8C",
"W. c #9B9A8A",
"Q. c #8D849D",
"!. c #888899",
"~. c #8C8B9C",
"^. c #948595",
"/. c #9A8592",
"(. c #948C94",
"). c #9A8B92",
"_. c #92839A",
"`. c #9A879A",
"'. c #928A99",
"]. c #8D9395",
"[. c #8C9995",
"{. c #8C929C",
"}. c #939393",
"|. c #989495",
" X c #939A91",
".X c #A58585",
"XX c #AB8782",
"oX c #A48D84",
"OX c #A3848B",
"+X c #A28B8A",
"@X c #A39383",
"#X c #A59686",
"$X c #A29B82",
"%X c #A48796",
"&X c #B39595",
"*X c #9CA483",
"=X c #98A786",
"-X c #91A88F",
";X c #A4A585",
":X c #B9A587",
">X c #AEB492",
",X c #8484A4",
"<X c #8B83A3",
"1X c #858BA3",
"2X c #8A8BA1",
"3X c #8482AA",
"4X c #8789A9",
"5X c #988AA6",
"6X c #8E90AD",
"7X c #9794A8",
"8X c #8886B7",
"9X c #AF91AE",
"0X c #B1ABB0",
"qX c #CB988E",
"wX c #D3AF98",
"eX c #E3AD94",
"rX c #CFB2B0",
"tX c #E5BAA7",
"yX c #BDC697",
"uX c #BCC6AF",
"iX c #CECA92",
"pX c #D3CFB1",
"aX c #DEDBB1",
"sX c #EAC7A9",
"dX c #EBCEB6",
"fX c #968BCC",
"gX c #A99AC8",
"hX c #B4ACC9",
"jX c #C7B8CE",
"kX c #CABAC8",
"lX c #BEC4D0",
"zX c #C7C7CB",
"xX c #D5C8C9",
"cX c #D9D8C9",
"vX c #D5C8D7",
"bX c #D9D3DB",
"nX c #E7D0CC",
"mX c #EAD6CC",
"MX c #F3D9CA",
"NX c #E8D9DA",
"BX c #E5E6C9",
"VX c #E8E5D9",
"CX c #F4E6D9",
"ZX c #EFF1DD",
"AX c #D2CCE5",
"SX c #DCD8E6",
"DX c #E5DCE7",
"FX c #DFE1E3",
"GX c #E9E7E8",
"HX c #F5EBE8",
"JX c #F5F3EB",
"KX c #EBE9F3",
"LX c #F0EFF2",
"PX c #F5F3F4",
"IX c #F9F7F5",
"UX c #FEFEFE",
/* pixels */
"&XW.7X7X2X6X8X8X8XB.C.G.8X8X6X6X2X7X7X7X7X`.5X5X5X5X5Xm.5X8X6X8XZ.fXC.A.C.A.A.3.5.7.A.7.7.7.7.7.7.5.5.A.A.fX%.8X6X7X7X7X X-X>X>X;XS ~ { ~ [ T S S >XB ",
".X}.(.w.l.|  .#...X.$.$.#.F.D.S.!.!.e.~.].r.e.^.~.Q.t.n.b.b. .B.M...$.O.O.1.;.;.-.-.:.:.:.:.:.-.<.,.,.2.@.M.#.l.<Xn.e.].}.W.@Xd C C _ ] ( ( < c x e N ",
"}.^.Q.l.| M.o.&.O.&.G.$.F.l.,X{.Q.'.'.'._.^.Q.~.Q.k.z.k.x.h.B.%.X.X.&.2.2.2.4.-.6.>.>.:.:.-.-.<.2.2.5.$.N.h.j.4X<Xe.`.J.s.9 0 B Z b ] ( ^ ] x 5 m @Xp.",
"(.!.j.h.#.M.o.&.&.$.G.$.3X!.w.Q.^.].].'.^.^.'.~.Q.y.z.k.v.x.B.B.$.+.2.2.,.<.<.6.>.:.>.>.:.-.4.2.2.&.&.#.N.h.Z.2X<X'.(.a.XXoXB M x ' ] ( 2 j _ w u Y.R.",
"Q.z.h.| $.O.o.,.&.G.G.l.1X!.e.].^.}.}.}.r./.r._.Q.y.n.b.x.V.#.@.@.2.3.3.4.4.>.>.>.>.>.6.4.4.,.2.*.*.#.%.B.b.4X{.{.].s.p.*X;XA E v b 1 ( P 8 ) f =XL.[.",
"Q.k.h.$.X.;.,.+.$. .l.,X!.~.^.(./. XP. X(.^.'._.~.w.k.b.c.B.B.@.+.2.1.3.4.>.>.>.>.<.4.<.4.1.2.&.B.V.V.x.c.k.2X{.].}.s.XX;XB 5 7 _ , T ' l g 0 d -XL.^.",
"l.h.M.X.o.=.,.+...F.D.!.].(.(.J.R.T.E.K.T.(./.(._.y.z.b.x. .B.*.@.2.2.4.4.6.>.6.6.4.1.3.3.;.O.#.M.N.Z.c.j.j.~.{.[.L.i.XX;Xn 5 x ] ' 1 c f r d =XE.].Q.",
"l.N.o...+.1.+.#. .D.Q.].[.T.K.L.R.U.W.R.T.R./.`.`.<Xn.k.v.V.B.@.+.2.2.4.<.<.>.<.,.2.2.5.O.X.*.#.N.h.B.b.n.y.~.}. XL.p.q ;XA A v , 1 R x f f =X-X-X{.!.",
" . .&.$.,.&.$.F.l.Q.^.].T.L.U.U.@X@X#X=X|.J.L.).'._.z.k.b.B.X.@.3.2.,.4.<.-.;.4.1.2.@.2.O.*.#.%.x.v.3X1X<X{.(.r.).W.9 i Z S c P P z l n w $X=X-X[.!.z.",
"x.$...,.&.$.G.D.!.!.^.L.R.U.@X3 #X#X@XU.U.L.)./._.y.z.b.x.B.#.+.+.1.,.<.-.-.4.1.2.2.M.@.X.X.%.%.v.v.3X1X2X{.'./.R.Y.*XB B ) c j j c Z r ;X#X=XS.[.Q.l.",
" .$.$.&.$. .| !.(.(.L.U.oX@X$Xu $Xi $XY.Y.U.|.).`._.y.k.c.%.#.@.2.,.,.4.,.2.2.2.+.*.@.M.M.N.%.3Xc.j.w.2X{.].|.W.E.=Xu q n z h b c Z C m *XY.T.[.!.l.D.",
" .G.$.$.X.| Q.^.P.T.U.@X0 i u N N i y t oXoXR.L.(._.m.k.b.V.X.o.o.,.,.5.2.1.+.+.+.@.@.M.N.N.v.3Xv.n.w.!.w.'.f.s.oX*X0 q n 7 R z ) Z B #XoX-XT.[.!.k.l.",
"F.G.$. .v.w.w.(.L.@Xy #Xi i i N N i i u $XoX+XT.(._.y.z.v.} C.fXfXfX,.,.2.2.&.@.X.#.#.B.x.x.x.b.l.!.7X0X9X%Xs.a.oX*XN m l R 4 z ) ) =X#XU.K.H.].!.,X,X",
" . . .v.Q.r.K.L.XXoX;X#XN i r N m i i u u @XW.T.(.^._.k.x.jXLXUXUXUXDXfX+.$.$.#.#.%.%.x.h.x.v.| 9XSXPXUXUXPXcX*Xd =Xf C 7 7 g c f f f =XE.T.(._.{.D.D.",
"F.F.c.w._.r.R.R.t $XN n N m r w i i y y Y.*X*XT.(.^.t.m.SXUXUXUXKXUXUXUXgX&.%.N.N.V.x.v.k.b.D.0XPXUXUXLXPXUXUXGX;XN Z m z c c f f f d =XE.-X].].!.!.,X",
"D.,XQ.'./.9.U.@Xt t $Xi a r r w r i N u d @XR.T.T.(.w.DXUXUXhX8XM.fXFXUXLXG.X.%.v.v.v.,Xk.w.7XIXUXKX0X|.%XrXIXUXcXt B 4 8 Z C C d d Y.E.=XT.'.[.{.1X!.",
"Q.{.].].K.R.Y.oXy y i w w r n N r w r $X;X@XOXJ.|.H.0XUXUXhX| G.G...8XPXUXgXh.3Xv.l.z.<Xn.t.bXUXKX`./. XT.3 uXUXUXyXs 5 l n a r N u @X.XY.K.T.[.'.!.!.",
"!.(.T.T.R.U.@Xt u y y y r r n n r w 0 y @XU.J.s.).(.GXUXvX| 4X4XF.F. .SXUXjXg.k.,X<X<X<Xt.5XUXUX0XH.%XJ.E.-X=XGXIXyXs c l p q q N $X*XW.=XE.E.P.(.^.!.",
"(.(.T.R.R.@XoXu N y 0 w i r r N i i XXXX@XU.L.OX9.7XIXUX0XS.D.D.3Xc.| SXUXlX| w.1X~.~.{.w.kXUXGXr.}.K.J.T.=X=XGXUXrXe ) Z M i y u 9 *XI.E.E.T.L.}.(.].",
"K.K.J.U.U.oX@Xt u i y i i n i i N N @XoX+XW. X}.H.kXUXKXD.{.1XD.3Xj.j.KXUX0XS.1Xy.Q.t.{.].GXIXlXK. XL.W.=Xt ;XPXUXyXs ) M r C f N d f u Y.*XY.E.W.T.K.",
"R.L.+X+X@X@XY.$Xu u y 0 y i u N ;X$XY.Y.W.W. X XH.GXUXkXw.2X2X1X1X!.9XUXUX9Xw.{.y.e._.H.0XIXUX0XP.E.L.+X*X+ wXUXUXZ C M q q n f f f f d d $X$XY.@XR.K.",
".XL.R.@X@X@XU.$X$Xu t y y i $X;XY.$XW.W.W.).).}.0XUXUX9Xe.y.y.5X{.S.lXUXGXH.e.H.'.(.[.H.kXUXGXT.-XR.#X=X*X9 xXUXVXp 8 C M Z C Z r 9 N d B d t u =XL.J.",
".XL.U.oXoXU.oXoX@XoXoX0 oXoX$XY.Y.Y.W.W.R.OXs.9.zXUXGX^.r.e.q.q.!.!.GXUXzXS.].^.f.}. X}.GXUXkXO +XXXp.=X3 XXIXUXrX= a A m n m Z r q n Z w i m t @XL..X",
"U.U.@X+X@XoXU.oX@X@XoXoXoX#X@XW.W.W.E.|.|.OXf.f.GXUXzXH.}.'.f.q.8.9XUXUX0X(.}. X9.f.[.>XUXUX&Xa.p.Y.$X*X3 >XUXUXV 6 M A M 5 5 C C C C A a r N t t oX0 ",
"Y.U.@XoXU.R.L.+XL.U.U.@XU.R.R.|.|.R.}.}.}.).9.9XUXUX&X[.}.|.).f.8.kXUXGXP.OXf.L.P.R.I.pXUXGXI.XXd.*Xd i o cXIXVXg A 8 8 M 5 5 A x g A V A 8 r u Y.$XY.",
"U.U.L.L.R.L.OXL.L.L.R.|.R.}.}.}.)././.(.}.}.9.xXUXDX9. X|.f.).R.s.HXUXrX9.W.i.i.Y.-XY.GXUXzXd $X+ $Xf m 0 LXUXpXc A 8 M x 5 R l 7 7 z E 7 a i u Y.Y.W.",
"@X@XL.L.L.L.).(.).).).}.}.}.(.'./.f.r.r.^.}.|.LXUXrX8.R.OXu.d.a.0XUXIX&XXX=X@Xi.oX=X>XUXUX>X3 *Xd d ;Xf iXUXPX` c A x ` c v R R E b ` k 8 n i t u oXXX",
"+XL.L.K.(.(.(.`.'.'.'.}.~.~.~.~.y.e.q.e.e.9.0XUXUX%Xa.s.f.d.u.u.cXUXVX=X=X=X*X#XE.3 pXUXGXN w y N q m s cXUXBXc 7 E z _ _ c v P 1 b h ` l a i $X0 @XXX",
"R.T.)./.^.'.r.y.'._.'.{.2X2X2X~.w.t.e.q.f.q.vXUXNXK.OXa.i.i.o d.KXUXpXs =Xf $X$ + t CXUXpXs m N w - @ V PXUXwX7 H R h _ _ 1 1 ' ' v h 7 M M w t @X@X+X",
"R.}.^./._._._.m.<Xz.z.<X<X,X,X,X<Xn.q.q.q.f.LXUXuXP.U.p.i.d.u.qXUXIX>Xd C f m @ = &XUXUXqXe m C M q @ iXUXPXV k W E v ' c P L 1 Y b c 8 p i u t oX@X#X",
"s.^._.y.Q.<X<X<Xk.c.c.v.3Xv.v.3X,Xz.n.j.q.9XUXPX X=XW..X# d.o xXUXVXe r q n Z r o tXUXHXq q X w c M s BXUXBXc ' b j P ! ( U T 1 P b c M q w u @X#XW.R.",
"^.'._.<Xz.z.z.b.x.x.x.B.B.x.h.x.3X3X<Xn.q.vXUXNXK. XW.@Xd.o - KXUXrX. p @ - w M p CXUXpXg 5 = 4 p 7 S IXUXiX/ _ ] P * I ^ ( ( b , c 7 5 p w *XoXR.R.).",
"_.~.<Xz.v.Z.c.V.%.#.%.%.M.M.M.g.x.v.4X,X5XPXIXrX9.+X#X#XXXo qXUXIX; = X . = ; 5 >XIXUXyXc 8 - R R & eXUXJX` 2 ] / Y G T ^ ( 2 P J 8 R w r i #X;XL.).^.",
"_.<Xk.v.x.V.B.#.*.&.&.$.A.M.g.O.g.c.4X!.hXUXPXs.s.d.d.XX0 o nXUXNX= ; = - = = = pXUXZX_ c 7 E v 7 & nXUXBX, , ] ( ( [ T [ ^ I R 7 l g B i #X#X.XL./.r.",
"<Xz.x.x.B.#.B.@.O.2.2.2.3.O.g.gXjXKXKXGXPXUXnX8.d.d.d.d.q q PXIXPXHXCXHXCXHXHXHXPXUXpX/ _ b z ` k ~ IXUXiXU [ ( ( ( U D Y b ! E R 5 m B N ;XXX).}.^._.",
"<Xb.v.B.@.@.2.3.;.1.2.2.o.C.SXUXUXUXUXUXUXUX0Xu.d.d.# # o wXUXIXUXUXUXUXUXUXUXUXUXIXyX_ ] ] ` ] < iXUXJX{ ^ ^ T ^ ( U L Y ' c 7 5 a q u $X#XR.).^.Q.Q.",
"v.Z.B.@.3.2.2.3.1.1.1.2.&.FXUXUXAXjX9XrXrX0X%Xa.d.d.- # o qXeXqXeXeXeXeXeXwXiXwXwXiX] ] ] ] ( ( > MXUXdXU ^ I G G 2 [ ! ! v c p V B i *X#XW. X}.'.<X,X",
"v.B.*.@.2.,.,.4.-.;.1.o.gXUXUXgX0.0.q.q.9.9.OXp.d.# # - - = & & & & & * J > 1 2 , 1 ] ] ( ( ( ^ Y IXUXeXG T D % L 2 ] b h h z C B w u oXOXR.|.{.2X1Xv.",
"B.B.@.2.,.4.6.4.1.;.M.o.hXUXAX0.j.q.u.u.f.d.i.d.d.o # ; - = = * ; ; H H P ! ^ ] ' ^ / ( ( ( ( / iXUXJXD : T U L I P b ` l - p Z m 9 oX.XW.`._.~.<X3Xx.",
"B.*.2.<.<.6.6.,.2.O.M...jXUXSX0.e.f.q.u.i.i.d.u.- d.- ; = ; ; = * * * L J Y 2 ] ] 2 1 T T [ ^ ^ CXUXdX: U [ ^ Y J R ! ` l 5 a y ;X=X@Xs.}._.Q.<Xv.v.V.",
"@.3.4.<.>.>.<.2.5.X.M.} gXUXUX9Xq.8.u.u.u.d.$ # @ X - = & & & & * * % % % D U 1 ^ 1 U G G G I [ UXUXiXU ^ ( b P H R E 8 g s 9 9 ;X=XR.f.}.~.m.z.x.B.B.",
"2.3.<.>.>.-.3.&.*.N.h.x.v.GXUXPXxXkXkXrXd.# # # @ @ = qXtXwXtXtXtXtXtXtXsXsXsXsXT T G D D D D sXUXJX^ / ] ' E E j R = :XyXyX:X9 oXW.(.`.~.<X<Xc.B.#.O.",
"4.<.>.>.>.4.@.*.B.B.x.z.w.7XKXUXUXUXUXPX$ # $ X X - = NXUXUXUXUXUXIXUXUXUXUXUXHXI U G D D D D MXUXaX( ] ] b v v v W mXIXUXUXUXNX&Xf.^._.t.m.3Xh.B.&.2.",
"4.>.>.>.4.2.*.B.V.x.k.z.~.^.(.rXbXIXUXrX+ 9 q X - = W UXIXNXMXMXMXMXMXMXdXIXUXsX: I I D D % Q IXUXiX( ` ' ` c M V PXUXUXPXPXUXUXIX|.!.~.z.b.v.B.@.2.1.",
">.>.>.4.3.@.*.V.x.k.z.Q.{.(.y.O &XUXUX:X9 w q 4 4 & tXUXHXH % D % % D   Q IXUXQ D I I K L D tXUXJX_ _ ` ` c S 4 xXUXPXqXd.#X0XPXUXvX0.<Xc.3X%.#.O.3.-.",
">.6.4.2.@.*.%.x.k.k.<X'.}.(.J.+ xXUXGXi n V 8 5 R R VXUXdX% L L D L D   sXUXCXD L L G P P J BXUXaX/ ` ` ` c 8 R HXUXpXO oX*X3 zXIXDXw.,XV.B.N.O.3.<.-.",
">.4.2.2.@.N.x.3X<X_.{.].}.W.oXXXHXUXpXi V A l 5 J W IXUXQ K L D L L D D HXUXtX% L L L P Y ~ UXUXiXc z z x Z 6 rXUXIX>XY.E.R.8.kXUXbXk.3Xx.B.X.3.4.-.>.",
"4.3.@.&.N.x.v.<X2X'.(.).R.$Xw 0XUXUX:XM A x k E J tXUXHXK K L D L L D eXUXUXQ % L L L W > pXUXJXx 8 7 5 p m n VXUXcX@X#X X(.`.LXIXhXh.C.N.M.3.1.-.:.:.",
"3.3.@.#.x.b.z.m.^.(.L.OXXX;Xi cXUXVXm g z z k > J CXUXsX% D D L L L % dXUXCX* L H H H P , VXUXBX> 4 X X @ w >XUXUX&Xi.+X X].0XUXPX8Xx.B.@.3.1.<.>.:.<.",
"2.B.*.V.b.z.<Xr.`.K.OXXX#XN B JXUXiXg z j 7 7 > ~ UXUXQ D L J K L K H HXUXeX* H H & H 4 ~ UXUX>X6 X X X @ w VXUXGXd.a.}.{.!.SXUXvXh.M.M.O.3.<.>.:.6.,.",
"*.#.B.v.<X<X`.|.L.+X@X@X;Xs iXUXIXyXz 7 P J E P sXUXHXD L K L L H * eXUXIXW * = = R R & rXUXHXa p @ @ @ + >XUXUXrX9.).].2X7XIXUXgXM.@.O.1.<.>.:.6.4.3.",
"B.B.x.z.m.r.|.R..XoX$XN m s cXUXVX< j P J P I F VXUXsXD J K K H K * sXUXMX& ; = & = = X CXUXpX. q q q 9 @XGXUXNX9.J.}.{.S.zXUXKXh.X.@.2.<.<.:.>.4.2.*.",
"V.x.z.Q._./.R.+XXX0 i r n A JXUXpX, Y P I G G Q UXUX~ D L J L H H * CXUXtX& = - R - . qXUXUXqX. # $ @X3 cXUXUX&Xu.r.~.!.6XPXUXhXo.M.3.<.-.>.>.<.4.5.@.",
"x.b.<X_./.OX#X$X0 y r a z iXUXIX` 1 T P U G F sXUXZXP I I J J H & R HXUXwX= ; - X X . wXUXHX# # # $ O rXUXUXkX8.e._.2XF.zXUXPXA.O.3.<.-.>.>.<.2.2.#.#.",
"z.<X'.).+X#X@X$Xw a 8 z < mXUXBX^ b T ! I U U HXUXaX, P J J H L = W JXUXqX; - - # - . rXUXNX# d.$ o rXIXUXGXH.r._.2X!.6XIXUXhX+.3.,.6.>.>.4.,.5.*.X.v.",
"<X_.}.L.oX#Xi p 5 8 7 j j IXUXiX, T T T Y U ~ IXUX{ ^ j E R W R = R JXUXqX- - - # - . rXUXDXo o d.kXIXUXGX'.y.e.n.<XF.SXUXKX5.2.2.6.>.>.4.2.2.&.#.x.k.",
"y.r.R.U.@Xw i l l 8 h , iXUXIXE Y T b ^ T 1 aXUXZXb b v 8 E R R R - HXUXwX= - # $ q # qXUXUXNXnXLXUXUXGX|.^.f.q.n.| hXUXUXfX,.2.-.>.>.4.4.3.&.#.V.n.n.",
"/.R.W.t w r M z h h Y T BXUXMXP E b b ' ^ ' JXUXpX< z k 7 R R R - . mXUXnXo # d.# + XXXXxXUXUXUXUXPXzX'.~.m.j.n.c.6XUXUXAXo.,.<.>.>.>.3.3.&.N.B.v.<X_.",
"L.W.@Xy a M z 7 P Y 2 b IXUXiX> k b b b c yXUXIX~ 4 8 7 4 R X X @ . rXUXIXq # d.$ p.+X#XL.0XkXkXrX`.!.~.2X<XZ.k.Z.KXUXKX3.,.<.6.>.>.4.2.@.*.V.v.<X'.).",
"oX@Xi a l 7 v 1 1 2 1 iXUXIXV z x v v x < pXUXCX4 - 5 5 @ @ X @ @ @ q IXUXkXo d.p..XR.W.W.K.9.8.8.q._.2X4X4Xh.j.KXUXIXA.1.<.6.6.>.1.5.&.#.%.x.z.<X|.|.",
"@Xw r l 7 ! , T 2 j , pXUXCXg x g 8 k x x JXUXrX. 4 4 q q @ @ @ # 9 + pXUXUXrXO OXOX|.}.}.'.r.e.t.e.n.<X4X| 8XKXUXUXfX,.4.6.:.6.;.3.O.*.N.x.z.Q.|.R.+X",
"i r a h ! Y T 1 b h k iXUXHX8 8 8 8 M g wXUXUX:X4 X q 9 q # # # $ $ +XU.DXUXIX0X9.8./.|.|.'.e.q.q.j.k. .F.hXIXUXUXfX,.7.6.>.6.6.1.3.&.B.x.z.<X(.%X.XXX",
"n z b j Y T Y , h k n :XUXUXrX4 6 6 e V GXUXVXe r 9 w i 0 q $ + i.i.XXW. XGXUXUXbX&Xe.w.!.Q.w.q.0.0.Z.gXSXUXUXKXfX=.4.<.>.>.6.,.2.@.#.v.k.<X`.%X+XXX0 ",
"g k b { T T v k l n a w pXUXUXcXrX>XpXPXUXIX:XN =XN *X*X@X$ p.p.i.i.OXR.E.|.vXUXUXUXDXjXhX0XgX0XhXAXKXUXUXIXAX2.=.-.6.-.>.4.4.5.&.N.V.,Xm._.).R.@X0 n ",
"7 P T T T j v x g m N d d cXUXUXUXUXUXUXPXwXI.=X=X*X=X;X+Xd.p.OXs..XOXOX%X}.r.9XGXUXUXUXUXUXUXUXUXUXUXPXAXfX=.;.<.6.>.6.4.4.3.+.#.x.k.4X'.`.OXoXy n M ",
"E Y T T ~ z 8 n N d 0 t =Xt 0XNXJXJXGXxX#XY.W.oXoXW.#XW.R.OXs.L.).OXf.f.r.{.'.t.q.9XjXSXKXLXPXKXSXAXhXA.=.=.,.4.6.6.6.4.4.3.O.X.%.v.z.Q.(.L.oXy N 7 E ",
"Y T T T x x r w t 0 + i.U.U.9 I.W.E.E.O a.L.T.s.a.J.s.s.L.(.}.}.}.f.u.e.e._.2X5Xt.0.0.h.V.8X8X%.$.....2.3.4.4.>.:.6.4.,.2.5.X.V.4Xz.e.`.).U.y N m 7 P ",
"[ T T S g r i t W.XXs.J.E.R.J.s. XP.P.(.s.K.E.J.f.J.9.u.J.(.'.}.'.`.q.q.t.m.1X<X<Xx.c.x.%.%.$.%.&.5.2.,.4.-.>.>.6.4.3.2.2.B.#.v.<Xy.r.).+X*XN r 8 > P ",
"T b v c M i 9 OXW.OXT.T.].}.^./.(.`.].].].[.[.[.'.].^.r.r.e.e.^.{.~.t.j.n.,X3X3X3XV.%.%.%.#.&.&.3.3.4.4.4.>.>.>.-.1.3.3.M.M.x.n.m.r.).T.9 i N z v Y Y ",
"Y b c M e d +XL.}./.r.'.(.^.].!.e.e.y._.{.(.Q.!.{.{.{.{.~.t.q.y.2X2X<X<X3X3X3XF.F.%.#.*.@.@.O.2.2.1.1.4.-.>.>.>.4.2.O.M.N.x.j.y.`.(.R.*Xt a n h 2 2 T ",
"v z M d $XY.L.(.(.r.y._._.!.!.1XQ.!.y.t.1XQ.q.Q.{.{.2X{.~.<Xt.y.m.,X1X3Xv.v.8X%.%.%.*.X.M.O.1.3.4.4.4.-.>.>.4.4.2.&.*.N.x.b.y.'./.L.oXN m l h ! T T 1 ",
"c C y d R.L.(.^.!.w.Q.Q.!.S.!.k.l.D.,Xz.Q.1X!.Q.1X{.Q.~.1X2X,Xz.j.b.3Xx.h.B.%.%.*.&.5.X.3.1.;.4.4.6.6.>.>.<.4.4.2.*.N.h.k.4X7X|.J.@XoXq V k ! Y Y 2 , ",
"l B u Y.P.}._.Q.Q.!.,X,X,Xl.x.c.x.3X1Xy.y.~.!.{.{.2Xe.n.z.4X1X<Xj.j.V.B.M.h.B.*.*.*.*.3.3.1.-.<.>.>.6.-.<.4.3.2.*.M.h.h.z.{.|. XR.XX9 a S j T T T , 7 ",
"r $X=X-X[.~.~.1XD.D.| F. .x. . .c.n.n.<X<XQ.y.5X_._.y.n.n.<X4X4Xv.c.V.B.M.M.N.&.3.3.2.3.1.;.>.:.>.>.-.6.3.1.O.X.#.x.b.z.t.`.).W.$Xy M z b Y T ( P j l ",
"d Y.P.[.!.y.z.D.D.x. .G.$.%. .l.k.Q.y.Q.!.~._.Q.e.m.y.z.z.b.4X3X3X%.#.B.B.M.2.5.3.1.4.3.-.>.:.:.>.6.4.4.2.1.M.B.3X3X4Xy.e.}.OXY.0 n n h b ^ T 2 h x n "
};
