/* XPM */
static char *result[] = {
/* columns rows colors chars-per-pixel */
"75 75 256 2 ",
"   c #D97F3F",
".  c #BB6C68",
"X  c #B9776B",
"o  c #A96D7B",
"O  c #B66D78",
"+  c #AA767B",
"@  c #BB7A74",
"#  c #B77679",
"$  c #B47B7B",
"%  c #D67D45",
"&  c #CA7552",
"*  c #C87859",
"=  c #D37D57",
"-  c #C67964",
";  c #C37D6C",
":  c #CE7A68",
">  c #C17B72",
",  c #BC8F58",
"<  c #BB9A59",
"1  c #BBA959",
"2  c #B3B654",
"3  c #B9B95A",
"4  c #9C8A7B",
"5  c #9C9979",
"6  c #AA876B",
"7  c #BA886B",
"8  c #A99969",
"9  c #B9986A",
"0  c #A98579",
"q  c #AB8D7C",
"w  c #B58676",
"e  c #AC9B75",
"r  c #A89578",
"t  c #AA947B",
"y  c #A59B7D",
"u  c #A99B7A",
"i  c #B29872",
"p  c #9EAD6A",
"a  c #9AA77C",
"s  c #9CB67A",
"d  c #AAAA69",
"f  c #BBA364",
"g  c #B7AB67",
"h  c #B4A36C",
"j  c #ACB46D",
"k  c #AAB96A",
"l  c #B6B865",
"z  c #B2B36A",
"x  c #ABA374",
"c  c #A7A877",
"v  c #ABAB72",
"b  c #A5A47A",
"n  c #A3AC7B",
"m  c #B4A775",
"M  c #A4B474",
"N  c #A6B576",
"B  c #B8B575",
"V  c #CC8F4B",
"C  c #D8854A",
"Z  c #D2944C",
"A  c #CA8B57",
"S  c #CC835C",
"D  c #D48455",
"F  c #D78755",
"G  c #C8975A",
"H  c #D39555",
"J  c #CAA951",
"K  c #C5A959",
"L  c #C4B558",
"P  c #C78666",
"I  c #C39564",
"U  c #D08D72",
"Y  c #E29E73",
"T  c #C8AE6C",
"R  c #ACC35A",
"E  c #B6C85A",
"W  c #B6CE58",
"Q  c #9DC075",
"!  c #ACC468",
"~  c #B4C765",
"^  c #ADC472",
"/  c #C2C259",
"(  c #C6C373",
")  c #6F5BBD",
"_  c #7B75A9",
"`  c #7D7BAC",
"'  c #736AB5",
"]  c #7D6CB6",
"[  c #7567B8",
"{  c #7B65BD",
"}  c #756CBD",
"|  c #7B6CBC",
" . c #7577B5",
".. c #7D75B4",
"X. c #7D7AB3",
"o. c #7572BC",
"O. c #7A73BB",
"+. c #5F53D0",
"@. c #675AC8",
"#. c #6C5ECC",
"$. c #725DC7",
"%. c #665AD4",
"&. c #6A5DD2",
"*. c #6C67C4",
"=. c #6D62CC",
"-. c #7465C5",
";. c #746BC3",
":. c #7768C5",
">. c #7164CA",
",. c #7B74C6",
"<. c #6C61D1",
"1. c #796ED5",
"2. c #9A7989",
"3. c #936B90",
"4. c #986D98",
"5. c #9A6D9A",
"6. c #8B7999",
"7. c #997796",
"8. c #9B7C94",
"9. c #94749D",
"0. c #9B739A",
"q. c #937B9C",
"w. c #A36D8D",
"e. c #A87787",
"r. c #A37C8C",
"t. c #B37684",
"y. c #A37493",
"u. c #A47A92",
"i. c #8159AE",
"p. c #886BA9",
"a. c #926DA3",
"s. c #8C74A5",
"d. c #847DA5",
"f. c #8879A7",
"g. c #8C7CA4",
"h. c #8574AD",
"j. c #8A74AA",
"k. c #847CAB",
"l. c #9377A2",
"z. c #836CB3",
"x. c #8468B4",
"c. c #8274B3",
"v. c #847AB5",
"b. c #9779B9",
"n. c #8477C5",
"m. c #867DD5",
"M. c #7D8799",
"N. c #7C84AB",
"B. c #7484B3",
"V. c #8D8A89",
"C. c #9D848D",
"Z. c #958989",
"A. c #9C8C8C",
"S. c #8C988C",
"D. c #959484",
"F. c #9D9486",
"G. c #9C9C84",
"H. c #95948D",
"J. c #9B938B",
"K. c #949C8C",
"L. c #9B9A8A",
"P. c #8C849D",
"I. c #898998",
"U. c #8C8B9C",
"Y. c #958595",
"T. c #9A8492",
"R. c #948C94",
"E. c #9A8B92",
"W. c #92839B",
"Q. c #988399",
"!. c #928A99",
"~. c #8D9395",
"^. c #8B9996",
"/. c #8B929C",
"(. c #939393",
"). c #999495",
"_. c #929A92",
"`. c #A48585",
"'. c #A48D84",
"]. c #A88886",
"[. c #A2838B",
"{. c #A39384",
"}. c #A49587",
"|. c #A29B83",
" X c #A68997",
".X c #B58F94",
"XX c #A89A96",
"oX c #97A787",
"OX c #9CA483",
"+X c #91A890",
"@X c #A7A685",
"#X c #B3B18C",
"$X c #A8A596",
"%X c #8483A4",
"&X c #8B83A3",
"*X c #848BA4",
"=X c #898BA2",
"-X c #8483AB",
";X c #8787AA",
":X c #9789A5",
">X c #8893A5",
",X c #9896A7",
"<X c #8886B6",
"1X c #9389B5",
"2X c #9996B6",
"3X c #AD96AE",
"4X c #9FA0A0",
"5X c #B1B0AF",
"6X c #B7A6B8",
"7X c #C8958F",
"8X c #CFB090",
"9X c #E5B493",
"0X c #C499A7",
"qX c #CEB3AC",
"wX c #C6B7BA",
"eX c #E4B9A8",
"rX c #B5C58E",
"tX c #BBC9A5",
"yX c #CECD8F",
"uX c #CFCFB0",
"iX c #DCDFB1",
"pX c #E7CCB3",
"aX c #938ACF",
"sX c #A59AD3",
"dX c #B4ADCF",
"fX c #A39DE0",
"gX c #B2AAE5",
"hX c #C5BCCA",
"jX c #CABAD1",
"kX c #C3BCE8",
"lX c #D8C8C8",
"zX c #D7D6C6",
"xX c #CCC7D2",
"cX c #DBD8D6",
"vX c #E5CCC8",
"bX c #E7D8C9",
"nX c #F2DCCE",
"mX c #E8DBD9",
"MX c #DCE2D2",
"NX c #E8E6C9",
"BX c #EAE8DA",
"VX c #F3E7DA",
"CX c #EFF2DE",
"ZX c #D9D7E7",
"AX c #D4D0EE",
"SX c #E4DEEB",
"DX c #E9E8E8",
"FX c #F4EBE8",
"GX c #F6F3EA",
"HX c #E8E6F4",
"JX c #ECECF3",
"KX c #EFF0F0",
"LX c #F5F3F4",
"PX c #F8F5F7",
"IX c #FBF9F5",
"UX c #FEFEFE",
/* pixels */
"XX$X).:X>X1X;X<X<Xv.v.aXB.<X>X>X:X,X,X,X).,X!.:X:X:X:Xb.1X;X1X1Xv.<Xv.n.n.n.n.n.n.1.1.1.1.1.1.1.1.1.,.,.aXv.<X1X2X>X,X,X4X4X$X@X#XB m ( T / T B B N @X",
"`.A.I.g.d._ `  .] [  . ._ N.N.*XI.P.9.I.I.q.9.Y.!.W.9.9.f.k.` X.x.z.o.{ x.-.$.$.#.&.#.%.%.%.%.=.#.*.;.o.;.x.] k.g.l.7.~.S.D.|.s M j l ~ W W 3 k M x OX",
"(.Y.P.f.k.x.{  .[ o. . .` f.&X/.P.U.R.!.Y.Y.W.U.P.9.g.f.f.p.c...| | o.;.;.;.=.#.<.%.%.%.%.&.#.>.;.;.;. .z.p.p.:Xg.0.Y.E.e.].q M N k ~ ~ ~ ~ z 7 c {.e.",
"Y.I.a.h.X.i.[ } } B.B. .%X*X6.I.Y.~.~.!.Y.Y.!.U.W.6.g.s.f.h.c...O.o.;.;.>.=.=.#.<.<.%.<.#.#.>.;.;.,.o.X.z.p.g.=XU.!.Y.e.].{.n v j ! W W L l ! e y OXJ.",
"P.g.p._  .{ } *.} B.B.k.*XI.q.!.R.R.~.(.T.T.8.Q.U.g.l.s.h.X.c.] | } ;.-.>.=.&.&.%.%.<.=.=.-.>.;.X.O...X.h.f.=X>X/._.r.e.@X@Xv 7 j l 3 W , h Q s OXA.^.",
"P.f.p. .] $.*.}  .N.d.%XI.U.Y.R.T._.K.S.R.Y.!.!.U.q.g.f.h.h.c.O.| :.-.-.>.=.&.%.&.<.>.>.>.:.;.o.O.v.v.c.j.s.&X/.^.(.e.'.a n I 9 ! K K ! h h r oXoXH.Y.",
"d.p.] ] [ $.*.[  .` %XI.I.R.H.C.J.J.K.Z.H.E.T.!.W.9.g.s.h.` v.| ;.:.;.>.=.&.<.<.=.>.;.:.-.{ { ..z.p.c.j.a.a.U./.^.A.e.e.@Xu I j ! E l ^ Q e 5 oXK.~.P.",
"f.p.{ ' ;.*.o..._ N.I.~.^.H.Z.A.J.J.L.J.H.H.T.T.Q.&Xl.j.k.c...| } } ;.;.=.=.&.=.>.;.:.;.} { O...z.p.j.f.l.q.U.~.(.A.t.w N N j z 1 l A j N a s +X^.^.P.",
"`  .'  .*.}  .` P.P.Y.!.H.A.F.F.}.}.{.L.L.C.E.E.!.W.g.s.f.h.z.} :.;.;.=.=.#.#.>.>.:.} ;.[ | X.X.c.k.-X%X*XU.W.T.J.D.0 {.N N k I G g h m t |.K.+X^.I.d.",
"_  .o.} } B.B.%XP.I.Y.J.D.F.F.|.{.}.}.G.J.A.E.T.Q.q.g.f.h.c.O.| } -.*.=.=.=.-.-.;.| z.| ] ] X.X.k.k.%X*X=X/.(.C.J.L.a n v ^ k f z j k u |.|.oXM./.I.d.",
"` .. .o. .B.d.I.I.H.A.J.'.{.y y y y y {.G.J.J.E.Q.!.l.s.h.c...o.;.*.>.;.;.*.;.;.;.O.x.{ x.z.X.k.j.a.g./././.(.J.L.oX@Xw x z f l k N N b OXF.H.+XU.P.%X",
"` B. ...] ` d.V.S.H.F.{.q y y b y y t y {.'.J.Z.Y.W.l.s.k.N.c.] :.*.*.*.*.*.;.;.| | | z.z.z.k.-Xf.l.6.I.6.Y.r.e.'.oXq w h 9 P z Q N n |.}.+XH.^.I.s.f.",
"N.B. .` d.s.Y.R.A.F.{.|.u u u b b u y y F.0 }.5X5X,Xl.6.f.h.] ] ;.aXaXaXaXn.*.' ] ....c.h.h.f.f.6.P.=X,X3X3X0X.XA.a a v e P , h M Q oX{.'.J.Y./.I.%X-X",
"` ` ` ` 6.Y.R.A.].t |.u u b u x b e u 5 #XcXPXUXUXUXHXjXs.' 1XgXHXIXUXUXUXUXSXdXv. .X.h.p.p.d.2XjXZXPXUXUXUXUXIXDXzXrXd 9 9 d M s s s oXoXS.R.V.M.*XN.",
"-XN.s.6.q.8.J.F.{.y u b b c e i e b r qXPXUXUXIXKXUXUXUXZXjXPXUXUXUXLXLXPXUXUXUXHX2Xz.f.p.2XZXUXUXUXUXUXPXLXPXUXUXUXUXzXz k Q N s s oXoXK.S.~.!.I.I.*X",
"N.%XP.U.C.8.J.F.q y u u e e e t r x @XIXUXDX5XL.).,XhXIXUXUXUXDXsXaXB.v.v.aXjXPXUXPX2X;XcXUXUXUXDXhX6X).r.XX+X$XqXBXUXUXGX#XM N s a G.OX+XH.I.^././.%X",
"I./.~.~.Z.J.G.'.q u u t i e b x u 6 uXUXKX'.2.Z.(.~.6.hXUXPXdXN.' ..X.h.p.p._ 1XJXUXLXJXUXUXcX3XY.Y.2.^.D.D.oXt 4 s tXGXUXGX#Xi a y q `.K.C.H.~.I.!.I.",
"I.!.(.H.J.F.{.y y u q e e e x x e u KXUXuXZ.[.r.E.(.I.,XPXdXN.N.N.N.` p.f.p.a.p.1XPXUXUXPX6X6.I.!.(.T.C.K.+XoX|.y n p rXGXUXmX$ y y oXD.oXK.K.^.R.Y.I.",
"R.R.D.J.J.{.'.y b t w r y e e b e qXIXPX$XF.J.[.T.Y.U./.5XN.>XN.-Xp.%X-Xf.N.%Xg.M.5XUXKX,X6.8.!.T.(.Z.C.D.oXoXb t i e k rXUXUXqX5 w a G.oXK.H.J.H.R.~.",
"Z.A.C.F.F.'.{.q u y u y e b e u 5 zXUXBXA.L.).).R.8.0.q.M.>X>XN.N.a.a.*X&XP.>XI.g.P.jX4XI.y.8.(.T.K.A.L.oX'.@XoXn c M Q d bXUXMXb n oXOX5 OXL.L.L.D.R.",
"A.A.[.'.F.{.G.|.y y r q u u b b @XLXUX5X4 L._._.(.Y.0.5.W.>X>X*X>X/.l.P.=X0.P./.q.7.6.R.R.8.w._.+XK.A.F.oX+ u s s M M v 6 8XUXPX#Xs oXa a |.G.G.{.H.Z.",
"`.J.J.}.}.{.{.|.y y '.t t t |.5 uXUXIX$XH.J.A.).^.(.8.y.9.3.9.P.M.M.>XU./.!.0.U.!.I.^._.8.8.T.Z.D.D.4 a OXq q b x i i j v N LXUX#X6 M a n a y |.OXA.C.",
"`.F.F.'.'.'.'.'.{.{.'.t ].{.|.D.cXUXcXD.).[.r.u.E.(.~.8. XdXjXxXxX3XI.^.^.^.(.Y.y.R.K._.r.e.2.XXwXlXlX5X5 0 @ w 7 P i M M h DXUXuXX x c e e b t {.A.0 ",
"F.F.J.'.{.F.F.'.'.{.'.'.].}.D.$XPXUX5XS.J.r.u.u.r.R.~.5XGXUXUXUXIXUX6XV._.R.H.^.r.r.K.+X[.t.jXPXUXUXUXUXcXa t i i e v v v 7 mXUXuXM N N i e c r {.'.'.",
"F.F.{.'.}.J.A.'.A.J.'.J.J.L.Z.wXUXLX).K.(.R.r.y.y.w.wXUXUXLXcXlXFXUXPXu.).[.w.J.K.J.L.D.J.mXUXUXKXzXDXUXUXuXp N N j e h d 7 FXUXuX8 k m j e r y G.{.{.",
"F.F.A.J.J.A.C.A.Z.A.).L.L.(.H.DXUXxX2.R.(.H.T.u.w.0XUXUXcXr.2.V. XPXUX.Xr.L.t.t.G.oXL.+ vXUXPXuX].5 a zXUXGXs M N j 9 v j I FXUX8X7 z I 9 i t y G.OXG.",
"}.J.A.A.A.A.E.R.E.E.).).(.V.,XUXUX3X7.8.T.R.H.8.y.JXUXcXC.e.w.`.K.DXUXwX0 oXJ.t.F.oXa 5XUXUXuX5 a n p #XUXLXN k k j j ^ k #XUXUXT z ~ g 9 v e y y '.'.",
"'.A.A.C.R.(.Y.T.!.!.(.R.R.M.xXUXDX7.4.7.7.Y.(.V.wXUXPX.Xw.e.t.w.@XKXUXtXa oXOX{.@X5 t KXUXMX4 r b w p uXUXKXm z 9 I B ! R iXUXVX3 l f ^ h e e y t '.].",
"J.H.Z.T.Y.!.7.q.W.W.U.U.=X=XDXUXjX3.0.5.y.0.Y.H.DXUXxXo t.e.t.O XXUXPX#Xa oXb 0 t r qXUXLX#Xx b i > X zXUXvX7 h P P g ! ! CXUXiXR l f 9 d c 5 q {.{.'.",
"A.(.E.Q.W.W.:Xl.g.g.g.&X&X2XUXUX2X6.a.5.4.y.w.6XUXUX$X+ t.t.t.. qXUXKXa a s b @ . $ BXUXzX8 c s v w U UXUX8X, g P I l 2 yXPXPX( K l k 9 i y y q '.{.J.",
"r.Y.Y.q.&X&X&X&Xs.j.j.-X_ xXUXDX%Xg.l.5.5.w.3.xXUXSXD.`.O t.O O VXUXzX8 w e M e . 7XUXUX7X7 ; i M p uXPXGX^ l ! l T G 1 NXUXCX2 G z ! m 7 t y y {.L.).",
"Y.!.W.&Xg.g.&Xf.j.h.h.h.k.JXUXdX_ -Xg.9.5.4.y.FXUXuX5 L.+ O O 7XUXUX7X7 @ ; i M 6 eXUXCXM 7 - 7 9 9 BXUXzXR ! ! ~ K F G GXUXyX2 f k 9 7 i t @X'.J.J.A.",
"Y.P.&Xk.g.k.j.c.X.X.X. .sXUXPXb.z.k.;X&Xg.3.6XUXPX.X{.|.].# O eXUXFX- ; - - - 7 M CXUXiXp h ; 7 - U UXUXyXR k ~ ~ L V yXIXIX/ G A 9 7 i e u |.L.A.A.T.",
"W.&Xg.f.v.k.c...O.o.o.' kXUXAXi.p.f.;X=XU.3.cXUXmXt.].].q $ . FXUXeX. - ; - : - 8XUXPXrX! 9 I z , eXUXFXl K 1 W W E / NXIXNXV P I g h s u {.}.].A.T.8.",
"&Xs.f.h.c...O.| { [ *.,.KXUXsXi.p.j.&X/.U.).PXUX0Xe.t.# w X 7XUXPX7X& : P P : * pXPXCX! ! z l ! l FXUXiX3 K 3 W W W L IXUXyXK f 7 7 c n @X|.].).(.Y.P.",
"&Xf.c.v.| | | :.$.-.*.sXUXPXv.p.p.l.:X!.I.wXUXPXt.O t.> # X vXUXnX: : : P I P : GXIXuXR ! ~ ~ ~ yXUXUX( E 3 E L E E pXIXGX^ j I 7 i w y {.|.}.E.Y.W.&X",
"-Xk.v.z.{ ;.;.>.-.>.@.AXUXZX_ j.a.a.y.y.W.mXUXlXo # > > - > PXUX9X= : P S I f 9XUXUX^ R ~ ~ ~ E iXUXnXF L / J C Z 3 CXUXiXd k 9 x N y @X|.|._.(.U.&X*X",
"k.z.O.,.;.;.=.*.>.$.n.PXUXsX_ s.a.a.5.y..XIXUX0XO t.t.> - 0XUXPX: : = S A K 2 NXUXNXE ~ ~ W ~ W GXUX9X  H J F C V ( IXUX8X1 h M v t |.'.[.).).U.=X=Xk.",
"c.c.| ;.;.=.<.=.-.) sXUXLXj.p.a.5.5.5.w.wXUXKXt.O O > > - vXPXvX: : = S G 1 ~ IXUXyXE ~ W ~ W ( UXUXH C Z L H F V pXUXCXf ; i M b 0 '.`._.E.W.U.&X-Xh.",
"v.| -.>.=.<.<.>.:.-.ZXUXjXp.a.5.5.y.w.w.VXUXhXO # O > - U PXUX9X= = = = A 1 yXUXIXE 3 L L ~ W NXUXpXC Z J / E K S FXUXiX8 7 e e @XOX}.r.(.Q.U.&Xk.k.c.",
"| :.>.=.&.&.>.;.} aXIXUX2Xs.l.9.7.7.w..XUXUX7XO # . > - eXPXFX: = = = = F V nXUXNX2 J Z Z Z T IXUXyXJ K 3 ~ 3 G 8XUXPXB c n w w @XoXJ.y.R./.l.f.h.c.z.",
";.>.=.<.&.#.:.,.} dXUXHXg.P.I.Y.8.u.o jXUXmX# $ @ ; ; - mXUXpX& = = = = % Y IXUX( J Z C C   9XIXIX~ W W ~ ~ G < bXUXnX7 N n u ].}.L.E.!.!.&Xg.h.c...| ",
"-.=.&.%.#.-.| O.k.DXUXjX6.I.!.E.C.r.e.GXUXqXX $ > ; * 7XUXUXY = = = C C % 9XUXFXH J Z C C % nXUXiXE ~ ~ ~ ~ 1 j IXUXqX8 n oX@X].[.2.2.Y.9.s.-Xj...o.:.",
"=.&.&.#.=.:.O...aXUXUX2XI.U.Q.8.[.e..XUXUX.XX @ ; ; * eXUXVX* D F F C C C nXUXpX  J Z F % Y IXUXT E ^ ~ ~ ~ k uXUXGXm e t |.OX'.K.5XhXdX2Xs.f.c.] :.-.",
"&.&.&.=.-.| O._ xXUXSXP./.R.[.r.`.0 lXUXBX6 i P 7 ; P VXUXeX% F F C C C Y IXUXY C H Z G % eXUXCXT ~ ! ~ ^ ^ d nXUXvX8 $ # |.oX5XDXUXUXUXUXZX<X| } -.#.",
"&.=.=.;.| O...k.HXUXdXV.).).[.`.`.].LXUXuX8 i 7 P S 9XIXIXY D F F F F   eXUXVXF F C H G G VXIXpX2 ^ ^ k ^ k #XIXUX#Xq ].'.K.XXLXUXUXZXDXUXUXZX{ -.-.<.",
"<.>.:.| | v._ sXUXUX,X(.).L.].].+ qXUXIX#Xv m 7 P S pXUXnX% F C F F C F VXUXpX% F F F Z T UXUXyXl k z z j d uXUXFX|.@X@X+XV.xXUXDX,X6._ sXUXUXaX#.<.&.",
">.;.} | ] c.6.xXUXcXR.E.).|.|.{.6 bXUXNXd j g I A U PXUX9X% F F F F C Y UXUXY % F F U A bXUXCXk z h 7 7 i x DXUXzX5 }.J.K.XXUXUX6Xp.h.p.] SXUXfX@.&.&.",
":.:.| ..c.f.:XLXUX6XZ.[.].@X@Xb @XIXUXyXd z g 9 A 9XIXPXH D D V F F % pXUXnX= F D S S P FXUXuXk h P @ ; X #XUXUX#Xe.e.[.S.xXUXJXs.j.h.z.| HXUXfX+.%.<.",
";.z...c.j.6.dXIXPXXX[.].'.c n d uXUXGXm f 9 f K V bXUXpXC D D D F D = FXUXeX= S S P * 8XUXUX^ d i 7 @ @ X lXUXDX4 t.e.R.^.JXUXhXp.j.z.' aXUXUX1.%.&.;.",
"O.O.c.k.&Xq.cXUXcXZ.'.t b N c v BXUXiX< I A I G T IXUX9XV D F A D = 9XIXUXU = P - P * vXUXNX8 i i @ @ X 0 LXPXuXZ.[.E.V.dXUXPX1Xp.x.z.) gXUXSX%.&.>.:.",
"X.c.h.&Xg.:XPXUX5X0 y b b M j #XPXUX8XG A G H V 9XUXGXF F D D D S & vXUXbX& * P - - P GXUXqXX 7 $ w w w qXUXPXXX`.T.~.,XGXUXxXh.j.| } ;.JXUXgX+.>.;.O.",
"c.j.g.P.6.wXUXKX].0 x e x v d iXUXGX1 G H Z Z Z VXUXpXC H F D S S P PXUX9X. ; - ; * 7XUXPX7XX $ X $ q y cXUXmX2.y.7.M.xXUXIX1Xp.z.:.[ fXUXPX1.@.;.;.O.",
"k.g.g.Y.2.DXUXcX0 e e e h z d CXUXiX1 H Z Z Z T IXUXT V H P D U & 9XUXPXP - ; ; ; . eXUXVXX X # $ $ 0 XXIXUX5Xw.y.6.5XPXUXdXp.c.{ ;.#.AXUXAX%.;.,.O...",
"f.P./.T.XXIXUX#X8 e i h z 1 T UXUX( L K J G V pXUXCXL G A H P S * nXUXvX- ; ; X @ . pXUXvXO # # + t.$ 0XUXPX).7.6.2XPXUXSXc.v.| :.=.aXUXUXaX*.} O...k.",
"&Xq.).Z.lXUXFXr i 9 f f g 1 pXUXVXL l L L J K CXUXiX2 g I P P S U PXUX8XX P > @ @ . lXUXvXO t.+ t.e.+ wXUXDXW.9.6XLXUXLX<XX.O.;.>.<.AXUXAX@.,.O...p.s.",
"q.8.J.{.DXUXuX8 9 h f g L J GXUXpX1 E l 3 3 yXIXUX^ l l h I P * eXUXFXU @ > > # $ X lXUXvX+ + t.e.r.e.3XUXUXSXFXUXUXJX1X .O.,.;.%.fXUXUXaX$.o.O.c.s.q.",
"T.J.D.5XUXUX#X1 h K L l K 8XUXIXT l l E ~ 2 NXUXBX1 z h 9 7 P * mXUXlX. > @ # # $ + wXUXmXe.e.w.e.C.A.I.xXUXUXUXUXZX<X..,.} ;.@.1.PXUXkX) } ] c.k.&XQ.",
"J.}.4 uXUXVXd 9 G K l T K bXUXNX1 l l l l l GXUXeX, h 9 P 7 X 7XUXUX7XX @ $ $ # $ + 5XUXIX Xe.e.8.8.U.U.=X6XhXdX2X.. .| -.;.=.<.SXUXJX,.o.X.c.f.&X!.E.",
"'.{.e FXUXuX2 3 1 3 ~ L g GXUXuXd z z k k rXUXIXU X 7 7 @ > X eXUXFX$ 0 ].+ $ e.+ `.}.KXUXxX2.7.7.0.q.*X*XN.a.p.i.c.o.:.-.=.+.AXUXUXaX[ O.X.f.f.W.).).",
"{.t m GXUX8X1 3 3 l g 1 8XUXIXB d h h j p uXUXBX7 7 7 7 @ w @ FXUXwX0 }.].e.].e.`.A.Z.xXUXPX3X3.0.5.a.d.-X-Xj.x...o.,.;.@.%.AXUXUXsX[ | z.h.g.U.!.A.'.",
"y e h FXUXyXJ 3 l T g 8 FXUXzX8 9 9 d v 8 uXUXVX6 @ w w w X 0XUXUX.X0 |.}.].'.e.r.8.C.R.HXUXFX3X3.4.l.-X-Xh.c.z.o.;.*.=.aXHXUXUXgX) O.X.p.&X&XY.XX[.].",
"x v d NXUXVX1 < < h h zXUXUX8X6 i e v e X #XUXUXqX6 0 y 6 .XFXUXmXo ].L.K.H.C.u.w.y.8.8.,XKXUXUXjXb._ _ _ _ } } ) $.m.gXUXUXPXfX) O.X.k.f.&X!. X[.0 q ",
"d g 3 yXUXUXBXyX8XuXBXUXUXuX6 w i r r q w X mXUXLXuX5XtXlXPXUXLX.Xo [.J._.H.8.8.y.y.5.l.6.,XDXUXUXPXZXdXsXsXsXsXgXZXUXUXUXAXm.*.,...c.g.g.Q.Q.}.|.q x ",
"9 G T / yXUXUXUXUXUXUXUXuX5 y t t w 0 {.'.0 $XDXUXUXUXUXUXUXDX.Xe.[.[.[.).(.Y.7.y.y.5.a.&X-X;XdXKXUXUXUXUXUXUXUXUXUXUXSXfX#.) O.O.k.f.=X!.T.[.}.{.e v ",
"G K L L K 8XbXFXGXKXvX5Xa |.|.@X'.`.{.{.'.@XG.'.wXDXLXGXDXwXr.Z.J.u.y.y.8.!.:Xy.0.a.a.l.k.-X-X..-XsXxXZXHXJXJXHXAXgXaX&.#.-.} ] k.k.s.!.!.A.].{.b 9 I ",
"K L L L k d 8 e |.'.o + F.{.'.J.F.K.K.[.e.A.H.r.o C.[.u.Z.R.H.(.R.u.w.0.0.W.=X&Xq.a.a.j.X.-XX.X. .' ' *.:.:.1.<.%.%.#.>.;.o.| c.;Xl.9.Q.Z.F.t b v 9 G ",
"/ L T l j e y r 5 `.r.C.K.J.r.r.K.K.^.C.2.E.K.Z.2.T.r.w.8.E.Y.~.~.8.0.5.0.g.*X=Xg.j.j.h.X.X.X.X.O.,.;.;.-.#.%.%.<.>.;.;.o.| c.-X;X9.T.E.'.@Xb e 9 < G ",
"L L z k c y 0 `.L.[.H.H.~.(.E.Y.R.Y.I.^.(.^.^.~.!.(.Y.8.Y.4.7.Y./.U.9.a.l.-X-X;X-XX.X.X...X.O.o.;.:.:.>.=.&.&.&.#.-.:.{ x.z.h.l.q.8.T.K.`.t x m g K L ",
"K k k v e a '.A.J.Y.8.!.R.Y.~.U.q.7.Y.W.U.U.Y.U././.^.U.!.7.4.q.U.=X&X&Xg.-XN.-XN.X.X.v.| ;.| ;.:.-.$.>.<.&.&.<.>.;.} x.x.h.a.l.Q.Y.J.OXu e h f 3 E L ",
"z z v a |.G.A.R.R.q.q.q.W.I.P.I.P.I.6.9.I.P.4.P././.>XU.=X&X9.6.g.%X-X-Xk.k.B.v.X.X.O.| z.{ $.-.=.>.$.<.&.&.<.-.;.} | z.z.g.q.).E.E.'.OXc 9 f g K L 3 ",
"j M t a F.A.R.W.I.q.I.P.I.M.*Xs.6.N.-Xg.*X=XP.P./.>X=XI.=X=X=Xs.a.s.-Xk.p.c.X.X.O.o.o.{ n.$.$.$.<.>.<.&.&.<.>.:.,.O.z.j.p.=X>X).C.}.q w m m K L J 3 g ",
"h n 5 L.K.(.W.P.P.I.N.P.%Xd.d.p.f.k.=Xg.q.=XU./.U.=X0.l.&X%X=X&Xa.j.v.h.p.x.c.O.| | O.:.:.:.#.=.<.&.=.&.>.>.-.} O.x.z.a.q./._.).L.q q i B T 3 L L 1 I ",
"u y oX+X^./.P.*XN.N._ N.` z.` ` j.l.l.&XP.W.q.=XW.W.q.9.5.;X;X;Xj.j.c.X.x.x.z.o.} :.,.:.$.#.&.%.%.&.<.>.:.$.{ ] v.h.f.g.9.R.E.L.|.t M h l K L E G f h ",
"a G.+XS.I.6.g.-XN._ ` N. .X.N.%Xs.P.q.W.U.P.W.P.9.q.l.g.s.-X;X-X-XX...c.z.z.,.:.-.-.:.>.$.<.%.%.&.>.#.>.;.:.{ c.-X-X*Xg.0.R.[.L.q x e f l E L 3 1 v c "
};
