/* XPM */
static const char *MjA_[] = {
/* columns rows colors chars-per-pixel */
"75 75 238 2 ",
"   c #4D006C",
".  c #53006E",
"X  c #4E0070",
"o  c #540071",
"O  c #5B0273",
"+  c #5E0378",
"@  c #5F1173",
"#  c #630A78",
"$  c #671574",
"%  c #6E176E",
"&  c #79266D",
"*  c #6B2779",
"=  c #752778",
"-  c #783575",
";  c #7E4F73",
":  c #88346C",
">  c #BD6E58",
",  c #87467B",
"<  c #904D6C",
"1  c #A55564",
"2  c #91716B",
"3  c #BD7B6C",
"4  c #AC777D",
"5  c #B27B7B",
"6  c #B87B75",
"7  c #AD6C6C",
"8  c #C97356",
"9  c #C37D69",
"0  c #C17C73",
"q  c #B38F5A",
"w  c #BEAB5D",
"e  c #BCB85B",
"r  c #AEA05B",
"t  c #9E9875",
"y  c #BC886C",
"u  c #B49B6C",
"i  c #BA9768",
"p  c #AD847D",
"a  c #AB8C7C",
"s  c #AD8B78",
"d  c #B58775",
"f  c #AD9476",
"g  c #AC9B75",
"h  c #A6957E",
"j  c #AA947B",
"k  c #A59B7D",
"l  c #A99A7A",
"z  c #A19677",
"x  c #B29673",
"c  c #A98C65",
"v  c #9EA97D",
"b  c #9CB47C",
"n  c #9DBB78",
"m  c #AEA36E",
"M  c #ADAC6D",
"N  c #BBA364",
"B  c #BBAB63",
"V  c #B3A46B",
"C  c #B3AC6B",
"Z  c #B8A967",
"A  c #ACB46C",
"S  c #ABBB6C",
"D  c #A9BA6C",
"F  c #B4B365",
"G  c #B4BC64",
"H  c #B8B665",
"J  c #ABA374",
"K  c #A5AC75",
"L  c #AAAA72",
"P  c #A4A37B",
"I  c #A3AB7B",
"U  c #A8A578",
"Y  c #B2A473",
"T  c #A4B474",
"R  c #A3BB72",
"E  c #A6B476",
"W  c #B0B371",
"Q  c #CB865C",
"!  c #D68956",
"~  c #C7995B",
"^  c #DB8A4E",
"/  c #E58F4E",
"(  c #C4A95A",
")  c #C4B559",
"_  c #D0BC56",
"`  c #C68666",
"'  c #C59963",
"]  c #C48073",
"[  c #C2AC62",
"{  c #B7C85C",
"}  c #BAD85A",
"|  c #ACC568",
" . c #B4C463",
".. c #A1C172",
"X. c #C5C858",
"o. c #680D81",
"O. c #6C1285",
"+. c #72188B",
"@. c #791E91",
"#. c #7C2294",
"$. c #703382",
"%. c #774A83",
"&. c #7E7AAD",
"*. c #7E6EB6",
"=. c #7B65BD",
"-. c #766DBE",
";. c #7B6CBB",
":. c #7967BA",
">. c #7D74B5",
",. c #7D7AB3",
"<. c #7672BC",
"1. c #7A73BA",
"2. c #7678B7",
"3. c #6F76BB",
"4. c #7B6C8E",
"5. c #6E5ECE",
"6. c #735FC8",
"7. c #675CD5",
"8. c #6A5DD2",
"9. c #6D62CC",
"0. c #6E6AC5",
"q. c #7465C5",
"w. c #746BC3",
"e. c #7163C9",
"r. c #7667C3",
"t. c #6A60D0",
"y. c #7271C1",
"u. c #84289C",
"i. c #892EA1",
"p. c #8D31A5",
"a. c #9237AC",
"s. c #993DB2",
"d. c #884C84",
"f. c #905784",
"g. c #9C7B8C",
"h. c #9A6D9A",
"j. c #9B6D98",
"k. c #8E7D9E",
"l. c #8E779E",
"z. c #9C7494",
"x. c #9B7B93",
"c. c #95749D",
"v. c #9A739A",
"b. c #937B9C",
"n. c #977C98",
"m. c #936D89",
"M. c #AA7C84",
"N. c #A4738D",
"B. c #A37C8C",
"V. c #A87786",
"C. c #A37392",
"Z. c #A37B91",
"A. c #AD7787",
"S. c #9D41B6",
"D. c #A346BC",
"F. c #866DAD",
"G. c #8B6CAB",
"H. c #8C6AA9",
"J. c #926DA3",
"K. c #8C74A5",
"L. c #857CA6",
"P. c #8B7CA3",
"I. c #8575AD",
"U. c #8973AA",
"Y. c #847BAC",
"T. c #8979A8",
"R. c #9272A2",
"E. c #927CA0",
"W. c #8364B4",
"Q. c #836BB3",
"!. c #8466B5",
"~. c #8273B2",
"^. c #817AB1",
"/. c #8872B0",
"(. c #AA4DC3",
"). c #AE51C8",
"_. c #B95BD4",
"`. c #B154CB",
"'. c #BF60DA",
"]. c #C264DD",
"[. c #CB6CE6",
"{. c #CE6EE9",
"}. c #C667E1",
"|. c #CF70EA",
" X c #D272ED",
".X c #D676F1",
"XX c #7C83AC",
"oX c #7C88A8",
"OX c #7484B1",
"+X c #9D848D",
"@X c #9B8C8C",
"#X c #998D8B",
"$X c #9E9486",
"%X c #9D9C85",
"&X c #95948D",
"*X c #9B948B",
"=X c #949B8D",
"-X c #9B9A8A",
";X c #8D849D",
":X c #878C9E",
">X c #8C8B9C",
",X c #8B8899",
"<X c #958595",
"1X c #9A8492",
"2X c #948C94",
"3X c #998B92",
"4X c #92839A",
"5X c #928A9A",
"6X c #9A8298",
"7X c #8D9395",
"8X c #8C929B",
"9X c #8A9897",
"0X c #939392",
"qX c #929A92",
"wX c #989493",
"eX c #8C908B",
"rX c #A58485",
"tX c #AA8383",
"yX c #A48D84",
"uX c #AA8C82",
"iX c #A3838A",
"pX c #A48A8B",
"aX c #A39484",
"sX c #A29B82",
"dX c #A49587",
"fX c #A08591",
"gX c #9CA383",
"hX c #97A787",
"jX c #8EA88E",
"kX c #A2A483",
"lX c #A0B480",
"zX c #8484A5",
"xX c #8A83A3",
"cX c #848BA3",
"vX c #898BA1",
"bX c #8383AB",
"nX c #8785A9",
"mX c #878CA3",
/* pixels */
"aX-X2X,X:XzX&.&.,.W.>.2.2.XXoXcX;XvX;X>X,X4X4X,X4X;XK.J.T.bXbXY.~.>.1.=.;.-.r.q.e.e.e.9.8.7.7.8.9.9.e.w.y.1.>.bXnXxXxX>XqX=XhXgXP L i H ) ) ( B V K P ",
"B.2X,Xk.zX&.&.>.*.<.<.2.,.XXzX:X:X,Xb.,X,Xn.v.4X:X;XK.P.T.I.Y.^.W.*.1.=.=.w.q.6.6.5.5.8.7.7.8.9.e.e.w.<.1.Q.I.nXxXc.b.7X&X-XsXI E D |  .{ {  .A T U gX",
"wX<X;XL.&.Q.=.<.:.<.2.,.&.L.P.:X;X>X2X<X<X<X4X>X;Xc.P.T.T.G.I.,.>.;.<.w.w.e.e.9.5.8.7.7.7.8.9.9.q.w.<.2.Q.W.G.xXE.v.<X1XV.M.a E T S  .{ {  .A y U h M.",
"<X,XJ.F.,.=.:.-.-.3.OX&.zX:Xk.,X<X7X0X<X<X<X5X,X4Xk.P.T.I.I.>.>.1.<.w.w.e.9.9.t.8.7.7.8.9.9.9.e.w.1.1.>.Q.G.P.vX>X>X2XV.yXh I L S | { } e Z ..g k %X*X",
"4XP.H.&.2.=.:.0.3.OXXXL.:X:Xb.7X<X0X0X0X1X1Xn.n.>Xk.K.K.I.,.>.*.;.w.w.q.e.9.9.8.7.7.9.9.9.e.e.w.1.>.2.,.I.T.vXvX8X7XB.M.gXlXU ` C G ) { ' V n b gX@XqX",
";XU.F.2.<.6.0.-.2.XXL.zX,X,X<X2X+X=XqXqX2X<X<X5X>Xb.P.T.U.^.~.;.-.w.q.q.e.5.8.7.8.5.e.9.e.q.w.1.~.~.^.I.G.K.vX8X9X0XV.rXgXI y i | ( w | C m s gXhX&X5X",
"P.F.W.-.=.q.0.-.>.XXzX,X>X2X2X+X&X*X=X@X2X0X1X<X4Xb.T.U.I.^.^.*.-.w.w.q.e.t.8.t.9.e.w.q.r.=.;.>.Q.G.I.U.J.c.>X8X9X@XM.p I Y y A | { F S ..g h hX=X7X;X",
"L.F.W.-.-.q.-.>.I.zX,X7X9X&X@X#X*X$X-X*X*X0X1X1X5X4XK.T.Y.^.>.;.-.w.e.e.9.9.9.9.e.w.w.w.-.:.1.>.F.G.I.T.K.k.>X0XqX@XM.p I E A F w e ' A T v hXjXjX9XxX",
"&.>.1.3.w.3.2.XXzX;X4X0X&X#X$X$XaXaXaXhX-X+X3X3X5Xb.P.T.U.^.Q.;.w.e.0.e.9.9.5.e.q.w.:.-.;.1.2.,.I.I.bXzXvX:X5Xx.*X*Xp l E R D Q ~ Z V Y j sX$XjX9X,XP.",
"I.>.-.-.-.2.XXzX,X,X<X#X*X$XsXsXaXaXaXaX$X@X#X1X<Xb.P.T.I.^.>.;.w.e.0.e.9.6.e.q.e.-.=.;.;.*.2.,.Y.T.zXcXvX8X0X1X*X-XgXI E R S B Z A T g k %X*XjX9X:XzX",
"&.>.3.<.2.&.L.:X7X2X#X$XyXaXk k k sXaXsX%X$X*X3X<X4XE.K.I.,.>.<.w.q.9.0.0.e.q.w.-.;.;.!.!.Q.,.Y.U.J.P.vX8X7X0X*X-XhXk s J W N G S R E P gX-X&X9X,XP.zX",
"&.OX3.<.Q.L.;X,X0X&X$XyXuXh k P P l h h aXyX*X#X<X4Xb.K.T.Y.>.=.=.q.0.0.w.r.w.<.;.;.*.Q.Q.F.Y.bXT.R.k.:X4X<XB.M.yXgXa d J i Q C ..n I aXyXjX0X9X:XK.U.",
"XXOX2.&.L.l.4X3X@X$XsXh l l l P P l k k sXyX@X*X2X<Xb.P.T.I.>.;.:.w.w.r.w.-.<.;.*.>.>.~.I.I.T.T.P.xX;X4Xz.g.iXM.yXgXP U m ` i M R n b sX$X#X<X7X:XL.oX",
"Y.&.&.L.k.4X2X#XrXaXkXk P U g l P l j k sXaX-X*X2X<Xb.P.U.F.~.2.<.:.<.:.;.2.2.>.>.,.,.I.H.U.bXP.k.:X,Xz.x.3X-XhXhXlXb K u i M T n n hXhX=X=X2X<X:XcXoX",
"XXXXL.;Xn.x.*X$XaXsXk P U U g f g l j j k gX-X*X0X<Xb.P.T.I.Q.>.;.;.;.2.2.2.>.Q.Q.Y.I.T.K.T.cXzX;X5X>X<X<X=XhXhXgXk E L C A R n b b gXhX=X=X7X7X,XzXzX",
"cXzX,X<Xx.+X*XaXyXk l l g g g g g J P P P aX$X&X0X2Xb.J.K.bXY.>.!.*.2.>.~.,.~.&.Y.Y.T.zXT.P.xX;X8X4X1X0XB.@XhX%Xa l K y i D E I v v %X%XhX&X2X7X7X8XzX",
":X:X7X7X#X*X%XaXj l l f f g J J g f j k gXaXiX+X0X0X>X;XR.T.bXXX,.,.,.I.F.F.F.Y.T.L.P.xXR.c.k.,X<X2X1XqX&X-XhXaXh b T y u J x l P k aXrX=X@X&XqX,X,X:X",
",X2X0X=X#X$XsXaXk j f f g g J U g f a a %X$XiXB.3X0X>X:XxXxXbXXXXXXXXXG.U.U.H.K.zXxXxXxXc.c.c.7X<X2X1X+X&XhXhXsXk I T T u x d d k k gX%XhX=X=XqX2X<X,X",
"<X3X&X*X$XyXyXsXP j a j P g g g U l a uXaX-X#X+X1X<X4X:XvXvXcXoXbXG.bXzXP.cXxXP.vX:X>X8X>X4Xn.2X1X0X#X+X*XhXhXkXh x J R T K g l l p gX%XhXhX&X#XwX0X7X",
"+X#X+X$X$XaXaXh h l j l l U l l P k aXaXaX-X=X0X2Xn.v.4X:XvXvXcXcXJ.J.cXxXP.:X:Xb.;Xb.7X9Xz.n.0X2X=X@X*XhXtXsXb I K R R J g K n P v lXgXgX%X-X-X-X*X2X",
"#X@XiXaXaXaXsXsXk k j a j l P P P %X%X-X-X*XqXqX0X<Xj.h.;XvXvXcXcXcXJ.xX:Xh.k.8Xc.b.4X<X2Xz.C.0XjXhXiXyXhXtXh b n T T L d d g b b b b v gXsXsXsX$X*X&X",
"rX$X$XaXaXaXsXsXsXk j j j h k kXsX%X-X-X*X@X@XwXqX0Xn.j.v.b.E.vX8X8X8X8X9X5X6X7X2X<XqXqXZ.g.@X&XhX$X$XhXhXuXj P U x x K K E E T l d P I I v k k gX@XrX",
"rXyX$XyXyXaXyXrXaXaXaXyXuXuXsX%X-X-X-X-X*XiXB.Z.3X0X0X1X6Xn.d.$.$.* $.4.8Xl.%.$.* * - %.f.B.iXV.iXrXtXgXv p 5 d d 9 u T T J K E g x J I f g I j aX$XrX",
"$X$XaXaXaXyX$XyXyX$XyXyXyXaX$X-X-X*X=X=X&X+XZ.C.Z.3XqXqX<X* .   o o   o $ .   . o o .   o $ f.tXM.%XsXk k P l x x u L L L y y T R T E E u g U h sXyXrX",
"%X$XaXaX$X*X@X@X@X$X$X$X$X*X*X*X*X*X0X0X&X@XZ.C.C.B.2XqX* . o.s.).(.s.# . O.a.D.).).D.p.o.. O , M.sXhXh 6 f T E T A u u L ` y A A m A C W u l k %X$X$X",
"$X$X@X@X$X@X+X@X@X#X*X*X*XwX0X2X3X1X1X2X0X0X1XC.N.N.fXm.. o.'. X X X.X`.S.[. X X X X X X].a.O o : P b P d f T R R D u M A i ` V i i C ' i x l k %X%X%X",
"aX@X@X@X#X#X3X2X3X3X3X0X0X2X2X<Xn.x.x.x.<X0X0X+XN.N.B.* . S. X}.[.[.[.{. X[.[.[.[.[.[.[.{. X(.+ o 2 R b K K R R A A S S S C ` ` i G G Z i U l k sXaXyX",
"aX$X@X@X2X2X<X<X<X<X2X7X5X>X,X>Xn.v.v.z.z.1X0XwX+XB.m.O # ].{.[.[.[.[.[.[.[.[.[.[.[.[.[.[.[. XD.. # z E x y m A i ` C | | | F ' G F N S Y g l h yXyXrX",
"$X&X3X1X<X4Xn.n.4X4X>X>X>XvXvXvXk.c.h.h.j.z.1X0X&X-Xd.  u. X[.[.[.[.[.[.[.[.[.[.[.[.[.[.[.[.[.{.@.  < W y 9 y V ` ` Z | | F w  . .F Z i L U l h aXaXyX",
"*X0X<Xn.4X4Xb.E.P.P.P.xXxXzXzXzXxXR.h.h.j.j.z.2X=X=X* . (. X[.[.[.[.[.[.[.[. X X{.[.[.[.[.[.[. XD.  - C V ` i C ' ' F |  .~ ! e ~ H S u x g k h yXaX-X",
"g.<X4Xb.;XxXxXxXK.U.U.T.bXY.T.bXzXP.R.h.h.j.z.x.qXeXO o.}.[.[.[.[.[.[.[.|.[.D.a._.{.[.[.[.[.[.{._.O * R S A S | G B ~ ( { ( ) e ~ F S m y f k sX%X-X*X",
"1X5X4XP.P.P.T.T.I.I.~.,.^.F.F.I.Y.bXP.c.h.j.z.x.-X%.  i. X[.[.[.[.[.[. X_.+..   O.[.[.[.[.[.[.{.].+ @ D | | | |  .~ 8 ! { { { G N A i x d j kXyX$X*X@X",
"4X;XP.P.T.T.I.^.,.>.>.>.*.!.W.!.F.Y.nXxXb.v.z.x.+X$ . ). X[.[.[.[.[.|._.# . % O + ].{.[.[.[.[.{._.O $ Z |  .G  .{ ( ~ ) { { e ~ ` i ` g g l sX-X@X3X1X",
"4XxXP.T.I.^.^.>.1.1.<.<.;.W.W.W.!.I.zXvX>X4Xx.Z.f.. O.[.[.[.[.[.[.[.[.+.  : 1 . @.{.[.[.[.[.[. X(.o & '  .w w { { { { ) e { Q Q ' V J E l sXdXrX#X1Xn.",
"xXP.T.I.~.>.>.;.=.-.w.y.-.=.W.W.H.K.xX8X7X2Xx.B.-   a. X[.[.[.[.[. XS.  $ ` &   S. X[.[.[.[.[. Xp.  < ) G ( e } } } ) ^ ~ e [ N ` y K I P sXyX*X0X<X;X",
"xXT.Y.~.;.;.-.r.q.q.e.w.<.>.!.G.G.R.b.5X0X3XiXN.# O _. X[.[.[.[.[.{.@.  1 y O + _.{.[.[.[.[.[.}.o.o c ) { { e c 2 c q ! ( | S i y x d k sXsX*X3X<X,XP.",
"bXI.^.*.=.w.e.q.e.e.q.w.2.,.Y.U.J.J.v.x.3X#XpXf.. +.[.[.[.[.[.[.|._.O # ` <   #.|.[.[.[.[.[. X(.o % ! ! ) 2 $ . . . O - c  .A i J I l gXsX-XqX0X,XxXzX",
"Y./.>.-.w.q.9.9.9.6.r.:.,.Y.T.T.J.h.j.C.B.iXrX=   s. X[.[.[.[.[. Xa.  : ~ &   D. X[.[.[.[.[. Xu.  < ^ ^ < o . O.i.u.# X $ c C E E f k rXrX*X0X7XvXcXT.",
"~.~.;.w.q.9.9.9.9.6.=.Q.^.U.J.J.c.h.j.C.N.M.V.O O _.{.[.[.[.[.[.[.O.o 7 3 O # ].{.[.[.[.[.{.].# O > / > o O s.[.|.{.].@.X : i E P p yXrX=X3X<X>XxXbXI.",
"~.;.w.q.9.t.9.0.w.=.;.~.I.J.J.h.v.z.C.N.V.M.,   #.{.[.[.[.[.[. X`.o $ ! <   u. X[.[.[.[.[. XD.o & ( / :   i. X[.[.[. X_.O $ f f kXgX$XV.0X<X;XxXT.I.^.",
";.w.e.9.8.8.9.w.1.;.!.F.I.P.c.v.x.z.N.V.V.M.=   D. X[.[.[.[.[. Xp.  : ^ % o (. X[.[.[.[.[. Xu.  2 X.r # O _.{.[.[.[.{.].+ @ s d kXhX*XB.2X>XP.T.I.~.*.",
"w.q.9.8.7.5.e.1.2.Q.!.U.L.xX,X<Xx.B.V.V.M.4 O # ].{.[.[.[.[.[.}.o.. > 8 o o.}.[.[.[.[.[.{.].# O r } 2   #.|.[.[.[.[. XD.. * k uXuX-X2X<X,XxXP.I.^.*.:.",
"q.9.8.7.5.e.;.1.>.~.U.T.xX:X5X<X+XV.V.M.p ,   u. X[.[.[.[.[. X(.o % ^ :   p. X[.[.[.[.[. XD.  & ) { * o (. X[.[.[.[. X#.  ; lXM.pXB.<X4Xc.P.nXF.>.1.w.",
"5.8.7.8.e.w.>.>.^.I.T.xX>X5X<Xg.iXM.M.5 p % . (. X[.[.[.[.[. Xi.  < ^ $ o ). X[.[.[.[.[.{.#.  1 _ 2 . @.{.[.[.[.[.|._.O O $XgXdX=X2X5X:XP.T.Y./.;.w.q.",
"8.8.8.9.q.;.>.^.I.K.P.>X7X2X+XB.M.tXa j 4 o o.}.[.[.[.[.[.{.].# O 8 8 o O.[.[.[.[.[.[.{._.+ O Q N @ . ). X[.[.[.[. Xp.  - sXhX=XqX4Xb.P.T.Y.^.1.=.q.9.",
"7.9.e.w.-.1.>.I.U.K.;X>X0XwXiXiXtXp a U ,   i. X[.[.[.[.[. XD.X & / <   p. X[.[.[.[.[. Xs.  : ( -   u. X[.[.[.[.{.].# o m.hX@X1X7X4XxXbXY.I.Q.:.r.e.8.",
"8.e.w.-.;.Q.Y.T.P.;X>X0XwX-XyXtXp p f U $ o ). X[.[.[.[.[. Xu.  1 / :   D. X}.[.[.[.[.[.@.. < -   +.}.[.[.[.[.[. Xa.. - hX*XN.1X8XxXT.Y.~./.;.r.e.5.7.",
"e.w.-.;.Q.I.bXxX;X>X2X3XdXsXsXaXs f Y 2 . O.[.[.[.[.[.[.{.].# O 8 ^ & o ). X[.[.[.[.{.].+ O O   O._.{.[.[.[.[.|._.+ O m.jX2X<X8XxXJ.G.I.!.!.r.e.5.7.7.",
"w.:.;.>.I.U.xXb.4X<X+XpXuXkXkXP g J W ;   a. X[.[.[.[.[. XD.  & ^ ! & o ). X[.[.[.[.[.[.@.O # p.].|.[.[.[.[.[.{.#.  = pXqX9X8XvXP.U.I.Q.*.=.q.9.8.7.9.",
"w.*.>.^.I.P.4X4X<X@XiXuXaXP I K T A m $ O _.{.[.[.[.[.[.{.#.  1 ^ ! :   D. X[.[.[.[.[.[.}._.]. X{.[.[.[.[.[. Xs.. # m.wX9X8XvXxXU.I.Q.;.-.q.9.8.7.9.q.",
">.>.^.T.P.;X5X3X*X@XaXh P I K L T | 2 . +.{.[.[.[.[.[.{._.O # 8 ! ! <   u. X[.[.[.[.[.[.[.{.{.[.[.[.[.[.[. X(.O o d.wX7X8X:XP.P.H.!.;.=.q.9.8.7.8.e.r.",
">.~.I.P.k.<XwXdXrXrXk P I E A M A G ,   s. X[.[.[.[.[. Xs.  : ! 8 ! > O + _. X[.[.[.[.[.[.[.[.[.[.[.[.[. X).+ o = fX7X8XvXK.J.T.F.*.-.e.9.t.7.8.9.w.1.",
"^.I.P.;X4X3X-XyXtXa l g J M A C F H - o (. X[.[.[.[.[.[.O.o 1 ! 8 Q Q :   #.[.{.[.[.[.[.[.[.[.[.[.[.{. XD.+ . * N.x.>XvXxXJ.U./.Q.:.w.9.9.8.8.9.q.-.>.",
"I.P.xX4X1XpXdXsXj j g u V C F F G { <   s..X}.[.[.[. Xa.  % Q Q Q 9 ` 3 $ . u.]. X{.[.[.[.[.[.[.|. X].u.. o * C.C.4XvXcXL.H.I.~.=.r.q.5.8.8.9.e.w.2.>.",
"T.xX>X1XfXaXaXk g x u V C Z B w e X.2 o # _. X X X[.s.O o 1 ! ` ` 9 9 ` 7 #   o.S.].[. X X X|.[._.a.# . O %.<Xn.b.vXcXbXI.I.,.;.r.0.9.8.8.e.q.w.;.~.Y.",
"P.4X2X*XyXaXl f x u V Z B ( ~ ~ ( ) ) - X # p.S.a.+.. o < ' ` ` ` 9 9 9 ] 7 = o . # @.i.a.p.u.O.O . . $ d.wX4Xc.c.xXbXbX^.,.2.w.q.9.8.8.e.w.w.<.>.I.K.",
"n.1X*X$XaXj g m V N N B ( ( ~ ~ ~ B  .F ; O       . $ < N ` ` ` ` 9 9 9 0 ] 0 < = O .       . . # = d.x.2X4Xv.h.R.bXbX,.2.2.w.q.5.8.7.9.q.w.<.>.^.T.b.",
"1X*X$XaXl g M C N N ( ) ( ( ~ ~ ' H G  . .c 2 < < 2 m Z i ` ` ` 3 3 3 3 6 6 6 6 5 4 < , , , d.f.N.fXwX5X>Xb.h.R.T.bX,.2.;.:.e.9.8.7.9.q.r.;.*.I.L.xXn.",
"*X-XaXj g m C N ~ ( e H [ ' i N Z H G G G  .G [ ' ' V i y y 9 3 3 6 6 6 6 5 5 4 4 tXdXkXdXpXB.B.x.<X,X:XvXxXP.R.U.^.2.;.=.q.9.8.7.8.e.w.<.2.^.T.xX5X2X",
"$XaXl x u N F e w e G H Z i C A C C F A S A V i y 9 y y y 3 3 3 3 6 p p 5 5 4 M.M.rX@X&XwX2Xx.z.v.z.b.vXcXnXT.H.!.>.<.-.q.9.8.7.8.e.w.1.1.,.I.P.4X0XwX",
"sXf g V i i w e e B B C i u V M V u V A A A L y y y y d 6 6 3 6 6 5 a yXtXM.M.M.iX@X*X0X0X<Xx.j.j.h.R.xXnXnXU.F.*.<.y.e.9.t.7.8.e.q.=.*.Q.U.P.;X2XfXpX",
"l g V N [ ( ) w H Z C V u u x u u u L L J J K x d 6 d s d 6 6 5 5 4 rX%X$XpXiXB.B.B.1X2X7X4Xv.h.h.h.K.bXbXY.~.*.<.w.e.9.9.7.8.9.q.=.1.>.U.P.xX1XwXpXp ",
"g M C B ( ) ( w N V Y x x x x d x J U g d d g P l s j k a 5 5 5 4 M.rX-X=X&X+XB.N.C.z.4X>X>Xb.c.R.R.T.Y.^.^.2.-.r.e.9.9.8.8.9.e.r.;.>.Y.T.xX5XfXpXtXa ",
"M C B  .) ) H Z V m g f f l f d f f j j d d j kXv kXkXkXaX5 M.M.V.V.pX*XqXwX1Xz.C.C.v.c.;XvXxXP.T.Y.^.~.Q.*.-.r.6.9.t.8.9.9.e.w.<.>.Y.T.P.4X3XdXaXf U ",
"i ~ ) ) ) B F M J U P P v P k l a p a aXuXuXsXgXhXhXgXgXaXM.V.iXiXiXiXfX2X0X<Xz.C.v.h.c.P.zXnXbXY.,.~.!.W.=.w.e.9.t.8.5.e.e.r.;.>.I.U.vX5X1XiXuXh g L ",
"~ ( ) ) [ C u g U v a h gX%XsXgXaXtXaX$XyX%X-XyXyX-X$XdX-XiXB.#X#XB.N.C.n.>X5Xn.v.v.J.R.T.nXbX,.,.2.*.=.=.r.e.9.t.8.8.e.e.r.:.*.,.T.P.4X2X#XyXh P u i ",
"( ) ) B F A g l k rX4 V.$XaXyX$X*X-X-X+XV.@X*XB.V.+XB.V.#X0X0X0X0XZ.C.j.v.4XvX;XR.J.J.U.Y.Y.,.2.2.2.-.w.r.e.5.8.7.t.e.0.w.<.*.^.bXP.c.<X@X$Xh P L i ~ ",
"X.) [ G M g l h %XyXB.+X-X*XiXB.&XqXqX+Xg.@X0X+XB.1Xg.N.x.<X<X7X7X1Xj.h.c.P.vXxXT.I.I.~.,.,.2.2.<.-.w.e.e.5.8.7.8.e.e.w.;.*.>.Y.xXb.x.2XyX%XP J u ~ ( ",
") H F D K l p rX-X+X&X&X0X0X<X<X2X1X7X7X7X9X9X7X2X7X<Xx.n.z.z.4X8X>Xb.c.R.xXbXnXbXY.,.,.,.2.1.<.w.r.q.q.e.8.7.8.5.q.w.=.Q.!.I.R.n.x.1X*XtXj U C F ( ) ",
"( H R K l gXyX@X0X1Xx.<X<X<X7X>Xn.v.4X4X8X>X4X>X8X8X8X>X>Xc.h.b.vXvXxXP.L.bXbXbX,.,.,.>.*.;.-.w.e.e.e.e.5.8.8.9.e.w.:.=.!.I.J.b.6X1X*XhXk g V N G e ) ",
"B C J I sX%X*X2X2Xn.b.n.4X,X:X:X,X,Xk.c.:X;Xh.;X8X8X8X8X:X;Xc.E.P.zXbXbXY.Y.^.,.2.2.1.;.!.=.q.q.9.e.e.8.8.8.9.e.e.<.1.Q.F.T.E.5X1X@XyXgXP u N B ) ) e ",
"D T l gX$X#X2X4X,Xk.;X;X:XcXzXK.L.oXzXP.xXvX,X:X8XvX;X,XvXcXzXP.J.K.bXI.F./.^.2.2.1.1.=.=.r.q.e.e.9.8.8.8.9.e.r.-.1.Q.F.K.vX8X2X+X$Xa d m Z B ( ( e B ",
"m I k %X=X0X4X;X:XzXzXL.zXU.L.U.I.zXcXk.b.vX:X8X8X>Xc.c.P.cXcXxXJ.H.Y.~.W.!.~.2.1.1.1.r.r.q.6.5.8.8.8.5.9.e.r.-.2.Q.G.J.P.>XqXqX-Xa s u A B ) ) ( ( i ",
"g k hXjX9X8X,XcXoXoXL.XX&.F.&.Y.K.K.R.;X>X;Xb.>X4X4Xb.c.R.xXnXnXT.I.,.>.!.!.*.1.:.w.w.w.q.6.8.7.7.8.5.9.e.q.=.*.,.I.T.P.c.5X3X-XsXj K C H ( ) { ~ N m ",
"v hX=X7X,Xk.T.oXXX&.&.OX,.>.&.Y.P.xXb.4X,X,X;X;Xv.b.c.P.T.zXnXbXbX,.>.~.~.*.:.w.r.q.q.e.9.8.7.7.8.9.9.0.w.=.=.>.bXnXcXb.x.2XiX%Xp J u N  .{ ) e B A U "
};
