/* XPM */
static const char *bw__[] = {
/* columns rows colors chars-per-pixel */
"75 75 246 2 ",
"   c #4D006C",
".  c #52006D",
"X  c #5A026F",
"o  c #4E0071",
"O  c #540071",
"+  c #5B0373",
"@  c #5D0676",
"#  c #6A166E",
"$  c #620978",
"%  c #661675",
"&  c #6D1671",
"*  c #762675",
"=  c #723175",
"-  c #794072",
";  c #853573",
":  c #832B6A",
">  c #8C4375",
",  c #8D5172",
"<  c #A55569",
"1  c #956C6E",
"2  c #AC7A7B",
"3  c #B27C7C",
"4  c #B77977",
"5  c #B06D72",
"6  c #B26059",
"7  c #C37B6E",
"8  c #D47B55",
"9  c #BDAA5D",
"0  c #BBBA5C",
"q  c #BCB55C",
"w  c #99957A",
"e  c #BC886B",
"r  c #B49B6C",
"t  c #BB9768",
"y  c #AD837C",
"u  c #AB8C7C",
"i  c #AF8C77",
"p  c #B68775",
"a  c #AD9476",
"s  c #AC9B75",
"d  c #A6957E",
"f  c #AA947B",
"g  c #A59B7D",
"h  c #A99B7A",
"j  c #A39A77",
"k  c #B39372",
"l  c #B29A73",
"z  c #A38A67",
"x  c #9EA97D",
"c  c #9CB47C",
"v  c #9DBB78",
"b  c #AEA36E",
"n  c #ADAC6D",
"m  c #BBA364",
"M  c #BBAB63",
"N  c #B3A36B",
"B  c #B3AC6A",
"V  c #B7AA66",
"C  c #ACB46C",
"Z  c #ABBB6C",
"A  c #AABB6A",
"S  c #B4B365",
"D  c #B3BB64",
"F  c #B8B765",
"G  c #ABA374",
"H  c #A5AC75",
"J  c #ABAB72",
"K  c #A4A37B",
"L  c #A3AB7B",
"P  c #A9A578",
"I  c #B1A572",
"U  c #A5B474",
"Y  c #A3BB72",
"T  c #A6B476",
"R  c #B1BA72",
"E  c #B5905D",
"W  c #C98A59",
"Q  c #C89859",
"!  c #D49251",
"~  c #C3AC5B",
"^  c #C5A759",
"/  c #C4B559",
"(  c #D5A652",
")  c #C48767",
"_  c #C49862",
"`  c #D18568",
"'  c #C1A862",
"]  c #E28C51",
"[  c #B6C95C",
"{  c #B4CD5D",
"}  c #ABC567",
"|  c #B3C362",
" . c #B7C565",
".. c #ABCA6E",
"X. c #C3C55B",
"o. c #C0CC61",
"O. c #690E82",
"+. c #6D1386",
"@. c #741A8D",
"#. c #72178B",
"$. c #781C91",
"%. c #77298C",
"&. c #7E7CAD",
"*. c #7E76AD",
"=. c #7E6EB6",
"-. c #7B65BD",
";. c #766DBE",
":. c #7B6CBB",
">. c #7967BA",
",. c #7D74B5",
"<. c #7D7AB3",
"1. c #7672BC",
"2. c #7A73BA",
"3. c #7678B7",
"4. c #6F76BB",
"5. c #7A608A",
"6. c #6E5ECE",
"7. c #735FC8",
"8. c #675CD5",
"9. c #6A5DD2",
"0. c #6D62CC",
"q. c #6E6AC5",
"w. c #7465C5",
"e. c #746BC3",
"r. c #7163C9",
"t. c #7667C3",
"y. c #6A60D0",
"u. c #7271C1",
"i. c #82289B",
"p. c #8D31A6",
"a. c #9337AC",
"s. c #9A3DB4",
"d. c #892EA2",
"f. c #9E7C8E",
"g. c #9E6E95",
"h. c #9A6D9A",
"j. c #966D9D",
"k. c #8E7D9E",
"l. c #8E779E",
"z. c #9C7394",
"x. c #9B7B93",
"c. c #95749C",
"v. c #9A739A",
"b. c #937B9C",
"n. c #977C98",
"m. c #8F6C84",
"M. c #AC7583",
"N. c #AB7B84",
"B. c #A4748D",
"V. c #A37C8C",
"C. c #A87988",
"Z. c #B37C83",
"A. c #A37392",
"S. c #A27992",
"D. c #A46E8F",
"F. c #9E41B7",
"G. c #A346BD",
"H. c #866DAD",
"J. c #8B6CAB",
"K. c #8C6AA9",
"L. c #926DA3",
"P. c #8C74A5",
"I. c #857CA6",
"U. c #8B7CA3",
"Y. c #8575AD",
"T. c #8973AA",
"R. c #847BAC",
"E. c #8A7AA9",
"W. c #8676A6",
"Q. c #9272A2",
"!. c #907CA0",
"~. c #8364B4",
"^. c #836BB3",
"/. c #8466B5",
"(. c #8273B2",
"). c #817AB1",
"_. c #8872B0",
"`. c #8F5386",
"'. c #A94CC3",
"]. c #B254CC",
"[. c #BA5CD5",
"{. c #B759D2",
"}. c #AE51C8",
"|. c #BE60D9",
" X c #C264DD",
".X c #CB6CE6",
"XX c #CE6EE9",
"oX c #C667E1",
"OX c #CF70EA",
"+X c #D272ED",
"@X c #D576F0",
"#X c #7C83AC",
"$X c #7C88A8",
"%X c #7683B1",
"&X c #7286B0",
"*X c #9D848D",
"=X c #9C8C8C",
"-X c #998D8A",
";X c #9E9486",
":X c #9D9C85",
">X c #95948D",
",X c #9B938B",
"<X c #949B8D",
"1X c #9B9A8A",
"2X c #949887",
"3X c #8D849D",
"4X c #878C9E",
"5X c #8C8B9C",
"6X c #8B8899",
"7X c #958595",
"8X c #9A8392",
"9X c #948C94",
"0X c #998B92",
"qX c #92839A",
"wX c #928A99",
"eX c #998398",
"rX c #8D9395",
"tX c #8C929B",
"yX c #8A9896",
"uX c #939392",
"iX c #929A92",
"pX c #979593",
"aX c #8F9E8E",
"sX c #A58485",
"dX c #AA8382",
"fX c #A48D84",
"gX c #AA8C83",
"hX c #A3838A",
"jX c #A4898A",
"kX c #A39384",
"lX c #A29B82",
"zX c #A49587",
"xX c #A6898C",
"cX c #9CA383",
"vX c #97A787",
"bX c #8DA88F",
"nX c #A2A382",
"mX c #A3A885",
"MX c #A0B480",
"NX c #8484A5",
"BX c #8A83A3",
"VX c #848BA3",
"CX c #898BA1",
"ZX c #8383AB",
"AX c #8785A9",
"SX c #888CA3",
/* pixels */
"kX1X9X6X4XNX&.&.*.~.,.3.3.#X$XNX3XCXqX5X6XqXqX6XqX3XP.L.W.ZXZXR.(.,.2.-.:.;.t.w.r.r.r.0.9.8.8.9.0.0.r.e.u.2.,.ZXAXBXBX5XiX<XvXcXK J t F / / ~ V N H K ",
"V.9X6Xk.NX*.*.,.=.1.1.3.*.#XNXVX4X6Xn.6X6Xn.v.qX4Xk.P.U.E.Y.R.).~.=.2.-.-.e.w.7.7.6.6.9.8.8.9.0.r.r.e.1.2.^.Y.AXBXc.n.uX>X1XlXL T Z }  .[ [ | C U P cX",
"pX7X3XW.*.^.~.1.>.1.4.<.&.W.k.4X3X5X9X9X7X9XqX5X3Xc.U.W.R.J.Y.<.,.:.1.e.e.r.r.0.6.9.8.8.8.9.0.0.w.e.1.3.^.~.J.BX!.v.7X8XC.N.u T U D | { [ | C e P d N.",
"7X6XL.H.*.-.>.;.;.&X%X&.NX4Xk.6X7XrXuX7X7X7XwX6XqXk.U.W.Y.Y.,.,.2.1.e.e.r.0.0.y.9.8.8.9.0.0.0.r.e.2.2.,.^.J.U.CX5X5X9XC.fXkXL J C } { { q V ..s g :X,X",
"qXU.K.*.3.-.>.q.4.&X#XI.VX4Xn.rX7XuXiXuX8X8Xn.n.5Xk.P.W.Y.<.,.=.:.e.e.w.r.0.0.9.8.8.0.0.0.r.r.e.2.,.3.<.Y.E.CXCXtXrXV.N.cXMXP ) B D / { _ N v c cX=XiX",
"3XW.H.3.1.7.q.;.3.#XI.VX6X6X9X9X*X<XaXiX9X7X9XwX5Xb.U.W.T.).(.:.;.e.w.w.r.6.9.8.9.6.r.0.r.w.e.2.(.(.).Y.J.P.CXtXyXuXC.sXcXL e t } 9 q } B b i cXvX>XwX",
"U.H.~.;.-.w.q.;.,.#XNX6X5X9X9X*X>X,X<X=X9XuX8XwXqXb.U.T.Y.).).:.;.e.e.w.r.y.9.y.0.r.e.w.t.-.:.,.^.J.Y.T.L.c.5XtXyX=XM.y L I e C } [ S A ..s d vX<XrX3X",
"W.H.~.;.;.w.;.,.Y.NX6XrXyX>X=X-X,X;X1X,X,XuX8XeXwXqXQ.W.R.).(.:.;.e.r.r.0.0.0.0.r.e.e.e.;.>.2.,.H.J.Y.E.P.k.5XuXiX=XM.y L T C S 9 q ) C U x vXbXbXyXBX",
"&.,.2.4.e.4.3.#XNX3XqXuX>X-X;X;XkXkXkXvX1X*X0X0XwXb.U.W.T.).^.:.e.r.q.r.0.0.6.r.w.e.>.;.:.2.3.<.Y.Y.ZXNXCX4XwXx.,X1Xy h T Y Z W Q V N I f lX;XbXyX6XI.",
"Y.,.;.;.;.3.#XNX6X6X7X-X,X;XlXlXkXkXkXkX;X=X-X8X7Xb.U.W.Y.).,.:.e.r.q.r.0.7.r.w.r.;.-.:.:.=.<.<.R.R.NXVX4XtXuX8X,X1XcXL T Y A M V C U s g :X,XbXyX4XNX",
"&.,.4.1.3.&.I.4XrX9X-X;XfXkXg g g lXkXlX:X;X,X0X7XqX!.P.Y.<.,.1.e.w.0.q.q.r.w.e.;.:.:././.^.<.R.T.L.U.CXtXrXuX,X1XvXg i G C m D Z Y T K cX1X>XyX6XU.NX",
"&.&X4.1.^.I.3X6XuX>X;XfXgXd g K K h d d kXfX,X-X7XqXb.P.R.R.,.-.-.w.q.q.e.t.e.1.:.:.=.^.^.H.R.ZXE.Q.k.4XqX7XV.C.fXcXu p G t ) B ..v L kXfXbXiXyX5XP.W.",
"#X&X3.&.W.l.qX0X=X;XlXd h h h K K h g g lXfX=X,X9X7Xb.U.E.Y.,.:.>.e.e.t.e.;.1.:.:.,.,.(.Y.Y.R.E.U.BX3XqXz.f.hXN.fXcXK H b ) t n Y v c lX;X-X7XrX4XU.NX",
"R.&.*.I.k.qX9X-XsXkXnXg K P s h K h f g lXkX1X,X9X7Xb.U.T.H.(.3.1.>.1.>.:.3.3.,.,.<.<.Y.K.T.ZXU.k.4X6Xz.x.0X1XvXvXMXc H r t n U v v vXvX<X<X9X7X4XVX$X",
"#X#XW.3Xn.x.,X;XkXlXg K P P s a s h f f g cX1X,XuX7Xb.U.E.Y.^.,.:.:.:.3.3.3.,.^.^.R.Y.R.T.W.VXBX3XwX5X9X8X<XvXvXcXg T J B C Y v c c cXvX<XaXrXrX6XVXNX",
"VXNX6X9X8X*X,XkXfXg h h s s s s s G K K K kX;X>XiX9Xb.L.P.ZXR.,./.=.3.,.(.<.(.&.R.R.E.NXE.U.BX3XtXqX8XiXB.=XvX:Xu h H e t Y T H x x :X:XvX>X9XrX5XtXVX",
"4X4XrXrX-X,X:XkXf h h a a s G G s a f g cXkXhX*XuXuX5X3XQ.E.ZX#X<.<.<.Y.H.H.H.I.R.I.U.BXQ.l.k.6X7X9XeXaX>X1XvXkXd c U e r G l h K g kXsX2X*X>XyX6X6X4X",
"6X9XuX<X-X;XkXkXg f a a s s G P s a u u :X;XhXV.0XuX5X4XBXBXZX#X#X#X#XJ.T.T.K.T.NXBXBXBXc.c.c.rX7X9X8X*X>XvXvXlXg L U U r k p p K g cX:XvX<X<XiX9X7X6X",
"7X0X>X,X;XfXfXlXK f u f K s s s P h u gXkX1X-X*X8X7XqX4XCXCXVX$XZXJ.ZXNXU.VXVXU.CX5X5XtX5XqXn.9X8XuX-X*X,XvXvXnXd k G Y U H s h h y cX:XvXvX>X-XpXuXrX",
"=X-X*X;X;XkXkXd d h f h h P h h K g kXkXkX1X<XuX9Xx.v.qX4XCXCXVXVXL.L.VXBXU.VX4Xb.3Xn.rXyXz.x.uX9X<X=X,XvXdXlXc L H Y Y G s H v K x c cXcX:X1X1X1X,X9X",
"-X=XhXkXkXkXlXlXg g f u f h K K K :X:X1X1X,XiXiXiX7Xz.h.3XCXCXVXVXVXL.BX5Xj.k.tXc.c.qX7X9Xz.D.pXbX<XhXfXvXdXg c v U U J p p s c c c c x cXlXlXlXkX,X>X",
"sX;X;XkXkXkXlXlXlXg f f f d g nXlX:X1X1X,X=X=XpXiXuXn.g.v.b.c.5XtXtXtXtXyXwXn.5X9X9XaXiXS.f.=X>XvX;X;XvXcXgXf K P k k H H T T U h i K L L x g g cX=XsX",
"sXfX;XfXfXkXfXsXkXkXkXfXgXgXlX:X1X1X1X1X,XhXV.S.0XiXuXeXn.n.h.v.wX7X6X5.5.%.= * * %.5.n.V.C.V.V.hXsXdXcXx y 3 p p 7 r U U G H T s k G L a s L f kX;XsX",
";X;XkXkXkXfX;XfXfX;XfXfXfXkX;X1X1X,X<X<X>X*XS.A.S.0XiXiXuX9XS.D.`.%.$ .   . O O X . . + % `.C.dXN.:XlXg g K h k l r J J J e e U Y U T T l s P d lXfXsX",
":X;XkXkX;X,X=X=X=X;X;X;X;X,X,X,X,X,XuXiX>X=XS.A.A.V.9XiXuXpX7X%.+   + $.a.G.}.}.'.F.i.O.. . * m.Z.lXvXd 4 a U T U C r r J ) e C C N C B R l h g :X;X;X",
";X;X=X=X;X=X*X=X=X-X,X,X,XpXuX9X0X8X8X9XiXuX8XA.B.B.f.>X,Xm.% . @ p.[.XX+X+X+X+X+X+X+X XG.+.. @ , nXc K i a U Y Y Z r n C t ) N t t B _ t l h g :X:X:X",
"kX=X=X=X-X-X0X9X0X0X0XuXuX9X9X9Xn.x.x.x.7XuXuX8XB.B.B.,Xm.+ . $.[.+XOX.X.X.X.X.X.X.X.XXX+X Xi.. @ w Y c H H Y Y C C Z Z Z B ) ) t D D B t P h g lXkXfX",
"kX;X=X=X9X9X7X7X7X7X9XuXwX5X6X5Xn.v.v.z.z.8XuXiX*XV.V.m.@ . i.XXOX.X.X.X.X.X.X.X.X.X.X.X.XXXOXi.. % j T k e N C t ) B } } } S _ S S m Z I s h d fXfXdX",
";X>X0X8X7XqXn.n.qXqX5X5X5XCXCXCXk.c.h.h.g.z.8XiX<X,XjX*   $.XXXX.X.X.X.X.X.X.X.X.X.X.X.X.X.XXX.X+.. > n e 7 e N ) ` V } } S 9 | | S V t J H h d kXkXfX",
",XuX7Xn.qXqXb.!.U.U.U.BXBXNXNXNXBXQ.j.h.g.g.z.9X<XvXm.X O. XXX.X.X.X.X.X.XXX+X+XOX.X.X.X.X.X.X+X'.. & J N ) t B _ _ S | | Q ! 0 Q F A r k s g d fXkX1X",
"f.7XqXb.3XBXBXBXP.T.T.E.ZXI.E.ZXNXU.Q.j.h.g.z.8X>XvX* . F.+X.X.X.X.X.XXXOX{.s.s.].XX.X.X.X.X.XXXoXO.O w } C A } D M Q ^ [ ^ ~ q Q S Z b e a g lX:X1X,X",
"8XwXqXU.U.U.E.E.Y.Y.(.<.).H.H.Y.I.ZXU.c.h.g.g.x.,Xm.X O.oX.X.X.X.X.XXXXXp.+     + G.+X.X.X.X.X.XOXi.  1 ..} } } | Q 8 ! [ { { D m C t k p f cXfX;X,X=X",
"qX3XU.U.E.E.Y.).<.,.,.,.^./.~./.H.R.AXBXb.c.z.x.xX=   p.+X.X.X.X.X.X+Xa.  $ ; ; . +..X.X.X.X.X.X+Xa.  , { D D | { / ! ~ { { 0 Q ) t ) s s h lX1X=X0XeX",
"qXBXU.R.Y.).).,.2.2.1.2.:.~.~.~./.Y.NXCX5XqXn.V.B.$ O ].+X.X.X.X.XXX X@ + < ` 5 X #..XXX.X.X.X.X+Xa.  ,  .9 / { | [ X./ 0 0 W W ) N G T h lXgXsX-X8Xn.",
"BXU.R.Y.(.,.,.:.-.;.e.u.;./.~.~.K.P.BXCXtX9Xx.C.`.. +..X.X.X.X.X.X+XF.  * ) ` <   i.OX.X.X.X.X.X+Xd.  1 o.^ 1 = # # = < ^ [ ' m ) e H L K lXfX,XuX7X3X",
"BXE.R.(.:.:.;.t.w.w.r.e.1.,./.J.J.Q.b.wXuX0XV.C.*   a.+X.X.X.X.X.XXX$.  < _ 5 * . F.+X.X.X.X.X.XXX@.X z o., O . @ @ O O = D D t e k i g lXlX,X0X7X6XU.",
"ZXY.).:.-.e.r.w.r.r.w.e.3.<.R.T.L.L.v.x.0X-XhXM.$ + {.OX.X.X.X.XXX[.+ $ < * X   X [.XX.X.X.X.XXX|.@ X ! 1 O @ a.[. XG.$ o , } t G L h cXlX1XiX9X6XBXNX",
"R._.,.;.e.w.0.0.0.7.t.>.<.R.R.W.L.j.g.A.V.hXgX, . @.XX.X.X.X.X.X+Xs.. $ + . #.p.s..X.X.X.X.X.X+XG.o : ] # . F.@XOXXX@X}.O % b Y T a g sXsX,XiXrXCXVXE.",
").(.:.e.w.0.0.0.0.7.-.^.).T.L.L.c.h.g.A.C.N.dX*   s.+X.X.X.X.X.XXX@.X + + F..X+X+X.X.X.X.X.X.X+Xi.  < 6 o #.XX.X.X.X.X.X+.X 2 T K y fXsX<X0X7X5XBXZXY.",
"(.:.e.w.0.y.0.q.e.-.:.(.Y.L.L.j.v.z.D.B.B.N.2 + + [.XX.X.X.X.XOX{.+ + X F.+XXX.X.X.X.X.X.X.XXX|.@ + W *   G.+X.X.X.X.X.X#.X 1 l nXcX;XC.uX7X3XBXE.Y.).",
":.e.r.0.9.9.0.e.2.^./.H.Y.U.c.v.x.z.D.B.M.Z.>   $.XX.X.X.X.X.X+Xa.X X @.XX.X.X.X.X.X.X.X.X.X+Xa.  , 1 O +..XXX.X.X.XXX X$ @ 2 p mXvX,XB.9X5XU.E.Y.(.=.",
"e.w.0.9.8.6.r.2.3.^./.T.I.BX5X7Xx.B.C.M.M.3 * . G.+X.X.X.X.X.X.X+.X . s.+X.X.X.X.X.X.X.X.XOX[.$ + = @ O '.+X.X.X.X.X+XF.. = h gXgX,X9X7X6XBXBXY.).=.>.",
"w.0.9.8.6.r.:.2.,.(.T.E.BX5XwX7X*XC.N.M.3 5 + $  XXX.X.X.X.X+X].+ + X G.+X.X.X.X.X.X.X.XXX.X#.X + . O s.+X.X.X.X.X.XXX@.. 1 mXdXjXV.7XqXc.U.AXH.,.2.e.",
"6.9.8.9.r.e.,.,.).Y.E.BX5XwX7Xf.hXsXdX2 p , . $.XX.X.X.X.X.X+Xp.. + . s.+X.X.X.X.X.X.X.XXXoX$ . + #.}.+X.X.X.X.X.X+XG.. % ;XcXzXpX9XwX5XU.E.R._.:.e.w.",
"9.9.9.0.w.:.,.).Y.W.U.5XrX9X*XV.C.dXu u l >   s.+X.X.X.X.XXX.XO.X : . $.+X.X.X.X.X.X.X.X.X.X'.F.]..X+X.X.X.X.X.XXXoXO.O , nXvX<XiXqXb.U.W.R.).2.-.w.0.",
"8.0.r.e.;.2.,.Y.T.P.3X5XuXpXhXsXsXy u h P = . G.+X.X.X.X.XXX[.+ # 8 # O F.XX.X.X.X.X.X.X.X.X+X+XOX.X.X.X.X.X.XXX+Xi.  * kX<X=X8XrXqXBXZXR.Y.^.>.t.r.9.",
"9.r.e.;.:.^.R.E.U.3X5XuXpX,XfXdXy y a P T = O '.+X.X.X.X.X+X}.O & ] < O + [.XX.X.X.X.X.X.X.X.X.X.X.X.X.X.X.X.X+Xp.. % -XvX>XB.8XtXBXE.R.)._.:.t.r.6.8.",
"r.e.;.:.^.Y.ZXBX3X5X9X0XzXlXlXkXi a s J R - . G.+X.X.X.X.XXX[.+ X # $ . d.XX.X.X.X.X.X.X.X.X.X.X.X.X.X.X.X+XXXd.. + m.nXiXuX7XtXBXL.J.Y./.^.t.r.6.8.8.",
"e.>.:.,.Y.T.BXb.qX7X*XjXgXnXnXK s P J I R ,   a.+X.X.X.X.X.XXXs.@ + $ p..XXX.X.X.X.X.X.X.X.X.X.X.X.X.XOX+X[.@.. @ , dX*XiXyXtXCXU.T.Y.^.:.-.w.0.9.8.0.",
"e.:.,.).Y.U.qXqX7X=XhXgXkXK L H T J n N ' 1 . @.XX.X.X.X.X.X.XOX|.{. X+XXX.X.X.X.X.X.XOX+X+X+X+X+X+X.X{.d.@ . % m.dXC.9XyXtXCXBXT.Y.^.:.;.w.0.9.8.0.w.",
",.,.).R.U.3XwX0X,X=XkXd K T H J U C B t Q W $ O }.+X.XXX.X.X.X.XXXOXXX.X.X.X.X.X.X.X+XG.p.G.'.'.F.a.@.+   + = 2XzXhX0XyXtXCXU.E.K./.:.-.w.0.9.8.9.r.t.",
"<.(.T.U.k.eXpX,XsXsXg K L T C n C B M Q W Q , o #..XXX.X.X.X.X.X.X.X.X.X.X.X.X.X.X+X].@   O O O     X @ = m.vX,XhX8XuXtXCXP.L.E.H.=.;.r.0.y.8.9.0.e.2.",
").Y.U.3XqX0X,XkXdXu h s G n C B S S ^ Q Q ! ! &   i..XOX.X.X.X.X.X.X.X.X.X.X.X.X+X[.$ O * ; * * ; > 1 ;XmXvX,XV.B.x.5XCXBXL.T._.^.>.e.0.0.9.9.0.w.;.,.",
"Y.U.BXqX8XjXzXlXf h s l N B S S D 0 ~ Q ! ! ! 8 % . $.[.+XOXXX.X.X.X.X.X.XXX+XXXG.$ . & 4 7 4 4 4 p gXzX1X1X8XA.z.qXCXVXU.K.Y.(.-.t.w.6.9.9.0.r.e.3.,.",
"E.BX5X8XxXkXkXg s l r N B V M 9 [ 0 / ~ Q Q ! ( E &   @ d.].oXXX+X+X+X+XXX XG.$.X O * 4 4 4 4 3 3 Z.N.N.hXuX7Xx.qXCXVXZXY.Y.<.:.t.q.0.9.9.r.w.e.:.(.R.",
"U.qX9X,XfXkXh a k r N V M ^ Q Q ~ q 0 0 ~ ^ ~ ~ X.S , +   O O.i.p.a.a.d.$.$ .   $ > 4 p 4 4 3 3 M.N.M.B.V.9XqXv.c.BXZXZX).<.3.e.w.0.9.9.r.e.e.1.,.Y.P.",
"n.8X,X;XkXf s b N m m M ~ ^ Q Q Q F D D 0 0 0 F D  . .z > # X .         . + * > 5 p y y 3 Z.M.M.M.C.V.x.7XwXv.j.Q.ZXZX<.3.3.e.w.6.9.8.0.w.e.1.,.).W.b.",
"8X,X;XkXf s J B m m ^ / ~ ^ Q Q _ F D | | D D F M V B V t e 5 < , > ; > < 5 4 4 4 3 gXgXdXN.M.M.B.x.9XwX5Xb.j.Q.E.ZX<.3.:.>.r.0.9.8.0.w.t.:.=.Y.R.BXn.",
",X1XkXf s b B m Q ^ 0 F ' _ t m V F D D D D S m _ e r t e ) ) ) ) ) e p p 4 4 3 2 N.fX1X=XV.V.B.x.eX5X4XCXBXU.Q.T.).3.:.-.w.0.9.8.9.r.e.1.3.).E.BXwX0X",
";XkXh k r m S q q 0 D F V t B C B B S C A C B t e ) e e e 4 4 4 4 4 y y 3 3 2 M.N.sX;X<XpX0X8Xz.z.z.b.CXVXAXE.K./.,.1.;.w.0.9.8.9.r.e.2.2.<.Y.U.qXuXpX",
"lXa s N t t 9 0 q F M B t r N n N r N C C C J e e e e p p 4 4 4 4 3 u fXdXN.N.N.V.=X,XiXiX7Xx.g.g.h.Q.BXAXAXT./.=.1.e.r.0.y.8.9.r.w.:.:.^.T.U.3X9XxXjX",
"h s N m Q ^ / q F V B N r r k r r r J J G G H l p 4 p i p 4 4 4 3 2 sX:X;X=XhXV.V.V.8X9XrXqXv.h.j.j.P.ZXZXR.).:.1.e.r.0.0.8.9.0.w.-.2.,.T.U.BXeX,XjXdX",
"s n B M ~ / ~ 9 m B I k k k k p k s H s p p s K f i f g u 3 3 3 2 M.sX1X<X>X*XB.B.A.z.qX5X5Xb.c.Q.Q.R.R.).).3.;.t.r.0.0.9.9.0.r.t.:.,.R.E.BXwX*XjXdXu ",
"n B F  ./ / S V N G s a a h a p a a f f p p f mXx K nXmXkX3 M.M.M.N.jX,XiXpX8Xz.A.A.v.c.3XCXBXU.E.R.).(.^.=.;.t.w.0.y.9.0.0.r.e.1.,.R.E.U.qX0XzXkXa P ",
"t Q / / / M S n G H K K x K g h u y u kXgXgXlXcXvXvXcXcXkXN.N.hXhXhXhX*X9XuX7Xz.A.v.h.c.U.NXAXZXR.<.(./.~.-.e.r.0.y.9.6.r.r.t.:.,.Y.T.CXwX8XhXgXd s J ",
"Q ^ / / ' B r s P x u d cX:XlXcXkXdXkX;XfX:X1XfXfX1X;XzX,XhXV.-X-XV.B.A.n.5XwXn.v.v.L.Q.E.AXZX<.<.3.:.-.-.t.r.0.y.9.9.r.r.t.>.=.<.E.U.qX9X-XfXd K r t ",
"^ / / F S C s f g sXM.M.;XkXfX;X,X2X2X*XC.=X>XV.C.*XV.C.-XuXuXiXuXS.A.g.v.qXCX3XQ.L.L.T.R.R.<.<.3.3.;.e.t.r.6.9.8.y.r.q.e.1.=.).ZXU.c.7X=X;Xd K J t Q ",
"X./ ~ D n s h d :XfXV.*X2X,XhXV.>XaXiX*Xf.0XiX*XB.8Xf.B.x.7X7XrXrX8Xg.h.c.U.CXBXE.T.Y.).<.<.3.3.1.;.e.r.r.6.9.8.9.r.r.e.:.:.,.R.BXb.x.9XfX:XK G r Q ^ ",
"/ F S Z H h y sX1X*X>XuXiXuX7X7X9X8XrXrXrXyXyXrX9XrX7Xx.eXz.z.qXtX5Xb.c.Q.BXZXAXZXR.<.<.<.3.2.1.e.t.w.w.r.9.8.9.6.w.e.-.^./.Y.Q.b.x.8X,XdXf P B S ^ / ",
"~ F Y H h cXfX=XuX8Xx.9X7X7XtX5Xn.n.qXqX5X6XqX5XtXtXtX5X5Xc.h.b.CXCXBXU.I.ZXZXZX<.<.<.,.:.:.;.e.r.r.r.r.6.9.9.0.r.e.>.-./.Y.L.b.eX8X,XcXg s N m D 0 / ",
"V B G L lX:X,X9X9Xn.n.n.qX6X4X4X6X6Xk.c.5X3Xh.3XtXtXtXtX4X3Xc.!.U.NXNXZXE.R.).<.3.3.2.:./.-.w.w.0.r.r.9.9.9.0.r.r.1.2.^.H.E.!.wX8X=XfXcXK r m M / / q ",
"A U h cX;X-X9XqX6Xk.3X3X4XVXNXP.I.VXNXU.BXCX6X5XtXCX3X6XCXVXVXU.L.T.ZXY.H._.).<.3.2.2.-.-.t.w.r.r.0.9.9.9.0.r.t.;.2.^.H.P.CXtX0X*X;Xu p b V M ~ ^ q M ",
"b L g :X<XuXqX3X4XNXI.I.NXW.I.T.Y.ZXVXk.b.CX5XtXtX5Xc.c.U.VXVXBXL.K.R.(.~./.(.3.2.2.2.t.t.w.7.6.9.9.9.6.0.r.t.;.3.^.J.L.U.5XiXiX1Xu i l C M / / ~ ^ t ",
"s g vXbXaXtX6XVX$X$XI.#X&.H.&.R.T.P.Q.3X5X3Xn.5XqXqXb.Q.Q.BXAXAXE.Y.<.,././.:.2.>.e.e.e.w.7.9.8.8.9.6.0.r.w.-.:.<.Y.R.U.c.wX0X1XlXf H B F ~ / [ Q m b ",
"x cX<XrX6Xk.E.$X#X*.*.%X<.,.&.I.U.BXb.qX6X6X6X3Xv.b.c.U.E.NXAXZXZX<.,.(.(.:.>.e.t.w.w.r.0.9.8.8.9.0.0.q.e.-.-.,.ZXAXVXb.x.9XhX:Xy G r m  .[ / 0 M C H "
};
