/* XPM */
static const char *cA__[] = {
/* columns rows colors chars-per-pixel */
"75 75 237 2 ",
"   c #4D006C",
".  c #4D0066",
"X  c #52006D",
"o  c #5D036F",
"O  c #550071",
"+  c #5A0273",
"@  c #5F0677",
"#  c #4D0071",
"$  c #630978",
"%  c #661774",
"&  c #6B1370",
"*  c #6A2476",
"=  c #772978",
"-  c #783A77",
";  c #76316F",
":  c #794874",
">  c #88376C",
",  c #B25C5C",
"<  c #98486A",
"1  c #874778",
"2  c #954872",
"3  c #915471",
"4  c #A65967",
"5  c #926E74",
"6  c #BD7B6C",
"7  c #BB7B73",
"8  c #B37B7C",
"9  c #B67979",
"0  c #AC7173",
"q  c #C37C6C",
"w  c #C1746E",
"e  c #C27558",
"r  c #BDAB5D",
"t  c #BCB75C",
"y  c #988D7C",
"u  c #BB8A6B",
"i  c #B49B6D",
"p  c #BA9769",
"a  c #AB8C7C",
"s  c #AC867C",
"d  c #B58776",
"f  c #AD9476",
"g  c #AC9C75",
"h  c #A5957E",
"j  c #AA947B",
"k  c #A59B7D",
"l  c #A99A7A",
"z  c #B29B72",
"x  c #B49674",
"c  c #9EA97D",
"v  c #9CB77A",
"b  c #AEA46E",
"n  c #ADAB6B",
"m  c #BBA264",
"M  c #BBAB63",
"N  c #B3A36B",
"B  c #B3AC6A",
"V  c #B7A967",
"C  c #ACB46D",
"Z  c #ABBB6C",
"A  c #ABBB6A",
"S  c #B5B464",
"D  c #B7B765",
"F  c #ABA474",
"G  c #A5AC75",
"H  c #AAAB72",
"J  c #A4A37B",
"K  c #A3AB7B",
"L  c #A8A478",
"P  c #B2A373",
"I  c #A4B474",
"U  c #A3BB72",
"Y  c #A7B476",
"T  c #A3965F",
"R  c #CB895B",
"E  c #C7985C",
"W  c #D98D56",
"Q  c #C4A85A",
"!  c #C4B559",
"~  c #C68666",
"^  c #C49763",
"/  c #C8836E",
"(  c #C2AA61",
")  c #E9924B",
"_  c #B7C95C",
"`  c #B8D25B",
"'  c #ABC568",
"]  c #B5C463",
"[  c #ACCC6A",
"{  c #C4C15A",
"}  c #680E82",
"|  c #6C1385",
" . c #751B8D",
".. c #701589",
"X. c #791E91",
"o. c #7D2396",
"O. c #6C3385",
"+. c #755088",
"@. c #7B6B94",
"#. c #7E7CAD",
"$. c #7E76AD",
"%. c #7E6EB6",
"&. c #7B65BD",
"*. c #766DBE",
"=. c #7B6CBB",
"-. c #7967BA",
";. c #7D74B5",
":. c #7D7AB3",
">. c #7672BC",
",. c #7A73BA",
"<. c #7678B7",
"1. c #6F76BB",
"2. c #6E5ECE",
"3. c #735FC8",
"4. c #675CD5",
"5. c #6A5DD2",
"6. c #6D62CC",
"7. c #6E6AC5",
"8. c #7465C5",
"9. c #746BC3",
"0. c #7163C9",
"q. c #7667C3",
"w. c #6A60D0",
"e. c #7271C1",
"r. c #84299D",
"t. c #8A2EA3",
"y. c #8D31A6",
"u. c #9337AC",
"i. c #993DB2",
"p. c #8C5586",
"a. c #9D7B8C",
"s. c #9A6D9A",
"d. c #9A6D98",
"f. c #8E7D9E",
"g. c #8E779E",
"h. c #9C7394",
"j. c #9B7C93",
"k. c #95749D",
"l. c #9A729A",
"z. c #937B9C",
"x. c #977C97",
"c. c #8B7289",
"v. c #AC7583",
"b. c #AB7B83",
"n. c #A4748D",
"m. c #A37C8B",
"M. c #A87988",
"N. c #A37392",
"B. c #A27992",
"V. c #AF7785",
"C. c #9E42B7",
"Z. c #A347BD",
"A. c #866DAD",
"S. c #8B6CAB",
"D. c #8C6AA9",
"F. c #926DA3",
"G. c #8C75A5",
"H. c #857DA6",
"J. c #8B7CA3",
"K. c #8575AD",
"L. c #8973AA",
"P. c #847BAC",
"I. c #8A7AA9",
"U. c #8676A6",
"Y. c #9272A2",
"T. c #907CA0",
"R. c #8364B4",
"E. c #836BB3",
"W. c #8466B5",
"Q. c #8273B2",
"!. c #817AB1",
"~. c #8872B0",
"^. c #AA4DC4",
"/. c #AE51C8",
"(. c #B355CD",
"). c #BA5CD5",
"_. c #B658D1",
"`. c #BF60D9",
"'. c #C263DD",
"]. c #CB6CE6",
"[. c #CE6EE9",
"{. c #C668E1",
"}. c #CF70EA",
"|. c #D272ED",
" X c #D575F0",
".X c #7C84AA",
"XX c #7783B1",
"oX c #7286B0",
"OX c #9D848D",
"+X c #9C8C8C",
"@X c #988C8C",
"#X c #9E9486",
"$X c #9D9C84",
"%X c #95948D",
"&X c #9B938B",
"*X c #949B8D",
"=X c #9B9A8A",
"-X c #8D849D",
";X c #878C9E",
":X c #8C8B9C",
">X c #8B8998",
",X c #958595",
"<X c #9A8392",
"1X c #948C94",
"2X c #998A92",
"3X c #92839A",
"4X c #928A99",
"5X c #998398",
"6X c #8D9395",
"7X c #8C929B",
"8X c #8A9897",
"9X c #939392",
"0X c #929A93",
"qX c #979594",
"wX c #8F9E8E",
"eX c #A58485",
"rX c #AA8482",
"tX c #A48D84",
"yX c #AB8C83",
"uX c #A3838B",
"iX c #A5888A",
"pX c #A39484",
"aX c #A29B82",
"sX c #A49587",
"dX c #A18591",
"fX c #9CA383",
"gX c #98A787",
"hX c #91A88D",
"jX c #A3A582",
"kX c #A2B283",
"lX c #8484A4",
"zX c #8A83A3",
"xX c #858BA3",
"cX c #898BA1",
"vX c #8383AB",
"bX c #8687AA",
"nX c #8A8BA4",
/* pixels */
"pX=X1X>X;XlX#.$.$.R.;.<.<.XX.X.X-XcX3X:X>X3X3X>X3X-XG.F.U.vXvXP.Q.;.,.&.=.*.q.8.0.0.0.6.5.4.4.5.6.6.0.9.e.,.;.vXbXzXzX:X0X*XgXfXJ H p D ! ! Q M N G J ",
"m.1X>Xf.lX$.$.;.%.>.>.<.$..XlXxX;X>Xx.>X>Xx.l.3X;Xf.G.J.J.K.P.!.R.%.,.&.&.9.8.3.3.2.2.5.4.4.5.6.0.0.9.>.,.E.K.vXzXk.x.9X%X=XaXK I Z ' ] ` _ ] C I J fX",
"qX,X-XU.$.E.R.>.-.>.<.:.#.U.J.;X-X:X1X1X,X1X3X:X-Xk.J.U.P.S.K.:.;.=.>.9.9.0.0.6.2.5.4.4.4.5.6.6.8.9.>.<.E.R.S.zXT.l.,XOXM.b.a I I A ] ` _ ] C u L h b.",
",X-XF.A.$.&.-.*.*.oXXX#.lX;Xf.>X,X6X9X,X,X,X4X>X3Xf.J.U.K.K.;.;.,.>.9.9.0.6.6.w.5.4.4.5.6.6.6.0.9.,.,.;.E.S.J.cX:X:X1XM.tXpXK H C ' _ ` t V ' g k $X&X",
"3XJ.D.$.<.&.-.7.1.oX.XH.;X;Xx.6X,X9X0X9X<X<Xx.x.:Xf.G.U.K.:.;.%.=.9.9.8.0.6.6.5.4.4.6.6.6.0.0.9.,.;.<.:.K.I.cXcX7X6Xm.b.fXkXF ~ B D ! _ ^ N v v fX+X0X",
"-XU.A.<.>.3.7.*.<.XXH.xX-X>X1X1XOX*XwX0X1X,X1X4X:Xz.J.U.L.!.Q.=.*.9.8.8.0.2.5.4.5.2.0.6.0.8.9.,.Q.Q.!.K.S.G.cX7X8X9XM.tXfXK u p ' r r ' B b a fXgX%X4X",
"J.A.R.*.&.8.7.*.;..XlX-X:X1X1XOX%X&X*X+X@X9X<X,X3Xz.J.L.K.!.!.=.*.9.9.8.0.w.5.w.6.0.9.8.q.&.=.;.E.S.K.L.F.k.:X7X8X+Xv.s K P u C [ _ S Z ' g h gX*X6X-X",
"U.A.R.*.*.8.*.;.K.lX-X6X8X%X+X+X&X#X=X&X&X9X2X5X4X3XY.U.P.!.;.=.*.9.0.0.6.6.6.6.0.9.9.9.*.-.,.;.A.S.K.I.G.f.:X9X0X+Xv.s K Y C S r t ^ C I c gXhXwX8XzX",
"#.;.,.1.9.1.<..XlX-X3X9X%X+X#X#XpXpXpXgX=XOX2X2X4Xz.J.U.L.!.E.=.9.0.7.0.6.6.2.0.8.9.-.*.=.,.<.:.K.K.vXlXcX;X4Xj.&X=Xs l Y U Z R E V N P j aX#XhX8X-XH.",
"K.;.*.*.*.<..XlX-X>X,X@X&X#XaXaXpXpXpXpX#X+X@X2X,Xz.J.U.K.!.;.=.9.0.7.0.6.3.0.8.0.*.&.=.=.%.<.:.P.P.lXxX;X7X9X<X&X=XfXK Y U A M V C Y l k $X&XhX8X;XlX",
"$.;.1.>.<.#.H.;X6X1X+X#XtXpXk k k aXpXaX$X#X&X2X,X3XT.G.K.:.;.>.9.8.6.7.7.0.8.9.*.=.=.W.R.E.:.P.L.F.J.cX7X6X9X&X=XgXk d F C m D Z U I J fX=X%X8X;XJ.lX",
"$.oX1.>.E.H.-X>X9X%X#XtXyXh k J J l h h pXtX&X@X,X3Xz.G.P.P.;.&.&.8.7.7.9.q.9.>.=.=.%.E.E.A.P.vXJ.Y.f.;X3X,Xm.M.tXfXa d F p ~ B ' v K pXtXhX0X8X;XG.U.",
".XoX<.$.U.g.3X@X+X#XaXh l l l J J l k k aXtX+X&X1X,Xz.J.I.Q.;.=.-.9.e.9.9.*.>.=.=.;.;.Q.K.K.P.J.J.zX-X3Xh.a.uXb.tXfXJ G P ~ p n U v v aX#X@X,X6X;XJ.lX",
"P.#.$.H.f.3X@X+XeXpXjXk J L g l J l j k aXpX=X&X1X,Xz.J.L.A.Q.<.>.-.>.-.=.<.<.%.;.:.:.K.D.L.vXJ.f.;X>Xh.j.2X=XgXgXkXv G i p n I v v gXgX*X*X1X,X;XxX.X",
".X.XU.-Xx.j.&X#XpXaXk J L L g f g l j j k fX=X&X9X,Xk.J.J.K.E.;.=.=.=.<.<.<.;.E.E.P.K.P.L.U.xXzX-X4X:X1X,X*XhXgXfXk I H B C U v v v fXgX*XwX6X6X;X;XlX",
"lXlX-X1Xj.OX&XpXtXk l l g g g g g F J J J pX#X%X0X1Xz.F.G.vXP.;.R.%.<.;.Q.:.Q.$.P.P.I.lXJ.J.zX-X7X3X<X9Xn.+XhX$Xa l G u p Z Y G c c $X$XhX%X1X6X6X7X;X",
";X;X6X6X@X&X$XpXj l l f f g F F g f j k fXpXuXOX9X9X:X-XY.J.vXXX:.:.:.K.A.A.A.P.P.H.J.zXY.g.f.>X,X1X5XwX%X&XgXpXh v I u i F z l J k pXeX*X+X%X8X>X>X;X",
">X1X9X*X+X#XpXpXk j f f g g F L g f a a $X#XuXm.2X9X:X;XzXlXvXbX.X.X#.S.I.I.D.D.H.zXzX-Xk.k.k.6X,X1X<XOX%XhXgXaXk K I I i x d d k k fX$XgX*X*X0X1X,X>X",
",X@X%X&X#XtXtXaXJ j a j J g g g L l a yXpX=X@XOX<X,X3X;XcXcXxX@.O.| % O.O.#.cXzXcXcX:X7X7X,Xx.1X<X9X@XOX&XgXgXjXh x b U I H g l k s fX$XgXgX%X@XqX9X6X",
"+X+XOX#X#XpXpXh h l j l l L l l J k pXpXpX=X*X9X1Xx.l.3X;XcXO.+ X X + X X @ +.+.O.O.* +.+.d.j.0X1X*X+X&XgXrXaXv K G U U F g G v J c kXfXfX$X=X=X=X&X@X",
"@X+XuXpXpXpXaXaXk k j a j l J J J $X$X=X=X&X0X0X0X,Xh.s.3XO.X @ y./.(.^.r.+ X X X O O X X + = c.hX*XuXtXgXrXk v v I I H d d g v v v v c fXaXaXaXpX&X%X",
"eX#X#XpXpXpXaXaXaXk j j j h k jXaX$X$X=X&X+X+XqX0X9Xx.h.p.O @ ^.|.}.}.|.|.u.@ t.Z././.Z.t.$ X @ @.=X#XgXfXa j J L x x G G I Y I l d J K K c k k fX+XeX",
"eXtX#XtXtXpXtXeXpXpXpXtXyXyXaX$X=X=X=X=X&XuXm.B.2X9X9X5X* X u. X].].].].[.{.).|.|.|.|.|.|.`.r.X O p.yXfXc s 8 d d q i I I F H I g x F K f g K j pX#XeX",
"#X#XpXpXpXtX#XtXtX#XtXtXtXpX#X=X=X&X*X*X%XOXB.N.B.2X0Xc.+ $ '.[.].].].].].].[.].].].].].].[.|.u.X + 5 jXh J g x z i H H H u u I U I I Y z g L h aXtXeX",
"$X#XpXpX#X&X+X+X+X#X#X#X#X&X&X&X&X&X9X0X%X+Xm.N.N.n.qX+.  r.|.].].].].].].].].].].].].].].].].|.r.X * h 9 f I I I C i i H / u C C N C B C z l k $X$X#X",
"#X#X+X+X#X+XOX+X+X@X&X&X&XqX9X1X2X<X<X1X0X9X<XN.n.n.OX% X ^.|.].].].].].].].].].].].].].].].].[.'.$ O 5 x f I U U Z i n C p ~ N p p B ^ p i l k $X$X$X",
"pX+X+X+X@X@X2X1X2X2X2X9X9X1X1X1Xx.j.j.j.<X9X9X<Xn.M.p.O } {.].].].].].].].[.|.|.[.].].].].].].].|.y.  : Y G U U C C Z Z Z B ~ ~ p D A B p L l k aXpXtX",
"pX#X+X+X1X1X,X,X,X,X1X9X4X:X>X:Xx.l.l.h.h.<X9XqXOXuX-   t.|.].].].].].].|.`.i.i._.}.].].].].].].|.^.O * z u N C p ~ B ' ' ' S ^ S S m Z P g l h tXtXrX",
"#X%X2X<X,X3Xx.x.3X3X:X:X:XcXcXcXf.k.s.s.d.h.<X0X*X+X% O /.|.].].].].].}./.$ X   @ (.|.].].].].].}.).+ % u w u N ~ ~ V ' ' S r ] ] S V p H G l h pXpXtX",
"&X9X,Xx.3X3X3XT.J.J.J.zXzXlXlXlXzXY.s.s.d.d.h.1XhXc.X | ].].].].].].].{.} X ; =   t.|.].].].].].}.`.+ % i ~ p B ^ ^ S ' ] E R t E D A i x g k h tXpX=X",
"a.,X3Xz.-XzXzXzXG.L.L.I.vXP.I.vXlXJ.Y.s.s.d.h.j.*X:   u.|.].].].].].|.C.X * Y 3   y.|.].].].].].}.(.+ * Z C A ' D M E Q _ Q ! t E S Z b u f k aX$X=X&X",
"<X4X3XJ.J.J.I.I.K.K.Q.:.!.A.A.K.P.vXJ.k.s.d.h.j.@X$ + _.|.].].].].].[.o.  2 i * O ^.|.].].].].].|.C.  : [ ' [ ` ] Q W W _ ` _ D m C p x d j fXtX#X&X+X",
"3X-XJ.J.I.I.K.!.:.;.;.;.E.W.R.W.A.P.bXzXz.k.l.dXp.X  .].].].].].].[.).+ + w 4 O } {.].].].].].].}.o.  5 ` A 5 : - > < Q ` _ t E ^ p / g l l aX=X+X@X<X",
"3XzXJ.P.K.!.!.;.,.,.>.,.=.R.R.R.W.K.lXcX:X3Xx.m.=   i.|.].].].].].|.i.  = ~ >   t.|.].].].].].[.).+ $ p n * O   O   # % T _ R R ^ N F I l aXyXeX@X<Xx.",
"zXJ.P.K.Q.;.;.=.&.*.9.e.*.W.R.R.D.G.zXcX6X1X<Xn.+ + ).[.].].].].].[. .X 4 ~ & O /.|.].].].].].|.i.  > ( *   | i./.Z. .X % n ( m ~ u H K k aXtX&X9X,X-X",
"zXI.P.Q.=.=.*.q.8.8.0.9.>.;.W.S.S.Y.z.3X9X1XiXp.X X.[.].].].].].}._.+ $ ~ 0 O } {.].].].].].].[. .  0 5 # ..'.|.|.|.]. .  5 ] p u z d k aXsX&X2X,X>XJ.",
"vXK.!.=.&.9.0.8.0.0.8.9.<.:.P.L.F.F.l.j.2X@XuX=   C.|.].].].].].|.u.  > W 2   y.|.].].].].].}._.O & e & O /.|.].].].|.Z.X : Z p F K l fXaXsX0X9X:XzXlX",
"P.~.;.*.9.8.6.6.6.3.q.-.:.P.P.U.F.s.d.N.m.iXa.+ @ `.[.].].].].].]...X 4 E & O /.|.].].].].].|.u.  > < #  .].].].].].|.Z.  - B Y I f k eXeX&XqX6XcXxXI.",
"Q.Q.=.9.8.6.6.6.6.3.&.E.!.L.F.F.k.s.d.N.v.rX1   o.}.].].].].].|._.+ $ R 0 O | ].].].].].].].].| X , & X Z.|.].].].].|.r.  < p I J s tXeX*X2X,X:XzXvXK.",
"Q.=.9.8.6.w.6.7.9.&.=.Q.K.F.F.s.l.h.N.n.n.v.% X Z.|.].].].].].|.u.  > W >   u.|.].].].].].|./.O * >    .].].].].].[.'.$ + 0 z f jXgX#XM.9X,X-XzXI.K.!.",
"=.9.0.6.5.5.6.9.,.=.R.A.K.J.k.l.j.h.n.n.b.0 + $ '.[.].].].].].]...O , W & O (.|.].].].].].|.t.X % + + _.}.].].].].|.i.X - Y d d jXgX&Xn.1X:XJ.J.K.Q.%.",
"9.8.6.5.4.2.0.,.<.E.W.L.H.zX:X,Xj.n.M.v.b.>   r.|.].].].].].|.(.O & W , O ..].].].].].].[.'.$ + + X C.|.].].].].].{.| X y Y h yXyX&X1X,X>XzXzXK.!.%.-.",
"8.6.5.5.2.0.=.,.;.Q.L.J.zX;X4X,XOXM.v.v.8 % O ^.|.].].].].].|.y.  > ) >   u.|.].].].].].|.Z.X + X i.|.].].].].].|.i.X * K fXfXrXiXm.,X3Xk.J.vXA.;.,.9.",
"2.5.4.5.0.9.;.;.!.K.J.zX:X4X,Xa.uXeXb.d 5 O } {.].].].].].].]. .O , , + @ ).[.].].].].].|.o.. @ Z.|.].].].].].}.).$ O 5 a $XfXsXqX1X4X;XJ.I.P.Q.=.9.8.",
"5.5.5.6.8.=.;.!.K.L.J.:X6X1XOXm.M.rXa j 1   y.|.].].].].].].[.o.X $ +   y.|.].].].].].[.).+ X._.|.].].].].].[.[.X.  - d 9 $XgX*X0X3Xk.J.U.P.!.,.&.8.6.",
"4.6.0.9.*.,.;.K.L.G.-X:X9XqXuXeXeXs a l % O /.|.].].].].].].}.(.} + $ u.].].].].].].].}.(.^.}.}.].].].].].].|.y.X $ a s tX*X+X<X6X3XzXvXP.K.E.-.q.0.5.",
"5.0.9.*.=.E.P.I.J.-X:X9XqX&XtXrXs s x 5 O ..].].].].].].].].].[.{._.'.|.].].].].].].].].[.|.].].].].].].].|.u.X + 5 kXaXgX&Xn.<X7XzXJ.P.Q.~.=.q.0.2.4.",
"0.9.*.=.E.K.vXzX-X:X1X2XsXaXaXpXa f P :   u.|.].].].].].].].].].].[.].].].].].].].].].].].].].].].].].[.].y.X O 5 jXpX=X*X9X,X7XzXF.S.K.W.W.q.0.2.4.4.",
"9.-.=.;.K.L.zXz.3X,XOXuXyXjXjXJ g F F % + _.}.].].].].].].].].].].].].].].].].].].].].].].].].].].].|.). .X + 5 jXrXv.OX0X8X7XcXJ.L.K.E.=.&.8.6.5.4.6.",
"9.=.;.!.K.J.3X3X,X+XuXyXpXJ K G I C 5 X  .].].].].].].].[.[.].].].].].].].].].].].].].].].].].[.|.'.i.$   $ 5 gXtXV.M.1X8X7XcXzXL.K.E.=.*.8.6.5.4.6.8.",
";.;.!.P.J.-X4X2X&X+XpXh J Y G H I Z -   i.|.].].].].].[._.'.|.}.].].].].].].].].].].].[.}.|.[.).i.} X O = y kXgXpXuX2X8X7X;XJ.I.D.W.=.&.8.6.5.4.5.0.q.",
":.Q.L.J.f.5XqX&XeXeXk J K Y C n C b o + ).}.].].].].].[. .$ i.(.{.].}.|.|.|.|.|.|.[.].'./.i.X.@ X X % 3 aXgXgX&XuX<X9X7XcXG.F.I.A.%.*.0.6.w.4.5.6.9.,.",
"!.K.J.-X3X2X&XpXrXa l g F n C C ] 5   o.[.].].].].].[.).+ X   + } X.r.t.y.u.u.t.r.o...@ O     + * 2 a jXfXgX&Xm.n.j.:XcXzXF.L.~.E.-.9.6.6.5.5.6.8.*.;.",
"K.J.zX3X<XiXsXaXj j g i N B B S ] ;   C.|.].].].].].|.i.  = < & o X               X X + & = 2 0 9 d yXsXsX=X2XN.h.3XcXxXH.D.K.Q.&.q.8.2.5.5.6.0.9.<.;.",
"J.zX:X<XiXpXpXk g z i N B V M t n + $ '.[.].].].].].[. .  4 W ~ 6 4 < < 2 2 2 2 2 3 4 0 7 7 7 8 8 V.b.b.uX9X,Xj.3XcXxXvXK.K.:.=.q.7.6.5.5.0.8.9.=.Q.P.",
"J.3X1X&XtXpXl f x i N V M Q E Q 3   r.|.].].].].].[.).+ $ ~ ~ ~ ~ ~ ~ / / / / / / d d d 7 8 8 8 v.b.V.n.m.1X3Xl.k.zXvXvX!.:.<.9.8.6.5.5.0.9.9.>.;.K.G.",
"x.<X&X#XpXj g b N m m M Q Q E E = X Z.|.].].].].].|.i.  - ^ ~ ~ q q 6 q q 7 7 7 9 9 d s 8 V.v.v.v.M.m.j.,X4Xl.s.Y.vXvX:.<.<.9.8.2.5.4.6.8.9.>.;.!.U.z.",
"<X&X#XpXl g b B m m Q ! Q Q Q u + $ '.[.].].].].].[. .  4 ^ / / 6 6 6 7 7 7 9 9 9 8 yXyXrXv.v.v.n.j.1X4X7Xz.s.Y.I.vX:.<.=.-.0.6.5.4.6.8.q.=.%.K.P.zXx.",
"&X=XpXj g b B m E Q t D ( ^ ( 3   r.|.].].].].].}._.+ $ 6 ~ q 6 7 7 7 9 9 9 9 8 8 b.tX=X+Xm.m.n.j.5X:X;XcXzXT.Y.L.!.<.=.&.8.6.5.4.5.0.9.>.<.!.I.zX4X1X",
"#XpXl z i m S t r t D D V m V * O ^.|.].].].].].|.i.  > / 6 7 7 7 9 d d 8 8 8 v.b.eX#X*XqX2X<Xh.h.h.z.cXxXbXI.D.W.;.>.*.8.6.5.4.5.0.9.,.,.:.K.J.3XqXqX",
"aXf g N p p r t t M M B p p 0 X } {.].].].].].].]. .X 3 u 7 7 9 9 8 a tXrXb.b.M.uX+X&X0X9X,Xj.d.d.s.Y.zXbXvXL.W.%.>.9.0.6.w.4.5.0.8.&.=.E.L.J.-X1XiXtX",
"l g N m ( Q ! r S V B N i p 3   t.|.].].].].].}._.+ $ s d 9 9 9 9 8 eX$X#X+XuXm.m.m.<X1X6X3Xl.s.s.s.G.vXvXP.Q.=.>.9.0.6.6.4.5.6.8.&.,.;.L.J.zX5X&XiXs ",
"g b B M Q ! Q r m B b i x z 1   C.|.].].].].].|.u.  - J a 8 8 8 8 v.eX=X*X%XOXn.n.N.h.3X:X:Xz.k.Y.Y.P.P.!.!.<.*.q.0.6.6.5.5.6.0.q.=.;.P.J.zX4XdXiXrXa ",
"b B M ] ! ! S V N F g f f F 1   u. X].].].].].]...X 5 kXpX8 v.v.v.v.iX&X0XqX<Xh.N.N.l.k.-XcXzXJ.I.P.!.Q.E.%.*.q.8.6.w.5.6.6.0.9.>.;.P.I.J.3X2XsXpXf L ",
"p E ! ! ! S S n F G J J c K 5 O $ ).|.[.[.|.|.u.X * gXfXpXb.v.uXuXuXuXdX1X9X,Xh.N.h.s.k.J.lXbXvXP.:.Q.R.R.&.9.0.6.w.5.2.0.0.q.=.;.K.L.cX4X<XuXyXh g b ",
"E Q ! ! ( B i g L c a h fX$XaX* X | Z.).`./.r.O + c.sX#X&Xm.m.@X@Xm.n.N.x.:X4Xx.h.l.F.Y.I.bXvX:.:.<.=.&.&.q.0.6.w.5.5.0.0.q.-.%.:.I.J.3X1X@XtXh J i p ",
"Q ! ! M S C g f k eX8 v.#X#XsXa.% X X + @ + X + 1 iXm.M.@X9X9X9X9XB.N.d.l.3XcX3XY.F.F.L.P.P.:.:.<.<.*.q.q.0.6.5.4.w.0.7.9.>.%.!.vXJ.k.,X+X#Xh J H p E ",
"{ ! ( C n F l h $XtXm.OX=X&Xm.uX%X+.* $ @ % O.c.m.<Xa.n.j.,X,X6X6X<Xd.s.k.J.cXzXI.K.K.!.:.:.<.<.>.*.9.0.0.2.5.4.5.0.0.9.=.=.;.P.zXz.j.1XtX$XJ F i E Q ",
"! D S U G l s eX=XOX%X%X0X9X1X<X1X2X6X6X>X6X8X0X1X6X,Xj.5Xh.h.3X7X:Xz.k.Y.zXvXbXvX!.:.:.:.<.<.>.9.q.8.8.0.5.4.5.2.8.9.&.E.W.K.Y.z.j.<X&XrXj L B S Q ! ",
"Q D U G l fXtX+X9X<Xj.1X,X,X7X:Xx.k.3X3X7X:X-X:X7X7X7X:X:Xk.s.z.cXcXzXJ.H.vXvXvX:.:.:.;.=.=.*.9.0.0.0.0.2.5.5.6.0.9.-.&.W.K.F.k.5X<X&XfXk g N m D t ! ",
"M B F K aX$X&X1X,Xx.x.x.3X;X;X;X-X-Xf.k.;X-Xs.-X7X7X7X7X;X-Xk.T.J.lXvXvXI.P.!.:.<.<.,.=.W.&.8.8.6.0.0.5.5.5.6.0.0.>.,.E.A.I.T.4X<X+XtXfXJ i m M ! ! t ",
"A I l fX#X@X1X3X;Xf.-X-X;XxXlXG.H.lXlXJ.zXcX-X;X7X:X-X-XcXxXxXJ.F.L.vXK.A.~.!.:.<.,.,.&.&.q.8.0.0.6.5.5.5.6.0.q.*.,.E.A.G.cX7X1XOX#Xa d P V M Q Q t M ",
"b K k $X*X9X3X-X;XlXlXH.lXU.H.L.K.lXxXf.z.cX;X7X7X:Xk.k.J.xXxXzXF.D.P.Q.R.W.Q.<.,.,.,.q.q.8.3.2.5.5.5.2.6.0.q.*.<.E.S.F.J.:X0X0X=Xa a z C M ! ! Q Q p ",
"g k gXhXwX7X-XxX.X.XH..X#.A.#.P.L.G.Y.zX:X-Xx.:X3X3Xk.Y.Y.zXbXbXI.K.:.;.W.W.=.,.-.9.9.9.8.3.5.4.4.5.2.6.0.8.&.=.:.K.P.J.k.4X2X=XaXj G B D Q ! _ E m b ",
"c fX*X6X>Xf.J..X.X$.$.XX:.;.#.P.J.zXz.3X>X>X>X-Xl.k.k.J.J.lXbXvXvX:.;.Q.Q.=.-.9.q.8.8.0.6.5.4.4.5.6.6.7.9.&.&.;.vXbXxXz.j.1XuX$Xs F i m ] _ ! t M C G "
};
