/* XPM */
static char *result[] = {
/* columns rows colors chars-per-pixel */
"75 75 256 2 ",
"   c #D87C3B",
".  c #BC795E",
"X  c #BA786A",
"o  c #A76D7C",
"O  c #B96E71",
"+  c #AC787B",
"@  c #B87877",
"#  c #D47C49",
"$  c #CA7652",
"%  c #CB7A5B",
"&  c #D37D59",
"*  c #CD7963",
"=  c #CA7C62",
"-  c #C67969",
";  c #C37C6B",
":  c #C17572",
">  c #D5853F",
",  c #B9965B",
"<  c #BCA75B",
"1  c #AEB35B",
"2  c #B9B95B",
"3  c #9A8B7C",
"4  c #99987A",
"5  c #AC8B6B",
"6  c #BA886A",
"7  c #AB9A69",
"8  c #BA9769",
"9  c #B49C6D",
"0  c #A98778",
"q  c #AB8C7D",
"w  c #B68676",
"e  c #AB9575",
"r  c #AC9C75",
"t  c #A5947E",
"y  c #AB947B",
"u  c #A59B7D",
"i  c #A99B7A",
"p  c #B49676",
"a  c #B29A72",
"s  c #9EAD6C",
"d  c #9BA87A",
"f  c #9CB779",
"g  c #ABAA6C",
"h  c #BBA364",
"j  c #B7A867",
"k  c #BCAB63",
"l  c #B3A36C",
"z  c #B3AC6B",
"x  c #ACB46D",
"c  c #A7B869",
"v  c #ABBC6C",
"b  c #BBB364",
"n  c #B5B866",
"m  c #A7A477",
"M  c #ABA374",
"N  c #A6AB74",
"B  c #ABAC72",
"V  c #A5A47B",
"C  c #A3AC7B",
"Z  c #B6A576",
"A  c #A4B374",
"S  c #A6B676",
"D  c #B7B875",
"F  c #D8864B",
"G  c #CA934C",
"H  c #D2954B",
"J  c #CB865A",
"K  c #D48455",
"L  c #DA8755",
"P  c #D48A53",
"I  c #D2835B",
"U  c #C79959",
"Y  c #D19652",
"T  c #C5AB4C",
"R  c #C6A658",
"E  c #C3AB5B",
"W  c #C4B458",
"Q  c #C68665",
"!  c #C49565",
"~  c #D09273",
"^  c #C4A865",
"/  c #CBB171",
"(  c #E2A177",
")  c #B8C55A",
"_  c #B3CA5D",
"`  c #B5D05B",
"'  c #9DC075",
"]  c #ACC568",
"[  c #B3C765",
"{  c #B4CC71",
"}  c #C2C259",
"|  c #C4C46E",
" . c #745BBD",
".. c #7C78AB",
"X. c #7E7BAC",
"o. c #736BB4",
"O. c #7D6CB6",
"+. c #7567B8",
"@. c #7B65BD",
"#. c #756DBE",
"$. c #7B6CBB",
"%. c #7D75B5",
"&. c #7578B7",
"*. c #7D7BB3",
"=. c #7672BC",
"-. c #7A73BB",
";. c #675AC7",
":. c #6D5ECD",
">. c #735EC7",
",. c #675BD4",
"<. c #6A5DD2",
"1. c #6E6AC3",
"2. c #6E63CC",
"3. c #7465C5",
"4. c #746BC3",
"5. c #7868C3",
"6. c #7164C9",
"7. c #7B74CA",
"8. c #6B61D0",
"9. c #786CD5",
"0. c #9B798B",
"q. c #936A92",
"w. c #9A6E99",
"e. c #9A6D9A",
"r. c #8B7B9D",
"t. c #9C7494",
"y. c #967997",
"u. c #9B7B94",
"i. c #94749D",
"p. c #9A739A",
"a. c #937C9C",
"s. c #A66C8D",
"d. c #A97787",
"f. c #AA7C84",
"g. c #A4738E",
"h. c #A47C8B",
"j. c #B17583",
"k. c #A37392",
"l. c #A47A92",
"z. c #886BAA",
"x. c #8B6CAB",
"c. c #926DA3",
"v. c #8C74A5",
"b. c #857CA5",
"n. c #8C7CA4",
"m. c #8574AD",
"M. c #8974AA",
"N. c #847CAB",
"B. c #8A7AA8",
"V. c #9272A2",
"C. c #927BA2",
"Z. c #8365B5",
"A. c #836BB3",
"S. c #8274B2",
"D. c #827AB1",
"F. c #8878BB",
"G. c #C27C80",
"H. c #8578C6",
"J. c #8879CF",
"K. c #7D809E",
"L. c #7C83AA",
"P. c #7384B2",
"I. c #888B8C",
"U. c #9A888A",
"Y. c #9C8C8C",
"T. c #8C968A",
"R. c #929586",
"E. c #9E9486",
"W. c #9D9C85",
"Q. c #95948D",
"!. c #9B938B",
"~. c #959B8C",
"^. c #9B9A8A",
"/. c #8D849D",
"(. c #878999",
"). c #8C8B9C",
"_. c #958595",
"`. c #9A8492",
"'. c #948C94",
"]. c #998B92",
"[. c #92839A",
"{. c #99819A",
"}. c #928A9A",
"|. c #8C9695",
" X c #8C929C",
".X c #939393",
"XX c #989495",
"oX c #939A92",
"OX c #A58485",
"+X c #A58D84",
"@X c #A88885",
"#X c #A3838B",
"$X c #B28C8F",
"%X c #A39383",
"&X c #A59686",
"*X c #A29B82",
"=X c #9CA383",
"-X c #97A887",
";X c #92A98E",
":X c #A4A683",
">X c #A8B28F",
",X c #8484A4",
"<X c #8B83A3",
"1X c #858BA3",
"2X c #898BA1",
"3X c #8483AB",
"4X c #8988AA",
"5X c #9889A6",
"6X c #8A93A4",
"7X c #9695A6",
"8X c #8987B7",
"9X c #928CB5",
"0X c #B496AE",
"qX c #9EA2B1",
"wX c #B2B0B0",
"eX c #C9958F",
"rX c #CFAF94",
"tX c #E5B18F",
"yX c #C296A2",
"uX c #CEB3AE",
"iX c #E5BEAD",
"pX c #B8C48E",
"aX c #BAC5AF",
"sX c #CBCC93",
"dX c #E5C498",
"fX c #D9C9B9",
"gX c #CFD2B1",
"hX c #E8C8B2",
"jX c #A29AD0",
"kX c #B3AFCE",
"lX c #A8A2DE",
"zX c #CDBAC5",
"xX c #C4BEE9",
"cX c #D4D0CF",
"vX c #E6CAC6",
"bX c #E8D9CB",
"nX c #F3D8C5",
"mX c #E8D9D6",
"MX c #DEE2DB",
"NX c #E5E6CA",
"BX c #E6E8D7",
"VX c #F4E6DA",
"CX c #EFF1D9",
"ZX c #CFCDEB",
"AX c #DAD6E8",
"SX c #E3DAE9",
"DX c #E9E6E8",
"FX c #F4EBE7",
"GX c #F0F0EA",
"HX c #F5F4EA",
"JX c #EAE8F3",
"KX c #F5F4F3",
"LX c #F9F4F3",
"PX c #FAFAF6",
"IX c #F6F6F9",
"UX c #FEFEFE",
/* pixels */
"&X>X5X7X7X4X8X8X8XS.D.8XH.L.6X6X5X7X7X7X7XXX5X7X5X5X5XC.5X8X9X8XF.8X8XH.H.H.H.5.H.9.9.9.9.9.9.9.9.7.7.7.H.H.8X9X9X7X7X7XXX;X>X>X>XD ^ { / } ^ D D B >X",
"#X].}.r.b.....%.O.o.&.&.&.L.L.1X(.(.i.)./.a.t./.}.r.V.V.v.N.X.*.Z.O.o.@.@.@.>.>.:.<.:.;.,.,.,.:.2.1.4.4.#.A.m.N.,Xv.y.|.oX^.%X:XA x D [ } ) 2 c A m d ",
"Q.[.r.b...Z.O.=.+.=.&.&.X.b.2X2Xr.'.}.)._.'.[.)./.a.n.v.B.z.S.-.S.$.=.4.4.4.6.6.8.<.<.,.,.<.6.2.4.4.=.=.A.z.c.4XC.i.[.`.d.@Xq C A v [ ` ` [ n 6 m *Xd.",
"_.(.c.M...Z.@.1.1.P.P.*.,X1Xa.).}.|..X_._._.(.}.[.a.n.v.m.m.D.S.-.=.4.4.4.2.;.,.,.,.8.,.<.<.6.4.4.=.=.*.S.x.B.2X).'.].d.@Xy C N x ] _ ` 2 k ] i u W.Y.",
"/.n.z...&.@.+.1.#.P.P.b.1X(.y.)._..X.XT.`.{.u.a.2Xn.V.B.m...S.O.$.4.5.:.;.9.9.9.9.,.,.<.2.6.4.#.-.*.*.%.m.B.1X6X X Xh.d.=X:XS Q n 2 2 _ U l f f =XY.oX",
"/.v.z.*.o.>.1.#.&.P.b.,X(.)._.].`.oXoXoX'._.'.}./.a.n.B.M.S.S.-.#.3.>.8XxXJXUXUXIXSXlX2.>.3.4.o.-.F.D.M.M.v.6X X|..Xd.@X:XC 8 8 ] E < [ l M y f =XXX/.",
"b.z.Z.o.@.>.1.=.%.X.L./. X'.'.U.Q.!.~.Y.Q.'._.].[.C.n.v.m.N.S.$.4.+.lXUXUXUXUXUXUXUXUXSX7. . .o.Z.z.S.M.c.q.r.I.|.U.f.0 :XZ Q v ] _ b ] c i 4 -XT.|./.",
"b.A.O.+.#.1.+.o.X.K.(.|.T.Q.U.Y.!.E.^.!.!.Q.`.].[.[.V.M.N.D.%.-. .xXUXUXUXJXZXxXZXIXUXUXSXF.jXZXAXSXJXJXDXAXcXkXqXY.o 0 :XS v z < n Q x f d -X;X;X X(.",
"....o.=.1.o.&.X.,X/.[..XQ.Y.E.E.&X&X&X-X!.`.].].}.[.n.M.m.m.A.+.jXUXUXIXlX8.;.:.>.8XSXUXUXIXUXUXUXUXUXUXUXUXUXUXPXBXuX*XA S v U U z l l i *X-X;X|.(.b.",
"..&.=.#.#.P.P.,X(.}._.Y.R.E.E.*X%X%X%X%XE.Y.].`.{.a.n.v.m.*.O.$.JXUXUXlX;.:.6.6.4. .J.IXUXUXUXUXIXJXJXJXGXIXUXUXUXUXUXGXgXc c j j x A i *X*X-XK.|.(.,X",
"..&.&.&.&.&.X.(.(.Q.Q.E.+X*Xt u u *X*X*XW.E..X]._.[.n.v.M.D.o.lXUXUXZX;.4.1.3.4.4.$.A.JXUXPXcXjX5Xx.b.(.6X7X0XaXBXUXUXUXUXNXh c ] A S V =XE.Q.;X).r.b.",
"..P.&.%.A.L./.(.Q.Q.E.+Xq i u V V u y t +X+X!.Y._.[.a.B.m.3XO.AXUXIXJ.;.4.3.#.=.$.-.$.JXJXF.....v.c./.)._._.0.d.U.>XvXUXUXUXVXz ' S C *X%X;X.X|.(.v.b.",
"L.P.&...b.r.a.U.Y.%X%X&Xt i i V m i u u *X+X!.Q..X[.a.n.b.z.8XIXUXSX1.1.4.#.=.-.-.%.%.kXS.z.B.b.b.<X/.[.t.h.h.@X&Xd M >XHXUXUXBX' f -Xd +X!._.|.(.,X,X",
"..*.%.3X/.y.'.U.OX%Xu i m i i m m i i u W.%XE.!.]._.[.C.v.O.kXUXUXlX+.$.4.&.=.%.S.*.%...z.v.,Xb.r.)./.u.u.].^.^.=X-Xf N :XFXUXUXgXf -X-X~.T.'._. XL.L.",
"L.L.B.r.a.`.Q.E.t *XV V m m r p i i y t u =X=XQ.'.'.i.C.n.m.AXUXUX8X4.7.&.*.%.A.A.N.m.N.z.b.,X1X[.). X'.].~.;X-X:Xu f B g pXPXUXIXpXd -X~.;X|.(.(.1X1X",
"L.,X/.'.`.h.!.%Xt t i i i r r e r i m u d E.!.Q..X}.a.c.v.9XUXUXAX+.*.S.S.*.S...N.N.B.3Xn.r.r.r.(.a._..Xg.Q.-XW.0 i N 6 8 c gXUXUXcX4 -X~.Q.'.|. X(.(.",
"/. X|..XU.!.W.%Xy y i p e r M i i e y u :X+X#XY..X.X(.<Xc.zXUXUXkX..*.S.z.z.m.N.N.,XB.m.c.5XkXwXwXwX_.T.T.R.-Xt t f C 6 l M Z HXUXKX&X+ T.Y..X|.'.).(.",
"(.'..XQ.Y.E.E.t *Xy y y r r M m M e p q E.E.`.h.]. X).2Xb.DXUXIX8XP.3Xz.M.M.z.v.b.b.r.wXSXLXUXUXUXUXKXwXT.;X-X*Xi d A c a p + vXUXUXaX4 ;X~.T.oX'._.).",
"'.'.Q.!.!.+X+Xu V y q e m r r M i t q @X%X^.Y.`.]._.(.(.qXIXUXAX..z.3Xb.B.1X,Xn.1X(.cXUXUXUXUXUXUXUXUXUXcXd -XV y p r ' A C 7 rXUXUXaX4 -X;X!.!.Q.'.I.",
"U.U.U.E.E.+X*Xt i i y r i i i i V V *X+X+X^.!.Q.U.u.t.r.cXIXUXkXL.c.c.1X2X<X X1Xr.AXUXPXUXSXzXwXwXcXUXUXPXuXu -XC N A c B V d pXUXPXcX4 =XW.R.E.^.Q.'.",
"Y.Y.#X%XE.%XW.u u i t q y i V V :X*X=X^.^.^.oXoXoX_.w.w.DXUXIX7XK.1Xv.<X6Xw.[.(.wXUXUXIXwXq.q.I.~.T.wXUXUXDXt f f A S g 6 p r >XPXUXMXd -X*X*XW.*X!.Y.",
"OXY.!.&X%X%X*XW.*X*Xt t y y *X:XW.*X^.!.!.].]..X|..Xt.0XUXUXAX/. X|. X).6X}.p. XPXUXIXwX0.`.U.!.;X^.3 AXUXPX>XV B p 9 N N C S ' IXUXNXd C d t u =XY.U.",
"OXE.E.+X+XE.+XOX+X%Xq %X+X%X*X^.W.^.^.^.].#Xh.#X]..XI.cXUXUX0Xc.}.[.).|.|.|.I.zXUXUXcXI.l.g.#Xd.#X#Xf.fXUXUXyXX w ; 9 A A Z N pXPXUXbXs i r V y %XU.OX",
"E.E.!.+X%X+XE.+X%X%X+X+X@X%XE.^.^.^.~.~.XX#Xl.k.l.`.|.KXUXKXp.s.u.t.t..X|..XT.DXUXPX;X;X#Xd.d.f.f.:X4 gXUXUXrXe a a B B B w 6 pXUXUXgXA a a N t *X+XOX",
"E.E.E.%X^.!.Y.+XY.!.&X!.E.^.Q.!.XXQ.Q..X.X].0.k.l.g.wXPXUXcX].k.s.u.s.d.XX0.$XUXUXMXQ.^.^.#XW.OXj.=Xd gXUXIXpXs x x 9 7 B Q 6 gXUXUXpXz D r i 4 W.*X%X",
"E.E.Y.Y.!.Y.#XU.Y.Y.!.!.XX.X.X].].`.`.]..XQ.`.k.g.s.cXUXUX0X`.Q.h.Y.h.s.#XE.zXUXUXaX4 j.OX=X-X*X0 =Xd MXUXIXpXc S v 9 B x ! Q FXUXKXD ! 8 a e u 4 W.W.",
"%X%XY.Y.].U.].].].].XX.XXX.X'.'.y.u.u.u._..X'.`.d.l.LXUXLXs.s.#X~.=X-XE.#X-XFXUXPX>Xd &Xj.+X=Xd =Xd ' KXUXGXc A v D S v v 1 eXUXUXBXn z 8 M i u *X+X&X",
"+XY.U.U.]..X_.].'.'.}.'.}.).(.).a.p.p.t.t.`..X.Xh.0XUXUXzXo j.j.W.-X-X-X=X>XUXUXBX4 %X*Xi V y y i 5 uXUXUXfX7 x 8 ! z ] ] 1 gXUXUXdX< ] a r i u %X+X@X",
"XXQ.Y.`._.}.a.a.2X[.}.2X).2X2X2X[.i.e.e.t.t._.Q.Q.mXUXUXyXo j.j.q -Xf -Xd gXUXUXuXt @ @ i f V V p : vXUXUXeX6 h Q Q j ] ] 2 CXUXPXD k 8 g N y t %X%X+X",
"!..X_.`./.[.{.C.C.n.n.<X<X<X,X,X<XV.e.e.w.w.t.'.oXKXUXFXj.j.j.j.0 V C V f GXUXIX: w e O @ i N S N p LXUXFX! U j Q ! b ] 2 rXUXUXnX1 ] 9 p i u t q %X&X",
"l.]._.a./.<X<X<Xv.M.M.N.3XN.,X3X,X<XV.e.w.w.s.0.aXUXUXzXo j.O : @ w M e >XIXUXbXX : 5 p 6 w ; a s sXUXUXgXv v ] [ ^ U E 1 NXUXUXrX1 ] g 6 e u %X^.&XXX",
"_.}./.n.n.n.n.B.m.m.m.D.*.A.z.m.N.3Xn.i.e.w.k.0.AXUXUX>XO O O j.O : w @ iXUXUXsX5 ; 6 B B 6 : Q 5 bXUXUXpX] [ [ [ U # H ) HXUXHX^ x 8 6 p y =X+X%XQ.].",
"}./.n.n.B.B.M.D.*.%.*.*.Z.Z.Z.x.z.3X<X<Xi.p.t.5XPXUXDXW.y @ : : : : : - FXUXLXp c l l A ' 8 ; Q ~ LXUXGX] [ 2 _ [ < Y T sXUXUXhXJ 9 Q a e i *X^.%X].`.",
"[.<Xn.B.M.D.S.-.-.=.=.&.Z.Z.Z.Z.z.M.4X2X(.[.0.uXUXUXuX+ q @ O : - - * eXIXUXvX* j c v c ] ! ! 1 rXUXUXgX2 k < [ ` ` } T NXPXPXtX, l M f i &X&X#X].`.y.",
"n.v.m.D.S.*.-.O.$.4.4.4.5.Z.Z.Z.Z.v.2X6X X'.y.SXUXUXeX+ w @ @ - - : * iXUXUXtX* 8 x ] ] ] n z v BXUXUX| 2 R 2 ` ` ` T Y LXUXGXh Q 6 N C u :X@X]..X[.}.",
"<XB.D.S.A.4.#.$.>.3.4.4.4.$.A.x.x.V.C.}. X].$XUXUXmX@ : @ @ ; - * * * FXUXLXQ * J z ] ] ] { [ { PXUXFXW ) ) } W ) ) H tXUXUXgX, 6 a w u *X&X&X]._.}.r.",
"4XN.S.A.$.4.4.2.>.6.3.#.-.*.D.M.c.c.k.l.].U.uXUXUXuXO : X - : - * & eXUXUXNXU ! ! ^ [ [ { { ` sXUXUXiXF W ) Y H Y } } NXUXUXpX8 l C u :X:X&XoX.X}.<X,X",
"N.S.-.4.4.4.2.2.2.>.>.$.D.D.N.M.c.c.e.k.l.h.JXUXPXeXO : O - - * * & hXUXUXrX2 b 2 n _ ] ` ` ` CXUXUX(   H T F F P 2 | PXUXVXg A C y *X%X#XXXXX X2X1X3X",
"S.F.5.4.3.2.8.2.3.>.Z.A.D.M.z.c.V.e.w.k.s.$XUXUXmXO : : - - - * * & VXUXLXb ) [ ) ) _ ) ` ` | UXUXVXF F H W Y P U U gXPXPXiX5 A m 0 +X#X.X].[.).<X3Xm.",
"-.A.4.4.2.8.8.4.4.5.@.%.m.c.c.e.p.k.s.g.o zXUXUXuXO : : - - = = * & FXUXVXR 2 _ ` 2 2 < 2 2 sXUXUXdX> F Y ) ) E J I VXUXIXeX7 p :X-X%Xd..X_.).<XN.m.D.",
"$.4.6.2.<.<.6.4.=.O.Z.A.M.v.i.p.p.k.s.d.j.FXUXLXw @ - ; * = % J & & FXUXFXY R W ) W T H H H HXUXUX} T W 2 [ n U J ~ PXUXBXs 0 w :X-X!.k.'. XC.v.m.S.A.",
"4.4.2.<.<.:.4.$.-.A.z.m.<X2X).[.u.g.d.+ 0XPXUXbXO ; ; - - = % & & # hXUXUXtX> U W W Y F   hXUXUXNX) [ _ [ [ U ! < fXUXUXgXd &Xq &X^.].}.}.<X3XM.S.%.$.",
"6.6.<.<.<.6.5.-.%.S.M.v.<X).)._.`.d.d.o zXUXUXyX: ; ; - % % I & L # tXUXUXLX(   H T H F iXUXPXIXW _ [ [ [ [ k n g FXUXIX>Xd :Xf.#Xh.`.[.i.v.4Xx.S.-.4.",
":.<.<.<.6.5.-.D.N.m.B.n./.}._.h.#XOXOXf.FXUXLX~ ; ; Q I % I I & & & # hXUXUXPXhX( / tXVXUXUXUXtXT [ [ [ [ { v g sXUXUXbX5 *X=X&X^.'.)./.v.B.N.m.$.4.3.",
"<.<.<.2.3.$.-.D.m.M.n.). X].`.h.f.@X0 >XUXUXbXX Q Q Q * % I K K L L F F hXUXUXUXUXUXUXUXUXPXtXG k [ [ ] { v B 6 mXUXUXeX+ *X;XoXoX[.C.n.M.3XD.-.$.3.6.",
"<.2.2.4.$.-.*.m.v.V.a.)..X!.#XOX@X@X0 bXUXUXrX6 Q J Q I K I F L L F F F F iXFXUXUXUXUXPXbX( K ^ b v v ] v v 7 rXUXUXDX+ @X^.+X`..Xa.<X3XD.S.A.$.3.:.<.",
"<.6.4.$.$.A.m.3Xn.2X}..XXX!.@X@Xq w &XLXUXPXg 8 Q ~ J I L K F L L L L F F # L tXiXiXtX^ R R ^ b v D z z B A r FXUXUXwXV =XQ.k.{. X<Xn.N.m.S.A.3.6.:.,.",
"6.4.4.$.A.m.3X<X2X)..XXX!.*X&Xy @X5 rXUXUXgX7 ! ! J I K L P P P L L L L F L L # # # # J k n D v z l 6 8 p s NXUXUXmX%X^.oX'._. X2Xc.z.F.A.Z.5.6.:.,.<.",
"5.5.-.-.S.B.n.a.[.].`.#X+X:X:XM i 7 NXUXUXsXj h J J P L F F L P L K K K & I L I I J = U 8 n v x l Q X ; X gXPXUXKX$Xj.U.oX|. X2XB.M.M.A.$.5.6.2.<.<.8.",
"4.A.S.D.B.v./.[._.U.#X+X&Xm m C A C IXUXFX, < ! U P P P F ~ I K K K K I I I & Q % % Q Q h D x B 9 6 X O uXUXUXUXyXo d.].|.6X X4Xx.m.A.$.$.3.2.<.,.8.6.",
"-.-.S.m.<X/.{.XXY.%X+X%XC :XB B c sXUXUXhXJ U U U P P P # dXFXL # J I I % I = I Q = Q Q 8 9 a a p 6 X iXUXUXIXgXE.#X]. X X2Xn.B.x.x.O.$.3.6.<.,.8.6.5.",
"D.S.m.<XC.{.XXY.@X@X*XV C S N D c NXUXUX/ J U G Y Y H P P VXUXFX~ $ % Q J = % = = - ; Q 6 w 6 w X $XmXUXUXIXcXU.#X`..X X2XV.c.B.A.O.#.4.2.8.<.<.2.4.-.",
"S.m.n./.[.`.!.&X0 q i r M B z x { PXUXVXY Y Y Y T Y G P ~ UXUXUXUXiXQ $ - = - = Q : ; X @ X O @ uXPXUXUXUXaXR.g.g.u. X6X<Xc.M.M.A.$.3.2.8.<.<.2.4.4.$.",
"N.n.<X[.`.#X&X*X+Xy r 9 l n j 1 sXUXUXhXG Y H Y R W Y G dXUXUXUXUXUXFXiX~ - . X X . X X ~ eXfXKXUXUXUXFXwXQ.Y.g.k./.(.4XN.x.S.S.@.3.2.:.<.<.2.4.4.-.%.",
"B.2X}.`.+X&X&X*Xe a 9 z z b k < CXUXPX/ T Y Y Y R } W T FXUXLXhXPXUXUXUXUXFXbXvXiXvXvXmXLXUXUXUXUXLXzXd.+ .X}.y.a.2X4X3Xm.m.D.5.4.3.8.<.<.6.4.4.-.%.N.",
"<Xa.'.!.@X&Xi e p 8 l j < < G / UXUXCX2 E R E W W | 2 rXUXUXbX$ ~ vXLXUXUXUXUXUXUXUXUXUXUXUXUXLXzX$X+ j.0.'.'.i.i.<X3XL.3X8X-.4.6.8.8.<.6.4.4.=.%.M.v.",
"a.{.Q.E.&Xy i l 9 h k b E R G iXUXUXgX2 ) 2 2 n n [ 1 gXUXUXtXQ ; - ~ uXvXFXLXLXUXUXPXPXVXvXyXf.o g.l.u.].{.p.e.V.N.3X*.-.-.7.4.2.<.<.2.5.5.=.%.N.M.C.",
"#X!.E.t y r g j h h E W E ^ U BXUXPX| ) [ [ 2 k b j n FXUXIX~ X Q X X X O @ G.eXyX$X$X$XOXo o s.g.#X.X'.6XC.V.V.B.L.L.%.-.4.4.2.<.<.8.6.5.7.O.S.N.<Xu.",
"].^.*Xy a l g h U E 2 b h U / UXUXBX2 n n n z h ! 6 rXLXUXbXX Q @ X @ @ @ @ + + + + +XE.Y.#Xl.h.u.{.'.2X).<XC.M.M.S.*.-.3.3.2.8.<.<.4.4.#.-.N.B.<X}.].",
"+X%Xi e 9 j b 2 < 2 [ ^ j , gXUXPXgX1 v c x z 8 Q . fXUXUXrXX @ @ w w 0 @X@ + j.f.#X%X^.Q.U.`.t.t.t.a.2X1X4XB.c.z.$.4.5.3.2.8.,.<.5.4.4.-.*.m.n.<XXXXX",
"*Xy r l 8 ^ < 2 2 b k k 8 8 BXUXPXj j x x x B 6 6 6 FXUXKXw @ @ @ @ q %X@XOXf.f.h.Y.Q..X.X'.p.k.w.e.v.<X4X3Xx.Z.-.=.4.4.2.8.,.<.>.3.$.$.A.M.n.5X].Y.+X",
"i e 9 h R E W < b ^ z B 7 rXUXUXbX7 B B r B N a X eXUXUXbXX @ @ + + @X&X%X#X#Xh.h.0.`.'. X}.p.e.w.e.v.3X3X3XS.-.-.4.4.2.2.<.<.2.3.5.-.S.z.3X/.{.XX@X@X",
"r B n ^ ^ W E ^ h z l a 5 fXUXUXuX7 N r w w i C 5 vXUXUXuX@ @ + f.f.+X!.~.Q.U.h.k.k.t.a.).).C.e.c.v.B.X.*.S.-.$.5.3.2.2.8.8.2.6.3.$.%.D.B./.}.`.@X@Xq ",
"g n ^ [ W W 1 j l M a e e FXUXLXy e r y @ w y -Xd GXUXKX&Xf.f.+ j.f.#X!.oX.X`.k.k.k.t.y.<X2X<Xn.v.N.D.S.A.A.#.@.>.:.8.8.8.2.6.4.=.%.N.n.n.[.].&X&Xq M ",
"8 U W } W ^ n x g m V d >XPXUXmX0 w 0 *X@Xq &XW.wXPXUXMX0 f.f.OX#Xh.#X#X].XX{.p.k.k.e.V.<X4X4X3X3X%.S.Z.Z.@.4.3.6.<.<.<.6.6.5.$.-.N.B.2X)._.#X&Xt r B ",
"^ R W W ^ z 8 M V d t 3 wXUXIXgX3 f.+XE.%XW.:X3 cXUXUXwXU.OXh.Y.].l.g.l.{.}.}.u.p.V.c.V.N.3X3XD.*.&.O.@.3.3.3.2.8.<.2.6.6.5.5.O.*.B.v.[._.Y.@Xy V 8 ! ",
"R W W ^ n x r i i q j.o >XUXUXcX4 ~.~.U.d.Y.Q.#XHXUXKXh.Y.Q.'.oX.Xl.k.w.p.[.2X<XC.V.c.M.N.3X*.*.*.=.#.#.3.6.:.<.,.<.2.4.4.4.S.S.3Xn.p._.Y.E.%Xm N 8 U ",
"} W ^ n B r i t W.OXh.U.>XUXUXDXT.oX^.`.h.Q.I.cXUXUXzXs.u._.'.|..Xu.w.w.i.n.2X<Xn.M.M.M.*.D.&.&.7.=.4.4.3.:.<.<.<.6.4.4.4.S.%.3X<Xa.u.XX#XW.V Z h 8 U ",
"W W b c N u 0 OX^.#XQ..XT.mXUXUXcX_.I.I.I.|.cXIXUXIXXXt._.t.w._. X).i.V.v.<X3X3X3XD.D.*.*.&.-.-.4.5.3.3.>.<.<.<.2.3.4.5.Z.A.M.V.a.u.`.!.0 y m z j R W ",
"k v c N i d +X`.Q.`.u.'._.qXUXUXUXJXcXkXcXDXUXUXUXwX). X).y.e.a.2X2X<Xn.N.3XL.8X*.*.*.%.F.$.4.4.4.6.6.6.<.<.<.2.6.4.@.Z.A.m.c.C.{.].Q.-Xu r l h 2 ) W ",
"k z N C W.W.Y.'.'.y.y.a./.(.qXPXUXUXUXUXIXUXUXPXkX|.6X). X/.i.v.n.<X1X3XN.3XL.D.*.&.-.5.@.@.3.3.6.6.6.<.<.<.8.6.4.=.-.A.m.B.[.}.].].+XV m 9 h k W W < ",
"v A y d E.Y.'._.).r.(./.(.K...5XZXKXPXUXUXIXAXqXK. X2X(.1X2X<Xn.c.v.3Xm.z.S.*.*.&.-.-.Z.@.3.>.>.8.6.8.<.<.2.6.3.4.-.A.z.x.2X7XXX`.&X%Xw Z z ^ E T 2 k ",
"l d d !.;X'.[./.,X).(.b.,Xv.N.z...8XqXwX0X7X(.(. X Xi.i.<X2X4X<Xc.x.D.S.z.Z.S.-.*.-.5.5.5.3.>.:.<.:.<.:.8.6.3.4.-.A.x.x.v. XoXXX^.q 0 a D b W W W h 8 ",
"r u =X;X|.).(.(.L.L.X.L...m.X.X.v.c.x.r.(./.a.}.[.5Xa.i.c.<X4X3XB.m.D.D.A.Z.A.-.5.5.4.5.>.2.<.,.,.<.:.6.3.3.@.$.D.m.B.v.i.'.].^.*Xy N z n E W ) U h l ",
"d d oX|.).r.B.L.L.b.X.P.&.*.X.b.r.n.C.[.2X/./.[.p.a.i.n.n.3X4X3X3XD.-.S.F.A.5.4.4.3.5.3.:.<.,.,.<.2.2.6.4.3.Z.S.3X3X1XC.u.'.#X^.q m 9 h n } W 2 < x N "
};
