/* XPM */
static char *result[] = {
/* columns rows colors chars-per-pixel */
"75 75 255 2 ",
"   c #D97B3E",
".  c #BE7C5B",
"X  c #BB796A",
"o  c #AF6C75",
"O  c #AA767A",
"+  c #B87777",
"@  c #BB7B73",
"#  c #B47A7B",
"$  c #D67C49",
"%  c #C87552",
"&  c #C97A5B",
"*  c #D37E57",
"=  c #C67767",
"-  c #CA7B63",
";  c #CB7966",
":  c #C47A6B",
">  c #BB905A",
",  c #BDA85A",
"<  c #B2B459",
"1  c #BAB65B",
"2  c #BCBB5B",
"3  c #938D7E",
"4  c #9A9A79",
"5  c #BA866B",
"6  c #BC8B6C",
"7  c #AC906B",
"8  c #BA9768",
"9  c #B49B6D",
"0  c #AA867A",
"q  c #AB8C7C",
"w  c #B68476",
"e  c #B48C73",
"r  c #AD9576",
"t  c #A09E71",
"y  c #AC9C75",
"u  c #A5957E",
"i  c #AA947B",
"p  c #A59B7D",
"a  c #A99B7A",
"s  c #B49373",
"d  c #B29B72",
"f  c #9BA97B",
"g  c #9CB67A",
"h  c #AAA96B",
"j  c #BBA364",
"k  c #B7A967",
"l  c #BBAB64",
"z  c #B4A36C",
"x  c #B3AC6B",
"c  c #ACB46D",
"v  c #A8B869",
"b  c #ACBC6C",
"n  c #B4B464",
"m  c #BBB364",
"M  c #B6BB65",
"N  c #B1B26B",
"B  c #A6A477",
"V  c #ABA374",
"C  c #A6AB75",
"Z  c #ABAB72",
"A  c #A4A37B",
"S  c #A3AC7B",
"D  c #B3A774",
"F  c #A5B374",
"G  c #A6B575",
"H  c #B6B575",
"J  c #CD8549",
"K  c #DB844D",
"L  c #D6894C",
"P  c #CB974B",
"I  c #D3954E",
"U  c #CD815B",
"Y  c #C98959",
"T  c #D48454",
"R  c #D68757",
"E  c #D98552",
"W  c #C8985A",
"Q  c #D19653",
"!  c #C6A84C",
"~  c #C6A758",
"^  c #C3AB5B",
"/  c #C4B255",
"(  c #C4B55A",
")  c #C48667",
"_  c #CB8363",
"`  c #D18F6C",
"'  c #C49663",
"]  c #E29F70",
"[  c #C3A664",
"{  c #C4B765",
"}  c #D2A874",
"|  c #B9C45B",
" . c #B2CD5B",
".. c #B4CB5C",
"X. c #9DC075",
"o. c #ACC468",
"O. c #B4C664",
"+. c #AFC476",
"@. c #C4C25A",
"#. c #C5C571",
"$. c #7B76A8",
"%. c #7E7BAC",
"&. c #7D6DB6",
"*. c #7666B8",
"=. c #7B65BD",
"-. c #716CB9",
";. c #756CBD",
":. c #7B6CBB",
">. c #7D75B5",
",. c #7578B6",
"<. c #7D7BB3",
"1. c #7672BC",
"2. c #7A73BB",
"3. c #6D5ECE",
"4. c #735EC8",
"5. c #675BD4",
"6. c #6A5DD2",
"7. c #6E6AC5",
"8. c #6E63CC",
"9. c #7465C5",
"0. c #7867C2",
"q. c #746BC3",
"w. c #7164C9",
"e. c #7974C7",
"r. c #6B60D0",
"t. c #786CD5",
"y. c #9D798A",
"u. c #936A94",
"i. c #996C97",
"p. c #9A6D9A",
"a. c #8C7A9C",
"s. c #9C7394",
"d. c #967997",
"f. c #9B7C94",
"g. c #94749D",
"h. c #9A739A",
"j. c #937C9C",
"k. c #A56D8E",
"l. c #A97786",
"z. c #AB7B84",
"x. c #A5738D",
"c. c #A37C8C",
"v. c #B27583",
"b. c #A47691",
"n. c #886CAA",
"m. c #8B6CAB",
"M. c #926DA3",
"N. c #8C74A5",
"B. c #857DA5",
"V. c #8C7CA4",
"C. c #8574AD",
"Z. c #8974AA",
"A. c #847CAC",
"S. c #8A79A8",
"D. c #9372A2",
"F. c #937BA2",
"G. c #8466B5",
"H. c #836BB3",
"J. c #8274B3",
"K. c #817AB1",
"L. c #8979BC",
"P. c #8477C5",
"I. c #7F8A98",
"U. c #7C84AA",
"Y. c #7384B2",
"T. c #9D848D",
"R. c #958989",
"E. c #9C8C8C",
"W. c #8D948B",
"Q. c #969583",
"!. c #9D9486",
"~. c #9D9C85",
"^. c #95948D",
"/. c #9B938B",
"(. c #949C8C",
"). c #9B9A8A",
"_. c #8D849D",
"`. c #89899A",
"'. c #8C8B9C",
"]. c #958595",
"[. c #9A8492",
"{. c #948C94",
"}. c #998B92",
"|. c #92839A",
" X c #9A859A",
".X c #928A99",
"XX c #8D9395",
"oX c #8B9996",
"OX c #8B929C",
"+X c #939393",
"@X c #989495",
"#X c #939A92",
"$X c #A48585",
"%X c #AB8382",
"&X c #A48D84",
"*X c #AB8B82",
"=X c #A2848B",
"-X c #A28B89",
";X c #A39383",
":X c #A49487",
">X c #A29B82",
",X c #AE8F92",
"<X c #97A787",
"1X c #9CA483",
"2X c #92A98D",
"3X c #A5A785",
"4X c #B2AF90",
"5X c #8484A4",
"6X c #8B83A3",
"7X c #858BA3",
"8X c #898BA1",
"9X c #8483AA",
"0X c #8986AB",
"qX c #998BA7",
"wX c #8892A6",
"eX c #9694A6",
"rX c #8987B7",
"tX c #9590B7",
"yX c #AB90AB",
"uX c #B5B2B1",
"iX c #CD948C",
"pX c #D2AA92",
"aX c #D8A89A",
"sX c #C8A6A9",
"dX c #D0B2B2",
"fX c #E4BDB2",
"gX c #B7C78F",
"hX c #B9C2A9",
"jX c #CCCC92",
"kX c #D0CDB1",
"lX c #E5C7AA",
"zX c #E6C5B6",
"xX c #DDE9B4",
"cX c #E3E0B6",
"vX c #9895C7",
"bX c #AB9CC7",
"nX c #BDBACF",
"mX c #DBBDC5",
"MX c #D3CECE",
"NX c #E8D6CB",
"BX c #EDD6D0",
"VX c #E8D7D7",
"CX c #DCE1D3",
"ZX c #EEE8D3",
"AX c #E9E9D9",
"SX c #D7D4E5",
"DX c #E5DDE5",
"FX c #EBE7E7",
"GX c #F4EBE8",
"HX c #F4F5EB",
"JX c #F0EDF0",
"KX c #F5F3F4",
"LX c #F8F5F4",
"PX c #FAFAF5",
"IX c #FFFEFE",
/* pixels */
",X).yXeXeX0XrXrXrXL.L.Y.vXwXwXwX8XeXqXeXeX@XqXeXqXqXqXF.qXrXrXrXL.rXrXP.P.P.P.0.P.t.t.t.t.t.t.t.t.e.e.e.P.vX>.rXtXeXqXeX#X2X4X4X4XH D #.{ #.{ H H S 4X",
"$X+X`.`.B.$.$.,.&.*.-.,.,.$.U.7X`.`.j.`..Xf.i.|.`.j.N.D.B.C.A.A.G.&.1.=.=.=.4.4.3.6.3.5.5.5.5.3.8.7.q.q.:.H.H.9X5Xg.d.+X#X).!.<XF c M O...| < v c a f ",
"^.]._.B.C.H.*.1.*.-.Y.,.%.B.6X7X_..X.X{.].|.|.XX_.g.V.N.S.n.J.>.H.:.1.q.q.7.w.3.r.6.5.5.5.6.4.8.q.q.e.1.H.G.M.0XF.h.].[.z.%Xq G G M O.......c 6 A p z.",
"].`.M.n.$.=.=.-.-.Y.Y.<.7X`.a._.].XXXX].].].'.'._.j.V.N.C.C.K.&.2.1.q.q.7.w.8.r.r.5.6.6.3.3.8.q.q.1.1.<.J.m.F.8X`..X{.c.&X*XS C b o... .( l o.y p ~.E.",
"_.a.n.$.,.=.*.7.-.Y.U.%.7X`.j.XX].+X+XXX[.[.d. X_.j.N.N.C.A.K.&.:.q.q.9.w.w.6.6.5.6.r.r.8.w.q.q.,.>.>.<.K.S.8XwXOX+Xc.z.1X3XG ) N O./ ..W z X.g 1XE.#X",
"_.S.n.,.&.4.7.-.,.U.%.5X`._.].].T.#X#X#X{.[..X.X'.V.V.S.H.K.J.2.:.q.9.0.w.6.6.6.6.6.w.w.w.9.q.1.2.L.K.J.m.N.8XOXOX+Xc.$X1XS ' 8 o., , o.z V i f <X^._.",
"B.n.G.&.*.9.7.;.,.%.5X`.`.{.^.T.^.(.#XE.^.].[.{.].h.V.N.C.K.K.:.q.0.q.w.w.6.6.6.r.9.9.0.9.=.=.>.H.H.C.n.M.D.`.OXoXE.l.%X3XD ) b o.| m b v a t <X(.XX`.",
"B.H.*.*.-.w.-.&.$.5X`.XXoX^.E.E./.!.)./.^./.[.[.|.6XF.Z.A.A.>.:.:.q.q.w.w.8.6.8.7.q.q.q.;.=.2.>.m.m.Z.S.D.j.'.XX#XE.v.w S G G N , n ' v g f 2X2XoXoX_.",
"%.$.,.-.7.-.,.%.5X_.].XX^.E.!.Q.:X:X>X<X/.T.}.}..X|.N.S.S.J.=.:.q.q.7.w.8.3.4.w.9.q.:.q.=.2.<.<.J.S.9X7X7X'..Xf.E./.0 a G G b ' W k z V r 3X<X2XoX`.a.",
"C.,.1.-.-.Y.Y.5X`.|.].}.!.!.;X>X;X:X:X;X!.E.}.[. Xj.V.S.Z.K.>.:.0.q.7.8.8.3.w.9.q.q.G.:.*.&.<.<.A.A.9X7X8XOX{.E./.1X1XS S +.b j k c G y >X;X<XI.oX`.5X",
"%.,.,.-.,.,.%.`.`.^./.!.;X;Xp p p p u ~.).!.}.}.].|.a.N.C.K.,.2.q.q.7.8.7.7.7.q.q.J.H.:.G.n.<.A.S.m.V.'.OXXX@X@X(.<Xp e V c j n o.G G A 1X).^.oX`.B.%.",
"%.Y.,.2.&.5X_..XW.^.!.&Xq u p A A a u ;X;X&X/.^..X|.F.N.S.<.>.G.:.w.7.7.q.q.;.e.:.*.*.*.*.n.C.9XV.M.V.8X|.{.b.%X&X1Xq w V 8 U N X.g S >X;X<X+XoX`.N.S.",
"U.Y.,.$.B.a.j.R.E.;X>X*Xa a a A A a a p ;X&XE.^.}.].F.V.S.J.>.=.0.q.7.q.q.-.7.q.L.vXvXbXvXtXL.B.a.a.6X_.f.y.c.z.;Xf A C 9 _ 6 h X.g 3X>X!.R.R.oX`._.U.",
"%.<.K.A.a.].{.R.&X*X3X>Xa A a V B a a p >X;X~.^.+X].j.F.S.n.H.,.1.:.7.*.-.vXnXSXKXIXIXIXIXIXJXDXnXeXa.s.b.}.).).1X<Xg G 9 8 h v g g g <X<X#X{.|.`.U.U.",
"U.U.S.a.|.f.^.!.;Xu A V B B y r y y i i 3X~.<X/.+X].g.V.V.S.H.>.:.=.*.vXSXIXIXIXIXLXKXKXKXIXIXIXIXKXMXXXT.<X<X<X1Xp S C Z c v g g g <X<X(.#XXX`.`.5X`.",
"U.5X8X].f.=X/.;Xu u :Xy y y V r a B a p f !.!.^.+X'.j.p.N.9XA.<.*.L.SXPXIXIXDXnXvXtX0X0XS.tXuXnXJXIXIXJXyXR.2X~.q a C 6 9 b G C f f 4 <X<X^.R.oXOXOX7X",
"`.'.XXXXE.!.Q.;Xu a a r r d V V a r i >X3X!.=XT.{.XX'.6XD.S.U.Y.vXJXIXIXSXtXn.$.$.B.V.V.M.a.a.`..XnXHXIXIXuX<Xu u g F 5 9 z d a A p u $X(.E.^.oXXX|.`.",
"`.XX+X#XE.!.;X;Xu a q r y y V B y i i q !.;X=Xc.}.#X'.'.6X6XU.tXJXIXLXbXn.n.n.Z.V.6X_.6Xg.i.d.OX{.].,XDXIXIXhX4 a f g v V s e w A u 1XQ.<X(.W.#X{.|.`.",
"].R.^.!.!.;X;Xu A a e r V a y V V a q *X:X!.E.T.[.].'.'.8X`.wXKXIXJXqX$.V.7X5XV.7X'.'.OX`.|.j.].[.@XR.T.FXIXKX4Xi r 9 X.G C a r p 0 f ~.~.<X^.E.+X].W.",
"E.E.T.!.!.&X;Xu u p i a a A a a A >X*X;X-X).(.+X{.f.h.|.OXU.SXIXLXF.n.wX6X_.OX`.j._.d.`.XXs.f.+X].#XE.Q.<XJXIXCXf C F v V V S g A S <X1X1XQ.(.).).^.^.",
"E.E.=X-X:X;X~.>Xp p i q i A A p 3X>X3X).(./.#X#X+X[.p.s.a.uXIXIXnXU.g.6X`.p.6XOXu.a.qXyXOXs.k.^.2X(.-X:X4 uXIXPXgXF G Z e e y G g g g 1Xf ~.~.~.;X/.^.",
"$X!.!.;X:X;X!.>X>Xu u u u i p 3X~.~.!.)././.E.@XoX+Xf.p.u.FXIXSXI.I.OX'.oXa.h.`.uXFXIXIXJXMX}.^.2X/.!.<X1X*XFXIXkX7 d F Z G G g r e t f f f i p 1X!.T.",
"$X!.!.&X&X;X&X&X;X;X*Xu *X*X>X).~.).).(./.[.c.b.}.#XW.d.yXIXIXyX_.].`.oXoXoXXXMXIXIXIXIXIXIXFX,X$X$Xz.<XA O zXIXNXX d c C B C G y e a G r y A i ;X!.c.",
"!./.!.-X:X&X!.&X&X!.&X&X&X;X;X).)./.).@X@X=Xc.b.c.{.oXW.nXIXDXi.s.s.s.+XoXR.MXIXIXMXuX2XdXLXIXVXl.~.>Xp >X4 kXIXZX7 D G Z ) e G G G G G d y S i !.&X0 ",
"!.!.;X:X:X/.E.-X!.!.!./.!././.@X/./.+X^.^.}.c.b.b.b.}.W.SXIXMXu.k.f.k.k.(.=XJXIXCXR.Q.^.3 uXPXIXsX4 <Xi v.7 kXIXAXh 9 d N ) 6 G c h N D G d r p 1X;X;X",
"!.!.E.E.E.E.T.E.T.E./././.+X@X+X}. X[.{.XX+X[.k.x.x.T.(.FXIXdXR.=XE.=Xx.$X).KXIX2X2X<Xv.z.4 CXIXGX3Xg f 7 a KXIXkXv 9 h c 6 ) z 9 ' x ' 8 d a A ~.~.~.",
";X!.E.E./.^.E.}.}.}.}.@X+X+XXX{.f.f.f.f.].{.+XT.x.x.c.E.GXIXsXy.).).<X&X=X<XJXIXdXf <X&X# q 4XPXIXAXgX4XhXAXIXPX+.c v v v x ) _ 8 M M x 8 B a u u ;X:X",
"-XE.E.T.].{.{. X.X.X{.OX.X'.'._.j.h.h.s.s.[.+X+XT.c.c.x.DXIXsXk.1X<X<X<X1Xf CXIXCX4 ;X;X>XA 0 uXIXIXIXIXIXIXPXjX8 8 N o.o.o.m ' n m l o.D d a u u &X$X",
"/.^.}.[.]..Xj.j..X|..X8X'.8X8X8Xa.g.p.p.p.s.[.^.^.!.E.l.VXLXmXo q <X<Xg <Xg uXPXIX4Xo + a g C 4 4XBXKXIXLXNXiXj _ - j o.o.< m O.O.n l 8 Z C i u ;X;X-X",
"E.+X{.f._.|. XF.6XV.V.6X6X5X5X7X6XF.p.p.i.s.s.}.#X(./.O dXIXDXo w A f A S g A ZXIXAXe : @ y Z F B 5 ' 4XD X > n ` ' n o.o.W R 1 ~ n b 9 s V p u &X;X:X",
"=X].].|._.6X6X6XD.Z.Z.A.9XA.B.9X5XV.D.p.p.i.k.[.(.<X(.O iXIXIXiXo q A r e a F 4XIXIXkX7 w 5 : y G G c v o.c o.o.M l W ~ | ~ / 1 W n o.h 5 r u ;X:X)./.",
"]..X|.V.V.V.V.S.J.Z.C.K.K.H.n.C.A.9X6Xg.p.i.b.f.E.(.).;Xl.DXIXNXX : 6 e X : 9 h kXIXIXkXh 6 = 5 8 6 x +.o.o.o.o.O.W * Q | ....O.j c 8 s e i 1X&X!./.}.",
"{._.V.S.B.S.Z.K.>.>.,.,.G.G.G.G.J.A.0X6Xj.h.s.y.=X-X:X>X0 sXIXIXiX= = : : = = s v NXPXIXjX9 _ ) ) ; - l o.o.M o...~ I / ....2 ' ' 8 X r y a >X3XE.E.[.",
"|.6XV.A.C.K.J.>.2.2.2.,.G.G.G.G.m.Z.7XwX`.|.f.c.b.v.z.q 0 @ DXIXVX= = = : = ; ; 9 v AXPXPXpX8 N 8 & _ ' O.^ ^ ......@./ ( | Y ' ' z h G y :X:X-XE.[.d.",
"V.V.S.C.J.L.>.:.=.;.q.e.0.G.G.G.m.m.8X8XOX.Xf.c.v.v.v.v.w X iXLXLXfX% ; _ - ; ; ' v o.HXIXKXH o.M ' W { M ~ @. . . .! K W m [ [ ) 5 C S 3X3X*X}.+X]._.",
"6XS.K.K.=.;.;.0.4.9.7.q.2.:.G.m.m.D.F..X@X}.c.l.v.v.+ + @ @ X fXIXIXiX; _ ' ` ; ) < o.+.HXIXHXO.< l ~ { | | | ( @. .! E ^ o.b ' 6 d e p ;X:X-X}.]..XV.",
"0XS.J.:.=.q.q.w.4.w.9.;.2.K.K.S.M.M.p.f.}.}.=Xl.v.v.: + + : : ; BXIXLX` Y [ [ ` W [ o. .#.PXIXZX, Y E Q / | P L Q ( O.( , N b 6 Z S a 1X>X).#X+X.X6X5X",
"K.J.J.q.;.7.7.8.8.4.0.=.K.K.A.N.M.p.p.b.c.T.$Xz.v.+ v.: : : = ; ` LXIXZXY , M m m n O.O. .jXIXIXlXK K K Q ! L K R ( O.M j k x G S i >X*X=X/.@XOX8X7XS.",
"J.J.q.0.8.8.8.8.w.4.=.H.K.Z.m.M.D.p.p.k.x.l.v.v.v.o : : : = - ; & iXIXIXcX, O.O.O.....|  . .xXIXPX] K K I / Q R Q W m +.k : d G B w &X%X#X}.].6X6X9XC.",
"J.2.0.7.8.r.r.q.0.0.&.J.J.M.M.p.p.b.k.x.l.v.v.v.+ v.: : = - - & * $ aXIXIXlX< ..O.2 1 / 1 | ..ZXIXZXL L Q | ..^ Y U [ b z 5 a r 3X<X/.l.+X X'.V.A.A.K.",
"e.0.9.8.6.6.8.q.2.G.G.J.S.V.g.h.h.b.k.l.l.v.O + @ X : : = ; - & * * $ fXIXIXjX1 | / ! I I I ! #.IXIXjX/ @.O.M W _ ' ' D F S e w 3X<X/.c..X'.V.V.C.J.J.",
"0.9.8.6.6.3.q.:.2.H.H.Z.B.6X`.|.f.c.x.l.# # v.+ @ @ : : - & - * * * * * BXIXHX] ! / I L K K K P cXIXHX..O.O.W ' l ) ; 6 G S u *X,X).{.{.`.6XV.S.K.H.:.",
"w.8.6.6.6.9.q.2.>.J.C.N.6X`..X}.f.c.l.O o o X X X : ) ; - * _ * * E * $ E GXIXGXI ! I L K K E Q { PXIXjXO.O.k b c 6 5 d f 3X1X%X$Xc. X Xj.N.0Xm.>.:.q.",
"w.6.6.6.w.0.2.K.<.C.N.V.'..X].f.=Xz.%XsXkXNXMXiX: : ) - & U * T E E K K   ] LXIXcXP I L K E E R ~ cXIXZXo.+.o.c z d V a q ).3X:X(.{.].8XF.S.A.J.:.q.9.",
"6.6.6.w.9.:.J.K.C.N.N.'.OX+X[.c.z.,XFXIXIXPXIXIXBX` - - & T T T E E K K K   lXPXPX] P Q T E R W , jXIXPX+.o.c 6 @ e y # # ~.<X(.#X].F.V.Z.0XK.2.:.9.4.",
"6.r.w.q.q.2.>.A.N.N._..X@X}.=Xl.,XLXIXIXVXNXAXIXIXGX` * R T R E E K K K K K $ ZXIXBXJ W Q Y R [ < +.PXIXjXv d : : w a 0 &X).E.[.OX].6XB.K.C.H.:.9.8.6.",
"r.w.q.q.:.H.K.B.V.'..XOX+X:X-X0 AXIXHX4Xh h 7 pXHXIXzXJ R T R E E ] K K K E K aXIXPX] W [ [ [ m o.v AXIXkXc y w w u 3X1X<X/.x.f.8X6XS.9XC.H.=.q.w.6.6.",
"w.0.:.:.H.J.9X6X'.'.+X}./.3X;X4XIXIX4Xh c c k > lXIXGXR T R L T E E K K E E E E GXIXpXJ [ M H o.N 8 NXIXkXt S a p 3X:X).#X}. X8X6XM.Z.J.H.H.0.w.3.6.5.",
"0.0.H.2.C.S.6Xj.j.].T.=X&X3Xp kXIXHXZ Z x x n W } IXLX` L T T L R E T T T U R * BXIXfX> j N b c z 5 NXIXzX7 <Xg 3X%Xz.-X#XOXOX8XS.S.H.J.:.:.w.8.6.5.8.",
"q.2.2.K.C.F._. X].E.=X*X*X3Xt kXIXAXx x j 8 j > } IXPX] L T L T R * R R * * U * zXIXfX% z H G N 9 X NXIXdX0 1X<X&Xv.l.}.OXOX8X8XS.Z.H.=.=.9.8.6.5.r.w.",
"2.2.K.S.V.6X.X}./.E.;X;X3XS t jXIXAXk 9 ' Y W W } IXPX] T T T R U T U U _ & - & ZXIXfX. 8 D d d s : FXPXdX7 <X<X-X$X[.OX8X8X6XV.m.H.=.=.9.8.r.6.r.w.:.",
"K.J.Z.B.F. X@X/.$X*Xp A C G F gXIXGXk W Y W Q Q } PXPX] J R U R U U U U & _ = ` IXIXpXX ) 5 ) w w *XLXIXuXQ.<X!.=X[.OXXX8XF.M.Z.m.&.1.q.8.r.6.6.w.q.q.",
"J.S.V._.]. X).-X0 q a y V N h jXIXPX[ Q W Q Q P ! GXIXlXJ R R U U U U - - _ . zXIXGX; : # : w @ X sXIXKX3X<X/.c.x.f.'.wX6XM.Z.C.H.:.9.8.r.6.6.8.q.q.:.",
"K.B.6X|.[.-X:X:Xq r y 9 z N n N PXIXjXP Q Q I Q ! lXIXPX} % Y U _ _ - _ = = aXIXIXdXX @ : : + v.o NXIXVX!.#X[.b.s.|.8X7XB.m.L.J.=.0.8.3.6.6.8.7.q.,.J.",
"S.6X.X X=X*X>Xa a r 9 h n k , , ZXIXcX! ~ Q Q Q ! { HXIXPXpXT * & = & . ) fXIXIXVXX X @ : v.+ o ,XLXIXsXy.+X{.f.j.'.7X9XA.K.J.:.q.9.r.6.6.w.q.q.2.J.K.",
"6Xf.+X/.&X>X:Xd 6 9 9 k , ~ ~ > jXIXPX{ ~ / ^ ( @.| #.HXIXIXZXfXpXiXaXfXGXIXIXVX@ @ @ # + # + k.BXIXFXk.b.+X|.d.g.6X9XA.rX<.>.q.w.8.6.6.w.q.e.1.J.C.Z.",
"j.[./.!.u i y z z j j l ^ ~ W W [ HXIXcX< 2 2 2 M O.< H NXIXIXIXIXIXIXIXIXJXdX@ + # w w v.v.o sXIXIXsXy..X Xb.p.D.9X9X<.,.2.e.9.8.6.5.8.9.e.1.>.K.Z.F.",
"f./.).;Xi y Z z j j ^ ( ^ ~ ' ' W jXIXIXjX< n n m k N z > pXzXBXGXKXGXVXfXiXo + # # *X*X*XO ,XLXIXCXd.OX8X6XM.D.S.A.<.<.2.q.7.8.r.5.r.9.0.q.H.J.B.6Xf.",
"/.!.;Xr y x x j W ~ m M [ ' 8 l k n ZXPXHX+.< k ' ) z 8 6 X X X ) w @ + o + # + z.z.;X1XR.,XJXIXFX X.X'.8X6XF.Z.Z.K.,.:.0.9.8.r.5.r.9.;.:.,.J.A.6X.X@X",
"-X;Xa d 9 9 n m 1 1 O.m m 8 k n N m +.HXIXHXpX> 5 ) 6 6 X 5 5 @ # + w 0 # # # z.%X=X-X3 uXJXIXLXyXi.|.8X8X0XS.M.H.>.:.0.9.8.r.6.6.9.q.e.2.K.Z.V.qX@X/.",
">Xq y z 8 ~ , 2 ( m k k 8 8 z h z z z 4XLXIXPXpXX X 5 e @ @ @ + # w q q *X%Xz.c.$XT.R.nXLXIXKXyXu.p.D.5X0X9Xm.G.&.1.q.7.w.r.6.6.4.9.:.:.H.Z.V.6X{.-X-X",
"a y z j [ ~ ^ 1 M l k z 9 9 9 V 9 9 h h 4XJXIXIXNXiXX 0 w w # # # v.&X>X!.-XT.y.y.yXVXIXIXDXyXu.p.p.N.9X9X9XJ.2.2.e.q.w.r.6.r.r.9.0.2.J.Z.6X6X X}.-X%X",
"V h N { ^ / ^ , j x x s s 7 e e 7 V C y 5 s NXIXIXIXMX4X*Xw o o o O 0 3 W.W.-XsXVXIXIXIXMX6Xg.D.D.M.S.K.K.J.,.:.0.w.w.r.6.6.r.7.q.:.>.A.S.V..X=X-X%Xq ",
"h k { M ( 1 m k z V y r r y e e r r r r w # r hXFXIXIXIXLXVXdXsXsXyXuXuXMXDXKXIXIXIXDXyXa.5X6XF.Z.A.<.J.H.=.:.=.4.8.r.r.r.w.w.q.1.H.K.9XV.].}.:X:Xi B ",
"8 W ( ( ( m n x V B B A f p a a i w q ;X*X*X>Xf 1XuXCXPXIXIXIXIXIXIXIXIXIXIXIXKXSXyXi.i.6X0X0X9XK.<.J.G.=.=.9.w.8.r.6.6.w.w.9.:.,.C.S.6X'. X=X*X;XV Z ",
"[ ~ ( ( [ m 9 V S f i u 1X~.:X1X&X%X;X!.;X~.>X-X;XQ.Q.,XuXMXVXFXKXLXJXFXSXMXuX Xu.i.M.M.V.0X9XU.<.<.=.&.=.0.9.8.r.r.3.w.w.0.0.H.K.B.V.|..XE.&Xu V 8 6 ",
"~ ( ( [ N c y r u q O z.!.!.&X;X!.(.(.T.l.E.^.z.c.T.c.c.R.R.{.#X@Xb.b.s.u.a.`.j.D.M.M.m.9X<.K.>.<.,.e.;.0.w.8.3.5.r.w.7.q.q.J.K.0XF.g.{.E.).u V C 8 W ",
"@.( { N h y a u >X$Xc.T.(./.c.c.^.#X(.T.y.^.#XT.x.T.y.x.[.{.{.XXXXf.p.i.i.6X7X5X6XS.Z.C.<.>.<.,.q.q.q.q.w.3.6.5.r.w.w.q.e.&.>.9X0Xj.f.}.=X~.A V 9 ' W ",
"/ M n v C p 0 $X(.=X+X^.XX+XE.].{.].XXXX+XXXoXXX].OX{.f.f.h.s._.OX8Xj.M.D.5X9XrX9XK.<.K.>.<.,.e.q.9.w.9.4.6.5.6.3.9.0.=.G.H.Z.D.j.f.}.^.%Xi B x n ~ / ",
"^ N b C a f &XE./.].f.].{.].XX`.d.d.|.j.XX`.|.'.oXOXOXXX`.d.i.j.'.8X6X6XB.9XU.9X<.<.>.2.:.:.q.q.q.9.w.9.3.6.5.8.w.q.0.G.H.Z.M.j. X]./.1Xa y x j M | / ",
"l x Z f ~.).E.{.{.f.j.a.|.`.`.7X`.`.a.g.`._.i._.OX8X8X8X8X_.g.F.V.6X9X9XA.9XU.<.<.<.2.:.=.=.4.9.8.w.w.6.6.r.8.w.q.2.2.H.J.S.6X.X}.E.&X3XB 9 j j / ( 1 ",
"v G i f !.E.{.].`.a.`._.`.`.5Xg.B.U.5XV.5X8X`.8X8XOX'.`.7X7X6XV.M.N.9XC.n.J.>.<.<.1.e.&.:.0.4.9.8.w.r.6.r.8.8.9.q.2.J.n.m.8XeX{.T.:X*Xe D x [ ^ ! 1 , ",
"z g p Q.(.#X].a.6X7X5X5X5XB.B.H.C.9X7XF.j.'.'.8XwXOXh.g.6X7X0X6XM.m.A.J.m.G.L.2.:.2.2.0.0.9.8.3.6.6.3.6.8.w.9.;.2.H.m.n.F.OX@X#X).q q d H m { ( / , 8 ",
"y u <X2XoXXX6X7XI.U.B.U.%.C.%.$.S.D.D.6X8X_.j.'.|.|.j.D.M.6X7X0XB.C.K.J.H.G.J.2.:.e.q.w.4.3.3.5.5.6.3.w.9.4.=.&.>.C.A.V.g.{.}.).;Xi C x M ~ / | W z z ",
"f 1X(.oX`.a.N.U.U.A.$.Y.,.<.%.A.N._.j.|.`.|._.|.h.j.F.F.V.9X0X9XrX<.>.H.J.G.q.q.9.9.9.9.w.6.5.5.6.8.w.w.4.=.P.J.9X0X7Xj.d.{.=X/.q A 9 j M | / 2 l h Z "
};
