/* XPM */
static const char *cw__[] = {
/* columns rows colors chars-per-pixel */
"75 75 246 2 ",
"   c #4E006D",
".  c #4C0066",
"X  c #53006D",
"o  c #4E0071",
"O  c #550071",
"+  c #5A0274",
"@  c #5E0A74",
"#  c #5F1072",
"$  c #630A7C",
"%  c #630978",
"&  c #691876",
"*  c #721E74",
"=  c #742D74",
"-  c #7C4E71",
";  c #86376E",
":  c #8F5077",
">  c #91706F",
",  c #AE777E",
"<  c #B27B7B",
"1  c #B77976",
"2  c #AD7071",
"3  c #B16567",
"4  c #C67A67",
"5  c #C8796F",
"6  c #D67D52",
"7  c #BEAA5D",
"8  c #BBBA5C",
"9  c #BDB45C",
"0  c #A7A45E",
"q  c #9B9470",
"w  c #BB896C",
"e  c #B49B6C",
"r  c #BA9769",
"t  c #AD847D",
"y  c #AB8C7C",
"u  c #AF8C77",
"i  c #B38C74",
"p  c #B68475",
"a  c #AD9476",
"s  c #AC9B75",
"d  c #A6957D",
"f  c #AA947B",
"g  c #A59B7D",
"h  c #A99B7A",
"j  c #A19575",
"k  c #B39372",
"l  c #B19B72",
"z  c #B3927A",
"x  c #AA956B",
"c  c #9EAA7D",
"v  c #9CB47C",
"b  c #9DBB78",
"n  c #ADAC6D",
"m  c #AFA46E",
"M  c #BBA364",
"N  c #BBAB63",
"B  c #B3A46B",
"V  c #B2AC6A",
"C  c #B7A966",
"Z  c #ACB46C",
"A  c #ABBB6C",
"S  c #A9B96D",
"D  c #B4B365",
"F  c #BCB364",
"G  c #B3BB64",
"H  c #B6B866",
"J  c #ABA374",
"K  c #A5AC75",
"L  c #AAAB72",
"P  c #A4A37B",
"I  c #A3AB7B",
"U  c #A8A578",
"Y  c #B1A372",
"T  c #A4B474",
"R  c #A3BB72",
"E  c #A6B476",
"W  c #BB805F",
"Q  c #CB8C58",
"!  c #C89959",
"~  c #D48B52",
"^  c #C3AC5B",
"/  c #C5A759",
"(  c #C4B559",
")  c #D3A450",
"_  c #C48767",
"`  c #C49863",
"'  c #C1A764",
"]  c #C0B161",
"[  c #E38B49",
"{  c #B4CC5C",
"}  c #B9C65B",
"|  c #B6D15B",
" . c #ACC468",
".. c #B2C463",
"X. c #B7C664",
"o. c #A8C76E",
"O. c #C3C955",
"+. c #690E83",
"@. c #6D1386",
"#. c #751B8E",
"$. c #782A8D",
"%. c #7E7CAD",
"&. c #7E76AD",
"*. c #7E6EB6",
"=. c #7B65BD",
"-. c #766DBE",
";. c #7B6CBB",
":. c #7967BA",
">. c #7D74B5",
",. c #7D7AB3",
"<. c #7672BC",
"1. c #7A73BA",
"2. c #7678B7",
"3. c #6F76BB",
"4. c #785E8B",
"5. c #6E5ECE",
"6. c #735FC8",
"7. c #675CD5",
"8. c #6A5DD2",
"9. c #6D62CC",
"0. c #6E6AC5",
"q. c #7465C5",
"w. c #746BC3",
"e. c #7163C9",
"r. c #7667C3",
"t. c #6A60D0",
"y. c #7271C1",
"u. c #83289C",
"i. c #9236AB",
"p. c #993CB2",
"a. c #8C31A5",
"s. c #8B5981",
"d. c #9E7D8E",
"f. c #9E6E95",
"g. c #9A6D9A",
"h. c #966D9E",
"j. c #8E7D9E",
"k. c #8E779E",
"l. c #9C7394",
"z. c #9B7B94",
"x. c #95749C",
"c. c #9A739A",
"v. c #937B9C",
"b. c #977C98",
"n. c #916C86",
"m. c #A56B87",
"M. c #AC7583",
"N. c #AA7B84",
"B. c #A4748D",
"V. c #A37B8B",
"C. c #A97A88",
"Z. c #B37682",
"A. c #A37392",
"S. c #A37A91",
"D. c #A36B92",
"F. c #A347BC",
"G. c #866DAD",
"H. c #8B6CAB",
"J. c #8C6AA9",
"K. c #926DA3",
"L. c #8C74A5",
"P. c #857CA6",
"I. c #8B7CA3",
"U. c #8575AD",
"Y. c #8973AA",
"T. c #847BAC",
"R. c #8A7AA9",
"E. c #8676A6",
"W. c #9272A2",
"Q. c #907CA0",
"!. c #8364B4",
"~. c #836BB3",
"^. c #8466B5",
"/. c #8273B2",
"(. c #817AB1",
"). c #8872B0",
"_. c #9E42B7",
"`. c #AB4EC5",
"'. c #A74AC1",
"]. c #B355CE",
"[. c #B95BD3",
"{. c #AF52C9",
"}. c #BF60DA",
"|. c #C364DE",
" X c #CB6CE6",
".X c #CD6EE8",
"XX c #C667E1",
"oX c #CF70EA",
"OX c #D272ED",
"+X c #D576F0",
"@X c #7C83AC",
"#X c #7C88A8",
"$X c #7683B1",
"%X c #7286B0",
"&X c #9D848D",
"*X c #9B8C8C",
"=X c #988C8B",
"-X c #9E9486",
";X c #9D9C85",
":X c #95948D",
">X c #9B938B",
",X c #949B8D",
"<X c #9A9A8A",
"1X c #909C81",
"2X c #8D849D",
"3X c #878C9E",
"4X c #8C8B9C",
"5X c #8B8998",
"6X c #958595",
"7X c #9A8392",
"8X c #948C94",
"9X c #9A8B92",
"0X c #92839A",
"qX c #928A99",
"wX c #998398",
"eX c #8D9395",
"rX c #8C929B",
"tX c #8B9896",
"yX c #939392",
"uX c #929992",
"iX c #989593",
"pX c #8F9E8E",
"aX c #A58485",
"sX c #AA8382",
"dX c #A48D84",
"fX c #AA8C82",
"gX c #A3838A",
"hX c #A58A8A",
"jX c #A39384",
"kX c #A29B82",
"lX c #A49587",
"zX c #A18791",
"xX c #9CA383",
"cX c #97A787",
"vX c #8CA98D",
"bX c #A2A482",
"nX c #A2A488",
"mX c #A0B480",
"MX c #8484A5",
"NX c #8A83A3",
"BX c #858BA3",
"VX c #898BA1",
"CX c #8383AB",
"ZX c #8785A9",
"AX c #8891A1",
"SX c #8982A9",
/* pixels */
"jX<X8X5X3XMX%.%.&.!.>.2.2.@X#XMX2XVX0X4X5X0X0X5X0X2XL.K.E.CXCXT./.>.1.=.;.-.r.q.e.e.e.9.8.7.7.8.9.9.e.w.y.1.>.CXZXNXNX4XuX,XcXxXP L r H ( ( ^ N B K P ",
"V.8X5Xj.MX&.&.>.*.<.<.2.&.@XMXBX3X5Xb.5X5Xb.c.0X3Xj.L.I.R.U.T.(.!.*.1.=.=.w.q.6.6.5.5.8.7.7.8.9.e.e.w.<.1.~.U.ZXNXx.b.yX:X<XkXI E S  .X.| } ..Z T P xX",
"iX6X2XE.&.~.!.<.:.<.3.,.%.E.j.3X2X4X8X8X6X8X0X4X2Xx.I.E.T.H.U.,.>.;.<.w.w.e.e.9.5.8.7.7.7.8.9.9.q.w.<.2.~.!.H.NXQ.c.6X7XC.N.y E T G ..| } ..D w U d N.",
"6X2XK.G.&.=.:.-.-.%X$X%.MX3Xj.5X6XeXyX6X6X6XqX5X0Xj.I.E.U.U.>.>.1.<.w.w.e.9.9.t.8.7.7.8.9.9.9.e.w.1.1.>.~.H.I.VX4X4X8XC.dXjXI L Z  .{ | 9 C o.s g ;X:X",
"0XI.J.&.2.=.:.0.3.%X@XP.BX3Xb.eX6XyXuXyX7X7Xb.b.4Xj.L.E.U.,.>.*.;.w.w.q.e.9.9.8.7.7.9.9.9.e.e.w.1.>.2.,.U.R.VXAXrXeXV.N.xXmXU _ V G ( { ` B b v xX*XuX",
"2XE.G.2.<.6.0.-.2.$XP.BX2X5X8X8X&X,XpXuX8X6X8XqX4Xv.I.E.Y.(./.;.-.w.q.q.e.5.8.7.8.5.e.9.e.q.w.1././.(.U.H.L.VXrXtXyXC.aXxXI w r  .7 9  .V m u cXcX:XqX",
"I.G.!.-.=.q.0.-.>.@XMX2X4X8X8X&X:X>X,X*X=XyX7X6X0Xv.I.Y.U.(.(.;.-.w.w.q.e.t.8.t.9.e.w.q.r.=.;.>.~.H.U.Y.K.x.4XrXtX*XM.t I Y w Z  .} D A o.s d cX,XeX2X",
"E.G.!.-.-.q.-.>.U.MX2XeXtX:X*X*X>X-X<X>X:XyX7XwXqX0XW.E.T.(.>.;.-.w.e.e.9.9.9.9.0.w.w.w.-.:.1.>.G.H.U.R.L.j.4XyXuX*XM.t I E Z D 7 9 ` Z T c cXvXvXtXNX",
"%.>.1.3.w.3.2.@XMX2X0XyX:X*X-X-XjXjXjXcX<X&X9X9XqXv.I.E.Y.(.~.;.w.e.0.e.9.9.5.e.q.w.:.-.;.1.2.,.U.U.CXMXVX3XqXz.:X<Xt h E R S Q ! C B Y f kX-XvXtX5XI.",
"U.>.-.-.-.2.@XMX2X5X6X:X>X-XkXkXjXjXjXjX-X*X=X7X6Xv.I.E.U.(.>.;.w.e.0.e.9.6.e.q.e.-.=.;.;.*.,.,.T.T.MXBX3XrXyX7X>X<XxXI E R A N C Z E s g ;X>XvXtX3XMX",
"%.>.3.<.2.%.P.3XeX8X*X-XdXjXg g g kXjXkX;X-X:X9X6X0XQ.L.U.,.>.<.w.q.9.0.0.e.q.w.-.;.;.^.!.~.,.T.Y.K.I.VXrXeXyX>X<XcXg i J Z M G A R E P xX<X:XtX5Xj.MX",
"%.%X3.<.~.P.2X5XyX:X-XdXfXd g P P h d d jXdX>X=X6X0Xv.L.T.T.>.=.=.q.0.0.w.r.w.<.;.;.*.~.~.G.T.CXR.W.j.3X0X6XV.C.dXxXy p J r _ V o.b I jXdXvXuXtX5XL.E.",
"@X%X2.%.E.k.0X9X*X-XkXd h h h P P h g g kXdX*X:X8X6Xv.I.R.U.>.;.:.w.y.w.w.-.<.;.;.>.>./.U.U.T.R.I.NX2X0Xl.d.gXN.dXxXP K Y _ r n R b v kXdX*X6XeX3XI.#X",
"T.%.&.P.j.0X=X*XaXjXbXg P U s h P h f g kXjX<X>X8X6Xv.I.Y.G./.2.<.:.<.:.;.2.2.*.>.,.,.U.J.Y.CXI.j.3X5Xl.z.9X<XcXcXmXv K e r n T b b cXcX,X,X8X6X3XBX#X",
"@X@XE.2Xb.z.:X-XjXkXg P U U s a s h f f g xX<X>XyX6Xv.I.R.U.~.>.;.;.;.2.2.2.>.~.~.T.U.T.Y.E.BXNX2XqX4X8X6X,XcXcXxXg E L V Z R b b v cXcX,XpXeXeX5XBXMX",
"BXMX2X8X7X&X>XjXdXg h h s s s s s J P P P jX-X:XuX8Xv.K.L.CXT.>.!.*.2.>./.,./.%.T.T.R.MXR.I.NX2XrX0X7XuXB.*XcX;Xy h K w r S E K c c ;X;XcX:X8XeX4X3XBX",
"3X3XeXeX=X>X;XjXf h h a a s J J s a f g xXjXgX&XyXyX4X2XW.R.CX@X,.,.,.U.G.G.G.T.T.P.I.NXW.x.j.5X6X8XwXpX:X<XcXjXd v T w e J l h P g jXaX,X*X:XuX8X5X3X",
"5X8XyX,X*X-XkXjXg f a a s s J U s a y y ;X-XgXV.9XyX4X3XNXNXCX@X@X@X@XH.Y.R.J.Y.MXNXNXNXx.x.x.eX6X8X7X&X:XcXcXkXg I T T e k i p g g xX;XcX,X,XuX8X6X5X",
"6X9X:X>X-XdXdXkXP f y f P s s s U h y fXjX<X=X&X7X6X0X3XVXVXBX#XCXH.CXMXI.BXNXI.VX3X4XrX4X0Xb.8X7XyX=X&X>XcXcXbXd k J R T K s h h t xX;XcXcX:X=XiXyXeX",
"*X*X&X-X-XjXjXd d h f h h U h h P g jXjXjX<X,XyX8Xz.c.0X3XVXVXBXBXK.K.BXNXI.AX3Xv.2Xx.4XtXl.b.yX8X,X*X>XcXsXkXv I K R R J s K b P c v xXxX;X<X<X<X:X=X",
"=X*XgXjXjXjXkXkXg g f y f h P P P ;X;X<X<X>XuXuXuX6Xl.g.0XVXVXBXBXBXh.NXAXc.j.3Xx.b.qX6X8Xz.D.uXvX,XgXdXcXsXg v b T T L i i s v v v v c cXkXkXkX-X>X:X",
"aX-X-XjXjXjXkXkXkXg f f f d g bXkX;X<X<X>X*X*XiXuXyXb.f.c.v.x.4X3X3XrXrX4.$.& @ @ & 4.eXS.z.*X:XcX-X-XcXxXfXf P U k k K K E E T h i P I I c g g xX*XgX",
"aXdX-XdXdXjXdXaXjXjXjXdXfXfXkX;X;X<X<X<X:XgXV.S.9XuXyXwXb.b.g.c.5X0X5X$.O   + % % X X & n.V.V.V.gXaXsXxXc t < p p 5 e T T J K E s i J I a s I f jX-XgX",
"-X-XjXjXjXdX-XdXdX-XdXdXdXjX-X<X<X>X,X,X:X&XS.A.S.9XuXuXyXqXl.D.l.l.& X @ i.].|.|.`.#.X % m.C.C.N.;XkXg g P h k l e L L L w w T R T E E l s U d kXdXaX",
";X-XjXjX-X>X*X*X*X-X-X-X-X>X>X>X>X:XyXuX:X*XS.A.A.V.8XuXyXyX9XA.S.$.X $ ].OXoX.X.XOX X#.X = xXaXZ.kXcXd 1 a T E T Z e e L _ w Z Z B Z V Z l h g ;X-X-X",
"-X-X*X*X-X*X&X*X*X=X>X>X>XiXyX8X9X7X7X8XuXyX7XA.B.B.d.uX=XV.7XiXn.+ + `.OX X X X X XOX[.+ @ 1XkXt g v P i a T R R S e n Z r _ B r r V ` r l h g ;X;X;X",
"jX*X*X*X=X=X9X8X9X9X9XyXyX8X8X8Xb.z.z.z.6XyXyX7XB.B.B.*X*XB.m.jX=   u.OX X X X X X X X.X#.X > v c c v T K K R R Z Z S A A V _ _ r G G V r U h g kXjXdX",
"jX-X*X*X8X8X6X6X6X6X8XyXqX4X5X4Xb.c.c.l.l.7XyXuX&XC.C.C.C.C.Z.s.O + [..X X X X X X X X.Xu.X : h d i J T k w m Z r _ V  . . .D ` D D M A Y s h d dXdXsX",
"-X:X9X7X6X0Xb.b.0X0X4X4X4XVXVXVXj.x.g.g.f.l.7XuX,X>XgXM.M.M.Z.*   a.OX X X X X X X X X X@.O > K a 5 1 J w 4 w B _ _ C  . .D 7 ....D C r L K h d jXjXdX",
":XyX6Xb.0X0Xv.Q.I.I.I.NXNXMXMXMXNXW.h.g.f.f.l.8X,X,X-XN.M.Z.: O $ }..X X X X X X X XOXF.X @ j R K i w L B _ r V ` ` D  ...! Q 8 ! D A e k s g d dXjX<X",
"d.6X0Xv.2XNXNXNXL.Y.Y.R.CXT.R.CXMXI.W.h.g.f.l.7X:XcX<XaX, 1 *   i.OX X X X X X X X.X].$ O ; _ l T S Z A A Z A  .G N ! / } / ^ 9 ! H A m w a g kX;X<X>X",
"7XqX0XI.I.I.R.R.U.U./.,.(.G.G.U.T.CXI.x.g.f.f.z.=X<X;X-Xt : O $ |..X X X X X X XoX].+ O = i 4 4 r r B  . . . . ...! 6 Q } { { G M Z r k i f bXdX-X:X*X",
"0X2XI.I.R.R.U.(.,.>.>.>.~.^.!.^.G.T.ZXNXv.x.l.z.&XhXjXkXy *   p.OX X X X X X X X.X}.% + q M 4 w _ 4 _ C  ...G ..{ ^ ! ( { { 8 ! _ r _ s s h kX;X*X9XwX",
"0XNXI.T.U.(.(.>.1.1.<.1.;.!.!.!.^.U.MXVX4X0Xb.V.B.C.N.f : X @.XX X X X X X X X X XOXu.  - ' _ D r 4 4 ` ..7 7 { { { } ( 8 } Q Q ` B J E h kXfXaX=X7Xb.",
"NXI.T.U./.>.>.;.=.-.w.y.-.^.!.!.J.L.NXAXeX8Xz.B.M.Z.Z.1 & X F.OX X X X X X X X X XOX[.+ @ x F  .G ! ` F X./ 8 { | { / ~ ! 8 ' ' _ w K I P kXdX:XyX6X2X",
"NXR.T./.;.;.-.r.q.q.e.w.<./.^.H.H.W.v.qXyX9XV.C.Z.Z.5 : X @. X X X X X X X X X X X XOXa.  - { ..G 7 / 9 } } O.( O.O./ ~ / ..G ` w k i g kXkX>X9X6X5XI.",
"CXU.(.;.=.w.e.q.e.e.q.w.2.,.T.Y.K.K.c.l.9X=XgXM.Z.1 3 % X '.OX X X X X X X X X X X XoX}.$ O q X./ ~ ~ ~ ^ q : ; ; > V ( M G S r J I h xXkX<XuXyX5XNXMX",
"T.).>.-.w.q.9.9.9.6.r.:.,.T.T.E.K.h.f.A.V.gXgXN., ; +   #..X X X X X X X.X X X X X X XOXp.  = } ! ~ ~ 6 ; O   O o   # > ' B B E E a g aXaX>XuXeXVXBXR.",
")./.;.w.q.9.9.9.9.6.=.~.(.Y.K.K.x.g.f.A.B.N.N., * o @ a.[..X X X X XOX].i.OX X X X X X XXX@.O q ( ~ [ ; o $ p.`.F.u.O O > _ k T P t dXaX,X9X6X4XNXCXU.",
"/.;.w.q.9.t.9.0.w.=.;./.U.K.K.h.c.l.D.B.C.M.Z.=   +.].OX.X X X X X X.X|.+.`.OX X X X X XOX_.  = O.) 3 + + ].OXOXOXOXp.O & w s a bXxX-XC.yX6X2XNXR.U.(.",
";.w.e.9.8.8.9.w.1.;.!.G.U.I.x.c.z.l.B.B.M.Z.: O $ [.OX X X X X X X X X+Xp.@..X X X X X X.XXX+.X 0 O.=   i.OX X X X X X+.X q z < bXcX>XB.8X4XI.R.U./.*.",
"w.q.9.8.7.5.e.1.2.~.^.Y.P.NX5X6Xz.B.B.M.M.< *   _.OX X X X X X X X X X.X[.+ `.OX X X X X XOXa.  > 0 O $ }..X X X X XXX+.+ q h fXfX>X8X6X5XNXNXU.(.*.:.",
"q.9.8.7.5.e.;.1.>./.Y.R.NX4XqX6X&XC.N.M.t 2 O +.XX X X X X X X X X X X.X|.+ u.OX X X X X XOX{.O = *   i.OX X X X XOX'.X & c bXsXhXV.6X0Xx.I.SXG.>.1.w.",
"5.8.7.8.e.w.>.>.(.U.R.NX4XqX6Xd.gXaXsX, z ;   a.OX X X X X X X X X X XoX[.O @. X X X X X X.XXX$ + X @.XX X X X X XOX$.  : bXxXlXiX8XqX4XI.R.T.).;.w.q.",
"8.8.8.9.q.;.>.(.U.Y.I.4XeX8X&XV.N.sXy y z = O '.OX X X X X X X X X X XOXp.X $ XX.X X X X X X X@.X $ [.OX X X X XOX[.+ % , kXcX,XuX0Xv.I.E.T.(.1.=.q.9.",
"7.9.e.w.-.1.>.U.Y.L.2X4XyXiXgXaXaXt y h U * + [.oX X X X X X X X X XOX}.$ X $ XX.X X X X X X X+.+ ].OX X X X X XOXu.  = lX,X*X7XeX0XNXCXT.U.~.:.r.e.8.",
"8.e.w.-.;.~.T.R.I.2X4XyXiX>XdXsXy t z U K & + [..X X X X X X XOXOXOX[.@.X X #. X X X X X X.X|.$.[.OX X X X X XOX`.O @ =XcX:XB.7XrXNXR.T.).).;.r.e.5.7.",
"e.w.-.;.~.U.CXNX2X4X8X9X>XkXkXd u a s L Z * O ].OX X X X X X Xp.i.u.% O + X p.OX X X X X X X X XoX X X X X X.XXX@.X : nX,XyX6XrXNXK.H.U.^.^.r.e.5.7.7.",
"w.:.;.>.U.Y.NXv.0X6X&XhXfXbXbXP s U L n H =   F.OX X X X X X.Xp.X . X X X u. X X X X X X X X X X X X X X X XoXu.  & M.*XuXtXrXVXI.Y.U.~.;.=.q.9.8.7.9.",
"w.;.>.(.U.I.0X0X6X*XgXfXjXP I K E L n B ' :   $.OX X X X X X XOX[.p.a.a.`..X X X X X X X X X X X X X X X XOXi.X @ m.C.8XtXrXVXNXY.U.~.;.-.q.9.8.7.9.q.",
">.>.(.T.I.2XqX9X:X*XjXd P I K L T Z V r ! W @ O `.OX X X X X X X.XOXOXOXOX X X X X X X X X X X X X X X.XOXi.X @ n.hX8XtXrX4XI.I.J.^.;.=.q.9.8.7.8.e.r.",
",./.Y.I.j.wXiX>XaXaXg P I E Z n Z V N ! Q ! ; o $ }.OX X X X X X X X X X X X X X X X X X X X X X X XOXXXu.X O s.hX7XyXrXVXL.K.R.G.*.-.e.9.t.7.8.9.w.1.",
"(.U.I.2X0X9X>XjXsXy h s J n Z V D D / ! ! ~ Q * o +.[.OX X X X X X X X X X X X X X X X X X X X XOX.X`.@.X @ s.gXB.l.4XVXNXK.Y.).~.:.w.9.9.8.8.9.q.-.>.",
"U.I.NX0X7XhXlXkXf f s l B V D H G 8 ^ ! ! ! ) Q = o $ p.|.OXoX X X X X X X X X X X X X X XoXOX X`.#.O X & n.*XA.l.0XVXBXP.J.U./.=.r.q.5.8.8.9.e.w.2.>.",
"R.NX4X7XhXjXjXg s l e B V C N 9 } 8 ( / ! ! ! ) ^ : O X +.i.]. XoXOXOXOXoXoXoXOXOXOXOX.X X].p.#.O   @ ; d.iX6Xb.0XVXBXCXU.).,.;.r.0.9.8.8.e.q.w.;./.T.",
"I.0X8X>XdXjXh a k e B C N / ! ! ^ ( 8 ( ^ / ^ ^ ( X.q * X   + @.u.p.F.`.].[.].{.`.F.i.u.@.+   X % = m.C.S.8X0Xb.x.NXCXCX(.,.2.w.q.9.8.8.e.w.w.<.>.U.L.",
"b.7X:X-XjXf s m B M M N ^ / ! Q ! F G G 8 8 8 H G G X.D 2 ; & X     O O O + + O O X   X X @ = : m.C.V.z.6XqXc.h.W.CXCX,.2.2.w.q.5.8.7.9.q.w.<.>.(.E.v.",
"7X:X-XjXf s m V M M / ( ^ / ! ! ` F G ......G F N C V B r ` 1 3 : ; * * & & & * = = : : n.m.M.C.B.d.8XqXrXv.h.W.R.CX,.2.;.:.e.9.8.7.9.q.r.;.*.U.T.NXb.",
">X<XjXf s m V M ! / 8 F ' ` r M C D G G G G D M ` _ e r w w _ _ _ w 1 1 1 1 , < < sXlXnXjXgXB.B.z.wX4X3XVXNXI.W.Y.(.2.;.=.q.9.8.7.8.e.w.<.2.(.R.NXqX9X",
"-XjXh k e M D 9 9 8 G F C r V Z V V D Z A Z V r w _ w w 1 1 1 1 1 1 p p < < , N.N.aX*X:XiX9Xz.l.l.l.v.VXBXZXR.J.^.>.<.:.q.9.8.7.8.e.w.1.1.,.U.I.0XiXiX",
"kXa s B r r 9 8 9 F N V r e B Z B e B Z Z Z L w w w w p p 1 1 1 1 < y dXsXN.N.N.V.*X:XuXuX6Xz.f.f.g.W.NXZXSXY.G.*.<.y.e.9.t.7.8.e.q.;.;.~.Y.I.2X8XhXhX",
"h s B M ' ^ ( 9 F C V B e e e e e e L L J J K l p 1 p u p 1 1 1 , , aX;X-X*XgXV.V.V.7X8XeX0Xc.g.h.h.L.CXCXT.).;.<.w.e.9.9.7.8.9.q.=.1.>.Y.I.NXwX*XhXsX",
"s n V F ^ ( ^ 7 M V Y k k k i i k J K s p i s P f u f g y t < < , M.aX<X,X:X&XB.B.A.l.0X4X4Xv.x.W.W.T.T.(.(.2.-.r.e.9.9.8.8.9.e.r.;.>.T.R.NXqXzXhXsXy ",
"n V F X.( ( D C B J s a a h a i a a f f p p f bXc P bXbXjX< N.N.M.N.hX>XuXiX7Xl.A.A.c.x.2XVXNXI.R.T.(./.~.*.-.r.6.9.t.8.9.9.e.w.<.>.T.R.I.0X9XlXjXa U ",
"r ! ( ( ( N V n J K P P c P g h y t y jXfXy kXxXcXcXxXxXjXN.N.gXgXgXgXzX8XyX6Xl.A.l.g.x.I.MXZXCXT.,./.!.!.=.w.e.9.t.8.5.e.e.r.;.>.U.Y.VXqX7XgXfXd s L ",
"! / ( ( ' V e s U c y d xX;XkXxXjXsXjX-XdX;X<XdXdX<X-XlX>XgXV.=X=XV.B.A.b.4XqXb.l.c.K.W.R.ZXCX,.,.2.;.=.=.r.e.9.t.8.8.e.e.r.:.*.,.R.I.0X8X=XdXh P e r ",
"/ ( ( F H Z s f g aXM.M.-XjXdX-X>X<X<X&XC.*X:XV.C.&XV.C.=XyXyXuXyXS.A.f.c.0XVX2XW.K.K.Y.T.T.,.,.2.2.-.w.r.e.5.8.7.t.e.0.w.<.*.(.CXI.x.6X*X-Xd P L r ! ",
"O.( ] G n J h d ;XdXV.&X<X>XgXV.:XpXuX&Xd.9XuX&XB.7Xd.B.z.6X6XeXeX7Xf.g.x.I.VXNXR.U.U.(.,.,.2.2.<.-.w.e.e.5.8.7.8.e.e.w.;.;.>.T.NXv.l.8XdX;XP J e ! ! ",
"( F D S K h t aX<X&X:XyXuXyX6X6X8X7XeXeXeXtXtXeX8XeX6Xz.7Xl.l.0XrX4Xv.x.W.NXCXZXCX(.,.,.,.2.2.<.w.r.q.q.e.8.7.8.5.q.w.=.~.^.U.W.v.z.7X>XsXf U V D / ( ",
"^ D R K h c dX*XyX7Xz.8X6X6XrX4Xb.b.0X0XrX5X0X4XrXrXrX4X4Xx.g.v.VXVXNXI.P.CXCXCX,.,.,.>.;.;.-.w.e.e.e.e.5.8.8.9.e.w.:.=.^.U.K.v.wX7X>XxXg s B M G 8 ( ",
"N V J I kX;X:X8X8Xb.b.b.0X5X3X3X2X2Xj.x.3X2Xg.2X3XrXrXrX3X2Xx.Q.I.MXMXCXR.T.(.,.2.2.1.;.^.=.q.q.9.e.e.8.8.8.9.e.e.<.1.~.G.R.Q.qX7X*XdXxXP e M N ( ( 9 ",
"S T h xX-X=X8Xb.5Xj.2X2X3XBXMXL.P.BXMXI.NXVX2X4XrX4X2X2XVXBXBXI.K.Y.CXU.G.).(.,.2.1.1.=.=.r.q.e.e.9.8.8.8.9.e.r.-.1.~.G.L.VXrX9X&X-Xy p Y C N ^ ^ 9 N ",
"m I g ;X,XyX0X2X3XMXP.P.MXE.P.Y.U.CXMXj.v.VX4XrXrX4Xx.x.NXBXBXNXK.J.T./.!.^./.2.1.1.1.r.r.q.6.5.8.8.8.5.9.e.r.-.2.~.H.K.I.4XuXuX<Xy u l Z F ( ( ^ / r ",
"s g cXvXpXrX2XBX#X#XP.@X%.G.%.T.Y.L.W.2X4X2Xb.4X0X0Xv.W.W.NXZXZXR.U.,.>.^.^.;.1.:.w.w.w.q.6.8.7.7.8.5.9.e.q.=.;.,.U.T.I.x.qX9X<XkXf K V H ^ ( } ! M m ",
"c xX,XeX5Xj.R.#X@X&.&.$X,.>.%.T.I.NXv.0X5X5X5X2Xc.v.x.I.R.MXZXCXCX,.>././.;.:.w.r.q.q.e.9.8.7.7.8.9.9.0.w.=.=.>.CXZXBXv.z.8XgX;Xt J e M X.} ( 8 N Z K "
};
