/* XPM */
static const char *Uw__[] = {
/* columns rows colors chars-per-pixel */
"75 75 244 2 ",
"   c #4E006D",
".  c #4F0067",
"X  c #52006D",
"o  c #56016A",
"O  c #4E0070",
"+  c #550071",
"@  c #5B0373",
"#  c #5D0876",
"$  c #63097A",
"%  c #671875",
"&  c #6D166F",
"*  c #732C75",
"=  c #7B5077",
"-  c #7D617A",
";  c #86356C",
":  c #8C4678",
">  c #924F74",
",  c #A1576F",
"<  c #8E6D74",
"1  c #BB796B",
"2  c #AE787D",
"3  c #B37C7C",
"4  c #B87775",
"5  c #B06C75",
"6  c #AC5E5D",
"7  c #D37D58",
"8  c #CA7659",
"9  c #C87869",
"0  c #CB7969",
"q  c #B6965A",
"w  c #BDAA5C",
"e  c #BBBB5C",
"r  c #BDB45C",
"t  c #BC896B",
"y  c #B59C6C",
"u  c #BA9669",
"i  c #AD847D",
"p  c #AB8C7C",
"a  c #AB8B77",
"s  c #B58474",
"d  c #B38C74",
"f  c #B88576",
"g  c #AD9576",
"h  c #AC9B75",
"j  c #A6947E",
"k  c #AA947B",
"l  c #A59B7D",
"z  c #A99A7A",
"x  c #A49676",
"c  c #B19772",
"v  c #AB8C64",
"b  c #9DAA7D",
"n  c #9CB67A",
"m  c #ADAC6D",
"M  c #AEA46E",
"N  c #BBA364",
"B  c #BBAB63",
"V  c #B3A36B",
"C  c #B3AC6A",
"Z  c #B7AA66",
"A  c #ADB46C",
"S  c #ABBB6C",
"D  c #A8B86C",
"F  c #B4B365",
"G  c #B3BB64",
"H  c #B8B665",
"J  c #ABA374",
"K  c #A5AC75",
"L  c #ABAB72",
"P  c #A4A37B",
"I  c #A3AB7B",
"U  c #A8A578",
"Y  c #B1A472",
"T  c #A4B474",
"R  c #A4BB72",
"E  c #A6B377",
"W  c #B4B875",
"Q  c #9F9E7F",
"!  c #DB844C",
"~  c #D9854D",
"^  c #CB895A",
"/  c #D68454",
"(  c #C89859",
")  c #D29750",
"_  c #E3914C",
"`  c #C3AC5B",
"'  c #C5A659",
"]  c #C3B25B",
"[  c #C5B657",
"{  c #D6A14D",
"}  c #C58866",
"|  c #C39863",
" . c #C18578",
".. c #C2A763",
"X. c #C0B261",
"o. c #B6C95C",
"O. c #B7D25B",
"+. c #ACC667",
"@. c #B5C563",
"#. c #A1C172",
"$. c #9FC07C",
"%. c #C2C35D",
"&. c #5F1584",
"*. c #680E82",
"=. c #6B1484",
"-. c #73198C",
";. c #791E92",
":. c #7D2396",
">. c #6A2B8B",
",. c #6737A5",
"<. c #6F4FA7",
"1. c #7E7AAD",
"2. c #7E6EB6",
"3. c #7B65BD",
"4. c #766CBE",
"5. c #7B6CBB",
"6. c #7767BB",
"7. c #7D74B5",
"8. c #7D7BB3",
"9. c #7672BC",
"0. c #7A73BA",
"q. c #7578B6",
"w. c #6F76BB",
"e. c #795393",
"r. c #6E5ECE",
"t. c #6C58C4",
"y. c #735EC8",
"u. c #675CD5",
"i. c #6A5DD2",
"p. c #6D63CC",
"a. c #6E68C4",
"s. c #7464C5",
"d. c #746BC3",
"f. c #7163C9",
"g. c #7768C4",
"h. c #6B61D1",
"j. c #7271C1",
"k. c #84289C",
"l. c #8E32A7",
"z. c #9236AC",
"x. c #9236AB",
"c. c #8E5187",
"v. c #9E7A8D",
"b. c #9A6D9A",
"n. c #9B6D98",
"m. c #8E7D9E",
"M. c #877A9A",
"N. c #9C7394",
"B. c #9B7B94",
"V. c #94749C",
"C. c #9A739A",
"Z. c #937B9C",
"A. c #987C98",
"S. c #886587",
"D. c #AC7483",
"F. c #AB7B84",
"G. c #A4748D",
"H. c #A37B8B",
"J. c #A87A88",
"K. c #B07482",
"L. c #A47392",
"P. c #A37992",
"I. c #AE6E85",
"U. c #9E41B8",
"Y. c #A346BC",
"T. c #856DAD",
"R. c #8B6CAA",
"E. c #8B6AA9",
"W. c #926DA2",
"Q. c #8C75A5",
"!. c #857CA6",
"~. c #8C7CA3",
"^. c #8574AD",
"/. c #8A73AA",
"(. c #837CAC",
"). c #8979A8",
"_. c #9273A2",
"`. c #907CA0",
"'. c #836BB3",
"]. c #8464B4",
"[. c #8274B2",
"{. c #817AB1",
"}. c #8A71B3",
"|. c #A84BC2",
" X c #AE51C8",
".X c #B254CD",
"XX c #BA5CD5",
"oX c #BF61D9",
"OX c #C264DD",
"+X c #CB6CE6",
"@X c #CE6EE9",
"#X c #C667E1",
"$X c #CF70EA",
"%X c #D172EC",
"&X c #7C84AA",
"*X c #7385B1",
"=X c #9D848D",
"-X c #9C8C8C",
";X c #988A8C",
":X c #9E9486",
">X c #9D9C85",
",X c #95948E",
"<X c #9B938B",
"1X c #949B8D",
"2X c #9B9A8A",
"3X c #8D849D",
"4X c #8C8B9C",
"5X c #898A9B",
"6X c #958595",
"7X c #9A8392",
"8X c #948C94",
"9X c #9A8A92",
"0X c #92839A",
"qX c #928A99",
"wX c #998398",
"eX c #8D9395",
"rX c #8C929C",
"tX c #8B9895",
"yX c #939392",
"uX c #929992",
"iX c #989494",
"pX c #8F9E8E",
"aX c #A58585",
"sX c #AC8483",
"dX c #A48D84",
"fX c #AA8C82",
"gX c #A3838A",
"hX c #A5898A",
"jX c #A39484",
"kX c #A29B82",
"lX c #A59486",
"zX c #A98989",
"xX c #9CA483",
"cX c #99A587",
"vX c #8DA98D",
"bX c #A1A482",
"nX c #A0B480",
"mX c #8484A4",
"MX c #8A83A3",
"NX c #858AA3",
"BX c #898BA1",
"VX c #8483AB",
"CX c #8687AA",
"ZX c #8A8CA4",
/* pixels */
"jX2X8X3X5XmX1.1.8.].7.q.q.&X&XNX3XBX0X4X3X0X0X3X0X3XQ.W.).VXVX(.[.7.0.3.2.4.s.s.f.f.f.p.i.u.u.i.p.p.f.d.j.0.7.VXCXMXMX4XuX1XcXxXP L y H ] [ ` Z V K P ",
"H.8X4Xm.mX1.1.7.2.9.9.q.8.&XmX5X5X4XZ.4X4XA.C.0X5Xm.Q.~.).^.(.{.].2.9.3.3.d.s.y.r.r.r.i.u.u.i.p.f.f.d.9.0.'.^.CXMXV.Z.eX,X2XkXI E S +.@.o.o.@.A T P xX",
"iX6X3X!.1.'.].9.6.9.w.8.1.!.m.5X3X4X8X8X6X8X0X4X3XV.~.).^.R.^.8.7.5.9.d.d.f.f.p.r.i.u.u.u.i.p.p.s.d.9.0.'.].R.MX`.C.6X=XJ.F.p E T S @.O.o.@.F t U j F.",
"6X5XW.T.8.3.6.4.4.w.*X1.mX5Xm.3X6XeXyX6X6X6XqX4X0Xm.~.).^.^.7.7.0.9.d.d.f.p.p.h.i.u.u.u.p.p.p.f.d.9.9.q.'.R.~.BX4X4X8XJ.dXj I L A +.o.O.r Z #.h l >X<X",
"0X~.E.1.q.3.6.a.w.*X&X!.NX5XZ.eX6XyXuXyX7X7XA.A.4Xm.Q.Q.^.8.7.2.5.d.d.s.f.p.p.i.u.u.h.p.p.f.f.d.0.7.8.8.^.).BXZXrXeXH.F.xXnXU } C G ] o.| V n n xX-XuX",
"3X/.T.q.9.y.a.4.q.&X!.mX5XqX8X8X=X1XpXuX8X6X8XqX4XZ.~.)./.{.[.5.4.d.s.s.f.r.i.u.i.r.f.p.f.s.d.9.7.[.{.^.R.Q.BXrXrXyXJ.aXxXI t u +.` r +.C M a xXcX,XqX",
"~.T.].4.6.s.a.4.7.&XmX5X4X8X8X=X,X<X1X;X8XyX7X6X0XZ.~./.^.{.{.2.4.d.d.s.f.h.i.i.p.f.d.d.d.g.5.0.}.}.^.R.W.V.4XrXuX;XD.i I Y t A +.o.F S #.h j cX1XeX3X",
"!.T.].4.4.s.4.7.^.mX5XeXtX,X;X-X<X:X2X<X<XyX9X7XqX0XQ.).(.{.7.5.4.d.f.f.p.p.h.h.f.<.<.>.>.=.>.>.>.e.T.CX~.m.4XyXuX-XD.i I E A F w r } A T b cXvXpXtXMX",
"1.7.0.w.d.w.q.&XmX3X0XyX,X-X:X:XjXjXjXcX2X=X9X9XqXZ.~.).).{.'.5.d.f.a.f.p.h.t.,.&.+ X X X X X o . o # >.1.rXqXB.<X2Xi z E R S ^ ( Z V Y k kX:XvXtX5X!.",
"^.7.4.6.4.q.&XmX5XqX6X-X<X:XkXkXjXjXjXjX:X-X-X9X6XZ.~.).^.{.7.5.d.f.a.f.p.,.# X X *.k.z.|. X|.Y.z.;.@ X @ e.8X9X<XcXxXI K R S B Z A R h l >X<XvXtX5XVX",
"1.7.w.9.q.1.!.5XeX8X;X:XdXjXl l l kXjXkX>X:X<X9X6X0X`.Q.^.8.q.9.d.s.f.a.>.o X ;.|.#X%X%X%X%X%X%X%X@XXXl.# X % ;XcXcXl d J A N G S R E P xX2X,XtX5X~.mX",
"1.*Xw.9.'.!.3XqXyX,X:XdXfXj l P P l j j jXdX<X-X6X0XZ.Q.^.(.7.3.3.d.a.&.. *.|.@X%X+X+X+X+X+X+X+X+X+X$X%X.X-.X % =XxXp s J u } C #.n I jXdXvXuXtX5XQ./.",
"&X*Xq.1.!.m.0X;X-X:XkXj z z z P P z l l kXdX-X<X8X6XZ.~.).[.7.2.5.6.&.X -.oX%X+X+X+X+X+X+X+X+X+X+X+X+X+X$X#X;.  * xXP K Y } u m R n n kX:X8X6XeX5X~.&X",
"(.1.1.!.m.0X8X-XaXjXbXl P U h z P z k l kXjX2X<X8X6XZ.~.).T.[.q.9.>.X -.#X$X+X+X+X+X+X+X+X+X+X+X+X+X+X+X+X@XOX=.X - $.K y u m T n n xXcX1X1X8X6X5XNX&X",
"&X&X!.3XA.B.<X:XjXkXl P U U h g h z k k l xX2X<XyX6XV.~.).^.'.7.<.X $ XX$X+X+X+X+X+X+X+X+X+X+X+X+X+X+X+X+X+X%X X+ $ b L C A R n n n xXcX1XpXeXeX5XmXmX",
"NXmX5X8X7X=X<XjXdXl z z h h h h h J P P P jX:X,XuX8XZ.W.Q.VX(.7.=.X z.%X+X+X+X+X+X+X+X+X%X%X%X+X+X+X+X+X+X+X+X@X:.  < u u D E K b b >X>XcX,X8XeX4XrX5X",
"5XrXeXeX-X<X>XjXk z z g g h J J h g k l xXjXgX=XyXyX4X3X_.).CX<.X *.#X+X+X+X+X+X+X+X@X@X.XU.|.+X@X+X+X+X+X+X+X%XY.X * u y J h z P l jXaX1X;X,XuX8X3X5X",
"4X8XyX1X-X:XjXjXl k g g h h J U h g p p >X:XgXH.9XyX4X5XMXMXCX>.. z.%X+X+X+X+X+X+X@X#Xk.@ X X -.oX@X+X+X+X+X+X@XXX@ % T V c d s P l xX>XcX1X1XuX8X6X4X",
"6X;X,X<X:XdXdXkXP k p k P h h h U z p fXjX2X-X=X7X6X0X5XBXBXNX% @  X%X+X+X+X+X+X+X+X:.. # >.% X -.+X+X+X+X+X+X@XXX@ % T T K h z l i xX>XcXcX,X-XiXyXeX",
"=X-X=X:X:XjXjXj j z k z z U z z P l jXjXjX2X1XyX8XA.C.0X5XZXmX# @ OX@X+X+X+X+X+X@XoX@ # M.B.n.% X z.%X+X+X+X+X%X|.X * R U h K n P b nXxXxX>X2X2X2X<X8X",
"-X-XgXjXjXjXkXkXl l k p k z P P P >X>X2X<X<XuXuXuX6XN.b.0XBXM.@ $ #X+X+X+X+X+X+X@XoX@ # 8XB.P.S.+ $ XX%X@X+X%X#X=.X < A d d h n n n b b xXkXkXkX:X<X,X",
"aX:X:XjXjXjXkXkXkXl k k k j l bXkX>X2X2X<X-X-XiXuXyXA.n.C.Z.V.# $ #X@X+X+X+X+X+X+X+X-.X c.9X;X2X* X *.|.OX#X X-.  & c L K E E T z d P I I b l l xX-XaX",
"aXdX:XdXdXjXdXaXjXjXjXdXfXfXkX>X2X2X2X2X<XgXH.P.9XuXyXwXA.A.b.% @ XX@X+X+X+X+X+X+X%XY.X % v.H.H.H.* X X $ $ + X & 5 y T T Y K E h d J I g h I k jX:XaX",
":X:XjXjXjXdX:XdXdX:XdXdXdXjX:X2X2X<X1X1X,X=XP.L.P.9XuXuXyXqXP.>.X Y.%X+X+X+X+X+X+X+X+X;.X * sXF.sX>X< * # # * > c V L L L t t T R T E E y h U j kXdXaX",
">X:XjXjX:X<X-X-X-X:X:X:X:X<X<X<X<X<XyXuX,X;XH.L.L.H.8XuXyXyXiXc.X k.$X+X+X+X+X+X+X+X$XXX# + = fXK.kXnXj 5 i E D R A y y L } t T A V A C A y z l >X:X:X",
":X:X-X-X:X-X=X-X-X-X<X<X<XiXyX8X9X7X7X8XuXyX7XL.G.G.v.uX9XH.9X-X% @ XX$X+X+X+X+X+X+X+X%X|.@ + > p l b P d h T R R S y m A u } V y u C | u c z l >X>X>X",
"jX-X-X-X-X-X9X8X9X9X9XyXyX8X8X8XA.B.B.B.7XyXyX7XG.G.G.-X-XG.I.lXS.X k.%X+X+X+X+X+X+X+X+X%Xz.X @ < E n E K K R R A A S S S C } } u G G C u U z l kXjXdX",
"jX:X;X;X8X8X6X6X8X8X8XeXqX4X4X4XA.C.C.N.N.7XyXiX=XJ.J.J.J.J.I.D.>X* X |.%X+X+X+X+X+X+X+X+X%Xl.X # < U T c t M A u } C +.+.+.F | F F N S Y h z j dXdXsX",
":X,X9X7X6X0XA.A.0X0X4X4X4XBXBXBXm.V.b.b.n.N.7XuX1X<XgXD.D.D.D.K.fX< X $ OX@X+X+X+X+X+X+X+X+X@Xk.  & 4 L t 9 t V } } Z +.+.F w @.@.F Z u L K z j kXjXdX",
"<XyX6XA.0X0X0X`.~.~.~.MXMXmXmXmXMX_.b.b.n.n.N.8X1X1X:XF.K.K.5 4 3 P =   :.$X+X+X+X+X+X+X+X+X@X+X-.  * A V } u C | | F +.@.( ^ e ( H S y c h l j dXjX2X",
"v.6X0XZ.3XMXMXMXQ././.(.VX(.).VXmX~._.b.b.n.N.7X,XcX2XaX2 5 5 4 4 d x % X z.%X+X+X+X+X+X+X+X+X$XOX$ + < +.A S +.G B ( ' o.' ` r ( F S M t g l kX>X2X<X",
"7XqX0X~.~.~.).).^.^.[.8.{.T.T.^.(.VX~.V.b.n.N.B.-X2X>XkX2 4 4 4 4 4 t 5 @ + |.%X+X+X+X+X+X+X+X+X%X|.+ % T +.+.+.@.( 7 ) o.O.o.G N A u c d k bXdX:X<X;X",
"0X3X~.~.).).^.{.8.7.7.q.'.].].].T.(.CXMXZ.C.N.B.=XhXdXkXp 3 4 9 9 9 9 } > + $ XX%X+X+X+X+X+X+X+X+X%Xk.  = @.G @.o.` ) [ O.O.e ( } y } h h z kX2X-X9X7X",
"0XMX~.^.^.{.{.7.0.0.9.9.2.].].].].^.mXBX4X0XA.G.G.F.F.i p s 4 9 9 9 9 9 } ;   =.OX+X+X+X+X+X+X+X+X@XOX$ X v ] o.o.O.o.[ e o.^ ^ } V J E z kXfXaX-X7XA.",
"MX~.^.^.[.q.7.5.3.4.d.j.4.3.].].E.Q.MXrXrX6X7XJ.D.I.K.3 f s 1 9 9 0 0 9 } 9 &   :.+X+X+X+X+X+X+X+X+X%Xz.  ; %.o.O.O.' ~ ( G ..N } t K I P kXdX<XyX6X3X",
"MX).(.[.2.5.4.g.s.s.f.d.9.[.'.T.R._.Z.qXeXiXv.* % $ $ & : 4 9 9 0 0 0 0 } | 1 $ X z.%X+X+X+X+X+X+X+X@XOX$ # w [ [ o.' / ' +.S u t c d l kXkX:X9X6X3X~.",
"VX(.{.2.3.d.f.s.f.f.s.d.q.8.(.).W.W.C.B.iXS.$   + # # X   & 1 0 0 0 0 ^ ^ | X.5 + @  X%X+X+X+X+X+X+X+X%Xk.  6 _ ) e @.X.N G S u J I z xXkXlXuXyX4XMXVX",
"(.}.7.4.d.s.p.p.p.r.g.4.8.(.^.).W.b.b.P.S.@ X :. XOXOX|.=.  & 0 0 0 7 ^ ^ w H %.:   =.+X+X+X+X+X+X+X+X%XY.O ; ! / r @.H N N C T E g l aXaX<XyXrXBXNX).",
"[.[.5.d.s.p.p.p.p.y.3.'.{./.W.W.V.b.n.L.% X k.@X%X@X@X%XOX*.O , / 7 7 ^ ( w e @.G % X Y.%X+X+X+X+X+X+X@XXX@ & ^ ) ( H +.V 9 c E P i dXaX1X9X6X4XMXVX^.",
"[.5.d.s.p.h.p.a.d.3.2.[.^.W.W.b.C.N.L.c.+ $ OX@X+X+X+X+X%XY.  * 7 7 7 / ^ ' e o.O.<   :.@X+X+X+X+X+X+X@XOX# # q ^ ^ ..S V t h g bXxX:XJ.yX6X3XMX).(.{.",
"5.d.f.p.i.i.p.d.9.2.].T.^.~.V.C.B.N.G.c.X k.%X+X+X+X+X+X@XXX@ & 8 7 7 7 / ) ' r o.q @ $ #X+X+X+X+X+X+X+X#X$ @ t ^ } | V T K d s bXcX<XG.8X4X~.).^.[.2.",
"d.s.p.i.u.r.f.9.0.'.]./.!.MX4X6XB.G.J.: . l.%X+X+X+X+X+X@XOX# # 8 / 7 / / ~ ) ) [ w @ $ #X@X+X+X+X+X+X+X#X$ # u Z } 0 t E I l fXfX<X8X6X3XMXMX^.{.2.4.",
"s.p.i.u.r.f.5.0.7.[./.).MX5XqX6X=XJ.sX: . l.%X+X+X+X+X+X@XOX# $ 8 / / ! ! ! ! ~ { q + *.+X+X+X+X+X+X+X@XoX@ % A A t t h I b xXsXhXH.6X0XV.~.CXT.7.9.d.",
"r.i.u.i.f.d.7.7.{.^.).MX4XqX6Xv.gXH.sX> X k.%X+X+X+X+X+X+X+X*.+ 8 ! ~ ! ! ! ! ! _ ,   k.%X+X+X+X+X+X+X%X|.+ * A V c U z i kXcXlX1X8XqX5X~.).(.[.5.d.s.",
"i.i.i.p.s.5.7.{.^.Q.~.4XrX8X=XH.H.aXfX< X -.+X+X+X+X+X+X+X%Xk.  ; _ ! ! ! ! ! _ 6 # + .X%X+X+X+X+X+X+X%Xl.  : u 1 d z 3 3 >XcX1XuX0XV.~.).(.{.0.3.s.p.",
"u.p.f.d.4.0.7.(.).Q.3X4XyXiXgXaXaXi k j # # oX@X+X+X+X+X+X@XXX$ + ; 8 ~ ! ! 8 ; @ X z.%X+X+X+X+X+X+X+X+X*.+ < } 4 s z i dX1X-X7XrX0XMXVX(.^.'.4.s.f.i.",
"i.f.d.4.5.'.(.).~.3X4XyXiX<XdXsXi i g L * X Y.%X+X+X+X+X+X+X%X X$   @ & * & #   @ z.@X+X+X+X+X+X+X+X%XY.X % h s s l xXkXcX<XG.7XrXMX).(.[.}.2.s.f.r.u.",
"f.d.4.5.'.^.VXMX3X4X8X9XlXkXkXj p g h W < X -.+X+X+X+X+X+X+X+X%XXXl.*.@ + + $ :. X%X+X+X+X+X+X+X+X+X+X=.X < E z P >XjX2X1XyX6XrXMXW.R.^.'.'.g.f.r.u.u.",
"d.4.5.7.^.).MXZ.0X6X=XgXfXbXbXP h U L m M % X Y.%X+X+X+X+X+X+X+X@X%X#X.X X.XOX@X%X+X+X+X+X+X+X+X+X%Xl.  % g I xX>XsXD.-XuXrXrXBX~.).^.'.2.3.s.p.i.u.p.",
"d.2.7.{.^.~.0X0X6X;XgXfXjXP I K E L m V .., + $ XX$X+X+X+X+X+X+X+X+X+X$X%X%X@X+X+X+X+X+X+X+X+X+X%XU.+ @ , g xXcXdXK.J.8XrXrXBXMX/.^.'.2.4.s.p.i.u.p.s.",
"7.7.{.^.~.3XqX9X<X-XjXj P E K L T A C u ( ( * O =.OX%X+X+X+X+X+X+X+X+X+X+X+X+X+X+X+X+X+X+X+X+X%X|.@ + : f l cXcXjXgX9XrXrX5X~.~.E.'.2.3.s.p.i.u.i.f.g.",
"8.[.^.~.m.wXiX<XaXaXl P I T T m A A B ( ^ ( ^ &   -.oX%X+X+X+X+X+X+X+X+X+X+X+X+X+X+X+X+X+X@X%Xz.# + ; d jXxXcX<XgX9XyXrXBXQ.W.).T.2.4.f.p.h.u.i.p.d.9.",
"{.^.~.3X0X9X<XjXsXp z h J m A C F F w ( ( ^ ) ^ & O $ |.%X%X+X+X+X+X+X+X+X+X+X+X+X+X+X@X%XOXk.X + ; p kXcXcX<XH.G.B.4XBXMXW./.}.'.4.d.p.p.i.i.p.s.4.7.",
"(.~.MX0X7XhXlXkXk z h y V C F H H e ` ( ) ) ) { ( * + + k..X@X%X@X+X+X+X+X+X+X+X+X%X%XOXz.*.X # > 3 sXjXlX1X9XL.N.0XBXNX!.E.^.[.3.s.s.r.i.i.p.f.d.0.7.",
").MX4X7XhXjXjXl h c y V C Z B w o.e ] ` ( ) ) ) [ [ > #   @ :.Y.XX+X@X%X%X%X%X@X#X.Xz.*.X X % , 3 K.F.F.gXyX6XB.Z.BXNXVX(.^.8.5.s.a.p.i.i.f.s.d.5.[.(.",
"~.0X8X<XdXjXz g c y V Z B ' ( ( ` ] e ] ` ' ` ] H @.@.v ; #   X @ -.k.l.z.z.k.:.*.@ . + % : 2 3 D.F.J.J.H.8X0XC.V.MXVXVX{.8.0.d.s.p.i.i.f.d.d.9.7.^.Q.",
"A.7X<X:XjXk h V V N N B ` ' ( ( ( H G G e e e H G G G H ..1 : * # X X .     X X + $ * > 3 sXK.D.D.J.H.B.6XqXC.b._.VXVX8.8.0.d.s.r.i.u.p.s.d.9.q.{.).Z.",
"7X<X:XjXk h M C N N ' ] ` ' ( ( | H G @.@.G G H B Z C V u } } } 1 , > > : : > > , 2 fXfXsXD.D.J.G.B.8XqX4XZ.b._.).VX8.8.5.4.f.p.i.u.p.s.g.5.2.^.!.MXA.",
"<X2XjXk h M C N ( ' e H ..| u N Z H G G G G F N | t y u t t 9 1 1 f f f  .f 3 3 3 F.dX:X-XgXH.H.B.wX4X5XBXMX~._./.{.q.5.3.s.p.i.u.i.f.d.9.0.{.).MXqX8X",
":XjXz c y N F r r e G H Z y C A C C F A S A C u t } t t t 1 1 4 4 3 s s 3 2 2 D.F.aX:X1XiX9X7XN.N.C.Z.BXNXCX).E.'.7.9.4.s.p.i.u.i.f.d.9.0.8.^.~.0XyXiX",
"kXg h V y u w e r H B C u y V m V y V A A A L t t t t s s 4 4 4 4 3 p dXsXF.F.F.H.-X<XuXuX6XB.n.n.b._.MXCXCX/.T.2.9.d.f.p.h.u.i.f.s.5.2.'./.~.3X8XhXhX",
"z h V N ..` [ r H Z C V y y c y y y L L J J K c s 4 s a s 3 4 3 3 2 aX>X:XhXgXH.H.H.7X8XrX0XC.b.b.b.Q.VXVX(.{.2.9.d.f.p.p.u.i.p.s.3.0.7./.~.MXwX<XhXi ",
"h M C H ` ] ` w N V Y c c c d d c J K h s d h P k a k l p 3 3 3 2 D.aX2X1X,X=XG.G.L.N.0X4X4XZ.V._._.^.(.{.{.0.4.s.f.p.p.i.i.p.f.s.5.7.(.).MXqX9XhXsXp ",
"M C H @.[ ] H Z V M h g g z g d g g k k s s k bXb bXbXbXjX3 F.F.D.F.hX<XuXiX7XN.L.L.C.C.3XBXMX~.).(.{.[.'.2.4.s.y.p.h.i.p.p.f.d.9.7.(.).~.0X9XlXjXk U ",
"u ( ] [ ] B F m J K P P b P l z p i p jXfXfXkXxXcXcXxXcXjXF.F.gXgXgXgX=X8XyX6XN.L.C.b.V.~.mXCXVX(.8.[.].].3.d.f.f.h.i.r.f.f.s.5.q.^.).BXqX7XgXfXj h L ",
"( ' [ [ ..C y h U b p j xX>XkXxXjXsXjX:XdX>X2XdXdX2X:XlX<XgXH.-X-XH.G.L.A.4XqXA.C.C.W._.).CXVX8.8.8.2.3.3.s.f.p.h.i.i.f.f.s.4.2.8.)._.0X8X-XdXj P y u ",
"` [ [ H F A h g l aX2 D.:XjXdX:X<X2X2X=XF.-X<XH.J.=XH.J.-XyXyXuXyXP.L.n.C.3XBX0X_.W.W./.(.(.8.8.0.0.4.d.s.f.r.i.u.h.f.a.d.9.2.{.VX~.C.6X;X:Xj P L u ( ",
"%.[ X.G m J z j >XdXH.=X2X<XgXH.,XpXuX=Xv.;XuX=XG.7Xv.G.B.6X6XrXrX7Xn.b.C.~.BXMX).^.^.{.8.8.8.0.9.4.d.f.f.r.i.u.i.f.f.d.4.2.7.(.MXZ.B.8XdX>XP J y ( ' ",
"[ H F D K z i aX2X=X,X,XuXyX6X6X8X7XeXeXeXtXtXeX8XeX6XB.wXC.N.0XrX4XZ.V._.MXCXCXVX(.8.8.8.0.9.9.d.s.s.s.f.i.u.i.r.s.d.3.'.'.^._.A.B.7X<XsXk U C F ' ] ",
"` H R K z xXdX-XyX7XB.8X6X6XeX4XA.A.0X0X4X4X0X4XrXrXrX4X4XC.b.Z.BXBXMX~.!.VXVXVX8.8.8.7.2.5.4.d.f.f.f.f.r.i.i.p.f.d.4.3.'.^.W.V.wX7X<XxXl h V N G e ] ",
"Z C J I kX>X<X8X8XA.Z.Z.0X5X5X5X5X5Xm.V.5X3Xb.3XrXrXrXrX5X3XV.`.~.VXVXVX).(.8.8.8.8.0.2.].3.s.s.p.f.f.i.i.i.p.f.f.9.0.'.T.).`.qX7X-XdXxXP y N B [ [ r ",
"D T z xX:X-X8X0X5Xm.3X3X5XNXmXQ.!.NXmX~.MXNX5X5XrXBX3X5XBXNXmX~.W.Q.VX^.T.}.8.8.0.9.9.3.3.g.s.f.f.p.i.i.i.p.f.s.4.0.'.T.Q.BXrX8X=X:Xp s Y Z B ` ' r B ",
"M I Q >X1XyX0X3X5XmXmX!.mX/.!./.^.mXNXm.Z.5X5XrXrX4XV.V.~.NXNXMXW.E.(.^.].'.[.0.9.9.9.g.g.s.r.r.i.i.i.r.p.f.s.4.0.'.T.W.~.4XuXuX2Xp a y A H ] [ ` ' u ",
"h l cXvXtXrX5XNX&X&X!.&X1.T.1.(.Q.Q._.3X4X3XZ.4X0X0XV.V._.MXCXCX).^.{.{.'.].2.9.4.g.d.d.s.r.i.u.u.i.r.p.f.s.3.2.8.^.^.~.C.6X9X2XkXk K C H ` ] o.( N M ",
"b xX1XeX4Xm.).&X&X1.1.*X8.7.1.(.~.MXZ.0X3X3X3X3XC.V.V.~.).VXCXVXVX8.7.[.[.2.4.d.s.s.s.f.p.i.u.u.i.p.p.f.d.3.3.7.VXCXNXZ.B.yXgX>Xi J y N @.o.] e B A K "
};
