/* XPM */
static const char *c2xhc2g_[] = {
/* columns rows colors chars-per-pixel */
"75 75 242 2 ",
"   c #4E006D",
".  c #52006D",
"X  c #4E0070",
"o  c #540071",
"O  c #5B0373",
"+  c #5E0976",
"@  c #630B79",
"#  c #671675",
"$  c #70196F",
"%  c #742F75",
"&  c #7E5475",
"*  c #87366E",
"=  c #B6695A",
"-  c #914E6D",
";  c #AB5967",
":  c #966871",
">  c #BE7B6E",
",  c #BD736C",
"<  c #AE787E",
"1  c #BD7573",
"2  c #BB7A73",
"3  c #B3757C",
"4  c #B37B7B",
"5  c #B97779",
"6  c #B06D70",
"7  c #CC7B5A",
"8  c #CA7A64",
"9  c #C37B6A",
"0  c #C67869",
"q  c #C67A6D",
"w  c #BDAA5D",
"e  c #BBBB5B",
"r  c #BDB65B",
"t  c #A7A75F",
"y  c #999574",
"u  c #BC896C",
"i  c #B49C6C",
"p  c #BA9768",
"a  c #AD847D",
"s  c #AB8C7C",
"d  c #AF8C77",
"f  c #B58375",
"g  c #B38C73",
"h  c #B68477",
"j  c #AD9576",
"k  c #AC9B75",
"l  c #A5947E",
"z  c #AA947B",
"x  c #A59B7D",
"c  c #A99B7A",
"v  c #A69172",
"b  c #B29772",
"n  c #A3956D",
"m  c #9EAB7D",
"M  c #9CB67A",
"N  c #ADAC6D",
"B  c #AFA36E",
"V  c #BBA364",
"C  c #BBAB63",
"Z  c #B3A46B",
"A  c #B3AC6A",
"S  c #B7A967",
"D  c #ADB46D",
"F  c #ACBB6C",
"G  c #AABA6A",
"H  c #B4B365",
"J  c #BCB364",
"K  c #B4B966",
"L  c #ABA374",
"P  c #ABAB72",
"I  c #A4A37B",
"U  c #A3AB7B",
"Y  c #A7A876",
"T  c #B2A573",
"R  c #A5B374",
"E  c #A6B575",
"W  c #D9864D",
"Q  c #D5994E",
"!  c #CB895B",
"~  c #D48857",
"^  c #C49C5C",
"/  c #CB9758",
"(  c #D39554",
")  c #C3AC5B",
"_  c #C5A758",
"`  c #C4B558",
"'  c #D0A052",
"]  c #C68765",
"[  c #C39863",
"{  c #CE8268",
"}  c #C3A563",
"|  c #C0B261",
" . c #E18F4A",
".. c #B4CC5D",
"X. c #BAC55A",
"o. c #B8D35A",
"O. c #ACC468",
"+. c #B3C565",
"@. c #AAC570",
"#. c #C4C15A",
"$. c #6C1384",
"%. c #731A8C",
"&. c #74198D",
"*. c #7C2294",
"=. c #6F3283",
"-. c #795187",
";. c #7E7AAD",
":. c #7E6EB6",
">. c #7B65BD",
",. c #766DBE",
"<. c #7B6CBB",
"1. c #7967BA",
"2. c #7D74B5",
"3. c #7D7AB3",
"4. c #7672BC",
"5. c #7A73BA",
"6. c #7678B7",
"7. c #6F76BB",
"8. c #7F6E8A",
"9. c #6E5ECE",
"0. c #735FC8",
"q. c #675CD5",
"w. c #6A5DD2",
"e. c #6D62CC",
"r. c #6E6AC5",
"t. c #7465C5",
"y. c #746BC3",
"u. c #7163C9",
"i. c #7667C3",
"p. c #6A60D0",
"a. c #7271C1",
"s. c #84299C",
"d. c #8D32A6",
"f. c #9237AB",
"g. c #9E7C8C",
"h. c #9A6D9A",
"j. c #9B6D98",
"k. c #8E7D9E",
"l. c #8B769D",
"z. c #9D7394",
"x. c #9B7B94",
"c. c #95749D",
"v. c #9A739A",
"b. c #937B9C",
"n. c #977C98",
"m. c #896C8B",
"M. c #A96D89",
"N. c #AC7584",
"B. c #AB7B83",
"V. c #A4748D",
"C. c #A37B8C",
"Z. c #A87788",
"A. c #B27582",
"S. c #A37392",
"D. c #A27A91",
"F. c #A76C8E",
"G. c #9D41B7",
"H. c #A246BC",
"J. c #866DAD",
"K. c #8B6CAB",
"L. c #8C6AA9",
"P. c #926DA3",
"I. c #8C74A5",
"U. c #857CA6",
"Y. c #8B7CA3",
"T. c #8575AD",
"R. c #8973AA",
"E. c #847CAC",
"W. c #8979A8",
"Q. c #9272A2",
"!. c #907CA0",
"~. c #8364B4",
"^. c #836BB3",
"/. c #8466B5",
"(. c #8273B2",
"). c #817AB1",
"_. c #8872B0",
"`. c #875789",
"'. c #A94CC3",
"]. c #B255CD",
"[. c #BA5CD4",
"{. c #AE50C8",
"}. c #BF61DA",
"|. c #C263DD",
" X c #CB6CE6",
".X c #CE6EE9",
"XX c #C668E1",
"oX c #CF70EA",
"OX c #D172ED",
"+X c #7C84AA",
"@X c #7484B1",
"#X c #9D848D",
"$X c #9C8C8C",
"%X c #998B8A",
"&X c #9E9486",
"*X c #9D9C85",
"=X c #95948D",
"-X c #9B938B",
";X c #959C8C",
":X c #9B9A8A",
">X c #8D849D",
",X c #878C9E",
"<X c #8C8B9C",
"1X c #8B8999",
"2X c #958595",
"3X c #9A8392",
"4X c #948C94",
"5X c #998A92",
"6X c #92839A",
"7X c #928A99",
"8X c #998398",
"9X c #8D9395",
"0X c #8D9B93",
"qX c #8C929B",
"wX c #88959C",
"eX c #939392",
"rX c #929992",
"tX c #979593",
"yX c #8E8F89",
"uX c #A58485",
"iX c #AA8482",
"pX c #A48C84",
"aX c #AA8C82",
"sX c #A3848B",
"dX c #A4898A",
"fX c #A39484",
"gX c #A29B82",
"hX c #A49587",
"jX c #A6898B",
"kX c #9CA383",
"lX c #98A686",
"zX c #8CA78F",
"xX c #A2A382",
"cX c #A0B480",
"vX c #8484A5",
"bX c #8A83A3",
"nX c #858BA3",
"mX c #898BA1",
"MX c #8383AB",
"NX c #8785A9",
"BX c #8891A2",
"VX c #8B81A6",
/* pixels */
"fX:X4X1X,XvX;.;.3.~.2.6.6.+X+XnX>XmX6X<X1X2X6X1X6X>XI.P.W.MXMXE.(.2.5.>.<.,.i.t.u.u.u.e.w.q.q.w.e.e.u.y.a.5.2.MXNXbXbX<XrX;XlXkXY P p K ` ` ) C Z P I ",
"C.4X1Xk.vX;.;.2.:.4.4.6.3.+XvX,X,X1Xn.1X1Xn.v.2X,Xk.I.Y.W.T.E.).~.:.5.>.>.y.t.0.0.9.9.w.q.q.w.e.u.u.y.4.5.^.T.NXbXc.n.eX=X:XgXU R G O.+.....+.D R L kX",
"tX2X>XU.;.^.>.4.1.4.6.3.;.U.Y.,X>X<X4X2X2X2X2X<X>Xc.Y.W.W.K.T.3.2.<.4.y.y.u.u.e.9.w.q.q.q.w.e.e.t.y.4.6.^.~.K.bX!.v.2X3XZ.B.s R E G +.o.X.+.K u L l B.",
"2X1XP.J.3.>.1.,.,.7.@X;.vX,Xk.1X2X9XeX2X2X2X7X1X6Xk.Y.W.T.T.2.2.5.4.y.y.u.e.e.p.w.q.q.w.e.e.e.u.y.5.5.2.^.K.Y.mX<X<X4XZ.pXfXU P G O...o.r S @.k x *X-X",
"6XY.L.;.6.>.1.r.7.@X+XU.,X,Xn.9X2XeXrXeX3X3Xn.n.<Xk.I.I.T.3.2.:.<.y.y.t.u.e.e.w.q.q.e.e.e.u.u.y.5.2.6.3.T.W.mXBXqX9XC.B.kXcXY ] A K ` ..[ Z M M kX$XrX",
">XR.J.6.4.0.r.,.6.@XU.vX1X1X2X4X#X;X0XrX4X2X2X7X<Xb.Y.W.R.).(.<.,.y.t.t.u.9.w.q.w.9.u.e.u.t.y.5.(.(.).T.K.I.mXqXqXeXZ.pXlXU u p O.w w O.A B d lXlXeX7X",
"Y.J.~.,.>.t.r.,.2.+XvX1X<X4X4X#X=X-X;X%X4XeX3X2X6Xb.W.R.T.).).:.,.y.y.t.u.p.w.p.e.u.y.t.i.>.<.2.^.K.T.R.P.c.<XqX0X%XN.a U T u D O.X.H F @.k l lX;X9X>X",
"U.J.~.,.,.t.,.2.T.vX1X9X0X=X%X$X-X-X:X-X-XeX3X3X7X6XI.W.E.).2.<.,.y.u.u.e.e.e.e.u.y.y.y.,.1.5.2.J.K.T.W.I.k.<XeXrX%XN.a U E D H w r [ D R m lXzXzXwXbX",
";.2.5.7.y.7.6.+XvX>X6XeX=X$X&X&XfXfXfXlX:X#X5X5X7Xb.Y.W.R.).^.<.y.u.r.u.e.e.9.u.t.y.1.,.<.5.6.3.T.T.MXvXbX,X7Xx.4X-Xa c E E G ! ^ S Z T z gX-XzX0X1XU.",
"T.2.,.,.,.6.+XvX1X1X2X$X-X&X&XgXfXfXfXfX-X$X$X3X2Xb.Y.W.T.).2.<.y.u.r.u.e.0.u.t.u.,.>.<.<.:.6.3.E.W.MXnXBXwXeX5X:XlXkXU E F F C S D R c x *X-XzX9X,XvX",
";.2.7.4.6.;.U.,X9X4X$X&XpXfXx x x gXfXgX*X-X-X5X2X6X!.I.T.3.2.4.y.t.e.r.r.u.t.y.,.<.<././.^.3.E.R.L.bXmX8.-.% % -.yXI g L D V K F R R I kX:X=X0X1XY.vX",
";.@X7.4.^.U.>X1XeX=X&XpXaXl x I I x l l fXpX-X$X2X2Xb.I.W.E.2.>.>.t.r.r.y.i.y.4.<.<.:.^.^.J.E.MXW.Q.l.# o   . . . O * g L p ] A @.M U fXpXlXrX0X,XI.R.",
"+X@X6.;.U.l.6X5X%X&XgXl c c c Y I c x x gXpX$X-X4X2Xb.Y.W.T.2.<.1.y.y.i.y.,.4.<.:.2.2.(.T.T.W.W.Y.l.# . $.f.G.G.s.O o & T ] p N E M M gX&X$X2X9X,XY.+X",
"E.;.;.U.k.6X4X$XuXfXxXx I I k I I c z x gXfX:X-X4X2Xb.Y.R.J.(.6.4.1.4.1.<.6.6.2.2.3.3.T.L.R.MXY.>X=.. *.|.OXOXOXOX'.O O < [ N R M M lXlX;X;X4X2X,XnX+X",
"+X+XU.>Xn.x.-X&XfXgXx I I Y k j k c z l x kX:X-XeX2Xb.I.W.T.^.2.<.<.<.6.6.6.2.^.^.E.T.W.I.W.vXBX-.. @ |.oX X X X XOXs.  : O.R M M M lXlX;X;X9X9X1XvXvX",
"nXvX1X2Xx.#X-XfXpXx c c k k k k k L I I I fX&X=XrX4Xb.P.I.MXE.2./.:.6.2.(.3.(.;.E.E.W.vXW.Y.bXl.+ . H.OX X X X X XOXG.  - @.R Y m m *X*XlX=X4X9X9XwXvX",
",X,X9X9X$X-X*XfXl c c j j k L L k j z x kXfXsX#XeXeX<X>XQ.W.MX+X3.3.3.T.J.J.J.E.W.Y.Y.bXQ.l.6X=.. *.oX X X X X X XOXd.  - A k c I x fXuX;X%X=X0X1X1X,X",
"1X4XeX;X$X&XgXl x z j j k k L L k j s s *X&XsXC.5XeX<X,XbXbXMX+X+X+X+XK.R.R.L.R.vXbXbXbXc.b.`.o + [.oX X X X X X.X|.@ o : b g f x x kX*XlX;X;XrX4X2X1X",
"2X5X=X-X&XpXpXx I z s z I k k k L c s aXfX:X$X#X3X2X2X,XmXmXnX+XMXK.MXvXY.nXbXY.mX,X<XqX<Xb.# . f.OX X X X X X XOXd.. % E Y k c c a kX*XlXlX=X$XtXeX9X",
"#X$X#X-X&XfXfXl l c z c c I c c I x fXfXfX:X;XeX4Xx.v.6X,XmXmXnXnXP.P.nXbXY.BX,Xb.6Xn.<X0X=.. &. X X X X X X XOX].O O y P k U M I m cXkXkX*X:X:X:X-X4X",
"$X$XsXfXfXfXgXgXx x z s z c I I I *X*X:X:X-XrXrXrX2Xz.h.>XmXmXnXnXnXQ.bX,Xh.b.wXn.n.6X4Xm.O O ].OX X X X X X X X%.. & D g g k M M M M m lXgXgXgXfX-X=X",
"uX&X&XfXfXfXgXgXgXx l l l l x xXgX*X:X:X-X$X$XtXrXeXn.j.v.b.c.,XwXwXwX,XwX2Xv.1X2X2X0XrX#   d.OX X X X X X XOXf.  # b R P R R R c g I U U m x x kX$XuX",
"uXpX&XpXpXfXpXuXfXfXfXpXaXaXgX*X:X:X:X:X-XsXC.D.5XrXeX3Xn.n.h.v.1X6X1X0X0X0X9X2XS.4XzX-.. $.XX X X X X X XoX[.+ O ; Z R R L P R k g L U j k U z fX&XuX",
"&X-XfXfXfXpX&XpXpX&XpXpXpXfX-X:X:X-X;X;X=X#XD.S.D.5X0XrXeX7Xz.F.z.z.F.4X0X5XrXrXC.C.yX+ . '.OX X X X X X X.X*.  % Z P P P u u R R R R E i k Y l gXpXuX",
"*X&XfXhX-X-X$X%X$X&X&X&X&X-X-X-X-X-XeXrX=X%XD.S.S.C.4X0XeXeX4XS.F.g.F.V.rXsXM.$XlX:X%   s.OX X X X X X XOXH.. # Y G i i P ] u R D B D A D i c x *X&X&X",
"&X&X$X$X&X%X#X$X$X$X-X-X-XtXeX4X5X3X3X4XrXeX3XS.V.V.g.rX$XC.3X-XsX%X#XM.sX:XN.M.kX8.. @ |..X X X X X XoX|.@ o : @.D i N E p ] Z p p A [ p b c x *X*X*X",
"fX$X$X%X$X$X5X4X5X5X5XeXeX4X4X2Xn.x.x.x.2XeXeX#XV.V.V.$X#XV.M.$X;X;XlXpXpXlX&XB.#X# . H.OX X X X X X XoXs.  % F D D G F F A ] ] p K K A p L c x gXfXpX",
"hX&X%X%X4X4X2X2X2X2X4XeX7X<X1X<Xn.v.v.z.z.3XeXtX#XZ.Z.Z.Z.Z.M.N.*XlXlXlXkXlXkXgX%   *..X X X X X X XOX'.o + v D p ] A O.O.O.H [ H H V F Z k c l pXpXiX",
"-X=X5X3X2X2Xn.n.6X6X<X<X<XmXmXmXk.c.h.h.j.z.3XrX;X-XsXN.N.N.N.3 a lXlXlXM M I : o + [.oX X X X X X XXX$.o - [ i ] { S O.O.H w +.+.H S p P Y c l fXfXpX",
"-XeX2Xn.2X6Xb.!.Y.Y.Y.bXbXvXvXvXbXQ.h.h.j.j.z.4X;X;X&XB.A.A.3 3 4 I m I U M I # . f.OX X X X X X XOXd.  $ ] p A [ [ H +.+./ ( e ^ H F i g k x l pXfX:X",
"g.2X2Xb.>XbXbXbXI.R.R.W.MXE.W.MXvXY.Q.h.h.j.z.3X=XlX:XuX3 3 3 5 5 f L j g T & . %. X X X X X X XOX].O O y O.G O.K C / _ X._ ) r / H F B u j x gX*X:X-X",
"3X7X6XY.Y.Y.W.W.T.T.(.3.).J.J.T.E.MXY.c.h.j.z.x.$X:X*X&X< 3 1 1 1 1 f g 9 6 O O ].OX X X X X X X X%.  - +.O.O.O.+.^ 7 ( X.....K C D p g g z kXpX&X-X%X",
"2X>XY.Y.W.W.T.).3.2.2.2.:./.~./.J.E.NXbXb.c.z.x.#XdXpXgXs 4 1 q q 0 0 u 9 $   d.OX X X X X X XOXf.. # Z +.+.K +...) ( ` ....e ^ ] p ] k c c gX:X$X$X3X",
"6XbXY.W.T.).).2.5.5.4.4.<.~.~.~.~.T.vXmX<X2Xn.C.V.Z.B.a s f 1 0 q 0 0 { - o $.|..X X X X X XoX[.@ o ; } +.w w ......X.` e X.! ! [ Z L R c gXaXuX$X3Xn.",
"bXY.W.T.(.2.2.<.>.,.y.a.,.>.~.~.L.I.bXBXqX4Xx.V.N.A.A.4 h f 2 q q q 8 , @ . '.OX X X X X X XoX*.  * ^ J +._ e ..o.o._ W / e } V ] u P U x gXpX-XeX2X>X",
"bXW.E.(.<.<.,.i.t.t.u.y.4.2./.K.K.Q.b.7XeX5XC.Z.A.A.5 5 2 2 9 q 8 8 8 *   s.OX X X X X X XOXH.. # p ) r X.X.e ` ` .._ ~ ) +.G p u b g x gXhX-X5X2X1XY.",
"MXT.).:.>.y.u.t.u.u.t.y.6.3.E.R.P.P.v.x.5X$XsXN.A.3 5 1 1 0 0 0 8 { ; o @ [..X X X X X X X|.@ . : ( ~ ( ` X.' W Q e +.| C K G p L U c kXgXhXrXeX<XbXvX",
"E._.2.,.y.t.e.e.e.0.i.1.3.E.W.W.P.h.j.S.C.sXuXB.3 5 1 1 0 0 0 0 8 8 # . G.OXXX X X X X XOXs.  % ' W W W Q ` W 7 ~ r +.K V V A E R j x uXuX-XtXqXmXnXW.",
"(.(.<.y.t.e.e.e.e.0.>.^.).R.P.P.c.h.j.S.Z.B.B.< 3 5 1 0 9 0 0 8 { *   &. X X X X X X XOX{.o + t ` W W W Q ` / ~ ( ^ J O.Z 9 b E I s pXuX;X5X2X<XbXMXT.",
"(.<.y.u.e.p.e.r.y.>.<.(.T.P.P.h.v.z.F.V.Z.N.B.4 4 5 1 9 0 0 8 ~ ; O O ].OX X X X X X XXX$.  : o.e ' W W ' X.e _ ! ~ } F Z u k j xXkX-XZ.eX2X>XbXW.T.).",
"<.y.u.e.w.w.e.y.5.<.^.J.W.Y.c.v.x.z.F.V.N.A.3 4 2 2 9 0 0 8 7 7 $   f.OX X X X X X XOXf.  $ ' ` X.X.` ) X...e ^ ! ] [ i R U g h xXlX-XV.4X<XY.W.T.(.:.",
"y.t.e.w.q.9.u.5.6.^.J.R.U.bX<X6Xx.V.V.N.N.4 4 2 2 > 9 9 8 8 ~ - o $.XX X X X X X XOX].+ o =  .' e ......+.+.^ [ S ] 0 u R U x aXaX:X4X2X1XbXbXT.).:.1.",
"t.e.w.q.9.u.<.5.2.(.R.W.bX,X2X2X#XZ.B.B.4 4 4 2 > 9 0 8 8 ~ = + o {.OXXX X X X X X.X*.X *  .W ( ) X.+.+.+.K C D D u u k U m kXiXdXC.2X6Xc.Y.NXJ.2.5.y.",
"9.w.q.w.u.y.2.2.).T.W.Y.<X7X2Xg.sXuXiX4 a f f > 9 9 { 8 7 ~ $   s.OX X X X X X XOXG.. # 7 W ~ ~ _ +.+.+.+.O.F D Z b L c a gXkXhXtX4X7X,XY.W.E.(.<.y.t.",
"w.w.w.e.t.<.2.).T.R.Y.<XqX4X3XC.B.iXs s d j g u ] ] { 8 ~ ; o @ |..X X X X X X.X}.@ o ; W ~ ~ ! w +.O.+.O.@.N u > g c 4 3 *XlX;XrX2Xb.Y.W.E.).5.>.t.e.",
"q.e.u.y.,.5.2.T.W.I.>X<XeXtXsXuXiXa s c L L b u ] ] { ~ 7 @ . H.OX X X X X X XOXs.  * / / ( / } H +.O.@.@.F i > 1 f c a pX;X$X3XqX6XbXMXE.T.^.1.i.u.w.",
"w.u.y.,.<.^.E.W.Y.>X<XeXtX:XpXiXa h d L P D Z p ] ] ! ~ *   *..X X X X X X XOX'.. @ 7 / } } } J G D A N D R k f f x kXgXlX-XV.3XqXbXW.E.(._.<.i.u.9.q.",
"u.y.,.<.^.T.MXbX>X<X4X5XhXgXgXfXd j k P D D Z p ] ! ~ ; o @ [.oX X X X X X.XXX$.o - ~ ! C K K F D i u u b L U c I *XfX:X;XeX2XqXbXP.K.T././.i.u.9.q.q.",
"y.1.<.2.T.R.bXb.6X2X#XdXaXxXxXI k L P N A A S [ ! ! ! $   f.OX X X X X X XOXd.  $ ! ! ] p K F D Z u 9 > 2 j m lX*XiXA.%XrXqXqXmXY.R.T.^.:.>.t.e.w.q.e.",
"y.:.2.).T.Y.6X6X2X%XsXaXaXI U U R P N Z V p V ^ ! ( * X &. X X X X X X XOX].O O = ! ] ] p D D P b u > > 2 z lXlXpXA.Z.4XqXqXmXbXR.T.^.<.,.t.e.w.q.e.t.",
"2.2.).W.Y.>X7X5X-X$XfXl I U Y P R D A p / / / ^ ' = O O ].OX X X X X X X X%.X * ! 8 ] ] p Z i b b f 2 2 a x lXlXhXsX5XqXqX,XY.Y.L./.<.>.t.e.w.q.w.u.i.",
"2.(.T.Y.k.8XtX-XuXuXx I U E R N D D C ^ / / ( / / $   d.OX X X X X X XOXf.  $ 8 8 0 9 ] u u u f f f f h fXkXlX-XsX3XeXqXmXI.P.W.J.:.,.u.e.p.q.w.e.y.5.",
").T.Y.>X6X5X:XhXiXs c k L N D A H H w / / ( ( Q ; X $.XX X X X X X XoX[.+ o ; { 9 9 9 > > 2 2 2 2 4 s gXkXlX-XC.V.x.<XmXbXP.R._.^.1.y.e.e.w.w.e.t.,.2.",
"T.Y.bX6X3XjXhXgXl z k i A A H K K e ) / / ( Q ! + o '.OX X X X X X X.X*.  * { 9 9 > > > 2 2 5 5 3 3 iXfXhX;X3XS.z.6XmXnXU.L.T.(.>.i.t.9.w.w.e.u.y.6.2.",
"W.bX<X3XdXfXfXx k b i Z A S C w X.e ` _ / / Q %   s.OX X X X X X XOXH.. @ , 9 > > 2 2 2 2 5 3 3 3 A.B.B.sXeX2Xx.6XmXnXMXT.T.3.<.i.r.e.w.w.u.t.y.<.(.E.",
"Y.6X4X-XpXfXc j g i Z S C ) ^ / ) ) e ` ) ` : o @ }.oX X X X X X.X|.@ o - { 9 2 2 2 2 5 5 5 3 3 N.B.Z.V.C.4X2Xv.c.bXMXMX).3.6.y.t.e.w.w.u.y.y.4.2.T.I.",
"n.3X-X&XfXz k B Z V V C ) _ ^ / ^ J K K X.w # . G.OX X X X X X XOXs.  % { 9 2 2 5 4 h h 4 A.N.N.N.Z.C.x.2X7Xv.h.Q.MXMX3.6.6.y.t.9.w.q.e.t.y.4.2.E.W.b.",
"3X-X-XfXz k N A V C ) ` ) _ ^ ^ [ J K K ..:   *..X X X X X X XOX{.o + 6 { 2 5 3 4 4 aXaXiXB.N.V.V.x.4X7X<Xb.h.Q.W.MX3.6.<.1.u.e.w.q.e.t.i.<.:.T.U.bXn.",
"-X:XfXz k B A V ^ _ e J } [ p V S H K K G # . {.OX X X X X X XXX$.. - h 5 4 3 3 < B.pX:X$XC.C.V.x.8X<X,XmXbXY.Q.R.).6.<.>.t.e.w.q.w.u.y.4.6.).W.bX7X4X",
"&XfXc b i V H r r e K J S p A D A A H K n O $.XX X X X X X XOXf.  $ a a 4 4 < N.B.uX&X;XtX5X3Xz.z.v.b.mXnXNXW.L./.2.4.,.t.e.w.q.w.u.y.5.5.3.T.Y.6XtXtX",
"gXj k Z p p w e r J C A p i Z N Z Z Z G y . %. X X X X X XOX].O O : z pXiXB.B.B.C.%X-XrXrX2Xx.j.j.h.Q.bXNXNXR.J.:.4.a.u.e.p.q.w.u.t.>.:.^.R.Y.>X4XdXdX",
"c k Z V } _ ` r H S A Z i b g i i i P P v + + |.OX X X XOX X%.. * h uX*X-X$XsXC.C.C.3X4XqX2Xv.h.h.h.I.MXMXE.(.:.4.y.u.e.e.q.w.e.t.>.5.2.R.bXbX8X-XdXa ",
"k N A J ) ` ) w V Z Z b b b g g b k Y j g % . *.[..X.X X[.%.. # < B.uX:X;X=X#XV.V.S.z.6X<X<Xb.c.Q.Q.W.E.).).6.,.i.u.e.e.w.w.e.u.i.<.2.E.W.bX7X#XdXiXs ",
"N A J +.` ` J S Z L k j j c j g j j z s f 6 @ . @ *.s.&.O   @ : B.N.dX-XrXtX3Xz.S.S.v.c.>XmXbXY.W.E.).(.^.:.,.i.0.e.p.w.e.e.u.y.4.2.E.W.Y.2X5XhXfXs L ",
"p / ` ` ` C A N L Y I I m I x c s a s fXaXaX%X% O .   . @ % M.uXC.sXsX#X4XeX2Xz.S.v.h.c.Y.vXNXMXE.3.(./.~.>.y.u.e.p.w.9.u.u.i.<.2.T.R.mX7X3XsXaXl k N ",
"^ _ ` ` C A i k Y m s l kX*XgXkXfXiXfX&XpX*XkXfXg.m.`.m.%XdXsX$X$XC.V.S.n.<X7Xn.v.v.P.Q.W.NXMX3.3.6.:.>.>.i.u.e.p.w.w.u.u.i.1.:.3.W.Y.6X4X$XpXl I b p ",
"_ ` ` J H D k j x uX< N.&XfXpX&X-X;X;X#XB.$X=XC.Z.dXsXsX$X=XeXrXeXD.S.j.v.6XmX>XQ.P.P.R.E.E.3.6.6.6.,.y.i.u.9.w.q.p.u.r.y.4.:.).MXY.c.2X%X-Xl Y P p ^ ",
"#.` | K N L c l *XpXC.#X;X-XsXC.=X0XrX#Xg.%XrX#XV.3Xg.F.x.4X4XeXqX3Xj.h.v.Y.mXbXW.T.T.(.3.3.6.6.4.,.y.u.u.9.w.q.w.u.u.y.<.:.2.E.bXn.x.4XpX*XY L i [ _ ",
"` J H G U c a uX:X#X=X=XrXeX2X2X2X3X9X9X9X9X0X9X4X9X2Xx.8Xv.z.2XqX<Xb.c.Q.bXMXNXMXE.3.3.3.6.5.4.y.i.t.t.u.w.q.w.9.t.y.>.^./.T.Q.n.x.3X-XiXz L A H _ ` ",
"_ H F P c lXpX%XeX3Xx.2X2X2X9X<Xn.n.6X6X<X1X6X<XqXqXqX<X<Xc.h.b.mXmXbXY.U.MXMXMX3.3.3.2.:.<.,.y.u.u.u.u.9.w.w.e.u.y.1.>./.T.P.b.8X3X-XkXx k Z V K e ` ",
"C A P U gX*X-X4X4Xn.b.n.6X1X,X,X1X1Xk.c.,X>Xh.>XwXqXqXqX,X>Xc.!.Y.vXvXMXE.E.).3.6.6.5.<./.>.t.t.e.u.u.w.w.w.e.u.u.4.5.^.J.W.!.7X3X$XpXkXY i V C ` ` r ",
"G R c m &X$X4X6X1Xk.>X>X,XnXvXI.U.nXvXY.bXmX1X,XqXmX>X1XmXnXvXY.P.I.MXT.J._.).6.6.5.5.>.>.i.t.u.u.e.w.w.w.e.u.i.,.5.^.J.I.mXqX4X#X-Xs f B S C ) _ r C ",
"B m x *X;XeX6X>X,XvXvXU.vXR.U.R.T.vXvXk.b.mX,XqXqX<Xc.c.Y.nXnXbXP.L.E.(.~./.(.6.5.5.5.i.i.t.0.9.w.w.w.9.e.u.i.,.6.^.K.P.Y.<X0XrX:Xs d i D J ` ` ` _ p ",
"k x lXzX0XqX1XnX+X+XU.+X;.J.;.E.I.I.Q.>X<X>Xn.<X6X6Xb.c.Q.bXNXNXW.T.3.2././.:.5.1.y.y.y.t.0.w.q.q.w.9.e.u.t.>.:.3.T.W.Y.c.7X5X:XgXz U A K ) ` X.^ V B ",
"m kX;X9X1Xk.W.+X+X;.;.@X3.2.;.E.Y.bXb.6X1X1X1X>Xv.b.c.Y.W.vXNXMXMX3.2.(.(.:.1.y.i.t.t.u.e.w.q.q.w.e.e.r.y.>.>.2.MXNXnXb.x.4XsX*Xa L i V +.X.` e C D Y "
};
