/* XPM */
static char *result[] = {
/* columns rows colors chars-per-pixel */
"75 75 254 2 ",
"   c #DA7C3D",
".  c #B77769",
"X  c #BE7C6E",
"o  c #B96E73",
"O  c #AC7A7C",
"+  c #BD7574",
"@  c #BB7B73",
"#  c #B3757C",
"$  c #B37A7B",
"%  c #B87978",
"&  c #D37C4A",
"*  c #CF7953",
"=  c #C87759",
"-  c #C77A67",
";  c #C37B6B",
":  c #D17D63",
">  c #C27971",
",  c #D6843F",
"<  c #BB9159",
"1  c #B6AE56",
"2  c #BDAA5E",
"3  c #BBB85A",
"4  c #BBBB5C",
"5  c #97997C",
"6  c #BA876A",
"7  c #BC8C6C",
"8  c #AB906B",
"9  c #BA9769",
"0  c #B49C6D",
"q  c #AA877B",
"w  c #AB8C7C",
"e  c #B78574",
"r  c #B48B74",
"t  c #B2827B",
"y  c #A19575",
"u  c #AD9576",
"i  c #AC9C75",
"p  c #A5947E",
"a  c #AB947B",
"s  c #A59B7D",
"d  c #A99B7A",
"f  c #B49372",
"g  c #B79377",
"h  c #B19A72",
"j  c #9FAC6D",
"k  c #9BA87C",
"l  c #9BB67A",
"z  c #A9A66C",
"x  c #ADAB6D",
"c  c #BBA364",
"v  c #B7AA67",
"b  c #BBAB63",
"n  c #B4A36B",
"m  c #B3AC6A",
"M  c #ACB46D",
"N  c #A6BA6B",
"B  c #ACBC6C",
"V  c #B4B465",
"C  c #BBB364",
"Z  c #B5B967",
"A  c #ABA374",
"S  c #A7A876",
"D  c #ABAC72",
"F  c #A4A37B",
"G  c #A3AC7B",
"H  c #B2A573",
"J  c #A5B474",
"K  c #A4B776",
"L  c #AAB472",
"P  c #B7B879",
"I  c #DA844D",
"U  c #D6884A",
"Y  c #D0944E",
"T  c #CA885A",
"R  c #D48553",
"E  c #D88757",
"W  c #D38B54",
"Q  c #CA9659",
"!  c #C59C5D",
"~  c #C8A956",
"^  c #C3A45B",
"/  c #C3AB5B",
"(  c #C4B458",
")  c #C68666",
"_  c #C49763",
"`  c #D39070",
"'  c #E29E74",
"]  c #C2A663",
"[  c #CBAF6E",
"{  c #B9C55A",
"}  c #B2CD5B",
"|  c #B4CB5C",
" . c #9DC075",
".. c #ADC566",
"X. c #ACC26B",
"o. c #ADC66F",
"O. c #B2C463",
"+. c #B5C765",
"@. c #C4C266",
"#. c #7C77AA",
"$. c #7E7BAC",
"%. c #7D6DB6",
"&. c #7867BA",
"*. c #7B65BD",
"=. c #756DBE",
"-. c #7B6CBB",
";. c #6F70BE",
":. c #7D75B5",
">. c #7578B6",
",. c #7D7BB3",
"<. c #7672BC",
"1. c #7A73BB",
"2. c #6D5ECE",
"3. c #735EC8",
"4. c #675BD4",
"5. c #6A5DD2",
"6. c #6E6AC5",
"7. c #6E63CC",
"8. c #7465C5",
"9. c #7867C3",
"0. c #746BC3",
"q. c #7164C9",
"w. c #7A74C8",
"e. c #6B60D0",
"r. c #786CD5",
"t. c #966C8E",
"y. c #9C798C",
"u. c #9A6E99",
"i. c #9A6D9A",
"p. c #8A769E",
"a. c #8E7D9E",
"s. c #9D7494",
"d. c #9B7C93",
"f. c #94749D",
"g. c #99739A",
"h. c #967A98",
"j. c #937B9C",
"k. c #A96F8D",
"l. c #AC7583",
"z. c #A67B87",
"x. c #AB7B84",
"c. c #A5748D",
"v. c #AA748A",
"b. c #A37C8B",
"n. c #B27582",
"m. c #A37392",
"M. c #A27A91",
"N. c #866EAD",
"B. c #8C6BA8",
"V. c #8B6CAB",
"C. c #926DA3",
"Z. c #8775A4",
"A. c #8C74A5",
"S. c #857DA5",
"D. c #8C7CA4",
"F. c #8574AD",
"G. c #8974AA",
"H. c #847CAB",
"J. c #8A7AA9",
"K. c #9273A2",
"L. c #937CA2",
"P. c #8363B4",
"I. c #836BB3",
"U. c #8568B4",
"Y. c #8274B2",
"T. c #817AB1",
"R. c #8A79BC",
"E. c #9C7FB0",
"W. c #8477C5",
"Q. c #7D86A7",
"!. c #7C82AB",
"~. c #7484B2",
"^. c #8B8E8D",
"/. c #9E848D",
"(. c #978C8A",
"). c #9C8C8C",
"_. c #9D9486",
"`. c #979985",
"'. c #9D9C85",
"]. c #95948E",
"[. c #9B938B",
"{. c #959C8D",
"}. c #9B9A8A",
"|. c #8D849D",
" X c #898899",
".X c #8C8B9C",
"XX c #958595",
"oX c #9A8492",
"OX c #948C94",
"+X c #998B92",
"@X c #92839A",
"#X c #99839A",
"$X c #928A99",
"%X c #8D9395",
"&X c #8B9997",
"*X c #8C929C",
"=X c #939393",
"-X c #979495",
";X c #939A92",
":X c #A58485",
">X c #AB8482",
",X c #A58D84",
"<X c #AA8B83",
"1X c #A2838B",
"2X c #A28B89",
"3X c #A39483",
"4X c #A49487",
"5X c #A29B83",
"6X c #A99094",
"7X c #8EA787",
"8X c #9CA383",
"9X c #98A787",
"0X c #92A891",
"qX c #A5A784",
"wX c #ABAF91",
"eX c #8484A4",
"rX c #8B83A3",
"tX c #858BA3",
"yX c #898BA1",
"uX c #8483AA",
"iX c #8787AA",
"pX c #988AA6",
"aX c #8C92AB",
"sX c #9694A6",
"dX c #8987B7",
"fX c #AF9BA5",
"gX c #97A1A0",
"hX c #B3ACAE",
"jX c #CF9286",
"kX c #D4A994",
"lX c #E4B594",
"zX c #D2B3AE",
"xX c #E4BBAA",
"cX c #BBC891",
"vX c #BCC4AC",
"bX c #CECF8F",
"nX c #D0CAB4",
"mX c #EAC8B0",
"MX c #DEE4B8",
"NX c #B9B6C7",
"BX c #CCB9C4",
"VX c #D2D2CB",
"CX c #ECD6CD",
"ZX c #DCE3D0",
"AX c #EAE9D4",
"SX c #F4E6DB",
"DX c #DAD6E2",
"FX c #E6DAE1",
"GX c #EAE8E8",
"HX c #F4ECE9",
"JX c #F6F3EB",
"KX c #F0F0EF",
"LX c #F9F6F4",
"PX c #FEFEFE",
/* pixels */
"6XwX#XsXaXaXiXdXdXI.T.dXdXdXQ.aXpXsXsXsXsX#XpXpXpXpXpXE.pXdXdXdXR.dXR.R.W.W.W.W.W.r.r.r.r.r.r.r.r.r.w.w.W.dXdXdXdXsXsXsXgX0XwXwXqXP [ P [ @.( P H qXqX",
":X=X Xa.p.#.#.:.%.=.>.>.>.!.Q.tX X Xf..X.XXXu. X$X|.f.p.S.F.H.#.U.I.<.*.*.8.3.3.2.5.2.4.4.4.5.2.7.6.6.<.-.I.I.uXiXK.f.%X].}.p k K L B +.| } Z N N A G ",
"=XXX|.S.Z.P.&.&.&.;.>.>.$.S.yX.X X$X X$XXXXX@X*X|.f.A.A.J.V.Y.:.1.-.<.0.8.6.2.2.e.5.5.4.4.2.2.6.0.0.<.1.U.U.C.iXpXu.XXoXz.O w J K Z +.} { +.Z 7 S 4X>X",
"OX XC.N.#.*.&.;.;.~.~.>.eXtXj. XXX%X=XXXXXXX$X X|.a.a.G.H.F.Y.:.1.1.0.0.q.6.7.2.e.4.4.5.2.2.q.q.0.<.1.>.Y.V.L.yXrX$X+Xz.<X3XG D M ..| } ( 4 X.i s 8X).",
"@XD.B.#.>.&.8.;.;.~.~.Z.tX Xh..XXX=X%X%XoXoXd.@X|.j.K.G.H.F.Y.%.-.0.0.9.q.7.2.5.5.4.e.e.6.q.q.0.<.T.,.,.F.J.iX*X*X%Xb.v.8XqXL _ M 4 3 | Q n  .l 8X).;X",
"|.Z.N.>.%.3.;.;.;.!.S.eX X XOX+XoX{.{.;X+XXXOX#X.Xa.A.S.F.T.Y.1.-.=.8.0.q.2.5.5.5.e.q.q.q.8.0.1.1.R.T.N.V.J.iX*X%X=Xz.,X8XG g 9 ..2 2 O.n A a k 9X+X$X",
"S.N.P.%.&.8.;.&.#.!.Q. X XOXOX/.].}.].).+X=X+X$X#XL.Z.A.F.,.T.-.=.0.q.q.7.e.5.e.e.q.0.9.8.*.-.%.U.U.F.G.C.K..X*X&X).l.q qXH ) M ..| V B l i F 9X{.^. X",
"Z.N.&.&.;.3.;.&.#.eX X&X;X].(.(.[._.}.].].].oXoX@X@XL.G.H.F.:.-.*.0.0.q.7.7.5.7.q.0.0.=.0.*.1.:.V.N.F.S.K.L..X=X;X).n.q qXL L V 2 3 ) M J l 7X7X0XQ. X",
"$.:.%.;.;.;.>.$.eX|.XX%X].(._._.4X4X4X9X[./.+X+X$Xj.D.G.J.Y.%.-.0.0.q.q.7.2.2.3.q.0.*.1.=.-.:.,.F.H.uXQ.Q.#. Xh.[.[.q 5XK K L _ ! m n A a 5X8X7X&X XS.",
"#.#.>.;.;.~.~.!.|. XXX[._._._.5X3X3X5X3X_.).+XoX$Xj.a.G.F.F.1.-.=.q.6.6.q.2.8.q.0.-.-.-.%.%.,.,.H.F.Q.sXhXVXhX6X].`.8XG D o.B b v L N i qX4X8XQ.&X XS.",
"#.:.;.;.:.>.S. X XOX(._.,X5Xp s s p 5X'.}._.[.+XXX@XL.A.F.,.:.<.0.6.6.7.6.6.0.q.0.1.P.-.U.I.$.T.N.pXDXPXPXPXPXPXVX9XF r A M c V N N J F 8X}.].0X.XS.eX",
"$.~.~.%.%.S.|. X;X].'.,Xw d s F F s a p 3X,X].+XOX@Xj.A.H.H.:.*.9.0.6.6.0.8.=.<.-.-.-.I.I.Y.F.S.dXKXPXPXGXFXGXPXPXGXw e A 7 T m o.l qXs ,X7X=X&X.Xp.Z.",
"!.~.>.,.Z.p.@X(.2X3X3X4Xp d d S F s s d 5X:X[.].OX@Xj.A.S.F.Y.-.-.0.0.0.0.1.<.-.%.1.:.F.F.F.H.S.FXPXKXhXs.y.1XzXLXPXnXj n ) 7 m  .l l 5X).(.(.%X XeXeX",
"$.$.#.$.p.XXOX(.:X3XF d F d u F F d d s 5X5X}.[.+XOX#XA.G.V.Y.1.<.9.0.-.-.>.>.%.:.,.,.F.B.F.$.NXPXPXfXt.d.+X_.5 ZXPXVXj 9 9 m J l l qX9X{.`.%X$X XQ.Q.",
"$.!.Z.|.XXd.[._.3Xs 5XF F S i h i i a p s 8X`.].=X@Xj.K.J.G.I.1.-.-.-.>.>.>.,.I.I.F.H.H.G.Z.aXLXPXVX X|.+X{.0Xk VXPXZXz x M N l l l 9X9X`.0X%X X X XeX",
"Q.eXyXXXd./.[.3X,Xs d d i i i u d A s F F _._.].;XOXj.K.K.iXT.,.U.-.>.:.Y.,.Y.T.H.H.H.eXZ.p.DXPXKX#X@X%Xc.].7Xs GXPXnX6 0 J J J k k k `.0X].$X&X X*XtX",
" X*X%X].(.[.'.3X<Xd d u u u d A d u i 5XqX_.b.).-X%X.XrXC.D.Q.~.,.>.,.F.N.N.N.$.H.S.S.rXB.NXPXPXhX@X+X&X].{.5 nXPXLXwX9 0 A h d F s 3X:X{.(.OX&X%X X X",
" X$X%X].(._.5X3Xs a u u i i A S A a w w _.4X/.b.+X%X.X.XyXrXiX!.!.!.$.V.G.G.B.A.S.D.rXp.f.KXPXDX@X-XoX/.7X7X0XPXPXVXj K n f r e s s 8X'.7X`.;X;X(.XX X",
"OX(.].[.[.,X,Xp k a r d F h u i i d w <X4X}.)./.oXXX@X.XtXtXtXQ.H.G.H.S.D.tXeXD.yX*X X XVXPXKXsXd.-X).1X].5 ZXPXJXf h X.L S u d s q 8X'.'.0X[.].].OXOX",
"/.(.)._._.,X3Xp s d a i d F F i F s 3X3X2X}.=X[.+Xd.h.@X.XyXtXQ.uXC.C.tXyXrX*XtXD.|.p.hXPXPXzX^.).;X(.[.7XzXPXPXvXj N l D i J l s k l k 8X`._.`.{.].+X",
"(.).1X_.3X3X'.5Xs s a w a d s F 5XqX5X}.}.[.;X;X=X@Xs.u.@XyXyXtXtXQ.K.yXyXg.a.*Xh.f.XXGXPXFXt.=X0X{.2X,X9XHXPXZXl K J z r r d l l l k k k '.p '._.[.].",
":X)._.4X3X3X_.5X'.p p p a 3XF qX'.'.}.}.[.].).-X;X=Xh.u.g.j.j.yX*X&XyX X*XXXh.$X$X^.VXPXLXfX/.].7X[.}.9XVXPXLXqXz g 0 J D J K K u r F k k k s s 8X_.y.",
":X4X_.2X,X_.3X,X,Xp p ,X<X3X5X'.'.'.}.}.+X1Xb.M.+X=X=X#Xh.h.C.i..X@X.X&X&X&X%XXXt.fXLXPXBXc.b.z.2X1Xx.wXPXPXzX. e ; 0 J D F S J i r F J u i F p 4X_.z.",
"_._.4X,X4X,X_.,X,X4X,X,X<X3X_.}.}.}.{.;X[.1XM.M.M.+X&X;X$X-Xm.k.s.s.m.=X;X=X].&Xy.FXPXGX1Xv.z.z.x.5X5XGXPXGXy f h h D D D ) g J J K K L h h G a 3X_.q ",
"_._._.4X4X].).2X)._.4X[._.}.[.-X-X[.=X=X=XoXy.M.k.M.+X;X=X=XOXm.c.M.k.c.-X1Xk.(.vXPXPXhX`.,X_.>Xn.5 nXPXLXwXj K L M 0 0 D ) 7 L M z L x L h u s 8X_.5X",
"_._._.).[.).1X).).).[.].[.=X-XOX+XoXoXOX;X].oXc.k.M./.].(.b.+X+Xb.).y.l.2X_.n.1XLXPXVXl.z.8X9X5Xq wXPXPXxX8 K K K N 0 x M 7 ) n 9 _ m _ 9 h d s '.'.3X",
"3X[.)./.].).+XOX+X+X+X-X=X=XOX$Xh.d.d.d.XXOX+Xd.c.c.c.).).v.k./.`.9X{._.2X9X2XCXPXKXqX3X# p 8Xk k ZXPXKXqXJ K N B L M B N m ) ) 9 V O.v 9 D d s p 3X4X",
"2X).(./.+XOXXXXX$XOX$X-X$X.X.X Xj.g.s.g.s.XX;X;X/.b.b.b.v.l.k.l.'.9X9X9X8Xk hXPXPXzXy 4X5XF u y nXPXPXcX8 g n M 9 _ M X...X.V _ C Z b X.H h d 3Xp ,X:X",
"_.].+XoXXX$Xh.#X@X$X$XyX.XyXyXyX@Xf.i.i.u.s.oX;X].(.:Xl.l.l.k.o w 9Xl 9Xl 9XJXPXVXy % % a l S qXKXPXCX8 7 - 6 n ) ) c ....V 1 O...C v 9 x G a q 3X4X2X",
"[.=XXXoX@X@Xj.L.D.D.D.yXrXeXeXeXrXK.i.i.i.s.s.(.;X9X_.x.n.n.n.n.t F k F j VXPXLXjX$ r o @ d z ZXPXJXg z A ) 9 v ` _ V ..O.Q W 4 ^ V B 0 0 i F p w 4X_.",
"M.OXXXj.|.rXrXrXA.G.G.H.uXH.H.uXeXD.K.i.i.u.k.d.].0X}.:X# n.# o % r F 8 kXLXPXnX. > f f e . kXLXPXbXN B X.M B O.Z / _ ^ | ~ ( 3 Q V N x e u s 5X}.4X[.",
"XX$X@XD.D.D.rXJ.F.F.F.Y.Y.F.N.G.H.uXrXf.i.u.s.y.).{.'._.# o o o + + 7 8 FXPXGXz f X 6 D D 9 HXPXFX6 m X.X.......O.! R W { | | Z b V 0 7 r a 8X,X4X].+X",
"OX|.rXZ.J.J.F.T.,.:.,.>.U.P.P.B.N.H.iXrXa.g.s.d.1X2X4X4Xq % o > > > o xXLXLXjX7 J z 0 N N MXPXLX` = ) v o.O.Z O.} / Y ~ | { ( ^ Q 0 ; f i d 4X8X).).XX",
"@XrXD.G.F.F.Y.:.1.1.<.>.U.P.P.P.U.F.yXyX.X@Xd.b.c.x.>X<Xw # > > > = jXLXPXxX= > m N N N cXLXPXnX< - : _ O.^ ^ | | | { ( { { E _ 9 n z J d 5X<X2X).XXd.",
"D.D.H.F.Y.,.1.-.*.=.0.0.9.U.P.P.B.C.iX*X%X$Xd.v.v.n.n.% $ e > - > : CXLXHX) : : 6 V ....AXPXSX..Z _ _ C +.~ @.} } } ~ I ~ Z ] _ ) 7 S G qXqX<X).-XXX@X",
"rXJ.,.R.Y.9.-.9.3.8.6.0.w.1.U.N.V.L.L.$X%X+X1Xv.n.n.# + @ @ > > = kXLXLXkX) ) : T V ..MXPXPXbX} O.b ^ 4 { { { ( { { ~ I ^ O.B 9 6 u r d 3X4X[.+XXX@XrX",
"H.J.T.-.-.0.0.6.3.q.8.0.,.T.Y.G.V.C.i.M.OX].1Xl.n.n.> > > . - - ` JXLXCX* ] ] _ _ 2 o.LXPXMX} | ^ W U W ( { Y U Y 4 +.( b Z M 7 D G d 8XqX}.;X$X.XrXrX",
"T.F.Y.9.0.q.6.7.7.3.3.-.Y.T.H.J.C.i.i.m.M.1Xz.x.n.# > > > > - = CXPXJX` T / Z C C 4 AXPXJX+.| { Q R I I Y ( Y I E ( +.C ] 0 x K G a s 2X1X[.=X%XyXtXH.",
"R.Y.0.0.q.7.7.q.q.3.P.I.T.G.B.C.C.i.m.m.v.z.z.n.# # > > > - = jXLXLXlX= Q / O.+.| bXPXPXbX} } | ~ U I U Y ( Y W Q ! C o.v ; 0 K S t ,X:X-X+XXXyXrXuXF.",
"-.Y.0.q.7.e.e.6.0.*.-.Y.Y.C.C.i.s.u.m.k.v.x.# # % o o > - - : HXPXCX* E W ^ 4 { +.JXPXMX( { { { { Y U U ~ ( { ~ T E c X.0 7 u u qX8X4Xz.=X#X|.rXH.H.T.",
"-.0.q.7.5.5.q.0.1.I.I.I.J.D.K.g.h.m.c.v.l.n.# $ + @ X - - = xXPXPX` & * I W / ( MXPXLXQ Y Y ~ ( { { ~ ( @.{ Z ! ) _ _ H L G r t qX9X).m.$X.XL.J.F.Y.Y.",
"0.0.7.5.5.2.q.-.<.I.U.G.S.yXyX@Xd.m.c.l.l.# % % @ @ ; - - ` LXPXxX& : & I U U [ PXPXlXU I I U ~ { } | | +.O.! _ c ) - 7 J qXp <X4X}.-X+X$XyXrXF.Y.:.*.",
"q.q.5.5.e.q.1.1.:.Y.V.J.rX X$XXXb.z.v.x.$ O $ X ; ; - - = CXPXHX: I I I I I I HXLXSXY U I I I W ~ { +.+.+.O.v M M 6 ) i J 9XqXt :Xb.XX@Xf.D.uXV.Y.1.9.",
"2.5.5.5.q.0.1.Y.T.F.Z.D.|.$XXX1X1X1X>XO t t e X ; ; ) = zXPXPX'   E & I I   mXPXLX[ Y U I I E E ~ | O.o.+.+.B M n h F i w 5X9X4X-XOX$X.XD.G.J.Y.1.0.q.",
"e.5.e.7.9.-.:.T.F.A.A. X*XOXoXb.z.>X<Xg w f g 6 ) ) : ` LXPXmX& E I I I I ' LXPXmX, Q W U E E Q 2 Z ..+.o.o.m 9 X r d $ # '.0X}.;X@XL.L.J.iXT.1.*.q.2.",
"5.e.q.0.9.1.:.H.A.L.|.$X-X).1X:X:X>Xw 5XA H h 7 ) ) = CXPXJXE I E I I I   CXLXSXI U W Q Q Q Q ] V ..X.X.o.L h ; X r d t ,X}.+XoX%Xj.rXuXT.N.I.-.8.q.2.",
"e.q.0.9.-.I.T.S.D.rX.X=X-X[.<X<X<Xt g G D L n _ ) T lXPXPXlX& E E I '   lXPXLXlXI E T Q ] ] ] [ Z B M m M L i e e p qX'.0X[.c.#X*XrXJ.uXF.I.-.8.q.2.5.",
"7.0.-.-.I.Y.uXrXyX%X$X-X4X5X5X4Xw f i H L m n 9 T ) JXPXmX& W E E E I E LXPXmXI E E T _ ] C Z B M n 7 7 f S S d s 8X4X}.{.+XoX.XrXC.G.Y.I.U.9.q.2.4.5.",
"9.9.-.Y.Y.H.D.j.@XOX/.1X<XqXF F i S D x m m 1 9 T mXPXLXE U W W I I & CXPXJXE : E T T T c Z B M n ) X X e u G 9XF >Xn.).;X%X*XaXD.F.G.I.-.-.8.7.5.4.7.",
"w.-.:.T.G.D.@X@XoX).2X<X<XqXG S J x x n c 9 2 < [ PXPXlXU E R R E & kXPXPXkX* E - = ) ) 9 L M x f 6 X X @ w 8X8X,Xn.v.OX*X*XyXyXG.G.I.-.9.q.7.5.4.e.q.",
"1.Y.Y.H.D.@X#X+X).).3X3XqXG S L J N v 9 Q ) Q Q SXPXSXU W R R R R T JXPXCX* ) : = ) ) ) 9 H 0 i f e + % t 5X8X9X4X1X+X%X*XyXD.D.B.U.%.*.9.7.5.4.e.q.9.",
":.Y.H.Z.rX#X-X[.2X>Xs F S L L D V M b ! Q Q Y mXPXLX' U T R R T * mXPXLX` = T - - - ; ; 6 7 6 e e e t t 4X'.9X[.1XXX=X*XyXK.V.J.N.1.-.q.7.7.5.5.q.0.1.",
"Y.H.D.rX@X+X}.2X>Xq d d A m M M V V 2 Q Y U ' LXPXmXY W W T T * jXPXPXxX= ) - - ) - X X e > @ @ . $ <X5XqX9X].z.c.d.*XtXrXC.G.G.U.9.0.q.e.4.5.7.q.0.1.",
"H.J.rXXX1X1X4X5Xp u i 0 n M V V Z C / Q ~ Y AXPXHX( Q Y W T T T HXPXSX= - - ; ; X X X . > @ % % # O <X4XqX-XoXm.m.@XtXtXH.V.N.Y.*.9.q.2.5.e.7.0.0.>.Y.",
"J.rX$XXX2X4X4Xs u h 0 v v V b 2 { 3 ( ~ Y bXPXPXbX( / Q Q T = mXPXPX` . ; ; ; ; X @ @ @ % % # # # x.>Xx.1X-XXXd.j.yXiXuXJ.T.T.w.0.6.7.4.5.q.0.0.1.:.T.",
"D.XXOX[.2X4Xd g r 9 0 v 2 ^ ^ Q / ( @.( ] JXPXZX( { 4 V ! T ` PXPXmX= ; ) ; @ @ @ @ % % % % # # l.n.n.v.d.$XXXh.K.rXuXuXuXT.1.0.q.7.5.e.q.0.0.<.Y.G.A.",
"h.d.].3X3Xa A 0 n c b b / ^ Q Q ! C Z 4 ZXLXLX@.4 Z Z V c T CXPXGX; X ) @ > ) % % t t t >Xn.l.l.v.v.b.d.XX$Xg.i.K.H.uX!.1.1.w.q.e.5.5.q.9.0.<.:.T.K.f.",
"oX].}.3Xa u D z c c b ( / ^ _ ! ] C 3 bXPXPXbX1 M v V n < zXPXPXkX. @ X @ % % n.$ O t <X<Xn.l.c.c.1XOX.X*X#XC.C.J.uXT.>.<.9.0.6.e.5.e.q.9.9.%.Y.H.rX@X",
"2X}.5Xu h x x ! ! ^ 4 C ] _ _ b v V B JXPXAXV 9 9 ) n 9 7 LXPXCX. @ @ % @ $ $ # # x.,X}.2X1Xc.b.y.XX$X*XyXrXA.L.G.Y.>.-.*.q.7.e.5.5.0.0.w.1.,.S.rX$XOX",
"4X3Xd f 0 n V 3 2 4 { C b c v M x 1 MXPXLXo.n 9 6 ) 7 . CXPXJX% o @ q t t # x.n.x.2X2X].;X+XoXm.s.g.j.rXtXiXJ.B.U.:.1.9.9.7.e.4.5.q.9.1.:.,.G.D.rX-X[.",
"5Xu i n c c 2 ( ( C b V 9 9 m x 0 [ PXPXnXN D 7 6 6 . kXPXPXzX. $ t w 3X>X:Xz.z.b.).].;X=XOXs.m.s.u.K.rXiXuXV.N.%.<.w.0.7.e.4.e.2.9.-.-.I.F.D.@X+X+X<X",
"a u n n _ / ( 3 Z b v n 0 f f A 8 MXPXGXA A S h X @ r GXPXCXo $ $ # >X4X_.2X1X1Xb.y.oX+X%X@Xh.u.i.C.K.uXuXuXR.-.1.0.6.7.e.5.e.e.8.9.1.Y.G.S.rX@X-X<X:X",
"A x V ] / ( / 2 c m z f f r 8 7 9 HXPXnX6 r i S u q nXPXLX6XO # O l.:X}.{.]./.b.m.m.m.@XyXyXj.C.C.K.H.H.F.,.1.=.8.9.q.7.5.e.7.6.9.-.:.H.J.D.@X6X2X>Xw ",
"n m Z @.( ( C v n i h u u d u e <XJXPXwX. t a qXk wXPXPXnXO x.x.l.l.2X[.;X=XoXm.m.m.g.j.@XrXrXA.J.H.,.Y.U.-.-.*.3.2.e.5.e.7.q.0.<.%.T.uXL.XX+X4X4Xa A ",
"9 ! ( ( ( C M m A S d k F s p p a HXLXnXq q 5 5 qXGXPXGX3Xn.x.:X:Xb.1X6XOX=X#Xs.m.m.C.K.uXiXiXuXT.,.Y.U.*.*.8.8.7.5.e.e.q.q.8.-.>.F.G.rX.XoX2X<Xp i D ",
"_ ~ ( ( ] V 9 A S k y p 8X'.5XqXq VXPXLXnXhXhXnXKXPXPXfX_.1Xb.).+XM.v.m.h.$X$Xh.g.K.i.C.J.uXiXT.,.,.%.*.*.8.q.7.e.5.2.q.q.9.*.I.T.S.D.@XOX+X:X5XS f 9 ",
"/ ( ( [ M M i u p p # x._._.,X_.}.{.GXPXPXPXPXPXPXLXfXz.[.(.+X;X=XM.m.s.g.rXyX#XL.C.C.G.H.uX,.,.>.:.=.0.8.q.7.2.5.e.q.6.0.w.%.,.iXA.h.XX).'.a S x 9 ! ",
"@.( ( Z x i d p '.:Xb.1X{.[.b.b.;X{.;XBXGXLXLXGXBX6Xy.m.d.OXOX*X$Xd.i.i.g.rXrXiXD.G.G.T.,.,.,.>.<.w.0.0.q.2.5.5.5.q.0.0.9.1.T.H.iXj.M.-X1X'.qXh 9 ! ! ",
"( ( v N J s q :X_./.=X].;X=X(.oXOXXX%X^.%X-XgX%X^.%XXXd.XXs.s.@X*X.Xj.f.K.uXuXuXuXT.T.,.,.<.<.<.0.9.q.9.3.5.5.5.2.9.0.9.I.U.F.C.j.d.+X].>Xd S m V ^ ( ",
"/ Z N J d k ,X/.=X(.d.$XXXXX*X.Xj.t.XXj.*X.X|..X*X*X*X*X Xf.i.j.yXyXrXD.uXuXuXuX!.,.,.,.I.1.*.=.0.q.q.q.2.5.5.7.q.0.9.P.U.F.C.j.#X+X].8Xs u m 9 4 { ~ ",
"V m S k s }.(.+X+Xh.h.@X@X X XyX XeXa.f.tXa.u.|.yX*X*XyXyXa.f.D.L.eXiXuXH.uX!.,.,.,.<.9.W.*.3.q.7.q.q.5.5.2.7.7.0.<.1.I.G.J.j.*XoX).2XqXS 0 c b / ( 3 ",
"M J a k _.].+X@X Xp. X|. XQ.eXp.S.tXeXD.yXtX X X*XyXrX XyXyXyXD.C.A.H.F.N.Y.T.,.1.<.1.P.*.3.3.8.7.q.5.5.e.7.7.8.0.-.:.V.V.yXsX-X1X_.<Xr H b ] / ~ 3 2 ",
"A J '.'.7X=Xj.|. XeXeXeXeXZ.$.F.G.uXrXL.j.yX.XyX*XyXg.f.rXyXiXrXV.V.J.Y.U.N.Y.<.1.1.w.9.9.9.2.2.5.2.5.2.7.6.8.=.1.I.N.B.L..X;X-X}.<Xr u P b ( ( ( 2 9 ",
"u s 9X7X&X X|.yXQ.Q.Z.Q.$.N.$.#.Z.A.K.rX|.|.j.$X@XrXj.K.C.rXiXiXJ.F.T.Y.U.U.Y.<.0.-.9.9.3.2.5.5.4.5.2.q.6.8.*.*.Y.F.H.D.f.$X+X}.5Xa G m Z ~ ( { Q c A ",
"k 8X{.&X Xa.D.!.Q.#.$.~.,.,.!.H.D.rXj.@X.X X@X Xg.j.L.L.G.uXiXiXuX,.,.I.Y.P.9.w.8.8.9.0.2.5.4.4.5.2.q.q.8.*.*.R.uXuXyXj.h.+X1X}.w i n n O.{ ( 3 2 x D "
};
