/* XPM */
static const char *dA__[] = {
/* columns rows colors chars-per-pixel */
"75 75 247 2 ",
"   c #4D006C",
".  c #4C0068",
"X  c #53006D",
"o  c #55016B",
"O  c #4E0070",
"+  c #550071",
"@  c #5A0273",
"#  c #5E0877",
"$  c #5F1377",
"%  c #630A79",
"&  c #681774",
"*  c #6C156E",
"=  c #752B73",
"-  c #7C5079",
";  c #8B386C",
":  c #893974",
">  c #AA585D",
",  c #B5675D",
"<  c #8C5876",
"1  c #914D70",
"2  c #A25B70",
"3  c #906A70",
"4  c #BC7B6C",
"5  c #AD767C",
"6  c #B97B73",
"7  c #B27B7B",
"8  c #B87778",
"9  c #AB6A6F",
"0  c #CA7355",
"q  c #C57B69",
"w  c #C6796C",
"e  c #BDAB5D",
"r  c #BBBB5C",
"t  c #BDB45C",
"y  c #A9A25F",
"u  c #999976",
"i  c #BB8C6C",
"p  c #BD856B",
"a  c #B49C6C",
"s  c #BB9768",
"d  c #AD847D",
"f  c #AB8C7C",
"g  c #AF8C77",
"h  c #B38C73",
"j  c #B78476",
"k  c #AD9476",
"l  c #AC9B75",
"z  c #A5957E",
"x  c #AA947B",
"c  c #A59C7D",
"v  c #A99B7A",
"b  c #B19B72",
"n  c #B39373",
"m  c #A39869",
"M  c #9EA97D",
"N  c #9CB77A",
"B  c #ADAC6D",
"V  c #AFA46E",
"C  c #BCA364",
"Z  c #BBAB63",
"A  c #B3A46B",
"S  c #B3AC6A",
"D  c #B7AA66",
"F  c #ACB46C",
"G  c #ABBC6C",
"H  c #AABB6B",
"J  c #B4B365",
"K  c #B3BB64",
"L  c #B8B666",
"P  c #ABA374",
"I  c #A5AC75",
"U  c #ABAB72",
"Y  c #A4A37B",
"T  c #A3AB7B",
"R  c #A8A578",
"E  c #B1A472",
"W  c #A5B474",
"Q  c #A3BB72",
"!  c #A6B377",
"~  c #BE9E5C",
"^  c #D5954E",
"/  c #CA8959",
"(  c #D78955",
")  c #CC9C54",
"_  c #C49C5C",
"`  c #CA9459",
"'  c #D49552",
"]  c #DA884C",
"[  c #C3AC5B",
"{  c #C6A758",
"}  c #C4B558",
"|  c #DAA54C",
" . c #C58767",
".. c #C49862",
"X. c #CE8D67",
"o. c #C1AC62",
"O. c #E38E4D",
"+. c #B7C85C",
"@. c #B7D35B",
"#. c #ACC667",
"$. c #B4C664",
"%. c #AACC6C",
"&. c #C4C15A",
"*. c #690E83",
"=. c #6C1285",
"-. c #661B8A",
";. c #74198C",
":. c #7A1E92",
">. c #6F2D8F",
",. c #5F1280",
"<. c #754486",
"1. c #734895",
"2. c #7E7AAD",
"3. c #7E6EB6",
"4. c #7B65BD",
"5. c #766CBE",
"6. c #7B6CBB",
"7. c #7967BA",
"8. c #7D74B5",
"9. c #7D7BB3",
"0. c #7672BC",
"q. c #7A73BA",
"w. c #7678B6",
"e. c #6F76BB",
"r. c #6F50AA",
"t. c #6D5ECE",
"y. c #6F5DC5",
"u. c #735FC7",
"i. c #675CD5",
"p. c #6A5DD2",
"a. c #6D63CC",
"s. c #6E6AC5",
"d. c #7465C4",
"f. c #746BC3",
"g. c #7163C9",
"h. c #7668C5",
"j. c #6A60D0",
"k. c #7673C2",
"l. c #83289C",
"z. c #8D32A7",
"x. c #9237AB",
"c. c #9A3DB3",
"v. c #8A2EA3",
"b. c #9F7C8E",
"n. c #9A6D9A",
"m. c #9B6D98",
"M. c #8E7D9E",
"N. c #8E779E",
"B. c #9C7394",
"V. c #9B7B93",
"C. c #95749C",
"Z. c #9A739A",
"A. c #937B9C",
"S. c #977C98",
"D. c #866B8A",
"F. c #AC7583",
"G. c #AB7B84",
"H. c #A4748D",
"J. c #A37B8C",
"K. c #A87888",
"L. c #B27682",
"P. c #A37392",
"I. c #A27A91",
"U. c #A26E90",
"Y. c #9E42B8",
"T. c #A346BC",
"R. c #8B6CAB",
"E. c #896BAA",
"W. c #926DA3",
"Q. c #8C75A4",
"!. c #857CA6",
"~. c #8C7CA3",
"^. c #8574AD",
"/. c #8A73AA",
"(. c #847CAC",
"). c #8979A8",
"_. c #9273A2",
"`. c #907CA0",
"'. c #8364B4",
"]. c #836BB3",
"[. c #8466B5",
"{. c #8274B2",
"}. c #827AB1",
"|. c #8377B6",
" X c #8B5A98",
".X c #AA4DC4",
"XX c #AE51C8",
"oX c #B254CC",
"OX c #B85AD3",
"+X c #BF60D9",
"@X c #C364DD",
"#X c #CB6CE6",
"$X c #CE6EE9",
"%X c #C668E1",
"&X c #CF70EA",
"*X c #D272ED",
"=X c #D576F0",
"-X c #7C84AA",
";X c #7484B1",
":X c #9D848D",
">X c #9C8C8C",
",X c #988D8C",
"<X c #9E9486",
"1X c #9D9C85",
"2X c #95948D",
"3X c #9B938B",
"4X c #949B8D",
"5X c #9B9A8A",
"6X c #8D849D",
"7X c #8C8B9C",
"8X c #898A9B",
"9X c #958595",
"0X c #9A8492",
"qX c #948C94",
"wX c #998B92",
"eX c #92839A",
"rX c #928A99",
"tX c #9A839A",
"yX c #8D9395",
"uX c #8C929B",
"iX c #8B9896",
"pX c #939392",
"aX c #929992",
"sX c #979495",
"dX c #8F9E8E",
"fX c #A58485",
"gX c #AA8382",
"hX c #A48D84",
"jX c #AA8C83",
"kX c #A3838B",
"lX c #A58A8A",
"zX c #A39384",
"xX c #A29B82",
"cX c #A49587",
"vX c #AC8888",
"bX c #9CA383",
"nX c #98A687",
"mX c #8DA88D",
"MX c #A2A482",
"NX c #A0B480",
"BX c #8484A4",
"VX c #8A83A3",
"CX c #848BA3",
"ZX c #898BA1",
"AX c #8383AB",
"SX c #8786AA",
"DX c #8C8CA3",
/* pixels */
"zX5XqX6X8XBX2.2.9.'.8.w.w.-X-XCX6XZXeX7X6XeXeX6XeX6XQ.W.).AXAX(.{.8.q.4.6.5.d.d.g.g.g.a.p.i.i.p.a.a.g.f.k.q.8.AXSXVXVX7XaX4XnXbXY U s L [ } [ Z A I Y ",
"J.qX7XM.BX2.2.8.3.0.w.w.9.-XBX8X8X7XA.7X7XS.Z.eX7XM.Q.~.).^.(.}.'.3.q.4.4.f.d.u.t.t.t.p.i.i.p.a.g.g.f.0.q.].^.AXVXC.A.pX2X5XxXT ! G #.$.+.+.$.F W Y bX",
"pX9X6X!.2.].4.0.7.0.e.w.2.!.M.8X6X7XqXqX9XqXeX7X6XC.~.).).E.^.9.8.6.0.f.f.g.g.a.t.p.i.i.i.p.a.a.d.f.0.w.].[.R.VX`.Z.9X:XK.G.f ! W K $.@.+.$.J i R z G.",
"9X8XW.E.9.4.7.5.5.e.;X2.BXCXM.6X9XyXpX9X9X9XrX7XeXM.~.).^.^.8.8.q.0.f.f.g.a.a.j.p.i.i.j.a.a.a.g.f.q.q.8.].R.~.ZX7X7XqXK.hXz T U F #.+.@.t D #.l c 5X3X",
"eX~.E.2.w.4.7.s.e.;X-X!.8X8XA.yX9XpXaXpX0X0XS.S.7XM.Q.Q.^.9.8.3.6.f.f.d.g.a.a.p.i.i.j.a.a.g.g.f.q.8.9.9.^.).ZXDXuXyXJ.G.bXNXR  .S K } +...A N N bX>XaX",
"6X/.E.w.0.u.s.5.w.;X!.BX8XrXqXqX:X4XdXaXqX9XqXrX7XA.~.)./.}.{.6.5.f.d.d.g.t.p.i.p.t.g.a.g.d.f.q.{.{.}.^.E.Q.ZXuXiXpXK.fXbXT i s #.e t #.S V g bXnX2XrX",
"~.E.'.6.4.d.s.5.8.-XBX8X7XqXqX:X2X3X4X>X,XpX0X9XeXA.)./.^.(.}.3.5.f.f.d.g.j.p.j.a.g.h.f.f.h.6.8.].E.^./.W._.7XuXiX>XF.d T E i F #.+.J G %.l z nX4XyX6X",
"!.].'.5.5.d.5.8.^.BX8XyXiX2X>X>X3X<X5X3X3XpX0X0XrXeXQ.).(.}.8.6.5.f.g.g.a.a.a.a.s.r.>.-.-.>.r.|.].E.^.).Q.M.7XpXaX>XF.d T ! F J e t ..F W M nXmXmXiXVX",
"2.8.q.e.s.e.w.-XBX6XeXpX2X>X<X<XzXzXxXnX5X:XwXwXrXA.~.)./.}.].6.f.g.s.g.a.t.a.y.-.o . o o X + >.}.(.AXBXZX7XrXV.3X5Xd v ! Q G / _ D A E x xX<XmXiX8X~.",
"^.8.5.5.5.w.-XBX8XrX9X,X3X<XxXxXzXzXzXzX<X>X,X0X9XA.~.).^.}.8.6.f.g.s.g.a.g.u.-.X % x..X.Xv.@ o 1.AXBXCX7XuXpX0X3X5XbXT ! Q H Z D F ! l c 1X3XmXiX8XBX",
"2.8.e.0.w.2.!.8XyXqX>X<XhXzXc c c xXzXxX1X<X3XwX9XeX`.Q.^.9.8.0.f.d.a.s.s.s.>.X % OX*X*X*X*X.X+ @  X~.ZXuXyXpX3X5XnXc h P F C K H Q ! Y bX5X2XiX8X~.BX",
"2.;Xe.0.].!.6XrXpX2X<XhXjXz c Y Y c z z zXhX3X,X9XeXA.Q.).(.8.4.4.d.s.s.f.d.,.X T.*X#X#X#X#X*Xl.X <.6X8XeX9XJ.K.hXbXf j P s  .S %.N T z hXmXaXiX7XQ./.",
"-X;Xw.2.!.N.eX,X>X<XxXz v v v Y Y v c z xXhX>X3XqX9XA.~.).^.8.6.7.f.s.d.k.r.o =.#X#X#X#X#X#X*Xc.  >.DXeXB.b.kXG.hXbXY I E  .s B Q N N xX<X,X9XyX8X!.-X",
"(.2.2.!.M.eX,X>XfXzXMXc Y R l v Y v x c xXzX5X3XqX9XA.~./.].{.w.0.7.0.4.k.>.. x.*X#X#X#X#X#X*Xx.. <.uXZ.V.wX5XnXnXNXN I a s B W N N nXnX4X4XqX9X8XCX-X",
"-X-X!.6XS.V.3X<XzXxXc Y R R l k l v x x c bX5X3XpX9XA.~.).^.].8.6.6.6.w.w.# + OX&X#X#X#X#X#X#X;.o D.uXqX0X4XnXnXbXc ! U S F Q N N N bXnX4XdXyXyX8X8XBX",
"CXBX8XqXV.:X3XzXhXc v v l l l l l P Y Y Y zX<X2XaXqXA.W.Q.AX(.8.[.3.w.|.1.X ;.$X#X#X#X#X#X*XoX+ $ S.0XpXH.>XnX1Xf v I p s Q ! I M M 1X5XnX2XqXyXyXuXBX",
"8XuXyXyX,X3X1XzXx v v k k l P P l k x c bXzXkX:XpXpX7X6X_.).AX-X9.9.9.|.-.X c.*X#X#X#X#X#X*Xx.  >.sX0XdX2X5XnXzXz N W i a P b v Y z zXfX4X>X2XaXrX6X8X",
"7XqXpX4X>X<XzXzXc x k k l l P R l k f f 1X<XkXJ.wXpX7X7XVXVXAX-X-X-XAXE.@ @ OX$X#X#X#X#X#X#X=.o D.sXV.:X2XnXnXxXc T W W a n h j c c bX1XnX4X4XaXqX9X7X",
"9X,X2X3X<XhXhXxXY x f x Y l l l R v f jXzX5X,X:X0X9XeX7XZXZXCX-XAXE.SX1.X :.$X#X#X#X#X#X*XoX+ & V.pX,X:X3XnXnXMXz k P Q W I l v v d bX1XnXnX2X>XpXpXyX",
":X>X:X<X<XzXzXz z v x v v R v v Y c zXzXzX5X4XpXqXV.Z.eX8XZXZXCXCXW.W.-.X T.*X#X#X#X#X#X*Xx.  <.sX4X>X3XnXgXxXN T I Q Q P l I N Y M NXbXbX5X1X5X5X2X,X",
",X>XkXzXzXzXxXxXz c x f x v Y Y Y 1X1X5X5X3XaXaXaX9XB.n.6XZXZXCXCXZX X+ % @X$X#X#X#X#X#X#X=.o D.mX4XkXhXnXgXc N N W W U h h l N N N N M bXxXxXxX<X3X2X",
"fX<X<XzXzXzXxXxXxXz x x x z c MXxX1X5X5X3X>X>XsXaXpXS.m.Z.A.A.uXuXiX<.X l.*X#X#X#X#X#X*XXX+ & 5XnX3X<XnXbXf x Y R n n I I ! ! W v h Y T T M c c bX>XfX",
"fXhX<XhXhXzXhXfXzXzXzXhXjXjXxX1X5X5X5X5X3XkXJ.I.wXaXpX0XS.tX X>.>.= # o .X*X#X#X#X#X#X*Xv.X & - D.vXgXbXM d 7 j j q a W W P I ! l h P T k l T x zX<XfX",
"<X<XzXzXzXhX<XhXhX<XhXhXhXzX<X5X5X3X4X4X2X:XI.P.I.wXaXaXpX<.+   o + + *.%X#X#X#X#X#X#X%X*.+ +   + = xXc c Y v n b a U U U p i W Q W ! ! b l R z xXhXfX",
"1X<XzXzX<X3X>X>X>X<X<X<X<X3X3X3X3X3XpXaX2X>XJ.P.P.J.qXdX<.X # z..XoXXXOX#X#X#X#X#X#X#X%XoXoXXXc.% X - v 8 k W ! W F a a U  .i F F A F S F b v c 1X<X<X",
"<X<X>X>X<X>X:X>X>X,X3X3X3XpXpXqXwX0X0XqXaXpX0XP.H.H.kXD.+ # XX*X*X*X&X$X#X#X#X#X#X#X#X#X*X*X*X=XXX+ & Y h k W Q Q G a B F s  .A s s J ..s b v c 1X1X1X",
"zX>X>X>X,X,XwXqXwXwXwXpXpXqXqXqXS.V.V.V.0XpXpX0XH.H.kX<.  v.=X#X#X#X#X#X#X#X#X#X#X#X#X#X#X#X#X#X#X=.+ u ! I Q Q F F G H H S  . .s K K S s R v c xXzXhX",
"zX<X>X>XqXqX9X9X9X9XqXpXrX7X7X7XS.Z.Z.B.B.0XpXpX:XJ.kX=   Y.*X#X#X#X#X#X#X#X#X#X#X#X#X#X#X#X#X#X#X*.+ u b i V F s  .S #.#.#.J ..J J C G E l v z hXhXfX",
"<X2XwX0X9XeXS.S.eXeX7X7X7XZXZXZXM.C.n.n.m.B.0XaX4X3XlX=   c.=X#X#X#X#X#X#X#X#X#X#X#X#X#X#X#X#X=X.Xo & P i w i A  . .D #.#.J e $.$.J D s U I v z zXzXhX",
"3XpX9XS.eXeXA.`.~.~.~.VXVXBXBXBXVX_.n.n.m.m.B.qX4X4XcX< + =.@X*X*X$X#X#X#X#X#X#X#X&X=X*X*X*X$XXX% + 1 F A  .s S ....J $.$.` / r _ L H a n l c z hXzX5X",
"b.9XeXA.6XVXVXVXQ././.).AX(.).AXBX~._.n.n.m.B.0X2XnX5XfX& + =.z.z.OX&X#X#X#X#X#X&XXXz.x.x.x.:.@ + = F #.H F G #.K Z ` { +.{ [ t ` J H V p k c xX1X5X3X",
"0XrXeX~.~.~.).).^.^.{.9.}.].].^.(.AX~.C.n.m.B.V.,X5X5XxX5 & + X o OX&X#X#X#X#X#X$X;..       X @ 1 i S G #.#.#.#.$._ 0 ' +.@.+.K C F s n h x MXhX<X3X>X",
"eX6X~.~.).).^.}.9.8.8.8.3.[.[.[.].(.SXVXA.C.B.V.:XlXhXxXf 6 : X :.&X#X#X#X#X#X*XOX+ & < < 1 2 4  .q  .D #.$.K $.+.[ ) } @.@.r _  .s  .l l v xX5X>X,X0X",
"eXVX~.).^.}.}.8.q.q.0.0.6.'.'.'.[.^.BXZX7XeXS.J.H.K.G.f f j =   Y.*X#X#X#X#X#X*Xx.  - %.%.o...J s q q ..$.e e +.+.@.+.} r +./ / ..A P ! v xXjXfX,X0XS.",
"VX~.).^.{.8.8.6.4.5.f.s.5.4.'.'.R.Q.VXDXyXqXV.H.F.L.L.7 j 9 @ # +X$X#X#X#X#X#X#X=.X u %.#.J D $.J ....L $.{ r @.@.@.{ ] ) r _ C  .i I T c xXhX3XpX9X6X",
"VX).(.{.6.6.5.h.d.d.g.f.0.8.[.E.R._.A.rXpXwXJ.K.L.L.8 8  .1   :.&X#X#X#X#X#X*XoX+ & H #.%.#.$.$.$.[ ~ e r +.+.} } +.{ ( [ $.G s i b h c xXcX3XwX9X6X~.",
"AX(.}.3.4.f.g.d.g.g.d.f.w.9.(./.W.W.Z.V.wX,XkXF.L.8 8 8 w =   T.*X#X#X#X#X#X*Xz.  < $.#.$.$.$.+.9 ; * # = < ` O.' r $.o.C K F s P T v bXxXcXaXqX7XVXBX",
"(.{.8.5.f.d.a.a.a.t.d.7.9.(.).).W.n.m.P.J.kXfXG.7 8 8 w 9 + % @X$X#X#X#X#X#X%X*.+ m @.$.$.$.@.< + X @ # + O * 0 ( t $.L C A S ! ! k c fXfX3XpXyXZXCX).",
"|.{.6.f.d.a.a.a.a.u.4.].}./.W.W.C.n.U.P.H.G.G.G.8 8 8 q ;   l.*X#X#X#X#X#X*X.X+ = +.+.+.+.@.3 + @ x.OX+XXX;.O * / _ L #.A q a ! Y f hXfX4XwX9X7XVXAX^.",
"{.6.f.d.a.j.a.s.f.4.6.{.^.W.W.n.Z.B.U.H.K.F.G.7 8 8 w w * X .X*X#X#X#X#X#X*Xl.  3 @.t [ } e & X Y.*X$X$X*X%X=.+ > ( C G A i l k MXbX<XK.pX9X6XVX).(.}.",
"6.f.g.a.p.p.a.f.q.6.[.].^.~.C.Z.V.B.U.H.F.L.7 8 8 4 q 9 + % %X$X#X#X#X#X$X@X% + y } ) ' ^ >   ;.$X#X#X#X#X*Xz.  1 X. .A F I h 7 MXnX3XH.qX7X~.).^.{.3.",
"f.d.a.p.i.t.g.q.w.].[./.!.VX7X9XV.H.K.F.F.7 7 8 6 4  .;   v.*X#X#X#X#X#X*XT.X = } } ^ ] ] =   T.*X#X#X#X#X&X:.X 3 ..q i ! T v jXhX5XqX9X6XVXVX^.}.3.7.",
"d.a.p.p.t.g.6.q.8.{./.).VX8XrX9X:XK.G.G.7 7 8 6 4 q q * + XX*X#X#X#X#X#X*Xl.  > | { ^ O., + =.%X#X#X#X#X&X+X@ # m s p P T M bXgXlXJ.9XeXC.~.SXE.8.q.f.",
"t.p.i.p.g.f.8.8.}.^.).VX7XrX9Xb.kXfXgX7 j j j 4 4  .9 + *.%X#X#X#X#X#X$X@X% @ 0 ] ) ' ] *   Y.*X#X#X#X#X*Xx.  = S b R l d xXbXcX4XqXrX8X~.).(.|.6.f.d.",
"p.p.p.a.d.6.8.}.^./.~.7XyXqX:XJ.G.gXf f g n h p q X.1   l.*X#X#X#X#X#X*XT.  = O.] ( ' 1 O ;.#X#X#X#X#X#X%X=.X 2  .h v 7 7 1XnX4XaXeXA.~.).(.}.q.4.d.a.",
"i.a.g.f.5.q.8.(./.Q.6X7XpXsXkXfXfXd f v R P b i  .X.;   c.*X#X#X#X#X#X$Xl.  > O.( ] > + # OX*X#X#X#X#X*XY.X & 4 4 j v d hX4X>X0XyXeXVXAX(.^.].7.d.g.p.",
"p.g.f.5.6.].(.).~.6X7XpXpX5XhXgXd d k R U F A s  .X.;   T.*X#X#X#X#X#X#X=.+ , ( 0 ; + o T.*X#X#X#X#X$X%X=.+ < i 7 c MXxXnX3XH.0XuXVX).(.|.{.6.d.g.t.i.",
"g.f.5.6.].^.AXVX6X7XqXwXcXxXxXzXg k b U F F A s  .( ;   Y.*X#X#X#X#X#X&Xl.. % * +   # .X*X#X#X#X#X#X*Xx.X & Y v xX1XzX5X4XpX9XuXVXW.E.^.[.].h.g.t.i.i.",
"f.7.6.8.^./.VXA.eX9X:XlXhXMXMXY l R U B S S D ../ ' 1   x.*X#X#X#X#X#X$X@X:.@ @ % l.OX*X#X#X#X#X#X*XoX+ + 3 ! bXxXgXF.>XaXiXuXZX~./.^.].3.4.d.a.p.i.a.",
"k.3.8.}.^.~.eXeX9X>XkXjXzXY T I ! U B A C s C _ ` ' > X ;.$X#X#X#X#X#X#X$X$X+XOX@X*X$X#X#X#X#X#X$X@X=.X = x bXnXhXL.K.qXiXuXZXVX/.^.].6.7.d.a.p.i.a.d.",
"q.8.}.).~.6XrXwX3X>XzXz Y ! I U W F S s ` ` ` _ ) ' / % + oX*X#X#X#X#X#X#X#X$X&X$X#X#X#X#X#X#X$X#X:.X % 5 xXnXnXzXkXwXiXuXZX~.).R.[.6.4.d.a.p.i.p.g.h.",
"8.{.^.~.M.9XsX3XfXfXc Y T ! F B F F Z _ ` ` ' ' ) ' ^ ;   ;.#X$X#X#X#X#X#X#X#X#X#X#X#X#X#X#X&X#X:.X @ 3 xXbXnX3XkX0XpXuXZXQ.W.).].3.5.g.a.j.i.p.a.f.q.",
"}.^.~.6XeXwX5XzXd f v l P B F S J J e ` ` ' ' ^ { ) ' / * X l.#X*X#X#X#X#X#X#X#X#X#X#X#X#X*XOX;.X + < MXbXnX3XJ.H.V.7XZXVXW./.^.].7.f.a.a.p.p.a.d.5.8.",
"(.~.6XeX0XlXcXxXx k l b A S J J K r [ ) ) ) ^ ^ { [ ) ' , & X :.OX*X*X#X#X#X#X#X#X#X$X*X%Xc.% X # 1 jXzXcX4X0XP.B.eXZXCX!.R.^.{.4.d.d.t.p.p.a.g.f.w.8.",
").VX7X0XlXzXzXc l b a A S D Z e +.r } { ) ) ' ) [ } [ _ ` 4 *   # v.oX#X$X*X*X*X$X#XOXc.=.X + & 2 gXG.G.kXpX9XV.A.ZXCXAX(.^.9.6.d.s.a.p.p.g.d.f.6.{.(.",
"~.eXqX3XhXzXv k n a A D Z [ _ _ [ [ r } [ { { [ } $.K Z ..X. .; +   + *.l.v.x.z.l.;.@ X X % : 5 L.F.F.H.J.qXeXZ.C.VXAXAX}.9.w.f.d.a.p.p.g.f.f.0.8.^.Q.",
"S.0X3X<XzXx l V A C C Z [ { _ ` _ Z K K r r r L K K K J s  . .X.9 : * + X       X o # = 1 5 L.F.F.K.J.V.9XrXZ.n._.AXAX9.9.w.f.d.t.p.i.a.d.f.0.8.}.).A.",
"0X3X<XzXx l B S C C [ } [ { _ _ ..L K $.$.$.K L D D S A s  . . . . .4 9 2 1 : 1 1 < G.jXvXF.F.H.K.V.qXrX7XA.n._.).AX9.9.6.7.g.a.p.i.a.d.h.6.3.^.).VXS.",
"3X5XzXx l V S C _ { r L o...s C D L K K K K J C ..i a s p p q 4 6 6 6 j j j j 7 d gXhX5X>XJ.J.H.V.9X7X7XZXVX~._./.}.w.6.d.d.a.p.i.p.g.f.0.w.}.).VXrXqX",
"<XzXv b a C J t t r L L D s S F S S J F G F S s p  .i i p 4 6 6 6 6 j j 7 7 F.F.G.fX>X4XpXwXV.B.B.Z.A.ZXCXSX).R.[.8.0.5.d.a.p.i.p.g.f.q.q.9.^.~.eXsXsX",
"xXk l A s s e r t Z Z S s s A B A a A F F F U i p p p j j 6 6 8 8 7 f hXgXG.G.K.kX>X3XaXpX9XV.m.m.n._.VXSXSX/.[.3.0.f.g.a.j.i.p.g.d.6.3.]./.~.6XqXlXlX",
"v l A C _ [ } t L D S A a a n a a a U U P P I b j 6 j g j 6 8 7 7 7 fX1X<X>XkXJ.J.J.0XqXyXeXZ.n.n.n.Q.AXAX(.|.3.0.f.g.a.a.i.p.a.d.4.q.8./.~.VXtX3XlXd ",
"l B S L [ } [ e C S E n n n h h n P I l j h l Y x g x c f 7 7 7 5 F.fX5X4X3X:XH.H.P.B.eX7X7XA.C._._.).(.}.}.w.5.d.g.a.a.p.p.a.g.d.6.8.(.).VXrX:XlXgXf ",
"B S Z $.} } L D A P l k k v k h k k x x j j x MXM Y MXMXzX7 G.G.F.G.lX3XaXpX0XB.P.P.Z.C.6XZXVX~.).(.}.{.].3.5.d.d.a.j.p.a.a.g.f.0.8.(.).~.eXwXcXzXx R ",
"s ` } } } Z S B P I Y Y M Y c v f d f zXjXjXxXbXnXnXbXbXzXF.G.kXkXkXkX:XqXpX9XB.P.Z.n.C.~.BXSXAX}.9.{.[.'.4.f.g.a.j.p.t.g.g.d.6.8.^./.ZXrX0XkXhXz l U ",
"_ { } } o.S a l R M f z bX1XxXbXzXgXzX<XhX1X5XhXhX5X<XcX5XkXJ.,X,XJ.H.P.S.7XrXS.Z.Z.W._.).SXAX9.9.9.3.4.4.d.g.a.j.p.p.g.g.d.7.3.9.).~.eXqX,XhXz Y a s ",
"{ } } Z J F l k c fX5 F.<XzXhX<X3X5X5X:XG.>X3XJ.K.:XJ.K.,XpXpXpXpXI.P.m.Z.eXZXeX_.W.W./.(.(.9.9.w.w.5.f.d.g.t.p.i.j.g.s.f.0.3.}.AX~.C.9X>X<Xz Y U s _ ",
"&.} o.K B l v z 1XhXJ.:X5X3XkXJ.2XdXaX:Xb.>XaX:XH.0Xb.H.V.9X9XyXyX0Xm.n.C.~.ZXVX)./.^.}.9.9.9.w.0.5.f.g.g.t.p.i.p.g.g.f.6.3.8.(.VXA.V.qXhX1XY P a _ { ",
"} L J H I v d fX5X:X2X2XaXpX9X9XqX0XyXyXyXiXiXyXqXyX9XV.9XZ.B.eXuX7XA.C._.VXAXSXAX(.9.9.9.w.q.0.f.d.d.d.g.p.i.p.t.d.f.4.].[.^._.A.V.0X3XgXx P S J { } ",
"[ L Q I v bXhX>XpX0XV.qX9X9XuX7XS.Z.eXeX7X7XeX7XuXuXuX7X7XC.n.A.ZXZXVX~.!.AXAXAX9.9.9.8.3.6.5.f.g.g.g.g.t.p.p.a.g.f.7.4.[.^.W.A.tX0X3XbXc b A C K r } ",
"Z S P T xX1X3XqXqXS.A.A.eX8X8X8X8X8XM.C.8X6Xn.6XuXuXuXuX8X6XC.`.~.BXAXAX(.(.}.9.9.9.q.6.[.4.d.d.a.g.g.p.p.p.a.g.g.0.q.].E.).`.rX0X>XhXbXY a C Z } } t ",
"H W v bX<X,XqXeX8XM.6X6X8XCXBXQ.!.CXBX~.VXCX8X8XuXZX6X8XZXCXBX~.W.Q.AX^.E.{.}.9.w.q.q.4.4.d.d.g.g.a.p.p.p.a.g.d.5.q.].E.Q.ZXuXqX:X<Xf j E D Z [ { t Z ",
"V T c 1X4XpXeX6X8XBXBX!.BX/.!./.^.BXCXM.A.8X8XuXuX7XC.C.~.CXCXVXW.R.(.{.[.[.{.w.q.q.q.h.d.d.t.t.p.p.p.t.a.g.d.5.w.].E.W.~.7XaXaX5Xf g b F L } } [ { s ",
"l c nXmXiXuX8XCX-X-X!.-X2.E.2.(.Q.Q._.6X7X6XA.7XeXeXA._._.VXSXSX).^.9.8.[.[.3.q.7.h.f.f.d.t.p.i.i.p.t.a.g.d.4.3.9.^.).~.C.rXwX5XxXx I S L [ } +._ C V ",
"M bX4XyX7XM.).-X-X2.2.;X9.8.2.(.~.VXA.eX6X6X6X6XZ.A.C.~.).BXSXAXAX9.8.{.{.3.7.f.d.d.d.g.a.p.i.i.p.a.a.g.f.4.4.8.AXSXCXA.V.pXkX1Xd P a C $.+.} r Z F I "
};
