/* XPM */
static const char *dQ__[] = {
/* columns rows colors chars-per-pixel */
"75 75 240 2 ",
"   c #4D006C",
".  c #52006D",
"X  c #5A006F",
"o  c #550071",
"O  c #5B0373",
"+  c #5E0776",
"@  c #4F0070",
"#  c #630978",
"$  c #671674",
"%  c #6D186E",
"&  c #78256D",
"*  c #6C2678",
"=  c #773778",
"-  c #762E74",
";  c #7A457D",
":  c #7A597D",
">  c #88346E",
",  c #B76E5A",
"<  c #905071",
"1  c #A75163",
"2  c #946B73",
"3  c #AD797D",
"4  c #B67B77",
"5  c #B56F6F",
"6  c #B45D59",
"7  c #CE7755",
"8  c #C2796E",
"9  c #AC8D5D",
"0  c #BEAA5D",
"q  c #BBBA5C",
"w  c #BCB55B",
"e  c #9A8C74",
"r  c #BB886B",
"t  c #B49C6C",
"y  c #BA9769",
"u  c #AD847D",
"i  c #AC8C7C",
"p  c #AD8C78",
"a  c #B58875",
"s  c #AD9476",
"d  c #AC9B75",
"f  c #A5957E",
"g  c #AA947B",
"h  c #A59B7D",
"j  c #A99B7A",
"k  c #B39372",
"l  c #B29B72",
"z  c #A88466",
"x  c #9EA97D",
"c  c #9CB77A",
"v  c #9DA26D",
"b  c #ADAC6D",
"n  c #ADA56B",
"m  c #BBA364",
"M  c #BBAB63",
"N  c #B3A36B",
"B  c #B2AC6A",
"V  c #B7AA66",
"C  c #ACB46C",
"Z  c #ABBB6C",
"A  c #A9BA6C",
"S  c #B5B365",
"D  c #BCB364",
"F  c #B3BB64",
"G  c #B5B867",
"H  c #ABA374",
"J  c #A5AC75",
"K  c #AAAB72",
"L  c #A4A37B",
"P  c #A3AB7B",
"I  c #A8A578",
"U  c #B1A273",
"Y  c #A5B474",
"T  c #A3BB72",
"R  c #A6B376",
"E  c #B1B277",
"W  c #C88A5A",
"Q  c #C7995B",
"!  c #D49253",
"~  c #E28F4B",
"^  c #C3AC5B",
"/  c #C4A65A",
"(  c #C5B558",
")  c #D2A650",
"_  c #C58867",
"`  c #C39763",
"'  c #C88871",
"]  c #C4A562",
"[  c #C0B161",
"{  c #B6C85C",
"}  c #BAD75A",
"|  c #ACC567",
" . c #B4C563",
".. c #A1C172",
"X. c #C1CA5D",
"o. c #680D81",
"O. c #6B1184",
"+. c #73188C",
"@. c #781F91",
"#. c #7D2396",
"$. c #793882",
"%. c #7E7CAD",
"&. c #7E76AD",
"*. c #7E6EB6",
"=. c #7B65BD",
"-. c #766DBE",
";. c #7B6CBB",
":. c #7967BA",
">. c #7D74B5",
",. c #7D7AB3",
"<. c #7672BC",
"1. c #7A73BA",
"2. c #7678B7",
"3. c #6F76BB",
"4. c #785886",
"5. c #6E5ECE",
"6. c #735FC8",
"7. c #675CD5",
"8. c #6A5DD2",
"9. c #6D62CC",
"0. c #6E6AC5",
"q. c #7465C5",
"w. c #746BC3",
"e. c #7163C9",
"r. c #7667C3",
"t. c #6A60D0",
"y. c #7271C1",
"u. c #83299C",
"i. c #882DA2",
"p. c #8D31A5",
"a. c #9438AD",
"s. c #9A3DB3",
"d. c #945884",
"f. c #8B4C84",
"g. c #9D7C8D",
"h. c #9E6E95",
"j. c #9A6D9A",
"k. c #966D9E",
"l. c #8E7D9E",
"z. c #8E779E",
"x. c #9C7394",
"c. c #9A7C93",
"v. c #95749C",
"b. c #9A739A",
"n. c #937B9C",
"m. c #977D98",
"M. c #8C6A89",
"N. c #AA7C84",
"B. c #A4748D",
"V. c #A37C8C",
"C. c #A97786",
"Z. c #A37292",
"A. c #A27B91",
"S. c #AA7588",
"D. c #9D41B6",
"F. c #A447BD",
"G. c #866DAD",
"H. c #8B6CAB",
"J. c #8C6AA9",
"K. c #926DA3",
"L. c #8C74A5",
"P. c #857CA6",
"I. c #8B7CA3",
"U. c #8575AD",
"Y. c #8973AA",
"T. c #847BAC",
"R. c #8A7AA9",
"E. c #8676A6",
"W. c #9272A2",
"Q. c #907CA0",
"!. c #8364B4",
"~. c #836BB3",
"^. c #8466B5",
"/. c #8273B2",
"(. c #817AB1",
"). c #8872B0",
"_. c #A94CC2",
"`. c #B254CC",
"'. c #BA5CD4",
"]. c #B85AD3",
"[. c #AD51C7",
"{. c #BE60D9",
"}. c #C364DE",
"|. c #CB6CE6",
" X c #CE6EE9",
".X c #C668E1",
"XX c #CF70EA",
"oX c #D272ED",
"OX c #D475F0",
"+X c #7C83AC",
"@X c #7C88A8",
"#X c #7484B1",
"$X c #9D848D",
"%X c #9B8C8C",
"&X c #998D8B",
"*X c #9E9486",
"=X c #9D9C85",
"-X c #95948D",
";X c #9B948B",
":X c #949B8D",
">X c #9B9A8A",
",X c #8D849D",
"<X c #878C9E",
"1X c #8C8B9C",
"2X c #8B8898",
"3X c #958595",
"4X c #9A8493",
"5X c #948C94",
"6X c #998B92",
"7X c #92839A",
"8X c #928A9A",
"9X c #998398",
"0X c #8D9395",
"qX c #8D9B93",
"wX c #8C929B",
"eX c #87949C",
"rX c #939392",
"tX c #929A92",
"yX c #979494",
"uX c #8E9589",
"iX c #A58485",
"pX c #A48D84",
"aX c #A3838B",
"sX c #A88885",
"dX c #A39484",
"fX c #A29B82",
"gX c #A49587",
"hX c #A7888A",
"jX c #9CA383",
"kX c #98A787",
"lX c #8FA78F",
"zX c #A1A483",
"xX c #A0B480",
"cX c #8484A5",
"vX c #8A83A3",
"bX c #848BA3",
"nX c #898BA1",
"mX c #8383AB",
"MX c #8785A9",
"NX c #888CA3",
/* pixels */
"dX>X5X2X<XcX%.%.&.!.>.2.2.+X@XcX,XnX7X1X2X7X7X2X7X,XL.K.R.mXmXT./.>.1.=.;.-.r.q.e.e.e.9.8.7.7.8.9.9.e.w.y.1.>.mXMXvXvX1XtX:XkXjXL K y G ( ( ^ V N J L ",
"V.5X2Xl.cX&.&.>.*.<.<.2.&.+XcXbX<X2Xn.2X2Xm.b.7X<Xl.L.I.R.U.T.(.!.*.1.=.=.w.q.6.6.5.5.8.7.7.8.9.e.e.w.<.1.~.U.MXvXv.n.0X-X>XfXP R A |  .{ {  .C Y L jX",
"yX3X,XE.&.~.!.<.:.<.3.2.%.E.l.<X,X1X5X5X3X5X7X1X,Xv.I.R.U.H.U.,.>.;.<.w.w.e.e.9.5.8.7.7.7.8.9.9.q.w.<.2.~.!.H.vXQ.b.3X4XC.N.i R Y G  .{ {  .G r I f N.",
"3X2XK.G.&.=.:.-.-.#X#X%.cX<Xl.2X3X0XrX3X3X3X8X2X7Xl.I.R.U.U.>.>.1.<.w.w.e.9.9.t.8.7.7.8.9.9.9.e.w.1.1.>.~.H.I.nX1X1X5XV.pXf P K Z | { } q V ..d h =X;X",
"7XI.J.&.2.=.:.0.3.#X+XP.bX<Xn.0X3XrXrXrX4X4Xm.m.1Xl.L.L.U.,.>.*.;.w.w.q.e.9.9.8.7.7.9.9.9.e.e.w.1.>.2.,.U.R.nXnXwX0XV.N.jXxXI _ B F ( { ` N c c jX%XtX",
",XE.G.2.<.6.0.-.2.+XP.bX2X2X5X5X$X:XqXtX5X3X5X8X1Xn.I.R.Y.(./.;.-.w.q.q.e.5.8.7.8.5.e.9.e.q.w.1././.(.U.H.L.nXwXwXrXC.sXjXP r y | 0 0 | B U p jXkX-X8X",
"I.G.!.-.=.q.0.-.>.+XcX2X1X5X5X$X-X;X:X%X&XrX4X3X7Xn.R.Y.U.T.(.*.-.w.w.q.e.t.8.t.9.e.w.q.r.=.;.>.~.H.U.Y.K.v.1XwXqX%XN.u P U r C | { S Z ..d f kX:X0X,X",
"E.G.!.-.-.q.-.>.U.cX2X0XqX-X%X%X;X*X>X;X;XrX4X4X8X7XL.R.T.(.>.;.-.w.e.e.9.9.9.9.e.w.w.w.-.:.1.>.G.H.U.R.L.l.1XrXtX%XN.u P R C S 0 w ` C Y x kXlXlXeXvX",
"%.>.1.3.0.3.2.+XcX,X7XrX-X%X*X*XdXdXdXkX>X$X6X6X8Xn.I.R.Y.(.~.;.w.e.0.e.9.9.5.e.q.w.:.-.;.1.2.,.U.U.mXcXnX<X8Xc.&X;Xu j R T A W Q V N U g fX*XlXqX2XI.",
"U.>.-.-.-.2.+XcX2X2X3X&X;X*XfXfXdXdXdXdX*X%X&X4X3Xn.I.R.U.(.>.;.w.e.0.e.9.6.e.q.e.-.=.;.;.*.,.,.T.U.cXbXnXwXrX4X;X>XjXP R T Z M V C Y d h =X;XlX0X<XcX",
"%.>.2.<.2.%.P.<X0X5X&X*XpXdXh h h fXdXfX=X*X;X6X3X7XQ.L.U.,.>.<.w.q.9.0.0.e.q.w.-.;.;.^.^.~.,.T.Y.K.I.nXwXwXrX;X>XkXh p H C m F A T Y L jX>X-XqX2XI.cX",
"%.#X3.<.~.P.,X2XrX-X*XpXpXf h L L h f f dXpX;X&X3X7Xn.L.U.T.>.=.=.q.0.0.w.r.w.<.;.;.*.~.~.G.T.mXR.W.l.<X7X3XV.N.pXjXi a H y W B ..c P dXpXlXrXqX<XL.E.",
"+X#X2.%.E.z.7X6X%X*XfXf j j j L L j h h fXpX%X;X5X3Xn.I.R.U.>.;.:.w.w.r.w.-.<.;.*.>.>./.U.U.U.R.I.vX,X7Xx.g.aXN.pXjXL J U _ y n c c c fXpX%X3X0X<XI.@X",
"T.%.&.P.l.7X&X%XiXdXzXh L I d j L j g h fXdX>X;X5X3X7XI.Y.G./.2.<.:.<.:.;.2.2.>.>.,.,.U.J.Y.mXI.l.<X2Xx.c.6X>XkXkXxXc R t y n Y c c kXkX:X:X5X3X<XbX@X",
"+X+XE.,Xm.c.;X*XdXfXh L I I d s d j g g h jX>X;XrX3Xv.I.R.U.~.>.;.;.;.2.2.2.>.~.~.T.U.U.L.R.bXvX,X8X1X5X3X:XkXkXjXh R K B C T c c c kXkX:X:X0X0X2XbXcX",
"cXcX2X5Xc.$X;XdXpXh j j d d d d d H L L L dX*X-XrX5Xn.K.L.mXT.>.^.*.2.>./.,./.%.T.T.R.cXR.I.vX,XwX7X4XrXB.%XkX=Xi j J r y A R P x x =X=XkX-X5X0X1XeXbX",
"<XeX0X0X%X;X=XdXg j j s s d H H d s g h jXdXaX$XrXrX1X,XW.R.mX+X,.,.,.U.G.G.G.T.U.P.I.vXW.v.n.8X3X5X4XqX-X;XkXdXf c Y r t H l j L h dXiX:X%X-XqX5X2X<X",
"2X5XrX:X%X*XdXdXh g s s d d H I d s i i =X*XaXV.6XrX1X<XvXvXmX+X+X+X+XH.Y.Y.J.Y.cXvXvXvXv.v.b.wX3X5X4X$X-XkXkXfXh P Y Y t k a a h h jX=XkX:X:XtX5X7X2X",
"3X6X-X;X*XpXpXfXL g i g L d d d I j i sXdX>X&X$X4X3X7X<XnXnXcX@XmXH.mXcXI.bXvXI.nX<X1XwX1X7Xm.5X4XrX&X$X;XkXkXzXf k H T Y J d j h u jX=XkXkX-X&XyXrX0X",
"%X%X$X*X*XdXdXf f j g j j I j j L h dXdXdX>X:XrX5Xm.b.7X<XnXnXbXcXK.K.bXvXI.eX<Xn.,Xn.wXwXx.c.rX5X:X%X;XkXiXfXc P J T T H d J c L x xXjXjX=X>X>X>X;X&X",
"&X%XaXdXdXdXfXfXh h g i g j L L L =X=X>X>X;XtXtXrX3Xx.j.,XnXnXbXbXbXk.vX<Xk.n.eXn.b.3X3X5Xx.Z.rXlX:XaXpXkXsXh c c Y Y K a a d c c c c x jXfXfXfX*X;X-X",
"iX*X*XdXdXdXfXfXfXh g g g f h zXfX=X>X>X;X%X%XyXtXrXm.h.b.n.Q.nXeXeXeXwXwX7Xx.2X5X5XqXrXA.$X%X;XkX>X*XkXjXsXg L I k k J J R R Y j a L P P x h h jX%XiX",
"iXpX*XpXpXdXpXsXdXdXdXpXpXpXfX=X>X>X>X>X;XaXV.A.6XrXrX9Xm.m.f.$.* $.4.2XlXqX0X3XZ.5XtX:XM.$.= * ; d.sXjXx u 4 a a 8 t Y Y H J R d k H P s d P g dX*XiX",
"*X*XdXdXdXpX*XpXpX*XpXpXpXdX*X>X>X;X:X:X-X$XA.Z.A.6XqXtX5X* o   o X . + 4.yXrXtXV.B.lX4.+   . o   X * e j L j k l t K K K r r Y T Y R R t d I f fXpXsX",
"=X*XdXdX*X;X%X%X%X*X*X*X*X;X;X;X;X;XrXrX-X%XV.Z.Z.V.5XtX* . # a.[.[.i.O . $.S.&X:X>XM.o X #._.[.D.O.  $ 5 k Y R Y C t t K _ r C C n C B C t j h =X*X*X",
"*X*X%X%X*X%X$X%X%X&X;X;X;XyXrX5X6X4X4X5XrXrX4XZ.B.B.aXM.X # ].oXoXoXoXF.O O d.S.>XuX+ X a.oXoXXXoX}.+.  > l Y T T A t b C y _ N y y B ` y l j h =X=X=X",
"dX%X%X%X&X&X6X5X6X6X6XrXrX5X5X5Xm.c.c.c.3XrXrX4XB.B.V.* . F.OX.X|.|.|.oXi.  ; sXdX: . @.XX|.|.|.|.oX`.o $ J T T C C Z A A B _ _ y F F V y I j h fXdXpX",
"dX*X%X%X5X5X3X3X3X3X5X0X8X1X2X1Xm.b.b.x.x.4XrXrX$XaXd.X O..X|.|.|.|.|.oX_.. = fXh $ X _.oX|.|.|.|.|..X# O a B C y _ B | | | S ` S D m Z U d j f pXpXsX",
"*X-X6X4X3X7Xm.m.7X7X1X1X1XnXnXnXl.v.j.j.h.x.4XrX-X>X;   p.oX|.|.|.|.|.oXF.. = a 2 o o..X|.|.|.|.|. X}.# O 5 _ N _ _ V | | S 0  . .S V y K J j f dXdXpX",
";XrX3Xm.7X7Xn.Q.I.I.I.vXvXcXcXcXvXQ.k.j.h.h.x.5X:X:X$ o `.oX|.|.|.|.|.oXi.  < ' >   p.oX|.|.|.|.|.oX_.o * _ y B ` ` S |  .Q ! q Q G Z t k d h f pXdX>X",
"g.3X7Xn.,XvXvXvXL.Y.Y.R.mXP.R.mXcXI.W.k.j.h.x.c.tXM.X O.|.|.|.|.|.|. X.Xo.o e d # o `.oX|.|.|.|.|.oXu.  <  .Z | F M Q / { / ^ w Q S A n r s h fX=X>X;X",
"4X8X7XI.I.I.R.R.U.U./.,.(.G.G.U.P.mXI.v.j.h.h.c.;X;   a.oX|.|.|.|.|.oX[.. % l 2 . +.|.|.|.|.|.|. X}.# O v | | |  .Q 7 ! { { { F m C y k a g jXpX*X;X%X",
"7X,XI.I.R.R.U.(.,.>.>.>.*.^.!.^.G.T.MXvXn.b.x.c.g.$ o `.oX|.|.|.|.|.oXu.  > ' -   a.oX|.|.|.|.|.oXF.. - |  .F  .{ ^ ! ( { { q Q _ y _ d d j fX>X%X6X4X",
"7XvXI.U.U.(.(.>.1.1.<.1.;.!.!.!.!.U.cXnX1X7Xm.A.d.. +.|.|.|.|.|.|. X}.# o 5 8 # O ].XX|.|.|.|.|.XX#.  2  .0 0 { { { { ( q { W W ` N H R j fXgXiX&X4Xm.",
"vXI.U.U./.>.>.;.=.-.w.y.-.=.!.!.J.L.vXwXwX5Xc.V.=   a.oX|.|.|.|.|.oXF.. % W 1   @. X|.|.|.|.|. X'.+ O N  ./ q } } } ( ! Q q ] y _ r J P L fXpX;XrX3X,X",
"vXR.T./.;.;.-.r.q.q.e.w.<.>.^.H.H.W.n.8XrX6XaXB.# O ].XX|.|.|.|.|.oXu.  < ] &   D.oX|.|.|.|.|.oXD.  - ( { { { 9 z z 9 ! ^ | Z y r k a h fXfX;X6X3X2XI.",
"mXU.(.*.=.w.e.q.e.e.q.w.2.,.T.Y.K.K.b.c.6X&XhXd.. +.|.|.|.|.|.|. X}.# O , r O # {. X|.|.|.|.|. X@.  1 ! ( 9 & X . . o & z F C y H P j jXfXgXtXrX2XvXcX",
"T.).>.-.w.q.9.9.9.6.r.:.,.T.U.R.K.j.h.Z.V.aXhX-   a.oX|.|.|.|.|.oXF.  & Q <   u.XX|.|.|.|.|.XX].O + 7 ~ , +   o.u.u.O.o O 2 B R R s h sXiX;XyXwXnXbXR.",
"/./.;.w.q.9.9.9.9.6.=.~.(.Y.K.K.v.j.h.Z.S.N.C.# O ]. X|.|.|.|.|. X#.  1 Q & o F.oX|.|.|.|.|.oXa.  > ~ ~ %   u..XXXXX|.p.. % k R L u pXiX:X6X3X1XvXmXU.",
"/.;.w.q.9.t.9.0.w.=.;./.U.K.K.k.b.x.Z.B.S.N.< . +. X|.|.|.|.|. X'.+ O 7 , O # }. X|.|.|.|.|.|.+.. , ~ , o # .X X|.|.XX|.O.o 2 l zXjX*XV.rX3X,XvXR.U.(.",
";.w.e.9.8.8.9.w.1.;.~.G.U.I.v.b.c.x.B.S.C.N.-   s.oX|.|.|.|.|.oXs.  & ~ >   u.oX|.|.|.|.|.oX`.o $ q ( =   a.oX|.|.|.|. X@.. 2 a zXkX;XB.5X1XI.R.U./.*.",
"w.q.9.8.7.5.e.1.2.~.G.Y.P.vX1X7Xc.B.C.C.N.3 O + '. X|.|.|.|.|. X@.  1 ~ % o [.oX|.|.|.|.|.oXp.  < } n O + '. X|.|.|. X}.# O e sXsX;X5X3X2XvXvXU.(.*.:.",
"q.9.8.7.5.e.;.1.>./.Y.R.vX<X7X3X$XV.C.N.u <   @. X|.|.|.|.|.XX].O # 7 6 o O..X|.|.|.|.|.|..Xo.o 9 } <   u.oX|.|.|.|.oXF.. * jXsXaXV.3X7Xv.I.MXG.>.1.w.",
"5.8.7.8.e.w.>.>.(.U.R.I.1X8X3Xg.aXiXN.3 a -   s.oX|.|.|.|.|.oXa.  > ~ &   a.oX|.|.|.|.|.oX[.o % ^ n + O ].XX|.|.|.|. X#.. 2 xXgX:X5X8X<XI.R.T./.;.w.q.",
"8.8.8.9.q.;.>.(.U.L.I.1XwX5X$XV.N.iXi i 3 O + {. X|.|.|.|.|.|.+.@ 6 6 o # }. X|.|.|.|.|.oXu.  < ( ;   p.oX|.|.|.|.XX].O # &XkX:XtX7Xv.I.R.T.(.1.=.q.9.",
"7.9.e.w.-.1.>.U.R.L.,X1XrXyXaXiXsXu i I 2 . #. X|.|.|.|.|.oX`.o % 7 # . F.oX|.|.|.|.|. X}.# O y 2 . # }. X|.|.|.|.oXi.  = kX$X4XwX7XvXmXT.U.~.:.r.e.8.",
"8.e.w.-.;.~.T.R.I.,X1XrXyX;XpXiXi u i E ;   s.oX|.|.|.|.|.oXa.  & %   u.oX|.|.|.|.|.|.oXF.. % < o O [.XX|.|.|.|. X'.+ O uX>XB.m.wXvXR.T./.).;.r.e.5.7.",
"e.w.-.;.~.U.mXvX,X1X5X6XgXfXfXf i s d E = o F.oX|.|.|.|.|.oXu.. O   #.|.|.|.|.|.|.|.|.oXu.. + . O _.oX|.|.|.|.|.oXu.. ; lX5X3XwXvXK.H.U.^.^.r.e.5.7.7.",
"w.:.;.>.U.Y.vXn.7X3X$XaXsXzXzXL d I K B = o _.oX|.|.|.|.|.oXs.o # a.|. X|.|.|.|.|.|.|.oXs.O + @.`.oX|.|.|.|.|.oX[.o + g.tXwXwXnXI.Y.U.~.*.=.q.9.8.7.9.",
"w.*.>.(.U.I.7X7X3X%XaXsXdXL P J R K b V <   D.oX|.|.|.|.|.|.|.].}.oX|.|.|.|.|.|.|.|.|.|. X'.'. XoX|.|.|.|.|. X}.O.. f.yXwXwXnXvXY.U.~.;.-.q.9.8.7.9.q.",
">.>.(.U.I.,X8X6X;X%XdXf L R J K Y C B ] <   u.oX|.|.|.|.|.|.|. X X|.|.|.|.|.|.|.|.|.|.|.|. X X|.|.|.|.|.|.|. X#.. * 6XwXwX<XI.I.J.^.;.=.q.9.8.7.8.e.r.",
",./.U.I.l.9XyX;XiXsXh L P R C b C C V Q , O + '.XX|.|.|.|.|.|.|.|.|.|.|. X.X|.|.|.|.|.|.|.|.|.|.|.|.|.|. X Xi.. # M.0XwXnXL.K.R.G.*.-.e.9.t.7.8.9.w.1.",
"(.U.I.,X7X6X;XdXsXi j d H b C B S S 0 Q ! >   #.XX X|.|.|.|.|.|.|.|.|.oX}.+.a.oX|.|.|.|.|.|.|.|.|.|.|.oX.Xu.. + d.A.1XnXvXK.Y.).~.:.w.9.9.8.8.9.q.-.>.",
"U.I.vX7X4XhXgXfXg j d t N B S S F q ^ Q ) W # . u.|.oX|.|.|.|.|.|.XXoX`.O.. O a.|.oX X|.|.|.|.|.|.oXXX`.+.. + f.A.7XnXbXP.J.U./.=.r.q.5.8.8.9.e.w.2.>.",
"R.vX1X4XaXdXdXh d l t N B V M 0 { q ( ^ Q ) , + . +._..X XoXoXoX|.].p.O . $ O . +._.}. XoXoXoX X.X[.u.O . $ M.9Xn.nXbXmXU.U.,.;.r.0.9.8.8.e.q.w.;./.T.",
"I.7X5X;XpXdXj s k t N V M / Q Q ^ ^ q ( ^ / ( 9 * . . o.u.p.a.i.+.O   O < 8 < #   X # u.p.a.p.#.o.o   O = 3X8Xb.v.vXmXmX(.,.2.w.q.9.8.8.e.w.w.<.>.U.L.",
"m.4X;X*XdXg d U N m m M ^ / Q Q Q D F F q q q q G 2 % X .     . X $ > 5 ' 8 ' 5 > $ O .       . O $ $.M.5X8Xb.k.W.mXmX,.2.2.w.q.5.8.7.9.q.w.<.>.(.R.n.",
"4X;X*XdXg d b B m m / ( ^ / Q Q ` D G  . . .F D D D B z < < < 1 5 5 ' 4 4 4 4 4 4 3 2 d.< < f.f.d.g.yX0X1Xn.k.W.R.mX,.2.;.:.e.9.8.7.9.q.r.;.*.U.U.vXm.",
";X>XdXg d n B m Q / q D ] ` y m V G F F F F S m ` r t y ` _ ' _ r 4 4 4 4 4 4 3 3 N.gXzXgXhXV.A.A.4X2X<XnXvXI.W.Y.(.2.;.=.q.9.8.7.8.e.w.<.2.(.R.vX8X5X",
"*XdXj k t m S q w q F D V y B C B B S C Z C B y r _ r r 4 4 5 4 4 4 u u 3 3 3 N.N.iX%X:XyX5Xc.x.x.x.n.nXbXMXR.J.^.>.<.-.q.9.8.7.8.e.w.1.1.,.U.I.7XyXyX",
"fXs d N y y 0 q w D M B y t N b N t N C C C K r r r r a 4 4 4 4 4 3 i pXiXN.N.N.aX%X;XrXrX3Xc.h.h.j.W.vXMXMXY.G.*.<.y.e.9.t.7.8.e.q.=.*.~.Y.I.,X5XaXpX",
"j d N m ] ^ ( w D V B N t t t t t t K K H H J l a 4 a p a 4 4 4 3 3 sX=X*X%XaXV.V.V.4X5XwX7Xb.j.k.k.L.mXmXT./.*.<.w.e.9.9.7.8.9.q.=.1.>.Y.I.vX9X;XhXu ",
"d b B D ^ ( ^ 0 m B U k k k k a k d J d a a d L g p g h i 3 3 3 3 N.iX>X:X;X$XB.B.Z.x.7X1X1Xn.v.W.W.U.T.(.(.2.-.r.e.9.9.8.8.9.e.r.;.>.T.R.vX8X6XaXsXi ",
"b B D  .( ( D V N H d s s j s a s s g g a a g zXx L zXzXdX3 N.N.C.C.aX;XtXyX4XZ.Z.Z.b.b.,XnXvXI.R.T.(./.~.*.-.r.6.9.t.8.9.9.e.w.<.>.T.R.I.7X6XgXdXg I ",
"y Q ( ( ( M S b H J L L x L h j i u i dXpXsXfXjXkXkXjXjXdXN.C.aXaXaXaX$X5XrX3Xx.Z.b.j.v.I.cXMXmXT.,./.^.!.=.w.e.9.t.8.5.e.e.r.;.>.U.Y.nX8X4XaXsXf d K ",
"Q / ( ( ] B t d I x i f jX=XfXjXdXsXdX*XpX=X>XpXpX>X*XgX;XaXV.&X&XV.B.Z.m.1X8Xm.b.b.K.W.R.MXmX,.,.2.*.=.=.r.e.9.t.8.8.e.e.r.:.*.,.R.I.7X5X&XpXf L t y ",
"^ ( ( D S C d g h i S.C.*X*XpXdX;X:X:X$XC.%X;XV.C.$XV.V.&XrXrXrXrXA.Z.h.b.7XnX,XW.K.K.Y.T.T.,.2.2.2.-.w.r.e.5.8.7.t.e.0.w.<.*.(.mXI.b.3X%X*Xf L K y Q ",
"X.( [ G b d j f =XpXV.$X:X;XaXV.-XqXtX$Xg.%XrX$XB.4XV.B.c.3X3XwXwX4Xh.j.b.I.nXvXR.U.U./.,.,.2.2.<.-.w.e.e.5.8.7.8.e.e.w.;.*.>.T.vXn.c.5XpX=XL H t Q Q ",
"( D S A J j u iX>X$X-XrXrXrX3X3X5X4X0X0X0X0XqX0X5X0X3Xc.4Xx.x.7XwX1Xn.v.Q.vXmXMXmXT.,.,.,.2.1.<.w.r.q.q.e.8.7.8.5.q.w.=.~.^.U.W.m.c.4X;XiXg I B S / ( ",
"^ G T J j jXpX%XrX4Xc.5X3X3XwX1Xm.b.7X7XwX1X7X1XwXwXwX1X1Xb.j.n.nXnXvXI.P.mXmXmX,.,.,.>.*.;.-.w.e.e.e.e.5.8.8.9.e.w.:.=.^.U.K.v.9X4X;XjXh d N m F q ( ",
"V B H P fX=X;X5X5Xm.m.m.7X2X<X<X2X2Xl.v.<X,Xj.,XeXwXwXwX<X,Xv.Q.I.cXmXmXT.T.(.,.2.2.1.;.^.=.q.q.9.e.e.8.8.8.9.e.e.<.1.~.G.R.Q.8X4X%XpXjXL t m M ( ( w ",
"A Y j jX*X&X5X7X2Xl.,X,X<XbXcXL.P.cXcXI.vXnX2X<XwXnX,X2XnXbXbXI.K.L.mXU.G.).(.2.2.1.1.=.=.r.q.e.e.9.8.8.8.9.e.r.-.1.~.G.L.nXwX5X$X*Xi a U V M ^ ^ w M ",
"U P h =X:XrX7X,X<XcXP.P.cXE.P.Y.U.cXbXl.n.nX<XwXwX1Xv.v.I.bXbXvXK.J.T./.!.^./.2.1.1.1.r.r.q.6.5.8.8.8.5.9.e.r.-.2.~.H.K.I.1XtXtX>Xi p t C D ( ( ^ / y ",
"d h kXlXqXwX2XbX@X@XP.+X%.G.%.T.L.L.W.,X1X,Xn.1X7X7Xv.Q.W.vXMXMXR.U.,.>.^.^.*.1.:.w.w.w.q.6.8.7.7.8.5.9.e.q.=.*.,.U.U.I.b.8X6X>XfXg J N G ^ ( { Q m n ",
"x jX:X0X2Xl.R.@X+X&.&.#X,.>.%.P.I.vXn.7X2X2X2X,Xb.v.v.I.R.cXMXmXmX,.>././.*.:.w.r.q.q.e.9.8.7.7.8.9.9.0.w.=.=.>.mXMXbXn.c.rXaX=Xu H t m  .{ ( q M C J "
};
